<svg xmlns="http://www.w3.org/2000/svg" width="828.945" height="334.021" viewBox="0 0 828.945 334.021">
  <g id="t1-ix1" transform="translate(-386 -6404)">
    <path id="Path_184726" data-name="Path 184726" d="M339.189,301.845a3.453,3.453,0,0,1-1.15-.2,140.74,140.74,0,0,1,0-265.408,3.46,3.46,0,0,1,2.3,6.527,133.819,133.819,0,0,0,0,252.355,3.461,3.461,0,0,1-1.15,6.724" transform="translate(416 6404)" fill="#ccc"/>
    <path id="Path_184727" data-name="Path 184727" d="M430.416,301.845a3.461,3.461,0,0,1-1.15-6.724,133.818,133.818,0,0,0,0-252.355,3.46,3.46,0,0,1,2.3-6.527,140.738,140.738,0,0,1,0,265.408,3.457,3.457,0,0,1-1.15.2" transform="translate(416 6404)" fill="#ccc"/>
    <path id="Path_184728" data-name="Path 184728" d="M214.436,271H2.513a31.51,31.51,0,1,0,0,63.021H214.436a31.51,31.51,0,1,0,0-63.021" transform="translate(415.998 6404)" fill="#ffb500"/>
    <path id="Path_184729" data-name="Path 184729" d="M213.434,0H1.511a31.51,31.51,0,1,0,0,63.021H213.434a31.51,31.51,0,1,0,0-63.021" transform="translate(416 6404)" fill="#87cc34"/>
    <path id="Path_184730" data-name="Path 184730" d="M247.693,270.57a.977.977,0,0,1-.578-1.765l27.307-20.016a.977.977,0,1,1,1.155,1.576L248.27,270.381a.969.969,0,0,1-.577.189" transform="translate(416 6404)" fill="#ffb500"/>
    <path id="Path_184731" data-name="Path 184731" d="M275.1,87.136a.975.975,0,0,1-.587-.2L247.1,66.3a.977.977,0,0,1,1.176-1.561l27.406,20.644a.977.977,0,0,1-.588,1.757" transform="translate(416 6404)" fill="#87cc34"/>
    <path id="Path_184732" data-name="Path 184732" d="M283.649,85.949a8.791,8.791,0,1,1-8.792-8.792,8.792,8.792,0,0,1,8.792,8.792" transform="translate(416 6404)" fill="#87cc34"/>
    <path id="Path_184733" data-name="Path 184733" d="M283,249.712a8.792,8.792,0,1,1-8.792-8.792A8.792,8.792,0,0,1,283,249.712" transform="translate(416 6404)" fill="#ffb500"/>
    <path id="Path_184734" data-name="Path 184734" d="M554.212,271H766.135a31.51,31.51,0,1,1,0,63.021H554.212a31.51,31.51,0,1,1,0-63.021" transform="translate(416.299 6404)" fill="#3c6d9d"/>
    <path id="Path_184735" data-name="Path 184735" d="M555.215,0H767.138a31.51,31.51,0,1,1,0,63.021H555.215a31.51,31.51,0,1,1,0-63.021" transform="translate(416.296 6404)" fill="#e2e2e2"/>
    <path id="Path_184736" data-name="Path 184736" d="M520.956,270.57a.977.977,0,0,0,.578-1.765l-27.307-20.016a.977.977,0,1,0-1.155,1.576l27.307,20.016a.969.969,0,0,0,.577.189" transform="translate(416 6404)" fill="#3c6d9d"/>
    <path id="Path_184737" data-name="Path 184737" d="M493.551,87.136a.975.975,0,0,0,.587-.2L521.545,66.3a.977.977,0,0,0-1.176-1.561L492.963,85.379a.977.977,0,0,0,.588,1.757" transform="translate(416 6404)" fill="#e2e2e2"/>
    <path id="Path_184738" data-name="Path 184738" d="M485,85.949a8.792,8.792,0,1,0,8.792-8.792A8.792,8.792,0,0,0,485,85.949" transform="translate(416 6404)" fill="#e2e2e2"/>
    <path id="Path_184739" data-name="Path 184739" d="M485.65,249.712a8.792,8.792,0,1,0,8.792-8.792,8.792,8.792,0,0,0-8.792,8.792" transform="translate(416 6404)" fill="#3c6d9d"/>
    <rect id="Rectangle_39225" data-name="Rectangle 39225" width="27.581" height="2.965" transform="translate(745.964 6654.657)" fill="#ffb500"/>
    <rect id="Rectangle_39226" data-name="Rectangle 39226" width="27.581" height="2.965" transform="translate(773.33 6654.657)" fill="#78b62e"/>
    <rect id="Rectangle_39227" data-name="Rectangle 39227" width="27.581" height="2.965" transform="translate(800.695 6654.657)" fill="#3c6d9d"/>
    <rect id="Rectangle_39228" data-name="Rectangle 39228" width="27.581" height="2.965" transform="translate(828.061 6654.657)" fill="#e2e2e2"/>
    <g id="Group_107551" data-name="Group 107551" transform="translate(9922 11185.084)">
      <g id="smart-farm" transform="translate(-9158 -4696)">
        <g id="_e3f4ffff" data-name="#e3f4ffff">
          <path id="Path_184746" data-name="Path 184746" d="M1.815,9.938a1.525,1.525,0,0,1,1.462-.981q32.923-.013,65.845,0a1.544,1.544,0,0,1,1.56.868c.518,1.124.994,2.267,1.5,3.395a2.431,2.431,0,0,1,.323,1.237,1.443,1.443,0,0,1-1.236,1.271c-.573.055-1.151.014-1.724.025H3.011a10.3,10.3,0,0,1-1.983-.082,1.45,1.45,0,0,1-.885-1.89C.679,12.49,1.257,11.218,1.815,9.938Z" transform="translate(-0.035 -8.947)" fill="#e2e2e2"/>
          <path id="Path_184747" data-name="Path 184747" d="M203.578,246.6q3.995,0,7.989,0c.772,0,1.543.01,2.316-.013a32,32,0,0,0,.115,4.053c-.811-.017-1.621-.008-2.431-.008q-3.995,0-7.989,0c-.8,0-1.605-.009-2.408.007a35.825,35.825,0,0,0,.108-4.052C202.045,246.613,202.811,246.6,203.578,246.6Z" transform="translate(-172.689 -212.946)" fill="#d2e1f1"/>
          <path id="Path_184748" data-name="Path 184748" d="M0,248.04a1.5,1.5,0,0,1,1.426-1.42c1.79-.038,3.58,0,5.371-.017.766,0,1.532.01,2.3-.013.02,1.351-.041,2.706.108,4.052-.8-.016-1.6-.007-2.405-.007-1.794-.013-3.588.024-5.38-.017A1.5,1.5,0,0,1,0,249.226Z" transform="translate(0 -212.946)" fill="#d2e1f1"/>
          <path id="Path_184749" data-name="Path 184749" d="M428.009,246.59c.765.023,1.529.011,2.295.013,2.55,0,5.1,0,7.651,0a1.989,1.989,0,0,1,1.2.275,1.589,1.589,0,0,1,.646,1.143V249.2a1.567,1.567,0,0,1-.656,1.176,2.3,2.3,0,0,1-1.324.265c-2.506-.007-5.01,0-7.515,0-.8,0-1.61-.009-2.414.007C428.026,249.3,427.988,247.942,428.009,246.59Z" transform="translate(-367.311 -212.946)" fill="#d2e1f1"/>
          <path id="Path_184750" data-name="Path 184750" d="M.889,437.284a6.228,6.228,0,0,1,1.947-.142H69.652a6.249,6.249,0,0,1,1.942.14,1.555,1.555,0,0,1,.892,1.32v6.375a1.561,1.561,0,0,1-1.695,1.461q-34.549,0-69.1,0A1.561,1.561,0,0,1,0,444.98V438.6A1.553,1.553,0,0,1,.889,437.284Z" transform="translate(0 -376.515)" fill="#e2e2e2"/>
        </g>
        <g id="_43a3f9ff" data-name="#43a3f9ff" transform="translate(2.974 6.803)">
          <path id="Path_184751" data-name="Path 184751" d="M21.011,57H87.546c0,.576.007,1.154-.01,1.73-5.754.042-11.509,0-17.264.017-16.417-.013-32.834.02-49.251-.016C21,58.154,21.013,57.578,21.011,57Z" transform="translate(-21.01 -57)" fill="#3c6d9d"/>
        </g>
        <g id="_64bdffff" data-name="#64bdffff" transform="translate(2.986 8.533)">
          <path id="Path_184752" data-name="Path 184752" d="M21.09,69.221c16.417.035,32.834,0,49.251.016,5.755-.016,11.51.025,17.264-.017-.038.7.122,1.528-.411,2.091a2.268,2.268,0,0,1-1.846.477q-31.289-.006-62.579,0a1.6,1.6,0,0,1-1.328-.546C20.972,70.674,21.131,69.9,21.09,69.221Z" transform="translate(-21.09 -69.22)" fill="#61b1ff"/>
        </g>
        <g id="_ffeee1ff" data-name="#ffeee1ff" transform="translate(6.477 20.636)">
          <path id="Path_184753" data-name="Path 184753" d="M51.953,155.312a3.334,3.334,0,0,1,1.9-.525c2.737,0,5.472,0,8.209,0a3.819,3.819,0,0,1,2.122.464c.9.511,1.219,1.637,2.149,2.117a5.775,5.775,0,0,0,2.826.443,1.408,1.408,0,0,1,1.315,1.263,3.2,3.2,0,0,1-2.5,3.29,11.006,11.006,0,0,1-1.87.1c-1.253-.016-2.506-.008-3.757-.008a4.225,4.225,0,0,0-2.363.624,3.98,3.98,0,0,0,1.8,7.336c1.433.064,2.87.016,4.3.025-.016.467-.05.936-.112,1.4a9.727,9.727,0,0,1-.369,1.321c-4.986,0-9.974-.021-14.962.008a7.845,7.845,0,0,1-.4-1.335,33.088,33.088,0,0,1-.125-4.053c0-1.767,0-3.534,0-5.3a17.947,17.947,0,0,1-1.87-.113,3.208,3.208,0,0,1-2.5-3.294,1.434,1.434,0,0,1,1.43-1.271,5.1,5.1,0,0,0,2.786-.479c.845-.479,1.165-1.494,1.979-2.006m1.092,9.452a1.143,1.143,0,0,0-.614,1.094c-.008.541-.081,1.212.4,1.587a1.091,1.091,0,0,0,1.7-.456,3.851,3.851,0,0,0,.023-1.553A1.087,1.087,0,0,0,53.045,164.764Z" transform="translate(-45.747 -154.771)" fill="#ffeee1"/>
          <path id="Path_184754" data-name="Path 184754" d="M278.543,155.283a3.539,3.539,0,0,1,1.966-.573c.1,1.681-.309,3.5.528,5.051a4.3,4.3,0,0,0,8.054-1.482c.113-1.185.031-2.378.052-3.566a3.431,3.431,0,0,1,1.876.607c.7.477,1,1.335,1.7,1.811a3.392,3.392,0,0,0,2.125.593,2.615,2.615,0,0,1,1.785.351,1.653,1.653,0,0,1,.454,1.661,3.239,3.239,0,0,1-2.459,2.563,14.472,14.472,0,0,1-1.869.11q0,2.652,0,5.3a30.624,30.624,0,0,1-.136,4.063,8.334,8.334,0,0,1-.386,1.328c-4.988-.028-9.975-.014-14.963-.007a8.939,8.939,0,0,1-.374-1.321,31.655,31.655,0,0,1-.137-4.065c0-1.768.024-3.538-.007-5.308a12.888,12.888,0,0,1-1.855-.1,3.2,3.2,0,0,1-2.5-3.282,1.407,1.407,0,0,1,.932-1.2,14.854,14.854,0,0,1,1.993-.132,2.967,2.967,0,0,0,2.07-1.134,5.382,5.382,0,0,1,1.15-1.271m1.178,9.4c-.753.324-.688,1.264-.631,1.944a1.07,1.07,0,0,0,1.195.992,1.088,1.088,0,0,0,.966-1.113,2.357,2.357,0,0,0-.227-1.484,1.082,1.082,0,0,0-1.3-.34m9.1.048c-.672.372-.589,1.247-.541,1.9a1.075,1.075,0,0,0,1.2.99,1.1,1.1,0,0,0,.963-1.113,2.371,2.371,0,0,0-.221-1.475A1.08,1.08,0,0,0,288.818,164.734Z" transform="translate(-240.302 -154.71)" fill="#ffeee1"/>
          <path id="Path_184755" data-name="Path 184755" d="M48.782,217.82a12.693,12.693,0,0,0,1.571.471,16.911,16.911,0,0,1,0,1.856c-.757.021-1.516.016-2.274,0A4.519,4.519,0,0,1,48.782,217.82Z" transform="translate(-47.75 -208.885)" fill="#ffeee1"/>
          <path id="Path_184756" data-name="Path 184756" d="M201.931,218.286a11.244,11.244,0,0,0,1.573-.476,4.411,4.411,0,0,1,.705,2.329c-.759.017-1.519.025-2.277-.006C201.909,219.517,201.906,218.9,201.931,218.286Z" transform="translate(-179.804 -208.877)" fill="#ffeee1"/>
          <path id="Path_184757" data-name="Path 184757" d="M274.7,220.11a4.5,4.5,0,0,1,.715-2.34,9.834,9.834,0,0,0,1.576.481q.025.924,0,1.85C276.229,220.129,275.465,220.119,274.7,220.11Z" transform="translate(-242.286 -208.842)" fill="#ffeee1"/>
          <path id="Path_184758" data-name="Path 184758" d="M428.61,218.342q.792-.2,1.567-.462a4.723,4.723,0,0,1,.694,2.322c-.759.013-1.518.02-2.275,0A13.312,13.312,0,0,1,428.61,218.342Z" transform="translate(-374.372 -208.937)" fill="#ffeee1"/>
          <path id="Path_184759" data-name="Path 184759" d="M48.061,287.37c.936.052,1.873-.008,2.809.048a12.742,12.742,0,0,0,1.169,2.275,9.714,9.714,0,0,0,17.092-1.812c.106-.178.161-.5.432-.474.857-.045,1.716,0,2.575,0q-.015,6.694,0,13.387c-1.935.006-3.872-.01-5.807.01.024-.958.017-1.917.01-2.874a1.543,1.543,0,0,0-.58-1.268,1.96,1.96,0,0,0-1.28-.32c-3.023.011-6.045-.006-9.068.008a1.485,1.485,0,0,0-1.54,1.441c-.031,2.044,0,4.092-.013,6.136-1.931,0-3.861,0-5.792,0,0-1.867.011-3.733-.008-5.6a3.648,3.648,0,0,0,2.237-.844,3.439,3.439,0,0,0,.857-4.07,3.5,3.5,0,0,0-3.093-1.958Q48.081,289.413,48.061,287.37Z" transform="translate(-47.733 -268.589)" fill="#ffeee1"/>
          <path id="Path_184760" data-name="Path 184760" d="M274.681,287.5c.909,0,1.822-.061,2.728.016a3.666,3.666,0,0,1,.555,1.042,9.738,9.738,0,0,0,15.626,2.7,10.686,10.686,0,0,0,2.373-3.747c.934-.045,1.87-.028,2.806,0-.035,5.5-.006,11.01-.016,16.516h-5.786q0-2.926,0-5.851a1.662,1.662,0,0,0-.554-1.392,2.07,2.07,0,0,0-1.417-.343c-2.568.016-5.136-.014-7.7.016a5.482,5.482,0,0,0-3.763-3.277,5.623,5.623,0,0,0-4.85,1.168Q274.716,290.918,274.681,287.5Z" transform="translate(-242.269 -268.677)" fill="#ffeee1"/>
          <path id="Path_184761" data-name="Path 184761" d="M280.479,365.356c.042-1.869-.062-3.742.051-5.606-.055,2.1.034,4.209-.055,6.313h-5.78c0-.52.007-1.039-.014-1.557a6.316,6.316,0,0,0,1.913,1.063A5.51,5.51,0,0,0,280.479,365.356Z" transform="translate(-242.269 -330.721)" fill="#ffeee1"/>
        </g>
        <g id="_618baaff" data-name="#618baaff" transform="translate(6.793 20.619)">
          <path id="Path_184762" data-name="Path 184762" d="M329.655,154.6c2.877-.021,5.756-.027,8.635,0-.021,1.188.061,2.381-.052,3.566a4.3,4.3,0,0,1-8.054,1.482C329.346,158.1,329.751,156.283,329.655,154.6Z" transform="translate(-289.764 -154.585)" fill="#3c6d9d"/>
          <path id="Path_184763" data-name="Path 184763" d="M135.044,209.555a4.225,4.225,0,0,1,2.363-.624c1.252,0,2.5-.007,3.757.008-.011,1.773,0,3.544-.007,5.316-.011.888.006,1.774-.007,2.662-1.434-.01-2.871.038-4.3-.025a3.98,3.98,0,0,1-1.8-7.336m2.686,1.577a1.1,1.1,0,0,0-1.045,1.062c-.024.588-.117,1.325.4,1.74a1.093,1.093,0,0,0,1.7-.471,3.933,3.933,0,0,0,.045-1.416A1.084,1.084,0,0,0,137.73,211.132Z" transform="translate(-121.119 -201.235)" fill="#3c6d9d"/>
          <path id="Path_184764" data-name="Path 184764" d="M48,316.23a3.5,3.5,0,0,1,3.093,1.958,3.439,3.439,0,0,1-.857,4.07A3.648,3.648,0,0,1,48,323.1Q47.974,319.666,48,316.23Z" transform="translate(-47.985 -293.345)" fill="#3c6d9d"/>
          <path id="Path_184765" data-name="Path 184765" d="M274.545,327.961a5.623,5.623,0,0,1,4.85-1.168,5.481,5.481,0,0,1,3.763,3.277,12.922,12.922,0,0,0-1.689.079,1.451,1.451,0,0,0-1.075,1.178c-.113,1.865-.009,3.738-.051,5.606a5.51,5.51,0,0,1-3.886.212,6.316,6.316,0,0,1-1.913-1.063Q274.5,332.023,274.545,327.961Z" transform="translate(-242.45 -302.282)" fill="#3c6d9d"/>
          <path id="Path_184766" data-name="Path 184766" d="M177.006,382.217c1.935-.02,3.872,0,5.807-.01.018,1.045.006,2.088.008,3.133h-5.833C177,384.3,176.97,383.257,177.006,382.217Z" transform="translate(-158.723 -349.981)" fill="#3c6d9d"/>
        </g>
        <g id="_fecbaaff" data-name="#fecbaaff" transform="translate(6.794 28.225)">
          <path id="Path_184767" data-name="Path 184767" d="M50.183,208.33a17.947,17.947,0,0,0,1.87.113c-.006,1.767,0,3.534,0,5.3q-.879-.023-1.757,0c-.766.023-1.532.011-2.3.013,0-.585-.013-1.171.01-1.756.757.013,1.516.018,2.274,0a16.913,16.913,0,0,0,0-1.856,12.686,12.686,0,0,1-1.571-.471A4.419,4.419,0,0,1,50.183,208.33Z" transform="translate(-47.992 -208.327)" fill="#fecbaa"/>
          <path id="Path_184768" data-name="Path 184768" d="M189.527,208.408a11.008,11.008,0,0,0,1.87-.1,4.468,4.468,0,0,1,1.468,1.345,11.244,11.244,0,0,1-1.573.476c-.025.616-.023,1.232,0,1.848.757.031,1.518.023,2.277.006.018.586,0,1.172.007,1.758-.767,0-1.533.01-2.3-.013-.586-.018-1.172-.018-1.757-.006C189.53,211.951,189.516,210.18,189.527,208.408Z" transform="translate(-169.483 -208.31)" fill="#fecbaa"/>
          <path id="Path_184769" data-name="Path 184769" d="M276.775,208.31a12.888,12.888,0,0,0,1.855.1c.031,1.77.006,3.539.007,5.308-.579-.011-1.158-.011-1.737.007-.773.023-1.545.011-2.316.013,0-.585-.017-1.169.013-1.753.764.008,1.529.018,2.293-.009q.023-.926,0-1.85a9.833,9.833,0,0,1-1.576-.481A4.339,4.339,0,0,1,276.775,208.31Z" transform="translate(-242.5 -208.31)" fill="#fecbaa"/>
          <path id="Path_184770" data-name="Path 184770" d="M416.222,208.42a14.474,14.474,0,0,0,1.869-.11,4.723,4.723,0,0,1,1.485,1.355q-.775.261-1.567.462a13.312,13.312,0,0,0-.014,1.856c.757.024,1.516.017,2.275,0,.034.585.014,1.171.017,1.756-.766,0-1.53.01-2.295-.013-.59-.018-1.181-.018-1.77-.006Q416.222,211.071,416.222,208.42Z" transform="translate(-364.089 -208.31)" fill="#fecbaa"/>
          <path id="Path_184771" data-name="Path 184771" d="M48,275.146c.8,0,1.6-.009,2.405.007q.886.019,1.774,0a7.846,7.846,0,0,0,.4,1.335,7.967,7.967,0,0,0,5.485,4.975,7.979,7.979,0,0,0,9.477-4.983,9.724,9.724,0,0,0,.37-1.321c.589.007,1.178.007,1.768,0,.8-.016,1.605-.007,2.408-.007,0,.589,0,1.179-.006,1.768-.859-.007-1.719-.048-2.575,0-.27-.024-.326.3-.432.474A9.731,9.731,0,0,1,51.99,279.2a12.742,12.742,0,0,1-1.169-2.275c-.936-.057-1.873,0-2.809-.048C48,276.3,48,275.721,48,275.146Z" transform="translate(-48.001 -265.682)" fill="#fecbaa"/>
          <path id="Path_184772" data-name="Path 184772" d="M274.589,275.146c.81,0,1.62-.009,2.431.009.586.01,1.172.01,1.76,0a8.937,8.937,0,0,0,.374,1.321,8.022,8.022,0,0,0,9.238,5.049,7.972,7.972,0,0,0,5.725-5.041,8.338,8.338,0,0,0,.386-1.328c.595.006,1.191.006,1.787-.006.8-.016,1.61-.007,2.414-.007,0,.59.01,1.181-.016,1.772-.936-.024-1.872-.041-2.806,0a10.686,10.686,0,0,1-2.373,3.747,9.738,9.738,0,0,1-15.626-2.7,3.667,3.667,0,0,0-.555-1.042c-.906-.076-1.819-.013-2.728-.016C274.579,276.324,274.586,275.735,274.589,275.146Z" transform="translate(-242.506 -265.682)" fill="#fecbaa"/>
        </g>
        <g id="_325d77ff" data-name="#325d77ff" transform="translate(13.151 30.515)">
          <path id="Path_184773" data-name="Path 184773" d="M158.841,224.488a1.084,1.084,0,0,1,1.1.915,3.933,3.933,0,0,1-.045,1.416,1.093,1.093,0,0,1-1.7.471c-.518-.415-.425-1.152-.4-1.74A1.1,1.1,0,0,1,158.841,224.488Z" transform="translate(-148.588 -224.487)" fill="#1c334a"/>
          <path id="Path_184774" data-name="Path 184774" d="M93.512,224.625a1.087,1.087,0,0,1,1.513.672A3.851,3.851,0,0,1,95,226.85a1.091,1.091,0,0,1-1.7.456c-.483-.375-.411-1.046-.4-1.587A1.143,1.143,0,0,1,93.512,224.625Z" transform="translate(-92.889 -224.511)" fill="#1c334a"/>
          <path id="Path_184775" data-name="Path 184775" d="M320.161,224.617a1.082,1.082,0,0,1,1.3.34,2.358,2.358,0,0,1,.227,1.484,1.088,1.088,0,0,1-.966,1.113,1.07,1.07,0,0,1-1.195-.992C319.473,225.881,319.408,224.941,320.161,224.617Z" transform="translate(-287.416 -224.52)" fill="#1c334a"/>
          <path id="Path_184776" data-name="Path 184776" d="M384.96,224.669a1.08,1.08,0,0,1,1.4.3,2.371,2.371,0,0,1,.221,1.475,1.1,1.1,0,0,1-.963,1.113,1.075,1.075,0,0,1-1.2-.99C384.371,225.916,384.287,225.041,384.96,224.669Z" transform="translate(-343.118 -224.524)" fill="#1c334a"/>
        </g>
        <g id="_bddff4ff" data-name="#bddff4ff" transform="translate(9.095 33.63)">
          <path id="Path_184777" data-name="Path 184777" d="M64.24,246.5q.877-.028,1.757,0a33.087,33.087,0,0,0,.125,4.053q-.888.021-1.774,0C64.2,249.21,64.26,247.855,64.24,246.5Z" transform="translate(-64.24 -246.489)" fill="#b0c0d2"/>
          <path id="Path_184778" data-name="Path 184778" d="M188.8,246.5c.585-.013,1.171-.013,1.757.006a35.825,35.825,0,0,1-.108,4.052c-.59.011-1.179.011-1.768,0,.062-.464.1-.933.112-1.4C188.8,248.27,188.788,247.383,188.8,246.5Z" transform="translate(-171.062 -246.487)" fill="#b0c0d2"/>
          <path id="Path_184779" data-name="Path 184779" d="M290.924,246.5c.579-.018,1.158-.018,1.737-.007a31.666,31.666,0,0,0,.137,4.065c-.588.006-1.174.006-1.76,0A32,32,0,0,1,290.924,246.5Z" transform="translate(-258.825 -246.485)" fill="#b0c0d2"/>
          <path id="Path_184780" data-name="Path 184780" d="M415.406,246.5c.589-.013,1.179-.013,1.77.006-.021,1.352.017,2.706-.119,4.052-.6.011-1.192.011-1.787.006A30.624,30.624,0,0,0,415.406,246.5Z" transform="translate(-365.573 -246.487)" fill="#b0c0d2"/>
        </g>
        <g id="_ffae85ff" data-name="#ffae85ff" transform="translate(11.381 39.013)">
          <path id="Path_184781" data-name="Path 184781" d="M80.39,284.526c4.988-.03,9.975-.013,14.962-.009a7.979,7.979,0,0,1-9.477,4.983A7.967,7.967,0,0,1,80.39,284.526Z" transform="translate(-80.39 -284.509)" fill="#ffae85"/>
          <path id="Path_184782" data-name="Path 184782" d="M306.85,284.52c4.988-.007,9.975-.021,14.963.007a7.972,7.972,0,0,1-5.725,5.041,8.021,8.021,0,0,1-9.238-5.049Z" transform="translate(-274.789 -284.51)" fill="#ffae85"/>
        </g>
        <g id="_5be167ff" data-name="#5be167ff" transform="translate(2.882 55.971)">
          <path id="Path_184783" data-name="Path 184783" d="M21.675,405.065a3.853,3.853,0,0,1,2.615-.767c1.931.007,3.861,0,5.792,0H48.369q4.005,0,8.01,0H80.439c1.195.023,2.394-.048,3.588.04a3.594,3.594,0,0,1,3.038,2.814c-2.381.1-4.767.014-7.15.044H22.85c-.83,0-1.661-.013-2.49.023A3.825,3.825,0,0,1,21.675,405.065Z" transform="translate(-20.36 -404.294)" fill="#94e039"/>
        </g>
        <g id="_1fc974ff" data-name="#1fc974ff" transform="translate(2.83 58.832)">
          <path id="Path_184784" data-name="Path 184784" d="M86.747,424.5a10.71,10.71,0,0,1,.065,1.8H20a13.044,13.044,0,0,1,.047-1.729c.83-.035,1.661-.024,2.49-.023H79.6C81.981,424.514,84.366,424.6,86.747,424.5Z" transform="translate(-19.991 -424.5)" fill="#78b62e"/>
        </g>
      </g>
      <g id="_000000ff" data-name="#000000ff" transform="translate(-9158 -4696)">
        <path id="Path_184740" data-name="Path 184740" d="M2.039,10.16A2.572,2.572,0,0,1,4.392,8.97q31.29,0,62.579,0a10.3,10.3,0,0,1,1.959.086,2.516,2.516,0,0,1,1.717,1.464c.493,1.073.944,2.165,1.434,3.241a3.98,3.98,0,0,1,.4,1.615v.052A2.631,2.631,0,0,1,71.328,17.3a3.33,3.33,0,0,1-1.75.415c-.04,1,.18,2.1-.385,2.989a2.525,2.525,0,0,1-2.224,1.161q-21.733.013-43.468.007c-.46-.008-1.011.025-1.335-.368a1.05,1.05,0,0,1,.454-1.692,8.734,8.734,0,0,1,1.722-.071q21.247,0,42.491,0c.229-.024.583.011.59-.311a15.077,15.077,0,0,0,.03-1.734q-31.211,0-62.42,0a14.786,14.786,0,0,0,.03,1.736c.025.378.48.277.743.316,3.966-.011,7.93,0,11.9-.008a1.581,1.581,0,0,1,1.121.293,1.061,1.061,0,0,1-.067,1.6,1.684,1.684,0,0,1-1.059.241q-5.734-.008-11.468,0a3.1,3.1,0,0,1-2.7-.857c-.827-.893-.588-2.19-.617-3.3a3.115,3.115,0,0,1-1.923-.535A2.685,2.685,0,0,1,0,15.449v-.064a7.6,7.6,0,0,1,.926-2.8c.377-.806.67-1.654,1.113-2.428m1.955.977c-.166.057-.2.255-.286.388-.463,1.052-.917,2.109-1.387,3.159a1.59,1.59,0,0,0-.185.637c.079.235.351.248.558.248H68.8a10.3,10.3,0,0,0,1.322-.03c.361-.11.194-.515.084-.755-.518-1.144-.994-2.308-1.526-3.445-.079-.252-.371-.238-.583-.245q-31.36,0-62.719,0A8.54,8.54,0,0,0,3.994,11.137Z" transform="translate(0 -8.966)"/>
        <path id="Path_184741" data-name="Path 184741" d="M11.912,152.032a4.1,4.1,0,0,1,3.241-1.488c2.737-.013,5.473,0,8.21-.006a4.325,4.325,0,0,1,2.912.957c.694.532,1,1.5,1.86,1.821.878.285,1.84-.034,2.711.293a2.428,2.428,0,0,1,1.576,2.376,4.331,4.331,0,0,1-1.556,3.188,5.7,5.7,0,0,1,1.236,3.992h5.65a5.713,5.713,0,0,1,1.239-3.985,4.36,4.36,0,0,1-1.553-3.067,2.444,2.444,0,0,1,1.513-2.48c.868-.357,1.835-.042,2.721-.3.607-.184.956-.752,1.325-1.225a3.958,3.958,0,0,1,2.087-1.4,9.908,9.908,0,0,1,2.482-.166q2.9,0,5.8,0a10.7,10.7,0,0,1,2.49.151,3.93,3.93,0,0,1,2.115,1.386,3.205,3.205,0,0,0,1.3,1.239c.876.286,1.838-.033,2.708.293a2.425,2.425,0,0,1,1.581,2.371,4.361,4.361,0,0,1-1.556,3.2,5.7,5.7,0,0,1,1.236,3.988c2.7.007,5.41-.014,8.114.008a1.1,1.1,0,0,1,1.124.958v.14a1.113,1.113,0,0,1-1.14,1.011c-4.007.016-8.015,0-12.021.007,0,.593,0,1.186,0,1.781,4.005.006,8.012-.01,12.017.007a1.115,1.115,0,0,1,1.148.994v.125a1.116,1.116,0,0,1-.718.927,6.372,6.372,0,0,1-1.4.075q-3.563-.011-7.125,0c-.013.923.024,1.846-.01,2.769a1.047,1.047,0,0,1-2.085.153c-.075-.973-.007-1.949-.03-2.924q-1.058,0-2.115,0a9.151,9.151,0,0,1-3.365,4.747A8.8,8.8,0,0,1,43.069,171.5a10.368,10.368,0,0,1-1.063-2.308q-1.06,0-2.121,0c0,1.805,0,3.61,0,5.415a6.579,6.579,0,0,1,4.339-.159,6.368,6.368,0,0,1,3.624,3.014c2.453.01,4.908-.018,7.362.013a2.486,2.486,0,0,1,2.407,2.551c.01,1.6,0,3.2,0,4.8h3.5c0-2.538,0-5.075,0-7.614a1.576,1.576,0,0,1,.265-1.063,1.061,1.061,0,0,1,1.511-.1,1.44,1.44,0,0,1,.357,1.157c-.008,2.538,0,5.078,0,7.618,1.3.033,2.683-.161,3.892.433a4.57,4.57,0,0,1,2.592,4.055,2.883,2.883,0,0,1,1.917.66,2.587,2.587,0,0,1,.845,1.753v6.362a2.556,2.556,0,0,1-1.362,2.115,4.669,4.669,0,0,1-2.177.282q-33.2-.011-66.4-.006A2.53,2.53,0,0,1,0,198.1v-6.365a2.559,2.559,0,0,1,1.271-2.064,3.42,3.42,0,0,1,1.491-.353,4.625,4.625,0,0,1,1.414-3.252,4.817,4.817,0,0,1,2.437-1.2q0-7.836,0-15.67c-1.828-.01-3.657.016-5.485-.01A1.1,1.1,0,0,1,0,168.224v-.137a1.112,1.112,0,0,1,1.148-1.008c3.129-.017,6.259,0,9.389-.007,0-.595,0-1.188,0-1.781-3.13-.007-6.259.01-9.388-.007a1.115,1.115,0,0,1-1.145-1v-.125a1.1,1.1,0,0,1,1.13-.985c1.825-.024,3.651,0,5.476-.008a5.689,5.689,0,0,1,1.239-3.985,4.366,4.366,0,0,1-1.553-3.058,2.446,2.446,0,0,1,1.54-2.5c.859-.338,1.812-.035,2.687-.287.643-.2,1-.81,1.393-1.3m1.362,1.679a4.035,4.035,0,0,1-2.679,1.771,13.2,13.2,0,0,1-1.818.1.351.351,0,0,0-.377.391,2.071,2.071,0,0,0,1.25,1.825c.705.317,1.5.076,2.231.231a1.07,1.07,0,0,1,.769,1.075c.02,2.55,0,5.1.01,7.649a8.728,8.728,0,0,0,.184,1.614q6.511,0,13.021,0l.1-.507c-.987-.013-1.974.025-2.96-.021a4.928,4.928,0,0,1,.092-9.848c1.737-.044,3.477.008,5.214-.025a2.057,2.057,0,0,0,1.988-2.112c-.092-.384-.576-.249-.864-.282a4.531,4.531,0,0,1-3.1-.876c-.641-.447-.941-1.222-1.562-1.689a3.006,3.006,0,0,0-1.843-.341c-2.638.01-5.275-.01-7.913.008a2.072,2.072,0,0,0-1.746,1.042m34.168-1.048c.006.67-.021,1.342.014,2.012a3.117,3.117,0,0,0,6.211.17c.069-.725.021-1.454.033-2.182q-3.128,0-6.258,0M43.633,154.6a4.451,4.451,0,0,1-3.137.967c-.32.038-.8-.12-.947.269a2.059,2.059,0,0,0,1.244,1.958c.706.32,1.5.076,2.241.234A1.073,1.073,0,0,1,43.8,159.1c.02,2.548,0,5.1.01,7.644a8.8,8.8,0,0,0,.183,1.621q6.513,0,13.026,0a8.878,8.878,0,0,0,.181-1.617c.013-2.557-.013-5.114.011-7.669a1.059,1.059,0,0,1,.743-1.043c.725-.166,1.5.072,2.207-.217a2.047,2.047,0,0,0,1.287-1.976c-.1-.372-.569-.242-.852-.273a4.573,4.573,0,0,1-3.027-.813c-.715-.48-1.052-1.325-1.734-1.84a10.444,10.444,0,0,1-.29,3.231,5.235,5.235,0,0,1-9.95-.02,10.7,10.7,0,0,1-.28-3.283c-.722.423-1.042,1.246-1.679,1.758M8.742,163.171q.9-.011,1.79,0c0-1.022,0-2.044,0-3.067l-.513-.034a3.3,3.3,0,0,0-1.278,3.1m14.22-3.052a2.808,2.808,0,0,0,.05,5.594c1.014.045,2.027.006,3.041.018q0-2.818,0-5.635c-1.031.013-2.063-.033-3.092.023m5.217-.024q0,1.535,0,3.071h1.8a4.3,4.3,0,0,0-.287-1.906,3.352,3.352,0,0,0-.981-1.185l-.527.021m11.982,1.188a4.292,4.292,0,0,0-.28,1.882c.6,0,1.2,0,1.8,0,0-1.021,0-2.042,0-3.062l-.514-.034a3.271,3.271,0,0,0-1.007,1.216m19.165-1.189q0,1.535,0,3.072h1.8a4.3,4.3,0,0,0-.287-1.907,3.408,3.408,0,0,0-.973-1.179l-.535.016m-31.148,5.2q0,.89,0,1.781H41.684c0-.595,0-1.188,0-1.781q-6.751,0-13.5,0M8.735,169.2c.007,1.216,0,2.434,0,3.651a4.823,4.823,0,0,1,1.781.933,4.384,4.384,0,0,1,1.39,4.437,4.465,4.465,0,0,1-3.17,3.16c-.006,1.148,0,2.3,0,3.447h3.494c.011-1.669-.018-3.34.014-5.009a2.481,2.481,0,0,1,2.485-2.347c3.062-.011,6.123-.006,9.184,0a2.5,2.5,0,0,1,2.512,2.022,20.992,20.992,0,0,1,.052,2.294q1.743,0,3.488,0,.008-6.294,0-12.59c-.706,0-1.414,0-2.121,0a8.971,8.971,0,0,1-5.4,5.837,8.805,8.805,0,0,1-6.638-.184,8.975,8.975,0,0,1-4.948-5.654c-.711,0-1.42,0-2.129.006m23.358,0q0,7.817,0,15.634c1.889,0,3.776,0,5.664,0V169.2c-1.89,0-3.779,0-5.667,0m-18.323,1.291a6.7,6.7,0,0,0,11.166,0q-5.583,0-11.166,0m31.148,0a6.7,6.7,0,0,0,11.166,0q-5.583,0-11.166,0m-36.175,4.62c-.01,1.338-.007,2.677,0,4.015a2.3,2.3,0,0,0,1.179-2.182,2.377,2.377,0,0,0-1.178-1.833m31.138,1.913q.008,3.423,0,6.847a4.38,4.38,0,0,0,3.5.614c.006-1.526-.013-3.054.007-4.58a2.582,2.582,0,0,1,1.9-2.367,4.267,4.267,0,0,0-5.408-.514m-25.4,2.663a1.071,1.071,0,0,0-.129.64c.007,1.5,0,3.006,0,4.508.726.061,1.68-.231,2.2.445a1.06,1.06,0,0,1-.842,1.668c-2.873.041-5.749-.02-8.622.028a2.41,2.41,0,0,0-2.216,2.369q31.37.008,62.74,0a2.416,2.416,0,0,0-2.359-2.378q-22.3-.028-44.6-.01a1.089,1.089,0,0,1-1.133-.811,1.049,1.049,0,0,1,1.005-1.3c1.274-.034,2.55,0,3.824-.013-.007-1.6.017-3.2-.008-4.8.04-.319-.266-.473-.542-.439-2.884-.006-5.768.006-8.652-.006a1.6,1.6,0,0,0-.67.095m31.148,0a1.066,1.066,0,0,0-.13.639c.007,1.5,0,3.007,0,4.511h10c-.007-1.6.016-3.2-.009-4.8.041-.327-.279-.476-.559-.44-2.881-.006-5.761.006-8.64-.006a1.591,1.591,0,0,0-.663.093M26.48,183.91q0,.459,0,.92,1.746,0,3.491,0c0-.307,0-.613,0-.92q-1.746,0-3.49,0M2.3,191.547c-.193.082-.154.348-.18.52,0,1.944-.01,3.888.007,5.831a.448.448,0,0,0,.549.464q33.56,0,67.121,0a.449.449,0,0,0,.554-.459c.013-1.995.017-3.992,0-5.989.037-.321-.273-.481-.555-.446q-33.2-.008-66.4,0A3.264,3.264,0,0,0,2.3,191.547Z" transform="translate(0 -130.492)"/>
        <path id="Path_184742" data-name="Path 184742" d="M98.307,225.776a1.051,1.051,0,0,1,1.445.791,3.5,3.5,0,0,1-.059,1.419,1.054,1.054,0,0,1-1.661.395c-.471-.408-.381-1.1-.36-1.655A1.059,1.059,0,0,1,98.307,225.776Z" transform="translate(-83.827 -195.007)"/>
        <path id="Path_184743" data-name="Path 184743" d="M161.3,225.788a1.056,1.056,0,0,1,1.427.668,3.415,3.415,0,0,1-.037,1.542,1.055,1.055,0,0,1-1.655.4c-.474-.4-.385-1.1-.365-1.652A1.063,1.063,0,0,1,161.3,225.788Z" transform="translate(-137.907 -195.016)"/>
        <path id="Path_184744" data-name="Path 184744" d="M318.271,225.8a1.058,1.058,0,0,1,1.406.59c.167.767.241,2-.736,2.238a1.043,1.043,0,0,1-1.281-.885C317.593,227.065,317.518,226.117,318.271,225.8Z" transform="translate(-272.653 -195.022)"/>
        <path id="Path_184745" data-name="Path 184745" d="M381.307,225.785a1.054,1.054,0,0,1,1.417.672,3.744,3.744,0,0,1,0,1.426,1.052,1.052,0,0,1-1.615.573c-.551-.384-.469-1.134-.44-1.719A1.06,1.06,0,0,1,381.307,225.785Z" transform="translate(-326.758 -195.017)"/>
      </g>
    </g>
    <path id="Path_190327" data-name="Path 190327" d="M-85.229,0V-15.641h5.618a7.956,7.956,0,0,1,4.592,1.106,3.682,3.682,0,0,1,1.574,3.212A3.721,3.721,0,0,1-74-9.249a3.255,3.255,0,0,1-1.644,1.268,3.3,3.3,0,0,1,1.88,1.2,3.5,3.5,0,0,1,.655,2.148,4.141,4.141,0,0,1-1.456,3.454A6.927,6.927,0,0,1-78.88,0Zm3.771-6.649V-2.9h2.471a2.35,2.35,0,0,0,1.568-.467,1.635,1.635,0,0,0,.548-1.316,1.734,1.734,0,0,0-1.944-1.966Zm0-2.471h1.966a2.793,2.793,0,0,0,1.762-.453,1.606,1.606,0,0,0,.526-1.3,1.686,1.686,0,0,0-.569-1.428,3.047,3.047,0,0,0-1.837-.436h-1.848Zm17.177,7.863a3.732,3.732,0,0,1-3.1,1.472A3.661,3.661,0,0,1-70.281-.9a4.676,4.676,0,0,1-.983-3.2v-7.53h3.62v7.552a1.3,1.3,0,0,0,1.45,1.493,1.892,1.892,0,0,0,1.772-.892v-8.153h3.642V0h-3.395ZM-53.174.215A5.975,5.975,0,0,1-57.5-1.38a5.509,5.509,0,0,1-1.654-4.152v-.3A7.138,7.138,0,0,1-58.5-8.98a4.834,4.834,0,0,1,1.928-2.111,5.821,5.821,0,0,1,3.008-.747,5.031,5.031,0,0,1,3.867,1.52A5.973,5.973,0,0,1-48.275-6.08v1.407h-7.2a2.609,2.609,0,0,0,.849,1.536,2.525,2.525,0,0,0,1.7.559,3.254,3.254,0,0,0,2.686-1.2l1.654,1.955A4.624,4.624,0,0,1-50.5-.338,6.48,6.48,0,0,1-53.174.215Zm-.408-9.26q-1.59,0-1.891,2.105h3.652v-.279a1.793,1.793,0,0,0-.44-1.348A1.753,1.753,0,0,0-53.582-9.045ZM-43.5-11.623l.118,1.364a3.942,3.942,0,0,1,3.319-1.579,3.316,3.316,0,0,1,2.712,1.085,5.165,5.165,0,0,1,.929,3.266V0h-3.631V-7.337A1.961,1.961,0,0,0-40.4-8.631a1.64,1.64,0,0,0-1.289-.414,1.726,1.726,0,0,0-1.579.838V0h-3.62V-11.623ZM-27.865,0a4.087,4.087,0,0,1-.344-1.042A3.366,3.366,0,0,1-31,.215a4.124,4.124,0,0,1-2.793-.994,3.163,3.163,0,0,1-1.149-2.5,3.251,3.251,0,0,1,1.4-2.857A7.114,7.114,0,0,1-29.487-7.1h1.117v-.615q0-1.608-1.386-1.608A1.133,1.133,0,0,0-31.045-8.05h-3.62a3.245,3.245,0,0,1,1.434-2.736,6.027,6.027,0,0,1,3.658-1.051,5.284,5.284,0,0,1,3.513,1.085,3.772,3.772,0,0,1,1.321,2.976v5.146a5.269,5.269,0,0,0,.494,2.449V0Zm-2.267-2.363a2.019,2.019,0,0,0,1.123-.29,1.818,1.818,0,0,0,.639-.655V-5.167h-1.053q-1.891,0-1.891,1.7a1.036,1.036,0,0,0,.333.8A1.205,1.205,0,0,0-30.132-2.363Zm13.481-.9a.836.836,0,0,0-.483-.741,7.353,7.353,0,0,0-1.837-.58,8.376,8.376,0,0,1-2.234-.79,3.743,3.743,0,0,1-1.343-1.187,2.834,2.834,0,0,1-.462-1.6A3.212,3.212,0,0,1-21.688-10.8a5.443,5.443,0,0,1,3.459-1.037,6.03,6.03,0,0,1,3.7,1.042,3.258,3.258,0,0,1,1.4,2.739h-3.631q0-1.4-1.472-1.4a1.459,1.459,0,0,0-.956.317.981.981,0,0,0-.387.79.9.9,0,0,0,.473.784,4.466,4.466,0,0,0,1.509.494,13.043,13.043,0,0,1,1.821.462q2.621.9,2.621,3.233A3.044,3.044,0,0,1-14.572-.784a6.2,6.2,0,0,1-3.658,1,6.322,6.322,0,0,1-2.664-.537A4.455,4.455,0,0,1-22.72-1.783a3.308,3.308,0,0,1-.655-1.944h3.384a1.4,1.4,0,0,0,.537,1.176,2.209,2.209,0,0,0,1.321.371,1.738,1.738,0,0,0,1.112-.3A.962.962,0,0,0-16.65-3.266Zm14.6-2.041V0H-5.822V-15.641H.419a7.269,7.269,0,0,1,3.174.661A4.979,4.979,0,0,1,5.731-13.1a5.134,5.134,0,0,1,.757,2.766A4.526,4.526,0,0,1,4.85-6.676a6.8,6.8,0,0,1-4.5,1.37Zm0-2.911H.419a2.33,2.33,0,0,0,1.67-.548,2.035,2.035,0,0,0,.575-1.547,2.516,2.516,0,0,0-.591-1.751,2.092,2.092,0,0,0-1.611-.666H-2.052Zm17.413-.129-1.192-.086a2.142,2.142,0,0,0-2.191,1.074V0H8.357V-11.623h3.395l.118,1.493a2.8,2.8,0,0,1,2.546-1.708,3.53,3.53,0,0,1,1.01.129ZM22.892,0a4.087,4.087,0,0,1-.344-1.042A3.366,3.366,0,0,1,19.755.215a4.124,4.124,0,0,1-2.793-.994,3.163,3.163,0,0,1-1.149-2.5,3.251,3.251,0,0,1,1.4-2.857A7.114,7.114,0,0,1,21.27-7.1h1.117v-.615q0-1.608-1.386-1.608A1.133,1.133,0,0,0,19.712-8.05h-3.62a3.245,3.245,0,0,1,1.434-2.736,6.027,6.027,0,0,1,3.658-1.051A5.284,5.284,0,0,1,24.7-10.753a3.772,3.772,0,0,1,1.321,2.976v5.146a5.269,5.269,0,0,0,.494,2.449V0ZM20.625-2.363a2.019,2.019,0,0,0,1.123-.29,1.818,1.818,0,0,0,.639-.655V-5.167H21.334q-1.891,0-1.891,1.7a1.036,1.036,0,0,0,.333.8A1.205,1.205,0,0,0,20.625-2.363Zm.9-14.137h3.824l-2.986,3.373-2.954-.005ZM32.936-2.578a1.61,1.61,0,0,0,1.182-.414,1.517,1.517,0,0,0,.408-1.155H37.92A4.018,4.018,0,0,1,36.55-1.01,5.1,5.1,0,0,1,33.021.215a5.158,5.158,0,0,1-4-1.59,6.264,6.264,0,0,1-1.461-4.4v-.15a7.08,7.08,0,0,1,.65-3.11,4.732,4.732,0,0,1,1.875-2.073,5.589,5.589,0,0,1,2.9-.725,5.03,5.03,0,0,1,3.6,1.257A4.458,4.458,0,0,1,37.92-7.176H34.525a1.987,1.987,0,0,0-.44-1.386A1.52,1.52,0,0,0,32.9-9.045q-1.407,0-1.644,1.794a12.658,12.658,0,0,0-.075,1.568A4.972,4.972,0,0,0,31.6-3.255,1.45,1.45,0,0,0,32.936-2.578ZM43.667-14.513v2.89h1.912v2.514H43.667v5.317a1.358,1.358,0,0,0,.236.913,1.268,1.268,0,0,0,.935.258,5.311,5.311,0,0,0,.9-.064V-.1A6.681,6.681,0,0,1,43.7.215a3.792,3.792,0,0,1-2.761-.881,3.61,3.61,0,0,1-.892-2.675V-9.109H38.564v-2.514h1.482v-2.89ZM50.821,0H47.19V-11.623h3.631ZM46.976-14.631a1.63,1.63,0,0,1,.559-1.275,2.1,2.1,0,0,1,1.45-.5,2.1,2.1,0,0,1,1.45.5,1.63,1.63,0,0,1,.559,1.275,1.63,1.63,0,0,1-.559,1.275,2.1,2.1,0,0,1-1.45.5,2.1,2.1,0,0,1-1.45-.5A1.63,1.63,0,0,1,46.976-14.631ZM57.965-2.578a1.61,1.61,0,0,0,1.182-.414,1.517,1.517,0,0,0,.408-1.155h3.395A4.018,4.018,0,0,1,61.58-1.01,5.1,5.1,0,0,1,58.051.215a5.158,5.158,0,0,1-4-1.59,6.264,6.264,0,0,1-1.461-4.4v-.15a7.08,7.08,0,0,1,.65-3.11,4.732,4.732,0,0,1,1.875-2.073,5.589,5.589,0,0,1,2.9-.725,5.03,5.03,0,0,1,3.6,1.257,4.458,4.458,0,0,1,1.332,3.405H59.555a1.987,1.987,0,0,0-.44-1.386,1.52,1.52,0,0,0-1.182-.483q-1.407,0-1.644,1.794a12.659,12.659,0,0,0-.075,1.568,4.972,4.972,0,0,0,.419,2.428A1.45,1.45,0,0,0,57.965-2.578ZM71.027,0a4.087,4.087,0,0,1-.344-1.042A3.366,3.366,0,0,1,67.891.215,4.124,4.124,0,0,1,65.1-.779a3.163,3.163,0,0,1-1.149-2.5,3.251,3.251,0,0,1,1.4-2.857A7.114,7.114,0,0,1,69.405-7.1h1.117v-.615q0-1.608-1.386-1.608A1.133,1.133,0,0,0,67.848-8.05h-3.62a3.245,3.245,0,0,1,1.434-2.736,6.027,6.027,0,0,1,3.658-1.051,5.284,5.284,0,0,1,3.513,1.085,3.772,3.772,0,0,1,1.321,2.976v5.146a5.269,5.269,0,0,0,.494,2.449V0ZM68.761-2.363a2.019,2.019,0,0,0,1.123-.29,1.818,1.818,0,0,0,.639-.655V-5.167H69.47q-1.891,0-1.891,1.7a1.036,1.036,0,0,0,.333.8A1.205,1.205,0,0,0,68.761-2.363Zm13.481-.9a.836.836,0,0,0-.483-.741,7.353,7.353,0,0,0-1.837-.58,8.376,8.376,0,0,1-2.234-.79,3.743,3.743,0,0,1-1.343-1.187,2.834,2.834,0,0,1-.462-1.6A3.212,3.212,0,0,1,77.2-10.8a5.443,5.443,0,0,1,3.459-1.037,6.03,6.03,0,0,1,3.7,1.042,3.258,3.258,0,0,1,1.4,2.739H82.124q0-1.4-1.472-1.4a1.459,1.459,0,0,0-.956.317.981.981,0,0,0-.387.79.9.9,0,0,0,.473.784,4.466,4.466,0,0,0,1.509.494,13.043,13.043,0,0,1,1.821.462q2.621.9,2.621,3.233A3.044,3.044,0,0,1,84.321-.784a6.2,6.2,0,0,1-3.658,1A6.322,6.322,0,0,1,78-.322a4.455,4.455,0,0,1-1.826-1.461,3.308,3.308,0,0,1-.655-1.944H78.9a1.4,1.4,0,0,0,.537,1.176,2.209,2.209,0,0,0,1.321.371,1.738,1.738,0,0,0,1.112-.3A.962.962,0,0,0,82.242-3.266ZM-76.388,18.693V24h-3.771V8.359h6.241a7.269,7.269,0,0,1,3.174.661A4.979,4.979,0,0,1-68.6,10.9a5.134,5.134,0,0,1,.757,2.766,4.526,4.526,0,0,1-1.638,3.658,6.8,6.8,0,0,1-4.5,1.37Zm0-2.911h2.471a2.33,2.33,0,0,0,1.67-.548,2.035,2.035,0,0,0,.575-1.547,2.516,2.516,0,0,0-.591-1.751,2.092,2.092,0,0,0-1.611-.666h-2.514Zm15.866,8.433a5.975,5.975,0,0,1-4.329-1.6A5.509,5.509,0,0,1-66.5,18.468v-.3a7.138,7.138,0,0,1,.661-3.147,4.834,4.834,0,0,1,1.928-2.111,5.821,5.821,0,0,1,3.008-.747,5.031,5.031,0,0,1,3.867,1.52,5.973,5.973,0,0,1,1.418,4.238v1.407h-7.2a2.609,2.609,0,0,0,.849,1.536,2.525,2.525,0,0,0,1.7.559,3.254,3.254,0,0,0,2.686-1.2l1.654,1.955a4.624,4.624,0,0,1-1.917,1.488A6.48,6.48,0,0,1-60.521,24.215Zm-.408-9.26q-1.59,0-1.891,2.105h3.652v-.279a1.793,1.793,0,0,0-.44-1.348A1.753,1.753,0,0,0-60.93,14.955Zm11.677,6.467a1.61,1.61,0,0,0,1.182-.414,1.517,1.517,0,0,0,.408-1.155h3.395a4.018,4.018,0,0,1-1.37,3.137,5.1,5.1,0,0,1-3.529,1.225,5.158,5.158,0,0,1-4-1.59,6.264,6.264,0,0,1-1.461-4.4v-.15a7.08,7.08,0,0,1,.65-3.11A4.732,4.732,0,0,1-52.1,12.887a5.589,5.589,0,0,1,2.9-.725,5.03,5.03,0,0,1,3.6,1.257,4.458,4.458,0,0,1,1.332,3.405h-3.395a1.987,1.987,0,0,0-.44-1.386,1.52,1.52,0,0,0-1.182-.483q-1.407,0-1.644,1.794A12.659,12.659,0,0,0-51,18.317a4.972,4.972,0,0,0,.419,2.428A1.45,1.45,0,0,0-49.253,21.422Zm13.438,1.321a3.732,3.732,0,0,1-3.1,1.472,3.661,3.661,0,0,1-2.9-1.112,4.676,4.676,0,0,1-.983-3.2v-7.53h3.62v7.552a1.3,1.3,0,0,0,1.45,1.493,1.892,1.892,0,0,0,1.772-.892V12.377h3.642V24h-3.395ZM-23.783,24a4.087,4.087,0,0,1-.344-1.042,3.366,3.366,0,0,1-2.793,1.257,4.124,4.124,0,0,1-2.793-.994,3.163,3.163,0,0,1-1.149-2.5,3.251,3.251,0,0,1,1.4-2.857,7.114,7.114,0,0,1,4.061-.967h1.117v-.615q0-1.608-1.386-1.608a1.133,1.133,0,0,0-1.289,1.274h-3.62a3.245,3.245,0,0,1,1.434-2.736,6.027,6.027,0,0,1,3.658-1.051,5.284,5.284,0,0,1,3.513,1.085,3.772,3.772,0,0,1,1.321,2.976v5.146a5.269,5.269,0,0,0,.494,2.449V24Zm-2.267-2.363a2.019,2.019,0,0,0,1.123-.29,1.818,1.818,0,0,0,.639-.655V18.833h-1.053q-1.891,0-1.891,1.7a1.036,1.036,0,0,0,.333.8A1.205,1.205,0,0,0-26.05,21.637Zm14.427-5.983-1.192-.086a2.142,2.142,0,0,0-2.191,1.074V24h-3.62V12.377h3.395l.118,1.493a2.8,2.8,0,0,1,2.546-1.708,3.53,3.53,0,0,1,1.01.129ZM-6.5,24H-10.13V12.377H-6.5ZM-10.345,9.369a1.63,1.63,0,0,1,.559-1.275,2.1,2.1,0,0,1,1.45-.5,2.1,2.1,0,0,1,1.45.5,1.63,1.63,0,0,1,.559,1.275,1.63,1.63,0,0,1-.559,1.275,2.1,2.1,0,0,1-1.45.5,2.1,2.1,0,0,1-1.45-.5A1.63,1.63,0,0,1-10.345,9.369ZM2.277,24a4.087,4.087,0,0,1-.344-1.042A3.366,3.366,0,0,1-.859,24.215a4.124,4.124,0,0,1-2.793-.994,3.163,3.163,0,0,1-1.149-2.5,3.251,3.251,0,0,1,1.4-2.857A7.114,7.114,0,0,1,.655,16.9H1.772v-.615q0-1.608-1.386-1.608A1.133,1.133,0,0,0-.9,15.95h-3.62a3.245,3.245,0,0,1,1.434-2.736A6.027,6.027,0,0,1,.569,12.162a5.284,5.284,0,0,1,3.513,1.085A3.772,3.772,0,0,1,5.4,16.223v5.146A5.269,5.269,0,0,0,5.9,23.817V24ZM.011,21.637a2.019,2.019,0,0,0,1.123-.29,1.818,1.818,0,0,0,.639-.655V18.833H.72q-1.891,0-1.891,1.7a1.036,1.036,0,0,0,.333.8A1.205,1.205,0,0,0,.011,21.637Zm13.481-.9a.836.836,0,0,0-.483-.741,7.353,7.353,0,0,0-1.837-.58,8.376,8.376,0,0,1-2.234-.79,3.743,3.743,0,0,1-1.343-1.187,2.834,2.834,0,0,1-.462-1.6A3.212,3.212,0,0,1,8.454,13.2a5.443,5.443,0,0,1,3.459-1.037,6.03,6.03,0,0,1,3.7,1.042A3.258,3.258,0,0,1,17,15.943H13.374q0-1.4-1.472-1.4a1.459,1.459,0,0,0-.956.317.981.981,0,0,0-.387.79.9.9,0,0,0,.473.784,4.466,4.466,0,0,0,1.509.494,13.042,13.042,0,0,1,1.821.462q2.621.9,2.621,3.233a3.044,3.044,0,0,1-1.413,2.589,6.2,6.2,0,0,1-3.658,1,6.322,6.322,0,0,1-2.664-.537,4.455,4.455,0,0,1-1.826-1.461,3.308,3.308,0,0,1-.655-1.944h3.384a1.4,1.4,0,0,0,.537,1.176,2.209,2.209,0,0,0,1.321.371,1.738,1.738,0,0,0,1.112-.3A.962.962,0,0,0,13.492,20.734ZM31.228,18.65H24.771V15.857h6.456ZM39.692,24V8.359h5.618A7.956,7.956,0,0,1,49.9,9.466a3.682,3.682,0,0,1,1.574,3.212,3.721,3.721,0,0,1-.559,2.073,3.255,3.255,0,0,1-1.644,1.268,3.3,3.3,0,0,1,1.88,1.2,3.5,3.5,0,0,1,.655,2.148,4.141,4.141,0,0,1-1.456,3.454A6.927,6.927,0,0,1,46.041,24Zm3.771-6.649V21.1h2.471a2.35,2.35,0,0,0,1.568-.467,1.635,1.635,0,0,0,.548-1.316,1.734,1.734,0,0,0-1.944-1.966Zm0-2.471h1.966a2.793,2.793,0,0,0,1.762-.453,1.606,1.606,0,0,0,.526-1.3,1.686,1.686,0,0,0-.569-1.428,3.047,3.047,0,0,0-1.837-.436H43.463Zm14.19,3.813V24H53.883V8.359h6.241A7.269,7.269,0,0,1,63.3,9.02a4.979,4.979,0,0,1,2.138,1.88,5.134,5.134,0,0,1,.757,2.766,4.526,4.526,0,0,1-1.638,3.658,6.8,6.8,0,0,1-4.5,1.37Zm0-2.911h2.471a2.33,2.33,0,0,0,1.67-.548,2.035,2.035,0,0,0,.575-1.547,2.516,2.516,0,0,0-.591-1.751,2.092,2.092,0,0,0-1.611-.666H57.653Zm14.319,2.911V24H68.2V8.359h6.241a7.269,7.269,0,0,1,3.174.661,4.979,4.979,0,0,1,2.138,1.88,5.134,5.134,0,0,1,.757,2.766,4.526,4.526,0,0,1-1.638,3.658,6.8,6.8,0,0,1-4.5,1.37Zm0-2.911h2.471a2.33,2.33,0,0,0,1.67-.548,2.035,2.035,0,0,0,.575-1.547,2.516,2.516,0,0,0-.591-1.751,2.092,2.092,0,0,0-1.611-.666H71.973Z" transform="translate(800 6598)" fill="#12263f"/>
    <path id="Path_190325" data-name="Path 190325" d="M-60.636-12.8l2.856,8.9,2.848-8.9h4.061V0h-3.094V-2.988l.3-6.117L-56.76,0H-58.8l-3.1-9.114.3,6.126V0h-3.085V-12.8ZM-44.446.176a4.889,4.889,0,0,1-3.542-1.305,4.507,4.507,0,0,1-1.354-3.4v-.246A5.84,5.84,0,0,1-48.8-7.348a3.955,3.955,0,0,1,1.578-1.727,4.763,4.763,0,0,1,2.461-.611A4.117,4.117,0,0,1-41.6-8.442a4.887,4.887,0,0,1,1.16,3.467v1.151h-5.889a2.135,2.135,0,0,0,.694,1.257,2.066,2.066,0,0,0,1.389.457,2.662,2.662,0,0,0,2.2-.984l1.354,1.6A3.784,3.784,0,0,1-42.262-.277,5.3,5.3,0,0,1-44.446.176ZM-44.78-7.4q-1.3,0-1.547,1.723h2.988v-.229a1.467,1.467,0,0,0-.36-1.1A1.434,1.434,0,0,0-44.78-7.4Zm5.159,2.575a5.809,5.809,0,0,1,.976-3.56,3.211,3.211,0,0,1,2.725-1.3,2.731,2.731,0,0,1,2.145,1V-13.5h2.971V0h-2.663l-.149-1.02a2.8,2.8,0,0,1-2.32,1.2,3.205,3.205,0,0,1-2.689-1.3A5.993,5.993,0,0,1-39.621-4.825Zm2.962.185q0,2.531,1.477,2.531a1.458,1.458,0,0,0,1.406-.826V-6.557A1.419,1.419,0,0,0-35.165-7.4q-1.371,0-1.485,2.215ZM-26,0h-2.971V-9.51H-26Zm-3.146-11.971a1.334,1.334,0,0,1,.457-1.043,1.718,1.718,0,0,1,1.187-.407,1.718,1.718,0,0,1,1.187.407,1.334,1.334,0,0,1,.457,1.043,1.334,1.334,0,0,1-.457,1.043,1.718,1.718,0,0,1-1.187.407,1.718,1.718,0,0,1-1.187-.407A1.334,1.334,0,0,1-29.145-11.971Zm4.6,7.128a5.613,5.613,0,0,1,.554-2.536A3.96,3.96,0,0,1-22.4-9.088a4.791,4.791,0,0,1,2.435-.6A4.373,4.373,0,0,1-16.6-8.363a5.076,5.076,0,0,1,1.23,3.6v.105a4.925,4.925,0,0,1-1.235,3.529A4.384,4.384,0,0,1-19.951.176a4.434,4.434,0,0,1-3.261-1.217,4.761,4.761,0,0,1-1.327-3.3Zm2.962.185a3.538,3.538,0,0,0,.413,1.934,1.376,1.376,0,0,0,1.222.615q1.582,0,1.617-2.435v-.3q0-2.558-1.635-2.558-1.485,0-1.608,2.206ZM-4.228,0a3.344,3.344,0,0,1-.281-.853A2.754,2.754,0,0,1-6.794.176,3.374,3.374,0,0,1-9.079-.637a2.588,2.588,0,0,1-.94-2.043A2.66,2.66,0,0,1-8.877-5.019,5.821,5.821,0,0,1-5.555-5.81h.914v-.5q0-1.316-1.134-1.316A.927.927,0,0,0-6.829-6.587H-9.791A2.655,2.655,0,0,1-8.618-8.825a4.931,4.931,0,0,1,2.993-.86A4.323,4.323,0,0,1-2.751-8.8,3.086,3.086,0,0,1-1.67-6.363v4.21a4.311,4.311,0,0,0,.4,2V0ZM-6.082-1.934a1.652,1.652,0,0,0,.918-.237,1.487,1.487,0,0,0,.523-.536V-4.228H-5.5q-1.547,0-1.547,1.389a.848.848,0,0,0,.272.655A.986.986,0,0,0-6.082-1.934ZM2.769-9.51l.1,1.116A3.27,3.27,0,0,1,5.581-9.686,2.407,2.407,0,0,1,8.016-8.253a3.165,3.165,0,0,1,2.795-1.433q2.892,0,2.971,3.5V0H10.811V-6a1.813,1.813,0,0,0-.246-1.063,1.048,1.048,0,0,0-.9-.334,1.4,1.4,0,0,0-1.31.782l.009.123V0H5.4V-5.985a1.906,1.906,0,0,0-.237-1.081A1.045,1.045,0,0,0,4.254-7.4a1.42,1.42,0,0,0-1.3.782V0H-.009V-9.51ZM24.3-4.676a5.8,5.8,0,0,1-.967,3.595A3.238,3.238,0,0,1,20.61.176,2.81,2.81,0,0,1,18.272-.976L18.149,0H15.5V-13.5h2.962v4.755a2.711,2.711,0,0,1,2.136-.94,3.239,3.239,0,0,1,2.742,1.274A5.826,5.826,0,0,1,24.3-4.825Zm-2.971-.189a3.866,3.866,0,0,0-.365-1.952A1.229,1.229,0,0,0,19.846-7.4a1.418,1.418,0,0,0-1.389.763v3.773a1.426,1.426,0,0,0,1.406.755A1.258,1.258,0,0,0,21.19-3.127,7.309,7.309,0,0,0,21.331-4.865ZM28.731,0H25.761V-9.51h2.971ZM25.585-11.971a1.334,1.334,0,0,1,.457-1.043,1.718,1.718,0,0,1,1.187-.407,1.718,1.718,0,0,1,1.187.407,1.334,1.334,0,0,1,.457,1.043,1.334,1.334,0,0,1-.457,1.043,1.718,1.718,0,0,1-1.187.407,1.718,1.718,0,0,1-1.187-.407A1.334,1.334,0,0,1,25.585-11.971ZM35.156.176a4.889,4.889,0,0,1-3.542-1.305,4.507,4.507,0,0,1-1.354-3.4v-.246A5.84,5.84,0,0,1,30.8-7.348a3.955,3.955,0,0,1,1.578-1.727,4.763,4.763,0,0,1,2.461-.611A4.117,4.117,0,0,1,38-8.442a4.887,4.887,0,0,1,1.16,3.467v1.151H33.275a2.135,2.135,0,0,0,.694,1.257,2.066,2.066,0,0,0,1.389.457,2.662,2.662,0,0,0,2.2-.984l1.354,1.6A3.784,3.784,0,0,1,37.34-.277,5.3,5.3,0,0,1,35.156.176ZM34.822-7.4q-1.3,0-1.547,1.723h2.988v-.229a1.467,1.467,0,0,0-.36-1.1A1.434,1.434,0,0,0,34.822-7.4ZM43.075-9.51l.1,1.116a3.225,3.225,0,0,1,2.716-1.292,2.713,2.713,0,0,1,2.219.888,4.226,4.226,0,0,1,.76,2.672V0H45.9V-6a1.6,1.6,0,0,0-.29-1.059A1.342,1.342,0,0,0,44.552-7.4a1.413,1.413,0,0,0-1.292.686V0H40.3V-9.51Zm10.881-2.364V-9.51h1.564v2.057H53.956V-3.1a1.111,1.111,0,0,0,.193.747,1.037,1.037,0,0,0,.765.211,4.345,4.345,0,0,0,.738-.053V-.079a5.466,5.466,0,0,1-1.67.255,3.1,3.1,0,0,1-2.259-.721,2.954,2.954,0,0,1-.729-2.188v-4.72H49.781V-9.51h1.213v-2.364ZM61.286.176a4.889,4.889,0,0,1-3.542-1.305,4.507,4.507,0,0,1-1.354-3.4v-.246a5.84,5.84,0,0,1,.541-2.575,3.955,3.955,0,0,1,1.578-1.727,4.763,4.763,0,0,1,2.461-.611,4.117,4.117,0,0,1,3.164,1.244,4.887,4.887,0,0,1,1.16,3.467v1.151H59.405A2.135,2.135,0,0,0,60.1-2.566a2.066,2.066,0,0,0,1.389.457,2.662,2.662,0,0,0,2.2-.984l1.354,1.6A3.784,3.784,0,0,1,63.47-.277,5.3,5.3,0,0,1,61.286.176ZM60.952-7.4q-1.3,0-1.547,1.723h2.988v-.229a1.467,1.467,0,0,0-.36-1.1A1.434,1.434,0,0,0,60.952-7.4Z" transform="translate(523 6442)" fill="#12263f"/>
    <path id="Path_190329" data-name="Path 190329" d="M-83.94,0h-3.076V-12.8h3.076Zm4.729-9.51.1,1.116A3.225,3.225,0,0,1-76.4-9.686,2.713,2.713,0,0,1-74.18-8.8a4.226,4.226,0,0,1,.76,2.672V0H-76.39V-6a1.6,1.6,0,0,0-.29-1.059A1.342,1.342,0,0,0-77.735-7.4a1.413,1.413,0,0,0-1.292.686V0h-2.962V-9.51Zm7.058,4.667A5.613,5.613,0,0,1-71.6-7.378a3.96,3.96,0,0,1,1.591-1.709,4.791,4.791,0,0,1,2.435-.6,4.373,4.373,0,0,1,3.366,1.323,5.076,5.076,0,0,1,1.23,3.6v.105a4.925,4.925,0,0,1-1.235,3.529A4.384,4.384,0,0,1-67.557.176a4.434,4.434,0,0,1-3.261-1.217,4.761,4.761,0,0,1-1.327-3.3Zm2.962.185a3.538,3.538,0,0,0,.413,1.934,1.376,1.376,0,0,0,1.222.615q1.582,0,1.617-2.435v-.3q0-2.558-1.635-2.558-1.485,0-1.608,2.206Zm11.54,2.549a1.317,1.317,0,0,0,.967-.338,1.241,1.241,0,0,0,.334-.945h2.777A3.288,3.288,0,0,1-54.694-.826a4.168,4.168,0,0,1-2.887,1,4.22,4.22,0,0,1-3.27-1.3,5.125,5.125,0,0,1-1.2-3.6v-.123A5.792,5.792,0,0,1-61.515-7.4a3.872,3.872,0,0,1,1.534-1.7,4.573,4.573,0,0,1,2.373-.593,4.116,4.116,0,0,1,2.944,1.028,3.647,3.647,0,0,1,1.09,2.786h-2.777A1.626,1.626,0,0,0-56.711-7a1.244,1.244,0,0,0-.967-.4q-1.151,0-1.345,1.468a10.357,10.357,0,0,0-.062,1.283,4.068,4.068,0,0,0,.343,1.986A1.187,1.187,0,0,0-57.652-2.109Zm11,1.081A3.054,3.054,0,0,1-49.2.176a3,3,0,0,1-2.369-.91,3.826,3.826,0,0,1-.8-2.615V-9.51h2.962v6.179a1.065,1.065,0,0,0,1.187,1.222,1.548,1.548,0,0,0,1.45-.729V-9.51h2.979V0h-2.777ZM-39.045,0h-2.971V-9.51h2.971Zm-3.146-11.971a1.334,1.334,0,0,1,.457-1.043,1.718,1.718,0,0,1,1.187-.407,1.718,1.718,0,0,1,1.187.407,1.334,1.334,0,0,1,.457,1.043,1.334,1.334,0,0,1-.457,1.043,1.718,1.718,0,0,1-1.187.407,1.718,1.718,0,0,1-1.187-.407A1.334,1.334,0,0,1-42.192-11.971Zm4.6,7.146a5.809,5.809,0,0,1,.976-3.56,3.211,3.211,0,0,1,2.725-1.3,2.731,2.731,0,0,1,2.145,1V-13.5h2.971V0h-2.663l-.149-1.02a2.8,2.8,0,0,1-2.32,1.2,3.205,3.205,0,0,1-2.689-1.3A5.993,5.993,0,0,1-37.6-4.825Zm2.962.185q0,2.531,1.477,2.531a1.458,1.458,0,0,0,1.406-.826V-6.557A1.419,1.419,0,0,0-33.139-7.4q-1.371,0-1.485,2.215ZM-21.74,0a3.344,3.344,0,0,1-.281-.853A2.754,2.754,0,0,1-24.306.176a3.374,3.374,0,0,1-2.285-.813,2.588,2.588,0,0,1-.94-2.043,2.66,2.66,0,0,1,1.143-2.338,5.821,5.821,0,0,1,3.322-.791h.914v-.5q0-1.316-1.134-1.316a.927.927,0,0,0-1.055,1.042H-27.3A2.655,2.655,0,0,1-26.13-8.825a4.931,4.931,0,0,1,2.993-.86,4.323,4.323,0,0,1,2.874.888,3.086,3.086,0,0,1,1.081,2.435v4.21a4.311,4.311,0,0,0,.4,2V0Zm-1.854-1.934a1.652,1.652,0,0,0,.918-.237,1.487,1.487,0,0,0,.523-.536V-4.228h-.861q-1.547,0-1.547,1.389a.848.848,0,0,0,.272.655A.986.986,0,0,0-23.594-1.934Zm5.678-2.892a5.809,5.809,0,0,1,.976-3.56,3.211,3.211,0,0,1,2.725-1.3,2.731,2.731,0,0,1,2.145,1V-13.5H-9.1V0h-2.663l-.149-1.02a2.8,2.8,0,0,1-2.32,1.2,3.205,3.205,0,0,1-2.689-1.3A5.993,5.993,0,0,1-17.917-4.825Zm2.962.185q0,2.531,1.477,2.531a1.458,1.458,0,0,0,1.406-.826V-6.557A1.419,1.419,0,0,0-13.46-7.4q-1.371,0-1.485,2.215ZM2.421,0A3.344,3.344,0,0,1,2.14-.853,2.754,2.754,0,0,1-.145.176,3.374,3.374,0,0,1-2.43-.637a2.588,2.588,0,0,1-.94-2.043A2.66,2.66,0,0,1-2.228-5.019,5.821,5.821,0,0,1,1.094-5.81h.914v-.5q0-1.316-1.134-1.316A.927.927,0,0,0-.18-6.587H-3.142A2.655,2.655,0,0,1-1.969-8.825a4.931,4.931,0,0,1,2.993-.86A4.323,4.323,0,0,1,3.9-8.8,3.086,3.086,0,0,1,4.979-6.363v4.21a4.311,4.311,0,0,0,.4,2V0ZM.567-1.934a1.652,1.652,0,0,0,.918-.237,1.487,1.487,0,0,0,.523-.536V-4.228H1.147Q-.4-4.228-.4-2.839a.848.848,0,0,0,.272.655A.986.986,0,0,0,.567-1.934ZM9.743,0H6.772V-13.5H9.743Zm4.948,0H11.72V-9.51h2.971ZM11.544-11.971A1.334,1.334,0,0,1,12-13.014a1.718,1.718,0,0,1,1.187-.407,1.718,1.718,0,0,1,1.187.407,1.334,1.334,0,0,1,.457,1.043,1.334,1.334,0,0,1-.457,1.043,1.718,1.718,0,0,1-1.187.407A1.718,1.718,0,0,1,12-10.927,1.334,1.334,0,0,1,11.544-11.971Zm7.77,2.461.1,1.116a3.27,3.27,0,0,1,2.716-1.292,2.407,2.407,0,0,1,2.435,1.433,3.165,3.165,0,0,1,2.795-1.433q2.892,0,2.971,3.5V0H27.356V-6a1.813,1.813,0,0,0-.246-1.063,1.048,1.048,0,0,0-.9-.334,1.4,1.4,0,0,0-1.31.782l.009.123V0H21.942V-5.985A1.906,1.906,0,0,0,21.7-7.066,1.045,1.045,0,0,0,20.8-7.4a1.42,1.42,0,0,0-1.3.782V0H16.537V-9.51ZM36.62.176a4.889,4.889,0,0,1-3.542-1.305,4.507,4.507,0,0,1-1.354-3.4v-.246a5.84,5.84,0,0,1,.541-2.575,3.955,3.955,0,0,1,1.578-1.727A4.763,4.763,0,0,1,36.3-9.686a4.117,4.117,0,0,1,3.164,1.244,4.887,4.887,0,0,1,1.16,3.467v1.151H34.739a2.135,2.135,0,0,0,.694,1.257,2.066,2.066,0,0,0,1.389.457,2.662,2.662,0,0,0,2.2-.984l1.354,1.6A3.784,3.784,0,0,1,38.8-.277,5.3,5.3,0,0,1,36.62.176ZM36.286-7.4q-1.3,0-1.547,1.723h2.988v-.229a1.467,1.467,0,0,0-.36-1.1A1.434,1.434,0,0,0,36.286-7.4ZM44.539-9.51l.1,1.116a3.225,3.225,0,0,1,2.716-1.292A2.713,2.713,0,0,1,49.57-8.8a4.226,4.226,0,0,1,.76,2.672V0H47.36V-6a1.6,1.6,0,0,0-.29-1.059A1.342,1.342,0,0,0,46.015-7.4a1.413,1.413,0,0,0-1.292.686V0H41.761V-9.51Zm10.881-2.364V-9.51h1.564v2.057H55.419V-3.1a1.111,1.111,0,0,0,.193.747,1.037,1.037,0,0,0,.765.211,4.345,4.345,0,0,0,.738-.053V-.079a5.466,5.466,0,0,1-1.67.255,3.1,3.1,0,0,1-2.259-.721,2.954,2.954,0,0,1-.729-2.188v-4.72H51.245V-9.51h1.213v-2.364ZM63.505,0a3.344,3.344,0,0,1-.281-.853A2.754,2.754,0,0,1,60.939.176a3.374,3.374,0,0,1-2.285-.813,2.588,2.588,0,0,1-.94-2.043,2.66,2.66,0,0,1,1.143-2.338,5.821,5.821,0,0,1,3.322-.791h.914v-.5q0-1.316-1.134-1.316A.927.927,0,0,0,60.9-6.587H57.942a2.655,2.655,0,0,1,1.173-2.239,4.931,4.931,0,0,1,2.993-.86,4.323,4.323,0,0,1,2.874.888,3.086,3.086,0,0,1,1.081,2.435v4.21a4.311,4.311,0,0,0,.4,2V0ZM61.651-1.934a1.652,1.652,0,0,0,.918-.237,1.487,1.487,0,0,0,.523-.536V-4.228h-.861q-1.547,0-1.547,1.389a.848.848,0,0,0,.272.655A.986.986,0,0,0,61.651-1.934Zm11.8-4.9-.976-.07a1.752,1.752,0,0,0-1.793.879V0H67.724V-9.51H70.5l.1,1.222a2.294,2.294,0,0,1,2.083-1.4,2.888,2.888,0,0,1,.826.105ZM77.647,0H74.676V-9.51h2.971ZM74.5-11.971a1.334,1.334,0,0,1,.457-1.043,1.718,1.718,0,0,1,1.187-.407,1.718,1.718,0,0,1,1.187.407,1.334,1.334,0,0,1,.457,1.043,1.334,1.334,0,0,1-.457,1.043,1.718,1.718,0,0,1-1.187.407,1.718,1.718,0,0,1-1.187-.407A1.334,1.334,0,0,1,74.5-11.971ZM84.828,0a3.344,3.344,0,0,1-.281-.853A2.754,2.754,0,0,1,82.261.176a3.374,3.374,0,0,1-2.285-.813,2.588,2.588,0,0,1-.94-2.043,2.66,2.66,0,0,1,1.143-2.338A5.821,5.821,0,0,1,83.5-5.81h.914v-.5q0-1.316-1.134-1.316a.927.927,0,0,0-1.055,1.042H79.264a2.655,2.655,0,0,1,1.173-2.239,4.931,4.931,0,0,1,2.993-.86A4.323,4.323,0,0,1,86.3-8.8a3.086,3.086,0,0,1,1.081,2.435v4.21a4.311,4.311,0,0,0,.4,2V0ZM82.973-1.934a1.652,1.652,0,0,0,.918-.237,1.487,1.487,0,0,0,.523-.536V-4.228h-.861q-1.547,0-1.547,1.389a.848.848,0,0,0,.272.655A.986.986,0,0,0,82.973-1.934Z" transform="translate(1076 6713)" fill="#fff"/>
    <path id="Path_190326" data-name="Path 190326" d="M-100.055-3.4a1.268,1.268,0,0,0-.479-1.055,5.954,5.954,0,0,0-1.683-.782,16.147,16.147,0,0,1-1.969-.782q-2.487-1.222-2.487-3.357a3.011,3.011,0,0,1,.62-1.876A4.008,4.008,0,0,1-104.3-12.52a6.823,6.823,0,0,1,2.549-.453,5.969,5.969,0,0,1,2.474.492,3.917,3.917,0,0,1,1.7,1.4A3.661,3.661,0,0,1-96.97-9h-3.076a1.547,1.547,0,0,0-.479-1.213,1.867,1.867,0,0,0-1.3-.431,2.106,2.106,0,0,0-1.305.365,1.119,1.119,0,0,0-.479.927,1.127,1.127,0,0,0,.527.892,6.65,6.65,0,0,0,1.854.826,11.36,11.36,0,0,1,2.18.918,3.663,3.663,0,0,1,2.074,3.3A3.125,3.125,0,0,1-98.235-.782a5.629,5.629,0,0,1-3.472.958,6.888,6.888,0,0,1-2.817-.558,4.247,4.247,0,0,1-1.9-1.529,3.985,3.985,0,0,1-.637-2.237h3.094a1.963,1.963,0,0,0,.532,1.516,2.513,2.513,0,0,0,1.727.488,1.985,1.985,0,0,0,1.208-.33A1.088,1.088,0,0,0-100.055-3.4ZM-90.923.176a4.889,4.889,0,0,1-3.542-1.305,4.507,4.507,0,0,1-1.354-3.4v-.246a5.84,5.84,0,0,1,.541-2.575A3.955,3.955,0,0,1-93.7-9.075a4.763,4.763,0,0,1,2.461-.611,4.117,4.117,0,0,1,3.164,1.244,4.887,4.887,0,0,1,1.16,3.467v1.151H-92.8a2.135,2.135,0,0,0,.694,1.257,2.066,2.066,0,0,0,1.389.457,2.662,2.662,0,0,0,2.2-.984l1.354,1.6A3.784,3.784,0,0,1-88.739-.277,5.3,5.3,0,0,1-90.923.176ZM-91.257-7.4q-1.3,0-1.547,1.723h2.988v-.229a1.467,1.467,0,0,0-.36-1.1A1.434,1.434,0,0,0-91.257-7.4Zm5.186,2.575A6.421,6.421,0,0,1-85.6-7.374a3.821,3.821,0,0,1,1.362-1.709,3.591,3.591,0,0,1,2.065-.6,2.855,2.855,0,0,1,2.32,1l.105-.826h2.689V-.36a4.009,4.009,0,0,1-.584,2.184A3.75,3.75,0,0,1-79.33,3.248a6.219,6.219,0,0,1-2.566.5,5.365,5.365,0,0,1-2.026-.4,3.657,3.657,0,0,1-1.5-1.028L-84.182.58A2.716,2.716,0,0,0-82,1.556,1.764,1.764,0,0,0-80.033-.466v-.3a2.781,2.781,0,0,1-2.153.94A3.437,3.437,0,0,1-85-1.156,5.517,5.517,0,0,1-86.071-4.72Zm2.971.185a3.383,3.383,0,0,0,.439,1.85,1.386,1.386,0,0,0,1.23.681,1.573,1.573,0,0,0,1.4-.642v-4a1.534,1.534,0,0,0-1.38-.65,1.4,1.4,0,0,0-1.239.708A3.858,3.858,0,0,0-83.1-4.641Zm13.395,3.612a3.054,3.054,0,0,1-2.54,1.2,3,3,0,0,1-2.369-.91,3.826,3.826,0,0,1-.8-2.615V-9.51h2.962v6.179a1.065,1.065,0,0,0,1.187,1.222,1.548,1.548,0,0,0,1.45-.729V-9.51h2.979V0h-2.777Zm10.239-5.8-.976-.07a1.752,1.752,0,0,0-1.793.879V0H-65.2V-9.51h2.777l.1,1.222a2.294,2.294,0,0,1,2.083-1.4,2.888,2.888,0,0,1,.826.105ZM-55.274,0h-2.971V-9.51h2.971Zm-3.146-11.971a1.334,1.334,0,0,1,.457-1.043,1.718,1.718,0,0,1,1.187-.407,1.718,1.718,0,0,1,1.187.407,1.334,1.334,0,0,1,.457,1.043,1.334,1.334,0,0,1-.457,1.043,1.718,1.718,0,0,1-1.187.407,1.718,1.718,0,0,1-1.187-.407A1.334,1.334,0,0,1-58.421-11.971Zm4.6,7.146a5.809,5.809,0,0,1,.976-3.56,3.211,3.211,0,0,1,2.725-1.3,2.731,2.731,0,0,1,2.145,1V-13.5h2.971V0h-2.663l-.149-1.02a2.8,2.8,0,0,1-2.32,1.2,3.205,3.205,0,0,1-2.689-1.3A5.993,5.993,0,0,1-53.824-4.825Zm2.962.185q0,2.531,1.477,2.531a1.458,1.458,0,0,0,1.406-.826V-6.557A1.419,1.419,0,0,0-49.368-7.4q-1.371,0-1.485,2.215ZM-37.969,0a3.344,3.344,0,0,1-.281-.853A2.754,2.754,0,0,1-40.535.176,3.374,3.374,0,0,1-42.82-.637a2.588,2.588,0,0,1-.94-2.043,2.66,2.66,0,0,1,1.143-2.338A5.821,5.821,0,0,1-39.3-5.81h.914v-.5q0-1.316-1.134-1.316A.927.927,0,0,0-40.57-6.587h-2.962a2.655,2.655,0,0,1,1.173-2.239,4.931,4.931,0,0,1,2.993-.86,4.323,4.323,0,0,1,2.874.888,3.086,3.086,0,0,1,1.081,2.435v4.21a4.311,4.311,0,0,0,.4,2V0Zm-1.854-1.934a1.652,1.652,0,0,0,.918-.237,1.487,1.487,0,0,0,.523-.536V-4.228h-.861q-1.547,0-1.547,1.389a.848.848,0,0,0,.272.655A.986.986,0,0,0-39.823-1.934Zm5.678-2.892a5.809,5.809,0,0,1,.976-3.56,3.211,3.211,0,0,1,2.725-1.3,2.731,2.731,0,0,1,2.145,1V-13.5h2.971V0h-2.663l-.149-1.02a2.8,2.8,0,0,1-2.32,1.2,3.205,3.205,0,0,1-2.689-1.3A5.993,5.993,0,0,1-34.146-4.825Zm2.962.185q0,2.531,1.477,2.531A1.458,1.458,0,0,0-28.3-2.936V-6.557A1.419,1.419,0,0,0-29.689-7.4q-1.371,0-1.485,2.215Zm11.646-.185a5.809,5.809,0,0,1,.976-3.56,3.211,3.211,0,0,1,2.725-1.3,2.731,2.731,0,0,1,2.145,1V-13.5h2.971V0h-2.663l-.149-1.02a2.8,2.8,0,0,1-2.32,1.2,3.205,3.205,0,0,1-2.689-1.3A5.993,5.993,0,0,1-19.538-4.825Zm2.962.185q0,2.531,1.477,2.531a1.458,1.458,0,0,0,1.406-.826V-6.557A1.419,1.419,0,0,0-15.082-7.4q-1.371,0-1.485,2.215ZM-4.438.176A4.889,4.889,0,0,1-7.98-1.129a4.507,4.507,0,0,1-1.354-3.4v-.246a5.84,5.84,0,0,1,.541-2.575A3.955,3.955,0,0,1-7.216-9.075a4.763,4.763,0,0,1,2.461-.611A4.117,4.117,0,0,1-1.591-8.442,4.887,4.887,0,0,1-.431-4.975v1.151H-6.319a2.135,2.135,0,0,0,.694,1.257,2.066,2.066,0,0,0,1.389.457,2.662,2.662,0,0,0,2.2-.984l1.354,1.6A3.784,3.784,0,0,1-2.254-.277,5.3,5.3,0,0,1-4.438.176ZM-4.772-7.4q-1.3,0-1.547,1.723h2.988v-.229a1.467,1.467,0,0,0-.36-1.1A1.434,1.434,0,0,0-4.772-7.4ZM8.367,0H5.4V-13.5H8.367Zm7.181,0a3.344,3.344,0,0,1-.281-.853A2.754,2.754,0,0,1,12.981.176,3.374,3.374,0,0,1,10.7-.637a2.588,2.588,0,0,1-.94-2.043A2.66,2.66,0,0,1,10.9-5.019a5.821,5.821,0,0,1,3.322-.791h.914v-.5q0-1.316-1.134-1.316a.927.927,0,0,0-1.055,1.042H9.984a2.655,2.655,0,0,1,1.173-2.239,4.931,4.931,0,0,1,2.993-.86,4.323,4.323,0,0,1,2.874.888,3.086,3.086,0,0,1,1.081,2.435v4.21a4.311,4.311,0,0,0,.4,2V0ZM13.693-1.934a1.652,1.652,0,0,0,.918-.237,1.487,1.487,0,0,0,.523-.536V-4.228h-.861q-1.547,0-1.547,1.389A.848.848,0,0,0,13-2.184.986.986,0,0,0,13.693-1.934Zm11.03-.738a.684.684,0,0,0-.4-.606,6.016,6.016,0,0,0-1.5-.475A6.853,6.853,0,0,1,21-4.4a3.062,3.062,0,0,1-1.1-.971,2.319,2.319,0,0,1-.378-1.31A2.628,2.628,0,0,1,20.6-8.837a4.453,4.453,0,0,1,2.83-.848,4.934,4.934,0,0,1,3.023.853A2.666,2.666,0,0,1,27.6-6.592H24.627q0-1.143-1.2-1.143a1.194,1.194,0,0,0-.782.259.8.8,0,0,0-.316.646.737.737,0,0,0,.387.642,3.654,3.654,0,0,0,1.235.4,10.671,10.671,0,0,1,1.49.378A2.706,2.706,0,0,1,27.58-2.76,2.491,2.491,0,0,1,26.424-.642a5.068,5.068,0,0,1-2.993.817,5.172,5.172,0,0,1-2.18-.439,3.645,3.645,0,0,1-1.494-1.2,2.707,2.707,0,0,1-.536-1.591H21.99a1.145,1.145,0,0,0,.439.962,1.808,1.808,0,0,0,1.081.3,1.422,1.422,0,0,0,.91-.246A.787.787,0,0,0,24.724-2.672ZM42.275-4.685a5.735,5.735,0,0,1-1,3.538A3.2,3.2,0,0,1,38.584.176a2.742,2.742,0,0,1-2.153-.958V3.656H33.469V-9.51h2.769l.088.879a2.742,2.742,0,0,1,2.241-1.055,3.224,3.224,0,0,1,2.733,1.3,5.805,5.805,0,0,1,.976,3.564Zm-2.962-.185q0-2.531-1.477-2.531a1.394,1.394,0,0,0-1.406.756V-2.9a1.439,1.439,0,0,0,1.424.791q1.415,0,1.459-2.443ZM48.182.176A4.889,4.889,0,0,1,44.64-1.129a4.507,4.507,0,0,1-1.354-3.4v-.246a5.84,5.84,0,0,1,.541-2.575A3.955,3.955,0,0,1,45.4-9.075a4.763,4.763,0,0,1,2.461-.611,4.117,4.117,0,0,1,3.164,1.244,4.887,4.887,0,0,1,1.16,3.467v1.151H46.3A2.135,2.135,0,0,0,47-2.566a2.066,2.066,0,0,0,1.389.457,2.662,2.662,0,0,0,2.2-.984l1.354,1.6A3.784,3.784,0,0,1,50.366-.277,5.3,5.3,0,0,1,48.182.176ZM47.848-7.4q-1.3,0-1.547,1.723h2.988v-.229a1.467,1.467,0,0,0-.36-1.1A1.434,1.434,0,0,0,47.848-7.4Zm11.285.571-.976-.07a1.752,1.752,0,0,0-1.793.879V0H53.4V-9.51H56.18l.1,1.222a2.294,2.294,0,0,1,2.083-1.4,2.888,2.888,0,0,1,.826.105ZM65.18-2.672a.684.684,0,0,0-.4-.606,6.016,6.016,0,0,0-1.5-.475A6.853,6.853,0,0,1,61.453-4.4a3.062,3.062,0,0,1-1.1-.971,2.319,2.319,0,0,1-.378-1.31,2.628,2.628,0,0,1,1.081-2.158,4.453,4.453,0,0,1,2.83-.848,4.934,4.934,0,0,1,3.023.853,2.666,2.666,0,0,1,1.143,2.241H65.083q0-1.143-1.2-1.143a1.194,1.194,0,0,0-.782.259.8.8,0,0,0-.316.646.737.737,0,0,0,.387.642,3.654,3.654,0,0,0,1.235.4,10.671,10.671,0,0,1,1.49.378A2.706,2.706,0,0,1,68.036-2.76,2.491,2.491,0,0,1,66.88-.642a5.068,5.068,0,0,1-2.993.817,5.172,5.172,0,0,1-2.18-.439,3.645,3.645,0,0,1-1.494-1.2,2.707,2.707,0,0,1-.536-1.591h2.769a1.145,1.145,0,0,0,.439.962,1.808,1.808,0,0,0,1.081.3,1.422,1.422,0,0,0,.91-.246A.787.787,0,0,0,65.18-2.672Zm3.867-2.171A5.613,5.613,0,0,1,69.6-7.378a3.96,3.96,0,0,1,1.591-1.709,4.791,4.791,0,0,1,2.435-.6,4.373,4.373,0,0,1,3.366,1.323,5.076,5.076,0,0,1,1.23,3.6v.105a4.925,4.925,0,0,1-1.235,3.529A4.384,4.384,0,0,1,73.644.176a4.434,4.434,0,0,1-3.261-1.217,4.761,4.761,0,0,1-1.327-3.3Zm2.962.185a3.538,3.538,0,0,0,.413,1.934,1.376,1.376,0,0,0,1.222.615q1.582,0,1.617-2.435v-.3q0-2.558-1.635-2.558-1.485,0-1.608,2.206ZM82.248-9.51l.1,1.116a3.225,3.225,0,0,1,2.716-1.292A2.713,2.713,0,0,1,87.28-8.8a4.226,4.226,0,0,1,.76,2.672V0H85.069V-6a1.6,1.6,0,0,0-.29-1.059A1.342,1.342,0,0,0,83.725-7.4a1.413,1.413,0,0,0-1.292.686V0H79.471V-9.51ZM95.036,0a3.344,3.344,0,0,1-.281-.853A2.754,2.754,0,0,1,92.47.176a3.374,3.374,0,0,1-2.285-.813,2.588,2.588,0,0,1-.94-2.043,2.66,2.66,0,0,1,1.143-2.338,5.821,5.821,0,0,1,3.322-.791h.914v-.5q0-1.316-1.134-1.316a.927.927,0,0,0-1.055,1.042H89.473a2.655,2.655,0,0,1,1.173-2.239,4.931,4.931,0,0,1,2.993-.86,4.323,4.323,0,0,1,2.874.888,3.086,3.086,0,0,1,1.081,2.435v4.21a4.311,4.311,0,0,0,.4,2V0ZM93.182-1.934a1.652,1.652,0,0,0,.918-.237,1.487,1.487,0,0,0,.523-.536V-4.228h-.861q-1.547,0-1.547,1.389a.848.848,0,0,0,.272.655A.986.986,0,0,0,93.182-1.934Zm11.03-.738a.684.684,0,0,0-.4-.606,6.016,6.016,0,0,0-1.5-.475,6.853,6.853,0,0,1-1.828-.646,3.062,3.062,0,0,1-1.1-.971,2.319,2.319,0,0,1-.378-1.31,2.628,2.628,0,0,1,1.081-2.158,4.453,4.453,0,0,1,2.83-.848,4.934,4.934,0,0,1,3.023.853,2.666,2.666,0,0,1,1.143,2.241h-2.971q0-1.143-1.2-1.143a1.194,1.194,0,0,0-.782.259.8.8,0,0,0-.316.646.737.737,0,0,0,.387.642,3.654,3.654,0,0,0,1.235.4,10.671,10.671,0,0,1,1.49.378,2.706,2.706,0,0,1,2.145,2.646,2.491,2.491,0,0,1-1.156,2.118,5.068,5.068,0,0,1-2.993.817,5.172,5.172,0,0,1-2.18-.439,3.645,3.645,0,0,1-1.494-1.2A2.707,2.707,0,0,1,98.71-3.05h2.769a1.145,1.145,0,0,0,.439.962,1.808,1.808,0,0,0,1.081.3,1.422,1.422,0,0,0,.91-.246A.787.787,0,0,0,104.212-2.672Z" transform="translate(524 6713)" fill="#12263f"/>
    <path id="Path_190328" data-name="Path 190328" d="M-67.645,0V-12.8h4.6a6.509,6.509,0,0,1,3.757.905A3.012,3.012,0,0,1-58-9.264a3.045,3.045,0,0,1-.457,1.7A2.663,2.663,0,0,1-59.805-6.53a2.7,2.7,0,0,1,1.538.984,2.862,2.862,0,0,1,.536,1.758A3.388,3.388,0,0,1-58.922-.962,5.667,5.667,0,0,1-62.451,0Zm3.085-5.44v3.067h2.021a1.923,1.923,0,0,0,1.283-.382,1.338,1.338,0,0,0,.448-1.077A1.419,1.419,0,0,0-62.4-5.44Zm0-2.021h1.608a2.285,2.285,0,0,0,1.441-.37A1.314,1.314,0,0,0-61.08-8.9a1.379,1.379,0,0,0-.466-1.168,2.493,2.493,0,0,0-1.5-.357H-64.56ZM-53.046,0h-2.971V-9.51h2.971Zm-3.146-11.971a1.334,1.334,0,0,1,.457-1.043,1.718,1.718,0,0,1,1.187-.407,1.718,1.718,0,0,1,1.187.407,1.334,1.334,0,0,1,.457,1.043,1.334,1.334,0,0,1-.457,1.043,1.718,1.718,0,0,1-1.187.407,1.718,1.718,0,0,1-1.187-.407A1.334,1.334,0,0,1-56.193-11.971ZM-46.622.176a4.889,4.889,0,0,1-3.542-1.305,4.507,4.507,0,0,1-1.354-3.4v-.246a5.84,5.84,0,0,1,.541-2.575A3.955,3.955,0,0,1-49.4-9.075a4.763,4.763,0,0,1,2.461-.611,4.117,4.117,0,0,1,3.164,1.244,4.887,4.887,0,0,1,1.16,3.467v1.151H-48.5a2.135,2.135,0,0,0,.694,1.257,2.066,2.066,0,0,0,1.389.457,2.662,2.662,0,0,0,2.2-.984l1.354,1.6A3.784,3.784,0,0,1-44.437-.277,5.3,5.3,0,0,1-46.622.176ZM-46.956-7.4q-1.3,0-1.547,1.723h2.988v-.229a1.467,1.467,0,0,0-.36-1.1A1.434,1.434,0,0,0-46.956-7.4ZM-38.7-9.51l.1,1.116A3.225,3.225,0,0,1-35.89-9.686a2.713,2.713,0,0,1,2.219.888,4.226,4.226,0,0,1,.76,2.672V0h-2.971V-6a1.6,1.6,0,0,0-.29-1.059A1.342,1.342,0,0,0-37.226-7.4a1.413,1.413,0,0,0-1.292.686V0H-41.48V-9.51ZM-26.67.176a4.889,4.889,0,0,1-3.542-1.305,4.507,4.507,0,0,1-1.354-3.4v-.246a5.84,5.84,0,0,1,.541-2.575,3.955,3.955,0,0,1,1.578-1.727,4.763,4.763,0,0,1,2.461-.611,4.117,4.117,0,0,1,3.164,1.244,4.887,4.887,0,0,1,1.16,3.467v1.151h-5.889a2.135,2.135,0,0,0,.694,1.257,2.066,2.066,0,0,0,1.389.457,2.662,2.662,0,0,0,2.2-.984l1.354,1.6A3.784,3.784,0,0,1-24.486-.277,5.3,5.3,0,0,1-26.67.176ZM-27-7.4q-1.3,0-1.547,1.723h2.988v-.229a1.467,1.467,0,0,0-.36-1.1A1.434,1.434,0,0,0-27-7.4Zm10.512,4.729a.684.684,0,0,0-.4-.606,6.016,6.016,0,0,0-1.5-.475A6.853,6.853,0,0,1-20.219-4.4a3.062,3.062,0,0,1-1.1-.971A2.319,2.319,0,0,1-21.7-6.68a2.628,2.628,0,0,1,1.081-2.158,4.453,4.453,0,0,1,2.83-.848,4.934,4.934,0,0,1,3.023.853,2.666,2.666,0,0,1,1.143,2.241h-2.971q0-1.143-1.2-1.143a1.194,1.194,0,0,0-.782.259.8.8,0,0,0-.316.646.737.737,0,0,0,.387.642,3.654,3.654,0,0,0,1.235.4,10.671,10.671,0,0,1,1.49.378A2.706,2.706,0,0,1-13.636-2.76,2.491,2.491,0,0,1-14.792-.642a5.068,5.068,0,0,1-2.993.817,5.172,5.172,0,0,1-2.18-.439,3.645,3.645,0,0,1-1.494-1.2,2.707,2.707,0,0,1-.536-1.591h2.769a1.145,1.145,0,0,0,.439.962,1.808,1.808,0,0,0,1.081.3,1.422,1.422,0,0,0,.91-.246A.787.787,0,0,0-16.493-2.672Zm7.69-9.2V-9.51h1.564v2.057H-8.8V-3.1a1.111,1.111,0,0,0,.193.747,1.037,1.037,0,0,0,.765.211A4.345,4.345,0,0,0-7.106-2.2V-.079a5.466,5.466,0,0,1-1.67.255,3.1,3.1,0,0,1-2.259-.721,2.954,2.954,0,0,1-.729-2.188v-4.72h-1.213V-9.51h1.213v-2.364ZM-.716,0A3.344,3.344,0,0,1-1-.853,2.754,2.754,0,0,1-3.283.176,3.374,3.374,0,0,1-5.568-.637a2.588,2.588,0,0,1-.94-2.043A2.66,2.66,0,0,1-5.366-5.019,5.821,5.821,0,0,1-2.043-5.81h.914v-.5q0-1.316-1.134-1.316A.927.927,0,0,0-3.318-6.587H-6.28A2.655,2.655,0,0,1-5.106-8.825a4.931,4.931,0,0,1,2.993-.86A4.323,4.323,0,0,1,.76-8.8,3.086,3.086,0,0,1,1.841-6.363v4.21a4.311,4.311,0,0,0,.4,2V0ZM-2.571-1.934a1.652,1.652,0,0,0,.918-.237,1.487,1.487,0,0,0,.523-.536V-4.228h-.861q-1.547,0-1.547,1.389a.848.848,0,0,0,.272.655A.986.986,0,0,0-2.571-1.934Zm11.8-4.9L8.257-6.9a1.752,1.752,0,0,0-1.793.879V0H3.5V-9.51H6.28l.1,1.222a2.294,2.294,0,0,1,2.083-1.4,2.888,2.888,0,0,1,.826.105ZM20.14,0a3.344,3.344,0,0,1-.281-.853A2.754,2.754,0,0,1,17.574.176a3.374,3.374,0,0,1-2.285-.813,2.588,2.588,0,0,1-.94-2.043,2.66,2.66,0,0,1,1.143-2.338,5.821,5.821,0,0,1,3.322-.791h.914v-.5q0-1.316-1.134-1.316a.927.927,0,0,0-1.055,1.042H14.577A2.655,2.655,0,0,1,15.75-8.825a4.931,4.931,0,0,1,2.993-.86,4.323,4.323,0,0,1,2.874.888A3.086,3.086,0,0,1,22.7-6.363v4.21a4.311,4.311,0,0,0,.4,2V0ZM18.286-1.934a1.652,1.652,0,0,0,.918-.237,1.487,1.487,0,0,0,.523-.536V-4.228h-.861q-1.547,0-1.547,1.389a.848.848,0,0,0,.272.655A.986.986,0,0,0,18.286-1.934ZM27.057-9.51l.1,1.116A3.225,3.225,0,0,1,29.87-9.686a2.713,2.713,0,0,1,2.219.888,4.226,4.226,0,0,1,.76,2.672V0H29.878V-6a1.6,1.6,0,0,0-.29-1.059A1.342,1.342,0,0,0,28.534-7.4a1.413,1.413,0,0,0-1.292.686V0H24.28V-9.51ZM37.613,0H34.642V-9.51h2.971ZM34.466-11.971a1.334,1.334,0,0,1,.457-1.043,1.718,1.718,0,0,1,1.187-.407,1.718,1.718,0,0,1,1.187.407,1.334,1.334,0,0,1,.457,1.043,1.334,1.334,0,0,1-.457,1.043,1.718,1.718,0,0,1-1.187.407,1.718,1.718,0,0,1-1.187-.407A1.334,1.334,0,0,1,34.466-11.971Zm7.77,2.461.1,1.116a3.27,3.27,0,0,1,2.716-1.292,2.407,2.407,0,0,1,2.435,1.433,3.165,3.165,0,0,1,2.795-1.433q2.892,0,2.971,3.5V0H50.278V-6a1.813,1.813,0,0,0-.246-1.063,1.048,1.048,0,0,0-.9-.334,1.4,1.4,0,0,0-1.31.782l.009.123V0H44.864V-5.985a1.906,1.906,0,0,0-.237-1.081,1.045,1.045,0,0,0-.905-.334,1.42,1.42,0,0,0-1.3.782V0H39.458V-9.51ZM60.3,0a3.344,3.344,0,0,1-.281-.853A2.754,2.754,0,0,1,57.731.176a3.374,3.374,0,0,1-2.285-.813,2.588,2.588,0,0,1-.94-2.043,2.66,2.66,0,0,1,1.143-2.338A5.821,5.821,0,0,1,58.97-5.81h.914v-.5q0-1.316-1.134-1.316A.927.927,0,0,0,57.7-6.587H54.734a2.655,2.655,0,0,1,1.173-2.239,4.931,4.931,0,0,1,2.993-.86,4.323,4.323,0,0,1,2.874.888,3.086,3.086,0,0,1,1.081,2.435v4.21a4.311,4.311,0,0,0,.4,2V0ZM58.443-1.934a1.652,1.652,0,0,0,.918-.237,1.487,1.487,0,0,0,.523-.536V-4.228h-.861q-1.547,0-1.547,1.389a.848.848,0,0,0,.272.655A.986.986,0,0,0,58.443-1.934ZM67.619,0H64.648V-13.5h2.971Z" transform="translate(1077 6442)" fill="#12263f"/>
  </g>
</svg>
