<svg xmlns="http://www.w3.org/2000/svg" xmlns:xlink="http://www.w3.org/1999/xlink" width="400" height="290" viewBox="0 0 400 290">
  <defs>
    <filter id="Ellipse_5069" x="129" y="37" width="143" height="143" filterUnits="userSpaceOnUse">
      <feOffset dy="3" input="SourceAlpha"/>
      <feGaussianBlur stdDeviation="3" result="blur"/>
      <feFlood flood-opacity="0.161"/>
      <feComposite operator="in" in2="blur"/>
      <feComposite in="SourceGraphic"/>
    </filter>
  </defs>
  <g id="t4-f3" transform="translate(-6910 8842)">
    <rect id="Rectangle_40143" data-name="Rectangle 40143" width="400" height="290" rx="20" transform="translate(6910 -8842)" fill="#faf4dc"/>
    <path id="Path_190273" data-name="Path 190273" d="M66.347,21H62.6V14.469H57.044V21H53.273V5.359h3.771v6.209H62.6V5.359h3.749Zm8.766,0a4.087,4.087,0,0,1-.344-1.042,3.366,3.366,0,0,1-2.793,1.257,4.124,4.124,0,0,1-2.793-.994,3.163,3.163,0,0,1-1.149-2.5,3.251,3.251,0,0,1,1.4-2.857A7.114,7.114,0,0,1,73.49,13.9h1.117v-.615q0-1.608-1.386-1.608a1.133,1.133,0,0,0-1.289,1.274h-3.62a3.245,3.245,0,0,1,1.434-2.736A6.027,6.027,0,0,1,73.4,9.162a5.284,5.284,0,0,1,3.513,1.085,3.772,3.772,0,0,1,1.321,2.976v5.146a5.269,5.269,0,0,0,.494,2.449V21Zm-2.267-2.363a2.019,2.019,0,0,0,1.123-.29,1.818,1.818,0,0,0,.639-.655V15.833H73.555q-1.891,0-1.891,1.7a1.036,1.036,0,0,0,.333.8A1.205,1.205,0,0,0,72.846,18.637Zm18.187-3.352a7.084,7.084,0,0,1-1.182,4.394,3.958,3.958,0,0,1-3.33,1.536,3.435,3.435,0,0,1-2.857-1.407L83.513,21H80.269V4.5h3.62v5.812A3.314,3.314,0,0,1,86.5,9.162a3.959,3.959,0,0,1,3.352,1.558A7.121,7.121,0,0,1,91.032,15.1ZM87.4,15.054a4.725,4.725,0,0,0-.446-2.386,1.5,1.5,0,0,0-1.37-.713,1.733,1.733,0,0,0-1.7.933V17.5a1.743,1.743,0,0,0,1.719.922,1.537,1.537,0,0,0,1.622-1.244A8.933,8.933,0,0,0,87.4,15.054ZM96.446,21H92.815V9.377h3.631ZM92.6,6.369a1.63,1.63,0,0,1,.559-1.275,2.364,2.364,0,0,1,2.9,0,1.63,1.63,0,0,1,.559,1.275,1.63,1.63,0,0,1-.559,1.275,2.364,2.364,0,0,1-2.9,0A1.63,1.63,0,0,1,92.6,6.369ZM102.494,21H98.863V4.5h3.631Zm6.048,0h-3.631V9.377h3.631ZM104.7,6.369a1.63,1.63,0,0,1,.559-1.275,2.364,2.364,0,0,1,2.9,0,1.63,1.63,0,0,1,.559,1.275,1.63,1.63,0,0,1-.559,1.275,2.364,2.364,0,0,1-2.9,0A1.63,1.63,0,0,1,104.7,6.369Zm5.618,8.733a7.1,7.1,0,0,1,1.192-4.351,3.925,3.925,0,0,1,3.33-1.59,3.338,3.338,0,0,1,2.621,1.225V4.5h3.631V21h-3.255l-.183-1.246a3.428,3.428,0,0,1-2.836,1.461,3.918,3.918,0,0,1-3.287-1.59A7.325,7.325,0,0,1,110.314,15.1Zm3.62.226q0,3.094,1.8,3.094a1.782,1.782,0,0,0,1.719-1.01V12.986a1.734,1.734,0,0,0-1.7-1.031q-1.676,0-1.815,2.707ZM129.693,21a4.088,4.088,0,0,1-.344-1.042,3.366,3.366,0,0,1-2.793,1.257,4.124,4.124,0,0,1-2.793-.994,3.163,3.163,0,0,1-1.149-2.5,3.251,3.251,0,0,1,1.4-2.857,7.114,7.114,0,0,1,4.061-.967h1.117v-.615q0-1.608-1.386-1.608a1.133,1.133,0,0,0-1.289,1.274h-3.62a3.245,3.245,0,0,1,1.434-2.736,6.027,6.027,0,0,1,3.658-1.051,5.284,5.284,0,0,1,3.513,1.085,3.772,3.772,0,0,1,1.321,2.976v5.146a5.269,5.269,0,0,0,.494,2.449V21Zm-2.267-2.363a2.019,2.019,0,0,0,1.123-.29,1.818,1.818,0,0,0,.639-.655V15.833h-1.053q-1.891,0-1.891,1.7a1.036,1.036,0,0,0,.333.8A1.205,1.205,0,0,0,127.427,18.637Zm6.939-3.534a7.1,7.1,0,0,1,1.192-4.351,3.925,3.925,0,0,1,3.33-1.59,3.338,3.338,0,0,1,2.621,1.225V4.5h3.631V21h-3.255l-.183-1.246a3.428,3.428,0,0,1-2.836,1.461,3.918,3.918,0,0,1-3.287-1.59A7.325,7.325,0,0,1,134.366,15.1Zm3.62.226q0,3.094,1.8,3.094a1.782,1.782,0,0,0,1.719-1.01V12.986a1.734,1.734,0,0,0-1.7-1.031q-1.676,0-1.815,2.707Zm14.835,5.887a5.975,5.975,0,0,1-4.329-1.6,5.509,5.509,0,0,1-1.654-4.152v-.3a7.138,7.138,0,0,1,.661-3.147,4.834,4.834,0,0,1,1.928-2.111,5.821,5.821,0,0,1,3.008-.747,5.031,5.031,0,0,1,3.867,1.52,5.973,5.973,0,0,1,1.418,4.238v1.407h-7.2a2.609,2.609,0,0,0,.849,1.536,2.525,2.525,0,0,0,1.7.559,3.254,3.254,0,0,0,2.686-1.2l1.654,1.955a4.624,4.624,0,0,1-1.917,1.488A6.48,6.48,0,0,1,152.821,21.215Zm-.408-9.26q-1.59,0-1.891,2.105h3.652v-.279a1.793,1.793,0,0,0-.44-1.348A1.753,1.753,0,0,0,152.413,11.955Zm12.848,5.779a.836.836,0,0,0-.483-.741,7.353,7.353,0,0,0-1.837-.58,8.376,8.376,0,0,1-2.234-.79,3.743,3.743,0,0,1-1.343-1.187,2.835,2.835,0,0,1-.462-1.6,3.212,3.212,0,0,1,1.321-2.637,5.443,5.443,0,0,1,3.459-1.037,6.03,6.03,0,0,1,3.7,1.042,3.258,3.258,0,0,1,1.4,2.739h-3.631q0-1.4-1.472-1.4a1.459,1.459,0,0,0-.956.317.981.981,0,0,0-.387.79.9.9,0,0,0,.473.784,4.466,4.466,0,0,0,1.509.494,13.042,13.042,0,0,1,1.821.462q2.621.9,2.621,3.233a3.044,3.044,0,0,1-1.413,2.589,6.2,6.2,0,0,1-3.658,1,6.322,6.322,0,0,1-2.664-.537,4.455,4.455,0,0,1-1.826-1.461,3.308,3.308,0,0,1-.655-1.944h3.384a1.4,1.4,0,0,0,.537,1.176,2.209,2.209,0,0,0,1.321.371,1.738,1.738,0,0,0,1.112-.3A.962.962,0,0,0,165.261,17.734ZM175.5,15.1a7.848,7.848,0,0,1,.58-3.115A4.67,4.67,0,0,1,177.743,9.9a4.389,4.389,0,0,1,2.524-.736,3.49,3.49,0,0,1,2.836,1.225l.129-1.01h3.287V20.56a4.9,4.9,0,0,1-.714,2.669,4.584,4.584,0,0,1-2.068,1.74,7.6,7.6,0,0,1-3.137.607,6.557,6.557,0,0,1-2.476-.483,4.47,4.47,0,0,1-1.832-1.257l1.515-2.127a3.319,3.319,0,0,0,2.664,1.192,2.156,2.156,0,0,0,2.406-2.471v-.365a3.4,3.4,0,0,1-2.632,1.149,4.2,4.2,0,0,1-3.437-1.627,6.743,6.743,0,0,1-1.311-4.356Zm3.631.226a4.135,4.135,0,0,0,.537,2.261,1.7,1.7,0,0,0,1.5.833,1.923,1.923,0,0,0,1.708-.784V12.75a1.875,1.875,0,0,0-1.687-.795,1.706,1.706,0,0,0-1.515.865A4.715,4.715,0,0,0,179.129,15.328ZM194.2,21.215a5.975,5.975,0,0,1-4.329-1.6,5.509,5.509,0,0,1-1.654-4.152v-.3a7.138,7.138,0,0,1,.661-3.147,4.834,4.834,0,0,1,1.928-2.111,5.821,5.821,0,0,1,3.008-.747,5.031,5.031,0,0,1,3.867,1.52A5.973,5.973,0,0,1,199.1,14.92v1.407h-7.2a2.609,2.609,0,0,0,.849,1.536,2.525,2.525,0,0,0,1.7.559,3.254,3.254,0,0,0,2.686-1.2l1.654,1.955a4.624,4.624,0,0,1-1.917,1.488A6.48,6.48,0,0,1,194.2,21.215Zm-.408-9.26q-1.59,0-1.891,2.105h3.652v-.279a1.793,1.793,0,0,0-.44-1.348A1.753,1.753,0,0,0,193.792,11.955Zm10.087-2.578L204,10.741a3.942,3.942,0,0,1,3.319-1.579,3.316,3.316,0,0,1,2.712,1.085,5.165,5.165,0,0,1,.929,3.266V21h-3.631V13.663a1.961,1.961,0,0,0-.354-1.294,1.64,1.64,0,0,0-1.289-.414,1.726,1.726,0,0,0-1.579.838V21h-3.62V9.377Zm14.706,11.838a5.975,5.975,0,0,1-4.329-1.6,5.509,5.509,0,0,1-1.654-4.152v-.3a7.138,7.138,0,0,1,.661-3.147,4.834,4.834,0,0,1,1.928-2.111,5.821,5.821,0,0,1,3.008-.747,5.031,5.031,0,0,1,3.867,1.52,5.973,5.973,0,0,1,1.418,4.238v1.407h-7.2a2.609,2.609,0,0,0,.849,1.536,2.525,2.525,0,0,0,1.7.559,3.254,3.254,0,0,0,2.686-1.2l1.654,1.955a4.624,4.624,0,0,1-1.917,1.488A6.48,6.48,0,0,1,218.585,21.215Zm-.408-9.26q-1.59,0-1.891,2.105h3.652v-.279a1.793,1.793,0,0,0-.44-1.348A1.753,1.753,0,0,0,218.177,11.955Zm13.793.7-1.192-.086a2.142,2.142,0,0,0-2.191,1.074V21h-3.62V9.377h3.395l.118,1.493a2.8,2.8,0,0,1,2.546-1.708,3.53,3.53,0,0,1,1.01.129ZM239.5,21a4.088,4.088,0,0,1-.344-1.042,3.366,3.366,0,0,1-2.793,1.257,4.124,4.124,0,0,1-2.793-.994,3.163,3.163,0,0,1-1.149-2.5,3.251,3.251,0,0,1,1.4-2.857,7.114,7.114,0,0,1,4.061-.967H239v-.615q0-1.608-1.386-1.608a1.133,1.133,0,0,0-1.289,1.274H232.7a3.245,3.245,0,0,1,1.434-2.736,6.027,6.027,0,0,1,3.658-1.051,5.284,5.284,0,0,1,3.513,1.085,3.772,3.772,0,0,1,1.321,2.976v5.146a5.269,5.269,0,0,0,.494,2.449V21Zm-2.267-2.363a2.019,2.019,0,0,0,1.123-.29,1.818,1.818,0,0,0,.639-.655V15.833h-1.053q-1.891,0-1.891,1.7a1.036,1.036,0,0,0,.333.8A1.205,1.205,0,0,0,237.233,18.637ZM248.448,21h-3.631V4.5h3.631Zm7.853.215a5.975,5.975,0,0,1-4.329-1.6,5.509,5.509,0,0,1-1.654-4.152v-.3a7.138,7.138,0,0,1,.661-3.147,4.834,4.834,0,0,1,1.928-2.111,5.821,5.821,0,0,1,3.008-.747,5.031,5.031,0,0,1,3.867,1.52A5.973,5.973,0,0,1,261.2,14.92v1.407H254a2.609,2.609,0,0,0,.849,1.536,2.525,2.525,0,0,0,1.7.559,3.254,3.254,0,0,0,2.686-1.2l1.654,1.955a4.624,4.624,0,0,1-1.917,1.488A6.48,6.48,0,0,1,256.3,21.215Zm-.408-9.26q-1.59,0-1.891,2.105h3.652v-.279a1.793,1.793,0,0,0-.44-1.348A1.753,1.753,0,0,0,255.893,11.955Zm12.848,5.779a.836.836,0,0,0-.483-.741,7.353,7.353,0,0,0-1.837-.58,8.376,8.376,0,0,1-2.234-.79,3.743,3.743,0,0,1-1.343-1.187,2.834,2.834,0,0,1-.462-1.6A3.212,3.212,0,0,1,263.7,10.2a5.443,5.443,0,0,1,3.459-1.037,6.03,6.03,0,0,1,3.7,1.042,3.258,3.258,0,0,1,1.4,2.739h-3.631q0-1.4-1.472-1.4a1.459,1.459,0,0,0-.956.317.981.981,0,0,0-.387.79.9.9,0,0,0,.473.784,4.466,4.466,0,0,0,1.509.494,13.043,13.043,0,0,1,1.821.462q2.621.9,2.621,3.233a3.044,3.044,0,0,1-1.413,2.589,6.2,6.2,0,0,1-3.658,1,6.322,6.322,0,0,1-2.664-.537,4.455,4.455,0,0,1-1.826-1.461,3.308,3.308,0,0,1-.655-1.944H265.4a1.4,1.4,0,0,0,.537,1.176,2.209,2.209,0,0,0,1.321.371,1.738,1.738,0,0,0,1.112-.3A.962.962,0,0,0,268.74,17.734Z" transform="translate(6948 -8621)" fill="#12263f"/>
    <path id="Path_190270" data-name="Path 190270" d="M0,0H172V3H0Z" transform="translate(7024 -8649)" fill="#ffb500"/>
    <g id="t4-ic3" transform="translate(-4 380)">
      <g transform="matrix(1, 0, 0, 1, 6914, -9222)" filter="url(#Ellipse_5069)">
        <circle id="Ellipse_5069-2" data-name="Ellipse 5069" cx="62.5" cy="62.5" r="62.5" transform="translate(138 43)" fill="#fff"/>
      </g>
      <g id="Group_107803" data-name="Group 107803" transform="translate(2348 3180)">
        <g id="lider" transform="translate(4727 -12336)">
          <g id="_e69642ff" data-name="#e69642ff" transform="translate(25.033)">
            <path id="Path_188247" data-name="Path 188247" d="M174.6,0h.855a15.137,15.137,0,0,1,8.391,2.747,29.088,29.088,0,0,1-6.719,13.262,31.051,31.051,0,0,1-4.033,3.828c-1.078,0-2.156-.023-3.234.011a3.893,3.893,0,0,0-3.07,1.752c-.462.728-.95,1.442-1.369,2.2l-.008-.117c-.009-.962.025-1.925,0-2.886a.951.951,0,0,0-1.011-.955,12.223,12.223,0,0,0-2.139.064,2.858,2.858,0,0,0-2.045,2.019c.027-2.486-.011-4.972.019-7.458A14.988,14.988,0,0,1,174.6,0Z" transform="translate(-160.21)" fill="#e69642"/>
            <path id="Path_188248" data-name="Path 188248" d="M220.1,393.129a1.25,1.25,0,0,1,1.431.461c.452.7.845,1.441,1.289,2.15a1.372,1.372,0,0,0,.881.672c.855.2,1.723.348,2.567.6a1.268,1.268,0,0,1,.573,1.912c-.541.655-1.12,1.277-1.675,1.92a1.3,1.3,0,0,0-.344.948c.05.9.172,1.784.223,2.68a1.253,1.253,0,0,1-1.523,1.184c-.678-.219-1.317-.547-1.975-.819a1.932,1.932,0,0,0-1.392-.275c-.9.328-1.737.791-2.644,1.091a1.258,1.258,0,0,1-1.548-1.2c.059-.889.173-1.773.227-2.662a1.284,1.284,0,0,0-.344-.953c-.552-.645-1.131-1.267-1.675-1.917a1.262,1.262,0,0,1,.578-1.912c.875-.261,1.786-.384,2.666-.63a1.368,1.368,0,0,0,.786-.652c.417-.678.806-1.373,1.222-2.052A1.226,1.226,0,0,1,220.1,393.129Z" transform="translate(-205.545 -331.645)" fill="#e69642"/>
          </g>
          <g id="_e38523ff" data-name="#e38523ff" transform="translate(37.912 2.747)">
            <path id="Path_188249" data-name="Path 188249" d="M253.392,17.58a14.988,14.988,0,0,1,6.323,11.944q0,3.616,0,7.233a3.324,3.324,0,0,0-1.2-1.655,4.883,4.883,0,0,0-2.848-.434,1.02,1.02,0,0,0-1.116.642c-.131,1.1.1,2.219-.106,3.309q.019-1.739-.009-3.48c.061-.586-.623-.677-1-.9a5.478,5.478,0,0,1-2.616-2.327c.658-.881,1.217-1.83,1.852-2.727a2.088,2.088,0,0,0,.6-1.95,1.229,1.229,0,0,0-2.094-.177c-1.467,2.162-2.889,4.362-4.381,6.508.027.064.081.194.109.258a8.251,8.251,0,0,1-4.264.85,31.05,31.05,0,0,0,4.033-3.828A29.088,29.088,0,0,0,253.392,17.58Z" transform="translate(-242.64 -17.58)" fill="#e38523"/>
          </g>
          <g id="_e1761cff" data-name="#e1761cff" transform="translate(42.067 11.719)">
            <path id="Path_188250" data-name="Path 188250" d="M273.611,75.5a1.229,1.229,0,0,1,2.094.177,2.088,2.088,0,0,1-.6,1.95c-.634.9-1.194,1.845-1.852,2.727-.191-.328-.5-.82-.947-.62a4.628,4.628,0,0,0-.652.692,7.833,7.833,0,0,1-2.311,1.841c-.028-.064-.083-.194-.109-.258C270.722,79.865,272.144,77.665,273.611,75.5Z" transform="translate(-269.23 -75)" fill="#e1761c"/>
          </g>
          <g id="_fed2a4ff" data-name="#fed2a4ff" transform="translate(8.343 16.197)">
            <path id="Path_188251" data-name="Path 188251" d="M55.552,106.415a8.334,8.334,0,0,1,14.469,4.592c.009.037.028.113.036.152.123,1.108,0,2.225.033,3.337a18.591,18.591,0,0,1-.333,4.981,8.535,8.535,0,0,1-4.675,5.427,8.328,8.328,0,0,1-11.664-7.223c-.038-1.9-.012-3.8-.014-5.7A8.325,8.325,0,0,1,55.552,106.415Z" transform="translate(-53.397 -103.661)" fill="#fed2a4"/>
            <path id="Path_188252" data-name="Path 188252" d="M356.429,104.5a8.335,8.335,0,0,1,11.661,5.292,19.263,19.263,0,0,1,.306,4.873,19.507,19.507,0,0,1-.286,4.753,8.332,8.332,0,0,1-11.4,5.5,8.539,8.539,0,0,1-4.827-6.042,24.553,24.553,0,0,1-.181-4.367c.027-1.109-.066-2.223.041-3.33.009-.044.027-.13.036-.173A8.294,8.294,0,0,1,356.429,104.5Z" transform="translate(-305.085 -103.671)" fill="#fed2a4"/>
            <path id="Path_188253" data-name="Path 188253" d="M207.778,106a4.627,4.627,0,0,1,.652-.692.462.462,0,0,1,.377.57c-.009,3.65,0,7.3,0,10.952a9.733,9.733,0,0,1-4.017,7.892,13.683,13.683,0,0,1-3.47,1.664,10.429,10.429,0,0,1-3.267-1.341,9.813,9.813,0,0,1-4.433-6.962c-.178-1.8,0-3.623-.088-5.433.419-.755.906-1.469,1.369-2.2a3.893,3.893,0,0,1,3.07-1.752c1.078-.034,2.156-.011,3.234-.011a8.251,8.251,0,0,0,4.264-.85A7.833,7.833,0,0,0,207.778,106Z" transform="translate(-171.634 -105.052)" fill="#fed2a4"/>
          </g>
          <g id="_ffbd86ff" data-name="#ffbd86ff" transform="translate(13.352 16.408)">
            <path id="Path_188254" data-name="Path 188254" d="M250.482,105.06c.447-.2.756.292.947.62a5.478,5.478,0,0,0,2.616,2.327c.381.228,1.066.319,1,.9q.028,1.739.009,3.48a15.677,15.677,0,0,0-.077,2.3c-.052,1,.189,1.983.07,2.978a9.841,9.841,0,0,1-4.473,7.18,9.57,9.57,0,0,1-7.209,1.291,13.683,13.683,0,0,0,3.47-1.664,9.733,9.733,0,0,0,4.017-7.892c0-3.65-.008-7.3,0-10.952A.462.462,0,0,0,250.482,105.06Z" transform="translate(-218.695 -105.013)" fill="#ffbd86"/>
            <path id="Path_188255" data-name="Path 188255" d="M161.9,126.951a12.225,12.225,0,0,1,2.139-.064.951.951,0,0,1,1.011.955c.028.961-.006,1.923,0,2.886-.039,1.32.006,2.644-.025,3.966-.9-.006-1.809.016-2.714-.011a2.59,2.59,0,0,1-2.338-1.855c-.172-.684.061-1.411-.152-2.084-.008-.039-.027-.114-.036-.152.052-.539.047-1.081.066-1.622A2.858,2.858,0,0,1,161.9,126.951Z" transform="translate(-148.174 -123.456)" fill="#ffbd86"/>
            <path id="Path_188256" data-name="Path 188256" d="M85.45,239.626a8.366,8.366,0,0,0,6.677-.006q0,2.02,0,4.044a3.339,3.339,0,0,1-6.678-.006C85.452,242.314,85.455,240.97,85.45,239.626Z" transform="translate(-85.45 -218.588)" fill="#ffbd86"/>
            <path id="Path_188257" data-name="Path 188257" d="M383.809,239.62a8.36,8.36,0,0,0,6.68,0c-.011,1.345,0,2.692,0,4.038a3.338,3.338,0,0,1-6.677,0Q383.808,241.643,383.809,239.62Z" transform="translate(-337.189 -218.588)" fill="#ffbd86"/>
            <path id="Path_188258" data-name="Path 188258" d="M222.6,257.86c.7.186,1.37.48,2.08.638a13.5,13.5,0,0,0,6.116.037c.763-.169,1.483-.48,2.242-.666-.033,1.42.013,2.841-.033,4.261l-.025.145-.078.052,0,.094a4.175,4.175,0,0,1-.833.634c-1.263.78-2.514,1.577-3.778,2.355a.724.724,0,0,1-.85.048c-1.358-.834-2.7-1.694-4.059-2.528a3.465,3.465,0,0,1-.641-.508l0-.094-.078-.052-.027-.148C222.589,260.705,222.631,259.282,222.6,257.86Z" transform="translate(-201.17 -233.978)" fill="#ffbd86"/>
          </g>
          <g id="_f6a96cff" data-name="#f6a96cff" transform="translate(49.632 19.825)">
            <path id="Path_188259" data-name="Path 188259" d="M317.833,127.53a1.02,1.02,0,0,1,1.116-.642,4.884,4.884,0,0,1,2.848.434,3.325,3.325,0,0,1,1.2,1.655c0,.536.017,1.07.055,1.6-.009.044-.027.13-.036.173-.2.677.016,1.4-.161,2.08a2.589,2.589,0,0,1-2.33,1.853c-.9.023-1.808.011-2.712,0a9.875,9.875,0,0,1-.092,1.425c.119-1-.122-1.981-.07-2.978a15.664,15.664,0,0,1,.077-2.3C317.93,129.749,317.7,128.629,317.833,127.53Z" transform="translate(-317.643 -126.878)" fill="#f6a96c"/>
          </g>
          <g id="_ea9b58ff" data-name="#ea9b58ff" transform="translate(34.758 36.192)">
            <path id="Path_188260" data-name="Path 188260" d="M222.45,231.63a10.428,10.428,0,0,0,3.267,1.341,9.57,9.57,0,0,0,7.209-1.291c-.006,1.353.028,2.706-.017,4.058-.759.186-1.48.5-2.242.666a13.5,13.5,0,0,1-6.116-.037c-.709-.158-1.378-.452-2.08-.638C222.424,234.363,222.467,233,222.45,231.63Z" transform="translate(-222.448 -231.63)" fill="#ea9b58"/>
          </g>
          <g id="_62a4fbff" data-name="#62a4fbff" transform="translate(0 41.478)" opacity="0.9">
            <path id="Path_188261" data-name="Path 188261" d="M5.616,267.818c2.572-.808,5.164-1.55,7.736-2.358a3.339,3.339,0,0,0,6.678.006c1.794.527,3.578,1.087,5.372,1.611-1.6.616-3.358.745-4.952,1.4a13.486,13.486,0,0,0-4.092,2.494c-.491.5-1,.98-1.478,1.486a13.627,13.627,0,0,0-3.163,8.717c.016,1.959-.02,3.919.011,5.88-.881-.036-1.766-.034-2.647,0-.027-1.755.016-3.508-.02-5.261a1.19,1.19,0,0,0-1.753-.981,1.351,1.351,0,0,0-.575.981c-.023,1.752.022,3.506-.016,5.259-1.752-.052-3.506.008-5.258-.03A1.6,1.6,0,0,1,0,285.66V275.423A8.386,8.386,0,0,1,5.616,267.818Z" transform="translate(0 -265.46)" fill="#8fd937"/>
            <path id="Path_188262" data-name="Path 188262" d="M359.861,268.36a3.356,3.356,0,0,0,1.652-2.88c2.6.794,5.219,1.555,7.814,2.377a8.4,8.4,0,0,1,5.539,7.592v10.1a1.575,1.575,0,0,1-1.427,1.492c-1.766.045-3.536-.022-5.3.034-.009-1.7,0-3.4,0-5.106a1.176,1.176,0,1,0-2.344,0c.011,1.7-.006,3.4,0,5.1-.88-.034-1.763-.034-2.641,0q-.007-3.023,0-6.044a13.838,13.838,0,0,0-3.1-8.466c-.633-.666-1.27-1.334-1.955-1.948a15.681,15.681,0,0,0-6.57-2.956,13.833,13.833,0,0,1-2.058-.553c1.792-.53,3.578-1.075,5.366-1.62a3.338,3.338,0,0,0,5.025,2.877Z" transform="translate(-294.865 -265.477)" fill="#8fd937"/>
          </g>
          <g id="_b2e5fbff" data-name="#b2e5fbff" transform="translate(21.027 41.361)">
            <path id="Path_188263" data-name="Path 188263" d="M192.912,265.2a2.37,2.37,0,0,1,.564-.441c.042,1.05-.064,2.108.055,3.152l.027.148.012.088.069.058a3.471,3.471,0,0,0,.641.508c1.358.834,2.7,1.694,4.059,2.528a.724.724,0,0,0,.85-.048c1.264-.778,2.516-1.575,3.778-2.355a4.176,4.176,0,0,0,.833-.634l.069-.058.011-.087.025-.145c.131-1.061-.009-2.136.077-3.2,1.453,1.3,2.887,2.622,4.33,3.934.337.3.663.614,1.017.9-1.084,2.2-2.156,4.42-3.256,6.619a1.3,1.3,0,0,1-1.769.662,18.747,18.747,0,0,1-1.753-1.591c-1.281-1.227-2.544-2.475-3.827-3.7-1.288,1.225-2.55,2.475-3.833,3.7-.572.492-1.05,1.094-1.666,1.533a1.273,1.273,0,0,1-1.8-.5c-1.137-2.222-2.2-4.484-3.316-6.717.353-.283.68-.6,1.016-.9C190.385,267.493,191.654,266.352,192.912,265.2Z" transform="translate(-179.745 -264.71)" fill="#b2e5fb"/>
            <path id="Path_188264" data-name="Path 188264" d="M134.6,407.548a1.169,1.169,0,0,1,1.6-1.275,6.18,6.18,0,0,1,1.484,1.369,1.959,1.959,0,0,1,.288,1.316c-.011,1.553.012,3.106-.027,4.659-.781.025-1.562.027-2.344,0,.034-1.452.022-2.9.022-4.356C135.649,408.516,134.664,408.28,134.6,407.548Z" transform="translate(-134.572 -384.066)" fill="#b2e5fb"/>
            <path id="Path_188265" data-name="Path 188265" d="M356.585,407.042c.377-.353.773-.828,1.341-.806a1.163,1.163,0,0,1,1.092,1.508c-.159.634-1.027.878-.984,1.584-.006,1.447-.027,2.9.011,4.345q-1.169.04-2.339,0c-.036-1.709-.017-3.42-.019-5.13C355.627,407.892,356.191,407.47,356.585,407.042Z" transform="translate(-321.134 -384.122)" fill="#b2e5fb"/>
          </g>
          <g id="_5392f9ff" data-name="#5392f9ff" transform="translate(6.717 43.095)">
            <path id="Path_188266" data-name="Path 188266" d="M88.662,275.81a12.009,12.009,0,0,1,5.006,2.2c-.336.3-.662.619-1.016.9-1.434.381-2.881.712-4.319,1.077a18.721,18.721,0,0,0-4.055,1.237,9.765,9.765,0,0,0-5.17,6.617,12.141,12.141,0,0,0-.239,3q0,2.48,0,4.962c-1.294-.012-2.589.023-3.881-.019-.031-1.961,0-3.92-.011-5.88a13.627,13.627,0,0,1,3.162-8.717c.481-.506.988-.989,1.478-1.486a13.487,13.487,0,0,1,4.092-2.494C85.3,276.555,87.059,276.426,88.662,275.81Z" transform="translate(-69.977 -275.81)" fill="#78b62e"/>
            <path id="Path_188267" data-name="Path 188267" d="M317.39,278.061a11.985,11.985,0,0,1,5.012-2.191,13.831,13.831,0,0,0,2.058.553,15.681,15.681,0,0,1,6.57,2.956c.684.614,1.322,1.283,1.955,1.948a13.838,13.838,0,0,1,3.1,8.466q-.009,3.021,0,6.044c-1.294.045-2.589.006-3.884.02-.009-2.017.019-4.034-.014-6.052a9.731,9.731,0,0,0-5.277-8.5,19.732,19.732,0,0,0-4.584-1.394c-1.311-.3-2.62-.617-3.92-.961C318.053,278.675,317.728,278.361,317.39,278.061Z" transform="translate(-274.515 -275.861)" fill="#78b62e"/>
            <path id="Path_188268" data-name="Path 188268" d="M43.581,362.923a1.19,1.19,0,0,1,1.753.981c.036,1.753-.006,3.506.02,5.261-.787.033-1.578.033-2.364,0,.038-1.753-.008-3.508.016-5.259A1.351,1.351,0,0,1,43.581,362.923Z" transform="translate(-42.99 -349.189)" fill="#78b62e"/>
            <path id="Path_188269" data-name="Path 188269" d="M453.9,364.088a1.176,1.176,0,1,1,2.344,0c0,1.7-.009,3.4,0,5.106q-1.172.049-2.342,0C453.889,367.489,453.906,365.788,453.9,364.088Z" transform="translate(-389.684 -349.213)" fill="#78b62e"/>
          </g>
          <g id="_ba9677c4" data-name="#ba9677c4" transform="translate(34.839 44.708)">
            <path id="Path_188270" data-name="Path 188270" d="M222.97,286.13l.078.052,0,.094-.069-.058Z" transform="translate(-222.97 -286.13)" fill="#ba9677" opacity="0.77"/>
          </g>
          <g id="_b99577c4" data-name="#b99577c4" transform="translate(45.081 44.706)">
            <path id="Path_188271" data-name="Path 188271" d="M288.522,286.172l.078-.052-.011.087-.069.058Z" transform="translate(-288.52 -286.12)" fill="#b99577" opacity="0.77"/>
          </g>
          <g id="_e6f7feff" data-name="#e6f7feff" transform="translate(15.608 46.191)">
            <path id="Path_188272" data-name="Path 188272" d="M109.357,296.747c1.438-.364,2.884-.7,4.319-1.077,1.114,2.233,2.178,4.5,3.316,6.717a1.273,1.273,0,0,0,1.8.5c.616-.439,1.094-1.041,1.666-1.533.633,1.548,1.333,3.07,1.942,4.628q.33-.012.661-.028a11.958,11.958,0,0,0-7.808,4.178,11.809,11.809,0,0,0-2.441,10.236c-1.375,0-2.75-.022-4.125.014.039-1.553.016-3.106.027-4.659a1.959,1.959,0,0,0-.287-1.316,6.178,6.178,0,0,0-1.484-1.369,1.169,1.169,0,0,0-1.6,1.275c.064.731,1.048.967,1.025,1.711,0,1.452.012,2.9-.022,4.356-1.663-.044-3.325.011-4.986-.027A1.557,1.557,0,0,1,99.9,318.84c-.019-2.092,0-4.184-.008-6.277q0-2.482,0-4.962a12.14,12.14,0,0,1,.239-3,9.765,9.765,0,0,1,5.17-6.617A18.719,18.719,0,0,1,109.357,296.747Z" transform="translate(-99.892 -295.662)" fill="#e6f7fe"/>
            <path id="Path_188273" data-name="Path 188273" d="M269.926,302.239c1.1-2.2,2.172-4.414,3.256-6.619,1.3.344,2.609.656,3.92.961a7.58,7.58,0,0,0,.891.7,9.836,9.836,0,0,1,3.8,5.575,24.208,24.208,0,0,1,.3,5.475c-.011,4,.011,8-.014,12.006q-.788-.038-1.575,0c-.037-1.448-.017-2.9-.011-4.345-.042-.706.825-.95.984-1.584a1.163,1.163,0,0,0-1.092-1.508c-.567-.022-.964.453-1.341.806-.394.428-.958.85-.9,1.5,0,1.709-.017,3.42.019,5.13-1.369-.037-2.737-.009-4.106-.014a11.839,11.839,0,0,0-1.227-8.492,12.348,12.348,0,0,0-3.123-3.6,12.676,12.676,0,0,0-5.925-2.327c.222.013.444.022.666.033.614-1.561,1.311-3.086,1.948-4.636a18.741,18.741,0,0,0,1.753,1.591A1.3,1.3,0,0,0,269.926,302.239Z" transform="translate(-238.181 -295.62)" fill="#e6f7fe"/>
          </g>
          <g id="_d3effdff" data-name="#d3effdff" transform="translate(54.53 47.152)">
            <path id="Path_188274" data-name="Path 188274" d="M348.99,301.77a19.734,19.734,0,0,1,4.584,1.394,9.731,9.731,0,0,1,5.277,8.5c.033,2.017,0,4.034.014,6.052-.008,2.091.014,4.183-.009,6.273a1.576,1.576,0,0,1-1.577,1.559c-1.1,0-2.2.019-3.306-.014.025-4,0-8,.014-12.006a24.2,24.2,0,0,0-.3-5.475,9.835,9.835,0,0,0-3.8-5.575A7.588,7.588,0,0,1,348.99,301.77Z" transform="translate(-348.99 -301.77)" fill="#d3effd"/>
          </g>
          <g id="_de5791ff" data-name="#de5791ff" transform="translate(36.172 48.18)">
            <path id="Path_188275" data-name="Path 188275" d="M231.5,312.055c1.283-1.23,2.545-2.48,3.833-3.7,1.283,1.227,2.545,2.475,3.827,3.7-.638,1.55-1.334,3.075-1.948,4.636-.222-.011-.444-.02-.666-.033a14.164,14.164,0,0,0-2.442,0q-.33.016-.661.028C232.833,315.125,232.133,313.6,231.5,312.055Z" transform="translate(-231.5 -308.35)" fill="#de5791"/>
          </g>
          <g id="_f7e365ff" data-name="#f7e365ff" transform="translate(28.22 56.432)">
            <path id="Path_188276" data-name="Path 188276" d="M191.162,361.215a14.177,14.177,0,0,1,2.442,0,12.676,12.676,0,0,1,5.925,2.327c-.223.272.15.572.244.833A11.77,11.77,0,0,1,184,380.45a6.953,6.953,0,0,0-1.167-.583,12.358,12.358,0,0,1-1.919-4.238,11.809,11.809,0,0,1,2.441-10.236,11.959,11.959,0,0,1,7.808-4.178m.817,5a1.226,1.226,0,0,0-.677.548c-.416.678-.8,1.373-1.222,2.052a1.368,1.368,0,0,1-.786.652c-.88.245-1.791.369-2.666.63a1.262,1.262,0,0,0-.578,1.913c.544.65,1.123,1.272,1.675,1.917a1.284,1.284,0,0,1,.344.953c-.053.889-.167,1.773-.227,2.662a1.258,1.258,0,0,0,1.548,1.2c.906-.3,1.748-.762,2.644-1.091a1.933,1.933,0,0,1,1.392.275c.658.272,1.3.6,1.975.819a1.253,1.253,0,0,0,1.523-1.184c-.052-.9-.173-1.784-.223-2.68a1.3,1.3,0,0,1,.344-.948c.555-.644,1.134-1.266,1.675-1.92a1.268,1.268,0,0,0-.573-1.913c-.844-.248-1.712-.392-2.567-.6a1.372,1.372,0,0,1-.881-.672c-.444-.709-.837-1.448-1.289-2.15A1.25,1.25,0,0,0,191.979,366.215Z" transform="translate(-180.607 -361.162)" fill="#f7e365"/>
          </g>
          <g id="_f3d332ff" data-name="#f3d332ff" transform="translate(30.445 58.811)">
            <path id="Path_188277" data-name="Path 188277" d="M211.791,377.223c-.094-.261-.467-.561-.244-.833a12.349,12.349,0,0,1,3.123,3.6,11.8,11.8,0,0,1-3.484,15.477,12.438,12.438,0,0,1-5.6,2.117h-2.336a11.985,11.985,0,0,1-8.4-4.864,6.955,6.955,0,0,1,1.167.583,11.763,11.763,0,0,0,15.773-16.075Z" transform="translate(-194.85 -376.39)" fill="#f3d332"/>
          </g>
        </g>
        <g id="_000000ff" data-name="#000000ff" transform="translate(4727 -12336)">
          <path id="Path_188245" data-name="Path 188245" d="M39.431,0H40.7A15.749,15.749,0,0,1,55.62,14.223c.128,1.53.055,3.067.07,4.6a9.429,9.429,0,0,1,5.537-3,9.285,9.285,0,0,1,10.653,8.709c.042,1.145.006,2.292.017,3.438a17.64,17.64,0,0,1-.291,4.417,9.412,9.412,0,0,1-4.569,5.883q0,1.151,0,2.3c1.981.58,3.953,1.192,5.931,1.786a9.912,9.912,0,0,1,3.442,1.681A9.284,9.284,0,0,1,80,51.142V53.4a1.31,1.31,0,0,1-.8.916,1.156,1.156,0,0,1-1.506-.855c-.111-.891.012-1.791-.075-2.684a6.881,6.881,0,0,0-4.664-5.955c-2.045-.647-4.108-1.244-6.159-1.869a4.8,4.8,0,0,1-1.889,2.261,4.413,4.413,0,0,1-4.812-.156,4.857,4.857,0,0,1-1.645-2.106c-2.3.727-4.644,1.33-6.914,2.153,1.145.328,2.311.583,3.467.875a18.7,18.7,0,0,1,3.787,1.164,10.621,10.621,0,0,1,5.53,6.308c.83,2.5.427,5.177.525,7.763q2.566,0,5.131,0,0-1.7,0-3.4a1.77,1.77,0,0,1,.317-1.278,1.181,1.181,0,0,1,1.739.022,1.814,1.814,0,0,1,.3,1.261q-.012,1.7,0,3.394,2.662,0,5.328,0c.019-.88-.037-1.759.022-2.637a1.156,1.156,0,0,1,1.541-1,1.313,1.313,0,0,1,.783.9v4.111a1.249,1.249,0,0,1-1.237.961c-4.638.017-9.277,0-13.916.008-.013,2.153.023,4.309-.014,6.464A1.154,1.154,0,0,1,63.6,71.152c-3.852.011-7.7,0-11.556,0a12.9,12.9,0,0,1-4.363,6.222A12.668,12.668,0,0,1,40.264,80h-.8a12.725,12.725,0,0,1-11.508-8.845c-3.745.008-7.489-.006-11.233.008a1.556,1.556,0,0,1-1.259-.38,1.731,1.731,0,0,1-.319-1.248c.011-1.994,0-3.987.006-5.983-4.639,0-9.278.011-13.917-.006A1.259,1.259,0,0,1,0,62.609V58.492a1.344,1.344,0,0,1,.723-.881,1.163,1.163,0,0,1,1.584.855c.091.911.012,1.83.037,2.744,1.777,0,3.553,0,5.33,0,.014-1.288-.022-2.577.008-3.864a1.159,1.159,0,0,1,2.309-.166c.072,1.341,0,2.687.028,4.031q2.564,0,5.131,0c.011-1.6-.016-3.2.014-4.8a10.608,10.608,0,0,1,7.9-9.955c1.8-.466,3.609-.877,5.4-1.348-2.266-.844-4.617-1.43-6.919-2.163a4.791,4.791,0,0,1-1.923,2.286,4.415,4.415,0,0,1-4.9-.267A4.91,4.91,0,0,1,13.2,42.948c-1.823.544-3.642,1.1-5.466,1.647a8,8,0,0,0-2.291,1,6.872,6.872,0,0,0-3.069,5.177c-.084.889.031,1.784-.066,2.67a1.16,1.16,0,0,1-1.5.9A1.434,1.434,0,0,1,0,53.5V51a9.281,9.281,0,0,1,4.5-7.578,15.963,15.963,0,0,1,3.844-1.45c1.536-.469,3.077-.925,4.614-1.4q0-1.148,0-2.3A9.354,9.354,0,0,1,8.125,30.62c-.05-1.923-.017-3.848-.02-5.772a9.288,9.288,0,0,1,11.036-8.962,9.476,9.476,0,0,1,5.169,2.938,33.1,33.1,0,0,1,.269-6.031A15.742,15.742,0,0,1,39.431,0m-6.95,4.67A13.407,13.407,0,0,0,27.1,12.247c-.67,2.358-.391,4.827-.458,7.242a14.225,14.225,0,0,1,3.831-.225,1.256,1.256,0,0,1,1.266,1.217,5.029,5.029,0,0,1,2.823-1.2c1.662-.086,3.336.084,5-.106A6.435,6.435,0,0,0,43.784,16.6c.8-1.128,1.583-2.269,2.377-3.4a1.257,1.257,0,0,1,1.189-.659,1.167,1.167,0,0,1,.931,1.678c-.5.847-1.1,1.622-1.622,2.456a4.764,4.764,0,0,0,1.458,1.783,5.944,5.944,0,0,0,1.572.777c1.219.123,2.478-.145,3.666.258-.067-2.234.18-4.5-.327-6.7A13.341,13.341,0,0,0,32.481,4.67M15.864,18.23A6.955,6.955,0,0,0,10.458,24.7c-.02,1.92-.027,3.844,0,5.764a6.944,6.944,0,0,0,5.069,6.316,6.845,6.845,0,0,0,5.906-1.1A7.115,7.115,0,0,0,24.3,30c0-1.723.012-3.448,0-5.17a6.931,6.931,0,0,0-8.431-6.6m45.3-.009a6.961,6.961,0,0,0-5.4,5.844c-.134,1.3-.038,2.6-.067,3.9a18.3,18.3,0,0,0,.161,3.5,7.1,7.1,0,0,0,3.764,4.856,6.869,6.869,0,0,0,5.531.228,6.951,6.951,0,0,0,4.2-4.822,13.974,13.974,0,0,0,.2-3.281c-.009-1.25.02-2.5-.014-3.75a6.927,6.927,0,0,0-8.377-6.477m-19.9,2.958c-1.967.656-4.067.359-6.1.423a2.613,2.613,0,0,0-2.236,1.055c-.364.514-.683,1.056-1.027,1.583-.3.4-.175.923-.2,1.387a20.176,20.176,0,0,0,.288,4.825,8.291,8.291,0,0,0,16.3-1.864c.03-2.453,0-4.906.013-7.361a7.1,7.1,0,0,1-3.169-2.534,9.059,9.059,0,0,1-3.87,2.486m-14.23.837c-.566.589-.333,1.472-.38,2.2.047.73-.184,1.611.383,2.2.6.627,1.552.366,2.325.417q0-2.613,0-5.228c-.773.053-1.719-.219-2.327.411M50.644,21.6q0,2.613,0,5.228c.773-.052,1.72.211,2.323-.417.567-.581.339-1.459.384-2.187-.047-.734.184-1.617-.378-2.208-.6-.634-1.555-.362-2.328-.416m-24,7.337a12.445,12.445,0,0,1-.225,3.084,9.537,9.537,0,0,1-4.628,6.211c0,.778,0,1.555,0,2.333,2.114.636,4.23,1.27,6.341,1.917A9.99,9.99,0,0,1,30.6,43.634c1.059-.956,2.108-1.923,3.173-2.875.006-1.194.014-2.389,0-3.584.042-.272-.25-.4-.408-.555a10.661,10.661,0,0,1-3.977-7.444,8.5,8.5,0,0,1-2.747-.234m23.967.234a10.669,10.669,0,0,1-3.973,7.441c-.164.161-.45.284-.409.561q-.016,1.652,0,3.3c-.047.272.186.431.355.6.945.845,1.878,1.7,2.817,2.558a10.074,10.074,0,0,1,2.331-1.1c2.159-.663,4.327-1.3,6.484-1.964,0-.778,0-1.556,0-2.333A9.659,9.659,0,0,1,55,35.3a9.98,9.98,0,0,1-1.647-6.361,8.554,8.554,0,0,1-2.748.234M36.122,38.23c.006,1.891-.011,3.783,0,5.673-.036.22.208.3.344.408,1.18.727,2.355,1.464,3.53,2.2,1.294-.814,2.6-1.609,3.886-2.439-.016-1.945,0-3.891-.006-5.836a10.815,10.815,0,0,1-7.758,0M15.3,39.148c.012.808-.027,1.619.017,2.427a2.056,2.056,0,0,0,4.064.3,26.98,26.98,0,0,0,.058-2.731,9.8,9.8,0,0,1-4.139.006m45.252,0c.117,1.242-.366,2.748.606,3.75A2.077,2.077,0,0,0,64.5,42.3a11.007,11.007,0,0,0,.2-3.152,9.83,9.83,0,0,1-4.139,0m-29.4,7.169c.956,1.917,1.88,3.85,2.825,5.772,1.408-1.3,2.75-2.664,4.13-3.991q-1.76-1.109-3.528-2.2a1.508,1.508,0,0,1-.742-.8,5.8,5.8,0,0,1-.072-1.175c-.867.8-1.758,1.578-2.612,2.392M46.233,43.92a6.123,6.123,0,0,1-.073,1.172,1.688,1.688,0,0,1-.844.866c-1.147.706-2.286,1.423-3.427,2.136,1.383,1.323,2.72,2.7,4.133,3.988.852-1.736,1.688-3.481,2.548-5.213a2.234,2.234,0,0,0,.228-.594c-.831-.809-1.717-1.562-2.566-2.355M23.6,48.741a8.29,8.29,0,0,0-5.348,4.542,8.472,8.472,0,0,0-.752,3.589V68.812H22.57c0-1.127,0-2.253,0-3.378a3.723,3.723,0,0,1-.984-1.211,1.177,1.177,0,0,1,1.072-1.475c.609-.055,1.009.47,1.4.847.341.369.823.711.834,1.262.042,1.317,0,2.637.017,3.956.85,0,1.7,0,2.552,0a12.653,12.653,0,0,1,9.117-13.555c-.234-.558-.473-1.116-.7-1.675a2.777,2.777,0,0,1-2.153.781,2.46,2.46,0,0,1-1.956-1.45q-1.348-2.766-2.7-5.531c-1.827.456-3.659.888-5.483,1.356m24.575,4.273a2.43,2.43,0,0,1-2.408,1.356,2.935,2.935,0,0,1-1.647-.787c-.23.559-.469,1.114-.7,1.675A10.682,10.682,0,0,1,45.9,56.28a1.168,1.168,0,0,1-.061,1.9,1.273,1.273,0,0,1-1.347-.013,10.257,10.257,0,1,0-3.7,19.456,10.252,10.252,0,0,0,7.766-15.87,1.671,1.671,0,0,1-.413-1.142,1.178,1.178,0,0,1,1.469-.987c.534.136.789.67,1.07,1.091a12.714,12.714,0,0,1,1.844,8.1q1.275,0,2.552,0c.019-1.32-.025-2.641.017-3.958.009-.553.5-.894.836-1.262.394-.377.794-.9,1.4-.845a1.178,1.178,0,0,1,1.037,1.57,4.7,4.7,0,0,1-.955,1.122c.011,1.123,0,2.247.006,3.372H62.5V56.881a8.448,8.448,0,0,0-1.07-4.222A8.284,8.284,0,0,0,56.275,48.7c-1.783-.448-3.57-.88-5.355-1.319C50,49.261,49.1,51.142,48.172,53.014m-10.506-1.22c.419,1,.847,2,1.275,3q1.059,0,2.119,0c.427-1,.861-2,1.273-3C41.55,51.042,40.78,50.283,40,49.53,39.222,50.283,38.45,51.045,37.666,51.794Z"/>
          <path id="Path_188246" data-name="Path 188246" d="M213.351,382.45a2.4,2.4,0,0,1,3.689,0c.547.764.964,1.611,1.472,2.4.93.214,1.88.363,2.784.669a2.4,2.4,0,0,1,1.083,3.47c-.556.759-1.234,1.422-1.836,2.145.064.947.23,1.889.223,2.839a2.4,2.4,0,0,1-3.014,2.119c-.873-.3-1.7-.727-2.558-1.073-.856.35-1.686.772-2.564,1.072a2.4,2.4,0,0,1-2.961-1.755,17.2,17.2,0,0,1,.173-3.2c-.6-.727-1.283-1.386-1.838-2.148a2.4,2.4,0,0,1,1.083-3.467c.906-.308,1.863-.433,2.789-.67.508-.791.923-1.641,1.473-2.4m-.189,4.358a14.672,14.672,0,0,1-3.178.872c.661,1.055,1.889,1.769,2.159,3.042a23.528,23.528,0,0,1-.2,3.141,18.1,18.1,0,0,1,3.1-1.17c1.225,0,2.259.789,3.388,1.172a19.556,19.556,0,0,1-.178-3.236c.339-1.206,1.461-1.944,2.169-2.925-1.169-.414-2.58-.3-3.548-1.169a27.928,27.928,0,0,1-1.689-2.633C214.492,384.85,214.135,386.087,213.162,386.808Z" transform="translate(-175.193 -321.962)"/>
        </g>
      </g>
    </g>
  </g>
</svg>
