<svg xmlns="http://www.w3.org/2000/svg" width="1030" height="430" viewBox="0 0 1030 430">
  <g id="t4-info2" transform="translate(-285 -5255)">
    <rect id="Rectangle_36708" data-name="Rectangle 36708" width="1030" height="430" transform="translate(285 5255)" fill="none"/>
    <g id="Group_107847" data-name="Group 107847" transform="translate(7 12)">
      <path id="Path_188586" data-name="Path 188586" d="M64.474,50.719H263.525A12.474,12.474,0,0,0,276,38.245V12.475A12.475,12.475,0,0,0,263.525,0H64.474A12.474,12.474,0,0,0,52,12.475v25.77A12.474,12.474,0,0,0,64.474,50.719" transform="translate(298 5269)" fill="#87cc34"/>
      <path id="Path_188587" data-name="Path 188587" d="M350.672,322.641a3.453,3.453,0,0,1-1.15-.2,140.74,140.74,0,0,1,0-265.408,3.46,3.46,0,0,1,2.3,6.527,133.819,133.819,0,0,0,0,252.355,3.461,3.461,0,0,1-1.15,6.724" transform="translate(298 5269)" fill="#ccc"/>
      <path id="Path_188588" data-name="Path 188588" d="M311.614,73.544a8.755,8.755,0,0,0-6.763,1.709L287.385,57a.977.977,0,0,0-1.411,1.351l17.468,18.255a8.785,8.785,0,1,0,8.172-3.063" transform="translate(298 5269)" fill="#87cc34"/>
      <path id="Path_188589" data-name="Path 188589" d="M265.141,184.369a8.782,8.782,0,0,0-15.7,4.516l-25.261.289a.977.977,0,0,0,.023,1.954l25.264-.289a8.788,8.788,0,1,0,15.676-6.47" transform="translate(298 5269)" fill="#ffb500"/>
      <path id="Path_188590" data-name="Path 188590" d="M64.474,377.719H263.525A12.474,12.474,0,0,0,276,365.245v-25.77A12.475,12.475,0,0,0,263.525,327H64.474A12.474,12.474,0,0,0,52,339.475v25.77a12.474,12.474,0,0,0,12.474,12.474" transform="translate(298 5269)" fill="#87cc34"/>
      <path id="Path_188591" data-name="Path 188591" d="M-7.526,214.719H191.525A12.474,12.474,0,0,0,204,202.245v-25.77A12.475,12.475,0,0,0,191.525,164H-7.526A12.474,12.474,0,0,0-20,176.475v25.77A12.474,12.474,0,0,0-7.526,214.719" transform="translate(298 5269)" fill="#ffb500"/>
      <path id="Path_188592" data-name="Path 188592" d="M311.614,306.268a8.755,8.755,0,0,1-6.763-1.709l-17.466,18.252a.977.977,0,1,1-1.411-1.351L303.442,303.2a8.785,8.785,0,1,1,8.172,3.063" transform="translate(298 5269)" fill="#87cc34"/>
      <text id="Tiempo_de_labores" data-name="Tiempo de labores" transform="translate(387 5300)" fill="#12263f" font-size="18" font-family="Roboto-Black, Roboto" font-weight="800"><tspan x="0" y="0">Tiempo de labores</tspan></text>
      <text id="Condiciones_climáticas" data-name="Condiciones climáticas" transform="translate(296 5464)" fill="#12263f" font-size="18" font-family="Roboto-Black, Roboto" font-weight="800"><tspan x="0" y="0">Condiciones climáticas</tspan></text>
      <text id="Ciclos_productivos" data-name="Ciclos productivos" transform="translate(387 5627)" fill="#12263f" font-size="18" font-family="Roboto-Black, Roboto" font-weight="800"><tspan x="0" y="0">Ciclos productivos</tspan></text>
    </g>
    <g id="Group_107848" data-name="Group 107848" transform="translate(941 5281)">
      <path id="Path_188586-2" data-name="Path 188586" d="M64.474,50.719H263.525A12.474,12.474,0,0,0,276,38.245V12.475A12.475,12.475,0,0,0,263.525,0H64.474A12.474,12.474,0,0,0,52,12.475v25.77A12.474,12.474,0,0,0,64.474,50.719" transform="translate(26)" fill="#87cc34"/>
      <path id="Path_188587-2" data-name="Path 188587" d="M259.081,322.641a3.453,3.453,0,0,0,1.15-.2,140.74,140.74,0,0,0,0-265.408,3.46,3.46,0,0,0-2.3,6.527,133.819,133.819,0,0,1,0,252.355,3.461,3.461,0,0,0,1.15,6.724" transform="translate(-255.62)" fill="#ccc"/>
      <path id="Path_188588-2" data-name="Path 188588" d="M293.079,73.544a8.755,8.755,0,0,1,6.763,1.709L317.308,57a.977.977,0,0,1,1.411,1.351L301.251,76.607a8.785,8.785,0,1,1-8.172-3.063" transform="translate(-250.561)" fill="#87cc34"/>
      <path id="Path_188589-2" data-name="Path 188589" d="M225.044,184.369a8.782,8.782,0,0,1,15.7,4.516l25.261.289a.977.977,0,0,1-.023,1.954l-25.264-.289a8.788,8.788,0,1,1-15.676-6.47" transform="translate(-136.052)" fill="#ffb500"/>
      <path id="Path_188590-2" data-name="Path 188590" d="M64.474,377.719H263.525A12.474,12.474,0,0,0,276,365.245v-25.77A12.475,12.475,0,0,0,263.525,327H64.474A12.474,12.474,0,0,0,52,339.475v25.77a12.474,12.474,0,0,0,12.474,12.474" transform="translate(26)" fill="#87cc34"/>
      <path id="Path_188591-2" data-name="Path 188591" d="M-7.526,214.719H191.525A12.474,12.474,0,0,0,204,202.245v-25.77A12.475,12.475,0,0,0,191.525,164H-7.526A12.474,12.474,0,0,0-20,176.475v25.77A12.474,12.474,0,0,0-7.526,214.719" transform="translate(170)" fill="#ffb500"/>
      <path id="Path_188592-2" data-name="Path 188592" d="M293.079,306.268a8.755,8.755,0,0,0,6.763-1.709l17.466,18.252a.977.977,0,0,0,1.411-1.351L301.251,303.2a8.785,8.785,0,1,0-8.172,3.063" transform="translate(-250.561)" fill="#87cc34"/>
      <text id="Festividades" transform="translate(139 31)" fill="#12263f" font-size="18" font-family="Roboto-Black, Roboto" font-weight="800"><tspan x="0" y="0">Festividades</tspan></text>
      <text id="Transporte" transform="translate(217 195)" fill="#12263f" font-size="18" font-family="Roboto-Black, Roboto" font-weight="800"><tspan x="0" y="0">Transporte</tspan></text>
      <text id="Desplazamiento" transform="translate(125 358)" fill="#12263f" font-size="18" font-family="Roboto-Black, Roboto" font-weight="800"><tspan x="0" y="0">Desplazamiento</tspan></text>
    </g>
    <g id="Calendar-pana" transform="translate(516.563 5271)">
      <g id="freepik--background-complete--inject-36" transform="translate(58.13 61.32)">
        <circle id="Ellipse_5070" data-name="Ellipse 5070" cx="28.743" cy="28.743" r="28.743" transform="translate(296.421 57.045) rotate(-76.74)" fill="#e0e0e0"/>
        <path id="Path_188366" data-name="Path 188366" d="M534.46,105.723a5.835,5.835,0,0,1-1.014.071l-2.8.05c-2.364,0-5.672.057-9.4.064h-.186v-2.05c0-4.164,0-7.936.057-10.657,0-1.321.043-2.407.057-3.236a7.869,7.869,0,0,1,.071-1.186,6.826,6.826,0,0,1,.071,1.186c0,.829.036,1.914.064,3.236,0,2.721.05,6.493.05,10.657v1.864l-.186-.186c3.729,0,7.036,0,9.4.064l2.8.057a6.465,6.465,0,0,1,1.014.064Z" transform="translate(-190.392 -69.166)" fill="#fafafa"/>
        <path id="Path_188367" data-name="Path 188367" d="M521.357,77.63a7.693,7.693,0,0,1,.193,2.414,7.693,7.693,0,0,1-.193,2.414,8.094,8.094,0,0,1-.186-2.414A8.094,8.094,0,0,1,521.357,77.63Z" transform="translate(-190.418 -65.98)" fill="#fafafa"/>
        <path id="Path_188368" data-name="Path 188368" d="M538.434,83.06a7.857,7.857,0,0,1-1.55,1.814,7.86,7.86,0,0,1-1.814,1.55,15.239,15.239,0,0,1,3.364-3.364Z" transform="translate(-194.395 -67.531)" fill="#fafafa"/>
        <path id="Path_188369" data-name="Path 188369" d="M548.874,94.77a9.9,9.9,0,0,1-1.979,1.321,10,10,0,0,1-2.086,1.15,10.714,10.714,0,0,1,4.064-2.471Z" transform="translate(-197.178 -70.877)" fill="#fafafa"/>
        <path id="Path_188370" data-name="Path 188370" d="M554.156,112.076a29.288,29.288,0,0,1-6.586,0,29.285,29.285,0,0,1,6.586,0Z" transform="translate(-197.966 -75.768)" fill="#fafafa"/>
        <path id="Path_188371" data-name="Path 188371" d="M490.374,111.466a26.086,26.086,0,0,1-6.214,0,26.087,26.087,0,0,1,6.214,0Z" transform="translate(-179.85 -75.594)" fill="#fafafa"/>
        <path id="Path_188372" data-name="Path 188372" d="M495.416,124.48a13.821,13.821,0,0,1-2.35,2.143,13.516,13.516,0,0,1-2.586,1.843,13.486,13.486,0,0,1,2.35-2.143,13.165,13.165,0,0,1,2.586-1.843Z" transform="translate(-181.655 -79.365)" fill="#fafafa"/>
        <path id="Path_188373" data-name="Path 188373" d="M507.22,134.48a20.564,20.564,0,0,1-1.6,2.771,19.468,19.468,0,0,1-1.7,2.714,10.713,10.713,0,0,1,1.379-2.9,10.514,10.514,0,0,1,1.921-2.586Z" transform="translate(-185.495 -82.222)" fill="#fafafa"/>
        <path id="Path_188374" data-name="Path 188374" d="M521.357,144.756a14.919,14.919,0,0,1-.186-3.293,14.918,14.918,0,0,1,.186-3.293,14.165,14.165,0,0,1,.193,3.293,14.162,14.162,0,0,1-.193,3.293Z" transform="translate(-190.418 -83.277)" fill="#fafafa"/>
        <path id="Path_188375" data-name="Path 188375" d="M539.341,139.533a9.807,9.807,0,0,1-2.714-1.864,9.523,9.523,0,0,1-2.207-2.429,29.951,29.951,0,0,1,2.457,2.143A28.627,28.627,0,0,1,539.341,139.533Z" transform="translate(-194.209 -82.439)" fill="#fafafa"/>
        <path id="Path_188376" data-name="Path 188376" d="M549.014,129.57a24.715,24.715,0,0,1-4.064-4.1,11.664,11.664,0,0,1,2.186,1.914,11.427,11.427,0,0,1,1.879,2.186Z" transform="translate(-197.218 -79.648)" fill="#fafafa"/>
        <path id="Path_188377" data-name="Path 188377" d="M495.566,97.706a8.843,8.843,0,0,1-1.921-1.657,8.885,8.885,0,0,1-1.664-1.929,17.293,17.293,0,0,1,3.586,3.586Z" transform="translate(-182.084 -70.691)" fill="#fafafa"/>
        <path id="Path_188378" data-name="Path 188378" d="M507.061,85.6a8.4,8.4,0,0,1-1.893-1.621,8.264,8.264,0,0,1-1.629-1.886,16.616,16.616,0,0,1,3.521,3.507Z" transform="translate(-185.387 -67.254)" fill="#fafafa"/>
        <path id="Path_188379" data-name="Path 188379" d="M58.33,193.246h1.764l4.943-.057,17.6-.157-.15.157c-.043-8.772-.1-19.329-.157-30.715l.186.186H58.209l.164-.171v30.55a.586.586,0,0,1,0,.157.935.935,0,0,1,0-.136c0-.107,0-.243,0-.414V191c0-1.471-.036-3.571-.064-6.257-.043-5.429-.107-13.114-.179-22.236v-.171h.164l11.586-.064H82.6c-.164-.164.236.229.193.193,0,11.357.064,21.915.093,30.715v.157H58.851Z" transform="translate(-58.13 -90.152)" fill="#e0e0e0"/>
        <rect id="Rectangle_39485" data-name="Rectangle 39485" width="3.371" height="0.821" transform="translate(10.222 102.58)" fill="#ebebeb"/>
        <rect id="Rectangle_39486" data-name="Rectangle 39486" width="7.372" height="10.65" transform="translate(8.222 83.315)" fill="#e0e0e0"/>
        <rect id="Rectangle_39487" data-name="Rectangle 39487" width="3.371" height="0.7" transform="translate(11.164 71.945) rotate(-0.23)" fill="#ebebeb"/>
        <rect id="Rectangle_39488" data-name="Rectangle 39488" width="25.036" height="16.872" transform="translate(422.789 51.937) rotate(-5.42)" fill="#fff"/>
        <path id="Path_188380" data-name="Path 188380" d="M634.986,104.086a2.243,2.243,0,0,1-.043-.314c0-.229-.064-.521-.107-.9-.079-.8-.2-1.943-.357-3.386-.293-2.936-.714-7.143-1.236-12.186l.164.136-24.914,2.4.164-.2h0v.543l.05.557.107,1.114c.064.714.136,1.471.207,2.2q.207,2.186.4,4.286c.264,2.814.521,5.514.757,8.079l-.186-.157,17.922-1.614,5.15-.443,1.379-.107h.486a3.091,3.091,0,0,1-.443.064l-1.343.143-5.1.529-18.014,1.8h-.171v-.171c-.25-2.557-.507-5.264-.779-8.072l-.414-4.286c-.064-.714-.136-1.429-.207-2.2l-.107-1.114-.05-.557v-.543h0l.171-.207,24.922-2.329h.15v.143c.45,5.121.821,9.336,1.086,12.293.121,1.429.214,2.564.279,3.364a7.612,7.612,0,0,0,.071.871,2.134,2.134,0,0,1,.007.264Z" transform="translate(-185.688 -37.7)" fill="#e0e0e0"/>
        <path id="Path_188381" data-name="Path 188381" d="M633.459,87.34a6.642,6.642,0,0,1-.757.95L630.516,90.8c-1.857,2.143-4.45,5-7.357,8.257l-.1.114-.136-.086-.664-.421c-3.814-2.429-7.257-4.65-9.743-6.271l-2.936-1.936-.786-.543c-.179-.129-.271-.2-.264-.214a1.311,1.311,0,0,1,.3.15l.829.486,2.993,1.836c2.514,1.564,5.986,3.75,9.8,6.179l.664.429h-.236c2.914-3.2,5.543-6.086,7.414-8.114l2.271-2.436a8.748,8.748,0,0,1,.893-.893Z" transform="translate(-185.753 -37.754)" fill="#e0e0e0"/>
        <path id="Path_188382" data-name="Path 188382" d="M440.564,77.114a1.564,1.564,0,0,0,.621-.236,1.228,1.228,0,0,0,.436-.657,6.759,6.759,0,0,0,.036-1.114c0-1.743,0-4.207.043-7.243V64.185a3.528,3.528,0,0,0,0-.621,1.1,1.1,0,0,0-.271-.507.979.979,0,0,0-.507-.271,6.376,6.376,0,0,0-.657,0H422.742a.993.993,0,0,0-.943.929c0,.571,0,1.143,0,1.707,0,1.136,0,2.25-.05,3.35-.036,2.2-.071,4.286-.107,6.343v.757a1,1,0,0,0,.15.614.936.936,0,0,0,.464.4,1.886,1.886,0,0,0,.657.064H430.7l7.243.057h1.971l-1.971.036L430.7,77.1h-7.786a2.143,2.143,0,0,1-.771-.086,1.279,1.279,0,0,1-.636-.529,1.428,1.428,0,0,1-.207-.8v-.714c0-2.029.057-4.15.086-6.343,0-1.1,0-2.221.043-3.357V63.542a1.364,1.364,0,0,1,1.336-1.257h17.522a5.042,5.042,0,0,1,.714,0,1.271,1.271,0,0,1,.664.364,1.293,1.293,0,0,1,.343.664,3.228,3.228,0,0,1,0,.714v1.279c0,.829-.036,1.629-.05,2.4-.064,3.029-.121,5.493-.157,7.236a6.96,6.96,0,0,1-.079,1.143,1.243,1.243,0,0,1-.5.714,1.122,1.122,0,0,1-.493.179A.521.521,0,0,1,440.564,77.114Z" transform="translate(-161.89 -61.592)" fill="#e0e0e0"/>
        <path id="Path_188383" data-name="Path 188383" d="M435.863,70.579l2.436,1.479-2.493,1.464-2.486,1.457.05-2.936.05-2.943Z" transform="translate(-165.324 -63.543)" fill="#e0e0e0"/>
        <path id="Path_188384" data-name="Path 188384" d="M138.556,61.32H103.17v46.136l35.386.886Z" transform="translate(-120.863 -16.32)" fill="#ebebeb"/>
        <path id="Path_188385" data-name="Path 188385" d="M136.767,63.62H105.81v41.843l30.957,1.043Z" transform="translate(-121.618 -16.977)" fill="#fafafa"/>
        <path id="Path_188386" data-name="Path 188386" d="M133.64,73.949l-20.55-.779v29.243h20.55Z" transform="translate(-123.697 -19.706)" fill="#e0e0e0"/>
        <path id="Path_188387" data-name="Path 188387" d="M113.09,102.413l20.55-15.022L113.09,73.17Z" transform="translate(-123.697 -19.706)" fill="#f5f5f5"/>
        <path id="Path_188388" data-name="Path 188388" d="M515.65,370.46c-12.95-9.043-15.886-25.836-15.372-40.929.086-2.521-.193-5.179,1.007-7.386s3.993-3.721,6.25-2.664c1.871.886,2.686,3.057,3.736,4.857a14.671,14.671,0,0,0,5.907,5.643c1.607.836,3.571,1.343,5.172.471,2.143-1.2,2.429-4.2,2.414-6.707l-.086-14.014a24.514,24.514,0,0,1,.757-7.443,7.705,7.705,0,0,1,4.886-5.25c2.386-.664,5.329.714,5.836,3.157a23.872,23.872,0,0,1,.071,3.121,2.623,2.623,0,0,0,1.536,2.479c.986.286,2.007-.414,2.757-1.15a33.164,33.164,0,0,0,5.979-9.029,46.106,46.106,0,0,1,5.579-9.322c2.343-2.757,5.593-4.943,9.186-5.15s7.407,2.014,8.314,5.536-1.15,7.143-3.393,10a56.066,56.066,0,0,1-11.643,11.1,4.557,4.557,0,0,0-1.95,2.093c-.543,1.671,1.036,3.329,2.686,3.879,1.871.621,3.9.429,5.85.657s4.072,1.093,4.807,2.943c1.029,2.557-1.114,5.243-3.221,7a47.8,47.8,0,0,1-14.179,8.186,16.3,16.3,0,0,0-5.271,2.564c-1.486,1.293.821,5.879,1.721,7.643s0,0,1.929-.357,3.657-1.429,5.5-2.1c3.443-1.3,7.857-1.064,10.093,1.914a7.993,7.993,0,0,1,.843,7.014,18.285,18.285,0,0,1-3.793,6.193,48.229,48.229,0,0,1-20.579,14.457c-7.986,2.771-15.386,3.521-23.329.614" transform="translate(-184.439 -124.122)" fill="#ebebeb"/>
        <path id="Path_188389" data-name="Path 188389" d="M521.55,382.5a109.828,109.828,0,0,1,4.093-20.657,224.375,224.375,0,0,1,8.914-24.172c.893-2.1,1.786-4.171,2.657-6.214s1.75-4.064,2.721-5.986a113.243,113.243,0,0,1,6.221-10.729c2.143-3.314,4.286-6.386,6.343-9.243s4-5.486,5.886-7.8a89.346,89.346,0,0,1,9.707-10.257c1.236-1.114,2.222-1.95,2.9-2.507l.771-.629a1.866,1.866,0,0,1,.279-.2,2.2,2.2,0,0,1-.25.236l-.714.664c-.657.579-1.622,1.429-2.857,2.571a94.251,94.251,0,0,0-9.572,10.329c-1.864,2.329-3.807,4.957-5.836,7.814s-4.164,5.943-6.3,9.286a114.341,114.341,0,0,0-6.179,10.714c-.964,1.914-1.829,3.914-2.707,5.964s-1.764,4.114-2.657,6.214a228.112,228.112,0,0,0-8.929,24.115,111.433,111.433,0,0,0-4.172,20.514" transform="translate(-190.532 -124.973)" fill="#e0e0e0"/>
        <path id="Path_188390" data-name="Path 188390" d="M546.017,330.975a5.249,5.249,0,0,1-.243-1.064c-.136-.714-.293-1.7-.464-2.95-.357-2.493-.714-5.957-1.121-9.779s-.821-7.264-1.207-9.75c-.193-1.243-.357-2.243-.486-2.936a4.829,4.829,0,0,1-.136-1.086,5.6,5.6,0,0,1,.314,1.05c.179.679.393,1.679.621,2.914.479,2.479.95,5.936,1.35,9.757s.714,7.179.986,9.786c.121,1.179.229,2.143.314,2.964a5,5,0,0,1,.072,1.093Z" transform="translate(-196.478 -130.487)" fill="#e0e0e0"/>
        <path id="Path_188391" data-name="Path 188391" d="M579.7,333.544a6.642,6.642,0,0,1-1.286.157c-.821.071-2.021.171-3.493.343-2.95.321-7.014.9-11.429,1.743s-8.493,1.786-11.35,2.543c-1.429.371-2.593.714-3.393.929a6.269,6.269,0,0,1-1.257.307,7.318,7.318,0,0,1,1.2-.479c.786-.279,1.936-.657,3.364-1.071,2.857-.85,6.857-1.836,11.321-2.693a115.331,115.331,0,0,1,11.515-1.607c1.486-.129,2.693-.179,3.521-.193A7.544,7.544,0,0,1,579.7,333.544Z" transform="translate(-197.944 -139.085)" fill="#e0e0e0"/>
        <path id="Path_188392" data-name="Path 188392" d="M521.342,375.653a1.884,1.884,0,0,1-.221-.393l-.55-1.164c-.471-1.014-1.121-2.5-1.893-4.343-1.557-3.693-3.571-8.857-5.657-14.586s-4.057-10.914-5.529-14.629c-.714-1.807-1.321-3.293-1.764-4.4l-.471-1.2a1.794,1.794,0,0,1-.136-.429,1.542,1.542,0,0,1,.221.393c.15.314.336.714.55,1.164.479,1.014,1.121,2.5,1.9,4.343,1.557,3.693,3.571,8.857,5.657,14.593s4.05,10.907,5.529,14.622l1.757,4.4c.193.479.343.879.471,1.2A1.52,1.52,0,0,1,521.342,375.653Z" transform="translate(-185.838 -139.372)" fill="#e0e0e0"/>
        <path id="Path_188393" data-name="Path 188393" d="M570.642,372.8a2.069,2.069,0,0,1-.429.171l-1.243.421-4.593,1.486c-3.871,1.25-9.193,3.05-15.079,5.036s-11.229,3.743-15.129,4.921c-1.95.586-3.529,1.043-4.629,1.343l-1.271.329a1.428,1.428,0,0,1-.45.086,2.067,2.067,0,0,1,.429-.171l1.243-.414,4.579-1.486c3.871-1.257,9.2-3.057,15.086-5.043s11.229-3.743,15.129-4.921c1.95-.586,3.529-1.043,4.629-1.343l1.271-.329A1.429,1.429,0,0,1,570.642,372.8Z" transform="translate(-192.324 -150.312)" fill="#e0e0e0"/>
      </g>
      <g id="freepik--Floor--inject-36" transform="translate(58.209 335.43)">
        <path id="Path_188394" data-name="Path 188394" d="M58.24,445.256c0-.107,104.737-.186,233.91-.186s233.931.079,233.931.186-104.715.186-233.931.186S58.24,445.356,58.24,445.256Z" transform="translate(-58.24 -445.07)" fill="#263238"/>
      </g>
      <g id="freepik--Calendar--inject-36" transform="translate(137.801 99.949)">
        <path id="Path_188395" data-name="Path 188395" d="M172.877,174.029S159.5,318.466,187.377,364.9l247.96,2.929s-41.072-125.2-37.515-197.581Z" transform="translate(-169.668 -131.071)" fill="#e0e0e0"/>
        <path id="Path_188396" data-name="Path 188396" d="M173.2,175.54s-15.714,148.937,33.25,180.766H445.424S403.009,283.6,399.666,175.54Z" transform="translate(-169.991 -132.582)" fill="#ebebeb"/>
        <rect id="Rectangle_39489" data-name="Rectangle 39489" width="232.488" height="37.279" transform="translate(1.994 8.129)" fill="#263238"/>
        <path id="Path_188397" data-name="Path 188397" d="M212.435,139.529a1.5,1.5,0,0,1-.079-3c6.987-.375,9.466-5.584,9.466-9.931,0-4.82-3.224-9.7-9.386-9.7a9.078,9.078,0,0,0-7.405,3.559,12.134,12.134,0,0,0-2.037,3.769l-1.444-.407-1.445-.4a14.963,14.963,0,0,1,2.5-4.735,12.106,12.106,0,0,1,9.826-4.784,12.744,12.744,0,0,1,5.4,1.136,11.4,11.4,0,0,1,3.912,2.984,13.667,13.667,0,0,1,.124,17.11,12.644,12.644,0,0,1-9.358,4.4Z" transform="translate(-178.777 -115.4)" fill="#e0e0e0"/>
        <rect id="Rectangle_39490" data-name="Rectangle 39490" width="11.472" height="5.121" transform="translate(19.316 8)" fill="#263238"/>
        <path id="Path_188398" data-name="Path 188398" d="M274.265,139.529a1.5,1.5,0,0,1-.079-3c6.987-.375,9.466-5.584,9.466-9.931,0-4.82-3.224-9.7-9.386-9.7a9.077,9.077,0,0,0-7.405,3.559,12.134,12.134,0,0,0-2.037,3.769l-1.444-.407-1.445-.4a14.964,14.964,0,0,1,2.5-4.735,12.106,12.106,0,0,1,9.826-4.784,12.744,12.744,0,0,1,5.4,1.136,11.4,11.4,0,0,1,3.912,2.984,13.667,13.667,0,0,1,.124,17.11,12.644,12.644,0,0,1-9.358,4.4Z" transform="translate(-196.442 -115.4)" fill="#e0e0e0"/>
        <rect id="Rectangle_39491" data-name="Rectangle 39491" width="11.472" height="5.121" transform="translate(63.488 8)" fill="#263238"/>
        <path id="Path_188399" data-name="Path 188399" d="M336.1,139.529a1.5,1.5,0,0,1-.079-3c6.987-.375,9.466-5.584,9.466-9.931,0-4.82-3.224-9.7-9.386-9.7a9.077,9.077,0,0,0-7.405,3.559,12.134,12.134,0,0,0-2.037,3.769l-1.444-.407-1.445-.4a14.964,14.964,0,0,1,2.5-4.735,12.106,12.106,0,0,1,9.826-4.784,12.744,12.744,0,0,1,5.4,1.136,11.4,11.4,0,0,1,3.912,2.984,13.667,13.667,0,0,1,.124,17.11,12.644,12.644,0,0,1-9.358,4.4Z" transform="translate(-214.11 -115.4)" fill="#e0e0e0"/>
        <rect id="Rectangle_39492" data-name="Rectangle 39492" width="11.472" height="5.121" transform="translate(107.653 8)" fill="#263238"/>
        <path id="Path_188400" data-name="Path 188400" d="M397.935,139.529a1.5,1.5,0,0,1-.079-3c6.987-.375,9.466-5.584,9.466-9.931,0-4.82-3.224-9.7-9.386-9.7a9.085,9.085,0,0,0-7.467,3.637,12.135,12.135,0,0,0-1.974,3.686,1.5,1.5,0,0,1-2.89-.8,14.963,14.963,0,0,1,2.5-4.735,12.106,12.106,0,0,1,9.826-4.784,12.744,12.744,0,0,1,5.4,1.136,11.4,11.4,0,0,1,3.912,2.984,13.667,13.667,0,0,1,.124,17.11,12.644,12.644,0,0,1-9.358,4.4Z" transform="translate(-231.775 -115.4)" fill="#e0e0e0"/>
        <rect id="Rectangle_39493" data-name="Rectangle 39493" width="11.472" height="5.121" transform="translate(151.825 8)" fill="#263238"/>
        <path id="Path_188401" data-name="Path 188401" d="M459.775,139.529a1.5,1.5,0,0,1-.079-3c6.987-.375,9.466-5.584,9.466-9.931,0-4.82-3.224-9.7-9.386-9.7a9.085,9.085,0,0,0-7.467,3.637,12.137,12.137,0,0,0-1.974,3.686,1.5,1.5,0,1,1-2.89-.8,14.964,14.964,0,0,1,2.5-4.735,12.106,12.106,0,0,1,9.826-4.784,12.744,12.744,0,0,1,5.4,1.136,11.4,11.4,0,0,1,3.912,2.984,13.667,13.667,0,0,1,.124,17.11,12.645,12.645,0,0,1-9.358,4.4Z" transform="translate(-249.444 -115.4)" fill="#e0e0e0"/>
        <rect id="Rectangle_39494" data-name="Rectangle 39494" width="11.472" height="5.121" transform="translate(195.989 8)" fill="#263238"/>
        <path id="Path_188402" data-name="Path 188402" d="M172.482,180.91s-2.571,165.98,51.229,165.98l221,.079S413.12,314.74,403.763,180.91Z" transform="translate(-170.466 -134.117)" fill="#f5f5f5"/>
        <path id="Path_188403" data-name="Path 188403" d="M421.374,332.924c-.05-.143-.286-.814-.807-2.271s-1.329-3.686-2.293-6.614c-1.979-5.821-4.743-14.429-7.907-25.55a755.071,755.071,0,0,1-20-94.544l.15.129H201.35l.186-.214c3.371,24.029,6.836,47.45,12.443,69.386a249.513,249.513,0,0,0,10.164,31.529,184.33,184.33,0,0,0,14.043,28.057l-.143-.079,183.323.171-183.323.164h-.093l-.05-.079a184.714,184.714,0,0,1-14.1-28.072,250.481,250.481,0,0,1-10.186-31.565c-5.622-21.965-9.086-45.393-12.464-69.429v-.214h2l187.38.036h.129v.129a765.442,765.442,0,0,0,19.872,94.544c3.143,11.129,5.871,19.743,7.857,25.572S421.281,332.631,421.374,332.924Z" transform="translate(-178.662 -140.637)" fill="#263238"/>
        <path id="Path_188404" data-name="Path 188404" d="M406.261,294.086c0,.107-42.2.186-94.244.186s-94.287-.079-94.287-.186,42.193-.186,94.287-.186S406.261,293.971,406.261,294.086Z" transform="translate(-183.399 -166.399)" fill="#263238"/>
        <path id="Path_188405" data-name="Path 188405" d="M420.463,342.356c0,.1-42.215.186-94.287.186s-94.287-.086-94.287-.186,42.2-.186,94.287-.186S420.463,342.249,420.463,342.356Z" transform="translate(-187.445 -180.19)" fill="#263238"/>
        <path id="Path_188406" data-name="Path 188406" d="M397.331,247.576c0,.1-42.2.186-94.244.186s-94.287-.086-94.287-.186,42.193-.186,94.287-.186S397.331,247.469,397.331,247.576Z" transform="translate(-180.848 -153.11)" fill="#263238"/>
        <path id="Path_188407" data-name="Path 188407" d="M283.5,333s-.043-.107-.114-.321-.179-.55-.307-.957c-.271-.864-.657-2.107-1.157-3.693-1-3.207-2.4-7.857-4.093-13.622-3.364-11.529-7.822-27.515-12.143-45.329-2.143-8.907-4.064-17.429-5.714-25.2s-3-14.793-4.05-20.715c-.55-2.957-1-5.636-1.429-7.986s-.714-4.379-.986-6.036-.45-2.936-.586-3.821c-.057-.429-.107-.757-.143-1a2.724,2.724,0,0,1-.036-.336,2.907,2.907,0,0,1,.079.329c.043.243.1.571.179.993l.65,3.807c.271,1.657.629,3.686,1.05,6.029s.886,5,1.429,7.972c1.086,5.907,2.5,12.914,4.129,20.715s3.571,16.279,5.714,25.186c4.286,17.807,8.721,33.8,12.022,45.343,1.657,5.764,3.014,10.429,3.979,13.65.464,1.6.829,2.857,1.086,3.707l.271.971A.882.882,0,0,1,283.5,333Z" transform="translate(-193.402 -140.708)" fill="#263238"/>
        <path id="Path_188408" data-name="Path 188408" d="M334.715,333s-.043-.107-.114-.329l-.3-.957-1.129-3.7c-.979-3.207-2.35-7.857-4.021-13.636-3.314-11.543-7.8-27.522-12.143-45.322s-7.793-34.05-9.907-45.872c-.543-2.95-1.014-5.629-1.386-7.986s-.714-4.379-.964-6.043-.429-2.929-.557-3.822c-.057-.429-.1-.757-.136-1S304,204,304,204a1.29,1.29,0,0,0,.071.336l.171.986c.15.893.357,2.143.629,3.814s.614,3.686,1.021,6.036.886,5,1.429,7.972c2.179,11.8,5.614,28.036,10,45.829s8.8,33.772,12.05,45.329l3.914,13.679c.457,1.6.807,2.857,1.057,3.714l.264.971A2.445,2.445,0,0,1,334.715,333Z" transform="translate(-208.047 -140.714)" fill="#263238"/>
        <path id="Path_188409" data-name="Path 188409" d="M388.221,333.016a3.339,3.339,0,0,1-.121-.321c-.071-.236-.179-.55-.314-.957l-1.164-3.693c-1.021-3.2-2.443-7.857-4.179-13.572-3.429-11.514-8.064-27.457-12.493-45.25s-7.8-34.093-9.743-45.922c-.493-2.957-.929-5.643-1.257-8.007s-.643-4.393-.836-6.064-.357-2.943-.464-3.843c-.05-.421-.086-.757-.114-1a.937.937,0,0,1,0-.336,1.581,1.581,0,0,0,.057.336l.15.993c.129.893.307,2.143.536,3.829s.536,3.7.9,6.057.8,5.036,1.307,7.993c2.014,11.843,5.386,28.1,9.843,45.879s9.022,33.736,12.393,45.265c1.707,5.75,3.093,10.4,4.057,13.636.471,1.6.843,2.857,1.1,3.714q.179.614.279.964C388.2,332.9,388.221,333.016,388.221,333.016Z" transform="translate(-223.339 -140.728)" fill="#263238"/>
        <path id="Path_188410" data-name="Path 188410" d="M441.715,333a3.35,3.35,0,0,1-.121-.321l-.321-.957c-.286-.857-.714-2.093-1.207-3.679-1.043-3.193-2.514-7.857-4.286-13.572-3.571-11.486-8.329-27.4-12.857-45.179-2.286-8.886-4.286-17.4-5.857-25.193-.843-3.886-1.507-7.607-2.143-11.079q-.45-2.614-.864-5.043c-.279-1.614-.536-3.171-.714-4.657C411.443,211.429,411,204,411,204a1.716,1.716,0,0,0,.05.336c.05.221.071.571.121,1,.1.9.236,2.193.421,3.85s.45,3.707.757,6.071.714,5.057,1.164,8.022c.214,1.486.486,3.043.771,4.657s.579,3.293.879,5.036c.679,3.464,1.357,7.179,2.2,11.057,1.621,7.779,3.607,16.293,5.886,25.179,4.536,17.764,9.286,33.686,12.757,45.186L440.193,328c.493,1.593.879,2.857,1.143,3.7.121.414.214.714.286.964S441.715,333,441.715,333Z" transform="translate(-238.618 -140.714)" fill="#263238"/>
        <path id="Path_188411" data-name="Path 188411" d="M260.586,218.852s1.607,15.65,7.822,25.422H305s-8.893-15.829-10-26.829l-.8-6.164H260Z" transform="translate(-195.476 -142.794)" fill="#455a64"/>
        <path id="Path_188412" data-name="Path 188412" d="M294.032,225.646c0,.107-5.207.186-11.636.186s-11.636-.079-11.636-.186,5.207-.186,11.636-.186S294.032,225.546,294.032,225.646Z" transform="translate(-198.551 -146.845)" fill="#fafafa"/>
        <path id="Path_188413" data-name="Path 188413" d="M295.692,231.186c0,.107-5.207.186-11.636.186s-11.636-.079-11.636-.186,5.207-.186,11.636-.186S295.692,231.086,295.692,231.186Z" transform="translate(-199.025 -148.428)" fill="#fafafa"/>
        <path id="Path_188414" data-name="Path 188414" d="M297.286,236.726c0,.1-5.207.186-11.636.186s-11.65-.086-11.65-.186,5.207-.186,11.636-.186S297.286,236.626,297.286,236.726Z" transform="translate(-199.476 -150.011)" fill="#fafafa"/>
        <path id="Path_188415" data-name="Path 188415" d="M298.922,242.266c0,.1-5.207.186-11.636.186s-11.636-.086-11.636-.186,5.207-.186,11.636-.186S298.922,242.159,298.922,242.266Z" transform="translate(-199.948 -151.593)" fill="#fafafa"/>
        <path id="Path_188416" data-name="Path 188416" d="M436.384,272.859s1.607,15.65,7.822,25.415h36.579s-8.893-15.822-10-26.822l-.8-6.172H435.77Z" transform="translate(-245.695 -158.222)" fill="#263238"/>
        <path id="Path_188417" data-name="Path 188417" d="M469.842,278.556c0,.107-5.207.186-11.636.186s-11.636-.079-11.636-.186,5.214-.186,11.636-.186S469.842,278.456,469.842,278.556Z" transform="translate(-248.781 -161.962)" fill="#e0e0e0"/>
        <path id="Path_188418" data-name="Path 188418" d="M471.472,284.1c0,.1-5.207.186-11.636.186S448.2,284.2,448.2,284.1s5.207-.186,11.636-.186S471.472,283.974,471.472,284.1Z" transform="translate(-249.246 -163.544)" fill="#e0e0e0"/>
        <path id="Path_188419" data-name="Path 188419" d="M473.1,289.636c0,.1-5.207.186-11.636.186s-11.636-.086-11.636-.186,5.207-.186,11.636-.186S473.1,289.536,473.1,289.636Z" transform="translate(-249.712 -165.127)" fill="#e0e0e0"/>
        <path id="Path_188420" data-name="Path 188420" d="M474.692,295.176c0,.1-5.207.186-11.636.186s-11.636-.086-11.636-.186,5.207-.186,11.636-.186S474.692,295.069,474.692,295.176Z" transform="translate(-250.166 -166.71)" fill="#e0e0e0"/>
        <path id="Path_188421" data-name="Path 188421" d="M393.331,208.084c.379.307-4.357,6.614-11.514,13.143s-13.829,10.714-14.1,10.322,5.807-5.229,12.857-11.693S392.917,207.734,393.331,208.084Z" transform="translate(-226.249 -141.876)" fill="#ffb500"/>
        <path id="Path_188422" data-name="Path 188422" d="M399.016,232.419c-.3.421-8.293-4.779-18.136-11.2s-17.807-11.657-17.543-12.143,8.686,4.093,18.572,10.55S399.309,232,399.016,232.419Z" transform="translate(-224.999 -142.154)" fill="#ffb500"/>
        <path id="Path_188423" data-name="Path 188423" d="M316.655,230.188c-.314-.407,4.95-4.936,11.75-10.114s12.564-9.043,12.857-8.636-4.95,4.936-11.75,10.114S316.962,230.6,316.655,230.188Z" transform="translate(-211.659 -142.83)" fill="#ffb500"/>
        <path id="Path_188424" data-name="Path 188424" d="M344.2,232.524c-.329.429-7.329-4.507-16.222-10.179s-16.286-10-16.043-10.45,8.093,3.143,17.05,8.886S344.509,232.138,344.2,232.524Z" transform="translate(-210.314 -142.958)" fill="#ffb500"/>
        <path id="Path_188425" data-name="Path 188425" d="M351.685,298.581c0-.057.364-.143,1.079-.193a11.907,11.907,0,0,1,3.129.314,14.2,14.2,0,0,1,4.6,1.971,14.558,14.558,0,0,1,4.621,4.814,15.671,15.671,0,0,1,2.107,7.857,17.194,17.194,0,0,1-.571,4.529,16.681,16.681,0,0,1-1.957,4.45,18.4,18.4,0,0,1-18.722,8.164,18.686,18.686,0,0,1-9.857-5,16.957,16.957,0,0,1-4.764-9.157,17.422,17.422,0,0,1,.857-9.286,14.943,14.943,0,0,1,4.843-6.507,16.165,16.165,0,0,1,5.986-2.907,14.649,14.649,0,0,1,5-.414,6.575,6.575,0,0,1,.964.121c.3.05.579.086.836.15.507.143.936.243,1.271.379.664.271,1,.443.979.5-.057.179-1.429-.414-4.086-.429a15.3,15.3,0,0,0-4.664.714,15.585,15.585,0,0,0-5.443,2.936,13.807,13.807,0,0,0-4.221,6.021,15.986,15.986,0,0,0-.614,8.429,15.315,15.315,0,0,0,4.329,8.15,16.993,16.993,0,0,0,8.907,4.464,16.594,16.594,0,0,0,9.872-1.221,16.808,16.808,0,0,0,7.086-6.036,15.1,15.1,0,0,0,1.821-3.957,15.82,15.82,0,0,0,.607-4.093,14.657,14.657,0,0,0-1.707-7.143A13.923,13.923,0,0,0,359.9,301.6a14.666,14.666,0,0,0-4.2-2.143A39.636,39.636,0,0,0,351.685,298.581Z" transform="translate(-215.782 -167.33)" fill="#ffb500"/>
        <path id="Path_188426" data-name="Path 188426" d="M217.661,278.372c-.386-.321,4.114-6.429,10.436-13.357,6.214-6.807,11.914-12.05,12.372-11.586s-4.721,5.964-11,12.857S218.068,278.7,217.661,278.372Z" transform="translate(-183.373 -154.827)" fill="#ffb500"/>
        <path id="Path_188427" data-name="Path 188427" d="M245.562,276.439c-.271.436-7.579-3.571-16.322-8.993S213.625,257.3,213.9,256.867s7.493,3.571,16.243,8.993S245.833,276,245.562,276.439Z" transform="translate(-182.302 -155.809)" fill="#ffb500"/>
        <path id="Path_188428" data-name="Path 188428" d="M351.508,306.876l2.793,4.007a1.2,1.2,0,0,0,1.014.529H360.2a1.236,1.236,0,0,1,.993,1.979l-2.95,3.893a1.229,1.229,0,0,0-.186,1.129l1.536,4.636a1.229,1.229,0,0,1-1.571,1.55l-4.614-1.6a1.264,1.264,0,0,0-1.136.171l-3.936,2.9a1.229,1.229,0,0,1-1.957-1.021l.093-4.879a1.243,1.243,0,0,0-.514-1.029l-3.964-2.857a1.221,1.221,0,0,1,.357-2.143l4.679-1.429a1.243,1.243,0,0,0,.814-.807l1.479-4.65a1.236,1.236,0,0,1,2.186-.379Z" transform="translate(-218.762 -169.96)" fill="#ffb500"/>
        <path id="Path_188429" data-name="Path 188429" d="M450.378,208.322c.343.379-5.879,6.514-13.9,13.693s-14.8,12.686-15.143,12.3,5.879-6.507,13.9-13.686S450.028,207.937,450.378,208.322Z" transform="translate(-241.567 -141.943)" fill="#ffb500"/>
        <path id="Path_188430" data-name="Path 188430" d="M453.273,231.56c-.229.457-8.95-3.45-19.472-8.722s-18.879-9.929-18.643-10.393,8.943,3.45,19.472,8.729S453.5,231.1,453.273,231.56Z" transform="translate(-239.805 -143.116)" fill="#ffb500"/>
        <path id="Path_188431" data-name="Path 188431" d="M449.83,219.84h42.593l10.222,7.907-9.014,7.393-40.836-.043Z" transform="translate(-249.712 -145.239)" fill="#455a64"/>
        <path id="Path_188432" data-name="Path 188432" d="M351.508,306.876l2.793,4.007a1.2,1.2,0,0,0,1.014.529H360.2a1.236,1.236,0,0,1,.993,1.979l-2.95,3.893a1.229,1.229,0,0,0-.186,1.129l1.536,4.636a1.229,1.229,0,0,1-1.571,1.55l-4.614-1.6a1.264,1.264,0,0,0-1.136.171l-3.936,2.9a1.229,1.229,0,0,1-1.957-1.021l.093-4.879a1.243,1.243,0,0,0-.514-1.029l-3.964-2.857a1.221,1.221,0,0,1,.357-2.143l4.679-1.429a1.243,1.243,0,0,0,.814-.807l1.479-4.65a1.236,1.236,0,0,1,2.186-.379Z" transform="translate(-218.762 -169.96)" fill="#fff" opacity="0.2"/>
      </g>
      <g id="freepik--character-2--inject-36" transform="translate(363.262 128.827)">
        <path id="Path_188433" data-name="Path 188433" d="M603.882,437.894l.036-6.014h11.264l.043,8.793-.714.05c-3.107.171-15.815.671-17.857.043C594.317,440.052,603.882,437.894,603.882,437.894Z" transform="translate(-541.017 -234.699)" fill="#ffb500"/>
        <g id="Group_107812" data-name="Group 107812" transform="translate(70.136 202.794)" opacity="0.6">
          <path id="Path_188434" data-name="Path 188434" d="M617.1,442.968a3.885,3.885,0,0,1,1.429-2.4,3.807,3.807,0,0,1,2.629-.821v3.15Z" transform="translate(-617.1 -439.738)" fill="#fff"/>
        </g>
        <g id="Group_107813" data-name="Group 107813" transform="translate(55.243 204.41)" opacity="0.6">
          <path id="Path_188435" data-name="Path 188435" d="M599.214,442s-3.35.971-2.929,1.521,13.272.536,18.943,0v-.25l-15,.15S599.871,442,599.214,442Z" transform="translate(-596.249 -442)" fill="#fff"/>
        </g>
        <path id="Path_188436" data-name="Path 188436" d="M615.267,443.686h-.75l-2.05.086c-1.729.064-4.114.121-6.757.129s-5-.043-6.757-.1l-2.043-.079-.557-.036h.557l2.05.043c1.729,0,4.114.064,6.75.057s5-.05,6.757-.086l2.05-.05h.714Z" transform="translate(-540.981 -238.062)" fill="#263238"/>
        <path id="Path_188437" data-name="Path 188437" d="M601.36,443.627a4.5,4.5,0,0,0-.386-.971,5.058,5.058,0,0,0-.714-.786,1.529,1.529,0,0,1,.814.714A1.507,1.507,0,0,1,601.36,443.627Z" transform="translate(-542.152 -237.553)" fill="#263238"/>
        <path id="Path_188438" data-name="Path 188438" d="M606.51,441.225a2.183,2.183,0,0,1-.357-.436c-.164-.264-.271-.479-.236-.5s.186.171.35.429A1.249,1.249,0,0,1,606.51,441.225Z" transform="translate(-543.767 -237.101)" fill="#263238"/>
        <path id="Path_188439" data-name="Path 188439" d="M607.716,440.667a1.764,1.764,0,0,1-.4-.264c-.193-.171-.329-.336-.307-.364s.2.093.4.264S607.759,440.638,607.716,440.667Z" transform="translate(-544.08 -237.028)" fill="#263238"/>
        <path id="Path_188440" data-name="Path 188440" d="M608.359,439.4c0,.043-.264.071-.586.079s-.593,0-.593-.064a1.35,1.35,0,0,1,.593-.071A1.329,1.329,0,0,1,608.359,439.4Z" transform="translate(-544.129 -236.829)" fill="#263238"/>
        <path id="Path_188441" data-name="Path 188441" d="M608.561,438.38a1.164,1.164,0,0,1-.657.193,1.243,1.243,0,0,1-.714-.086,3.1,3.1,0,0,1,.664-.05A3.734,3.734,0,0,1,608.561,438.38Z" transform="translate(-544.132 -236.556)" fill="#263238"/>
        <path id="Path_188442" data-name="Path 188442" d="M605.365,439.82a2.143,2.143,0,0,1-.714,0,4.278,4.278,0,0,1-.771-.171,2.217,2.217,0,0,1-.443-.179.393.393,0,0,1-.179-.229.279.279,0,0,1,.114-.286,1.321,1.321,0,0,1,1.636.386,1.213,1.213,0,0,1,.236.479.3.3,0,0,1,0,.2,1.972,1.972,0,0,0-.329-.621,1.429,1.429,0,0,0-.621-.4,1.121,1.121,0,0,0-.857.064c-.114.086-.071.221.057.293a1.888,1.888,0,0,0,.407.172,4.1,4.1,0,0,0,.714.193C605.094,439.8,605.365,439.8,605.365,439.82Z" transform="translate(-543.007 -236.681)" fill="#263238"/>
        <path id="Path_188443" data-name="Path 188443" d="M605.96,439.71a.714.714,0,0,1-.086-.5,1.252,1.252,0,0,1,.2-.529.75.75,0,0,1,.6-.372.286.286,0,0,1,.221.336.644.644,0,0,1-.121.321,2.379,2.379,0,0,1-.336.443,1.057,1.057,0,0,1-.414.293,4.149,4.149,0,0,0,.343-.364,2.786,2.786,0,0,0,.3-.429c.1-.157.164-.429,0-.464s-.364.164-.479.307a1.2,1.2,0,0,0-.2.471A2.311,2.311,0,0,0,605.96,439.71Z" transform="translate(-543.753 -236.536)" fill="#263238"/>
        <path id="Path_188444" data-name="Path 188444" d="M621.4,439.634s-.321,0-.829.036a3.621,3.621,0,0,0-1.814.714,3.685,3.685,0,0,0-1.136,1.6c-.172.486-.186.807-.214.807a.93.93,0,0,1,0-.229,3.583,3.583,0,0,1,.121-.607,3.443,3.443,0,0,1,3.029-2.421,3.288,3.288,0,0,1,.621,0A.767.767,0,0,1,621.4,439.634Z" transform="translate(-547.049 -236.881)" fill="#263238"/>
        <path id="Path_188445" data-name="Path 188445" d="M621.354,432.63a39.5,39.5,0,0,1,.064,4.629A39.487,39.487,0,0,1,621.354,432.63Z" transform="translate(-548.168 -234.913)" fill="#263238"/>
        <path id="Path_188446" data-name="Path 188446" d="M614.1,442.2a6.29,6.29,0,0,1-1.643.164,6.178,6.178,0,0,1-1.643-.129c0-.043.714,0,1.643,0S614.1,442.162,614.1,442.2Z" transform="translate(-545.167 -237.645)" fill="#263238"/>
        <path id="Path_188447" data-name="Path 188447" d="M618.372,442.2s-.057.157-.129.329-.121.314-.157.314-.057-.179,0-.371S618.35,442.17,618.372,442.2Z" transform="translate(-547.235 -237.645)" fill="#263238"/>
        <path id="Path_188448" data-name="Path 188448" d="M619.5,440.748a.834.834,0,0,1-.164.264c-.114.121-.236.193-.257.164s.043-.143.157-.264S619.471,440.719,619.5,440.748Z" transform="translate(-547.528 -237.23)" fill="#263238"/>
        <path id="Path_188449" data-name="Path 188449" d="M621.074,440.061c0,.036-.157.036-.321.093s-.286.15-.314.121.064-.179.271-.25S621.088,440,621.074,440.061Z" transform="translate(-547.916 -237.015)" fill="#263238"/>
        <path id="Path_188450" data-name="Path 188450" d="M622.382,439.759c0,.036-.05.093-.143.129s-.186.043-.2,0,.057-.093.15-.129S622.368,439.724,622.382,439.759Z" transform="translate(-548.374 -236.942)" fill="#263238"/>
        <path id="Path_188451" data-name="Path 188451" d="M552.874,162.41,652,166.4V189.26L551.41,185.567Z" transform="translate(-528.195 -157.709)" fill="#ffb500"/>
        <path id="Path_188452" data-name="Path 188452" d="M525.889,174.276s-5.643-.671-6.979,1.757c0,0,1.143,3.086,6.736,2.857Z" transform="translate(-518.91 -161.075)" fill="#ffb500"/>
        <path id="Path_188453" data-name="Path 188453" d="M527.774,169.846l-.564,6.322,6.793.664s2.793.229,6.014,3.693,4.493,5.043,4.493,5.043l1.464-23.157L541.51,166.6a10.9,10.9,0,0,1-3.014,1.993,16.949,16.949,0,0,1-4.236,1.429A48.489,48.489,0,0,1,527.774,169.846Z" transform="translate(-521.281 -157.709)" fill="#263238"/>
        <path id="Path_188454" data-name="Path 188454" d="M692.24,168s5.979,3.421,4.786,12.264c-1.021,7.622-4.786,10.6-4.786,10.6Z" transform="translate(-568.432 -159.306)" fill="#263238"/>
        <path id="Path_188455" data-name="Path 188455" d="M552.651,174.23l99.6,3.643v6.186L552.28,180.08Z" transform="translate(-528.444 -161.086)" fill="#fff" opacity="0.4"/>
        <g id="Group_107814" data-name="Group 107814" transform="translate(74.751 8.472)" opacity="0.3">
          <path id="Path_188456" data-name="Path 188456" d="M630.3,167.69c1.55.114,2.586,1.614,3.95,2.364s2.986.714,4.286,1.479a4.286,4.286,0,0,1,.857,6.8c-1.164,1.107-3.043,1.714-3.386,3.286-.15.714-.25,1.771-.957,1.657-.393-.057-.586-.5-.871-.771a1.713,1.713,0,0,0-2.271.257,11.424,11.424,0,0,0-1.429,2.1,2.4,2.4,0,0,1-2.036,1.271v3.021l-4.886-.243.55-19.893Z" transform="translate(-623.56 -167.69)"/>
        </g>
        <path id="Path_188457" data-name="Path 188457" d="M650.7,438.4V432.39H639.4l-.043,8.793.714.043c3.107.179,15.807.671,17.857.043C660.267,440.562,650.7,438.4,650.7,438.4Z" transform="translate(-553.323 -234.844)" fill="#ffb500"/>
        <g id="Group_107815" data-name="Group 107815" transform="translate(86.051 203.157)" opacity="0.6">
          <path id="Path_188458" data-name="Path 188458" d="M643.437,443.477a3.9,3.9,0,0,0-1.428-2.407,3.772,3.772,0,0,0-2.629-.814V443.4Z" transform="translate(-639.38 -440.246)" fill="#fff"/>
        </g>
        <g id="Group_107816" data-name="Group 107816" transform="translate(86.022 204.767)" opacity="0.6">
          <path id="Path_188459" data-name="Path 188459" d="M655.354,442.5s3.35.971,2.929,1.521-13.272.536-18.943.036V443.8l15,.15S654.7,442.529,655.354,442.5Z" transform="translate(-639.34 -442.5)" fill="#fff"/>
        </g>
        <path id="Path_188460" data-name="Path 188460" d="M639.25,444.2a.672.672,0,0,0,.193,0H640l2.05.093c1.729.064,4.114.121,6.757.129s5-.043,6.757-.1l2.043-.086h.036l-2.05.036c-1.729.036-4.114.064-6.75.057s-5-.043-6.757-.086l-2.05-.043h-.786Z" transform="translate(-553.292 -238.219)" fill="#263238"/>
        <path id="Path_188461" data-name="Path 188461" d="M660.357,444.134a4.34,4.34,0,0,1,.386-.979,5.052,5.052,0,0,1,.714-.786,1.564,1.564,0,0,0-.814.714A1.5,1.5,0,0,0,660.357,444.134Z" transform="translate(-559.32 -237.696)" fill="#263238"/>
        <path id="Path_188462" data-name="Path 188462" d="M655.407,441.725a2.259,2.259,0,0,0,.357-.429c.164-.257.271-.486.236-.507s-.186.171-.35.429S655.372,441.7,655.407,441.725Z" transform="translate(-557.906 -237.244)" fill="#263238"/>
        <path id="Path_188463" data-name="Path 188463" d="M654.129,441.167a1.511,1.511,0,0,0,.4-.264c.193-.179.329-.336.307-.364s-.207.093-.4.264S654.108,441.146,654.129,441.167Z" transform="translate(-557.542 -237.171)" fill="#263238"/>
        <path id="Path_188464" data-name="Path 188464" d="M653.33,439.924a1.329,1.329,0,0,0,.586.071,1.372,1.372,0,0,0,.607-.029c0-.043-.264-.071-.593-.079S653.33,439.881,653.33,439.924Z" transform="translate(-557.315 -236.986)" fill="#263238"/>
        <path id="Path_188465" data-name="Path 188465" d="M653.05,438.89a1.264,1.264,0,0,0,.657.186,1.122,1.122,0,0,0,.679-.086,3.1,3.1,0,0,0-.657-.021A3.354,3.354,0,0,0,653.05,438.89Z" transform="translate(-557.235 -236.702)" fill="#263238"/>
        <path id="Path_188466" data-name="Path 188466" d="M656,440.33a2.029,2.029,0,0,0,.714,0,4.859,4.859,0,0,0,.771-.164,2.462,2.462,0,0,0,.443-.186.379.379,0,0,0,.179-.221.293.293,0,0,0-.114-.293,1.321,1.321,0,0,0-1.636.386,1.428,1.428,0,0,0-.243.486.372.372,0,0,0,0,.193,1.906,1.906,0,0,1,.329-.614,1.271,1.271,0,0,1,.621-.4,1.086,1.086,0,0,1,.857.057c.114.086.071.221-.057.3a2.318,2.318,0,0,1-.407.171,5.7,5.7,0,0,1-.714.193A6.807,6.807,0,0,0,656,440.33Z" transform="translate(-558.078 -236.827)" fill="#263238"/>
        <path id="Path_188467" data-name="Path 188467" d="M655.831,440.22a.778.778,0,0,0,.086-.507,1.285,1.285,0,0,0-.2-.529.714.714,0,0,0-.6-.364.286.286,0,0,0-.229.329.792.792,0,0,0,.129.329,2.562,2.562,0,0,0,.336.436,1.057,1.057,0,0,0,.414.293,4.612,4.612,0,0,1-.343-.357,2.433,2.433,0,0,1-.3-.436c-.1-.157-.164-.429,0-.464s.364.164.479.314a1.136,1.136,0,0,1,.2.464A3.23,3.23,0,0,1,655.831,440.22Z" transform="translate(-557.759 -236.682)" fill="#263238"/>
        <path id="Path_188468" data-name="Path 188468" d="M639.15,440.132h.828a3.621,3.621,0,0,1,1.814.714,3.7,3.7,0,0,1,1.136,1.607,7.627,7.627,0,0,1,.207.8v-.229a3.222,3.222,0,0,0-.129-.607A3.407,3.407,0,0,0,639.986,440a2.773,2.773,0,0,0-.621,0A.763.763,0,0,0,639.15,440.132Z" transform="translate(-553.263 -237.015)" fill="#263238"/>
        <path id="Path_188469" data-name="Path 188469" d="M640.742,433.13a21.387,21.387,0,0,0-.1,2.314,19.289,19.289,0,0,0,.036,2.314A39.513,39.513,0,0,0,640.742,433.13Z" transform="translate(-553.684 -235.056)" fill="#263238"/>
        <path id="Path_188470" data-name="Path 188470" d="M646.74,442.706a6.35,6.35,0,0,0,1.643.164,6.216,6.216,0,0,0,1.65-.129c0-.036-.714,0-1.643,0S646.747,442.67,646.74,442.706Z" transform="translate(-555.432 -237.789)" fill="#263238"/>
        <path id="Path_188471" data-name="Path 188471" d="M643.65,442.7s.064.157.136.329.121.321.157.314.057-.179,0-.371S643.679,442.677,643.65,442.7Z" transform="translate(-554.549 -237.789)" fill="#263238"/>
        <path id="Path_188472" data-name="Path 188472" d="M642.49,441.249a.763.763,0,0,0,.164.264c.114.114.229.193.257.164s-.043-.143-.157-.257S642.519,441.227,642.49,441.249Z" transform="translate(-554.218 -237.374)" fill="#263238"/>
        <path id="Path_188473" data-name="Path 188473" d="M640.83,440.564c0,.036.157.036.321.093s.286.15.314.121-.064-.179-.271-.25S640.815,440.528,640.83,440.564Z" transform="translate(-553.743 -237.161)" fill="#263238"/>
        <path id="Path_188474" data-name="Path 188474" d="M639.64,440.269c0,.036.05.093.143.129s.186.036.193,0-.05-.093-.143-.129S639.654,440.234,639.64,440.269Z" transform="translate(-553.403 -237.088)" fill="#263238"/>
        <path id="Path_188475" data-name="Path 188475" d="M587.194,202.137s-17.465,7.386-18.022,7.143-.964-13.779-.964-13.779l-8.714-.321s-1.629,20.615,3.571,23.957c7.143,4.571,24.486-4.936,24.486-4.936Z" transform="translate(-530.436 -167.072)" fill="#ffbe9d"/>
        <path id="Path_188476" data-name="Path 188476" d="M608.76,187.233v-4.086s-4.407-.464-4.679-4.836,0-14.45,0-14.45l8.029-3.921,8.829,6.686-.929,20.807a5.614,5.614,0,0,1-5.607,5.357h0a5.607,5.607,0,0,1-5.643-5.557Z" transform="translate(-543.21 -157.004)" fill="#ffbe9d"/>
        <path id="Path_188477" data-name="Path 188477" d="M605.4,175.5a.564.564,0,1,0,.557-.557A.557.557,0,0,0,605.4,175.5Z" transform="translate(-543.621 -161.289)" fill="#263238"/>
        <path id="Path_188478" data-name="Path 188478" d="M604.636,174.59c.071.079.486-.279,1.093-.307s1.05.257,1.114.179-.043-.171-.243-.307a1.471,1.471,0,0,0-.9-.236,1.429,1.429,0,0,0-.857.343C604.665,174.419,604.6,174.562,604.636,174.59Z" transform="translate(-543.4 -160.997)" fill="#263238"/>
        <path id="Path_188479" data-name="Path 188479" d="M614.48,175.5a.557.557,0,1,0,.557-.557A.557.557,0,0,0,614.48,175.5Z" transform="translate(-546.215 -161.289)" fill="#263238"/>
        <path id="Path_188480" data-name="Path 188480" d="M613.994,174.59c.071.079.486-.279,1.086-.307s1.057.257,1.121.179-.05-.171-.243-.307a1.493,1.493,0,0,0-1.764.107C613.994,174.419,613.951,174.562,613.994,174.59Z" transform="translate(-546.072 -160.997)" fill="#263238"/>
        <path id="Path_188481" data-name="Path 188481" d="M610.363,179.906a2.858,2.858,0,0,1-.993.093,1.384,1.384,0,0,1-.279,0,.407.407,0,0,1-.286-.25.979.979,0,0,1,.05-.664l.386-1.257a16.488,16.488,0,0,1,1.214-3.157,15.19,15.19,0,0,1-.857,3.271l-.45,1.25a.807.807,0,0,0-.093.443c0,.079.129.114.286.121C609.948,179.784,610.363,179.841,610.363,179.906Z" transform="translate(-544.583 -161.212)" fill="#263238"/>
        <path id="Path_188482" data-name="Path 188482" d="M615,182.031c0,.5.779.857,1.707.879s1.707-.307,1.729-.8-.714-.979-1.707-1S615,181.538,615,182.031Z" transform="translate(-546.364 -163.052)" fill="#eb996e"/>
        <path id="Path_188483" data-name="Path 188483" d="M612.567,182.751c.614-.4-1.679,1.007-2.907,1.007a1.664,1.664,0,0,0,1.993.564C612.939,183.78,612.567,182.751,612.567,182.751Z" transform="translate(-544.838 -163.5)" fill="#fff"/>
        <path id="Path_188484" data-name="Path 188484" d="M610.34,191.647a10.857,10.857,0,0,0,5.786-1.957s-1.314,3.214-5.714,3.029Z" transform="translate(-545.032 -165.503)" fill="#eb996e"/>
        <path id="Path_188485" data-name="Path 188485" d="M627.11,169.094v.779c-.093-.807-.321-2.65-.45-3.15a13.981,13.981,0,0,0-11.979-10.814c-1.7,0-4.672-.929-9.007,3.571a8.421,8.421,0,0,0-1.936,9.329l.714-.671,6.429-1.65a8,8,0,0,1,.657-4.857l.043-.043c1.271,6.543,8.479,7.221,8.479,7.221l-.607,12.143C628.024,179.144,627.11,169.094,627.11,169.094Z" transform="translate(-542.959 -155.829)" fill="#263238"/>
        <path id="Path_188486" data-name="Path 188486" d="M636.185,172.82a2.329,2.329,0,0,1,1.757-2.3,4.207,4.207,0,0,1,3.036.479,3.571,3.571,0,0,1,2.014,2.3c.243,1.257-.571,2.457-1.386,3.457a7.143,7.143,0,0,1-1.693,1.657,2.678,2.678,0,0,1-2.279.35,2.857,2.857,0,0,1-1.429-1.357,5.229,5.229,0,0,1,1.121-6.336" transform="translate(-552.248 -159.998)" fill="#263238"/>
        <path id="Path_188487" data-name="Path 188487" d="M610.682,159.149a18.113,18.113,0,0,1-2.029.671,10.428,10.428,0,0,0-6.579,7.071,16.2,16.2,0,0,1-.529,2.064c-.121-.007-.229-.836,0-2.186a9.543,9.543,0,0,1,6.936-7.45A4.027,4.027,0,0,1,610.682,159.149Z" transform="translate(-542.482 -156.756)" fill="#263238"/>
        <path id="Path_188488" data-name="Path 188488" d="M628.421,180.329a5.471,5.471,0,0,1,.229-2.143,2.05,2.05,0,0,1,1.579-1.357A1.729,1.729,0,0,1,632,178.258a2.143,2.143,0,0,1-1.079,2.1,2.786,2.786,0,0,1-2.429.071" transform="translate(-550.191 -161.829)" fill="#ffbe9d"/>
        <path id="Path_188489" data-name="Path 188489" d="M630.23,180.255c0-.057.171-.114.379-.3a1.293,1.293,0,0,0,.45-.907,1.257,1.257,0,0,0-.414-.921c-.2-.193-.379-.264-.364-.321s.221-.071.521.107a1.307,1.307,0,0,1-.043,2.257C630.451,180.333,630.23,180.3,630.23,180.255Z" transform="translate(-550.715 -162.097)" fill="#eb996e"/>
        <path id="Path_188490" data-name="Path 188490" d="M611.47,173.9v-.214a2.581,2.581,0,0,1,.064-.636,3.414,3.414,0,0,1,1.236-1.971,3.577,3.577,0,1,1,0,5.65,3.415,3.415,0,0,1-1.236-1.971,2.584,2.584,0,0,1-.064-.636c0-.143,0-.221,0-.221a2.79,2.79,0,0,0,.179.821,3.4,3.4,0,0,0,1.257,1.8,3.264,3.264,0,1,0,0-5.236,3.4,3.4,0,0,0-1.257,1.8C611.505,173.6,611.505,173.908,611.47,173.9Z" transform="translate(-545.355 -159.971)" fill="#263238"/>
        <path id="Path_188491" data-name="Path 188491" d="M600.42,173.9v-.214a2.575,2.575,0,0,1,.064-.636,3.415,3.415,0,0,1,1.236-1.971,3.577,3.577,0,1,1,0,5.65,3.415,3.415,0,0,1-1.236-1.971,2.575,2.575,0,0,1-.064-.636V173.9a2.791,2.791,0,0,0,.179.821,3.422,3.422,0,0,0,1.25,1.8,3.307,3.307,0,0,0,3.107.436,3.257,3.257,0,0,0,0-6.107,3.307,3.307,0,0,0-3.107.436,3.422,3.422,0,0,0-1.25,1.8C600.448,173.6,600.455,173.908,600.42,173.9Z" transform="translate(-542.198 -159.971)" fill="#263238"/>
        <path id="Path_188492" data-name="Path 188492" d="M610,175.416c0-.107.279-.186.629-.186s.629.079.629.186-.286.186-.629.186S610,175.516,610,175.416Z" transform="translate(-544.935 -161.372)" fill="#263238"/>
        <path id="Path_188493" data-name="Path 188493" d="M620.9,176.34a13.108,13.108,0,0,1,3.064.414,12.971,12.971,0,0,1,3,.779,12.7,12.7,0,0,1-3.071-.414A12.972,12.972,0,0,1,620.9,176.34Z" transform="translate(-548.049 -161.689)" fill="#263238"/>
        <path id="Path_188494" data-name="Path 188494" d="M593.18,275.194l5.471,115.523,17.536.371-4.55-99.83,11.872,99.408,17.907.443L627.4,273.93" transform="translate(-540.13 -189.571)" fill="#263238"/>
        <path id="Path_188495" data-name="Path 188495" d="M610.294,391.544c-.1,0-1.364-25.815-2.814-57.665s-2.55-57.672-2.443-57.679,1.4,25.807,2.829,57.665S610.4,391.537,610.294,391.544Z" transform="translate(-543.515 -190.22)" fill="#455a64"/>
        <path id="Path_188496" data-name="Path 188496" d="M643.566,391.557c-.107,0-3.257-25.057-7.043-55.993s-6.771-56.029-6.664-56.043,3.25,25.057,7.036,56S643.666,391.55,643.566,391.557Z" transform="translate(-550.608 -191.168)" fill="#455a64"/>
        <path id="Path_188497" data-name="Path 188497" d="M626.7,226.339l8.986-11.236-11.043-11.136h0a19.764,19.764,0,0,0-7.621-4.936,15.714,15.714,0,0,0-4.371-.879v-.893l-4.843.093s-.25.764-.514,1.629c-.257.714-.386,2.1-.714,2.1s-.8-1.429-1.271-2.143l-.829-1.664-4.471-.214v1.121a27.315,27.315,0,0,0-8.429,2.521h0l-16.493,6.686,5.286,14.579,11.186-3.764c-.071.2-.15.4-.207.607a7.143,7.143,0,0,0,1.814,6.979l-.214,11.757-5,15.657,34.222.357-3.893-16.907,1.771-16.757Z" transform="translate(-534.961 -167.609)" fill="#455a64"/>
        <path id="Path_188498" data-name="Path 188498" d="M614.31,197.63a2.923,2.923,0,0,1-.236,1.036l-.35,1.079c-.079.207-.136.407-.236.65a.657.657,0,0,1-.3.357.528.528,0,0,1-.521-.036,17.362,17.362,0,0,1-2.857-2.143,17.651,17.651,0,0,1,3.064,1.829c.264.25.393-.386.557-.757l.429-1.057a3.194,3.194,0,0,1,.45-.957Z" transform="translate(-544.881 -167.772)" fill="#263238"/>
        <path id="Path_188499" data-name="Path 188499" d="M626.223,198.741a9.942,9.942,0,0,1-2.929,2.979l-.25.179-.15.107-.107-.157a9.092,9.092,0,0,1-1.607-3.529c.1,0,.714,1.564,1.914,3.321l-.257-.05.236-.171C624.93,200.091,626.137,198.67,626.223,198.741Z" transform="translate(-548.129 -167.969)" fill="#263238"/>
        <path id="Path_188500" data-name="Path 188500" d="M617.183,255.055a2.513,2.513,0,0,1-.043-.529c0-.386,0-.893-.05-1.529v-5.614c.086-4.743.307-11.286.586-18.514s.521-13.736.714-18.507c.057-2.343.107-4.286.143-5.614v-1.521a2.42,2.42,0,0,1,.036-.536,4.763,4.763,0,0,0,.043.529c.043.343,0,.893.05,1.529v5.614c-.086,4.743-.307,11.293-.593,18.522s-.514,13.736-.714,18.507c-.064,2.336-.114,4.243-.15,5.607v1.529A2.988,2.988,0,0,1,617.183,255.055Z" transform="translate(-546.961 -169.218)" fill="#263238"/>
        <path id="Path_188501" data-name="Path 188501" d="M622.822,214.748c0-.043.293-.093.557.25a.822.822,0,0,1,.143.714.843.843,0,0,1-.714.586.829.829,0,0,1-.836-.357.85.85,0,0,1-.071-.714c.157-.4.464-.443.464-.4a1.206,1.206,0,0,0-.207.471.65.65,0,0,0,.1.464.521.521,0,0,0,.493.171.5.5,0,0,0,.421-.314.629.629,0,0,0-.036-.471C623.03,214.862,622.808,214.8,622.822,214.748Z" transform="translate(-548.322 -172.654)" fill="#263238"/>
        <path id="Path_188502" data-name="Path 188502" d="M623.074,231.308c0-.043.257-.086.5.2a.764.764,0,0,1,.15.614.723.723,0,0,1-1.307.214.665.665,0,0,1,0-.643c.2-.336.5-.286.479-.236a.808.808,0,0,0-.243.343.357.357,0,0,0,.414.493.422.422,0,0,0,.286-.643C623.245,231.429,623.067,231.365,623.074,231.308Z" transform="translate(-548.459 -177.385)" fill="#263238"/>
        <path id="Path_188503" data-name="Path 188503" d="M584.036,224.75a15.009,15.009,0,0,1-.871-2.071c-.543-1.393-1.229-3.121-1.979-5.036l-2.071-5a14.713,14.713,0,0,1-.814-2.093,12.28,12.28,0,0,1,1.05,1.986c.6,1.25,1.386,3.007,2.179,5s1.429,3.771,1.886,5.093a11.641,11.641,0,0,1,.621,2.121Z" transform="translate(-535.878 -171.463)" fill="#263238"/>
        <path id="Path_188504" data-name="Path 188504" d="M653.9,220.189a67.338,67.338,0,0,1-5,5.414,72.835,72.835,0,0,1-5.243,5.157,71.592,71.592,0,0,1,5-5.414A71.273,71.273,0,0,1,653.9,220.189Z" transform="translate(-554.552 -174.217)" fill="#263238"/>
        <path id="Path_188505" data-name="Path 188505" d="M10.414,0h3.4A10.443,10.443,0,0,1,24.286,10.472V33.629H0V10.472A10.443,10.443,0,0,1,10.414,0Z" transform="translate(69.4 89.59) rotate(-101.67)" fill="#ffb500"/>
        <path id="Path_188506" data-name="Path 188506" d="M666.383,232.22,629.9,239.763h0a2.757,2.757,0,0,1,2.143-3.257l31.093-6.429a2.757,2.757,0,0,1,3.257,2.143Z" transform="translate(-550.603 -177.026)" fill="#ffb500"/>
        <g id="Group_107817" data-name="Group 107817" transform="translate(84.351 58.887)" opacity="0.4">
          <path id="Path_188507" data-name="Path 188507" d="M650.529,238.27a11.171,11.171,0,0,1-1.957.536c-1.214.293-2.9.657-4.764,1.05s-3.571.714-4.8.936a11.112,11.112,0,0,1-2.007.286,10.751,10.751,0,0,1,1.95-.543c1.221-.286,2.907-.657,4.772-1.043s3.571-.714,4.793-.936a11.218,11.218,0,0,1,2.014-.286Z" transform="translate(-637 -238.27)"/>
        </g>
        <g id="Group_107818" data-name="Group 107818" transform="translate(84.238 66.587)" opacity="0.3">
          <path id="Path_188508" data-name="Path 188508" d="M651.855,250.736c-.086-.564-.171-1.129-.25-1.686a87.856,87.856,0,0,0-11.736,11.486,13.765,13.765,0,0,0-2.593,3.879,5.121,5.121,0,0,0,.193,4.521l9.479-2.143Z" transform="translate(-636.841 -249.05)"/>
        </g>
        <path id="Path_188509" data-name="Path 188509" d="M662.258,248.736a10.943,10.943,0,0,0-.05-14.422L653.093,224l-7.236,8.964c.321.214,7.8,9.093,7.8,9.093l-11.429,14.236c-1.757,2.2-2.714,5.286-1.8,7.95l1.521,3.193a4.7,4.7,0,0,0,6.15,2.257l2.736-1.229a1.014,1.014,0,0,0,.257-1.693l-.672-.579a2.335,2.335,0,0,0-1.779-.571l-3.479.357-.164-.643h0Z" transform="translate(-553.528 -175.306)" fill="#ffbe9d"/>
        <path id="Path_188510" data-name="Path 188510" d="M653.359,283.756a7.64,7.64,0,0,1-1.1.414,7.942,7.942,0,0,1-2.8.657,2.314,2.314,0,0,1-1.471-.714,3.829,3.829,0,0,1-.757-1.079,1.871,1.871,0,0,1-.264-1.164c.064,0,.128.436.493,1.043a4.207,4.207,0,0,0,.764.95,2.143,2.143,0,0,0,1.257.614,10.714,10.714,0,0,0,2.7-.536A2.515,2.515,0,0,1,653.359,283.756Z" transform="translate(-555.494 -191.84)" fill="#eb996e"/>
        <path id="Path_188511" data-name="Path 188511" d="M652.475,283a9.929,9.929,0,0,1-2.621.921,2.857,2.857,0,0,1-2.014-.186c-.471-.264-.607-.6-.571-.614a4.837,4.837,0,0,0,.714.379,3.057,3.057,0,0,0,1.821.057A10.67,10.67,0,0,1,652.475,283Z" transform="translate(-555.581 -192.163)" fill="#eb996e"/>
      </g>
      <g id="freepik--character-1--inject-36" transform="translate(89.614 129.997)">
        <path id="Path_188512" data-name="Path 188512" d="M112.834,263.451c-.329-.086-6.822,9.45-7.036,17.657a21.086,21.086,0,0,0,.086,2.407,30.136,30.136,0,0,0,2.05,8.364c5.486,13.864,11.15,30.307,11.243,34.05.286,11.543,5.279,63.358,5.279,63.358l10.95.286,1.743-63.636-3.886-63.008Z" transform="translate(-103.232 -187.598)" fill="#ffbe9d"/>
        <path id="Path_188513" data-name="Path 188513" d="M144.92,275.12s14.807,48.058,13.879,63.572-12.214,54.143-12.214,54.143Z" transform="translate(-114.411 -191.081)" fill="#eb996e"/>
        <path id="Path_188514" data-name="Path 188514" d="M107.633,263.76s-8.243,10.614-2.457,27.315c5.714,16.579,1.621,36.829,1.621,36.829s7.293-5.471,12.464-3.057c5.886,2.75,9.807,6.036,17.143,2.857,7.622-3.329,13.679-5.2,20.643,1.314l-10.772-37.572-6.229-23.922Z" transform="translate(-102.467 -187.835)" fill="#263238"/>
        <path id="Path_188515" data-name="Path 188515" d="M162.563,239.673c-1.807-.164-5.057-16.743-5.057-16.743l-13.357,4.464s-.4,2.521,7.643,18.572c0,0,4.736,8.429,10.65,8.043Z" transform="translate(-114.189 -176.17)" fill="#eb996e"/>
        <path id="Path_188516" data-name="Path 188516" d="M131.345,200.383s10.114-.993,14.822,11.293h0l.043.114c.086.229.164.464.25.714l3.936,11.079-10.843,5.407v1.229l1.179,22.222-34.586-6.536,2.793-4.021c2.686-3.707,2.079-8.914.979-13.357l-.371-1.514-4.686,2.45a31.564,31.564,0,0,1-2.529-15.45c0-.136,0-.264,0-.393a15.529,15.529,0,0,1,16.543-14.064Z" transform="translate(-102.207 -169.48)" fill="#ffb500"/>
        <g id="Group_107819" data-name="Group 107819" transform="translate(12.566 43.717)" opacity="0.3">
          <path id="Path_188517" data-name="Path 188517" d="M119.8,218.67c1.907,7.207,5.429,14.414,8.972,20.965.343.636,1.093,1.35,1.636.886.414-.35.193-1.021-.057-1.5L119.8,218.67" transform="translate(-119.8 -218.67)"/>
        </g>
        <path id="Path_188518" data-name="Path 188518" d="M153.28,224.16a9.686,9.686,0,0,1,.714,1.686c.379,1.057.914,2.5,1.429,4.157a6.264,6.264,0,0,1,.264,2.45,5.922,5.922,0,0,1-.607,1.914,6.428,6.428,0,0,1-.979,1.55,15.231,15.231,0,0,1,.714-1.657,6.114,6.114,0,0,0,.507-1.843,6.207,6.207,0,0,0-.279-2.314c-.486-1.564-.929-2.979-1.307-4.179A8.371,8.371,0,0,1,153.28,224.16Z" transform="translate(-116.799 -176.521)" fill="#263238"/>
        <path id="Path_188519" data-name="Path 188519" d="M143.642,172.64a8.436,8.436,0,0,0,4.021,7.179A17.925,17.925,0,0,1,149.649,181a2.507,2.507,0,0,1,1.071,1.957c-.05,1.207-1.271,1.979-2.35,2.529a2.993,2.993,0,1,1-4.286,4.136,5.5,5.5,0,0,1-4.043,4.886,7.657,7.657,0,0,1-6.429-1.321,12.907,12.907,0,0,1-4.093-5.314" transform="translate(-110.011 -161.801)" fill="#263238"/>
        <path id="Path_188520" data-name="Path 188520" d="M155,176.484a.777.777,0,0,1,.136.521,1.636,1.636,0,0,1-.714,1.271,2.214,2.214,0,0,1-2.179,0,4.636,4.636,0,0,1-1.886-1.857,11.708,11.708,0,0,1-1.521-4.493,5.758,5.758,0,0,1,0-1.957c.057,0,.079.714.293,1.921a13.451,13.451,0,0,0,1.586,4.336,4.493,4.493,0,0,0,1.664,1.8,2,2,0,0,0,1.879.057,1.543,1.543,0,0,0,.714-1.057C155.037,176.677,154.965,176.492,155,176.484Z" transform="translate(-115.506 -161.039)" fill="#263238"/>
        <path id="Path_188521" data-name="Path 188521" d="M136.786,190.123c.157-2.743.35-5.464.35-5.464s4.386-.464,4.65-4.814,0-14.364,0-14.364l-7.986-3.9-8.8,6.65.9,21.807a5.436,5.436,0,0,0,5.107,5.207h0a5.429,5.429,0,0,0,5.779-5.121Z" transform="translate(-108.719 -158.642)" fill="#ffbe9d"/>
        <path id="Path_188522" data-name="Path 188522" d="M146.834,177.047a.557.557,0,1,1-.557-.557A.557.557,0,0,1,146.834,177.047Z" transform="translate(-114.639 -162.901)" fill="#263238"/>
        <path id="Path_188523" data-name="Path 188523" d="M147.115,176.15c-.071.071-.479-.279-1.079-.307s-1.05.25-1.114.171.043-.164.243-.3a1.471,1.471,0,0,1,1.75.107C147.115,175.979,147.173,176.115,147.115,176.15Z" transform="translate(-114.406 -162.612)" fill="#263238"/>
        <path id="Path_188524" data-name="Path 188524" d="M137.807,177.047a.55.55,0,0,1-.55.557.557.557,0,0,1,0-1.114.55.55,0,0,1,.55.557Z" transform="translate(-112.062 -162.901)" fill="#263238"/>
        <path id="Path_188525" data-name="Path 188525" d="M137.855,176.15c-.071.071-.486-.279-1.086-.307s-1.043.25-1.107.171.043-.164.243-.3a1.471,1.471,0,0,1,1.75.107C137.834,175.979,137.891,176.115,137.855,176.15Z" transform="translate(-111.76 -162.612)" fill="#263238"/>
        <path id="Path_188526" data-name="Path 188526" d="M141.717,181.376a3.8,3.8,0,0,1,.979-.121c.15,0,.307,0,.343-.143a.793.793,0,0,0-.086-.479c-.136-.407-.271-.807-.407-1.236-.286-.871-.536-1.671-.714-2.25a3.936,3.936,0,0,1-.221-.957,4.2,4.2,0,0,1,.379.9c.207.571.479,1.364.764,2.243.129.421.257.829.393,1.236a.914.914,0,0,1,.05.621.507.507,0,0,1-.507.229A4.672,4.672,0,0,1,141.717,181.376Z" transform="translate(-113.465 -162.816)" fill="#263238"/>
        <path id="Path_188527" data-name="Path 188527" d="M138.96,184.261c-.6-.4,1.679,1,2.9,1a1.664,1.664,0,0,1-1.986.564C138.589,185.283,138.96,184.261,138.96,184.261Z" transform="translate(-112.68 -165.101)" fill="#fff"/>
        <path id="Path_188528" data-name="Path 188528" d="M139.7,193.11a10.864,10.864,0,0,1-5.757-1.95s1.307,3.193,5.664,3.014Z" transform="translate(-111.274 -167.093)" fill="#eb996e"/>
        <path id="Path_188529" data-name="Path 188529" d="M135.9,161.112c-4.286-4.471-7.264-3.571-8.957-3.571a13.572,13.572,0,0,0-9.414,5.436h0a18.889,18.889,0,0,0-3.114,6.757,34.012,34.012,0,0,0,.043,4.35,5.274,5.274,0,0,1-1.429,3.979c-.714.607-1.657.957-2.071,1.779a2.307,2.307,0,0,0,.957,2.786,5.193,5.193,0,0,0,3.1.636,4.386,4.386,0,0,0,3.571,4.664,4.236,4.236,0,0,0,3.071-.793,24.722,24.722,0,0,0,2.314,1.986q.271-9.486-.4-18.964c2.9-.514,8.1-2.079,9.007-6.721,1.157,2.643,2.914,4.086,5.25,6.086C137.846,169.526,140.232,165.59,135.9,161.112Z" transform="translate(-104.666 -157.466)" fill="#263238"/>
        <path id="Path_188530" data-name="Path 188530" d="M129.15,170.756a7.142,7.142,0,0,1,1.779,0,9.236,9.236,0,0,0,4.121-.486,3.879,3.879,0,0,0,1.721-1.393,4.814,4.814,0,0,0,.714-1.714c.207-1.05.107-1.736.171-1.743a3.657,3.657,0,0,1,.1,1.793,4.686,4.686,0,0,1-.664,1.857,4.129,4.129,0,0,1-1.864,1.557,8.507,8.507,0,0,1-4.286.4A9.635,9.635,0,0,1,129.15,170.756Z" transform="translate(-109.905 -159.739)" fill="#263238"/>
        <path id="Path_188531" data-name="Path 188531" d="M113.31,181.549a2.236,2.236,0,0,0,.714-.1,1.914,1.914,0,0,0,1.179-1.429,4.757,4.757,0,0,0-.529-2.814,11.429,11.429,0,0,1-.614-1.693,5.714,5.714,0,0,1-.121-1.95,7.943,7.943,0,0,1,1.293-3.5,13.4,13.4,0,0,1,1.964-2.314c.621-.6,1.157-1.043,1.529-1.343a2.55,2.55,0,0,1,.607-.436,22.647,22.647,0,0,1-1.943,1.971,14.558,14.558,0,0,0-1.857,2.307,8,8,0,0,0-1.214,3.35,5.758,5.758,0,0,0,.107,1.829A11.722,11.722,0,0,0,115,177.07a4.85,4.85,0,0,1,.464,3.014,2.029,2.029,0,0,1-1.393,1.486,1.243,1.243,0,0,1-.571,0C113.367,181.592,113.31,181.563,113.31,181.549Z" transform="translate(-105.38 -159.896)" fill="#263238"/>
        <path id="Path_188532" data-name="Path 188532" d="M142.223,441.553v-1.429l-11.293-.214v4.407l.714.043c3.107.179,15.807.671,17.857.043C151.787,443.717,142.223,441.553,142.223,441.553Z" transform="translate(-110.414 -238.162)" fill="#ffb500"/>
        <g id="Group_107820" data-name="Group 107820" transform="translate(20.481 202.995)" opacity="0.6">
          <path id="Path_188533" data-name="Path 188533" d="M134.944,444.888a3.929,3.929,0,0,0-1.429-2.4,3.793,3.793,0,0,0-2.636-.821v3.143Z" transform="translate(-130.88 -441.657)" fill="#fff"/>
        </g>
        <g id="Group_107821" data-name="Group 107821" transform="translate(20.452 204.612)" opacity="0.6">
          <path id="Path_188534" data-name="Path 188534" d="M146.854,443.92s3.35.964,2.936,1.521-13.279.529-18.95,0v-.25l15,.143S146.2,443.977,146.854,443.92Z" transform="translate(-130.84 -443.92)" fill="#fff"/>
        </g>
        <path id="Path_188535" data-name="Path 188535" d="M130.76,445.61h.193l.557.036,2.043.093c1.729.064,4.121.121,6.757.129s5-.043,6.757-.1l2.05-.086h-.007l-2.043.036c-1.729,0-4.121.064-6.757.064s-5-.05-6.757-.093l-2.043-.043h-.557Z" transform="translate(-110.365 -239.791)" fill="#263238"/>
        <path id="Path_188536" data-name="Path 188536" d="M151.858,445.544a4.792,4.792,0,0,1,.386-.979,4.522,4.522,0,0,1,.714-.786,1.543,1.543,0,0,0-.814.714A1.579,1.579,0,0,0,151.858,445.544Z" transform="translate(-116.391 -239.268)" fill="#263238"/>
        <path id="Path_188537" data-name="Path 188537" d="M146.908,443.136a1.368,1.368,0,0,0,.357-.429,1.25,1.25,0,0,0,.243-.507,1.345,1.345,0,0,0-.357.436C146.987,442.9,146.88,443.114,146.908,443.136Z" transform="translate(-114.977 -238.817)" fill="#263238"/>
        <path id="Path_188538" data-name="Path 188538" d="M145.639,442.584a1.815,1.815,0,0,0,.393-.264c.193-.171.336-.343.307-.371s-.2.093-.393.264S145.61,442.556,145.639,442.584Z" transform="translate(-114.615 -238.744)" fill="#263238"/>
        <path id="Path_188539" data-name="Path 188539" d="M144.83,441.323a1.351,1.351,0,0,0,.593.071,1.328,1.328,0,0,0,.586-.057,1.429,1.429,0,0,0-.586-.079C145.094,441.258,144.83,441.28,144.83,441.323Z" transform="translate(-114.385 -238.547)" fill="#263238"/>
        <path id="Path_188540" data-name="Path 188540" d="M144.56,440.3a1.171,1.171,0,0,0,.657.193,1.121,1.121,0,0,0,.671-.093,4.121,4.121,0,0,0-.664-.043,3.675,3.675,0,0,0-.664-.057Z" transform="translate(-114.308 -238.274)" fill="#263238"/>
        <path id="Path_188541" data-name="Path 188541" d="M147.45,441.74a2.056,2.056,0,0,0,.714,0,3.949,3.949,0,0,0,.771-.164,2.089,2.089,0,0,0,.443-.186.378.378,0,0,0,.179-.221.3.3,0,0,0-.107-.293,1.329,1.329,0,0,0-1.643.386,1.286,1.286,0,0,0-.236.486.443.443,0,0,0,0,.193,2.142,2.142,0,0,1,.336-.614,1.25,1.25,0,0,1,.614-.4,1.136,1.136,0,0,1,.864.057c.114.086.071.221-.057.3a2.856,2.856,0,0,1-.407.171,4.847,4.847,0,0,1-.75.193C147.729,441.718,147.45,441.718,147.45,441.74Z" transform="translate(-115.134 -238.399)" fill="#263238"/>
        <path id="Path_188542" data-name="Path 188542" d="M147.334,441.63a.672.672,0,0,0,.086-.5,1.2,1.2,0,0,0-.193-.529.714.714,0,0,0-.607-.371.286.286,0,0,0-.221.336.864.864,0,0,0,.121.321,2.058,2.058,0,0,0,.343.436,1.057,1.057,0,0,0,.414.293,4.6,4.6,0,0,1-.343-.357,2.55,2.55,0,0,1-.307-.436c-.093-.15-.164-.429,0-.457s.364.157.471.307a1.178,1.178,0,0,1,.207.471A2.609,2.609,0,0,1,147.334,441.63Z" transform="translate(-114.831 -238.254)" fill="#263238"/>
        <path id="Path_188543" data-name="Path 188543" d="M130.65,441.565h.836a3.671,3.671,0,0,1,1.814.75,3.622,3.622,0,0,1,1.129,1.607c.171.479.186.807.214.8a.592.592,0,0,0,0-.221,2.9,2.9,0,0,0-.121-.607,3.571,3.571,0,0,0-1.136-1.686,3.435,3.435,0,0,0-1.893-.714,2.784,2.784,0,0,0-.621,0,.763.763,0,0,0-.221.071Z" transform="translate(-110.334 -238.61)" fill="#263238"/>
        <path id="Path_188544" data-name="Path 188544" d="M138.25,444.125a9.329,9.329,0,0,0,3.293.036c0-.043-.714,0-1.65,0S138.257,444.082,138.25,444.125Z" transform="translate(-112.505 -239.363)" fill="#263238"/>
        <path id="Path_188545" data-name="Path 188545" d="M135.16,444.118s.057.15.136.321.114.321.15.314.064-.179,0-.371S135.181,444.09,135.16,444.118Z" transform="translate(-111.622 -239.363)" fill="#263238"/>
        <path id="Path_188546" data-name="Path 188546" d="M134,442.668a.685.685,0,0,0,.157.257c.114.114.236.193.264.171s-.05-.15-.164-.264S134,442.639,134,442.668Z" transform="translate(-111.291 -238.949)" fill="#263238"/>
        <path id="Path_188547" data-name="Path 188547" d="M132.33,441.976c0,.043.157.036.321.1s.286.143.314.121-.064-.186-.264-.257A.452.452,0,0,0,132.33,441.976Z" transform="translate(-110.814 -238.735)" fill="#263238"/>
        <path id="Path_188548" data-name="Path 188548" d="M131.15,441.679c0,.036.05.093.143.129s.179.036.193,0-.05-.093-.143-.129S131.164,441.644,131.15,441.679Z" transform="translate(-110.477 -238.66)" fill="#263238"/>
        <path id="Path_188549" data-name="Path 188549" d="M113.48,255.05s1.286,9.907,10.929,9.55a146.723,146.723,0,0,0,19.229-2.143l-.1-1.879Z" transform="translate(-105.428 -185.347)" opacity="0.3"/>
        <path id="Path_188550" data-name="Path 188550" d="M167.474,242.123c-.857-1.379-6.75,1.907-7.271,2.143s-.886-.507-.407-.714c.714-.279,7.857-3.364,7.05-4.721-.457-.714-1.729.193-1.729.193s-6.514,3.386-6.879,2.729,3.379-2.779,4.693-3.4,1.543-1.486.786-1.836c-.507-.236-4.586,1.579-5.871,2.221s-4.793,2.486-3.8.179.879-4.457.443-5a.786.786,0,0,0-1.35.621,9.2,9.2,0,0,1-.536,2.471,6.021,6.021,0,0,1-.943,1.8c-.486.636-.921,1.15-1.307,1.579-3.757,1.314-14.479,4.636-24.493,3.721-1.814-.164-6.429-12.279-6.429-12.279l-12.472,6.429s-.229.679,5.457,11.743c7.743,15.064,42.722-.564,42.722-.564V249.4a75.91,75.91,0,0,0,7.857-2c3.514-1.271,3.407-1.593,3.186-1.971-.586-1.036-6.271,2-5.429.636S168.132,243.173,167.474,242.123Z" transform="translate(-103.565 -178.712)" fill="#ffbe9d"/>
      </g>
    </g>
  </g>
</svg>
