<svg xmlns="http://www.w3.org/2000/svg" xmlns:xlink="http://www.w3.org/1999/xlink" width="143" height="143" viewBox="0 0 143 143">
  <defs>
    <filter id="Ellipse_4971" x="0" y="0" width="143" height="143" filterUnits="userSpaceOnUse">
      <feOffset dy="3" input="SourceAlpha"/>
      <feGaussianBlur stdDeviation="3" result="blur"/>
      <feFlood flood-opacity="0.161"/>
      <feComposite operator="in" in2="blur"/>
      <feComposite in="SourceGraphic"/>
    </filter>
  </defs>
  <g id="t4-ic1" transform="translate(-309 -2515)">
    <g transform="matrix(1, 0, 0, 1, 309, 2515)" filter="url(#Ellipse_4971)">
      <circle id="Ellipse_4971-2" data-name="Ellipse 4971" cx="62.5" cy="62.5" r="62.5" transform="translate(9 6)" fill="#fff"/>
    </g>
    <g id="Group_107800" data-name="Group 107800" transform="translate(-5774 14880)">
      <g id="unido" transform="translate(6114 -12336)">
        <g id="_83d9ffff" data-name="#83d9ffff" transform="translate(26.721 0)">
          <path id="Path_188319" data-name="Path 188319" d="M167.1,7.315A1.376,1.376,0,0,1,168.512,5.9c7.572-.014,15.144,0,22.716-.008a1.451,1.451,0,0,1,1.7,1.452c.006,2.664,0,5.328,0,7.993a1.46,1.46,0,0,1-.494,1.207c-.611.5-1.452.269-2.173.325q-10.209.019-20.418,0c-.528-.01-1.059.027-1.583-.026A1.355,1.355,0,0,1,167.1,15.5c-.014-2.727-.008-5.455,0-8.183m4.8,2.926a1.232,1.232,0,1,0,1.682,1.406A1.242,1.242,0,0,0,171.9,10.241Z" transform="translate(-167.095 -5.871)" fill="#4d8cc9"/>
        </g>
        <g id="_5186ffff" data-name="#5186ffff" transform="translate(30.783 4.264)">
          <path id="Path_188320" data-name="Path 188320" d="M193.244,32.639a1.232,1.232,0,1,1-.349,2.045A1.24,1.24,0,0,1,193.244,32.639Z" transform="translate(-192.498 -32.532)" fill="#3c6d9d"/>
        </g>
        <g id="_fecbaaff" data-name="#fecbaaff" transform="translate(9.17 10.992)">
          <path id="Path_188349" data-name="Path 188349" d="M183.02,74.61q10.209.029,20.418,0a17.032,17.032,0,0,0,.2,3.756,6.2,6.2,0,0,0,1.287,2.511,6.146,6.146,0,0,1,1.289,2.368,15.66,15.66,0,0,1,.24,3.9c.024,4.151-.053,8.306.04,12.457-.08,3.739-.008,7.479-.038,11.218a3.481,3.481,0,0,1-.74,2.253,3,3,0,0,1-3.553.785,3.615,3.615,0,0,1-1.719-1.908c.038,1.7,0,3.4.027,5.093a5.047,5.047,0,0,1-.3,2.16,3.014,3.014,0,0,1-.966,1.127c-.061-7.545,0-15.093-.032-22.638a1.393,1.393,0,0,1,1.086-1.57c.611-.141,1.047.374,1.439.75.014-2.711,0-5.423.022-8.133a11.122,11.122,0,0,0-7.02-9.632,14.76,14.76,0,0,0-6.281-.891c-1.879-.019-3.76.04-5.637-.043A14.213,14.213,0,0,0,183.02,74.61Z" transform="translate(-162.72 -74.61)" fill="#fecbaa"/>
          <path id="Path_188350" data-name="Path 188350" d="M166.165,194.509a1.247,1.247,0,0,1,1.943-.341,2.158,2.158,0,0,1,.408,1.625c-.022,1.751,0,3.5-.013,5.253-.413-.05-.825-.093-1.233-.163a6.4,6.4,0,0,1-1.249-.453c0-1.55.008-3.1-.011-4.649A3.446,3.446,0,0,1,166.165,194.509Z" transform="translate(-148.632 -174.773)" fill="#fecbaa"/>
          <path id="Path_188351" data-name="Path 188351" d="M211.062,209.906a1.206,1.206,0,0,1,1.882-.6,1.469,1.469,0,0,1,.51,1.34c-.021,7.307-.006,14.615-.008,21.921-.006,1.193.046,2.388-.077,3.577a2.822,2.822,0,0,1-1.065-1.527,14.71,14.71,0,0,1-.158-2.6,8.192,8.192,0,0,1-1.118,1.235c-.026-.6-.04-1.2-.038-1.8,0-6.453.008-12.905,0-19.359A12.316,12.316,0,0,1,211.062,209.906Z" transform="translate(-186.407 -187.561)" fill="#fecbaa"/>
          <path id="Path_188352" data-name="Path 188352" d="M248.215,210.422a1.288,1.288,0,0,1,1.4-1.425,1.364,1.364,0,0,1,1.084,1.582c-.027,7.548.037,15.1-.035,22.644a4.013,4.013,0,0,1-1.195-1.545c-.006.856.019,1.711.006,2.565a3.288,3.288,0,0,1-1.255,1.948C248.2,227.6,248.212,219.011,248.215,210.422Z" transform="translate(-217.686 -187.492)" fill="#fecbaa"/>
          <path id="Path_188353" data-name="Path 188353" d="M282.32,231.2a5.518,5.518,0,0,1,5.48,1.217c1.908,1.879,3.792,3.782,5.685,5.677a5.835,5.835,0,0,1,1.684,3.232c.166,1.463.053,2.942.08,4.412a7.5,7.5,0,0,0,.286,1.919,9.327,9.327,0,0,0,2.741,3.721l-.046.136c-4.318,4.231-8.555,8.546-12.844,12.8q-.643.633-1.255,1.294l-.179.184c-.692-.678-1.343-1.4-2.084-2.026a6.349,6.349,0,0,0-3.649-1.4,5.822,5.822,0,0,1-3.539-1.638c-2.041-2.018-4.047-4.07-6.1-6.078a6.312,6.312,0,0,0,3.8-.8,5.5,5.5,0,0,0,2.362-3.064,11.281,11.281,0,0,0,.269-2.869,6.163,6.163,0,0,0,3.552-.991,5.468,5.468,0,0,0,2.368-4.46c.032-3.011-.035-6.024.034-9.035,1.153,1,2.154,2.154,3.262,3.2a1.322,1.322,0,0,0,1.49.347,1.224,1.224,0,0,0,.411-1.924C284.9,233.731,283.554,232.515,282.32,231.2Z" transform="translate(-234.8 -205.929)" fill="#fecbaa"/>
          <path id="Path_188354" data-name="Path 188354" d="M67.552,233.32a5.841,5.841,0,0,1,2.878-1.69q.753.794,1.45,1.639c-.744.824-1.591,1.546-2.33,2.375a1.219,1.219,0,0,0,.293,1.868,1.279,1.279,0,0,0,1.522-.217c.87-.784,1.626-1.687,2.5-2.471.216-.254.555-.13.836-.12.082,5.076-.006,10.153.043,15.23a5.452,5.452,0,0,0,3.71,5.028,7.428,7.428,0,0,0,2.779.249,6.209,6.209,0,0,0,3.146,2.755c-1.259,1.2-2.434,2.482-3.713,3.657A5.849,5.849,0,0,1,77.3,262.98a6.343,6.343,0,0,0-2.928.971,19.277,19.277,0,0,0-2.627,2.431l-.208-.176-.1-.09c-4.254-4.367-8.618-8.627-12.905-12.963-.36-.373-.748-.715-1.139-1.055l-.054-.061a10.786,10.786,0,0,0,2.565-3.209c1.081-2.463.051-5.24.806-7.765a6.473,6.473,0,0,1,1.884-2.784Q65.08,235.8,67.552,233.32Z" transform="translate(-57.34 -206.52)" fill="#fecbaa"/>
        </g>
        <g id="_fedfc5ff" data-name="#fedfc5ff" transform="translate(23.504 14.557)">
          <path id="Path_188355" data-name="Path 188355" d="M152.706,96.9c1.877.083,3.758.024,5.637.043a14.76,14.76,0,0,1,6.281.891,11.122,11.122,0,0,1,7.02,9.632c-.018,2.711-.008,5.423-.022,8.133-.392-.376-.828-.891-1.439-.75a1.393,1.393,0,0,0-1.086,1.57c.029,7.545-.029,15.093.032,22.638a3.237,3.237,0,0,1-3.5.01c.072-7.548.008-15.1.035-22.644a1.364,1.364,0,0,0-1.084-1.582,1.288,1.288,0,0,0-1.4,1.425c0,8.589-.018,17.18.01,25.769a5.2,5.2,0,0,1-1.23.52,3.63,3.63,0,0,1-2.348-.632c.123-1.19.07-2.384.077-3.577,0-7.307-.013-14.615.008-21.921a1.469,1.469,0,0,0-.51-1.34,1.206,1.206,0,0,0-1.882.6,12.319,12.319,0,0,0-.074,2.186c.01,6.454,0,12.907,0,19.359,0,.6.013,1.2.038,1.8a3.4,3.4,0,0,1-1.815.558,2.979,2.979,0,0,1-2.685-1.759,4.22,4.22,0,0,1-.267-1.732c.024-5.5-.011-10.993.018-16.489.016-1.751-.01-3.5.013-5.253a2.158,2.158,0,0,0-.408-1.625,1.247,1.247,0,0,0-1.943.341,3.446,3.446,0,0,0-.155,1.273c.019,1.55.013,3.1.011,4.649a5.55,5.55,0,0,1-2.877-3.52,8.551,8.551,0,0,1-.173-2.407q0-3.519,0-7.038a5.864,5.864,0,0,1,1.943-4.291C150.322,100.249,152.135,98.963,152.706,96.9Z" transform="translate(-146.981 -96.9)" fill="#fedfc5"/>
        </g>
        <g id="_ffae85ff" data-name="#ffae85ff" transform="translate(21.067 35.972)">
          <path id="Path_188356" data-name="Path 188356" d="M132.933,230.944a5.592,5.592,0,0,1,5.1,1.462l.451-.462c.408.07.82.114,1.233.163-.029,5.5.006,10.993-.018,16.489a4.22,4.22,0,0,0,.267,1.732,2.979,2.979,0,0,0,2.685,1.759,3.4,3.4,0,0,0,1.815-.558,8.192,8.192,0,0,0,1.118-1.235,14.707,14.707,0,0,0,.158,2.6,2.822,2.822,0,0,0,1.065,1.527,3.631,3.631,0,0,0,2.348.632c-.784.716-1.494,1.508-2.272,2.228a6.209,6.209,0,0,1-3.146-2.755,7.43,7.43,0,0,1-2.779-.249,5.452,5.452,0,0,1-3.71-5.028c-.05-5.077.038-10.155-.043-15.23-.281-.01-.62-.134-.836.12-.87.784-1.626,1.687-2.5,2.471a1.279,1.279,0,0,1-1.522.217,1.219,1.219,0,0,1-.293-1.868c.739-.828,1.586-1.551,2.33-2.375Q133.686,231.739,132.933,230.944Z" transform="translate(-131.74 -230.814)" fill="#ffae85"/>
          <path id="Path_188357" data-name="Path 188357" d="M268.1,230.89c.521.529,1.054,1.046,1.577,1.574a6.057,6.057,0,0,1,2.172-1.3c1.235,1.319,2.578,2.535,3.808,3.857a1.224,1.224,0,0,1-.411,1.924,1.322,1.322,0,0,1-1.49-.347c-1.108-1.046-2.109-2.2-3.262-3.2-.069,3.011,0,6.024-.034,9.035a5.468,5.468,0,0,1-2.368,4.46,6.163,6.163,0,0,1-3.552.991,11.281,11.281,0,0,1-.269,2.869,5.5,5.5,0,0,1-2.362,3.064,6.312,6.312,0,0,1-3.8.8c-.678-.64-1.327-1.311-1.986-1.972.013-.854-.013-1.71-.006-2.565a4.013,4.013,0,0,0,1.195,1.545,3.237,3.237,0,0,0,3.5-.01,3.015,3.015,0,0,0,.966-1.127,5.047,5.047,0,0,0,.3-2.16c-.024-1.7.011-3.4-.027-5.093a3.615,3.615,0,0,0,1.719,1.908,3,3,0,0,0,3.553-.785,3.481,3.481,0,0,0,.74-2.253C268.091,238.369,268.019,234.629,268.1,230.89Z" transform="translate(-236.224 -230.878)" fill="#ffae85"/>
        </g>
        <g id="_ff84a7ff" data-name="#ff84a7ff" transform="translate(0 55.079)">
          <path id="Path_188358" data-name="Path 188358" d="M6.139,350.782a1.379,1.379,0,0,1,1.762-.275A9.452,9.452,0,0,1,9.17,351.73l.054.061a18.859,18.859,0,0,0,1.994,2.128q5.632,5.637,11.268,11.274a8.53,8.53,0,0,0,.782.616l.1.09a10,10,0,0,1,1.38,1.506,1.509,1.509,0,0,1-.5,1.81q-2.526,2.519-5.044,5.045c-.4.4-.822.908-1.439.918-.691.062-1.156-.517-1.594-.951Q8.34,366.386.5,358.557A1.688,1.688,0,0,1,0,357.6v-.262a1.791,1.791,0,0,1,.534-.95q2.809-2.795,5.605-5.6m11.667,16.345a1.231,1.231,0,1,0,1.422,1.519A1.244,1.244,0,0,0,17.807,367.127Z" transform="translate(0 -350.301)" fill="#78b62e"/>
        </g>
        <g id="_fdd559ff" data-name="#fdd559ff" transform="translate(56.994 55.078)">
          <path id="Path_188359" data-name="Path 188359" d="M373.386,350.495a1.394,1.394,0,0,1,1.772.281q2.8,2.792,5.6,5.6a1.646,1.646,0,0,1,.529,1.083v.168a1.78,1.78,0,0,1-.5.92q-8.081,8.076-16.159,16.156a1.421,1.421,0,0,1-2.149-.062c-1.884-1.9-3.79-3.78-5.671-5.682a1.351,1.351,0,0,1-.155-1.749c.379-.477.852-.865,1.254-1.321q.614-.66,1.255-1.294c4.289-4.259,8.527-8.573,12.844-12.8.47-.419.87-.916,1.377-1.29m.441,5.573a1.231,1.231,0,1,0,1.825,1.211A1.239,1.239,0,0,0,373.827,356.068Z" transform="translate(-356.403 -350.29)" fill="#ffb500"/>
        </g>
        <g id="_ef6085ff" data-name="#ef6085ff" transform="translate(9.224 56.57)">
          <path id="Path_188360" data-name="Path 188360" d="M57.68,359.62c.39.341.779.683,1.139,1.055,4.287,4.335,8.651,8.6,12.905,12.963a8.538,8.538,0,0,1-.782-.616q-5.625-5.647-11.268-11.274A18.866,18.866,0,0,1,57.68,359.62Z" transform="translate(-57.68 -359.62)" fill="#4f781e"/>
          <path id="Path_188361" data-name="Path 188361" d="M106.114,455.371a1.231,1.231,0,1,1-.633,2.087A1.235,1.235,0,0,1,106.114,455.371Z" transform="translate(-97.531 -440.035)" fill="#4f781e"/>
        </g>
        <g id="_ff8812ff" data-name="#ff8812ff" transform="translate(73.796 60.691)">
          <path id="Path_188362" data-name="Path 188362" d="M462.093,385.558a1.231,1.231,0,1,1-.019,2.138A1.24,1.24,0,0,1,462.093,385.558Z" transform="translate(-461.471 -385.393)" fill="#ff8812"/>
        </g>
      </g>
      <g id="_000000ff" data-name="#000000ff" transform="translate(6114 -12336)">
        <path id="Path_188291" data-name="Path 188291" d="M25.94,8.551A2.555,2.555,0,0,1,28.454,6q11.2-.012,22.4,0a2.545,2.545,0,0,1,2.226,1.275,3.5,3.5,0,0,1,.341,1.921c-.022,2.509.026,5.018-.021,7.526a2.625,2.625,0,0,1-2.6,2.36,6.485,6.485,0,0,0,.4,2.886,24.269,24.269,0,0,0,1.6,2.412,6.878,6.878,0,0,1,.888,3.357c.013,4.578-.01,9.158.011,13.737q.281.276.561.555a6.68,6.68,0,0,1,3.62-1.143,6.481,6.481,0,0,1,4.662,1.887q2.281,2.276,4.556,4.559a11.277,11.277,0,0,1,1.993,2.324A7.055,7.055,0,0,1,70,52.7a1.581,1.581,0,0,1,1.217.107,1.221,1.221,0,0,1,.1,1.951,1.531,1.531,0,0,1-1.316.2,10.285,10.285,0,0,0,.217,2.971,5.458,5.458,0,0,0,1.542,2.335,2.614,2.614,0,0,1,3.665-.181c1.877,1.852,3.728,3.734,5.6,5.594a3.047,3.047,0,0,1,.849,1.53v.469a2.666,2.666,0,0,1-.824,1.786q-7.868,7.87-15.726,15.752a2.543,2.543,0,0,1-3.574.07C59.832,83.366,57.9,81.453,56,79.518a2.6,2.6,0,0,1,.12-3.571,6.752,6.752,0,0,0-2.074-1.663,6.01,6.01,0,0,0-2.076-.485,6.69,6.69,0,0,1-3.31-1.33c-1.54-1.327-2.9-2.853-4.375-4.254a1.543,1.543,0,0,1-.617-1.134A1.205,1.205,0,0,1,44.928,65.9a1.637,1.637,0,0,1,1.063.619c1.14,1.15,2.3,2.282,3.438,3.43a5.038,5.038,0,0,0,1.463,1.089c1.07.533,2.317.35,3.421.776a8.4,8.4,0,0,1,3.52,2.448q6.126-6.138,12.254-12.277a7.855,7.855,0,0,1-2.119-3.232,13.493,13.493,0,0,1-.363-4.31,7.709,7.709,0,0,0-.315-3.011,5.62,5.62,0,0,0-1.5-2.013c-1.682-1.671-3.342-3.365-5.031-5.028a4.129,4.129,0,0,0-4.767-.619c.943.947,1.882,1.9,2.832,2.838a1.539,1.539,0,0,1,.595,1.115A1.2,1.2,0,0,1,58.2,48.914a1.4,1.4,0,0,1-.985-.505c-1.179-1.18-2.346-2.373-3.531-3.547-.01,2.826.006,5.651-.008,8.477a4.1,4.1,0,0,1-2.372,3.652,4.29,4.29,0,0,1-3.409.037c-.088,1.7.357,3.616-.7,5.112a4.155,4.155,0,0,1-5.13,1.434A4.245,4.245,0,0,1,40.1,66.25,4.86,4.86,0,0,0,38.768,67c-1.559,1.58-3.134,3.146-4.7,4.719A6.978,6.978,0,0,1,31,73.584a21.369,21.369,0,0,0-3.066.652,6.807,6.807,0,0,0-2.178,1.7,2.742,2.742,0,0,1,.768,2.028,2.818,2.818,0,0,1-1.046,1.969q-2.475,2.476-4.949,4.957a3.091,3.091,0,0,1-1.647,1.047,2.57,2.57,0,0,1-2.405-.793q-5.143-5.172-10.3-10.326a1.353,1.353,0,0,1-.456-.862,1.2,1.2,0,0,1,1.143-1.292,1.305,1.305,0,0,1,1.012.461c3.505,3.5,6.987,7.023,10.508,10.5,1.945-1.93,3.891-3.86,5.8-5.824q-8-8.031-16.022-16.043-2.919,2.89-5.807,5.813c.665.734,1.414,1.386,2.074,2.124a1.186,1.186,0,0,1-1.671,1.673C2.084,70.766,1.473,70.093.82,69.46A2.639,2.639,0,0,1,0,67.685v-.441a3.075,3.075,0,0,1,1-1.721q2.6-2.591,5.188-5.2a2.645,2.645,0,0,1,1.956-.916,2.82,2.82,0,0,1,1.965.856,5.082,5.082,0,0,0,1.722-3.254c.1-1.5-.022-3,.064-4.5a6.782,6.782,0,0,1,2.009-4.307q2.72-2.723,5.442-5.445a6.569,6.569,0,0,1,4.167-1.884,6.959,6.959,0,0,1-.678-2.912c-.008-2.555,0-5.111,0-7.666a6.886,6.886,0,0,1,.838-3.347c.969-1.69,2.615-2.83,3.864-4.294a5.131,5.131,0,0,0,1.131-3.585,3.214,3.214,0,0,1-1.524-.411A2.584,2.584,0,0,1,25.938,16.4c0-2.615,0-5.229,0-7.844m2.407-.138c-.008,2.743-.035,5.485.014,8.228,1.685.016,3.371-.006,5.057.01a1.193,1.193,0,0,1,.155,2.381c-.838.04-1.678-.008-2.515.021a7.41,7.41,0,0,1-1.743,5.223c-.932,1.031-1.962,1.969-2.918,2.976A4.4,4.4,0,0,0,25.235,30.3q0,3.84,0,7.682a4.116,4.116,0,0,0,2.5,3.75.322.322,0,0,0,.432-.078c.046-1.388-.013-2.781.024-4.169A1.193,1.193,0,0,1,29.6,36.364a1.223,1.223,0,0,1,.98,1.3q0,11.032,0,22.065a1.717,1.717,0,0,0,1.406,1.788,1.693,1.693,0,0,0,1.969-1.633c.022-6.667,0-13.334.013-20A1.2,1.2,0,0,1,35.434,38.7a1.246,1.246,0,0,1,.929,1.351q0,11.276,0,22.554a1.694,1.694,0,1,0,3.381,0c-.043-7.519-.016-15.04-.022-22.559A1.248,1.248,0,0,1,40.8,38.7a1.193,1.193,0,0,1,1.343,1.183c.013,6.67,0,13.34,0,20.01a1.664,1.664,0,0,0,1.815,1.644,1.7,1.7,0,0,0,1.54-1.662c.018-6.657-.008-13.315.011-19.972A1.193,1.193,0,1,1,47.9,39.9c.021,4.473-.01,8.947.016,13.42a1.69,1.69,0,0,0,1.5,1.642,1.712,1.712,0,0,0,1.871-1.781q.007-12.555,0-25.113a4.865,4.865,0,0,0-.342-2.02c-.387-.983-1.259-1.658-1.708-2.608a8.336,8.336,0,0,1-.848-4.393q-4.608,0-9.216,0a1.208,1.208,0,0,1-1.238-.9,1.2,1.2,0,0,1,1.094-1.484c3.995-.05,7.994.043,11.987-.046-.021-2.735.018-5.469-.021-8.2-7.55-.018-15.1-.029-22.652.006M22.057,43.723a6.941,6.941,0,0,0-1.738,1.46Q18,47.5,15.684,49.822a4.529,4.529,0,0,0-1.158,1.762,8.241,8.241,0,0,0-.256,2.856,14.042,14.042,0,0,1-.328,4.2,7.731,7.731,0,0,1-2.154,3.344q6.117,6.15,12.253,12.283a8.976,8.976,0,0,1,2.759-2.14,7.4,7.4,0,0,1,2.611-.676A4.444,4.444,0,0,0,32.2,70.186q1.941-1.931,3.87-3.875a4.344,4.344,0,0,1-2.033-2.754,4.276,4.276,0,0,1-2.866.237,4.114,4.114,0,0,1-2.864-2.938,7.713,7.713,0,0,1-.13-1.938q0-7.016,0-14.033C26.947,46.1,25.737,47.34,24.5,48.554a1.194,1.194,0,1,1-1.7-1.678c1.019-1.036,2.055-2.06,3.082-3.09a4.111,4.111,0,0,0-3.827-.064M57.7,77.809c1.909,1.964,3.859,3.889,5.8,5.822,1.219-1.155,2.372-2.375,3.569-3.55,4.143-4.177,8.336-8.306,12.451-12.51-1.932-1.937-3.852-3.884-5.8-5.8Q65.679,69.763,57.7,77.809Z" transform="translate(0 -5.995)"/>
        <path id="Path_188292" data-name="Path 188292" d="M194.669,38.876a1.276,1.276,0,1,1-.83,1.407A1.282,1.282,0,0,1,194.669,38.876Z" transform="translate(-162.825 -33.553)"/>
        <path id="Path_188293" data-name="Path 188293" d="M147.271,84.756a1.2,1.2,0,1,1-.336,2.009A1.2,1.2,0,0,1,147.271,84.756Z" transform="translate(-123.095 -72.078)"/>
        <path id="Path_188294" data-name="Path 188294" d="M334.515,85.279a1.2,1.2,0,1,1-.568,2.021A1.217,1.217,0,0,1,334.515,85.279Z" transform="translate(-280.246 -72.569)"/>
        <path id="Path_188295" data-name="Path 188295" d="M121.9,100.846a1.2,1.2,0,1,1-.461,1.994A1.2,1.2,0,0,1,121.9,100.846Z" transform="translate(-101.719 -85.615)"/>
        <path id="Path_188296" data-name="Path 188296" d="M360.492,102.522a1.22,1.22,0,0,1,1.857,1.044,1.2,1.2,0,1,1-1.857-1.044Z" transform="translate(-302.389 -86.924)"/>
        <path id="Path_188297" data-name="Path 188297" d="M99.094,120.731a1.2,1.2,0,1,1-.019,2.109A1.2,1.2,0,0,1,99.094,120.731Z" transform="translate(-82.721 -102.257)"/>
        <path id="Path_188298" data-name="Path 188298" d="M383.768,123.546a1.2,1.2,0,1,1,.139,2.064A1.217,1.217,0,0,1,383.768,123.546Z" transform="translate(-321.968 -104.568)"/>
        <path id="Path_188299" data-name="Path 188299" d="M79.7,143.681a1.2,1.2,0,1,1-.216,2.041A1.206,1.206,0,0,1,79.7,143.681Z" transform="translate(-66.388 -121.556)"/>
        <path id="Path_188300" data-name="Path 188300" d="M403.686,147.826a1.216,1.216,0,0,1,1.69,1.231,1.2,1.2,0,1,1-1.69-1.231Z" transform="translate(-338.546 -125.05)"/>
        <path id="Path_188301" data-name="Path 188301" d="M64.114,169.261a1.2,1.2,0,1,1-.446,2.037A1.219,1.219,0,0,1,64.114,169.261Z" transform="translate(-53.165 -143.098)"/>
        <path id="Path_188302" data-name="Path 188302" d="M419.342,174.991a1.218,1.218,0,0,1,1.575,1.513,1.2,1.2,0,1,1-1.575-1.513Z" transform="translate(-351.642 -147.889)"/>
        <path id="Path_188303" data-name="Path 188303" d="M52.406,197.029a1.2,1.2,0,1,1-.3,2.063A1.218,1.218,0,0,1,52.406,197.029Z" transform="translate(-43.397 -166.399)"/>
        <path id="Path_188304" data-name="Path 188304" d="M430.6,204.292a1.2,1.2,0,1,1-.566,2.025A1.214,1.214,0,0,1,430.6,204.292Z" transform="translate(-360.969 -172.546)"/>
        <path id="Path_188305" data-name="Path 188305" d="M45.2,226.22a1.2,1.2,0,1,1-.328,2.108A1.207,1.207,0,0,1,45.2,226.22Z" transform="translate(-37.295 -190.942)"/>
        <path id="Path_188306" data-name="Path 188306" d="M436.65,235.126a1.205,1.205,0,1,1-.657,1.474A1.206,1.206,0,0,1,436.65,235.126Z" transform="translate(-366.22 -198.399)"/>
        <path id="Path_188307" data-name="Path 188307" d="M42.416,256.193a1.2,1.2,0,1,1-.329,2.076A1.207,1.207,0,0,1,42.416,256.193Z" transform="translate(-34.982 -216.114)"/>
        <path id="Path_188308" data-name="Path 188308" d="M437.989,266.516a1.2,1.2,0,1,1-.066,2.076A1.206,1.206,0,0,1,437.989,266.516Z" transform="translate(-367.43 -224.726)"/>
        <path id="Path_188309" data-name="Path 188309" d="M44.2,286.214a1.2,1.2,0,1,1-.441,2.025A1.21,1.21,0,0,1,44.2,286.214Z" transform="translate(-36.45 -241.344)"/>
        <path id="Path_188310" data-name="Path 188310" d="M50.409,315.693a1.2,1.2,0,1,1-.216,2.085A1.209,1.209,0,0,1,50.409,315.693Z" transform="translate(-41.752 -266.077)"/>
        <path id="Path_188311" data-name="Path 188311" d="M456.191,380.794a1.276,1.276,0,1,1-.755,1.369A1.283,1.283,0,0,1,456.191,380.794Z" transform="translate(-382.59 -320.769)"/>
        <path id="Path_188312" data-name="Path 188312" d="M319.4,441.018a1.2,1.2,0,1,1-.288,2.063A1.205,1.205,0,0,1,319.4,441.018Z" transform="translate(-267.695 -371.372)"/>
        <path id="Path_188313" data-name="Path 188313" d="M173.376,445.843a1.2,1.2,0,1,1-.345,2.01A1.213,1.213,0,0,1,173.376,445.843Z" transform="translate(-145.024 -375.427)"/>
        <path id="Path_188314" data-name="Path 188314" d="M109.932,449.233a1.275,1.275,0,1,1-.427,2.175A1.284,1.284,0,0,1,109.932,449.233Z" transform="translate(-91.63 -378.289)"/>
        <path id="Path_188315" data-name="Path 188315" d="M291.169,450.847a1.2,1.2,0,1,1-.357,2.028A1.206,1.206,0,0,1,291.169,450.847Z" transform="translate(-243.962 -379.633)"/>
        <path id="Path_188316" data-name="Path 188316" d="M202.167,453.78a1.2,1.2,0,1,1-.341,2.031A1.213,1.213,0,0,1,202.167,453.78Z" transform="translate(-169.2 -382.097)"/>
        <path id="Path_188317" data-name="Path 188317" d="M261.843,456.267a1.2,1.2,0,1,1-.542,1.967A1.208,1.208,0,0,1,261.843,456.267Z" transform="translate(-219.248 -384.214)"/>
        <path id="Path_188318" data-name="Path 188318" d="M231.983,457.238a1.2,1.2,0,1,1-.518,1.969A1.211,1.211,0,0,1,231.983,457.238Z" transform="translate(-194.176 -385.028)"/>
      </g>
    </g>
  </g>
</svg>
