<svg xmlns="http://www.w3.org/2000/svg" width="1032.5" height="355.5" viewBox="0 0 1032.5 355.5">
  <g id="t4-t2" transform="translate(-6494 1575.82)">
    <rect id="Rectangle_39428" data-name="Rectangle 39428" width="137.5" height="42" transform="translate(6908 -1515.82)" fill="#ffb500" opacity="0.5"/>
    <rect id="Rectangle_39427" data-name="Rectangle 39427" width="68" height="42" transform="translate(7045.5 -1473.82)" fill="#ffb500" opacity="0.5"/>
    <rect id="Rectangle_39470" data-name="Rectangle 39470" width="68" height="42" transform="translate(7113.5 -1431.82)" fill="#ffb500" opacity="0.5"/>
    <rect id="Rectangle_39424" data-name="Rectangle 39424" width="68.5" height="42" transform="translate(7250.5 -1347.82)" fill="#ffb500" opacity="0.5"/>
    <rect id="Rectangle_39430" data-name="Rectangle 39430" width="68.5" height="42" transform="translate(7387.5 -1347.82)" fill="#ffb500" opacity="0.5"/>
    <rect id="Rectangle_39431" data-name="Rectangle 39431" width="68.5" height="42" transform="translate(7319.278 -1305.82)" fill="#3c6d9d" opacity="0.5"/>
    <rect id="Rectangle_39432" data-name="Rectangle 39432" width="137.222" height="42" transform="translate(7319.278 -1263.82)" fill="#3c6d9d" opacity="0.5"/>
    <rect id="Rectangle_39429" data-name="Rectangle 39429" width="342.056" height="42" transform="translate(7182.5 -1389.82)" fill="#ffb500" opacity="0.5"/>
    <path id="Line_315" data-name="Line 315" d="M1,295H-1V-1H1Z" transform="translate(6908 -1515.82)" fill="#e8e8e8"/>
    <path id="Line_314" data-name="Line 314" d="M1,295H-1V-1H1Z" transform="translate(6976.556 -1515.82)" fill="#e8e8e8"/>
    <path id="Line_313" data-name="Line 313" d="M1,295.5H-1V-1H1Z" transform="translate(7045.5 -1515.82)" fill="#e8e8e8"/>
    <path id="Line_312" data-name="Line 312" d="M1,295.5H-1V-1H1Z" transform="translate(7113.5 -1515.82)" fill="#e8e8e8"/>
    <path id="Line_310" data-name="Line 310" d="M1,295.5H-1V-1H1Z" transform="translate(7182.5 -1515.82)" fill="#e8e8e8"/>
    <path id="Line_303" data-name="Line 303" d="M1,295.5H-1V-1H1Z" transform="translate(7250.5 -1515.82)" fill="#e8e8e8"/>
    <path id="Line_304" data-name="Line 304" d="M1,295.5H-1V-1H1Z" transform="translate(7319.5 -1515.82)" fill="#e8e8e8"/>
    <path id="Line_305" data-name="Line 305" d="M1,295.5H-1V-1H1Z" transform="translate(7387.5 -1515.82)" fill="#e8e8e8"/>
    <path id="Line_300" data-name="Line 300" d="M1,295.5H-1V-1H1Z" transform="translate(7456.5 -1515.82)" fill="#e8e8e8"/>
    <path id="Line_301" data-name="Line 301" d="M1,295.5H-1V-1H1Z" transform="translate(7525.5 -1515.82)" fill="#e8e8e8"/>
    <path id="Line_317" data-name="Line 317" d="M1,295.5H-1V-1H1Z" transform="translate(6495 -1515.82)" fill="#e8e8e8"/>
    <path id="Path_190235" data-name="Path 190235" d="M8.234-5.586H3V-1.3H9.081V0H1.4V-12.086H9v1.3H3V-6.89H8.234Zm5.6-.116L15.83-8.981h1.793L14.684-4.541,17.714,0H15.938L13.862-3.362,11.787,0H10l3.03-4.541L10.094-8.981H11.87Zm8.849,4.615a2.212,2.212,0,0,0,1.436-.5A1.752,1.752,0,0,0,24.8-2.831h1.453a2.785,2.785,0,0,1-.531,1.469A3.5,3.5,0,0,1,24.417-.249a3.772,3.772,0,0,1-1.731.415,3.7,3.7,0,0,1-2.918-1.224,4.877,4.877,0,0,1-1.083-3.349v-.257A5.407,5.407,0,0,1,19.167-7a3.667,3.667,0,0,1,1.382-1.585,3.926,3.926,0,0,1,2.129-.564,3.6,3.6,0,0,1,2.511.9,3.234,3.234,0,0,1,1.067,2.349H24.8a2.116,2.116,0,0,0-.66-1.432,2.053,2.053,0,0,0-1.465-.56,2.149,2.149,0,0,0-1.814.843,3.957,3.957,0,0,0-.643,2.436v.291a3.878,3.878,0,0,0,.639,2.391A2.16,2.16,0,0,0,22.686-1.087ZM33.527,0a3.226,3.226,0,0,1-.216-.946A3.426,3.426,0,0,1,30.754.166a3.17,3.17,0,0,1-2.179-.751,2.43,2.43,0,0,1-.851-1.905,2.539,2.539,0,0,1,1.067-2.179,5.029,5.029,0,0,1,3-.776h1.494v-.706A1.725,1.725,0,0,0,32.8-7.433a1.935,1.935,0,0,0-1.419-.477,2.239,2.239,0,0,0-1.378.415,1.223,1.223,0,0,0-.556,1H27.907a2.119,2.119,0,0,1,.477-1.3,3.258,3.258,0,0,1,1.295-.992,4.356,4.356,0,0,1,1.8-.365,3.551,3.551,0,0,1,2.432.776,2.8,2.8,0,0,1,.913,2.137V-2.1a5.054,5.054,0,0,0,.315,1.967V0ZM30.979-1.17a2.7,2.7,0,0,0,1.37-.374,2.259,2.259,0,0,0,.938-.971V-4.358h-1.2q-2.822,0-2.822,1.652a1.4,1.4,0,0,0,.481,1.129A1.85,1.85,0,0,0,30.979-1.17Zm9.089-.913,2.225-6.9h1.569L40.641,0H39.47L36.216-8.981h1.569ZM50.759,0a3.226,3.226,0,0,1-.216-.946A3.426,3.426,0,0,1,47.987.166a3.17,3.17,0,0,1-2.179-.751,2.43,2.43,0,0,1-.851-1.905,2.539,2.539,0,0,1,1.067-2.179,5.029,5.029,0,0,1,3-.776h1.494v-.706a1.725,1.725,0,0,0-.481-1.282,1.935,1.935,0,0,0-1.419-.477A2.239,2.239,0,0,0,47.24-7.5a1.223,1.223,0,0,0-.556,1H45.14a2.119,2.119,0,0,1,.477-1.3,3.258,3.258,0,0,1,1.295-.992,4.356,4.356,0,0,1,1.8-.365,3.551,3.551,0,0,1,2.432.776,2.8,2.8,0,0,1,.913,2.137V-2.1A5.054,5.054,0,0,0,52.37-.133V0ZM48.211-1.17a2.7,2.7,0,0,0,1.37-.374,2.259,2.259,0,0,0,.938-.971V-4.358h-1.2q-2.822,0-2.822,1.652a1.4,1.4,0,0,0,.481,1.129A1.85,1.85,0,0,0,48.211-1.17Zm9.853.083a2.212,2.212,0,0,0,1.436-.5,1.752,1.752,0,0,0,.681-1.245h1.453A2.785,2.785,0,0,1,61.1-1.361,3.5,3.5,0,0,1,59.795-.249a3.772,3.772,0,0,1-1.731.415,3.7,3.7,0,0,1-2.918-1.224,4.877,4.877,0,0,1-1.083-3.349v-.257A5.407,5.407,0,0,1,54.544-7a3.667,3.667,0,0,1,1.382-1.585,3.926,3.926,0,0,1,2.129-.564,3.6,3.6,0,0,1,2.511.9,3.234,3.234,0,0,1,1.067,2.349H60.181a2.116,2.116,0,0,0-.66-1.432,2.053,2.053,0,0,0-1.465-.56,2.149,2.149,0,0,0-1.814.843A3.957,3.957,0,0,0,55.6-4.607v.291a3.878,3.878,0,0,0,.639,2.391A2.16,2.16,0,0,0,58.064-1.087ZM65.028,0H63.493V-8.981h1.536Zm-1.66-11.364a.917.917,0,0,1,.228-.631.857.857,0,0,1,.677-.257.87.87,0,0,1,.681.257.907.907,0,0,1,.232.631.877.877,0,0,1-.232.623.886.886,0,0,1-.681.249.872.872,0,0,1-.677-.249A.886.886,0,0,1,63.368-11.364Zm3.71,6.79A5.3,5.3,0,0,1,67.6-6.948a3.87,3.87,0,0,1,1.444-1.627,3.932,3.932,0,0,1,2.113-.573,3.788,3.788,0,0,1,2.968,1.27A4.886,4.886,0,0,1,75.255-4.5v.108a5.351,5.351,0,0,1-.5,2.353A3.813,3.813,0,0,1,73.317-.415a3.977,3.977,0,0,1-2.146.581A3.778,3.778,0,0,1,68.212-1.1a4.861,4.861,0,0,1-1.133-3.362Zm1.544.183a3.842,3.842,0,0,0,.693,2.4,2.218,2.218,0,0,0,1.855.9A2.2,2.2,0,0,0,73.03-2a4.2,4.2,0,0,0,.689-2.569,3.836,3.836,0,0,0-.7-2.395,2.23,2.23,0,0,0-1.864-.917,2.205,2.205,0,0,0-1.834.9A4.17,4.17,0,0,0,68.623-4.391Zm3.229-8.342h1.859l-2.225,2.44-1.237,0Zm6.782,3.752.05,1.129a3.273,3.273,0,0,1,2.689-1.295q2.847,0,2.872,3.212V0H82.709V-5.943a2.068,2.068,0,0,0-.444-1.436,1.78,1.78,0,0,0-1.357-.465,2.216,2.216,0,0,0-1.312.4,2.706,2.706,0,0,0-.88,1.046V0H77.181V-8.981ZM90.4-4.565a5.261,5.261,0,0,1,.979-3.324A3.1,3.1,0,0,1,93.94-9.147a3.115,3.115,0,0,1,2.5,1.079V-12.75h1.536V0H96.563l-.075-.963A3.127,3.127,0,0,1,93.923.166a3.068,3.068,0,0,1-2.544-1.278A5.321,5.321,0,0,1,90.4-4.449Zm1.536.174A3.984,3.984,0,0,0,92.562-2a2.039,2.039,0,0,0,1.743.863,2.24,2.24,0,0,0,2.133-1.312V-6.574a2.257,2.257,0,0,0-2.117-1.27,2.049,2.049,0,0,0-1.76.872A4.386,4.386,0,0,0,91.931-4.391ZM104.083.166a3.924,3.924,0,0,1-2.972-1.2,4.452,4.452,0,0,1-1.146-3.208v-.282a5.39,5.39,0,0,1,.51-2.386A3.982,3.982,0,0,1,101.9-8.554a3.59,3.59,0,0,1,1.988-.594,3.364,3.364,0,0,1,2.723,1.154,5,5,0,0,1,.971,3.3v.639H101.5a3.193,3.193,0,0,0,.776,2.146,2.44,2.44,0,0,0,1.888.818,2.675,2.675,0,0,0,1.378-.332,3.462,3.462,0,0,0,.988-.88l.938.73A3.772,3.772,0,0,1,104.083.166Zm-.191-8.052a2.048,2.048,0,0,0-1.561.677,3.288,3.288,0,0,0-.78,1.9h4.5v-.116a2.925,2.925,0,0,0-.631-1.814A1.928,1.928,0,0,0,103.893-7.886Zm14.02.282a4.6,4.6,0,0,0-.755-.058,2.024,2.024,0,0,0-2.05,1.287V0h-1.536V-8.981h1.494l.025,1.038a2.391,2.391,0,0,1,2.142-1.2,1.569,1.569,0,0,1,.681.116Zm4.98,7.77a3.924,3.924,0,0,1-2.972-1.2,4.452,4.452,0,0,1-1.146-3.208v-.282a5.39,5.39,0,0,1,.51-2.386,3.982,3.982,0,0,1,1.428-1.644,3.59,3.59,0,0,1,1.988-.594,3.364,3.364,0,0,1,2.723,1.154,5,5,0,0,1,.971,3.3v.639h-6.084a3.193,3.193,0,0,0,.776,2.146,2.44,2.44,0,0,0,1.888.818,2.675,2.675,0,0,0,1.378-.332,3.462,3.462,0,0,0,.988-.88l.938.73A3.772,3.772,0,0,1,122.893.166ZM122.7-7.886a2.048,2.048,0,0,0-1.561.677,3.288,3.288,0,0,0-.78,1.9h4.5v-.116a2.925,2.925,0,0,0-.631-1.814A1.928,1.928,0,0,0,122.7-7.886Zm10.7,5.5a1.13,1.13,0,0,0-.469-.967,4.514,4.514,0,0,0-1.635-.594,7.731,7.731,0,0,1-1.851-.6,2.633,2.633,0,0,1-1.013-.83,1.986,1.986,0,0,1-.328-1.146,2.33,2.33,0,0,1,.934-1.868,3.647,3.647,0,0,1,2.386-.764,3.753,3.753,0,0,1,2.478.789,2.5,2.5,0,0,1,.95,2.017h-1.544a1.386,1.386,0,0,0-.535-1.087,2.006,2.006,0,0,0-1.349-.457,2.1,2.1,0,0,0-1.312.365,1.15,1.15,0,0,0-.473.955.932.932,0,0,0,.44.838,5.413,5.413,0,0,0,1.59.54,8.283,8.283,0,0,1,1.864.614,2.718,2.718,0,0,1,1.058.859,2.112,2.112,0,0,1,.344,1.224,2.3,2.3,0,0,1-.963,1.93,4.039,4.039,0,0,1-2.5.726,4.523,4.523,0,0,1-1.909-.382,3.105,3.105,0,0,1-1.3-1.067,2.571,2.571,0,0,1-.469-1.482h1.536a1.59,1.59,0,0,0,.618,1.224,2.4,2.4,0,0,0,1.523.452,2.476,2.476,0,0,0,1.4-.353A1.084,1.084,0,0,0,133.4-2.382ZM140.665.166a3.924,3.924,0,0,1-2.972-1.2,4.452,4.452,0,0,1-1.146-3.208v-.282a5.39,5.39,0,0,1,.51-2.386,3.982,3.982,0,0,1,1.428-1.644,3.59,3.59,0,0,1,1.988-.594A3.364,3.364,0,0,1,143.2-7.994a5,5,0,0,1,.971,3.3v.639h-6.084a3.193,3.193,0,0,0,.776,2.146,2.44,2.44,0,0,0,1.888.818,2.675,2.675,0,0,0,1.378-.332,3.462,3.462,0,0,0,.988-.88l.938.73A3.772,3.772,0,0,1,140.665.166Zm-.191-8.052a2.048,2.048,0,0,0-1.561.677,3.288,3.288,0,0,0-.78,1.9h4.5v-.116A2.925,2.925,0,0,0,142-7.242,1.928,1.928,0,0,0,140.474-7.886Zm9.812.282a4.6,4.6,0,0,0-.755-.058,2.024,2.024,0,0,0-2.05,1.287V0h-1.536V-8.981h1.494l.025,1.038a2.391,2.391,0,0,1,2.142-1.2,1.569,1.569,0,0,1,.681.116Zm4.524,5.52,2.225-6.9H158.6L155.382,0h-1.17l-3.254-8.981h1.569Zm4.74-2.49a5.3,5.3,0,0,1,.519-2.374,3.87,3.87,0,0,1,1.444-1.627,3.932,3.932,0,0,1,2.113-.573,3.788,3.788,0,0,1,2.968,1.27A4.886,4.886,0,0,1,167.726-4.5v.108a5.351,5.351,0,0,1-.5,2.353,3.813,3.813,0,0,1-1.436,1.623,3.977,3.977,0,0,1-2.146.581,3.778,3.778,0,0,1-2.959-1.27,4.861,4.861,0,0,1-1.133-3.362Zm1.544.183a3.842,3.842,0,0,0,.693,2.4,2.218,2.218,0,0,0,1.855.9A2.2,2.2,0,0,0,165.5-2a4.2,4.2,0,0,0,.689-2.569,3.836,3.836,0,0,0-.7-2.395,2.23,2.23,0,0,0-1.864-.917,2.205,2.205,0,0,0-1.834.9A4.17,4.17,0,0,0,161.093-4.391Zm12.9-3.212a4.6,4.6,0,0,0-.755-.058,2.024,2.024,0,0,0-2.05,1.287V0h-1.536V-8.981h1.494l.025,1.038a2.391,2.391,0,0,1,2.142-1.2,1.569,1.569,0,0,1,.681.116Zm3.08,7.6h-1.536V-8.981h1.536Zm-1.66-11.364a.917.917,0,0,1,.228-.631.857.857,0,0,1,.677-.257.87.87,0,0,1,.681.257.907.907,0,0,1,.232.631.877.877,0,0,1-.232.623.886.886,0,0,1-.681.249.872.872,0,0,1-.677-.249A.886.886,0,0,1,175.412-11.364Zm3.71,6.79a5.3,5.3,0,0,1,.519-2.374,3.87,3.87,0,0,1,1.444-1.627,3.932,3.932,0,0,1,2.113-.573,3.788,3.788,0,0,1,2.968,1.27A4.886,4.886,0,0,1,187.3-4.5v.108a5.351,5.351,0,0,1-.5,2.353,3.813,3.813,0,0,1-1.436,1.623,3.977,3.977,0,0,1-2.146.581,3.778,3.778,0,0,1-2.959-1.27,4.861,4.861,0,0,1-1.133-3.362Zm1.544.183a3.842,3.842,0,0,0,.693,2.4,2.218,2.218,0,0,0,1.855.9A2.2,2.2,0,0,0,185.074-2a4.2,4.2,0,0,0,.689-2.569,3.836,3.836,0,0,0-.7-2.395,2.23,2.23,0,0,0-1.864-.917,2.205,2.205,0,0,0-1.834.9A4.17,4.17,0,0,0,180.667-4.391Zm13.788,2.009a1.13,1.13,0,0,0-.469-.967,4.514,4.514,0,0,0-1.635-.594,7.731,7.731,0,0,1-1.851-.6,2.633,2.633,0,0,1-1.013-.83,1.986,1.986,0,0,1-.328-1.146,2.33,2.33,0,0,1,.934-1.868,3.647,3.647,0,0,1,2.386-.764,3.753,3.753,0,0,1,2.478.789,2.5,2.5,0,0,1,.95,2.017h-1.544a1.386,1.386,0,0,0-.535-1.087,2.006,2.006,0,0,0-1.349-.457,2.1,2.1,0,0,0-1.312.365,1.15,1.15,0,0,0-.473.955.932.932,0,0,0,.44.838,5.413,5.413,0,0,0,1.59.54,8.283,8.283,0,0,1,1.864.614,2.718,2.718,0,0,1,1.058.859,2.112,2.112,0,0,1,.344,1.224,2.3,2.3,0,0,1-.963,1.93,4.039,4.039,0,0,1-2.5.726,4.523,4.523,0,0,1-1.909-.382,3.105,3.105,0,0,1-1.3-1.067,2.571,2.571,0,0,1-.469-1.482h1.536a1.59,1.59,0,0,0,.618,1.224,2.4,2.4,0,0,0,1.523.452,2.476,2.476,0,0,0,1.4-.353A1.084,1.084,0,0,0,194.454-2.382Z" transform="translate(6525 -1488.82)" fill="#12263f"/>
    <path id="Path_190236" data-name="Path 190236" d="M8.077-3.163H3.013L1.876,0H.232L4.848-12.086H6.242L10.866,0H9.23Zm-4.582-1.3H7.6L5.545-10.119Zm8.384-.1a5.261,5.261,0,0,1,.979-3.324,3.1,3.1,0,0,1,2.565-1.258,3.115,3.115,0,0,1,2.5,1.079V-12.75h1.536V0H18.046l-.075-.963A3.127,3.127,0,0,1,15.406.166a3.068,3.068,0,0,1-2.544-1.278,5.321,5.321,0,0,1-.984-3.337Zm1.536.174A3.984,3.984,0,0,0,14.045-2a2.039,2.039,0,0,0,1.743.863,2.24,2.24,0,0,0,2.133-1.312V-6.574A2.257,2.257,0,0,0,15.8-7.844a2.049,2.049,0,0,0-1.76.872A4.386,4.386,0,0,0,13.414-4.391ZM25.566.166a3.924,3.924,0,0,1-2.972-1.2,4.452,4.452,0,0,1-1.146-3.208v-.282a5.39,5.39,0,0,1,.51-2.386,3.982,3.982,0,0,1,1.428-1.644,3.59,3.59,0,0,1,1.988-.594A3.364,3.364,0,0,1,28.1-7.994a5,5,0,0,1,.971,3.3v.639H22.985a3.193,3.193,0,0,0,.776,2.146,2.44,2.44,0,0,0,1.888.818,2.675,2.675,0,0,0,1.378-.332,3.462,3.462,0,0,0,.988-.88l.938.73A3.772,3.772,0,0,1,25.566.166Zm-.191-8.052a2.048,2.048,0,0,0-1.561.677,3.288,3.288,0,0,0-.78,1.9h4.5v-.116A2.925,2.925,0,0,0,26.9-7.242,1.928,1.928,0,0,0,25.375-7.886Zm9.073,6.8a2.212,2.212,0,0,0,1.436-.5,1.752,1.752,0,0,0,.681-1.245h1.453a2.785,2.785,0,0,1-.531,1.469A3.5,3.5,0,0,1,36.179-.249a3.772,3.772,0,0,1-1.731.415,3.7,3.7,0,0,1-2.918-1.224,4.877,4.877,0,0,1-1.083-3.349v-.257A5.407,5.407,0,0,1,30.929-7a3.667,3.667,0,0,1,1.382-1.585,3.926,3.926,0,0,1,2.129-.564,3.6,3.6,0,0,1,2.511.9,3.234,3.234,0,0,1,1.067,2.349H36.565a2.116,2.116,0,0,0-.66-1.432,2.053,2.053,0,0,0-1.465-.56,2.149,2.149,0,0,0-1.814.843,3.957,3.957,0,0,0-.643,2.436v.291a3.878,3.878,0,0,0,.639,2.391A2.16,2.16,0,0,0,34.448-1.087Zm10.841.2A3.262,3.262,0,0,1,42.658.166,2.792,2.792,0,0,1,40.47-.668a3.611,3.611,0,0,1-.76-2.469V-8.981h1.536v5.8q0,2.042,1.66,2.042a2.3,2.3,0,0,0,2.341-1.312V-8.981h1.536V0H45.322ZM54.661,0a3.226,3.226,0,0,1-.216-.946A3.426,3.426,0,0,1,51.888.166a3.17,3.17,0,0,1-2.179-.751,2.43,2.43,0,0,1-.851-1.905,2.539,2.539,0,0,1,1.067-2.179,5.029,5.029,0,0,1,3-.776H54.42v-.706a1.725,1.725,0,0,0-.481-1.282,1.935,1.935,0,0,0-1.419-.477,2.239,2.239,0,0,0-1.378.415,1.223,1.223,0,0,0-.556,1H49.041a2.119,2.119,0,0,1,.477-1.3,3.258,3.258,0,0,1,1.295-.992,4.356,4.356,0,0,1,1.8-.365,3.551,3.551,0,0,1,2.432.776,2.8,2.8,0,0,1,.913,2.137V-2.1a5.054,5.054,0,0,0,.315,1.967V0ZM52.112-1.17a2.7,2.7,0,0,0,1.37-.374,2.259,2.259,0,0,0,.938-.971V-4.358h-1.2q-2.822,0-2.822,1.652a1.4,1.4,0,0,0,.481,1.129A1.85,1.85,0,0,0,52.112-1.17Zm9.853.083a2.212,2.212,0,0,0,1.436-.5,1.752,1.752,0,0,0,.681-1.245h1.453A2.785,2.785,0,0,1,65-1.361,3.5,3.5,0,0,1,63.7-.249a3.772,3.772,0,0,1-1.731.415,3.7,3.7,0,0,1-2.918-1.224,4.877,4.877,0,0,1-1.083-3.349v-.257A5.407,5.407,0,0,1,58.446-7a3.667,3.667,0,0,1,1.382-1.585,3.926,3.926,0,0,1,2.129-.564,3.6,3.6,0,0,1,2.511.9,3.234,3.234,0,0,1,1.067,2.349H64.082a2.116,2.116,0,0,0-.66-1.432,2.053,2.053,0,0,0-1.465-.56,2.149,2.149,0,0,0-1.814.843A3.957,3.957,0,0,0,59.5-4.607v.291a3.878,3.878,0,0,0,.639,2.391A2.16,2.16,0,0,0,61.965-1.087ZM68.93,0H67.394V-8.981H68.93ZM67.27-11.364a.917.917,0,0,1,.228-.631.857.857,0,0,1,.677-.257.87.87,0,0,1,.681.257.907.907,0,0,1,.232.631.877.877,0,0,1-.232.623.886.886,0,0,1-.681.249.872.872,0,0,1-.677-.249A.886.886,0,0,1,67.27-11.364Zm3.71,6.79A5.3,5.3,0,0,1,71.5-6.948a3.87,3.87,0,0,1,1.444-1.627,3.932,3.932,0,0,1,2.113-.573,3.788,3.788,0,0,1,2.968,1.27A4.886,4.886,0,0,1,79.156-4.5v.108a5.351,5.351,0,0,1-.5,2.353A3.813,3.813,0,0,1,77.218-.415a3.977,3.977,0,0,1-2.146.581A3.778,3.778,0,0,1,72.113-1.1,4.861,4.861,0,0,1,70.98-4.466Zm1.544.183a3.842,3.842,0,0,0,.693,2.4,2.218,2.218,0,0,0,1.855.9A2.2,2.2,0,0,0,76.932-2a4.2,4.2,0,0,0,.689-2.569,3.836,3.836,0,0,0-.7-2.395,2.23,2.23,0,0,0-1.864-.917,2.205,2.205,0,0,0-1.834.9A4.17,4.17,0,0,0,72.524-4.391Zm3.229-8.342h1.859l-2.225,2.44-1.237,0Zm6.782,3.752.05,1.129a3.273,3.273,0,0,1,2.689-1.295q2.847,0,2.872,3.212V0H86.61V-5.943a2.068,2.068,0,0,0-.444-1.436,1.78,1.78,0,0,0-1.357-.465,2.216,2.216,0,0,0-1.312.4,2.706,2.706,0,0,0-.88,1.046V0H81.082V-8.981ZM94.3-4.565a5.261,5.261,0,0,1,.979-3.324,3.1,3.1,0,0,1,2.565-1.258,3.115,3.115,0,0,1,2.5,1.079V-12.75h1.536V0h-1.411l-.075-.963A3.127,3.127,0,0,1,97.825.166a3.068,3.068,0,0,1-2.544-1.278A5.321,5.321,0,0,1,94.3-4.449Zm1.536.174A3.984,3.984,0,0,0,96.463-2a2.039,2.039,0,0,0,1.743.863,2.24,2.24,0,0,0,2.133-1.312V-6.574a2.257,2.257,0,0,0-2.117-1.27,2.049,2.049,0,0,0-1.76.872A4.386,4.386,0,0,0,95.833-4.391ZM107.985.166a3.924,3.924,0,0,1-2.972-1.2,4.452,4.452,0,0,1-1.146-3.208v-.282a5.39,5.39,0,0,1,.51-2.386,3.982,3.982,0,0,1,1.428-1.644,3.59,3.59,0,0,1,1.988-.594,3.364,3.364,0,0,1,2.723,1.154,5,5,0,0,1,.971,3.3v.639H105.4a3.193,3.193,0,0,0,.776,2.146,2.44,2.44,0,0,0,1.888.818,2.675,2.675,0,0,0,1.378-.332,3.462,3.462,0,0,0,.988-.88l.938.73A3.772,3.772,0,0,1,107.985.166Zm-.191-8.052a2.048,2.048,0,0,0-1.561.677,3.288,3.288,0,0,0-.78,1.9h4.5v-.116a2.925,2.925,0,0,0-.631-1.814A1.928,1.928,0,0,0,107.794-7.886ZM119.141,0h-1.536V-8.981h1.536Zm-1.66-11.364a.917.917,0,0,1,.228-.631.857.857,0,0,1,.677-.257.87.87,0,0,1,.681.257.907.907,0,0,1,.232.631.877.877,0,0,1-.232.623.886.886,0,0,1-.681.249.872.872,0,0,1-.677-.249A.886.886,0,0,1,117.481-11.364Zm5.57,2.382.05,1.129a3.273,3.273,0,0,1,2.689-1.295q2.847,0,2.872,3.212V0h-1.536V-5.943a2.068,2.068,0,0,0-.444-1.436,1.78,1.78,0,0,0-1.357-.465,2.216,2.216,0,0,0-1.312.4,2.706,2.706,0,0,0-.88,1.046V0H121.6V-8.981Zm13.157,6.6a1.13,1.13,0,0,0-.469-.967,4.514,4.514,0,0,0-1.635-.594,7.731,7.731,0,0,1-1.851-.6,2.633,2.633,0,0,1-1.013-.83,1.986,1.986,0,0,1-.328-1.146,2.33,2.33,0,0,1,.934-1.868,3.647,3.647,0,0,1,2.386-.764,3.753,3.753,0,0,1,2.478.789,2.5,2.5,0,0,1,.95,2.017h-1.544a1.386,1.386,0,0,0-.535-1.087,2.006,2.006,0,0,0-1.349-.457,2.1,2.1,0,0,0-1.312.365,1.15,1.15,0,0,0-.473.955.932.932,0,0,0,.44.838,5.413,5.413,0,0,0,1.59.54,8.283,8.283,0,0,1,1.864.614,2.718,2.718,0,0,1,1.058.859,2.112,2.112,0,0,1,.344,1.224,2.3,2.3,0,0,1-.963,1.93,4.039,4.039,0,0,1-2.5.726,4.523,4.523,0,0,1-1.909-.382,3.105,3.105,0,0,1-1.3-1.067,2.571,2.571,0,0,1-.469-1.482h1.536a1.59,1.59,0,0,0,.618,1.224,2.4,2.4,0,0,0,1.523.452,2.476,2.476,0,0,0,1.4-.353A1.084,1.084,0,0,0,136.208-2.382Zm5.62-8.774v2.175H143.5v1.187h-1.677v5.577a1.247,1.247,0,0,0,.224.81.943.943,0,0,0,.764.27,3.718,3.718,0,0,0,.73-.1V0a4.478,4.478,0,0,1-1.179.165,1.912,1.912,0,0,1-1.552-.623,2.675,2.675,0,0,1-.523-1.768v-5.57h-1.635V-8.981h1.635v-2.175ZM150.842,0a3.226,3.226,0,0,1-.216-.946A3.426,3.426,0,0,1,148.069.166a3.17,3.17,0,0,1-2.179-.751,2.43,2.43,0,0,1-.851-1.905,2.539,2.539,0,0,1,1.067-2.179,5.029,5.029,0,0,1,3-.776H150.6v-.706a1.725,1.725,0,0,0-.481-1.282,1.935,1.935,0,0,0-1.419-.477,2.239,2.239,0,0,0-1.378.415,1.223,1.223,0,0,0-.556,1h-1.544a2.119,2.119,0,0,1,.477-1.3,3.258,3.258,0,0,1,1.295-.992,4.356,4.356,0,0,1,1.8-.365,3.551,3.551,0,0,1,2.432.776,2.8,2.8,0,0,1,.913,2.137V-2.1a5.054,5.054,0,0,0,.315,1.967V0Zm-2.548-1.17a2.7,2.7,0,0,0,1.37-.374,2.259,2.259,0,0,0,.938-.971V-4.358h-1.2q-2.822,0-2.822,1.652a1.4,1.4,0,0,0,.481,1.129A1.85,1.85,0,0,0,148.293-1.17ZM156.212,0h-1.536V-12.75h1.536Zm8,0A3.226,3.226,0,0,1,164-.946,3.426,3.426,0,0,1,161.442.166a3.17,3.17,0,0,1-2.179-.751,2.43,2.43,0,0,1-.851-1.905,2.539,2.539,0,0,1,1.067-2.179,5.029,5.029,0,0,1,3-.776h1.494v-.706a1.725,1.725,0,0,0-.481-1.282,1.935,1.935,0,0,0-1.419-.477,2.239,2.239,0,0,0-1.378.415,1.223,1.223,0,0,0-.556,1h-1.544a2.119,2.119,0,0,1,.477-1.3,3.258,3.258,0,0,1,1.295-.992,4.356,4.356,0,0,1,1.8-.365,3.551,3.551,0,0,1,2.432.776,2.8,2.8,0,0,1,.913,2.137V-2.1a5.054,5.054,0,0,0,.315,1.967V0Zm-2.548-1.17a2.7,2.7,0,0,0,1.37-.374,2.259,2.259,0,0,0,.938-.971V-4.358h-1.2q-2.822,0-2.822,1.652a1.4,1.4,0,0,0,.481,1.129A1.85,1.85,0,0,0,161.666-1.17Zm9.853.083a2.212,2.212,0,0,0,1.436-.5,1.752,1.752,0,0,0,.681-1.245h1.453a2.785,2.785,0,0,1-.531,1.469A3.5,3.5,0,0,1,173.25-.249a3.772,3.772,0,0,1-1.731.415A3.7,3.7,0,0,1,168.6-1.058a4.877,4.877,0,0,1-1.083-3.349v-.257A5.407,5.407,0,0,1,168-7a3.667,3.667,0,0,1,1.382-1.585,3.926,3.926,0,0,1,2.129-.564,3.6,3.6,0,0,1,2.511.9,3.234,3.234,0,0,1,1.067,2.349h-1.453a2.116,2.116,0,0,0-.66-1.432,2.053,2.053,0,0,0-1.465-.56,2.149,2.149,0,0,0-1.814.843,3.957,3.957,0,0,0-.643,2.436v.291a3.878,3.878,0,0,0,.639,2.391A2.16,2.16,0,0,0,171.519-1.087ZM178.483,0h-1.536V-8.981h1.536Zm-1.66-11.364a.917.917,0,0,1,.228-.631.857.857,0,0,1,.677-.257.87.87,0,0,1,.681.257.907.907,0,0,1,.232.631.877.877,0,0,1-.232.623.886.886,0,0,1-.681.249.872.872,0,0,1-.677-.249A.886.886,0,0,1,176.823-11.364Zm3.71,6.79a5.3,5.3,0,0,1,.519-2.374A3.87,3.87,0,0,1,182.5-8.575a3.932,3.932,0,0,1,2.113-.573,3.788,3.788,0,0,1,2.968,1.27A4.886,4.886,0,0,1,188.71-4.5v.108a5.351,5.351,0,0,1-.5,2.353,3.813,3.813,0,0,1-1.436,1.623,3.977,3.977,0,0,1-2.146.581,3.778,3.778,0,0,1-2.959-1.27,4.861,4.861,0,0,1-1.133-3.362Zm1.544.183a3.842,3.842,0,0,0,.693,2.4,2.218,2.218,0,0,0,1.855.9A2.2,2.2,0,0,0,186.485-2a4.2,4.2,0,0,0,.689-2.569,3.836,3.836,0,0,0-.7-2.395,2.23,2.23,0,0,0-1.864-.917,2.205,2.205,0,0,0-1.834.9A4.17,4.17,0,0,0,182.078-4.391Zm10.011-4.59.05,1.129a3.273,3.273,0,0,1,2.689-1.295q2.847,0,2.872,3.212V0h-1.536V-5.943a2.068,2.068,0,0,0-.444-1.436,1.78,1.78,0,0,0-1.357-.465,2.216,2.216,0,0,0-1.312.4,2.706,2.706,0,0,0-.88,1.046V0h-1.536V-8.981ZM203.743.166a3.924,3.924,0,0,1-2.972-1.2,4.452,4.452,0,0,1-1.146-3.208v-.282a5.39,5.39,0,0,1,.51-2.386,3.982,3.982,0,0,1,1.428-1.644,3.59,3.59,0,0,1,1.988-.594,3.364,3.364,0,0,1,2.723,1.154,5,5,0,0,1,.971,3.3v.639h-6.084a3.193,3.193,0,0,0,.776,2.146,2.44,2.44,0,0,0,1.888.818,2.675,2.675,0,0,0,1.378-.332,3.462,3.462,0,0,0,.988-.88l.938.73A3.772,3.772,0,0,1,203.743.166Zm-.191-8.052a2.048,2.048,0,0,0-1.561.677,3.288,3.288,0,0,0-.78,1.9h4.5v-.116a2.925,2.925,0,0,0-.631-1.814A1.928,1.928,0,0,0,203.552-7.886Zm10.7,5.5a1.13,1.13,0,0,0-.469-.967,4.514,4.514,0,0,0-1.635-.594,7.731,7.731,0,0,1-1.851-.6,2.633,2.633,0,0,1-1.013-.83,1.986,1.986,0,0,1-.328-1.146,2.33,2.33,0,0,1,.934-1.868,3.647,3.647,0,0,1,2.386-.764,3.753,3.753,0,0,1,2.478.789,2.5,2.5,0,0,1,.95,2.017H214.16a1.386,1.386,0,0,0-.535-1.087,2.006,2.006,0,0,0-1.349-.457,2.1,2.1,0,0,0-1.312.365,1.15,1.15,0,0,0-.473.955.932.932,0,0,0,.44.838,5.413,5.413,0,0,0,1.59.54,8.283,8.283,0,0,1,1.864.614,2.718,2.718,0,0,1,1.058.859,2.112,2.112,0,0,1,.344,1.224,2.3,2.3,0,0,1-.963,1.93,4.039,4.039,0,0,1-2.5.726,4.523,4.523,0,0,1-1.909-.382,3.105,3.105,0,0,1-1.3-1.067,2.571,2.571,0,0,1-.469-1.482h1.536A1.59,1.59,0,0,0,210.8-1.54a2.4,2.4,0,0,0,1.523.452,2.476,2.476,0,0,0,1.4-.353A1.084,1.084,0,0,0,214.251-2.382Zm15.332-2.009a5.378,5.378,0,0,1-.938,3.3A3.006,3.006,0,0,1,226.1.166a3.294,3.294,0,0,1-2.573-1.038V3.453H222V-8.981h1.4l.075,1a3.163,3.163,0,0,1,2.606-1.162,3.063,3.063,0,0,1,2.561,1.22,5.437,5.437,0,0,1,.942,3.4Zm-1.536-.174a3.968,3.968,0,0,0-.647-2.4,2.086,2.086,0,0,0-1.776-.88,2.257,2.257,0,0,0-2.092,1.237v4.292a2.262,2.262,0,0,0,2.108,1.229,2.076,2.076,0,0,0,1.756-.876A4.332,4.332,0,0,0,228.047-4.565ZM237.079,0a3.226,3.226,0,0,1-.216-.946A3.426,3.426,0,0,1,234.306.166a3.17,3.17,0,0,1-2.179-.751,2.43,2.43,0,0,1-.851-1.905,2.539,2.539,0,0,1,1.067-2.179,5.029,5.029,0,0,1,3-.776h1.494v-.706a1.725,1.725,0,0,0-.481-1.282,1.935,1.935,0,0,0-1.419-.477,2.239,2.239,0,0,0-1.378.415,1.223,1.223,0,0,0-.556,1h-1.544a2.119,2.119,0,0,1,.477-1.3,3.258,3.258,0,0,1,1.295-.992,4.356,4.356,0,0,1,1.8-.365,3.551,3.551,0,0,1,2.432.776,2.8,2.8,0,0,1,.913,2.137V-2.1a5.054,5.054,0,0,0,.315,1.967V0ZM234.53-1.17a2.7,2.7,0,0,0,1.37-.374,2.259,2.259,0,0,0,.938-.971V-4.358h-1.2q-2.822,0-2.822,1.652a1.4,1.4,0,0,0,.481,1.129A1.85,1.85,0,0,0,234.53-1.17ZM245.122-7.6a4.6,4.6,0,0,0-.755-.058,2.024,2.024,0,0,0-2.05,1.287V0h-1.536V-8.981h1.494l.025,1.038a2.391,2.391,0,0,1,2.142-1.2,1.569,1.569,0,0,1,.681.116ZM251.746,0a3.226,3.226,0,0,1-.216-.946A3.426,3.426,0,0,1,248.974.166a3.17,3.17,0,0,1-2.179-.751,2.43,2.43,0,0,1-.851-1.905,2.539,2.539,0,0,1,1.067-2.179,5.029,5.029,0,0,1,3-.776h1.494v-.706a1.725,1.725,0,0,0-.481-1.282,1.935,1.935,0,0,0-1.419-.477,2.239,2.239,0,0,0-1.378.415,1.223,1.223,0,0,0-.556,1h-1.544a2.119,2.119,0,0,1,.477-1.3,3.258,3.258,0,0,1,1.295-.992,4.356,4.356,0,0,1,1.8-.365,3.551,3.551,0,0,1,2.432.776,2.8,2.8,0,0,1,.913,2.137V-2.1a5.054,5.054,0,0,0,.315,1.967V0ZM249.2-1.17a2.7,2.7,0,0,0,1.37-.374,2.259,2.259,0,0,0,.938-.971V-4.358h-1.2q-2.822,0-2.822,1.652a1.4,1.4,0,0,0,.481,1.129A1.85,1.85,0,0,0,249.2-1.17Zm18.046-3.221a5.378,5.378,0,0,1-.938,3.3,3.006,3.006,0,0,1-2.54,1.253,3.294,3.294,0,0,1-2.573-1.038V3.453h-1.536V-8.981h1.4l.075,1a3.163,3.163,0,0,1,2.606-1.162,3.063,3.063,0,0,1,2.561,1.22,5.437,5.437,0,0,1,.942,3.4Zm-1.536-.174a3.968,3.968,0,0,0-.647-2.4,2.086,2.086,0,0,0-1.776-.88,2.257,2.257,0,0,0-2.092,1.237v4.292A2.262,2.262,0,0,0,263.3-1.087a2.076,2.076,0,0,0,1.756-.876A4.332,4.332,0,0,0,265.708-4.565ZM272.921.166a3.924,3.924,0,0,1-2.972-1.2A4.452,4.452,0,0,1,268.8-4.242v-.282a5.39,5.39,0,0,1,.51-2.386,3.982,3.982,0,0,1,1.428-1.644,3.59,3.59,0,0,1,1.988-.594,3.364,3.364,0,0,1,2.723,1.154,5,5,0,0,1,.971,3.3v.639H270.34a3.193,3.193,0,0,0,.776,2.146A2.44,2.44,0,0,0,273-1.087a2.675,2.675,0,0,0,1.378-.332,3.462,3.462,0,0,0,.988-.88l.938.73A3.772,3.772,0,0,1,272.921.166Zm-.191-8.052a2.048,2.048,0,0,0-1.561.677,3.288,3.288,0,0,0-.78,1.9h4.5v-.116a2.925,2.925,0,0,0-.631-1.814A1.928,1.928,0,0,0,272.73-7.886Zm9.073,6.8a2.212,2.212,0,0,0,1.436-.5,1.752,1.752,0,0,0,.681-1.245h1.453a2.785,2.785,0,0,1-.531,1.469,3.5,3.5,0,0,1-1.307,1.112A3.772,3.772,0,0,1,281.8.166a3.7,3.7,0,0,1-2.918-1.224A4.877,4.877,0,0,1,277.8-4.408v-.257A5.407,5.407,0,0,1,278.284-7a3.667,3.667,0,0,1,1.382-1.585,3.926,3.926,0,0,1,2.129-.564,3.6,3.6,0,0,1,2.511.9,3.234,3.234,0,0,1,1.067,2.349H283.92a2.116,2.116,0,0,0-.66-1.432,2.053,2.053,0,0,0-1.465-.56,2.149,2.149,0,0,0-1.814.843,3.957,3.957,0,0,0-.643,2.436v.291a3.878,3.878,0,0,0,.639,2.391A2.16,2.16,0,0,0,281.8-1.087ZM290.826.166a3.924,3.924,0,0,1-2.972-1.2,4.452,4.452,0,0,1-1.146-3.208v-.282a5.39,5.39,0,0,1,.51-2.386,3.982,3.982,0,0,1,1.428-1.644,3.59,3.59,0,0,1,1.988-.594,3.364,3.364,0,0,1,2.723,1.154,5,5,0,0,1,.971,3.3v.639h-6.084a3.193,3.193,0,0,0,.776,2.146,2.44,2.44,0,0,0,1.888.818,2.675,2.675,0,0,0,1.378-.332,3.462,3.462,0,0,0,.988-.88l.938.73A3.772,3.772,0,0,1,290.826.166Zm-.191-8.052a2.048,2.048,0,0,0-1.561.677,3.288,3.288,0,0,0-.78,1.9h4.5v-.116a2.925,2.925,0,0,0-.631-1.814A1.928,1.928,0,0,0,290.635-7.886Zm10.7,5.5a1.131,1.131,0,0,0-.469-.967,4.514,4.514,0,0,0-1.635-.594,7.732,7.732,0,0,1-1.851-.6,2.634,2.634,0,0,1-1.013-.83,1.985,1.985,0,0,1-.328-1.146,2.33,2.33,0,0,1,.934-1.868,3.647,3.647,0,0,1,2.386-.764,3.753,3.753,0,0,1,2.478.789,2.5,2.5,0,0,1,.95,2.017h-1.544a1.386,1.386,0,0,0-.535-1.087,2.006,2.006,0,0,0-1.349-.457,2.1,2.1,0,0,0-1.312.365,1.15,1.15,0,0,0-.473.955.931.931,0,0,0,.44.838,5.413,5.413,0,0,0,1.59.54,8.283,8.283,0,0,1,1.864.614,2.718,2.718,0,0,1,1.058.859,2.112,2.112,0,0,1,.344,1.224,2.3,2.3,0,0,1-.963,1.93,4.039,4.039,0,0,1-2.5.726A4.523,4.523,0,0,1,297.5-.216a3.105,3.105,0,0,1-1.3-1.067,2.571,2.571,0,0,1-.469-1.482h1.536a1.59,1.59,0,0,0,.618,1.224,2.4,2.4,0,0,0,1.523.452,2.476,2.476,0,0,0,1.4-.353A1.084,1.084,0,0,0,301.335-2.382Z" transform="translate(6525 -1446.82)" fill="#12263f"/>
    <path id="Path_190237" data-name="Path 190237" d="M4.964-5.387A7.494,7.494,0,0,1,1.98-6.836a2.768,2.768,0,0,1-.934-2.121,2.923,2.923,0,0,1,1.141-2.362,4.536,4.536,0,0,1,2.968-.934,4.951,4.951,0,0,1,2.22.481,3.651,3.651,0,0,1,1.511,1.328,3.4,3.4,0,0,1,.535,1.851h-1.6a2.21,2.21,0,0,0-.7-1.729,2.835,2.835,0,0,0-1.967-.629,2.9,2.9,0,0,0-1.839.52,1.734,1.734,0,0,0-.66,1.443,1.56,1.56,0,0,0,.627,1.252A6.147,6.147,0,0,0,5.416-6.8a9.9,9.9,0,0,1,2.357.935A3.577,3.577,0,0,1,9.035-4.673a3.04,3.04,0,0,1,.411,1.6A2.824,2.824,0,0,1,8.3-.718,4.884,4.884,0,0,1,5.238.166,5.681,5.681,0,0,1,2.914-.311,3.911,3.911,0,0,1,1.249-1.619,3.191,3.191,0,0,1,.664-3.5h1.6a2.082,2.082,0,0,0,.809,1.731,3.408,3.408,0,0,0,2.162.635,3.133,3.133,0,0,0,1.934-.515,1.672,1.672,0,0,0,.672-1.4,1.641,1.641,0,0,0-.623-1.374A7.178,7.178,0,0,0,4.964-5.387ZM12.916,0H11.38V-8.981h1.536Zm-1.66-11.364a.917.917,0,0,1,.228-.631.857.857,0,0,1,.677-.257.87.87,0,0,1,.681.257.907.907,0,0,1,.232.631.877.877,0,0,1-.232.623.886.886,0,0,1-.681.249.872.872,0,0,1-.677-.249A.886.886,0,0,1,11.256-11.364ZM19.1.166a3.924,3.924,0,0,1-2.972-1.2,4.452,4.452,0,0,1-1.146-3.208v-.282a5.39,5.39,0,0,1,.51-2.386,3.982,3.982,0,0,1,1.428-1.644,3.59,3.59,0,0,1,1.988-.594,3.364,3.364,0,0,1,2.723,1.154,5,5,0,0,1,.971,3.3v.639H16.519a3.193,3.193,0,0,0,.776,2.146,2.44,2.44,0,0,0,1.888.818,2.675,2.675,0,0,0,1.378-.332,3.462,3.462,0,0,0,.988-.88l.938.73A3.772,3.772,0,0,1,19.1.166Zm-.191-8.052a2.048,2.048,0,0,0-1.561.677,3.288,3.288,0,0,0-.78,1.9h4.5v-.116a2.925,2.925,0,0,0-.631-1.814A1.928,1.928,0,0,0,18.909-7.886Zm6.915-1.1.042,1A3.317,3.317,0,0,1,28.53-9.147,2.568,2.568,0,0,1,31.095-7.7a3.4,3.4,0,0,1,1.166-1.046,3.445,3.445,0,0,1,1.7-.4q2.955,0,3,3.129V0H35.428V-5.927a2.062,2.062,0,0,0-.44-1.44,1.937,1.937,0,0,0-1.478-.477,2.036,2.036,0,0,0-1.419.51,2.071,2.071,0,0,0-.656,1.374V0H29.891V-5.885a1.713,1.713,0,0,0-1.917-1.959,2.055,2.055,0,0,0-2.067,1.287V0H24.371V-8.981Zm21.059,4.59a5.34,5.34,0,0,1-.946,3.308A3.024,3.024,0,0,1,43.4.166a3.131,3.131,0,0,1-2.631-1.2L40.69,0H39.279V-12.75h1.536v4.756A3.113,3.113,0,0,1,43.38-9.147a3.042,3.042,0,0,1,2.569,1.237,5.5,5.5,0,0,1,.934,3.387Zm-1.536-.174a4.15,4.15,0,0,0-.606-2.424A2.006,2.006,0,0,0,43-7.844a2.255,2.255,0,0,0-2.183,1.411v3.885a2.318,2.318,0,0,0,2.2,1.411,2,2,0,0,0,1.718-.855A4.413,4.413,0,0,0,45.347-4.565ZM53.158-7.6a4.6,4.6,0,0,0-.755-.058,2.024,2.024,0,0,0-2.05,1.287V0H48.817V-8.981h1.494l.025,1.038a2.391,2.391,0,0,1,2.142-1.2,1.569,1.569,0,0,1,.681.116ZM59.782,0a3.226,3.226,0,0,1-.216-.946A3.426,3.426,0,0,1,57.01.166a3.17,3.17,0,0,1-2.179-.751A2.43,2.43,0,0,1,53.98-2.49a2.539,2.539,0,0,1,1.067-2.179,5.029,5.029,0,0,1,3-.776h1.494v-.706a1.725,1.725,0,0,0-.481-1.282,1.935,1.935,0,0,0-1.419-.477,2.239,2.239,0,0,0-1.378.415,1.223,1.223,0,0,0-.556,1H54.163a2.119,2.119,0,0,1,.477-1.3,3.258,3.258,0,0,1,1.295-.992,4.356,4.356,0,0,1,1.8-.365,3.551,3.551,0,0,1,2.432.776,2.8,2.8,0,0,1,.913,2.137V-2.1a5.054,5.054,0,0,0,.315,1.967V0ZM57.234-1.17a2.7,2.7,0,0,0,1.37-.374,2.259,2.259,0,0,0,.938-.971V-4.358h-1.2q-2.822,0-2.822,1.652A1.4,1.4,0,0,0,56-1.577,1.85,1.85,0,0,0,57.234-1.17Zm10.085-3.4A5.261,5.261,0,0,1,68.3-7.89a3.1,3.1,0,0,1,2.565-1.258,3.115,3.115,0,0,1,2.5,1.079V-12.75H74.9V0H73.487l-.075-.963A3.127,3.127,0,0,1,70.847.166,3.068,3.068,0,0,1,68.3-1.112a5.321,5.321,0,0,1-.984-3.337Zm1.536.174A3.984,3.984,0,0,0,69.486-2a2.039,2.039,0,0,0,1.743.863,2.24,2.24,0,0,0,2.133-1.312V-6.574a2.257,2.257,0,0,0-2.117-1.27,2.049,2.049,0,0,0-1.76.872A4.386,4.386,0,0,0,68.855-4.391ZM81.007.166a3.924,3.924,0,0,1-2.972-1.2A4.452,4.452,0,0,1,76.89-4.242v-.282A5.39,5.39,0,0,1,77.4-6.91a3.982,3.982,0,0,1,1.428-1.644,3.59,3.59,0,0,1,1.988-.594,3.364,3.364,0,0,1,2.723,1.154,5,5,0,0,1,.971,3.3v.639H78.426A3.193,3.193,0,0,0,79.2-1.905a2.44,2.44,0,0,0,1.888.818,2.675,2.675,0,0,0,1.378-.332,3.462,3.462,0,0,0,.988-.88l.938.73A3.772,3.772,0,0,1,81.007.166Zm-.191-8.052a2.048,2.048,0,0,0-1.561.677,3.288,3.288,0,0,0-.78,1.9h4.5v-.116a2.925,2.925,0,0,0-.631-1.814A1.928,1.928,0,0,0,80.816-7.886ZM96.04,0a3.226,3.226,0,0,1-.216-.946A3.426,3.426,0,0,1,93.268.166a3.17,3.17,0,0,1-2.179-.751,2.43,2.43,0,0,1-.851-1.905A2.539,2.539,0,0,1,91.3-4.669a5.029,5.029,0,0,1,3-.776H95.8v-.706a1.725,1.725,0,0,0-.481-1.282A1.935,1.935,0,0,0,93.9-7.911a2.239,2.239,0,0,0-1.378.415,1.223,1.223,0,0,0-.556,1H90.42a2.119,2.119,0,0,1,.477-1.3,3.258,3.258,0,0,1,1.295-.992,4.356,4.356,0,0,1,1.8-.365,3.551,3.551,0,0,1,2.432.776,2.8,2.8,0,0,1,.913,2.137V-2.1A5.054,5.054,0,0,0,97.65-.133V0ZM93.492-1.17a2.7,2.7,0,0,0,1.37-.374,2.259,2.259,0,0,0,.938-.971V-4.358H94.6q-2.822,0-2.822,1.652a1.4,1.4,0,0,0,.481,1.129A1.85,1.85,0,0,0,93.492-1.17ZM101.411,0H99.875V-12.75h1.536Zm6.184.166a3.924,3.924,0,0,1-2.972-1.2,4.452,4.452,0,0,1-1.146-3.208v-.282a5.39,5.39,0,0,1,.51-2.386,3.982,3.982,0,0,1,1.428-1.644,3.59,3.59,0,0,1,1.988-.594,3.364,3.364,0,0,1,2.723,1.154,5,5,0,0,1,.971,3.3v.639h-6.084a3.193,3.193,0,0,0,.776,2.146,2.44,2.44,0,0,0,1.888.818,2.675,2.675,0,0,0,1.378-.332,3.462,3.462,0,0,0,.988-.88l.938.73A3.772,3.772,0,0,1,107.595.166ZM107.4-7.886a2.048,2.048,0,0,0-1.561.677,3.288,3.288,0,0,0-.78,1.9h4.5v-.116a2.925,2.925,0,0,0-.631-1.814A1.928,1.928,0,0,0,107.4-7.886Zm8.326,5.8,2.225-6.9h1.569L116.3,0h-1.17l-3.254-8.981h1.569ZM122.669,0h-1.536V-8.981h1.536Zm-1.66-11.364a.917.917,0,0,1,.228-.631.857.857,0,0,1,.677-.257.87.87,0,0,1,.681.257.907.907,0,0,1,.232.631.877.877,0,0,1-.232.623.886.886,0,0,1-.681.249.872.872,0,0,1-.677-.249A.886.886,0,0,1,121.009-11.364Zm5.57,2.382.05,1.129a3.273,3.273,0,0,1,2.689-1.295q2.847,0,2.872,3.212V0h-1.536V-5.943a2.068,2.068,0,0,0-.444-1.436,1.78,1.78,0,0,0-1.357-.465,2.216,2.216,0,0,0-1.312.4,2.706,2.706,0,0,0-.88,1.046V0h-1.536V-8.981ZM134.1-4.574a5.3,5.3,0,0,1,.519-2.374,3.87,3.87,0,0,1,1.444-1.627,3.932,3.932,0,0,1,2.113-.573,3.788,3.788,0,0,1,2.968,1.27A4.886,4.886,0,0,1,142.275-4.5v.108a5.351,5.351,0,0,1-.5,2.353,3.813,3.813,0,0,1-1.436,1.623,3.977,3.977,0,0,1-2.146.581,3.778,3.778,0,0,1-2.959-1.27A4.861,4.861,0,0,1,134.1-4.466Zm1.544.183a3.842,3.842,0,0,0,.693,2.4,2.218,2.218,0,0,0,1.855.9A2.2,2.2,0,0,0,140.051-2a4.2,4.2,0,0,0,.689-2.569,3.836,3.836,0,0,0-.7-2.395,2.23,2.23,0,0,0-1.864-.917,2.205,2.205,0,0,0-1.834.9A4.17,4.17,0,0,0,135.643-4.391Zm13.788,2.009a1.13,1.13,0,0,0-.469-.967,4.514,4.514,0,0,0-1.635-.594,7.731,7.731,0,0,1-1.851-.6,2.633,2.633,0,0,1-1.013-.83,1.986,1.986,0,0,1-.328-1.146,2.33,2.33,0,0,1,.934-1.868,3.647,3.647,0,0,1,2.386-.764,3.753,3.753,0,0,1,2.478.789,2.5,2.5,0,0,1,.95,2.017h-1.544a1.386,1.386,0,0,0-.535-1.087,2.006,2.006,0,0,0-1.349-.457,2.1,2.1,0,0,0-1.312.365,1.15,1.15,0,0,0-.473.955.932.932,0,0,0,.44.838,5.413,5.413,0,0,0,1.59.54,8.283,8.283,0,0,1,1.864.614,2.718,2.718,0,0,1,1.058.859,2.112,2.112,0,0,1,.344,1.224A2.3,2.3,0,0,1,150-.56a4.039,4.039,0,0,1-2.5.726A4.523,4.523,0,0,1,145.6-.216a3.105,3.105,0,0,1-1.3-1.067,2.571,2.571,0,0,1-.469-1.482h1.536a1.59,1.59,0,0,0,.618,1.224,2.4,2.4,0,0,0,1.523.452,2.476,2.476,0,0,0,1.4-.353A1.084,1.084,0,0,0,149.431-2.382Z" transform="translate(6525 -1404.82)" fill="#12263f"/>
    <path id="Path_190238" data-name="Path 190238" d="M8.077-3.163H3.013L1.876,0H.232L4.848-12.086H6.242L10.866,0H9.23Zm-4.582-1.3H7.6L5.545-10.119ZM13.92,0H12.385V-12.75H13.92Zm4.125,0H16.51V-8.981h1.536Zm-1.66-11.364a.917.917,0,0,1,.228-.631.857.857,0,0,1,.677-.257.87.87,0,0,1,.681.257.907.907,0,0,1,.232.631.877.877,0,0,1-.232.623.886.886,0,0,1-.681.249.872.872,0,0,1-.677-.249A.886.886,0,0,1,16.386-11.364Zm5.562,2.382.042,1a3.317,3.317,0,0,1,2.665-1.162A2.568,2.568,0,0,1,27.218-7.7a3.4,3.4,0,0,1,1.166-1.046,3.445,3.445,0,0,1,1.7-.4q2.955,0,3,3.129V0H31.551V-5.927a2.062,2.062,0,0,0-.44-1.44,1.937,1.937,0,0,0-1.478-.477,2.036,2.036,0,0,0-1.419.51,2.071,2.071,0,0,0-.656,1.374V0H26.015V-5.885A1.713,1.713,0,0,0,24.1-7.844,2.055,2.055,0,0,0,22.03-6.558V0H20.495V-8.981ZM39.13.166a3.924,3.924,0,0,1-2.972-1.2,4.452,4.452,0,0,1-1.146-3.208v-.282a5.39,5.39,0,0,1,.51-2.386,3.982,3.982,0,0,1,1.428-1.644,3.59,3.59,0,0,1,1.988-.594,3.364,3.364,0,0,1,2.723,1.154,5,5,0,0,1,.971,3.3v.639H36.548a3.193,3.193,0,0,0,.776,2.146,2.44,2.44,0,0,0,1.888.818,2.675,2.675,0,0,0,1.378-.332,3.462,3.462,0,0,0,.988-.88l.938.73A3.772,3.772,0,0,1,39.13.166Zm-.191-8.052a2.048,2.048,0,0,0-1.561.677,3.288,3.288,0,0,0-.78,1.9h4.5v-.116a2.925,2.925,0,0,0-.631-1.814A1.928,1.928,0,0,0,38.939-7.886Zm6.923-1.1.05,1.129A3.273,3.273,0,0,1,48.6-9.147q2.847,0,2.872,3.212V0H49.938V-5.943a2.068,2.068,0,0,0-.444-1.436,1.78,1.78,0,0,0-1.357-.465,2.216,2.216,0,0,0-1.312.4,2.706,2.706,0,0,0-.88,1.046V0H44.409V-8.981Zm10.011-2.175v2.175h1.677v1.187H55.873v5.577a1.247,1.247,0,0,0,.224.81.943.943,0,0,0,.764.27,3.718,3.718,0,0,0,.73-.1V0a4.478,4.478,0,0,1-1.179.165A1.912,1.912,0,0,1,54.86-.457a2.675,2.675,0,0,1-.523-1.768v-5.57H52.7V-8.981h1.635v-2.175ZM64.887,0a3.226,3.226,0,0,1-.216-.946A3.426,3.426,0,0,1,62.115.166a3.17,3.17,0,0,1-2.179-.751,2.43,2.43,0,0,1-.851-1.905,2.539,2.539,0,0,1,1.067-2.179,5.029,5.029,0,0,1,3-.776h1.494v-.706a1.725,1.725,0,0,0-.481-1.282,1.935,1.935,0,0,0-1.419-.477,2.239,2.239,0,0,0-1.378.415,1.223,1.223,0,0,0-.556,1H59.268a2.119,2.119,0,0,1,.477-1.3,3.258,3.258,0,0,1,1.295-.992,4.356,4.356,0,0,1,1.8-.365,3.551,3.551,0,0,1,2.432.776,2.8,2.8,0,0,1,.913,2.137V-2.1A5.054,5.054,0,0,0,66.5-.133V0ZM62.339-1.17a2.7,2.7,0,0,0,1.37-.374,2.259,2.259,0,0,0,.938-.971V-4.358h-1.2q-2.822,0-2.822,1.652A1.4,1.4,0,0,0,61.1-1.577,1.85,1.85,0,0,0,62.339-1.17Zm9.853.083a2.212,2.212,0,0,0,1.436-.5,1.752,1.752,0,0,0,.681-1.245h1.453a2.785,2.785,0,0,1-.531,1.469A3.5,3.5,0,0,1,73.923-.249a3.772,3.772,0,0,1-1.731.415,3.7,3.7,0,0,1-2.918-1.224,4.877,4.877,0,0,1-1.083-3.349v-.257A5.407,5.407,0,0,1,68.672-7a3.667,3.667,0,0,1,1.382-1.585,3.926,3.926,0,0,1,2.129-.564,3.6,3.6,0,0,1,2.511.9,3.234,3.234,0,0,1,1.067,2.349H74.309a2.116,2.116,0,0,0-.66-1.432,2.053,2.053,0,0,0-1.465-.56,2.149,2.149,0,0,0-1.814.843,3.957,3.957,0,0,0-.643,2.436v.291a3.878,3.878,0,0,0,.639,2.391A2.16,2.16,0,0,0,72.192-1.087ZM79.156,0H77.621V-8.981h1.536ZM77.5-11.364a.917.917,0,0,1,.228-.631.857.857,0,0,1,.677-.257.87.87,0,0,1,.681.257.907.907,0,0,1,.232.631.877.877,0,0,1-.232.623.886.886,0,0,1-.681.249.872.872,0,0,1-.677-.249A.886.886,0,0,1,77.5-11.364Zm3.71,6.79a5.3,5.3,0,0,1,.519-2.374A3.87,3.87,0,0,1,83.17-8.575a3.932,3.932,0,0,1,2.113-.573,3.788,3.788,0,0,1,2.968,1.27A4.886,4.886,0,0,1,89.383-4.5v.108a5.351,5.351,0,0,1-.5,2.353A3.813,3.813,0,0,1,87.445-.415,3.977,3.977,0,0,1,85.3.166,3.778,3.778,0,0,1,82.34-1.1a4.861,4.861,0,0,1-1.133-3.362Zm1.544.183a3.842,3.842,0,0,0,.693,2.4,2.218,2.218,0,0,0,1.855.9A2.2,2.2,0,0,0,87.158-2a4.2,4.2,0,0,0,.689-2.569,3.836,3.836,0,0,0-.7-2.395,2.23,2.23,0,0,0-1.864-.917,2.205,2.205,0,0,0-1.834.9A4.17,4.17,0,0,0,82.75-4.391Zm3.229-8.342h1.859l-2.225,2.44-1.237,0Zm6.782,3.752.05,1.129A3.273,3.273,0,0,1,95.5-9.147q2.847,0,2.872,3.212V0H96.837V-5.943a2.068,2.068,0,0,0-.444-1.436,1.78,1.78,0,0,0-1.357-.465,2.216,2.216,0,0,0-1.312.4,2.706,2.706,0,0,0-.88,1.046V0H91.309V-8.981Zm11.762,4.416A5.261,5.261,0,0,1,105.5-7.89a3.1,3.1,0,0,1,2.565-1.258,3.115,3.115,0,0,1,2.5,1.079V-12.75H112.1V0h-1.411l-.075-.963A3.127,3.127,0,0,1,108.051.166a3.068,3.068,0,0,1-2.544-1.278,5.321,5.321,0,0,1-.984-3.337Zm1.536.174A3.984,3.984,0,0,0,106.69-2a2.039,2.039,0,0,0,1.743.863,2.24,2.24,0,0,0,2.133-1.312V-6.574a2.257,2.257,0,0,0-2.117-1.27,2.049,2.049,0,0,0-1.76.872A4.386,4.386,0,0,0,106.059-4.391ZM118.211.166a3.924,3.924,0,0,1-2.972-1.2,4.452,4.452,0,0,1-1.146-3.208v-.282a5.39,5.39,0,0,1,.51-2.386,3.982,3.982,0,0,1,1.428-1.644,3.59,3.59,0,0,1,1.988-.594,3.364,3.364,0,0,1,2.723,1.154,5,5,0,0,1,.971,3.3v.639H115.63a3.193,3.193,0,0,0,.776,2.146,2.44,2.44,0,0,0,1.888.818,2.675,2.675,0,0,0,1.378-.332,3.462,3.462,0,0,0,.988-.88l.938.73A3.772,3.772,0,0,1,118.211.166Zm-.191-8.052a2.048,2.048,0,0,0-1.561.677,3.288,3.288,0,0,0-.78,1.9h4.5v-.116a2.925,2.925,0,0,0-.631-1.814A1.928,1.928,0,0,0,118.021-7.886Zm17.266,3.495a5.378,5.378,0,0,1-.938,3.3,3.006,3.006,0,0,1-2.54,1.253,3.294,3.294,0,0,1-2.573-1.038V3.453H127.7V-8.981h1.4l.075,1a3.163,3.163,0,0,1,2.606-1.162,3.063,3.063,0,0,1,2.561,1.22,5.437,5.437,0,0,1,.942,3.4Zm-1.536-.174a3.968,3.968,0,0,0-.647-2.4,2.086,2.086,0,0,0-1.776-.88,2.257,2.257,0,0,0-2.092,1.237v4.292a2.262,2.262,0,0,0,2.108,1.229,2.076,2.076,0,0,0,1.756-.876A4.332,4.332,0,0,0,133.75-4.565ZM140.964.166a3.924,3.924,0,0,1-2.972-1.2,4.452,4.452,0,0,1-1.146-3.208v-.282a5.39,5.39,0,0,1,.51-2.386,3.982,3.982,0,0,1,1.428-1.644,3.59,3.59,0,0,1,1.988-.594A3.364,3.364,0,0,1,143.5-7.994a5,5,0,0,1,.971,3.3v.639h-6.084a3.193,3.193,0,0,0,.776,2.146,2.44,2.44,0,0,0,1.888.818,2.675,2.675,0,0,0,1.378-.332,3.462,3.462,0,0,0,.988-.88l.938.73A3.772,3.772,0,0,1,140.964.166Zm-.191-8.052a2.048,2.048,0,0,0-1.561.677,3.288,3.288,0,0,0-.78,1.9h4.5v-.116a2.925,2.925,0,0,0-.631-1.814A1.928,1.928,0,0,0,140.773-7.886Zm9.073,6.8a2.212,2.212,0,0,0,1.436-.5,1.752,1.752,0,0,0,.681-1.245h1.453a2.785,2.785,0,0,1-.531,1.469,3.5,3.5,0,0,1-1.307,1.112,3.772,3.772,0,0,1-1.731.415,3.7,3.7,0,0,1-2.918-1.224,4.877,4.877,0,0,1-1.083-3.349v-.257A5.407,5.407,0,0,1,146.326-7a3.667,3.667,0,0,1,1.382-1.585,3.926,3.926,0,0,1,2.129-.564,3.6,3.6,0,0,1,2.511.9,3.234,3.234,0,0,1,1.067,2.349h-1.453a2.116,2.116,0,0,0-.66-1.432,2.053,2.053,0,0,0-1.465-.56,2.149,2.149,0,0,0-1.814.843,3.957,3.957,0,0,0-.643,2.436v.291a3.878,3.878,0,0,0,.639,2.391A2.16,2.16,0,0,0,149.846-1.087ZM158.869.166a3.924,3.924,0,0,1-2.972-1.2,4.452,4.452,0,0,1-1.146-3.208v-.282a5.39,5.39,0,0,1,.51-2.386,3.982,3.982,0,0,1,1.428-1.644,3.59,3.59,0,0,1,1.988-.594A3.364,3.364,0,0,1,161.4-7.994a5,5,0,0,1,.971,3.3v.639h-6.084a3.193,3.193,0,0,0,.776,2.146,2.44,2.44,0,0,0,1.888.818,2.675,2.675,0,0,0,1.378-.332,3.462,3.462,0,0,0,.988-.88l.938.73A3.772,3.772,0,0,1,158.869.166Zm-.191-8.052a2.048,2.048,0,0,0-1.561.677,3.288,3.288,0,0,0-.78,1.9h4.5v-.116a2.925,2.925,0,0,0-.631-1.814A1.928,1.928,0,0,0,158.678-7.886Zm10.7,5.5a1.13,1.13,0,0,0-.469-.967,4.514,4.514,0,0,0-1.635-.594,7.731,7.731,0,0,1-1.851-.6,2.633,2.633,0,0,1-1.013-.83,1.986,1.986,0,0,1-.328-1.146,2.33,2.33,0,0,1,.934-1.868,3.647,3.647,0,0,1,2.386-.764,3.753,3.753,0,0,1,2.478.789,2.5,2.5,0,0,1,.95,2.017h-1.544a1.386,1.386,0,0,0-.535-1.087,2.006,2.006,0,0,0-1.349-.457,2.1,2.1,0,0,0-1.312.365,1.15,1.15,0,0,0-.473.955.932.932,0,0,0,.44.838,5.413,5.413,0,0,0,1.59.54,8.283,8.283,0,0,1,1.864.614,2.718,2.718,0,0,1,1.058.859,2.112,2.112,0,0,1,.344,1.224,2.3,2.3,0,0,1-.963,1.93,4.039,4.039,0,0,1-2.5.726,4.523,4.523,0,0,1-1.909-.382,3.105,3.105,0,0,1-1.3-1.067,2.571,2.571,0,0,1-.469-1.482h1.536a1.59,1.59,0,0,0,.618,1.224,2.4,2.4,0,0,0,1.523.452,2.476,2.476,0,0,0,1.4-.353A1.084,1.084,0,0,0,169.377-2.382Z" transform="translate(6525 -1362.82)" fill="#12263f"/>
    <path id="Path_190239" data-name="Path 190239" d="M3.461-12.086,7.413-2.225l3.951-9.861h2.067V0H11.837V-4.707l.149-5.08L8.019,0H6.8L2.839-9.762,3-4.707V0H1.4V-12.086ZM21.549,0a3.226,3.226,0,0,1-.216-.946A3.426,3.426,0,0,1,18.776.166,3.17,3.17,0,0,1,16.6-.585a2.43,2.43,0,0,1-.851-1.905,2.539,2.539,0,0,1,1.067-2.179,5.029,5.029,0,0,1,3-.776h1.494v-.706a1.725,1.725,0,0,0-.481-1.282,1.935,1.935,0,0,0-1.419-.477,2.239,2.239,0,0,0-1.378.415,1.223,1.223,0,0,0-.556,1H15.929a2.119,2.119,0,0,1,.477-1.3A3.258,3.258,0,0,1,17.7-8.782a4.356,4.356,0,0,1,1.8-.365,3.551,3.551,0,0,1,2.432.776,2.8,2.8,0,0,1,.913,2.137V-2.1a5.054,5.054,0,0,0,.315,1.967V0ZM19-1.17a2.7,2.7,0,0,0,1.37-.374,2.259,2.259,0,0,0,.938-.971V-4.358H20.1q-2.822,0-2.822,1.652a1.4,1.4,0,0,0,.481,1.129A1.85,1.85,0,0,0,19-1.17Zm7.7-7.811.05,1.129a3.273,3.273,0,0,1,2.689-1.295q2.847,0,2.872,3.212V0H30.779V-5.943a2.068,2.068,0,0,0-.444-1.436,1.78,1.78,0,0,0-1.357-.465,2.216,2.216,0,0,0-1.312.4,2.706,2.706,0,0,0-.88,1.046V0H25.251V-8.981Zm10.011-2.175v2.175h1.677v1.187H36.714v5.577a1.247,1.247,0,0,0,.224.81.943.943,0,0,0,.764.27,3.718,3.718,0,0,0,.73-.1V0a4.478,4.478,0,0,1-1.179.165A1.912,1.912,0,0,1,35.7-.457a2.675,2.675,0,0,1-.523-1.768v-5.57H33.543V-8.981h1.635v-2.175ZM43.911.166a3.924,3.924,0,0,1-2.972-1.2,4.452,4.452,0,0,1-1.146-3.208v-.282A5.39,5.39,0,0,1,40.3-6.91a3.982,3.982,0,0,1,1.428-1.644,3.59,3.59,0,0,1,1.988-.594,3.364,3.364,0,0,1,2.723,1.154,5,5,0,0,1,.971,3.3v.639H41.33a3.193,3.193,0,0,0,.776,2.146,2.44,2.44,0,0,0,1.888.818,2.675,2.675,0,0,0,1.378-.332,3.462,3.462,0,0,0,.988-.88l.938.73A3.772,3.772,0,0,1,43.911.166ZM43.72-7.886a2.048,2.048,0,0,0-1.561.677,3.288,3.288,0,0,0-.78,1.9h4.5v-.116a2.925,2.925,0,0,0-.631-1.814A1.928,1.928,0,0,0,43.72-7.886Zm6.923-1.1.05,1.129a3.273,3.273,0,0,1,2.689-1.295q2.847,0,2.872,3.212V0H54.719V-5.943a2.068,2.068,0,0,0-.444-1.436,1.78,1.78,0,0,0-1.357-.465,2.216,2.216,0,0,0-1.312.4,2.706,2.706,0,0,0-.88,1.046V0H49.19V-8.981ZM60.239,0H58.7V-8.981h1.536Zm-1.66-11.364a.917.917,0,0,1,.228-.631.857.857,0,0,1,.677-.257.87.87,0,0,1,.681.257.907.907,0,0,1,.232.631.877.877,0,0,1-.232.623.886.886,0,0,1-.681.249.872.872,0,0,1-.677-.249A.886.886,0,0,1,58.579-11.364ZM64.14-8.981l.042,1a3.317,3.317,0,0,1,2.665-1.162A2.568,2.568,0,0,1,69.411-7.7a3.4,3.4,0,0,1,1.166-1.046,3.445,3.445,0,0,1,1.7-.4q2.955,0,3,3.129V0H73.744V-5.927a2.062,2.062,0,0,0-.44-1.44,1.937,1.937,0,0,0-1.478-.477,2.036,2.036,0,0,0-1.419.51,2.071,2.071,0,0,0-.656,1.374V0H68.208V-5.885A1.713,1.713,0,0,0,66.29-7.844a2.055,2.055,0,0,0-2.067,1.287V0H62.688V-8.981ZM79.264,0H77.729V-8.981h1.536ZM77.6-11.364a.917.917,0,0,1,.228-.631.857.857,0,0,1,.677-.257.87.87,0,0,1,.681.257.907.907,0,0,1,.232.631.877.877,0,0,1-.232.623.886.886,0,0,1-.681.249.872.872,0,0,1-.677-.249A.886.886,0,0,1,77.6-11.364ZM85.448.166a3.924,3.924,0,0,1-2.972-1.2,4.452,4.452,0,0,1-1.146-3.208v-.282a5.39,5.39,0,0,1,.51-2.386,3.982,3.982,0,0,1,1.428-1.644,3.59,3.59,0,0,1,1.988-.594A3.364,3.364,0,0,1,87.98-7.994a5,5,0,0,1,.971,3.3v.639H82.867a3.193,3.193,0,0,0,.776,2.146,2.44,2.44,0,0,0,1.888.818,2.675,2.675,0,0,0,1.378-.332A3.462,3.462,0,0,0,87.9-2.3l.938.73A3.772,3.772,0,0,1,85.448.166Zm-.191-8.052a2.048,2.048,0,0,0-1.561.677,3.288,3.288,0,0,0-.78,1.9h4.5v-.116a2.925,2.925,0,0,0-.631-1.814A1.928,1.928,0,0,0,85.257-7.886Zm6.923-1.1.05,1.129a3.273,3.273,0,0,1,2.689-1.295q2.847,0,2.872,3.212V0H96.256V-5.943a2.068,2.068,0,0,0-.444-1.436,1.78,1.78,0,0,0-1.357-.465,2.216,2.216,0,0,0-1.312.4,2.706,2.706,0,0,0-.88,1.046V0H90.728V-8.981Zm10.011-2.175v2.175h1.677v1.187h-1.677v5.577a1.247,1.247,0,0,0,.224.81.943.943,0,0,0,.764.27,3.718,3.718,0,0,0,.73-.1V0a4.478,4.478,0,0,1-1.179.165,1.912,1.912,0,0,1-1.552-.623,2.675,2.675,0,0,1-.523-1.768v-5.57H99.02V-8.981h1.635v-2.175Zm2.9,6.583a5.3,5.3,0,0,1,.519-2.374,3.87,3.87,0,0,1,1.444-1.627,3.932,3.932,0,0,1,2.113-.573,3.788,3.788,0,0,1,2.968,1.27A4.886,4.886,0,0,1,113.264-4.5v.108a5.351,5.351,0,0,1-.5,2.353,3.813,3.813,0,0,1-1.436,1.623,3.977,3.977,0,0,1-2.146.581,3.778,3.778,0,0,1-2.959-1.27,4.861,4.861,0,0,1-1.133-3.362Zm1.544.183a3.842,3.842,0,0,0,.693,2.4,2.218,2.218,0,0,0,1.855.9A2.2,2.2,0,0,0,111.04-2a4.2,4.2,0,0,0,.689-2.569,3.836,3.836,0,0,0-.7-2.395,2.23,2.23,0,0,0-1.864-.917,2.205,2.205,0,0,0-1.834.9A4.17,4.17,0,0,0,106.632-4.391Zm12.393-.174A5.261,5.261,0,0,1,120-7.89a3.1,3.1,0,0,1,2.565-1.258,3.115,3.115,0,0,1,2.5,1.079V-12.75H126.6V0h-1.411l-.075-.963A3.127,3.127,0,0,1,122.553.166a3.068,3.068,0,0,1-2.544-1.278,5.321,5.321,0,0,1-.984-3.337Zm1.536.174A3.984,3.984,0,0,0,121.191-2a2.039,2.039,0,0,0,1.743.863,2.24,2.24,0,0,0,2.133-1.312V-6.574a2.257,2.257,0,0,0-2.117-1.27,2.049,2.049,0,0,0-1.76.872A4.386,4.386,0,0,0,120.561-4.391ZM132.713.166a3.924,3.924,0,0,1-2.972-1.2A4.452,4.452,0,0,1,128.6-4.242v-.282a5.39,5.39,0,0,1,.51-2.386,3.982,3.982,0,0,1,1.428-1.644,3.59,3.59,0,0,1,1.988-.594,3.364,3.364,0,0,1,2.723,1.154,5,5,0,0,1,.971,3.3v.639h-6.084a3.193,3.193,0,0,0,.776,2.146,2.44,2.44,0,0,0,1.888.818,2.675,2.675,0,0,0,1.378-.332,3.462,3.462,0,0,0,.988-.88l.938.73A3.772,3.772,0,0,1,132.713.166Zm-.191-8.052a2.048,2.048,0,0,0-1.561.677,3.288,3.288,0,0,0-.78,1.9h4.5v-.116a2.925,2.925,0,0,0-.631-1.814A1.928,1.928,0,0,0,132.522-7.886ZM145.928.166a3.924,3.924,0,0,1-2.972-1.2,4.452,4.452,0,0,1-1.146-3.208v-.282a5.39,5.39,0,0,1,.51-2.386,3.982,3.982,0,0,1,1.428-1.644,3.59,3.59,0,0,1,1.988-.594,3.364,3.364,0,0,1,2.723,1.154,5,5,0,0,1,.971,3.3v.639h-6.084a3.193,3.193,0,0,0,.776,2.146,2.44,2.44,0,0,0,1.888.818,2.675,2.675,0,0,0,1.378-.332,3.462,3.462,0,0,0,.988-.88l.938.73A3.772,3.772,0,0,1,145.928.166Zm-.191-8.052a2.048,2.048,0,0,0-1.561.677,3.288,3.288,0,0,0-.78,1.9h4.5v-.116a2.925,2.925,0,0,0-.631-1.814A1.928,1.928,0,0,0,145.737-7.886Zm10.7,5.5a1.13,1.13,0,0,0-.469-.967,4.514,4.514,0,0,0-1.635-.594,7.731,7.731,0,0,1-1.851-.6,2.633,2.633,0,0,1-1.013-.83,1.986,1.986,0,0,1-.328-1.146,2.33,2.33,0,0,1,.934-1.868,3.647,3.647,0,0,1,2.386-.764,3.753,3.753,0,0,1,2.478.789,2.5,2.5,0,0,1,.95,2.017h-1.544a1.386,1.386,0,0,0-.535-1.087,2.006,2.006,0,0,0-1.349-.457,2.1,2.1,0,0,0-1.312.365,1.15,1.15,0,0,0-.473.955.932.932,0,0,0,.44.838,5.413,5.413,0,0,0,1.59.54,8.283,8.283,0,0,1,1.864.614,2.718,2.718,0,0,1,1.058.859,2.112,2.112,0,0,1,.344,1.224,2.3,2.3,0,0,1-.963,1.93,4.039,4.039,0,0,1-2.5.726A4.523,4.523,0,0,1,152.6-.216a3.105,3.105,0,0,1-1.3-1.067,2.571,2.571,0,0,1-.469-1.482h1.536a1.59,1.59,0,0,0,.618,1.224,2.4,2.4,0,0,0,1.523.452,2.476,2.476,0,0,0,1.4-.353A1.084,1.084,0,0,0,156.437-2.382Zm5.62-8.774v2.175h1.677v1.187h-1.677v5.577a1.247,1.247,0,0,0,.224.81.943.943,0,0,0,.764.27,3.718,3.718,0,0,0,.73-.1V0A4.478,4.478,0,0,1,162.6.166a1.912,1.912,0,0,1-1.552-.623,2.675,2.675,0,0,1-.523-1.768v-5.57h-1.635V-8.981h1.635v-2.175ZM171.071,0a3.226,3.226,0,0,1-.216-.946A3.426,3.426,0,0,1,168.3.166a3.17,3.17,0,0,1-2.179-.751,2.43,2.43,0,0,1-.851-1.905,2.539,2.539,0,0,1,1.067-2.179,5.029,5.029,0,0,1,3-.776h1.494v-.706a1.725,1.725,0,0,0-.481-1.282,1.935,1.935,0,0,0-1.419-.477,2.239,2.239,0,0,0-1.378.415,1.223,1.223,0,0,0-.556,1h-1.544a2.119,2.119,0,0,1,.477-1.3,3.258,3.258,0,0,1,1.295-.992,4.356,4.356,0,0,1,1.8-.365,3.551,3.551,0,0,1,2.432.776,2.8,2.8,0,0,1,.913,2.137V-2.1a5.054,5.054,0,0,0,.315,1.967V0Zm-2.548-1.17a2.7,2.7,0,0,0,1.37-.374,2.259,2.259,0,0,0,.938-.971V-4.358h-1.2q-2.822,0-2.822,1.652a1.4,1.4,0,0,0,.481,1.129A1.85,1.85,0,0,0,168.522-1.17Zm7.7-7.811.05,1.129a3.273,3.273,0,0,1,2.689-1.295q2.847,0,2.872,3.212V0H180.3V-5.943a2.068,2.068,0,0,0-.444-1.436,1.78,1.78,0,0,0-1.357-.465,2.216,2.216,0,0,0-1.312.4,2.706,2.706,0,0,0-.88,1.046V0h-1.536V-8.981Zm7.554,4.416a5.272,5.272,0,0,1,.971-3.349,3.147,3.147,0,0,1,2.606-1.233,3.145,3.145,0,0,1,2.515,1.071l.066-.9h1.411V3.453h-1.536V-.83a3.223,3.223,0,0,1-2.474,1A3.1,3.1,0,0,1,184.746-1.1a5.389,5.389,0,0,1-.967-3.358Zm1.536.174a4,4,0,0,0,.652,2.424,2.073,2.073,0,0,0,1.756.88A2.3,2.3,0,0,0,189.814-2.3V-6.7a2.307,2.307,0,0,0-2.075-1.187A2.088,2.088,0,0,0,185.971-7,4.35,4.35,0,0,0,185.315-4.391Zm14.045,3.5A3.262,3.262,0,0,1,196.729.166a2.792,2.792,0,0,1-2.187-.834,3.611,3.611,0,0,1-.76-2.469V-8.981h1.536v5.8q0,2.042,1.66,2.042a2.3,2.3,0,0,0,2.341-1.312V-8.981h1.536V0h-1.461ZM206.914.166a3.924,3.924,0,0,1-2.972-1.2A4.452,4.452,0,0,1,202.8-4.242v-.282a5.39,5.39,0,0,1,.51-2.386,3.982,3.982,0,0,1,1.428-1.644,3.59,3.59,0,0,1,1.988-.594,3.364,3.364,0,0,1,2.723,1.154,5,5,0,0,1,.971,3.3v.639h-6.084a3.193,3.193,0,0,0,.776,2.146A2.44,2.44,0,0,0,207-1.087a2.675,2.675,0,0,0,1.378-.332,3.462,3.462,0,0,0,.988-.88l.938.73A3.772,3.772,0,0,1,206.914.166Zm-.191-8.052a2.048,2.048,0,0,0-1.561.677,3.288,3.288,0,0,0-.78,1.9h4.5v-.116a2.925,2.925,0,0,0-.631-1.814A1.928,1.928,0,0,0,206.723-7.886Zm10.7,5.5a1.13,1.13,0,0,0-.469-.967,4.514,4.514,0,0,0-1.635-.594,7.731,7.731,0,0,1-1.851-.6,2.633,2.633,0,0,1-1.013-.83,1.986,1.986,0,0,1-.328-1.146,2.33,2.33,0,0,1,.934-1.868,3.647,3.647,0,0,1,2.386-.764,3.753,3.753,0,0,1,2.478.789,2.5,2.5,0,0,1,.95,2.017h-1.544a1.386,1.386,0,0,0-.535-1.087,2.006,2.006,0,0,0-1.349-.457,2.1,2.1,0,0,0-1.312.365,1.15,1.15,0,0,0-.473.955.932.932,0,0,0,.44.838,5.413,5.413,0,0,0,1.59.54,8.283,8.283,0,0,1,1.864.614,2.718,2.718,0,0,1,1.058.859,2.112,2.112,0,0,1,.344,1.224A2.3,2.3,0,0,1,218-.56a4.039,4.039,0,0,1-2.5.726,4.523,4.523,0,0,1-1.909-.382,3.105,3.105,0,0,1-1.3-1.067,2.571,2.571,0,0,1-.469-1.482h1.536a1.59,1.59,0,0,0,.618,1.224,2.4,2.4,0,0,0,1.523.452,2.476,2.476,0,0,0,1.4-.353A1.084,1.084,0,0,0,217.422-2.382Z" transform="translate(6525 -1320.82)" fill="#12263f"/>
    <path id="Path_190240" data-name="Path 190240" d="M8.068-5.337H3V0H1.4V-12.086H8.89v1.3H3v4.142H8.068ZM12.227,0H10.691V-8.981h1.536Zm-1.66-11.364a.917.917,0,0,1,.228-.631.857.857,0,0,1,.677-.257.87.87,0,0,1,.681.257.907.907,0,0,1,.232.631.877.877,0,0,1-.232.623.886.886,0,0,1-.681.249.872.872,0,0,1-.677-.249A.886.886,0,0,1,10.567-11.364ZM18.411.166a3.924,3.924,0,0,1-2.972-1.2,4.452,4.452,0,0,1-1.146-3.208v-.282A5.39,5.39,0,0,1,14.8-6.91a3.982,3.982,0,0,1,1.428-1.644,3.59,3.59,0,0,1,1.988-.594,3.364,3.364,0,0,1,2.723,1.154,5,5,0,0,1,.971,3.3v.639H15.83a3.193,3.193,0,0,0,.776,2.146,2.44,2.44,0,0,0,1.888.818,2.675,2.675,0,0,0,1.378-.332,3.462,3.462,0,0,0,.988-.88l.938.73A3.772,3.772,0,0,1,18.411.166ZM18.22-7.886a2.048,2.048,0,0,0-1.561.677,3.288,3.288,0,0,0-.78,1.9h4.5v-.116a2.925,2.925,0,0,0-.631-1.814A1.928,1.928,0,0,0,18.22-7.886Zm10.7,5.5a1.131,1.131,0,0,0-.469-.967,4.514,4.514,0,0,0-1.635-.594,7.731,7.731,0,0,1-1.851-.6,2.633,2.633,0,0,1-1.013-.83,1.986,1.986,0,0,1-.328-1.146,2.33,2.33,0,0,1,.934-1.868,3.647,3.647,0,0,1,2.386-.764,3.753,3.753,0,0,1,2.478.789,2.5,2.5,0,0,1,.95,2.017H28.829a1.386,1.386,0,0,0-.535-1.087,2.006,2.006,0,0,0-1.349-.457,2.1,2.1,0,0,0-1.312.365,1.15,1.15,0,0,0-.473.955.932.932,0,0,0,.44.838,5.413,5.413,0,0,0,1.59.54,8.283,8.283,0,0,1,1.864.614,2.718,2.718,0,0,1,1.058.859,2.112,2.112,0,0,1,.344,1.224,2.3,2.3,0,0,1-.963,1.93,4.039,4.039,0,0,1-2.5.726,4.523,4.523,0,0,1-1.909-.382,3.105,3.105,0,0,1-1.3-1.067,2.571,2.571,0,0,1-.469-1.482h1.536a1.59,1.59,0,0,0,.618,1.224,2.4,2.4,0,0,0,1.523.452,2.476,2.476,0,0,0,1.4-.353A1.084,1.084,0,0,0,28.92-2.382Zm5.62-8.774v2.175h1.677v1.187H34.54v5.577a1.247,1.247,0,0,0,.224.81.943.943,0,0,0,.764.27,3.718,3.718,0,0,0,.73-.1V0a4.478,4.478,0,0,1-1.179.165,1.912,1.912,0,0,1-1.552-.623A2.675,2.675,0,0,1,33-2.225v-5.57H31.369V-8.981H33v-2.175ZM43.554,0a3.226,3.226,0,0,1-.216-.946A3.426,3.426,0,0,1,40.782.166,3.17,3.17,0,0,1,38.6-.585a2.43,2.43,0,0,1-.851-1.905,2.539,2.539,0,0,1,1.067-2.179,5.029,5.029,0,0,1,3-.776h1.494v-.706a1.725,1.725,0,0,0-.481-1.282,1.935,1.935,0,0,0-1.419-.477,2.239,2.239,0,0,0-1.378.415,1.223,1.223,0,0,0-.556,1H37.935a2.119,2.119,0,0,1,.477-1.3,3.258,3.258,0,0,1,1.295-.992,4.356,4.356,0,0,1,1.8-.365,3.551,3.551,0,0,1,2.432.776,2.8,2.8,0,0,1,.913,2.137V-2.1a5.054,5.054,0,0,0,.315,1.967V0ZM41.006-1.17a2.7,2.7,0,0,0,1.37-.374,2.259,2.259,0,0,0,.938-.971V-4.358h-1.2q-2.822,0-2.822,1.652a1.4,1.4,0,0,0,.481,1.129A1.85,1.85,0,0,0,41.006-1.17Zm11.48-1.212a1.13,1.13,0,0,0-.469-.967,4.514,4.514,0,0,0-1.635-.594,7.731,7.731,0,0,1-1.851-.6,2.633,2.633,0,0,1-1.013-.83,1.986,1.986,0,0,1-.328-1.146,2.33,2.33,0,0,1,.934-1.868,3.647,3.647,0,0,1,2.386-.764,3.753,3.753,0,0,1,2.478.789,2.5,2.5,0,0,1,.95,2.017H52.395a1.386,1.386,0,0,0-.535-1.087,2.006,2.006,0,0,0-1.349-.457,2.1,2.1,0,0,0-1.312.365,1.15,1.15,0,0,0-.473.955.932.932,0,0,0,.44.838,5.413,5.413,0,0,0,1.59.54,8.283,8.283,0,0,1,1.864.614,2.718,2.718,0,0,1,1.058.859,2.112,2.112,0,0,1,.344,1.224,2.3,2.3,0,0,1-.963,1.93,4.039,4.039,0,0,1-2.5.726,4.523,4.523,0,0,1-1.909-.382,3.105,3.105,0,0,1-1.3-1.067,2.571,2.571,0,0,1-.469-1.482h1.536a1.59,1.59,0,0,0,.618,1.224,2.4,2.4,0,0,0,1.523.452,2.476,2.476,0,0,0,1.4-.353A1.084,1.084,0,0,0,52.486-2.382ZM67.817-4.391a5.378,5.378,0,0,1-.938,3.3A3.006,3.006,0,0,1,64.339.166,3.294,3.294,0,0,1,61.766-.872V3.453H60.23V-8.981h1.4l.075,1a3.163,3.163,0,0,1,2.606-1.162,3.063,3.063,0,0,1,2.561,1.22,5.437,5.437,0,0,1,.942,3.4Zm-1.536-.174a3.968,3.968,0,0,0-.647-2.4,2.086,2.086,0,0,0-1.776-.88,2.257,2.257,0,0,0-2.092,1.237v4.292a2.262,2.262,0,0,0,2.108,1.229,2.076,2.076,0,0,0,1.756-.876A4.332,4.332,0,0,0,66.282-4.565ZM75.313,0A3.226,3.226,0,0,1,75.1-.946,3.426,3.426,0,0,1,72.541.166a3.17,3.17,0,0,1-2.179-.751,2.43,2.43,0,0,1-.851-1.905,2.539,2.539,0,0,1,1.067-2.179,5.029,5.029,0,0,1,3-.776h1.494v-.706a1.725,1.725,0,0,0-.481-1.282,1.935,1.935,0,0,0-1.419-.477,2.239,2.239,0,0,0-1.378.415,1.223,1.223,0,0,0-.556,1H69.693a2.119,2.119,0,0,1,.477-1.3,3.258,3.258,0,0,1,1.295-.992,4.356,4.356,0,0,1,1.8-.365,3.551,3.551,0,0,1,2.432.776,2.8,2.8,0,0,1,.913,2.137V-2.1a5.054,5.054,0,0,0,.315,1.967V0ZM72.765-1.17a2.7,2.7,0,0,0,1.37-.374,2.259,2.259,0,0,0,.938-.971V-4.358h-1.2q-2.822,0-2.822,1.652a1.4,1.4,0,0,0,.481,1.129A1.85,1.85,0,0,0,72.765-1.17ZM81.1-11.156v2.175h1.677v1.187H81.1v5.577a1.247,1.247,0,0,0,.224.81.943.943,0,0,0,.764.27,3.718,3.718,0,0,0,.73-.1V0a4.478,4.478,0,0,1-1.179.165,1.912,1.912,0,0,1-1.552-.623,2.675,2.675,0,0,1-.523-1.768v-5.57H77.928V-8.981h1.635v-2.175ZM88.91-7.6a4.6,4.6,0,0,0-.755-.058A2.024,2.024,0,0,0,86.1-6.375V0H84.568V-8.981h1.494l.025,1.038a2.391,2.391,0,0,1,2.142-1.2,1.569,1.569,0,0,1,.681.116Zm.838,3.03a5.3,5.3,0,0,1,.519-2.374,3.87,3.87,0,0,1,1.444-1.627,3.932,3.932,0,0,1,2.113-.573,3.788,3.788,0,0,1,2.968,1.27A4.886,4.886,0,0,1,97.924-4.5v.108a5.351,5.351,0,0,1-.5,2.353A3.813,3.813,0,0,1,95.986-.415,3.977,3.977,0,0,1,93.84.166,3.778,3.778,0,0,1,90.881-1.1a4.861,4.861,0,0,1-1.133-3.362Zm1.544.183a3.842,3.842,0,0,0,.693,2.4,2.218,2.218,0,0,0,1.855.9A2.2,2.2,0,0,0,95.7-2a4.2,4.2,0,0,0,.689-2.569,3.836,3.836,0,0,0-.7-2.395,2.23,2.23,0,0,0-1.864-.917,2.205,2.205,0,0,0-1.834.9A4.17,4.17,0,0,0,91.292-4.391ZM101.3-8.981l.05,1.129a3.273,3.273,0,0,1,2.689-1.295q2.847,0,2.872,3.212V0h-1.536V-5.943a2.068,2.068,0,0,0-.444-1.436,1.78,1.78,0,0,0-1.357-.465,2.216,2.216,0,0,0-1.312.4,2.706,2.706,0,0,0-.88,1.046V0H99.85V-8.981ZM114.775,0a3.226,3.226,0,0,1-.216-.946A3.426,3.426,0,0,1,112,.166a3.17,3.17,0,0,1-2.179-.751,2.43,2.43,0,0,1-.851-1.905,2.539,2.539,0,0,1,1.067-2.179,5.029,5.029,0,0,1,3-.776h1.494v-.706a1.725,1.725,0,0,0-.481-1.282,1.935,1.935,0,0,0-1.419-.477,2.239,2.239,0,0,0-1.378.415,1.223,1.223,0,0,0-.556,1h-1.544a2.119,2.119,0,0,1,.477-1.3,3.258,3.258,0,0,1,1.295-.992,4.356,4.356,0,0,1,1.8-.365,3.551,3.551,0,0,1,2.432.776,2.8,2.8,0,0,1,.913,2.137V-2.1a5.054,5.054,0,0,0,.315,1.967V0Zm-2.548-1.17a2.7,2.7,0,0,0,1.37-.374,2.259,2.259,0,0,0,.938-.971V-4.358h-1.2q-2.822,0-2.822,1.652a1.4,1.4,0,0,0,.481,1.129A1.85,1.85,0,0,0,112.227-1.17ZM120.146,0H118.61V-12.75h1.536Zm6.184.166a3.924,3.924,0,0,1-2.972-1.2,4.452,4.452,0,0,1-1.146-3.208v-.282a5.39,5.39,0,0,1,.51-2.386,3.982,3.982,0,0,1,1.428-1.644,3.59,3.59,0,0,1,1.988-.594,3.364,3.364,0,0,1,2.723,1.154,5,5,0,0,1,.971,3.3v.639h-6.084a3.193,3.193,0,0,0,.776,2.146,2.44,2.44,0,0,0,1.888.818,2.675,2.675,0,0,0,1.378-.332,3.462,3.462,0,0,0,.988-.88l.938.73A3.772,3.772,0,0,1,126.33.166Zm-.191-8.052a2.048,2.048,0,0,0-1.561.677,3.288,3.288,0,0,0-.78,1.9h4.5v-.116a2.925,2.925,0,0,0-.631-1.814A1.928,1.928,0,0,0,126.139-7.886Zm10.7,5.5a1.13,1.13,0,0,0-.469-.967,4.514,4.514,0,0,0-1.635-.594,7.731,7.731,0,0,1-1.851-.6,2.633,2.633,0,0,1-1.013-.83,1.986,1.986,0,0,1-.328-1.146,2.33,2.33,0,0,1,.934-1.868,3.647,3.647,0,0,1,2.386-.764,3.753,3.753,0,0,1,2.478.789,2.5,2.5,0,0,1,.95,2.017h-1.544a1.386,1.386,0,0,0-.535-1.087,2.006,2.006,0,0,0-1.349-.457,2.1,2.1,0,0,0-1.312.365,1.15,1.15,0,0,0-.473.955.932.932,0,0,0,.44.838,5.413,5.413,0,0,0,1.59.54,8.283,8.283,0,0,1,1.864.614,2.718,2.718,0,0,1,1.058.859,2.112,2.112,0,0,1,.344,1.224,2.3,2.3,0,0,1-.963,1.93,4.039,4.039,0,0,1-2.5.726A4.523,4.523,0,0,1,133-.216a3.105,3.105,0,0,1-1.3-1.067,2.571,2.571,0,0,1-.469-1.482h1.536a1.59,1.59,0,0,0,.618,1.224,2.4,2.4,0,0,0,1.523.452,2.476,2.476,0,0,0,1.4-.353A1.084,1.084,0,0,0,136.838-2.382Z" transform="translate(6525 -1278.82)" fill="#12263f"/>
    <path id="Path_190241" data-name="Path 190241" d="M3.113,0H1.519V-12.086H3.113ZM7.238-8.981l.05,1.129A3.273,3.273,0,0,1,9.978-9.147q2.847,0,2.872,3.212V0H11.314V-5.943a2.068,2.068,0,0,0-.444-1.436,1.78,1.78,0,0,0-1.357-.465,2.216,2.216,0,0,0-1.312.4A2.706,2.706,0,0,0,7.321-6.4V0H5.786V-8.981ZM16.834,0H15.3V-8.981h1.536Zm-1.66-11.364a.917.917,0,0,1,.228-.631.857.857,0,0,1,.677-.257.87.87,0,0,1,.681.257.907.907,0,0,1,.232.631.877.877,0,0,1-.232.623.886.886,0,0,1-.681.249.872.872,0,0,1-.677-.249A.886.886,0,0,1,15.174-11.364Zm7.72,10.276a2.212,2.212,0,0,0,1.436-.5,1.752,1.752,0,0,0,.681-1.245h1.453a2.785,2.785,0,0,1-.531,1.469A3.5,3.5,0,0,1,24.624-.249a3.772,3.772,0,0,1-1.731.415,3.7,3.7,0,0,1-2.918-1.224,4.877,4.877,0,0,1-1.083-3.349v-.257A5.407,5.407,0,0,1,19.374-7a3.667,3.667,0,0,1,1.382-1.585,3.926,3.926,0,0,1,2.129-.564,3.6,3.6,0,0,1,2.511.9,3.234,3.234,0,0,1,1.067,2.349H25.01a2.116,2.116,0,0,0-.66-1.432,2.053,2.053,0,0,0-1.465-.56,2.149,2.149,0,0,0-1.814.843,3.957,3.957,0,0,0-.643,2.436v.291a3.878,3.878,0,0,0,.639,2.391A2.16,2.16,0,0,0,22.894-1.087ZM29.858,0H28.322V-8.981h1.536ZM28.2-11.364a.917.917,0,0,1,.228-.631.857.857,0,0,1,.677-.257.87.87,0,0,1,.681.257.907.907,0,0,1,.232.631.877.877,0,0,1-.232.623.886.886,0,0,1-.681.249.872.872,0,0,1-.677-.249A.886.886,0,0,1,28.2-11.364Zm3.71,6.79a5.3,5.3,0,0,1,.519-2.374,3.87,3.87,0,0,1,1.444-1.627,3.932,3.932,0,0,1,2.113-.573,3.788,3.788,0,0,1,2.968,1.27A4.886,4.886,0,0,1,40.084-4.5v.108a5.351,5.351,0,0,1-.5,2.353A3.813,3.813,0,0,1,38.146-.415,3.977,3.977,0,0,1,36,.166,3.778,3.778,0,0,1,33.041-1.1a4.861,4.861,0,0,1-1.133-3.362Zm1.544.183a3.842,3.842,0,0,0,.693,2.4,2.218,2.218,0,0,0,1.855.9A2.2,2.2,0,0,0,37.86-2a4.2,4.2,0,0,0,.689-2.569,3.836,3.836,0,0,0-.7-2.395,2.23,2.23,0,0,0-1.864-.917,2.205,2.205,0,0,0-1.834.9A4.17,4.17,0,0,0,33.452-4.391Zm12.393-.174a5.261,5.261,0,0,1,.979-3.324A3.1,3.1,0,0,1,49.39-9.147a3.115,3.115,0,0,1,2.5,1.079V-12.75h1.536V0H52.013l-.075-.963A3.127,3.127,0,0,1,49.373.166a3.068,3.068,0,0,1-2.544-1.278,5.321,5.321,0,0,1-.984-3.337Zm1.536.174A3.984,3.984,0,0,0,48.012-2a2.039,2.039,0,0,0,1.743.863,2.24,2.24,0,0,0,2.133-1.312V-6.574a2.257,2.257,0,0,0-2.117-1.27,2.049,2.049,0,0,0-1.76.872A4.386,4.386,0,0,0,47.381-4.391ZM59.533.166a3.924,3.924,0,0,1-2.972-1.2,4.452,4.452,0,0,1-1.146-3.208v-.282a5.39,5.39,0,0,1,.51-2.386,3.982,3.982,0,0,1,1.428-1.644,3.59,3.59,0,0,1,1.988-.594,3.364,3.364,0,0,1,2.723,1.154,5,5,0,0,1,.971,3.3v.639H56.952a3.193,3.193,0,0,0,.776,2.146,2.44,2.44,0,0,0,1.888.818,2.675,2.675,0,0,0,1.378-.332,3.462,3.462,0,0,0,.988-.88l.938.73A3.772,3.772,0,0,1,59.533.166Zm-.191-8.052a2.048,2.048,0,0,0-1.561.677,3.288,3.288,0,0,0-.78,1.9h4.5v-.116a2.925,2.925,0,0,0-.631-1.814A1.928,1.928,0,0,0,59.342-7.886ZM71.1-11.156v2.175h1.677v1.187H71.1v5.577a1.247,1.247,0,0,0,.224.81.943.943,0,0,0,.764.27,3.718,3.718,0,0,0,.73-.1V0a4.478,4.478,0,0,1-1.179.165,1.912,1.912,0,0,1-1.552-.623,2.675,2.675,0,0,1-.523-1.768v-5.57H67.934V-8.981h1.635v-2.175ZM78.3.166a3.924,3.924,0,0,1-2.972-1.2,4.452,4.452,0,0,1-1.146-3.208v-.282a5.39,5.39,0,0,1,.51-2.386,3.982,3.982,0,0,1,1.428-1.644,3.59,3.59,0,0,1,1.988-.594,3.364,3.364,0,0,1,2.723,1.154,5,5,0,0,1,.971,3.3v.639H75.72A3.193,3.193,0,0,0,76.5-1.905a2.44,2.44,0,0,0,1.888.818,2.675,2.675,0,0,0,1.378-.332,3.462,3.462,0,0,0,.988-.88l.938.73A3.772,3.772,0,0,1,78.3.166ZM78.11-7.886a2.048,2.048,0,0,0-1.561.677,3.288,3.288,0,0,0-.78,1.9h4.5v-.116a2.925,2.925,0,0,0-.631-1.814A1.928,1.928,0,0,0,78.11-7.886Zm6.915-1.1.042,1a3.317,3.317,0,0,1,2.665-1.162A2.568,2.568,0,0,1,90.3-7.7a3.4,3.4,0,0,1,1.166-1.046,3.445,3.445,0,0,1,1.7-.4q2.955,0,3,3.129V0H94.629V-5.927a2.062,2.062,0,0,0-.44-1.44,1.937,1.937,0,0,0-1.478-.477,2.036,2.036,0,0,0-1.419.51,2.071,2.071,0,0,0-.656,1.374V0H89.092V-5.885a1.713,1.713,0,0,0-1.917-1.959,2.055,2.055,0,0,0-2.067,1.287V0H83.572V-8.981Zm21.042,4.59a5.378,5.378,0,0,1-.938,3.3,3.006,3.006,0,0,1-2.54,1.253,3.294,3.294,0,0,1-2.573-1.038V3.453H98.48V-8.981h1.4l.075,1a3.163,3.163,0,0,1,2.606-1.162,3.063,3.063,0,0,1,2.561,1.22,5.437,5.437,0,0,1,.942,3.4Zm-1.536-.174a3.968,3.968,0,0,0-.647-2.4,2.086,2.086,0,0,0-1.776-.88,2.257,2.257,0,0,0-2.092,1.237v4.292a2.262,2.262,0,0,0,2.108,1.229,2.076,2.076,0,0,0,1.756-.876A4.332,4.332,0,0,0,104.532-4.565Zm3.08-.008a5.3,5.3,0,0,1,.519-2.374,3.87,3.87,0,0,1,1.444-1.627,3.932,3.932,0,0,1,2.113-.573,3.788,3.788,0,0,1,2.968,1.27A4.886,4.886,0,0,1,115.788-4.5v.108a5.351,5.351,0,0,1-.5,2.353,3.813,3.813,0,0,1-1.436,1.623A3.977,3.977,0,0,1,111.7.166a3.778,3.778,0,0,1-2.959-1.27,4.861,4.861,0,0,1-1.133-3.362Zm1.544.183a3.842,3.842,0,0,0,.693,2.4,2.218,2.218,0,0,0,1.855.9A2.2,2.2,0,0,0,113.563-2a4.2,4.2,0,0,0,.689-2.569,3.836,3.836,0,0,0-.7-2.395,2.23,2.23,0,0,0-1.864-.917,2.205,2.205,0,0,0-1.834.9A4.17,4.17,0,0,0,109.155-4.391Zm12.9-3.212a4.6,4.6,0,0,0-.755-.058,2.024,2.024,0,0,0-2.05,1.287V0h-1.536V-8.981h1.494l.025,1.038a2.391,2.391,0,0,1,2.142-1.2,1.569,1.569,0,0,1,.681.116ZM128.679,0a3.226,3.226,0,0,1-.216-.946A3.426,3.426,0,0,1,125.906.166a3.17,3.17,0,0,1-2.179-.751,2.43,2.43,0,0,1-.851-1.905,2.539,2.539,0,0,1,1.067-2.179,5.029,5.029,0,0,1,3-.776h1.494v-.706a1.725,1.725,0,0,0-.481-1.282,1.935,1.935,0,0,0-1.419-.477,2.239,2.239,0,0,0-1.378.415,1.223,1.223,0,0,0-.556,1h-1.544a2.119,2.119,0,0,1,.477-1.3,3.258,3.258,0,0,1,1.295-.992,4.356,4.356,0,0,1,1.8-.365,3.551,3.551,0,0,1,2.432.776,2.8,2.8,0,0,1,.913,2.137V-2.1a5.054,5.054,0,0,0,.315,1.967V0ZM126.13-1.17a2.7,2.7,0,0,0,1.37-.374,2.259,2.259,0,0,0,.938-.971V-4.358h-1.2q-2.822,0-2.822,1.652a1.4,1.4,0,0,0,.481,1.129A1.85,1.85,0,0,0,126.13-1.17Zm5.877-3.4a5.261,5.261,0,0,1,.979-3.324,3.1,3.1,0,0,1,2.565-1.258,3.115,3.115,0,0,1,2.5,1.079V-12.75h1.536V0h-1.411L138.1-.963A3.127,3.127,0,0,1,135.535.166a3.068,3.068,0,0,1-2.544-1.278,5.321,5.321,0,0,1-.984-3.337Zm1.536.174A3.984,3.984,0,0,0,134.174-2a2.039,2.039,0,0,0,1.743.863,2.24,2.24,0,0,0,2.133-1.312V-6.574a2.257,2.257,0,0,0-2.117-1.27,2.049,2.049,0,0,0-1.76.872A4.386,4.386,0,0,0,133.543-4.391ZM147.513,0a3.226,3.226,0,0,1-.216-.946A3.426,3.426,0,0,1,144.741.166a3.17,3.17,0,0,1-2.179-.751,2.43,2.43,0,0,1-.851-1.905,2.539,2.539,0,0,1,1.067-2.179,5.029,5.029,0,0,1,3-.776h1.494v-.706a1.725,1.725,0,0,0-.481-1.282,1.935,1.935,0,0,0-1.419-.477,2.239,2.239,0,0,0-1.378.415,1.223,1.223,0,0,0-.556,1h-1.544a2.119,2.119,0,0,1,.477-1.3,3.258,3.258,0,0,1,1.295-.992,4.356,4.356,0,0,1,1.8-.365,3.551,3.551,0,0,1,2.432.776,2.8,2.8,0,0,1,.913,2.137V-2.1a5.054,5.054,0,0,0,.315,1.967V0Zm-2.548-1.17a2.7,2.7,0,0,0,1.37-.374,2.259,2.259,0,0,0,.938-.971V-4.358h-1.2q-2.822,0-2.822,1.652a1.4,1.4,0,0,0,.481,1.129A1.85,1.85,0,0,0,144.965-1.17Zm15.688-1.212a1.13,1.13,0,0,0-.469-.967,4.514,4.514,0,0,0-1.635-.594,7.731,7.731,0,0,1-1.851-.6,2.633,2.633,0,0,1-1.013-.83,1.986,1.986,0,0,1-.328-1.146,2.33,2.33,0,0,1,.934-1.868,3.647,3.647,0,0,1,2.386-.764,3.753,3.753,0,0,1,2.478.789,2.5,2.5,0,0,1,.95,2.017h-1.544a1.386,1.386,0,0,0-.535-1.087,2.006,2.006,0,0,0-1.349-.457,2.1,2.1,0,0,0-1.312.365,1.15,1.15,0,0,0-.473.955.932.932,0,0,0,.44.838,5.413,5.413,0,0,0,1.59.54,8.283,8.283,0,0,1,1.864.614,2.718,2.718,0,0,1,1.058.859,2.112,2.112,0,0,1,.344,1.224,2.3,2.3,0,0,1-.963,1.93,4.039,4.039,0,0,1-2.5.726,4.523,4.523,0,0,1-1.909-.382,3.105,3.105,0,0,1-1.3-1.067,2.571,2.571,0,0,1-.469-1.482h1.536A1.59,1.59,0,0,0,157.2-1.54a2.4,2.4,0,0,0,1.523.452,2.476,2.476,0,0,0,1.4-.353A1.084,1.084,0,0,0,160.653-2.382ZM167.917.166a3.924,3.924,0,0,1-2.972-1.2A4.452,4.452,0,0,1,163.8-4.242v-.282a5.39,5.39,0,0,1,.51-2.386,3.982,3.982,0,0,1,1.428-1.644,3.59,3.59,0,0,1,1.988-.594,3.364,3.364,0,0,1,2.723,1.154,5,5,0,0,1,.971,3.3v.639h-6.084a3.193,3.193,0,0,0,.776,2.146A2.44,2.44,0,0,0,168-1.087a2.675,2.675,0,0,0,1.378-.332,3.462,3.462,0,0,0,.988-.88l.938.73A3.772,3.772,0,0,1,167.917.166Zm-.191-8.052a2.048,2.048,0,0,0-1.561.677,3.288,3.288,0,0,0-.78,1.9h4.5v-.116a2.925,2.925,0,0,0-.631-1.814A1.928,1.928,0,0,0,167.726-7.886Zm9.073,6.8a2.212,2.212,0,0,0,1.436-.5,1.752,1.752,0,0,0,.681-1.245h1.453a2.785,2.785,0,0,1-.531,1.469,3.5,3.5,0,0,1-1.307,1.112A3.772,3.772,0,0,1,176.8.166a3.7,3.7,0,0,1-2.918-1.224A4.877,4.877,0,0,1,172.8-4.408v-.257A5.407,5.407,0,0,1,173.279-7a3.667,3.667,0,0,1,1.382-1.585,3.926,3.926,0,0,1,2.129-.564,3.6,3.6,0,0,1,2.511.9,3.234,3.234,0,0,1,1.067,2.349h-1.453a2.116,2.116,0,0,0-.66-1.432,2.053,2.053,0,0,0-1.465-.56,2.149,2.149,0,0,0-1.814.843,3.957,3.957,0,0,0-.643,2.436v.291a3.878,3.878,0,0,0,.639,2.391A2.16,2.16,0,0,0,176.8-1.087ZM187.639,0a3.226,3.226,0,0,1-.216-.946A3.426,3.426,0,0,1,184.867.166a3.17,3.17,0,0,1-2.179-.751,2.43,2.43,0,0,1-.851-1.905A2.539,2.539,0,0,1,182.9-4.669a5.029,5.029,0,0,1,3-.776H187.4v-.706a1.725,1.725,0,0,0-.481-1.282,1.935,1.935,0,0,0-1.419-.477,2.239,2.239,0,0,0-1.378.415,1.223,1.223,0,0,0-.556,1H182.02a2.119,2.119,0,0,1,.477-1.3,3.258,3.258,0,0,1,1.295-.992,4.356,4.356,0,0,1,1.8-.365,3.551,3.551,0,0,1,2.432.776,2.8,2.8,0,0,1,.913,2.137V-2.1a5.054,5.054,0,0,0,.315,1.967V0Zm-2.548-1.17a2.7,2.7,0,0,0,1.37-.374,2.259,2.259,0,0,0,.938-.971V-4.358h-1.2q-2.822,0-2.822,1.652a1.4,1.4,0,0,0,.481,1.129A1.85,1.85,0,0,0,185.091-1.17Z" transform="translate(6525 -1236.82)" fill="#12263f"/>
    <rect id="Rectangle_39420" data-name="Rectangle 39420" width="1030" height="5" transform="translate(6495 -1575.82)" fill="#78b62e"/>
    <rect id="Rectangle_39421" data-name="Rectangle 39421" width="1030" height="55" transform="translate(6495 -1570.82)" fill="#e8e8e8"/>
    <path id="Path_190234" data-name="Path 190234" d="M11.615-13.508v8.841a5.081,5.081,0,0,1-.64,2.6A4.147,4.147,0,0,1,9.138-.39a6.471,6.471,0,0,1-2.83.575,5.59,5.59,0,0,1-3.887-1.28A4.566,4.566,0,0,1,.974-4.6v-8.906H4.249v8.971Q4.3-2.319,6.309-2.319a1.993,1.993,0,0,0,1.531-.557,2.6,2.6,0,0,0,.52-1.809v-8.823Zm4.759,3.47.1,1.178a3.4,3.4,0,0,1,2.867-1.364,2.864,2.864,0,0,1,2.343.937,4.461,4.461,0,0,1,.8,2.82V0H19.353V-6.336a1.694,1.694,0,0,0-.306-1.118,1.416,1.416,0,0,0-1.113-.357,1.491,1.491,0,0,0-1.364.724V0H13.443V-10.038ZM27.517,0H24.381V-10.038h3.136ZM24.2-12.636a1.408,1.408,0,0,1,.482-1.1,1.813,1.813,0,0,1,1.252-.429,1.813,1.813,0,0,1,1.252.429,1.408,1.408,0,0,1,.482,1.1,1.408,1.408,0,0,1-.482,1.1,1.813,1.813,0,0,1-1.252.429,1.813,1.813,0,0,1-1.252-.429A1.408,1.408,0,0,1,24.2-12.636Zm4.852,7.542a6.132,6.132,0,0,1,1.03-3.757,3.39,3.39,0,0,1,2.876-1.373,2.883,2.883,0,0,1,2.264,1.058V-14.25h3.136V0H35.542l-.158-1.076A2.96,2.96,0,0,1,32.935.186,3.383,3.383,0,0,1,30.1-1.187,6.326,6.326,0,0,1,29.047-5.093Zm3.126.195q0,2.672,1.559,2.672A1.539,1.539,0,0,0,35.217-3.1V-6.921a1.5,1.5,0,0,0-1.466-.891q-1.447,0-1.568,2.338ZM45.784,0a3.53,3.53,0,0,1-.3-.9A2.907,2.907,0,0,1,43.075.186a3.562,3.562,0,0,1-2.412-.858A2.731,2.731,0,0,1,39.67-2.83,2.807,2.807,0,0,1,40.876-5.3a6.144,6.144,0,0,1,3.507-.835h.965v-.531q0-1.389-1.2-1.389a.978.978,0,0,0-1.113,1.1H39.911A2.8,2.8,0,0,1,41.15-9.316a5.2,5.2,0,0,1,3.159-.908,4.563,4.563,0,0,1,3.034.937,3.258,3.258,0,0,1,1.141,2.57v4.444A4.551,4.551,0,0,0,48.91-.158V0ZM43.826-2.041a1.744,1.744,0,0,0,.969-.25,1.57,1.57,0,0,0,.552-.566v-1.6h-.909q-1.633,0-1.633,1.466a.9.9,0,0,0,.288.691A1.041,1.041,0,0,0,43.826-2.041Zm5.993-3.052a6.132,6.132,0,0,1,1.03-3.757,3.39,3.39,0,0,1,2.876-1.373,2.883,2.883,0,0,1,2.264,1.058V-14.25h3.136V0H56.313l-.158-1.076A2.96,2.96,0,0,1,53.707.186a3.383,3.383,0,0,1-2.839-1.373A6.326,6.326,0,0,1,49.819-5.093Zm3.126.195q0,2.672,1.559,2.672A1.539,1.539,0,0,0,55.989-3.1V-6.921a1.5,1.5,0,0,0-1.466-.891q-1.447,0-1.568,2.338Z" transform="translate(6525 -1536.82)" fill="#12263f"/>
    <path id="Path_190242" data-name="Path 190242" d="M-20.934-13.508l3.015,9.4,3.006-9.4h4.286V0h-3.266V-3.154l.315-6.457L-16.843,0H-19L-22.27-9.621l.315,6.466V0h-3.256V-13.508ZM-3.845.186A5.16,5.16,0,0,1-7.584-1.192,4.757,4.757,0,0,1-9.013-4.778v-.26a6.165,6.165,0,0,1,.571-2.718A4.175,4.175,0,0,1-6.777-9.579a5.027,5.027,0,0,1,2.6-.645A4.345,4.345,0,0,1-.84-8.911,5.159,5.159,0,0,1,.385-5.251v1.215H-5.831A2.253,2.253,0,0,0-5.1-2.709a2.181,2.181,0,0,0,1.466.482A2.81,2.81,0,0,0-1.313-3.266L.116-1.577A3.994,3.994,0,0,1-1.54-.292,5.6,5.6,0,0,1-3.845.186Zm-.353-8q-1.373,0-1.633,1.818h3.154v-.241A1.549,1.549,0,0,0-3.057-7.4,1.514,1.514,0,0,0-4.2-7.812ZM6.9-2.82a.722.722,0,0,0-.417-.64,6.35,6.35,0,0,0-1.586-.5,7.234,7.234,0,0,1-1.93-.682A3.232,3.232,0,0,1,1.8-5.668a2.448,2.448,0,0,1-.4-1.382A2.774,2.774,0,0,1,2.547-9.328a4.7,4.7,0,0,1,2.987-.9,5.208,5.208,0,0,1,3.191.9A2.814,2.814,0,0,1,9.931-6.958H6.8q0-1.206-1.271-1.206A1.26,1.26,0,0,0,4.7-7.89a.847.847,0,0,0-.334.682.778.778,0,0,0,.408.677,3.857,3.857,0,0,0,1.3.427,11.264,11.264,0,0,1,1.573.4A2.857,2.857,0,0,1,9.913-2.913,2.629,2.629,0,0,1,8.693-.677,5.35,5.35,0,0,1,5.534.186a5.46,5.46,0,0,1-2.3-.464A3.847,3.847,0,0,1,1.656-1.54,2.857,2.857,0,0,1,1.09-3.219H4.012A1.208,1.208,0,0,0,4.476-2.2a1.908,1.908,0,0,0,1.141.32,1.5,1.5,0,0,0,.96-.26A.831.831,0,0,0,6.9-2.82ZM22.985,0H19.849V-9.982l-3.08.9v-2.375l5.928-2.05h.288Z" transform="translate(6942 -1536.82)" fill="#12263f"/>
    <path id="Path_190243" data-name="Path 190243" d="M-20.934-13.508l3.015,9.4,3.006-9.4h4.286V0h-3.266V-3.154l.315-6.457L-16.843,0H-19L-22.27-9.621l.315,6.466V0h-3.256V-13.508ZM-3.845.186A5.16,5.16,0,0,1-7.584-1.192,4.757,4.757,0,0,1-9.013-4.778v-.26a6.165,6.165,0,0,1,.571-2.718A4.175,4.175,0,0,1-6.777-9.579a5.027,5.027,0,0,1,2.6-.645A4.345,4.345,0,0,1-.84-8.911,5.159,5.159,0,0,1,.385-5.251v1.215H-5.831A2.253,2.253,0,0,0-5.1-2.709a2.181,2.181,0,0,0,1.466.482A2.81,2.81,0,0,0-1.313-3.266L.116-1.577A3.994,3.994,0,0,1-1.54-.292,5.6,5.6,0,0,1-3.845.186Zm-.353-8q-1.373,0-1.633,1.818h3.154v-.241A1.549,1.549,0,0,0-3.057-7.4,1.514,1.514,0,0,0-4.2-7.812ZM6.9-2.82a.722.722,0,0,0-.417-.64,6.35,6.35,0,0,0-1.586-.5,7.234,7.234,0,0,1-1.93-.682A3.232,3.232,0,0,1,1.8-5.668a2.448,2.448,0,0,1-.4-1.382A2.774,2.774,0,0,1,2.547-9.328a4.7,4.7,0,0,1,2.987-.9,5.208,5.208,0,0,1,3.191.9A2.814,2.814,0,0,1,9.931-6.958H6.8q0-1.206-1.271-1.206A1.26,1.26,0,0,0,4.7-7.89a.847.847,0,0,0-.334.682.778.778,0,0,0,.408.677,3.857,3.857,0,0,0,1.3.427,11.264,11.264,0,0,1,1.573.4A2.857,2.857,0,0,1,9.913-2.913,2.629,2.629,0,0,1,8.693-.677,5.35,5.35,0,0,1,5.534.186a5.46,5.46,0,0,1-2.3-.464A3.847,3.847,0,0,1,1.656-1.54,2.857,2.857,0,0,1,1.09-3.219H4.012A1.208,1.208,0,0,0,4.476-2.2a1.908,1.908,0,0,0,1.141.32,1.5,1.5,0,0,0,.96-.26A.831.831,0,0,0,6.9-2.82ZM25.48,0H16.054V-2.041L20.4-6.605a5.182,5.182,0,0,0,1.6-2.9,2.02,2.02,0,0,0-.38-1.327,1.358,1.358,0,0,0-1.1-.455,1.375,1.375,0,0,0-1.16.608,2.5,2.5,0,0,0-.445,1.517H15.776a4.436,4.436,0,0,1,.622-2.3,4.359,4.359,0,0,1,1.726-1.647,5.126,5.126,0,0,1,2.468-.594,5.042,5.042,0,0,1,3.372,1.011,3.61,3.61,0,0,1,1.183,2.9,4.217,4.217,0,0,1-.3,1.554,6.815,6.815,0,0,1-.923,1.586,23.253,23.253,0,0,1-2.018,2.222L20.164-2.412H25.48Z" transform="translate(7011 -1536.82)" fill="#12263f"/>
    <path id="Path_190244" data-name="Path 190244" d="M-20.934-13.508l3.015,9.4,3.006-9.4h4.286V0h-3.266V-3.154l.315-6.457L-16.843,0H-19L-22.27-9.621l.315,6.466V0h-3.256V-13.508ZM-3.845.186A5.16,5.16,0,0,1-7.584-1.192,4.757,4.757,0,0,1-9.013-4.778v-.26a6.165,6.165,0,0,1,.571-2.718A4.175,4.175,0,0,1-6.777-9.579a5.027,5.027,0,0,1,2.6-.645A4.345,4.345,0,0,1-.84-8.911,5.159,5.159,0,0,1,.385-5.251v1.215H-5.831A2.253,2.253,0,0,0-5.1-2.709a2.181,2.181,0,0,0,1.466.482A2.81,2.81,0,0,0-1.313-3.266L.116-1.577A3.994,3.994,0,0,1-1.54-.292,5.6,5.6,0,0,1-3.845.186Zm-.353-8q-1.373,0-1.633,1.818h3.154v-.241A1.549,1.549,0,0,0-3.057-7.4,1.514,1.514,0,0,0-4.2-7.812ZM6.9-2.82a.722.722,0,0,0-.417-.64,6.35,6.35,0,0,0-1.586-.5,7.234,7.234,0,0,1-1.93-.682A3.232,3.232,0,0,1,1.8-5.668a2.448,2.448,0,0,1-.4-1.382A2.774,2.774,0,0,1,2.547-9.328a4.7,4.7,0,0,1,2.987-.9,5.208,5.208,0,0,1,3.191.9A2.814,2.814,0,0,1,9.931-6.958H6.8q0-1.206-1.271-1.206A1.26,1.26,0,0,0,4.7-7.89a.847.847,0,0,0-.334.682.778.778,0,0,0,.408.677,3.857,3.857,0,0,0,1.3.427,11.264,11.264,0,0,1,1.573.4A2.857,2.857,0,0,1,9.913-2.913,2.629,2.629,0,0,1,8.693-.677,5.35,5.35,0,0,1,5.534.186a5.46,5.46,0,0,1-2.3-.464A3.847,3.847,0,0,1,1.656-1.54,2.857,2.857,0,0,1,1.09-3.219H4.012A1.208,1.208,0,0,0,4.476-2.2a1.908,1.908,0,0,0,1.141.32,1.5,1.5,0,0,0,.96-.26A.831.831,0,0,0,6.9-2.82ZM18.912-8.062h1.475A1.534,1.534,0,0,0,22.14-9.778a1.484,1.484,0,0,0-.417-1.09,1.583,1.583,0,0,0-1.178-.422,1.7,1.7,0,0,0-1.081.362,1.1,1.1,0,0,0-.459.9H15.878a3.2,3.2,0,0,1,.594-1.9,3.921,3.921,0,0,1,1.647-1.3,5.63,5.63,0,0,1,2.315-.469,5.532,5.532,0,0,1,3.544,1.03,3.423,3.423,0,0,1,1.29,2.83A2.853,2.853,0,0,1,24.733-8.2a3.8,3.8,0,0,1-1.554,1.257,3.632,3.632,0,0,1,1.688,1.183,3.115,3.115,0,0,1,.612,1.962A3.486,3.486,0,0,1,24.089-.9,5.776,5.776,0,0,1,20.433.186,5.99,5.99,0,0,1,17.97-.32a3.859,3.859,0,0,1-1.721-1.4,3.642,3.642,0,0,1-.584-2.036H18.81a1.408,1.408,0,0,0,.5,1.076,1.769,1.769,0,0,0,1.234.455,1.853,1.853,0,0,0,1.317-.459,1.535,1.535,0,0,0,.492-1.174,1.794,1.794,0,0,0-.51-1.447,2.133,2.133,0,0,0-1.41-.427H18.912Z" transform="translate(7079 -1536.82)" fill="#12263f"/>
    <path id="Path_190245" data-name="Path 190245" d="M-20.934-13.508l3.015,9.4,3.006-9.4h4.286V0h-3.266V-3.154l.315-6.457L-16.843,0H-19L-22.27-9.621l.315,6.466V0h-3.256V-13.508ZM-3.845.186A5.16,5.16,0,0,1-7.584-1.192,4.757,4.757,0,0,1-9.013-4.778v-.26a6.165,6.165,0,0,1,.571-2.718A4.175,4.175,0,0,1-6.777-9.579a5.027,5.027,0,0,1,2.6-.645A4.345,4.345,0,0,1-.84-8.911,5.159,5.159,0,0,1,.385-5.251v1.215H-5.831A2.253,2.253,0,0,0-5.1-2.709a2.181,2.181,0,0,0,1.466.482A2.81,2.81,0,0,0-1.313-3.266L.116-1.577A3.994,3.994,0,0,1-1.54-.292,5.6,5.6,0,0,1-3.845.186Zm-.353-8q-1.373,0-1.633,1.818h3.154v-.241A1.549,1.549,0,0,0-3.057-7.4,1.514,1.514,0,0,0-4.2-7.812ZM6.9-2.82a.722.722,0,0,0-.417-.64,6.35,6.35,0,0,0-1.586-.5,7.234,7.234,0,0,1-1.93-.682A3.232,3.232,0,0,1,1.8-5.668a2.448,2.448,0,0,1-.4-1.382A2.774,2.774,0,0,1,2.547-9.328a4.7,4.7,0,0,1,2.987-.9,5.208,5.208,0,0,1,3.191.9A2.814,2.814,0,0,1,9.931-6.958H6.8q0-1.206-1.271-1.206A1.26,1.26,0,0,0,4.7-7.89a.847.847,0,0,0-.334.682.778.778,0,0,0,.408.677,3.857,3.857,0,0,0,1.3.427,11.264,11.264,0,0,1,1.573.4A2.857,2.857,0,0,1,9.913-2.913,2.629,2.629,0,0,1,8.693-.677,5.35,5.35,0,0,1,5.534.186a5.46,5.46,0,0,1-2.3-.464A3.847,3.847,0,0,1,1.656-1.54,2.857,2.857,0,0,1,1.09-3.219H4.012A1.208,1.208,0,0,0,4.476-2.2a1.908,1.908,0,0,0,1.141.32,1.5,1.5,0,0,0,.96-.26A.831.831,0,0,0,6.9-2.82ZM24.311-5.279h1.373v2.412H24.311V0H21.185V-2.867H15.962l-.186-1.911,5.409-8.7v-.028h3.126Zm-5.557,0h2.431V-9.435l-.195.315Z" transform="translate(7148 -1536.82)" fill="#12263f"/>
    <path id="Path_190246" data-name="Path 190246" d="M-20.934-13.508l3.015,9.4,3.006-9.4h4.286V0h-3.266V-3.154l.315-6.457L-16.843,0H-19L-22.27-9.621l.315,6.466V0h-3.256V-13.508ZM-3.845.186A5.16,5.16,0,0,1-7.584-1.192,4.757,4.757,0,0,1-9.013-4.778v-.26a6.165,6.165,0,0,1,.571-2.718A4.175,4.175,0,0,1-6.777-9.579a5.027,5.027,0,0,1,2.6-.645A4.345,4.345,0,0,1-.84-8.911,5.159,5.159,0,0,1,.385-5.251v1.215H-5.831A2.253,2.253,0,0,0-5.1-2.709a2.181,2.181,0,0,0,1.466.482A2.81,2.81,0,0,0-1.313-3.266L.116-1.577A3.994,3.994,0,0,1-1.54-.292,5.6,5.6,0,0,1-3.845.186Zm-.353-8q-1.373,0-1.633,1.818h3.154v-.241A1.549,1.549,0,0,0-3.057-7.4,1.514,1.514,0,0,0-4.2-7.812ZM6.9-2.82a.722.722,0,0,0-.417-.64,6.35,6.35,0,0,0-1.586-.5,7.234,7.234,0,0,1-1.93-.682A3.232,3.232,0,0,1,1.8-5.668a2.448,2.448,0,0,1-.4-1.382A2.774,2.774,0,0,1,2.547-9.328a4.7,4.7,0,0,1,2.987-.9,5.208,5.208,0,0,1,3.191.9A2.814,2.814,0,0,1,9.931-6.958H6.8q0-1.206-1.271-1.206A1.26,1.26,0,0,0,4.7-7.89a.847.847,0,0,0-.334.682.778.778,0,0,0,.408.677,3.857,3.857,0,0,0,1.3.427,11.264,11.264,0,0,1,1.573.4A2.857,2.857,0,0,1,9.913-2.913,2.629,2.629,0,0,1,8.693-.677,5.35,5.35,0,0,1,5.534.186a5.46,5.46,0,0,1-2.3-.464A3.847,3.847,0,0,1,1.656-1.54,2.857,2.857,0,0,1,1.09-3.219H4.012A1.208,1.208,0,0,0,4.476-2.2a1.908,1.908,0,0,0,1.141.32,1.5,1.5,0,0,0,.96-.26A.831.831,0,0,0,6.9-2.82ZM16.24-6.6l.826-6.91h7.9V-11.1H19.608l-.306,2.7a3.688,3.688,0,0,1,.877-.345,4,4,0,0,1,1.062-.149A3.963,3.963,0,0,1,24.334-7.7a4.8,4.8,0,0,1,1.081,3.344A4.793,4.793,0,0,1,24.835-2,3.985,3.985,0,0,1,23.207-.38,5.14,5.14,0,0,1,20.73.186a5.531,5.531,0,0,1-2.384-.524A4.277,4.277,0,0,1,16.6-1.775a3.491,3.491,0,0,1-.622-2.062h3.136a1.774,1.774,0,0,0,.473,1.176,1.5,1.5,0,0,0,1.123.435q1.577,0,1.577-2.333,0-2.157-1.93-2.157a1.926,1.926,0,0,0-1.633.7Z" transform="translate(7217 -1536.82)" fill="#12263f"/>
    <path id="Path_190247" data-name="Path 190247" d="M-20.934-13.508l3.015,9.4,3.006-9.4h4.286V0h-3.266V-3.154l.315-6.457L-16.843,0H-19L-22.27-9.621l.315,6.466V0h-3.256V-13.508ZM-3.845.186A5.16,5.16,0,0,1-7.584-1.192,4.757,4.757,0,0,1-9.013-4.778v-.26a6.165,6.165,0,0,1,.571-2.718A4.175,4.175,0,0,1-6.777-9.579a5.027,5.027,0,0,1,2.6-.645A4.345,4.345,0,0,1-.84-8.911,5.159,5.159,0,0,1,.385-5.251v1.215H-5.831A2.253,2.253,0,0,0-5.1-2.709a2.181,2.181,0,0,0,1.466.482A2.81,2.81,0,0,0-1.313-3.266L.116-1.577A3.994,3.994,0,0,1-1.54-.292,5.6,5.6,0,0,1-3.845.186Zm-.353-8q-1.373,0-1.633,1.818h3.154v-.241A1.549,1.549,0,0,0-3.057-7.4,1.514,1.514,0,0,0-4.2-7.812ZM6.9-2.82a.722.722,0,0,0-.417-.64,6.35,6.35,0,0,0-1.586-.5,7.234,7.234,0,0,1-1.93-.682A3.232,3.232,0,0,1,1.8-5.668a2.448,2.448,0,0,1-.4-1.382A2.774,2.774,0,0,1,2.547-9.328a4.7,4.7,0,0,1,2.987-.9,5.208,5.208,0,0,1,3.191.9A2.814,2.814,0,0,1,9.931-6.958H6.8q0-1.206-1.271-1.206A1.26,1.26,0,0,0,4.7-7.89a.847.847,0,0,0-.334.682.778.778,0,0,0,.408.677,3.857,3.857,0,0,0,1.3.427,11.264,11.264,0,0,1,1.573.4A2.857,2.857,0,0,1,9.913-2.913,2.629,2.629,0,0,1,8.693-.677,5.35,5.35,0,0,1,5.534.186a5.46,5.46,0,0,1-2.3-.464A3.847,3.847,0,0,1,1.656-1.54,2.857,2.857,0,0,1,1.09-3.219H4.012A1.208,1.208,0,0,0,4.476-2.2a1.908,1.908,0,0,0,1.141.32,1.5,1.5,0,0,0,.96-.26A.831.831,0,0,0,6.9-2.82ZM23.606-13.7v2.458h-.139a4.694,4.694,0,0,0-2.881.84A3.545,3.545,0,0,0,19.2-8.071,3.656,3.656,0,0,1,21.871-9.11a3.41,3.41,0,0,1,2.792,1.28A5.164,5.164,0,0,1,25.7-4.472,4.729,4.729,0,0,1,25.1-2.106,4.336,4.336,0,0,1,23.4-.422a4.879,4.879,0,0,1-2.417.608,5.042,5.042,0,0,1-2.57-.654,4.5,4.5,0,0,1-1.763-1.869A6.156,6.156,0,0,1,16-5.14V-6.392a7.8,7.8,0,0,1,.9-3.753,6.49,6.49,0,0,1,2.556-2.612,7.307,7.307,0,0,1,3.683-.946Zm-2.82,7a1.794,1.794,0,0,0-1.039.286,1.821,1.821,0,0,0-.622.7v.933q0,2.55,1.772,2.55a1.439,1.439,0,0,0,1.192-.638,2.591,2.591,0,0,0,.478-1.6,2.543,2.543,0,0,0-.487-1.612A1.56,1.56,0,0,0,20.786-6.7Z" transform="translate(7285 -1536.82)" fill="#12263f"/>
    <path id="Path_190248" data-name="Path 190248" d="M-20.934-13.508l3.015,9.4,3.006-9.4h4.286V0h-3.266V-3.154l.315-6.457L-16.843,0H-19L-22.27-9.621l.315,6.466V0h-3.256V-13.508ZM-3.845.186A5.16,5.16,0,0,1-7.584-1.192,4.757,4.757,0,0,1-9.013-4.778v-.26a6.165,6.165,0,0,1,.571-2.718A4.175,4.175,0,0,1-6.777-9.579a5.027,5.027,0,0,1,2.6-.645A4.345,4.345,0,0,1-.84-8.911,5.159,5.159,0,0,1,.385-5.251v1.215H-5.831A2.253,2.253,0,0,0-5.1-2.709a2.181,2.181,0,0,0,1.466.482A2.81,2.81,0,0,0-1.313-3.266L.116-1.577A3.994,3.994,0,0,1-1.54-.292,5.6,5.6,0,0,1-3.845.186Zm-.353-8q-1.373,0-1.633,1.818h3.154v-.241A1.549,1.549,0,0,0-3.057-7.4,1.514,1.514,0,0,0-4.2-7.812ZM6.9-2.82a.722.722,0,0,0-.417-.64,6.35,6.35,0,0,0-1.586-.5,7.234,7.234,0,0,1-1.93-.682A3.232,3.232,0,0,1,1.8-5.668a2.448,2.448,0,0,1-.4-1.382A2.774,2.774,0,0,1,2.547-9.328a4.7,4.7,0,0,1,2.987-.9,5.208,5.208,0,0,1,3.191.9A2.814,2.814,0,0,1,9.931-6.958H6.8q0-1.206-1.271-1.206A1.26,1.26,0,0,0,4.7-7.89a.847.847,0,0,0-.334.682.778.778,0,0,0,.408.677,3.857,3.857,0,0,0,1.3.427,11.264,11.264,0,0,1,1.573.4A2.857,2.857,0,0,1,9.913-2.913,2.629,2.629,0,0,1,8.693-.677,5.35,5.35,0,0,1,5.534.186a5.46,5.46,0,0,1-2.3-.464A3.847,3.847,0,0,1,1.656-1.54,2.857,2.857,0,0,1,1.09-3.219H4.012A1.208,1.208,0,0,0,4.476-2.2a1.908,1.908,0,0,0,1.141.32,1.5,1.5,0,0,0,.96-.26A.831.831,0,0,0,6.9-2.82Zm18.545-9.018L20.4,0h-3.3L22.15-11.1H15.711v-2.412h9.732Z" transform="translate(7353 -1536.82)" fill="#12263f"/>
    <path id="Path_190249" data-name="Path 190249" d="M-20.934-13.508l3.015,9.4,3.006-9.4h4.286V0h-3.266V-3.154l.315-6.457L-16.843,0H-19L-22.27-9.621l.315,6.466V0h-3.256V-13.508ZM-3.845.186A5.16,5.16,0,0,1-7.584-1.192,4.757,4.757,0,0,1-9.013-4.778v-.26a6.165,6.165,0,0,1,.571-2.718A4.175,4.175,0,0,1-6.777-9.579a5.027,5.027,0,0,1,2.6-.645A4.345,4.345,0,0,1-.84-8.911,5.159,5.159,0,0,1,.385-5.251v1.215H-5.831A2.253,2.253,0,0,0-5.1-2.709a2.181,2.181,0,0,0,1.466.482A2.81,2.81,0,0,0-1.313-3.266L.116-1.577A3.994,3.994,0,0,1-1.54-.292,5.6,5.6,0,0,1-3.845.186Zm-.353-8q-1.373,0-1.633,1.818h3.154v-.241A1.549,1.549,0,0,0-3.057-7.4,1.514,1.514,0,0,0-4.2-7.812ZM6.9-2.82a.722.722,0,0,0-.417-.64,6.35,6.35,0,0,0-1.586-.5,7.234,7.234,0,0,1-1.93-.682A3.232,3.232,0,0,1,1.8-5.668a2.448,2.448,0,0,1-.4-1.382A2.774,2.774,0,0,1,2.547-9.328a4.7,4.7,0,0,1,2.987-.9,5.208,5.208,0,0,1,3.191.9A2.814,2.814,0,0,1,9.931-6.958H6.8q0-1.206-1.271-1.206A1.26,1.26,0,0,0,4.7-7.89a.847.847,0,0,0-.334.682.778.778,0,0,0,.408.677,3.857,3.857,0,0,0,1.3.427,11.264,11.264,0,0,1,1.573.4A2.857,2.857,0,0,1,9.913-2.913,2.629,2.629,0,0,1,8.693-.677,5.35,5.35,0,0,1,5.534.186a5.46,5.46,0,0,1-2.3-.464A3.847,3.847,0,0,1,1.656-1.54,2.857,2.857,0,0,1,1.09-3.219H4.012A1.208,1.208,0,0,0,4.476-2.2a1.908,1.908,0,0,0,1.141.32,1.5,1.5,0,0,0,.96-.26A.831.831,0,0,0,6.9-2.82ZM25.165-9.9a3.118,3.118,0,0,1-.487,1.735,3.547,3.547,0,0,1-1.341,1.206,3.9,3.9,0,0,1,1.531,1.294,3.34,3.34,0,0,1,.566,1.944A3.535,3.535,0,0,1,24.186-.863,5.182,5.182,0,0,1,20.749.186a5.276,5.276,0,0,1-3.47-1.053A3.51,3.51,0,0,1,16.008-3.72a3.382,3.382,0,0,1,.557-1.92,3.785,3.785,0,0,1,1.577-1.317,3.567,3.567,0,0,1-1.354-1.206A3.1,3.1,0,0,1,16.3-9.9a3.466,3.466,0,0,1,1.2-2.783A4.811,4.811,0,0,1,20.721-13.7a4.84,4.84,0,0,1,3.247,1.021A3.466,3.466,0,0,1,25.165-9.9ZM22.3-3.971a1.783,1.783,0,0,0-.431-1.285,1.5,1.5,0,0,0-1.136-.45,1.517,1.517,0,0,0-1.141.45,1.772,1.772,0,0,0-.436,1.285A1.787,1.787,0,0,0,19.594-2.7a1.512,1.512,0,0,0,1.155.469,1.453,1.453,0,0,0,1.123-.464A1.819,1.819,0,0,0,22.3-3.971Zm-1.577-7.32a1.155,1.155,0,0,0-.96.413,1.792,1.792,0,0,0-.329,1.146,1.9,1.9,0,0,0,.334,1.169,1.152,1.152,0,0,0,.983.445,1.105,1.105,0,0,0,.96-.445,1.959,1.959,0,0,0,.32-1.169,1.8,1.8,0,0,0-.329-1.141A1.171,1.171,0,0,0,20.721-11.291Z" transform="translate(7422 -1536.82)" fill="#12263f"/>
    <path id="Path_190250" data-name="Path 190250" d="M-20.934-13.508l3.015,9.4,3.006-9.4h4.286V0h-3.266V-3.154l.315-6.457L-16.843,0H-19L-22.27-9.621l.315,6.466V0h-3.256V-13.508ZM-3.845.186A5.16,5.16,0,0,1-7.584-1.192,4.757,4.757,0,0,1-9.013-4.778v-.26a6.165,6.165,0,0,1,.571-2.718A4.175,4.175,0,0,1-6.777-9.579a5.027,5.027,0,0,1,2.6-.645A4.345,4.345,0,0,1-.84-8.911,5.159,5.159,0,0,1,.385-5.251v1.215H-5.831A2.253,2.253,0,0,0-5.1-2.709a2.181,2.181,0,0,0,1.466.482A2.81,2.81,0,0,0-1.313-3.266L.116-1.577A3.994,3.994,0,0,1-1.54-.292,5.6,5.6,0,0,1-3.845.186Zm-.353-8q-1.373,0-1.633,1.818h3.154v-.241A1.549,1.549,0,0,0-3.057-7.4,1.514,1.514,0,0,0-4.2-7.812ZM6.9-2.82a.722.722,0,0,0-.417-.64,6.35,6.35,0,0,0-1.586-.5,7.234,7.234,0,0,1-1.93-.682A3.232,3.232,0,0,1,1.8-5.668a2.448,2.448,0,0,1-.4-1.382A2.774,2.774,0,0,1,2.547-9.328a4.7,4.7,0,0,1,2.987-.9,5.208,5.208,0,0,1,3.191.9A2.814,2.814,0,0,1,9.931-6.958H6.8q0-1.206-1.271-1.206A1.26,1.26,0,0,0,4.7-7.89a.847.847,0,0,0-.334.682.778.778,0,0,0,.408.677,3.857,3.857,0,0,0,1.3.427,11.264,11.264,0,0,1,1.573.4A2.857,2.857,0,0,1,9.913-2.913,2.629,2.629,0,0,1,8.693-.677,5.35,5.35,0,0,1,5.534.186a5.46,5.46,0,0,1-2.3-.464A3.847,3.847,0,0,1,1.656-1.54,2.857,2.857,0,0,1,1.09-3.219H4.012A1.208,1.208,0,0,0,4.476-2.2a1.908,1.908,0,0,0,1.141.32,1.5,1.5,0,0,0,.96-.26A.831.831,0,0,0,6.9-2.82Zm15.317-2.4a3.3,3.3,0,0,1-2.264.909,3.655,3.655,0,0,1-2.913-1.243,4.9,4.9,0,0,1-1.076-3.321,4.985,4.985,0,0,1,.6-2.412,4.525,4.525,0,0,1,1.693-1.763,4.616,4.616,0,0,1,2.407-.649,4.481,4.481,0,0,1,2.417.673,4.529,4.529,0,0,1,1.684,1.9,6.533,6.533,0,0,1,.622,2.834v1.2a8.12,8.12,0,0,1-.877,3.878A6.052,6.052,0,0,1,22.01-.7a7.813,7.813,0,0,1-3.785.881h-.195v-2.5l.594-.009Q21.853-2.486,22.215-5.223ZM20.8-6.568a1.522,1.522,0,0,0,1.466-.881v-1.3a3.377,3.377,0,0,0-.436-1.92,1.368,1.368,0,0,0-1.178-.622,1.293,1.293,0,0,0-1.1.705A3.132,3.132,0,0,0,19.1-8.878a2.809,2.809,0,0,0,.455,1.684A1.454,1.454,0,0,0,20.8-6.568Z" transform="translate(7491 -1536.82)" fill="#12263f"/>
    <path id="Line_302" data-name="Line 302" d="M1,1030.556H-1V-1H1Z" transform="translate(6495 -1473.82) rotate(-90)" fill="#e8e8e8"/>
    <path id="Line_306" data-name="Line 306" d="M1,1030.556H-1V-1H1Z" transform="translate(6495 -1431.82) rotate(-90)" fill="#e8e8e8"/>
    <path id="Line_307" data-name="Line 307" d="M1,1030.556H-1V-1H1Z" transform="translate(6495 -1389.82) rotate(-90)" fill="#e8e8e8"/>
    <path id="Line_308" data-name="Line 308" d="M1,1030.556H-1V-1H1Z" transform="translate(6495 -1347.82) rotate(-90)" fill="#e8e8e8"/>
    <path id="Line_309" data-name="Line 309" d="M1,1030.556H-1V-1H1Z" transform="translate(6495 -1305.82) rotate(-90)" fill="#e8e8e8"/>
    <path id="Line_311" data-name="Line 311" d="M1,1030.556H-1V-1H1Z" transform="translate(6495 -1263.82) rotate(-90)" fill="#e8e8e8"/>
    <path id="Line_316" data-name="Line 316" d="M1,1030.556H-1V-1H1Z" transform="translate(6495 -1221.82) rotate(-90)" fill="#e8e8e8"/>
  </g>
</svg>
