<svg xmlns="http://www.w3.org/2000/svg" width="52" height="52" viewBox="0 0 52 52">
  <g id="t5-c5" transform="translate(-11422 6329)">
    <circle id="Ellipse_5143" data-name="Ellipse 5143" cx="26" cy="26" r="26" transform="translate(11422 -6329)" fill="#3c6d9d"/>
    <path id="Path_190316" data-name="Path 190316" d="M5.976,13.36l.956-8h9.142V8.152h-6.2l-.354,3.128a4.27,4.27,0,0,1,1.015-.4,4.632,4.632,0,0,1,1.23-.173,4.589,4.589,0,0,1,3.583,1.38A5.56,5.56,0,0,1,16.6,15.962a5.55,5.55,0,0,1-.671,2.723,4.615,4.615,0,0,1-1.885,1.875,5.952,5.952,0,0,1-2.868.655,6.4,6.4,0,0,1-2.761-.606A4.953,4.953,0,0,1,6.4,18.945a4.043,4.043,0,0,1-.72-2.388H9.306a2.054,2.054,0,0,0,.548,1.361,1.739,1.739,0,0,0,1.3.5q1.826,0,1.826-2.7,0-2.5-2.234-2.5a2.23,2.23,0,0,0-1.891.815ZM20.8,17.487a2.061,2.061,0,0,1,1.429.51,1.781,1.781,0,0,1,0,2.61,2.254,2.254,0,0,1-2.863-.005,1.78,1.78,0,0,1,0-2.6A2.043,2.043,0,0,1,20.8,17.487Z" transform="translate(11436 -6317)" fill="#fff"/>
    <rect id="Rectangle_40159" data-name="Rectangle 40159" width="7" height="7" transform="translate(11454 -6301)" fill="#3c6d9d"/>
  </g>
</svg>
