<svg xmlns="http://www.w3.org/2000/svg" width="52" height="52" viewBox="0 0 52 52">
  <g id="t5-c2" transform="translate(-10423 6329)">
    <circle id="Ellipse_5140" data-name="Ellipse 5140" cx="26" cy="26" r="26" transform="translate(10423 -6329)" fill="#3c6d9d"/>
    <path id="Path_190313" data-name="Path 190313" d="M16.675,21H5.761V18.637l5.027-5.285q1.858-2.116,1.858-3.362a2.339,2.339,0,0,0-.44-1.536,1.572,1.572,0,0,0-1.278-.526,1.592,1.592,0,0,0-1.343.7,2.892,2.892,0,0,0-.516,1.756H5.439a5.136,5.136,0,0,1,.72-2.659,5.047,5.047,0,0,1,2-1.907,5.935,5.935,0,0,1,2.857-.687,5.839,5.839,0,0,1,3.9,1.171,4.18,4.18,0,0,1,1.37,3.362,4.883,4.883,0,0,1-.344,1.8A7.891,7.891,0,0,1,14.876,13.3a26.924,26.924,0,0,1-2.336,2.573l-2.02,2.331h6.155ZM20.8,17.487a2.061,2.061,0,0,1,1.429.51,1.781,1.781,0,0,1,0,2.61,2.254,2.254,0,0,1-2.863-.005,1.78,1.78,0,0,1,0-2.6A2.043,2.043,0,0,1,20.8,17.487Z" transform="translate(10438 -6317)" fill="#fff"/>
    <rect id="Rectangle_40156" data-name="Rectangle 40156" width="7" height="7" transform="translate(10456 -6301)" fill="#3c6d9d"/>
  </g>
</svg>
