<svg xmlns="http://www.w3.org/2000/svg" width="52" height="52" viewBox="0 0 52 52">
  <g id="t5-c1" transform="translate(-974 -5371)">
    <circle id="Ellipse_5139" data-name="Ellipse 5139" cx="26" cy="26" r="26" transform="translate(974 5371)" fill="#3c6d9d"/>
    <path id="Path_190312" data-name="Path 190312" d="M13.786,21H10.155V9.441L6.588,10.483V7.733l6.864-2.374h.333ZM20.8,17.487a2.061,2.061,0,0,1,1.429.51,1.781,1.781,0,0,1,0,2.61,2.254,2.254,0,0,1-2.863-.005,1.78,1.78,0,0,1,0-2.6A2.043,2.043,0,0,1,20.8,17.487Z" transform="translate(988 5383)" fill="#fff"/>
    <rect id="Rectangle_40155" data-name="Rectangle 40155" width="7" height="7" transform="translate(1005 5399)" fill="#3c6d9d"/>
  </g>
</svg>
