<svg xmlns="http://www.w3.org/2000/svg" width="400" height="290" viewBox="0 0 400 290">
  <g id="t5-f2" transform="translate(-12597 8669)">
    <rect id="Rectangle_40146" data-name="Rectangle 40146" width="400" height="290" rx="20" transform="translate(12597 -8669)" fill="#e5f2d5"/>
    <path id="Path_190308" data-name="Path 190308" d="M111.691,14.361h-5.93V18.1h7V21H101.991V5.359h10.8V8.271h-7.025v3.3h5.93Zm5.769-4.984.118,1.364A3.942,3.942,0,0,1,120.9,9.162a3.316,3.316,0,0,1,2.712,1.085,5.165,5.165,0,0,1,.929,3.266V21h-3.631V13.663a1.961,1.961,0,0,0-.354-1.294,1.64,1.64,0,0,0-1.289-.414,1.726,1.726,0,0,0-1.579.838V21h-3.62V9.377Zm12.977,0V21.4a4.219,4.219,0,0,1-1.182,3.18,4.539,4.539,0,0,1-3.266,1.117,7.71,7.71,0,0,1-1.708-.183V22.772a6.926,6.926,0,0,0,1.021.1,1.325,1.325,0,0,0,1.5-1.493v-12Zm-3.9-3.008a1.63,1.63,0,0,1,.559-1.275,2.364,2.364,0,0,1,2.9,0,1.63,1.63,0,0,1,.559,1.275A1.63,1.63,0,0,1,130,7.644a2.364,2.364,0,0,1-2.9,0A1.63,1.63,0,0,1,126.537,6.369Zm12.869,13.374a3.732,3.732,0,0,1-3.1,1.472,3.661,3.661,0,0,1-2.9-1.112,4.676,4.676,0,0,1-.983-3.2V9.377h3.62v7.552a1.3,1.3,0,0,0,1.45,1.493,1.892,1.892,0,0,0,1.772-.892V9.377h3.642V21h-3.395ZM151.437,21a4.088,4.088,0,0,1-.344-1.042,3.366,3.366,0,0,1-2.793,1.257,4.124,4.124,0,0,1-2.793-.994,3.163,3.163,0,0,1-1.149-2.5,3.251,3.251,0,0,1,1.4-2.857,7.114,7.114,0,0,1,4.061-.967h1.117v-.615q0-1.608-1.386-1.608a1.133,1.133,0,0,0-1.289,1.274h-3.62a3.245,3.245,0,0,1,1.434-2.736,6.027,6.027,0,0,1,3.658-1.051,5.284,5.284,0,0,1,3.513,1.085,3.772,3.772,0,0,1,1.321,2.976v5.146a5.269,5.269,0,0,0,.494,2.449V21Zm-2.267-2.363a2.019,2.019,0,0,0,1.123-.29,1.818,1.818,0,0,0,.639-.655V15.833h-1.053q-1.891,0-1.891,1.7a1.036,1.036,0,0,0,.333.8A1.205,1.205,0,0,0,149.17,18.637Zm6.972-3.534a7.848,7.848,0,0,1,.58-3.115A4.67,4.67,0,0,1,158.387,9.9a4.389,4.389,0,0,1,2.524-.736,3.49,3.49,0,0,1,2.836,1.225l.129-1.01h3.287V20.56a4.9,4.9,0,0,1-.714,2.669,4.584,4.584,0,0,1-2.068,1.74,7.6,7.6,0,0,1-3.137.607,6.557,6.557,0,0,1-2.476-.483,4.47,4.47,0,0,1-1.832-1.257l1.515-2.127a3.319,3.319,0,0,0,2.664,1.192,2.156,2.156,0,0,0,2.406-2.471v-.365a3.4,3.4,0,0,1-2.632,1.149,4.2,4.2,0,0,1-3.437-1.627,6.743,6.743,0,0,1-1.311-4.356Zm3.631.226a4.135,4.135,0,0,0,.537,2.261,1.7,1.7,0,0,0,1.5.833,1.923,1.923,0,0,0,1.708-.784V12.75a1.875,1.875,0,0,0-1.687-.795,1.706,1.706,0,0,0-1.515.865A4.715,4.715,0,0,0,159.773,15.328Zm16.371,4.415a3.732,3.732,0,0,1-3.1,1.472,3.661,3.661,0,0,1-2.9-1.112,4.676,4.676,0,0,1-.983-3.2V9.377h3.62v7.552a1.3,1.3,0,0,0,1.45,1.493A1.892,1.892,0,0,0,176,17.53V9.377h3.642V21h-3.395Zm11.107,1.472a5.975,5.975,0,0,1-4.329-1.6,5.509,5.509,0,0,1-1.654-4.152v-.3a7.138,7.138,0,0,1,.661-3.147,4.834,4.834,0,0,1,1.928-2.111,5.821,5.821,0,0,1,3.008-.747,5.031,5.031,0,0,1,3.867,1.52,5.973,5.973,0,0,1,1.418,4.238v1.407h-7.2a2.609,2.609,0,0,0,.849,1.536,2.525,2.525,0,0,0,1.7.559,3.254,3.254,0,0,0,2.686-1.2l1.654,1.955a4.624,4.624,0,0,1-1.917,1.488A6.48,6.48,0,0,1,187.251,21.215Zm-.408-9.26q-1.59,0-1.891,2.105H188.6v-.279a1.793,1.793,0,0,0-.44-1.348A1.753,1.753,0,0,0,186.843,11.955Zm23.031,3.319a7.009,7.009,0,0,1-1.219,4.324,3.909,3.909,0,0,1-3.292,1.617,3.351,3.351,0,0,1-2.632-1.171v5.425h-3.62V9.377h3.384l.107,1.074a3.351,3.351,0,0,1,2.739-1.289,3.941,3.941,0,0,1,3.341,1.584,7.1,7.1,0,0,1,1.192,4.356Zm-3.62-.226q0-3.094-1.8-3.094a1.7,1.7,0,0,0-1.719.924v4.576a1.759,1.759,0,0,0,1.74.967q1.729,0,1.783-2.986Zm12.246-2.4-1.192-.086a2.142,2.142,0,0,0-2.191,1.074V21H211.5V9.377h3.395l.118,1.493a2.8,2.8,0,0,1,2.546-1.708,3.53,3.53,0,0,1,1.01.129Zm6.725,8.562a5.975,5.975,0,0,1-4.329-1.6,5.509,5.509,0,0,1-1.654-4.152v-.3a7.138,7.138,0,0,1,.661-3.147,4.834,4.834,0,0,1,1.928-2.111,5.821,5.821,0,0,1,3.008-.747,5.031,5.031,0,0,1,3.867,1.52,5.973,5.973,0,0,1,1.418,4.238v1.407h-7.2a2.609,2.609,0,0,0,.849,1.536,2.525,2.525,0,0,0,1.7.559,3.254,3.254,0,0,0,2.686-1.2l1.654,1.955a4.624,4.624,0,0,1-1.917,1.488A6.48,6.48,0,0,1,225.225,21.215Zm-.408-9.26q-1.59,0-1.891,2.105h3.652v-.279a1.793,1.793,0,0,0-.44-1.348A1.753,1.753,0,0,0,224.817,11.955Zm11.258,4.737,1.837-7.315h3.813L237.933,21h-3.7L230.446,9.377h3.824ZM246.624,21h-3.631V9.377h3.631ZM242.778,6.369a1.63,1.63,0,0,1,.559-1.275,2.364,2.364,0,0,1,2.9,0,1.63,1.63,0,0,1,.559,1.275,1.63,1.63,0,0,1-.559,1.275,2.364,2.364,0,0,1-2.9,0A1.63,1.63,0,0,1,242.778,6.369Zm5.618,8.712a6.86,6.86,0,0,1,.677-3.1,4.84,4.84,0,0,1,1.944-2.089,5.856,5.856,0,0,1,2.976-.73,5.344,5.344,0,0,1,4.114,1.617,6.2,6.2,0,0,1,1.5,4.4v.129A6.019,6.019,0,0,1,258.1,19.62a5.359,5.359,0,0,1-4.087,1.6,5.42,5.42,0,0,1-3.985-1.488,5.819,5.819,0,0,1-1.622-4.034Zm3.62.226a4.325,4.325,0,0,0,.5,2.363,1.682,1.682,0,0,0,1.493.752q1.934,0,1.977-2.976v-.365q0-3.126-2-3.126-1.815,0-1.966,2.7Z" transform="translate(12617 -8443)" fill="#12263f"/>
    <path id="Path_190303" data-name="Path 190303" d="M0,0H172V3H0Z" transform="translate(12711 -8471)" fill="#78b62e"/>
    <g id="Capa_2" data-name="Capa 2" transform="translate(12738.033 -8644)">
      <g id="Ñëîé_1" data-name="Ñëîé 1" transform="translate(0.024 0)">
        <path id="Path_190017" data-name="Path 190017" d="M25.169,26.357A13.1,13.1,0,1,0,8.067,33.3a13.1,13.1,0,0,0,17.1-6.942ZM7.1,19.646a8.493,8.493,0,1,1,4.628,11.061A8.493,8.493,0,0,1,7.1,19.646Z" transform="translate(-0.024 10.668)" fill="#99e0e0"/>
        <path id="Path_190018" data-name="Path 190018" d="M17.622.578A10.784,10.784,0,1,0,31.3,7.289,10.784,10.784,0,0,0,17.622.578Zm6.8,19.045a8.516,8.516,0,1,1,5.3-10.807A8.516,8.516,0,0,1,24.425,19.623Z" transform="translate(13.493 0)" fill="#2bbfbf"/>
        <path id="Path_190019" data-name="Path 190019" d="M24.6,22.459a5.693,5.693,0,0,0-6.942-9,5.693,5.693,0,0,0,6.942,9Zm-6.688-8.331a4.489,4.489,0,1,1-.787,6.294,4.489,4.489,0,0,1,.787-6.294Z" transform="translate(20.559 16.371)" fill="#99e0e0"/>
        <path id="Path_190020" data-name="Path 190020" d="M17.59,20.607a9.719,9.719,0,1,0,12.334,6.063A9.719,9.719,0,0,0,17.59,20.607Zm2.869,13.63a5.716,5.716,0,1,1,3.314-2.9,5.739,5.739,0,0,1-3.314,2.9Z" transform="translate(14.404 26.392)" fill="#2bbfbf"/>
        <path id="Path_190021" data-name="Path 190021" d="M115.821,46.548A18.3,18.3,0,0,1,107,44.466,25.64,25.64,0,0,0,94.994,41.9a25.756,25.756,0,0,0-11.987,2.569,19.8,19.8,0,0,1-17.68,0A25.825,25.825,0,0,0,53.34,41.9a25.825,25.825,0,0,0-12.033,2.569,18.281,18.281,0,0,1-8.794,2.083,18.281,18.281,0,0,1-8.886-2.083A25.663,25.663,0,0,0,11.687,41.9c-1.9,0-1,1.319-1,2.985s-.9,3.055,1,3.055h.278l5.855,15.551a3.934,3.934,0,0,1,1.759-.417A20.318,20.318,0,0,1,30.2,65.848a12.82,12.82,0,0,0,7.058,1.9,12.75,12.75,0,0,0,7.058-1.9A20.364,20.364,0,0,1,54.96,63.094a20.364,20.364,0,0,1,10.645,2.754,14.07,14.07,0,0,0,14.116,0,21.914,21.914,0,0,1,21.266,0,12.82,12.82,0,0,0,6.942,1.9,3.657,3.657,0,0,1,.879,0l5.184-15.3,1.828-5.207v2.013C115.821,47.59,117.765,46.548,115.821,46.548Z" transform="translate(13.712 55.04)" fill="#99e0e0"/>
        <path id="Path_190022" data-name="Path 190022" d="M105.682,55.819a3.657,3.657,0,0,0-.879,0,12.82,12.82,0,0,1-6.942-1.9,21.914,21.914,0,0,0-21.266,0,14.07,14.07,0,0,1-14.116,0,20.364,20.364,0,0,0-10.645-2.754,20.364,20.364,0,0,0-10.645,2.754,12.751,12.751,0,0,1-7.058,1.9A12.82,12.82,0,0,1,27,53.806a20.318,20.318,0,0,0-10.622-2.754,3.934,3.934,0,0,0-1.759.417,3.008,3.008,0,0,0-1.712,2.615,3.286,3.286,0,0,0,3.471,3.031h.37l6.942,18.652H98.878l4.767-14.047h1.134a3.286,3.286,0,0,0,3.471-3.031A3.124,3.124,0,0,0,105.682,55.819Z" transform="translate(16.909 67.082)" fill="#2bbfbf"/>
        <path id="Path_190023" data-name="Path 190023" d="M45.515,22.633a3.4,3.4,0,0,1,1.412,4.628L32.441,54.221a3.4,3.4,0,0,1-4.628,1.388l-.393-.208a3.425,3.425,0,0,1-1.412-4.628L40.4,23.813a3.4,3.4,0,0,1,4.628-1.388Z" transform="translate(33.593 28.924)" fill="#ffb500"/>
        <path id="Path_190024" data-name="Path 190024" d="M60.068,19.346A3.425,3.425,0,0,1,57.754,23.6L28.481,32.421a3.4,3.4,0,0,1-4.258-2.314l-.162-.417a3.587,3.587,0,0,1,2.314-4.258c6.433-2.684,27.514-10.3,27.514-10.3,1.8-.555,5.484,1.967,6.04,3.772Z" transform="translate(31.421 19.785)" fill="#ffb500"/>
        <path id="Path_190025" data-name="Path 190025" d="M47.993,25.667A3.425,3.425,0,0,1,49.4,30.3L34.942,57.277a3.425,3.425,0,0,1-4.628,1.388l-.393-.208a3.471,3.471,0,0,1-1.412-4.628L42.995,26.893A3.4,3.4,0,0,1,47.623,25.5Z" transform="translate(36.901 32.972)" fill="#ffb500"/>
        <path id="Path_190026" data-name="Path 190026" d="M52,26.1a3.4,3.4,0,0,1,1.388,4.628L38.875,57.669a3.471,3.471,0,0,1-4.628,1.412l-.393-.231a3.4,3.4,0,0,1-1.388-4.628L46.928,27.285a3.448,3.448,0,0,1,4.628-1.412Z" transform="translate(42.062 33.483)" fill="#ffb500"/>
        <path id="Path_190027" data-name="Path 190027" d="M56.449,25.327a3.425,3.425,0,0,1,1.412,4.628L43.375,56.961a3.4,3.4,0,0,1-4.628,1.388l-.417-.208a3.471,3.471,0,0,1-1.388-4.628L51.474,26.553A3.4,3.4,0,0,1,56.1,25.165Z" transform="translate(47.976 32.525)" fill="#ffb500"/>
        <path id="Path_190028" data-name="Path 190028" d="M68.808,27.357a4.235,4.235,0,0,1,1,5.855l-8.886,16.43A4.281,4.281,0,0,1,55.5,52.095L33.1,40.062a4.281,4.281,0,0,1-.926-5.855l8.84-16.453A4.258,4.258,0,0,1,46.407,15.3Z" transform="translate(41.218 19.781)" fill="#ffb500"/>
        <path id="Path_190029" data-name="Path 190029" d="M35.93,27.112s.393-3.865-3.7-2.638-2.2-3.494-2.2-3.494a111.751,111.751,0,0,1,12.38-2.43C42.988,18.92,38.776,28.848,35.93,27.112Z" transform="translate(38.828 24.376)" fill="#ffb500"/>
        <rect id="Rectangle_40092" data-name="Rectangle 40092" width="24.506" height="24.761" transform="translate(85.394 39.967) rotate(-61.76)" fill="#ffb500"/>
        <path id="Path_190030" data-name="Path 190030" d="M67.826,105.145h-33.9c-3.124,0-8.794-1.388-11.339-10.552C17.958,77.7,7.544,37.805,7.429,37.389a3.471,3.471,0,0,1,6.711-1.736c0,.393,10.46,40.242,15.134,57.089C30.292,96.375,31.842,98.2,33.9,98.2H67.826a3.471,3.471,0,1,1,0,6.942Z" transform="translate(9.616 43.673)" fill="#485665"/>
        <path id="Path_190031" data-name="Path 190031" d="M69.363,105.145h-33.9a3.471,3.471,0,0,1,0-6.942h33.9c2.083,0,3.656-1.828,4.628-5.461,4.628-16.847,15.018-56.7,15.134-57.089a3.471,3.471,0,0,1,6.711,1.736c-.116.417-10.483,40.311-15.18,57.2C78.156,103.757,72.51,105.145,69.363,105.145Z" transform="translate(41.982 43.673)" fill="#485665"/>
      </g>
    </g>
  </g>
</svg>
