<svg xmlns="http://www.w3.org/2000/svg" width="400" height="290" viewBox="0 0 400 290">
  <g id="t5-f4" transform="translate(-12387 8339)">
    <rect id="Rectangle_40149" data-name="Rectangle 40149" width="400" height="290" rx="20" transform="translate(12387 -8339)" fill="#e5f2d5"/>
    <path id="Path_190311" data-name="Path 190311" d="M97.447,14.361h-5.93V18.1h7V21H87.747V5.359h10.8V8.271H91.517v3.3h5.93Zm5.769-4.984.118,1.364a3.942,3.942,0,0,1,3.319-1.579,3.316,3.316,0,0,1,2.712,1.085,5.165,5.165,0,0,1,.929,3.266V21h-3.631V13.663a1.961,1.961,0,0,0-.354-1.294,1.64,1.64,0,0,0-1.289-.414,1.726,1.726,0,0,0-1.579.838V21h-3.62V9.377Zm12.977,0V21.4a4.219,4.219,0,0,1-1.182,3.18,4.539,4.539,0,0,1-3.266,1.117,7.71,7.71,0,0,1-1.708-.183V22.772a6.926,6.926,0,0,0,1.021.1,1.325,1.325,0,0,0,1.5-1.493v-12Zm-3.9-3.008a1.63,1.63,0,0,1,.559-1.275,2.364,2.364,0,0,1,2.9,0,1.63,1.63,0,0,1,.559,1.275,1.63,1.63,0,0,1-.559,1.275,2.364,2.364,0,0,1-2.9,0A1.63,1.63,0,0,1,112.292,6.369Zm12.869,13.374a3.732,3.732,0,0,1-3.1,1.472,3.661,3.661,0,0,1-2.9-1.112,4.676,4.676,0,0,1-.983-3.2V9.377h3.62v7.552a1.3,1.3,0,0,0,1.45,1.493,1.892,1.892,0,0,0,1.772-.892V9.377h3.642V21h-3.395ZM137.193,21a4.088,4.088,0,0,1-.344-1.042,3.366,3.366,0,0,1-2.793,1.257,4.124,4.124,0,0,1-2.793-.994,3.163,3.163,0,0,1-1.149-2.5,3.251,3.251,0,0,1,1.4-2.857,7.114,7.114,0,0,1,4.061-.967h1.117v-.615q0-1.608-1.386-1.608a1.133,1.133,0,0,0-1.289,1.274h-3.62a3.245,3.245,0,0,1,1.434-2.736,6.027,6.027,0,0,1,3.658-1.051A5.284,5.284,0,0,1,139,10.247a3.772,3.772,0,0,1,1.321,2.976v5.146a5.269,5.269,0,0,0,.494,2.449V21Zm-2.267-2.363a2.019,2.019,0,0,0,1.123-.29,1.818,1.818,0,0,0,.639-.655V15.833h-1.053q-1.891,0-1.891,1.7a1.036,1.036,0,0,0,.333.8A1.205,1.205,0,0,0,134.926,18.637ZM141.9,15.1a7.848,7.848,0,0,1,.58-3.115A4.67,4.67,0,0,1,144.143,9.9a4.389,4.389,0,0,1,2.524-.736,3.49,3.49,0,0,1,2.836,1.225l.129-1.01h3.287V20.56a4.9,4.9,0,0,1-.714,2.669,4.584,4.584,0,0,1-2.068,1.74,7.6,7.6,0,0,1-3.137.607,6.557,6.557,0,0,1-2.476-.483,4.47,4.47,0,0,1-1.832-1.257l1.515-2.127a3.319,3.319,0,0,0,2.664,1.192,2.156,2.156,0,0,0,2.406-2.471v-.365a3.4,3.4,0,0,1-2.632,1.149,4.2,4.2,0,0,1-3.437-1.627,6.743,6.743,0,0,1-1.311-4.356Zm3.631.226a4.135,4.135,0,0,0,.537,2.261,1.7,1.7,0,0,0,1.5.833,1.923,1.923,0,0,0,1.708-.784V12.75a1.875,1.875,0,0,0-1.687-.795,1.706,1.706,0,0,0-1.515.865A4.715,4.715,0,0,0,145.529,15.328ZM161.9,19.743a3.732,3.732,0,0,1-3.1,1.472,3.661,3.661,0,0,1-2.9-1.112,4.676,4.676,0,0,1-.983-3.2V9.377h3.62v7.552a1.3,1.3,0,0,0,1.45,1.493,1.892,1.892,0,0,0,1.772-.892V9.377H165.4V21h-3.395Zm11.107,1.472a5.975,5.975,0,0,1-4.329-1.6,5.509,5.509,0,0,1-1.654-4.152v-.3a7.138,7.138,0,0,1,.661-3.147,4.834,4.834,0,0,1,1.928-2.111,5.821,5.821,0,0,1,3.008-.747,5.031,5.031,0,0,1,3.867,1.52,5.973,5.973,0,0,1,1.418,4.238v1.407h-7.2a2.609,2.609,0,0,0,.849,1.536,2.525,2.525,0,0,0,1.7.559,3.254,3.254,0,0,0,2.686-1.2l1.654,1.955a4.624,4.624,0,0,1-1.917,1.488A6.48,6.48,0,0,1,173.007,21.215Zm-.408-9.26q-1.59,0-1.891,2.105h3.652v-.279a1.793,1.793,0,0,0-.44-1.348A1.753,1.753,0,0,0,172.6,11.955Zm23.031,3.319a7.009,7.009,0,0,1-1.219,4.324,3.909,3.909,0,0,1-3.292,1.617,3.351,3.351,0,0,1-2.632-1.171v5.425h-3.62V9.377h3.384l.107,1.074A3.351,3.351,0,0,1,191.1,9.162a3.941,3.941,0,0,1,3.341,1.584A7.1,7.1,0,0,1,195.63,15.1Zm-3.62-.226q0-3.094-1.8-3.094a1.7,1.7,0,0,0-1.719.924v4.576a1.759,1.759,0,0,0,1.74.967q1.729,0,1.783-2.986Zm4.759.032a6.86,6.86,0,0,1,.677-3.1,4.84,4.84,0,0,1,1.944-2.089,5.856,5.856,0,0,1,2.976-.73,5.344,5.344,0,0,1,4.114,1.617,6.2,6.2,0,0,1,1.5,4.4v.129a6.019,6.019,0,0,1-1.509,4.313,5.359,5.359,0,0,1-4.087,1.6,5.42,5.42,0,0,1-3.985-1.488,5.819,5.819,0,0,1-1.622-4.034Zm3.62.226a4.325,4.325,0,0,0,.5,2.363,1.682,1.682,0,0,0,1.493.752q1.934,0,1.977-2.976v-.365q0-3.126-2-3.126-1.815,0-1.966,2.7Zm15.275,2.428a.836.836,0,0,0-.483-.741,7.353,7.353,0,0,0-1.837-.58,8.376,8.376,0,0,1-2.234-.79,3.743,3.743,0,0,1-1.343-1.187,2.835,2.835,0,0,1-.462-1.6,3.212,3.212,0,0,1,1.321-2.637,5.443,5.443,0,0,1,3.459-1.037,6.03,6.03,0,0,1,3.7,1.042,3.258,3.258,0,0,1,1.4,2.739h-3.631q0-1.4-1.472-1.4a1.459,1.459,0,0,0-.956.317.981.981,0,0,0-.387.79.9.9,0,0,0,.473.784,4.466,4.466,0,0,0,1.509.494,13.042,13.042,0,0,1,1.821.462q2.621.9,2.621,3.233a3.044,3.044,0,0,1-1.413,2.589,6.2,6.2,0,0,1-3.658,1,6.322,6.322,0,0,1-2.664-.537,4.455,4.455,0,0,1-1.826-1.461,3.308,3.308,0,0,1-.655-1.944h3.384a1.4,1.4,0,0,0,.537,1.176,2.209,2.209,0,0,0,1.321.371,1.738,1.738,0,0,0,1.112-.3A.962.962,0,0,0,215.665,17.734Zm9.4-11.247v2.89h1.912v2.514h-1.912v5.317a1.358,1.358,0,0,0,.236.913,1.268,1.268,0,0,0,.935.258,5.311,5.311,0,0,0,.9-.064V20.9a6.681,6.681,0,0,1-2.041.312,3.792,3.792,0,0,1-2.761-.881,3.61,3.61,0,0,1-.892-2.675V11.891h-1.482V9.377h1.482V6.487Zm8.959,14.728a5.975,5.975,0,0,1-4.329-1.6,5.509,5.509,0,0,1-1.654-4.152v-.3a7.138,7.138,0,0,1,.661-3.147,4.834,4.834,0,0,1,1.928-2.111,5.821,5.821,0,0,1,3.008-.747,5.031,5.031,0,0,1,3.867,1.52,5.973,5.973,0,0,1,1.418,4.238v1.407h-7.2a2.609,2.609,0,0,0,.849,1.536,2.525,2.525,0,0,0,1.7.559,3.254,3.254,0,0,0,2.686-1.2l1.654,1.955a4.624,4.624,0,0,1-1.917,1.488A6.48,6.48,0,0,1,234.023,21.215Zm-.408-9.26q-1.59,0-1.891,2.105h3.652v-.279a1.793,1.793,0,0,0-.44-1.348A1.753,1.753,0,0,0,233.615,11.955Zm13.793.7-1.192-.086a2.142,2.142,0,0,0-2.191,1.074V21H240.4V9.377H243.8l.118,1.493a2.8,2.8,0,0,1,2.546-1.708,3.53,3.53,0,0,1,1.01.129ZM252.532,21H248.9V9.377h3.631ZM248.686,6.369a1.63,1.63,0,0,1,.559-1.275,2.364,2.364,0,0,1,2.9,0,1.63,1.63,0,0,1,.559,1.275,1.63,1.63,0,0,1-.559,1.275,2.364,2.364,0,0,1-2.9,0A1.63,1.63,0,0,1,248.686,6.369Zm5.618,8.712a6.86,6.86,0,0,1,.677-3.1,4.84,4.84,0,0,1,1.944-2.089,5.856,5.856,0,0,1,2.976-.73,5.344,5.344,0,0,1,4.114,1.617,6.2,6.2,0,0,1,1.5,4.4v.129a6.019,6.019,0,0,1-1.509,4.313,5.359,5.359,0,0,1-4.087,1.6,5.42,5.42,0,0,1-3.985-1.488,5.819,5.819,0,0,1-1.622-4.034Zm3.62.226a4.325,4.325,0,0,0,.5,2.363,1.682,1.682,0,0,0,1.493.752q1.934,0,1.977-2.976v-.365q0-3.126-2-3.126-1.815,0-1.966,2.7Zm16.221-2.653-1.192-.086a2.142,2.142,0,0,0-2.191,1.074V21h-3.62V9.377h3.395l.118,1.493A2.8,2.8,0,0,1,273.2,9.162a3.53,3.53,0,0,1,1.01.129Z" transform="translate(12407 -8113)" fill="#12263f"/>
    <path id="Path_190305" data-name="Path 190305" d="M0,0H172V3H0Z" transform="translate(12501 -8141)" fill="#78b62e"/>
    <g id="Capa_2" data-name="Capa 2" transform="translate(12521 -8314.014)">
      <g id="Capa_1" data-name="Capa 1" transform="translate(0 0.013)">
        <path id="Path_190059" data-name="Path 190059" d="M216.61,719.44l6.934,87.829h10.323l3.983-12.41h15.6l7.571,12.41h8.975L260.5,719.44Zm11.9,5.066h23.87l1.51,8.614H229.727Z" transform="translate(-199.127 -661.374)" fill="#d49320"/>
        <path id="Path_190060" data-name="Path 190060" d="M17.111,719.44,0,807.269H8.975l7.571-12.41h15.6l3.985,12.41H46.452L61,719.44Zm30.77,13.681H23.72l1.51-8.614H49.1Z" transform="translate(0 -661.374)" fill="#fcc122"/>
        <path id="Path_190061" data-name="Path 190061" d="M89.539,753.54l-.383,2.7-1.22,8.613-.336,2.367H57.775l.567-3.228,1.51-8.614.322-1.84H56.752L40.61,835.864h4.153l6.767-11.091.8-1.319h19.15l.613,1.911,3.372,10.5h5.925L95.159,753.54Z" transform="translate(-37.332 -692.722)" fill="#fcc122"/>
        <path id="Path_190062" data-name="Path 190062" d="M81.393,835.845H75.468l-3.372-10.5-.613-1.911H52.333l-.807,1.319-6.764,11.091H40.61L56.752,753.52h3.421l-.323,1.84-1.51,8.615-.565,3.228H87.6l.337-2.368,1.218-8.614.383-2.7h5.62Z" transform="translate(-37.332 -692.704)" fill="#f8aa25"/>
        <path id="Path_190063" data-name="Path 190063" d="M43.746,1575.41,40.61,1591.4h4.153l6.767-11.091.8-1.319h19.15l.613,1.911,3.372,10.5h5.925l2.673-15.99Z" transform="translate(-37.332 -1448.258)" fill="#f18627"/>
        <path id="Path_190064" data-name="Path 190064" d="M255.84,729.038c0,.45-5.2.816-11.616.816s-11.614-.366-11.614-.816,5.2-.818,11.614-.818S255.84,728.585,255.84,729.038Z" transform="translate(-213.836 -669.445)" fill="#fed171"/>
        <path id="Path_190065" data-name="Path 190065" d="M543.116,729.038c0,.45-2.193.816-4.9.816s-4.9-.366-4.9-.816,2.192-.818,4.9-.818S543.116,728.585,543.116,729.038Z" transform="translate(-490.275 -669.445)" fill="#fed171"/>
        <path id="Path_190066" data-name="Path 190066" d="M321.45,1184.839a1.727,1.727,0,1,0-2.389-.5A1.728,1.728,0,0,0,321.45,1184.839Z" transform="translate(-293.051 -1086.292)" fill="#672b19"/>
        <path id="Path_190067" data-name="Path 190067" d="M314.794,1211.106a1.674,1.674,0,0,0-.333.207c-.323.192-2.44,1.589-2.44,1.589a.579.579,0,0,0-.214.253l-1.87,2.54a.573.573,0,0,0-.1.439.58.58,0,0,0,.229.386l2.595,1.908a.58.58,0,1,0,.688-.934l-2.134-1.568,1.453-1.977s4.49,6.877,4.515,6.9l-.143,3.411a.778.778,0,1,0,1.544.064l.148-3.575a1.046,1.046,0,0,0-.259-.69c-.014-.048-1.228-1.923-1.228-1.923l.854-.768,1.372.063.491,3.049a.779.779,0,1,0,1.526-.244l-.565-3.533a.852.852,0,0,0-.755-.747l-2.455-.154-2.283-3.5,2.645.555a.571.571,0,0,0,.408-.066l2.947-.734a.579.579,0,1,0-.28-1.123l-3.018.751-2.509-.523A1.688,1.688,0,0,0,314.794,1211.106Z" transform="translate(-284.819 -1113.182)" fill="#672b19"/>
        <path id="Path_190068" data-name="Path 190068" d="M188.488,1069.6l-13.819-28.3a.777.777,0,0,0-1.345,0l-18.878,28.338a.777.777,0,0,0,.673,1.165h32.724a.776.776,0,0,0,.646-1.211Zm-32.625-.081L174,1042.468l13.1,27.048Z" transform="translate(-141.884 -956.901)" fill="#672b19"/>
        <path id="Path_190069" data-name="Path 190069" d="M442.081,1373.157a.653.653,0,0,0,.423-.814.646.646,0,0,0-.807-.424l-1.757,1.222Z" transform="translate(-404.432 -1261.164)" fill="#672b19"/>
        <path id="Path_190070" data-name="Path 190070" d="M435.825,1354.548a.648.648,0,0,0-1.029-.786l-.726,2.013Z" transform="translate(-399.036 -1244.265)" fill="#672b19"/>
        <path id="Path_190071" data-name="Path 190071" d="M638.875,1322.99c0,3.53-8.929,6.392-19.942,6.392s-19.945-2.862-19.945-6.392c0,0-5.9-39.038-5.717-39.8,4.458-1.919,16.062-2.179,25.661-2.179,12.489,0,23.434.033,25.843,2.945C644.776,1283.951,638.875,1322.548,638.875,1322.99Z" transform="translate(-545.384 -1177.619)" fill="#cc3750"/>
        <path id="Path_190072" data-name="Path 190072" d="M632.38,1396.218l4.408,30.676c0,2.721,6.883,4.923,15.371,4.923C652.16,1431.82,645.493,1386.27,632.38,1396.218Z" transform="translate(-581.34 -1282.222)" fill="#e83c5b"/>
        <path id="Path_190073" data-name="Path 190073" d="M642.633,1291.456l1.147-7.514c-2.409-2.912-13.354-2.942-25.843-2.942-9.6,0-21.2.264-25.661,2.179-.054.219-.306-1.405.359,3.285C592.635,1286.465,630.247,1297.675,642.633,1291.456Z" transform="translate(-544.388 -1177.61)" fill="#b52b3a"/>
        <path id="Path_190074" data-name="Path 190074" d="M619.272,1285.94H616.6c.286,2.755.437,7.435.437,8.858,0,12.457-12.9,22.554-25.343,22.554s-25.35-10.1-25.35-22.554c0-1.423.153-6.1.438-8.858H564.1a28.366,28.366,0,1,0,55.17,0Z" transform="translate(-517.854 -1182.151)" fill="#fcc122"/>
        <path id="Path_190075" data-name="Path 190075" d="M577.2,1285.94c-.228,2.956-.352,6.88-.352,8.2,0,13.405,13.887,24.272,27.276,24.272s27.274-10.866,27.274-24.272c0-1.32-.123-5.246-.353-8.2h-2.014c.286,2.755.438,7.435.438,8.858,0,12.457-12.9,22.554-25.343,22.554s-25.35-10.1-25.35-22.554c0-1.423.152-6.1.438-8.858Z" transform="translate(-530.292 -1182.151)" fill="#f8aa25"/>
        <path id="Path_190076" data-name="Path 190076" d="M794.326,1630.809c0,.514,5.65,6.619-12.224,7.631-15.819,0-11.83-6.312-11.83-6.826s5.671-.135,12.28-.135S794.326,1630.3,794.326,1630.809Z" transform="translate(-707.69 -1499.067)" fill="#863825"/>
        <path id="Path_190077" data-name="Path 190077" d="M774.44,1633.626a3.172,3.172,0,0,1,2.68-1.473c1.687,0,3.067.839,3.169,2.5h.044c.215-1.547,1.539-2.26,3.148-2.26,1.664,0,3.028.807,3.166,2.431h.029c.136-1.629,1.5-2.437,3.164-2.437,1.475,0,2.716.536,3.072,1.9l.116-.018c.1-1.661,1.482-2.5,3.169-2.5a3.167,3.167,0,0,1,2.191.879c.4-.927-.739-1.764-.739-1.9,0-.309-5.036.4-11.481.4s-11.974-.228-11.974.081A1.646,1.646,0,0,0,774.44,1633.626Z" transform="translate(-711.307 -1499.055)" fill="#672b19"/>
        <path id="Path_190078" data-name="Path 190078" d="M607.2,1216.337c0,3.529-13.1,6.392-29.251,6.392s-29.25-2.863-29.25-6.392a44.834,44.834,0,0,1,.207-4.868c5.046-1.921,18.18-2.179,29.043-2.179,14.135,0,26.522.031,29.251,2.944Z" transform="translate(-504.414 -1111.688)" fill="#e83c5b"/>
        <path id="Path_190079" data-name="Path 190079" d="M607.2,1159.238c0,3.846-13.1,6.966-29.251,6.966s-29.25-3.12-29.25-6.966,13.1-6.968,29.25-6.968S607.2,1155.388,607.2,1159.238Z" transform="translate(-504.414 -1059.27)" fill="#d33853"/>
        <path id="Path_190080" data-name="Path 190080" d="M640.073,1172.23c0,3.148-11.68,5.7-26.087,5.7s-26.086-2.551-26.086-5.7,11.678-5.7,26.086-5.7S640.073,1169.081,640.073,1172.23Z" transform="translate(-540.45 -1072.379)" fill="#b52b3a"/>
        <path id="Path_190081" data-name="Path 190081" d="M652.667,1188.669c0,2.766-11.138,5.009-24.874,5.009s-24.874-2.242-24.874-5.009,11.138-5.009,24.874-5.009S652.667,1185.9,652.667,1188.669Z" transform="translate(-554.258 -1088.126)" fill="#73c7cf"/>
        <path id="Path_190082" data-name="Path 190082" d="M636.57,1215.676c-16.086,0-29.125-2.625-29.125-5.865a1.465,1.465,0,0,1,.329-.88c-3.043.83-4.843,1.856-4.843,2.969,0,2.766,11.138,5.009,24.874,5.009a92.478,92.478,0,0,0,17.864-1.526C642.807,1215.572,639.748,1215.676,636.57,1215.676Z" transform="translate(-554.267 -1111.357)" fill="#64aab2"/>
        <path id="Path_190083" data-name="Path 190083" d="M861.654,1192a74.8,74.8,0,0,0-8.394.448c1.5-.087,3.072-.135,4.7-.135,9.363,0,16.959,1.534,16.959,3.417,0,1.27-3.45,2.378-8.563,2.966,7.074-.41,12.253-1.724,12.253-3.28C878.613,1193.53,871.021,1192,861.654,1192Z" transform="translate(-784.392 -1095.789)" fill="#a5d8e0"/>
        <path id="Path_190084" data-name="Path 190084" d="M868.387,1193.194a1.192,1.192,0,1,1-.348-.844A1.194,1.194,0,0,1,868.387,1193.194Z" transform="translate(-796.104 -1095.793)" fill="#c5e5eb"/>
        <path id="Path_190085" data-name="Path 190085" d="M868.712,1195.128c.145.232-.094.64-.533.913s-.91.307-1.056.081.1-.639.533-.915S868.568,1194.9,868.712,1195.128Z" transform="translate(-797.098 -1098.528)" fill="#e3f1ed"/>
        <path id="Path_190086" data-name="Path 190086" d="M913.587,1173.2a1.193,1.193,0,1,1-.348-.846A1.193,1.193,0,0,1,913.587,1173.2Z" transform="translate(-837.656 -1077.407)" fill="#c5e5eb"/>
        <path id="Path_190087" data-name="Path 190087" d="M913.923,1175.163c.144.231-.094.64-.533.914s-.912.308-1.056.081.1-.641.534-.914S913.779,1174.929,913.923,1175.163Z" transform="translate(-838.66 -1080.175)" fill="#e3f1ed"/>
        <path id="Path_190088" data-name="Path 190088" d="M954.346,1239.793a1.193,1.193,0,1,1-1.194-1.193A1.193,1.193,0,0,1,954.346,1239.793Z" transform="translate(-875.126 -1138.632)" fill="#c5e5eb"/>
        <path id="Path_190089" data-name="Path 190089" d="M954.669,1241.708c.144.232-.1.64-.532.914s-.912.307-1.057.081.1-.64.533-.914S954.525,1241.478,954.669,1241.708Z" transform="translate(-876.118 -1141.35)" fill="#e3f1ed"/>
        <path id="Path_190090" data-name="Path 190090" d="M1059,1212.232a1.194,1.194,0,1,1-1.193-1.192A1.194,1.194,0,0,1,1059,1212.232Z" transform="translate(-971.33 -1113.297)" fill="#c5e5eb"/>
        <path id="Path_190091" data-name="Path 190091" d="M1059.329,1214.155c.144.232-.094.641-.533.914s-.911.308-1.055.081.1-.641.533-.914S1059.185,1213.922,1059.329,1214.155Z" transform="translate(-972.331 -1116.021)" fill="#e3f1ed"/>
        <path id="Path_190092" data-name="Path 190092" d="M1098.936,1178.4a1.192,1.192,0,1,1-.349-.844A1.193,1.193,0,0,1,1098.936,1178.4Z" transform="translate(-1008.046 -1082.197)" fill="#c5e5eb"/>
        <path id="Path_190093" data-name="Path 190093" d="M1099.266,1180.345c.143.231-.095.639-.535.914s-.909.307-1.054.075.1-.64.533-.913S1099.121,1180.115,1099.266,1180.345Z" transform="translate(-1009.043 -1084.939)" fill="#e3f1ed"/>
        <path id="Path_190094" data-name="Path 190094" d="M1021.607,1255.553a1.194,1.194,0,1,1-1.193-1.193,1.194,1.194,0,0,1,1.193,1.193Z" transform="translate(-936.957 -1153.12)" fill="#c5e5eb"/>
        <path id="Path_190095" data-name="Path 190095" d="M1021.931,1257.466c.144.231-.1.646-.533.914s-.911.307-1.056.076.1-.64.534-.914S1021.786,1257.235,1021.931,1257.466Z" transform="translate(-937.95 -1155.835)" fill="#e3f1ed"/>
        <path id="Path_190096" data-name="Path 190096" d="M1116.779,1264.522c-.067.408-.646.655-1.3.55s-1.124-.522-1.059-.931.646-.655,1.3-.55S1116.846,1264.113,1116.779,1264.522Z" transform="translate(-1024.471 -1161.584)" fill="#c5e5eb"/>
        <path id="Path_190097" data-name="Path 190097" d="M1117.195,1265.947c.119.167-.161.383-.619.484s-.93.046-1.049-.121.161-.381.617-.484S1117.073,1265.781,1117.195,1265.947Z" transform="translate(-1025.466 -1163.613)" fill="#e3f1ed"/>
        <path id="Path_190098" data-name="Path 190098" d="M1127.046,1255.819c0,.414-.533.75-1.192.75s-1.194-.336-1.194-.75.535-.749,1.194-.749S1127.046,1255.406,1127.046,1255.819Z" transform="translate(-1033.887 -1153.773)" fill="#c5e5eb"/>
        <path id="Path_190099" data-name="Path 190099" d="M1127.377,1257.034c.144.145-.095.4-.534.574s-.909.193-1.054.048.094-.4.533-.573S1127.233,1256.888,1127.377,1257.034Z" transform="translate(-1034.886 -1155.49)" fill="#e3f1ed"/>
        <path id="Path_190100" data-name="Path 190100" d="M1147.817,1260.609c0,.414-.534.75-1.193.75s-1.194-.336-1.194-.75.533-.749,1.194-.749S1147.817,1260.194,1147.817,1260.609Z" transform="translate(-1052.981 -1158.176)" fill="#c5e5eb"/>
        <path id="Path_190101" data-name="Path 190101" d="M1148.135,1261.807c.144.146-.1.4-.534.575s-.91.193-1.055.048.094-.4.533-.575S1147.99,1261.663,1148.135,1261.807Z" transform="translate(-1053.968 -1159.878)" fill="#e3f1ed"/>
        <path id="Path_190102" data-name="Path 190102" d="M1154.986,1246.53c0,.414-.536.749-1.193.749s-1.193-.335-1.193-.749.534-.75,1.193-.75S1154.986,1246.115,1154.986,1246.53Z" transform="translate(-1059.572 -1145.232)" fill="#c5e5eb"/>
        <path id="Path_190103" data-name="Path 190103" d="M1155.313,1247.729c.144.145-.094.4-.533.574s-.911.194-1.054.048.094-.4.533-.574S1155.169,1247.581,1155.313,1247.729Z" transform="translate(-1060.569 -1146.936)" fill="#e3f1ed"/>
        <path id="Path_190104" data-name="Path 190104" d="M1181.056,1244.831c0,.413-.533.749-1.194.749s-1.192-.336-1.192-.749.533-.751,1.192-.751S1181.056,1244.416,1181.056,1244.831Z" transform="translate(-1083.538 -1143.67)" fill="#c5e5eb"/>
        <path id="Path_190105" data-name="Path 190105" d="M1181.441,1246.04c.143.146-.1.4-.534.574s-.91.193-1.054.047.094-.4.533-.574S1181.292,1245.9,1181.441,1246.04Z" transform="translate(-1084.588 -1145.384)" fill="#e3f1ed"/>
        <path id="Path_190106" data-name="Path 190106" d="M1088.576,1233c0,.414-.534.75-1.193.75s-1.193-.336-1.193-.75.533-.75,1.193-.75S1088.576,1232.587,1088.576,1233Z" transform="translate(-998.522 -1132.795)" fill="#c5e5eb"/>
        <path id="Path_190107" data-name="Path 190107" d="M1088.9,1234.206c.144.145-.094.4-.533.574s-.912.194-1.055.048.094-.4.532-.575S1088.761,1234.06,1088.9,1234.206Z" transform="translate(-999.52 -1134.504)" fill="#e3f1ed"/>
        <path id="Path_190108" data-name="Path 190108" d="M1018.276,1224.951c0,.414-.535.749-1.193.749s-1.193-.335-1.193-.749.534-.751,1.193-.751S1018.276,1224.535,1018.276,1224.951Z" transform="translate(-933.896 -1125.394)" fill="#c5e5eb"/>
        <path id="Path_190109" data-name="Path 190109" d="M1018.6,1226.167c.144.145-.093.4-.533.573s-.91.194-1.054.049.094-.4.533-.574S1018.457,1226.023,1018.6,1226.167Z" transform="translate(-934.89 -1127.115)" fill="#e3f1ed"/>
        <path id="Path_190110" data-name="Path 190110" d="M1063.436,1125.9a1.193,1.193,0,1,1-1.194-1.193A1.193,1.193,0,0,1,1063.436,1125.9Z" transform="translate(-975.411 -1033.934)" fill="#c5e5eb"/>
        <path id="Path_190111" data-name="Path 190111" d="M1063.77,1127.8c.144.232-.094.646-.532.915s-.911.307-1.055.076.095-.639.533-.914S1063.626,1127.573,1063.77,1127.8Z" transform="translate(-976.415 -1036.637)" fill="#e3f1ed"/>
        <path id="Path_190112" data-name="Path 190112" d="M1120.036,1111.1a1.192,1.192,0,1,1-.349-.845A1.193,1.193,0,0,1,1120.036,1111.1Z" transform="translate(-1027.443 -1020.329)" fill="#c5e5eb"/>
        <path id="Path_190113" data-name="Path 190113" d="M1120.344,1113.019c.144.232-.1.64-.533.914s-.91.307-1.057.076.1-.64.534-.915S1120.2,1112.788,1120.344,1113.019Z" transform="translate(-1028.419 -1023.046)" fill="#e3f1ed"/>
        <path id="Path_190114" data-name="Path 190114" d="M935.456,1215.958a.858.858,0,1,1-.857-.858A.858.858,0,0,1,935.456,1215.958Z" transform="translate(-858.377 -1117.029)" fill="#c5e5eb"/>
        <path id="Path_190115" data-name="Path 190115" d="M935.658,1217.327c.1.166-.067.461-.383.658s-.655.221-.759.054.068-.459.383-.656S935.555,1217.162,935.658,1217.327Z" transform="translate(-859.063 -1118.976)" fill="#e3f1ed"/>
        <path id="Path_190116" data-name="Path 190116" d="M961.347,1152.934a1.194,1.194,0,1,1-1.193-1.194A1.194,1.194,0,0,1,961.347,1152.934Z" transform="translate(-881.561 -1058.783)" fill="#c5e5eb"/>
        <path id="Path_190117" data-name="Path 190117" d="M961.758,1154.849c.145.231-.094.64-.533.914s-.909.307-1.049.077.094-.641.531-.914S961.615,1154.617,961.758,1154.849Z" transform="translate(-882.642 -1061.499)" fill="#e3f1ed"/>
        <path id="Path_190118" data-name="Path 190118" d="M1006.807,1129.683a1.194,1.194,0,1,1-1.193-1.193,1.194,1.194,0,0,1,1.193,1.193Z" transform="translate(-923.352 -1037.409)" fill="#c5e5eb"/>
        <path id="Path_190119" data-name="Path 190119" d="M1007.161,1131.595c.144.231-.094.64-.534.913s-.91.308-1.053.076.094-.64.533-.913S1007.016,1131.363,1007.161,1131.595Z" transform="translate(-924.374 -1040.122)" fill="#e3f1ed"/>
        <path id="Path_190120" data-name="Path 190120" d="M1151.157,1197.4a1.193,1.193,0,1,1-.349-.844A1.194,1.194,0,0,1,1151.157,1197.4Z" transform="translate(-1056.051 -1099.663)" fill="#c5e5eb"/>
        <path id="Path_190121" data-name="Path 190121" d="M1151.449,1199.378c.145.231-.094.64-.533.914s-.91.307-1.054.081.094-.641.533-.914S1151.309,1199.146,1151.449,1199.378Z" transform="translate(-1057.017 -1102.436)" fill="#e3f1ed"/>
        <path id="Path_190122" data-name="Path 190122" d="M1165.946,1133.914a1.193,1.193,0,1,1-1.192-1.195A1.193,1.193,0,0,1,1165.946,1133.914Z" transform="translate(-1069.648 -1041.298)" fill="#c5e5eb"/>
        <path id="Path_190123" data-name="Path 190123" d="M1166.276,1135.838c.144.232-.094.639-.533.914s-.91.306-1.054.075.094-.639.532-.914S1166.132,1135.605,1166.276,1135.838Z" transform="translate(-1070.647 -1044.022)" fill="#e3f1ed"/>
        <path id="Path_190124" data-name="Path 190124" d="M1073.826,1081.533a1.192,1.192,0,1,1-.349-.844A1.193,1.193,0,0,1,1073.826,1081.533Z" transform="translate(-984.963 -993.145)" fill="#c5e5eb"/>
        <path id="Path_190125" data-name="Path 190125" d="M1074.12,1083.454c.143.231-.094.639-.531.914s-.912.306-1.056.075.094-.64.533-.914S1073.976,1083.222,1074.12,1083.454Z" transform="translate(-985.929 -995.866)" fill="#e3f1ed"/>
        <path id="Path_190126" data-name="Path 190126" d="M1184.4,1203.642a1.193,1.193,0,1,1-1.193-1.192A1.193,1.193,0,0,1,1184.4,1203.642Z" transform="translate(-1086.608 -1105.4)" fill="#c5e5eb"/>
        <path id="Path_190127" data-name="Path 190127" d="M1184.729,1205.552c.145.231-.094.64-.533.914s-.911.308-1.054.076.094-.64.532-.914S1184.586,1205.322,1184.729,1205.552Z" transform="translate(-1087.611 -1108.111)" fill="#e3f1ed"/>
        <path id="Path_190128" data-name="Path 190128" d="M1147.807,1227a1.194,1.194,0,1,1-1.193-1.194A1.194,1.194,0,0,1,1147.807,1227Z" transform="translate(-1052.972 -1126.874)" fill="#c5e5eb"/>
        <path id="Path_190129" data-name="Path 190129" d="M1148.135,1228.94c.144.231-.1.639-.534.912s-.91.308-1.055.081.094-.64.533-.913S1147.99,1228.708,1148.135,1228.94Z" transform="translate(-1053.968 -1129.612)" fill="#e3f1ed"/>
        <path id="Path_190130" data-name="Path 190130" d="M790.289.131a2.457,2.457,0,1,0,3.087,1.586A2.457,2.457,0,0,0,790.289.131Zm1.226,3.807a1.542,1.542,0,1,1,.9-.764A1.543,1.543,0,0,1,791.515,3.938Z" transform="translate(-724.933 -0.013)" fill="#7e1e25"/>
        <path id="Path_190131" data-name="Path 190131" d="M845.388,165.373l-3.761,1.212L801.85,43.051l3.762-1.211Z" transform="translate(-737.132 -38.464)" fill="#c1c0c1"/>
        <path id="Path_190132" data-name="Path 190132" d="M875.651,165.373l-1.1.358L834.77,42.194l1.1-.354Z" transform="translate(-767.395 -38.464)" fill="#f7f6f7"/>
        <rect id="Rectangle_40097" data-name="Rectangle 40097" width="1.213" height="129.78" transform="translate(64.694 4.597) rotate(-17.87)" fill="#989899"/>
        <path id="Path_190133" data-name="Path 190133" d="M1091.663,1593.906l-4.423-13.734,40.753-13.122,4.421,13.735Z" transform="translate(-999.488 -1440.573)" fill="#24636d"/>
        <path id="Path_190134" data-name="Path 190134" d="M1089.052,1585.776l-4.422-13.734,40.751-13.122,4.422,13.736Z" transform="translate(-997.088 -1433.098)" fill="#00828f"/>
        <path id="Path_190135" data-name="Path 190135" d="M1086.586,1577.138l-1.666-5.177,40.75-13.121,1.667,5.177Z" transform="translate(-997.355 -1433.025)" fill="#d0595c"/>
        <path id="Path_190136" data-name="Path 190136" d="M1100.412,1620.06l-.452-1.408,40.75-13.121.453,1.408Z" transform="translate(-1011.181 -1475.947)" fill="#b52b3a"/>
        <path id="Path_190137" data-name="Path 190137" d="M1134.7,1565.34c.14.433-8.232,4.52-19.028,8s-19.949,4.719-20.088,4.286,8.313-2.637,19.112-6.114S1134.559,1564.907,1134.7,1565.34Z" transform="translate(-1007.153 -1438.964)" fill="#b52b3a"/>
        <path id="Path_190138" data-name="Path 190138" d="M1267.093,1596.8l-12.371,3.984-1.282-3.978,12.371-3.984Z" transform="translate(-1152.273 -1464.262)" fill="#e83c5b"/>
        <rect id="Rectangle_40098" data-name="Rectangle 40098" width="12.997" height="2.261" transform="translate(102.029 133.76) rotate(-18.072)" fill="#cc3750"/>
        <path id="Path_190139" data-name="Path 190139" d="M1281.192,1602.458l-7.119,2.294a1.508,1.508,0,0,0-.974,1.9l9.992-3.218A1.51,1.51,0,0,0,1281.192,1602.458Z" transform="translate(-1170.279 -1473.055)" fill="#b52b3a"/>
        <rect id="Rectangle_40099" data-name="Rectangle 40099" width="6.374" height="3.421" transform="matrix(0.952, -0.307, 0.307, 0.952, 103.271, 128.267)" fill="#b52b3a"/>
        <path id="Path_190140" data-name="Path 190140" d="M797.918,40.3l-5.344,1.722-.524-1.63L797.4,38.67Z" transform="translate(-728.123 -35.55)" fill="#b52b3a"/>
      </g>
    </g>
  </g>
</svg>
