<svg xmlns="http://www.w3.org/2000/svg" xmlns:xlink="http://www.w3.org/1999/xlink" width="295" height="290" viewBox="0 0 295 290">
  <defs>
    <filter id="Ellipse_5186" x="76" y="37" width="143" height="143" filterUnits="userSpaceOnUse">
      <feOffset dy="3" input="SourceAlpha"/>
      <feGaussianBlur stdDeviation="3" result="blur"/>
      <feFlood flood-opacity="0.161"/>
      <feComposite operator="in" in2="blur"/>
      <feComposite in="SourceGraphic"/>
    </filter>
  </defs>
  <g id="t5-g1" transform="translate(-10310 4867)">
    <rect id="Rectangle_40151" data-name="Rectangle 40151" width="295" height="290" rx="20" transform="translate(10310 -4867)" fill="#faf4dc"/>
    <path id="Path_190321" data-name="Path 190321" d="M35.519,15.468H33.478V21H29.707V5.359h6.155a6.87,6.87,0,0,1,4.351,1.234,4.181,4.181,0,0,1,1.568,3.488,5.078,5.078,0,0,1-.661,2.7,4.689,4.689,0,0,1-2.068,1.738l3.266,6.315V21H38.279Zm-2.041-2.9h2.385A2.141,2.141,0,0,0,37.479,12a2.186,2.186,0,0,0,.542-1.578,2.211,2.211,0,0,0-.548-1.588,2.121,2.121,0,0,0-1.611-.576H33.478Zm16.038,8.647a5.975,5.975,0,0,1-4.329-1.6,5.509,5.509,0,0,1-1.654-4.152v-.3a7.138,7.138,0,0,1,.661-3.147,4.834,4.834,0,0,1,1.928-2.111,5.821,5.821,0,0,1,3.008-.747A5.031,5.031,0,0,1,53,10.682a5.973,5.973,0,0,1,1.418,4.238v1.407h-7.2a2.609,2.609,0,0,0,.849,1.536,2.525,2.525,0,0,0,1.7.559,3.254,3.254,0,0,0,2.686-1.2L54.1,19.174a4.624,4.624,0,0,1-1.917,1.488A6.48,6.48,0,0,1,49.516,21.215Zm-.408-9.26q-1.59,0-1.891,2.105h3.652v-.279a1.793,1.793,0,0,0-.44-1.348A1.753,1.753,0,0,0,49.107,11.955Zm12.848,5.779a.836.836,0,0,0-.483-.741,7.353,7.353,0,0,0-1.837-.58,8.376,8.376,0,0,1-2.234-.79,3.743,3.743,0,0,1-1.343-1.187,2.835,2.835,0,0,1-.462-1.6A3.212,3.212,0,0,1,56.917,10.2a5.443,5.443,0,0,1,3.459-1.037,6.03,6.03,0,0,1,3.7,1.042,3.258,3.258,0,0,1,1.4,2.739H61.837q0-1.4-1.472-1.4a1.459,1.459,0,0,0-.956.317.981.981,0,0,0-.387.79.9.9,0,0,0,.473.784A4.466,4.466,0,0,0,61,13.932a13.042,13.042,0,0,1,1.821.462q2.621.9,2.621,3.233a3.044,3.044,0,0,1-1.413,2.589,6.2,6.2,0,0,1-3.658,1,6.322,6.322,0,0,1-2.664-.537,4.455,4.455,0,0,1-1.826-1.461,3.308,3.308,0,0,1-.655-1.944h3.384a1.4,1.4,0,0,0,.537,1.176,2.209,2.209,0,0,0,1.321.371,1.738,1.738,0,0,0,1.112-.3A.962.962,0,0,0,61.955,17.734Zm9,3.266H67.326V9.377h3.631ZM67.111,6.369a1.63,1.63,0,0,1,.559-1.275,2.364,2.364,0,0,1,2.9,0,1.63,1.63,0,0,1,.559,1.275,1.63,1.63,0,0,1-.559,1.275,2.364,2.364,0,0,1-2.9,0A1.63,1.63,0,0,1,67.111,6.369ZM72.729,15.1a7.1,7.1,0,0,1,1.192-4.351,3.925,3.925,0,0,1,3.33-1.59,3.338,3.338,0,0,1,2.621,1.225V4.5H83.5V21H80.249l-.183-1.246a3.428,3.428,0,0,1-2.836,1.461,3.918,3.918,0,0,1-3.287-1.59A7.325,7.325,0,0,1,72.729,15.1Zm3.62.226q0,3.094,1.8,3.094a1.782,1.782,0,0,0,1.719-1.01V12.986a1.734,1.734,0,0,0-1.7-1.031q-1.676,0-1.815,2.707Zm16.135,4.415a3.732,3.732,0,0,1-3.1,1.472,3.661,3.661,0,0,1-2.9-1.112,4.676,4.676,0,0,1-.983-3.2V9.377h3.62v7.552a1.3,1.3,0,0,0,1.45,1.493,1.892,1.892,0,0,0,1.772-.892V9.377h3.642V21H92.592Zm5.027-4.662a6.86,6.86,0,0,1,.677-3.1,4.84,4.84,0,0,1,1.944-2.089,5.856,5.856,0,0,1,2.976-.73,5.344,5.344,0,0,1,4.114,1.617,6.2,6.2,0,0,1,1.5,4.4v.129a6.019,6.019,0,0,1-1.509,4.313,5.359,5.359,0,0,1-4.087,1.6,5.42,5.42,0,0,1-3.985-1.488,5.819,5.819,0,0,1-1.622-4.034Zm3.62.226a4.325,4.325,0,0,0,.5,2.363,1.682,1.682,0,0,0,1.493.752q1.934,0,1.977-2.976v-.365q0-3.126-2-3.126-1.815,0-1.966,2.7Zm15.275,2.428a.836.836,0,0,0-.483-.741,7.353,7.353,0,0,0-1.837-.58,8.376,8.376,0,0,1-2.234-.79,3.743,3.743,0,0,1-1.343-1.187,2.834,2.834,0,0,1-.462-1.6,3.212,3.212,0,0,1,1.321-2.637,5.443,5.443,0,0,1,3.459-1.037,6.03,6.03,0,0,1,3.7,1.042,3.258,3.258,0,0,1,1.4,2.739h-3.631q0-1.4-1.472-1.4a1.459,1.459,0,0,0-.956.317.981.981,0,0,0-.387.79.9.9,0,0,0,.473.784,4.466,4.466,0,0,0,1.509.494,13.043,13.043,0,0,1,1.821.462q2.621.9,2.621,3.233a3.044,3.044,0,0,1-1.413,2.589,6.2,6.2,0,0,1-3.658,1,6.322,6.322,0,0,1-2.664-.537,4.455,4.455,0,0,1-1.826-1.461,3.308,3.308,0,0,1-.655-1.944h3.384a1.4,1.4,0,0,0,.537,1.176,2.209,2.209,0,0,0,1.321.371,1.738,1.738,0,0,0,1.112-.3A.962.962,0,0,0,116.407,17.734ZM134.1,12.653l-1.192-.086a2.142,2.142,0,0,0-2.191,1.074V21H127.1V9.377h3.395l.118,1.493a2.8,2.8,0,0,1,2.546-1.708,3.53,3.53,0,0,1,1.01.129Zm6.725,8.562a5.975,5.975,0,0,1-4.329-1.6,5.509,5.509,0,0,1-1.654-4.152v-.3a7.138,7.138,0,0,1,.661-3.147,4.834,4.834,0,0,1,1.928-2.111,5.821,5.821,0,0,1,3.008-.747,5.031,5.031,0,0,1,3.867,1.52,5.973,5.973,0,0,1,1.418,4.238v1.407h-7.2a2.609,2.609,0,0,0,.849,1.536,2.525,2.525,0,0,0,1.7.559,3.254,3.254,0,0,0,2.686-1.2l1.654,1.955a4.624,4.624,0,0,1-1.917,1.488A6.48,6.48,0,0,1,140.824,21.215Zm-.408-9.26q-1.59,0-1.891,2.105h3.652v-.279a1.793,1.793,0,0,0-.44-1.348A1.753,1.753,0,0,0,140.416,11.955Zm11.677,6.467a1.61,1.61,0,0,0,1.182-.414,1.517,1.517,0,0,0,.408-1.155h3.395a4.018,4.018,0,0,1-1.37,3.137,5.1,5.1,0,0,1-3.529,1.225,5.158,5.158,0,0,1-4-1.59,6.264,6.264,0,0,1-1.461-4.4v-.15a7.08,7.08,0,0,1,.65-3.11,4.732,4.732,0,0,1,1.875-2.073,5.589,5.589,0,0,1,2.9-.725,5.03,5.03,0,0,1,3.6,1.257,4.458,4.458,0,0,1,1.332,3.405h-3.395a1.987,1.987,0,0,0-.44-1.386,1.52,1.52,0,0,0-1.182-.483q-1.407,0-1.644,1.794a12.659,12.659,0,0,0-.075,1.568,4.972,4.972,0,0,0,.419,2.428A1.45,1.45,0,0,0,152.093,18.422ZM162.427,21H158.8V9.377h3.631ZM158.581,6.369a1.63,1.63,0,0,1,.559-1.275,2.364,2.364,0,0,1,2.9,0,1.63,1.63,0,0,1,.559,1.275,1.63,1.63,0,0,1-.559,1.275,2.364,2.364,0,0,1-2.9,0A1.63,1.63,0,0,1,158.581,6.369ZM169.57,18.422a1.61,1.61,0,0,0,1.182-.414,1.517,1.517,0,0,0,.408-1.155h3.395a4.018,4.018,0,0,1-1.37,3.137,5.1,5.1,0,0,1-3.529,1.225,5.158,5.158,0,0,1-4-1.59,6.264,6.264,0,0,1-1.461-4.4v-.15a7.08,7.08,0,0,1,.65-3.11,4.732,4.732,0,0,1,1.875-2.073,5.589,5.589,0,0,1,2.9-.725,5.03,5.03,0,0,1,3.6,1.257,4.458,4.458,0,0,1,1.332,3.405H171.16a1.987,1.987,0,0,0-.44-1.386,1.52,1.52,0,0,0-1.182-.483q-1.407,0-1.644,1.794a12.659,12.659,0,0,0-.075,1.568,4.972,4.972,0,0,0,.419,2.428A1.45,1.45,0,0,0,169.57,18.422ZM179.9,21h-3.631V4.5H179.9Zm8.776,0a4.088,4.088,0,0,1-.344-1.042,3.366,3.366,0,0,1-2.793,1.257,4.124,4.124,0,0,1-2.793-.994,3.163,3.163,0,0,1-1.149-2.5,3.251,3.251,0,0,1,1.4-2.857,7.114,7.114,0,0,1,4.061-.967h1.117v-.615q0-1.608-1.386-1.608A1.133,1.133,0,0,0,185.5,12.95h-3.62a3.245,3.245,0,0,1,1.434-2.736,6.027,6.027,0,0,1,3.658-1.051,5.284,5.284,0,0,1,3.513,1.085,3.772,3.772,0,0,1,1.321,2.976v5.146a5.269,5.269,0,0,0,.494,2.449V21Zm-2.267-2.363a2.019,2.019,0,0,0,1.123-.29,1.818,1.818,0,0,0,.639-.655V15.833h-1.053q-1.891,0-1.891,1.7a1.036,1.036,0,0,0,.333.8A1.205,1.205,0,0,0,186.414,18.637ZM204.6,15.285a7.084,7.084,0,0,1-1.182,4.394,3.958,3.958,0,0,1-3.33,1.536,3.435,3.435,0,0,1-2.857-1.407L197.081,21h-3.244V4.5h3.62v5.812a3.314,3.314,0,0,1,2.61-1.149,3.959,3.959,0,0,1,3.352,1.558A7.121,7.121,0,0,1,204.6,15.1Zm-3.631-.231a4.725,4.725,0,0,0-.446-2.386,1.5,1.5,0,0,0-1.37-.713,1.733,1.733,0,0,0-1.7.933V17.5a1.743,1.743,0,0,0,1.719.922,1.537,1.537,0,0,0,1.622-1.244A8.934,8.934,0,0,0,200.97,15.054ZM210.015,21h-3.631V4.5h3.631Zm7.853.215a5.975,5.975,0,0,1-4.329-1.6,5.509,5.509,0,0,1-1.654-4.152v-.3a7.138,7.138,0,0,1,.661-3.147,4.834,4.834,0,0,1,1.928-2.111,5.821,5.821,0,0,1,3.008-.747,5.031,5.031,0,0,1,3.867,1.52,5.973,5.973,0,0,1,1.418,4.238v1.407h-7.2a2.609,2.609,0,0,0,.849,1.536,2.525,2.525,0,0,0,1.7.559,3.254,3.254,0,0,0,2.686-1.2l1.654,1.955a4.624,4.624,0,0,1-1.917,1.488A6.48,6.48,0,0,1,217.867,21.215Zm-.408-9.26q-1.59,0-1.891,2.105h3.652v-.279a1.793,1.793,0,0,0-.44-1.348A1.753,1.753,0,0,0,217.459,11.955Zm12.848,5.779a.836.836,0,0,0-.483-.741,7.353,7.353,0,0,0-1.837-.58,8.376,8.376,0,0,1-2.234-.79,3.743,3.743,0,0,1-1.343-1.187,2.835,2.835,0,0,1-.462-1.6,3.212,3.212,0,0,1,1.321-2.637,5.443,5.443,0,0,1,3.459-1.037,6.03,6.03,0,0,1,3.7,1.042,3.258,3.258,0,0,1,1.4,2.739h-3.631q0-1.4-1.472-1.4a1.459,1.459,0,0,0-.956.317.981.981,0,0,0-.387.79.9.9,0,0,0,.473.784,4.466,4.466,0,0,0,1.509.494,13.042,13.042,0,0,1,1.821.462q2.621.9,2.621,3.233a3.044,3.044,0,0,1-1.413,2.589,6.2,6.2,0,0,1-3.658,1,6.322,6.322,0,0,1-2.664-.537,4.455,4.455,0,0,1-1.826-1.461,3.308,3.308,0,0,1-.655-1.944h3.384a1.4,1.4,0,0,0,.537,1.176,2.209,2.209,0,0,0,1.321.371,1.738,1.738,0,0,0,1.112-.3A.962.962,0,0,0,230.307,17.734Z" transform="translate(10326 -4646)" fill="#12263f"/>
    <g transform="matrix(1, 0, 0, 1, 10310, -4867)" filter="url(#Ellipse_5186)">
      <circle id="Ellipse_5186-2" data-name="Ellipse 5186" cx="62.5" cy="62.5" r="62.5" transform="translate(85 43)" fill="#fff"/>
    </g>
    <path id="Path_190317" data-name="Path 190317" d="M0,0H172V3H0Z" transform="translate(10372 -4674)" fill="#ffb500"/>
    <g id="Group_108223" data-name="Group 108223" transform="translate(-181 937)">
      <g id="Group_107942" data-name="Group 107942" transform="translate(10600 -5736)">
        <g id="reciclar" transform="translate(0 0)">
          <g id="_cdf09cff" data-name="#cdf09cff" transform="translate(8.615 0.017)">
            <path id="Path_188281" data-name="Path 188281" d="M118.022,6.307a44.441,44.441,0,0,1,5.232-.177c3.168,0,6.338-.036,9.506-.01l-.112.009c-4.317.107-8.64,0-12.959.08a10.751,10.751,0,0,0,.932,1.629q2.966,4.835,5.951,9.66-3.821,6.683-7.638,13.365a2.6,2.6,0,0,1-3.441,1q-5.238-2.936-10.475-5.877A2.592,2.592,0,0,1,104,22.594c1.782-3.183,3.594-6.35,5.387-9.527a20.293,20.293,0,0,1,1.736-2.781A10.933,10.933,0,0,1,118.022,6.307Z" transform="translate(-96.777 -6.111)" fill="#e5f2d5"/>
            <path id="Path_188282" data-name="Path 188282" d="M357.585,205.951c2.312-1.584,4.653-3.126,6.959-4.721a12.048,12.048,0,0,1,.754,1.007c1.293,1.962,2.6,3.911,3.909,5.862,1.335,2.012,2.934,3.951,3.5,6.353a11.107,11.107,0,0,1-.576,7.163c-.018.03-.053.093-.069.123-2.2.153-4.4.381-6.6.555q-4.257-6.386-8.5-12.785A2.6,2.6,0,0,1,357.585,205.951Z" transform="translate(-311.656 -171.962)" fill="#e5f2d5"/>
            <path id="Path_188283" data-name="Path 188283" d="M57.43,361.143c2.15-3.887,4.281-7.787,6.434-11.673q7.628.023,15.255.054a2.687,2.687,0,0,1,2.457,1.46,3.219,3.219,0,0,1,.275,1.568c-.012,3.848.009,7.7-.01,11.543a2.6,2.6,0,0,1-2.573,2.511c-4.235,0-8.471.018-12.705-.008A11.008,11.008,0,0,1,57.43,361.143Z" transform="translate(-57.43 -297.965)" fill="#e5f2d5"/>
          </g>
          <g id="_95d528ff" data-name="#95d528ff" transform="translate(5.04 0)">
            <path id="Path_188284" data-name="Path 188284" d="M296.672,6.021a14.1,14.1,0,0,1,3.842.236,9.848,9.848,0,0,1,6.255,4.595q2,3.434,4,6.872,2.124-1.24,4.245-2.487a1.548,1.548,0,0,1,1.411-.222A1.462,1.462,0,0,1,317.244,17c-1.949,4.545-3.879,9.1-5.838,13.638-2.633-4.44-5.093-8.979-7.658-13.46-1.549-2.747-3.111-5.489-4.65-8.241a11.367,11.367,0,0,0-2.538-2.9Z" transform="translate(-257.115 -5.995)" fill="#78b62e"/>
            <path id="Path_188285" data-name="Path 188285" d="M48.885,201.88c1.943,4.347,3.83,8.718,5.76,13.07a3.549,3.549,0,0,1,.3.882,1.452,1.452,0,0,1-1.193,1.542,1.714,1.714,0,0,1-1.224-.306c-1.283-.758-2.573-1.5-3.857-2.253q-2.54,4.6-5.067,9.2c-2.153,3.887-4.284,7.787-6.434,11.673-1.238-2.042-2.39-4.137-3.575-6.21.984-1.433,1.694-3.03,2.573-4.527C40.421,217.269,44.625,209.559,48.885,201.88Z" transform="translate(-33.6 -172.497)" fill="#78b62e"/>
            <path id="Path_188286" data-name="Path 188286" d="M394.217,334.6c2.2-.009,4.388-.408,6.591-.444-1.869,3.839-3.8,7.65-5.691,11.477a26.108,26.108,0,0,1-1.775,3.164,9.819,9.819,0,0,1-6.557,3.9c-1.424.159-2.858.2-4.286.3a14.307,14.307,0,0,1,1.763-1.115,11.491,11.491,0,0,0,1.65-1.5,10.891,10.891,0,0,0,1.7-2.495c1.086-2.1,2.1-4.226,3.119-6.356,1.145-2.264,2.253-4.547,3.414-6.8C394.164,334.7,394.2,334.634,394.217,334.6Z" transform="translate(-330.164 -284.934)" fill="#78b62e"/>
          </g>
          <g id="_a1e42cff" data-name="#a1e42cff" transform="translate(0 0.035)">
            <path id="Path_188287" data-name="Path 188287" d="M210.17,6.31c4.319-.081,8.642.027,12.959-.08a11.365,11.365,0,0,1,2.538,2.9c1.539,2.753,3.1,5.495,4.65,8.241,2.565,4.481,5.025,9.02,7.658,13.46a4.021,4.021,0,0,1-3.993,2.3c-4.955-.5-9.908-1.011-14.861-1.509a1.422,1.422,0,0,1-1.292-.975,1.391,1.391,0,0,1,.581-1.634c1.386-.825,2.787-1.625,4.173-2.447q-2.761-4.491-5.531-8.975-2.972-4.831-5.951-9.66A10.751,10.751,0,0,1,210.17,6.31Z" transform="translate(-178.644 -6.23)" fill="#87cc34"/>
            <path id="Path_188288" data-name="Path 188288" d="M1.512,186.247q7.349-.819,14.7-1.643a4.02,4.02,0,0,1,4.113,2.57c-4.26,7.679-8.465,15.389-12.713,23.075-.879,1.5-1.589,3.095-2.573,4.527-1.194-2.126-2.444-4.22-3.6-6.366A10.276,10.276,0,0,1,0,203.806v-.987a10.518,10.518,0,0,1,.632-2.991,17.4,17.4,0,0,1,1.4-2.672c1.1-1.886,2.193-3.779,3.3-5.66-1.479-.894-2.99-1.736-4.475-2.619a1.415,1.415,0,0,1,.654-2.631Z" transform="translate(0 -157.826)" fill="#87cc34"/>
            <path id="Path_188289" data-name="Path 188289" d="M277.551,307.74a1.418,1.418,0,0,1,2.624.746c.1,1.557.2,3.116.293,4.674,3.507-.285,7.011-.6,10.517-.909,2.2-.174,4.394-.4,6.6-.555-1.161,2.256-2.27,4.539-3.414,6.8-1.017,2.13-2.033,4.26-3.119,6.356a10.892,10.892,0,0,1-1.7,2.495,11.491,11.491,0,0,1-1.65,1.5,14.3,14.3,0,0,0-1.763,1.115c-1.461.052-2.918.174-4.377.251.1,1.731.234,3.461.321,5.193a1.415,1.415,0,0,1-1.419,1.469,1.474,1.474,0,0,1-1.161-.606q-4.671-5.535-9.35-11.066a4,4,0,0,1-.336-5Q273.588,313.977,277.551,307.74Z" transform="translate(-228.556 -261.938)" fill="#87cc34"/>
          </g>
          <g id="_b9ea6aff" data-name="#b9ea6aff" transform="translate(61.502 26.829)">
            <path id="Path_188290" data-name="Path 188290" d="M412.967,185.292a2.631,2.631,0,0,1,3.6.665c2.316,3.431,4.61,6.876,6.912,10.316a11.628,11.628,0,0,1,1.826,5v2.157a12.953,12.953,0,0,1-1.118,3.818c-2.2.036-4.388.435-6.591.444a11.107,11.107,0,0,0,.576-7.163c-.569-2.4-2.168-4.341-3.5-6.353-1.305-1.952-2.616-3.9-3.909-5.862a12.062,12.062,0,0,0-.755-1.007C410.982,186.616,411.98,185.962,412.967,185.292Z" transform="translate(-410.01 -184.85)" fill="#caf29b"/>
          </g>
        </g>
      </g>
      <g id="_000000ff" data-name="#000000ff" transform="translate(10600 -5736)">
        <path id="Path_188278" data-name="Path 188278" d="M116.944,6.05c4.436-.038,8.873-.032,13.31-.06a17.456,17.456,0,0,1,3,.14,10.683,10.683,0,0,1,6.555,3.8,18.076,18.076,0,0,1,1.586,2.459q1.334,2.284,2.664,4.568c1.212-.678,2.387-1.425,3.611-2.082a2.511,2.511,0,0,1,3.381,1.481,2.825,2.825,0,0,1-.252,2.213c-1.851,4.308-3.68,8.624-5.534,12.93a4.948,4.948,0,0,1-4.958,2.864q-7.243-.736-14.486-1.472a2.5,2.5,0,0,1-1.262-4.515c1.053-.66,2.142-1.262,3.212-1.9q-5.589-9.083-11.192-18.159a9.5,9.5,0,0,0-7.517,4.677q-2.995,5.27-5.975,10.548a1.394,1.394,0,0,0,.526,1.887c3.225,1.823,6.465,3.62,9.69,5.444a1.511,1.511,0,0,0,2.306-.369c1.6-2.8,3.183-5.619,4.787-8.421a1.127,1.127,0,0,1,1.653-.372,1.143,1.143,0,0,1,.269,1.538c-1.614,2.837-3.216,5.682-4.839,8.514a3.66,3.66,0,0,1-4.757,1.353c-3.4-1.889-6.789-3.81-10.188-5.709a3.656,3.656,0,0,1-1.466-4.862q3.02-5.362,6.066-10.712a11.754,11.754,0,0,1,9.807-5.783M119.2,8.282q5.533,8.978,11.067,17.957a1.132,1.132,0,0,1-.372,1.6c-1.322.794-2.666,1.548-3.987,2.343-.264.111-.117.515.154.47q7.2.745,14.408,1.466a2.708,2.708,0,0,0,2.223-.8,4.976,4.976,0,0,0,.9-1.634q2.563-5.994,5.127-11.988c.087-.264.4-.678-.021-.809-1.565.819-3.045,1.8-4.6,2.634a1.116,1.116,0,0,1-1.421-.467c-1.338-2.268-2.646-4.553-3.986-6.818a8.431,8.431,0,0,0-7.091-3.995C127.471,8.248,123.337,8.275,119.2,8.282Z" transform="translate(-85.559 -5.988)"/>
        <path id="Path_188279" data-name="Path 188279" d="M2.544,180.775c4.752-.53,9.5-1.073,14.255-1.592a4.926,4.926,0,0,1,4.92,2.838c1.947,4.4,3.873,8.816,5.816,13.221a2.789,2.789,0,0,1,.282,1.584,2.546,2.546,0,0,1-2.462,2.147,2.689,2.689,0,0,1-1.415-.426q-1.436-.837-2.874-1.671-5.148,9.34-10.284,18.687a9.537,9.537,0,0,0,5.7,3.98,16.845,16.845,0,0,0,4.065.261c3.35,0,6.7.006,10.05,0a1.4,1.4,0,0,0,1.455-1.361c.015-3.851.008-7.7,0-11.55a1.435,1.435,0,0,0-1.461-1.416c-3.2-.033-6.4-.027-9.6-.064a1.12,1.12,0,1,1-.012-2.24q4.883.016,9.765.055a3.675,3.675,0,0,1,3.558,3.5c.015,3.909.007,7.818,0,11.729a3.647,3.647,0,0,1-2.2,3.3,4.253,4.253,0,0,1-1.809.3c-3.9-.009-7.8,0-11.7-.006a11.769,11.769,0,0,1-8.321-3.546,12.586,12.586,0,0,1-1.971-2.684Q5.2,210.381,2.094,204.941a18.671,18.671,0,0,1-1.416-2.763A11.529,11.529,0,0,1,0,198.992v-1.012a10.894,10.894,0,0,1,1.409-4.835c1.11-1.919,2.235-3.831,3.347-5.75-1.1-.65-2.2-1.277-3.3-1.926a2.551,2.551,0,0,1-1.08-1.143,2.554,2.554,0,0,1,.657-2.963,2.6,2.6,0,0,1,1.511-.588m.141,2.25c-.267-.044-.414.366-.143.467,1.445.869,2.922,1.688,4.365,2.558a1.124,1.124,0,0,1,.336,1.542c-1.206,2.084-2.424,4.16-3.635,6.242a8.49,8.49,0,0,0-.3,8.688q3.069,5.391,6.152,10.772,4.943-8.975,9.882-17.957c.213-.365.375-.809.774-1.01a1.173,1.173,0,0,1,1.191.086q1.9,1.107,3.8,2.211a.3.3,0,0,0,.491-.084,4.618,4.618,0,0,0-.327-.845c-1.868-4.236-3.719-8.481-5.592-12.714a2.7,2.7,0,0,0-2.747-1.551Q9.809,182.221,2.685,183.025Z" transform="translate(0 -153.182)"/>
        <path id="Path_188280" data-name="Path 188280" d="M284.908,180.152a3.652,3.652,0,0,1,4.119.035,6.385,6.385,0,0,1,1.566,1.89q2.984,4.451,5.96,8.9a11.964,11.964,0,0,1,2.07,6.254v1.059a14.434,14.434,0,0,1-.469,2.6,21.616,21.616,0,0,1-1.6,3.651q-2.795,5.6-5.583,11.211a10.7,10.7,0,0,1-8.4,5.754c-2.327.183-4.659.3-6.987.45.067,1.383.208,2.765.238,4.151a2.492,2.492,0,0,1-2.4,2.382,2.589,2.589,0,0,1-2.2-1.109c-3.056-3.633-6.134-7.248-9.185-10.886a4.945,4.945,0,0,1-.268-5.8c2.612-4.1,5.208-8.2,7.829-12.287a2.488,2.488,0,0,1,3.216-.825,2.424,2.424,0,0,1,1.332,1.956c.105,1.193.153,2.391.238,3.585,7.088-.62,14.18-1.211,21.264-1.863a9.614,9.614,0,0,0,.026-7.179,16.116,16.116,0,0,0-1.778-3.024q-2.736-4.086-5.471-8.175a2.352,2.352,0,0,0-.947-1,1.421,1.421,0,0,0-1.4.174c-3.159,2.145-6.332,4.268-9.488,6.416a1.392,1.392,0,0,0-.366,1.952c1.532,2.324,3.083,4.637,4.616,6.959a1.124,1.124,0,0,1-1.6,1.557,4.5,4.5,0,0,1-.627-.84q-1.91-2.887-3.83-5.768a6.186,6.186,0,0,1-.908-1.644,3.659,3.659,0,0,1,.666-3.371,5.92,5.92,0,0,1,1.418-1.14q4.469-3.015,8.934-6.036m-13.446,19.539q-3.9,6.089-7.769,12.2a2.727,2.727,0,0,0-.333,2.4,5.631,5.631,0,0,0,1.161,1.668c2.918,3.44,5.81,6.9,8.745,10.328l.324-.155c-.091-1.712-.221-3.42-.315-5.13a1.116,1.116,0,0,1,1.029-1.2c1.9-.133,3.81-.229,5.714-.363a17.747,17.747,0,0,0,3.81-.444A8.447,8.447,0,0,0,289,214.675q2.75-5.513,5.492-11.03-10.465.918-20.933,1.821a1.134,1.134,0,0,1-1.323-.952c-.13-1.553-.193-3.111-.312-4.664A.249.249,0,0,0,271.462,199.691Z" transform="translate(-221.822 -153.501)"/>
      </g>
    </g>
  </g>
</svg>
