<svg xmlns="http://www.w3.org/2000/svg" xmlns:xlink="http://www.w3.org/1999/xlink" width="295" height="290" viewBox="0 0 295 290">
  <defs>
    <filter id="Ellipse_5189" x="76" y="37" width="143" height="143" filterUnits="userSpaceOnUse">
      <feOffset dy="3" input="SourceAlpha"/>
      <feGaussianBlur stdDeviation="3" result="blur"/>
      <feFlood flood-opacity="0.161"/>
      <feComposite operator="in" in2="blur"/>
      <feComposite in="SourceGraphic"/>
    </filter>
  </defs>
  <g id="t5-g4" transform="translate(-11275 4866)">
    <rect id="Rectangle_40154" data-name="Rectangle 40154" width="295" height="290" rx="20" transform="translate(11275 -4866)" fill="#faf4dc"/>
    <path id="Path_190324" data-name="Path 190324" d="M36.7,15.468H34.659V21H30.889V5.359h6.155a6.87,6.87,0,0,1,4.351,1.234,4.181,4.181,0,0,1,1.568,3.488,5.078,5.078,0,0,1-.661,2.7,4.689,4.689,0,0,1-2.068,1.738L43.5,20.839V21H39.461Zm-2.041-2.9h2.385A2.141,2.141,0,0,0,38.661,12a2.186,2.186,0,0,0,.542-1.578,2.211,2.211,0,0,0-.548-1.588,2.121,2.121,0,0,0-1.611-.576H34.659ZM50.7,21.215a5.975,5.975,0,0,1-4.329-1.6,5.509,5.509,0,0,1-1.654-4.152v-.3a7.138,7.138,0,0,1,.661-3.147A4.834,4.834,0,0,1,47.3,9.909a5.821,5.821,0,0,1,3.008-.747,5.031,5.031,0,0,1,3.867,1.52A5.973,5.973,0,0,1,55.6,14.92v1.407H48.4a2.609,2.609,0,0,0,.849,1.536,2.525,2.525,0,0,0,1.7.559,3.254,3.254,0,0,0,2.686-1.2l1.654,1.955a4.624,4.624,0,0,1-1.917,1.488A6.48,6.48,0,0,1,50.7,21.215Zm-.408-9.26q-1.59,0-1.891,2.105h3.652v-.279a1.793,1.793,0,0,0-.44-1.348A1.753,1.753,0,0,0,50.289,11.955Zm12.848,5.779a.836.836,0,0,0-.483-.741,7.353,7.353,0,0,0-1.837-.58,8.376,8.376,0,0,1-2.234-.79,3.743,3.743,0,0,1-1.343-1.187,2.835,2.835,0,0,1-.462-1.6A3.212,3.212,0,0,1,58.1,10.2a5.443,5.443,0,0,1,3.459-1.037,6.03,6.03,0,0,1,3.7,1.042,3.258,3.258,0,0,1,1.4,2.739H63.019q0-1.4-1.472-1.4a1.459,1.459,0,0,0-.956.317.981.981,0,0,0-.387.79.9.9,0,0,0,.473.784,4.466,4.466,0,0,0,1.509.494,13.042,13.042,0,0,1,1.821.462q2.621.9,2.621,3.233a3.044,3.044,0,0,1-1.413,2.589,6.2,6.2,0,0,1-3.658,1,6.322,6.322,0,0,1-2.664-.537,4.455,4.455,0,0,1-1.826-1.461,3.308,3.308,0,0,1-.655-1.944H59.8a1.4,1.4,0,0,0,.537,1.176,2.209,2.209,0,0,0,1.321.371,1.738,1.738,0,0,0,1.112-.3A.962.962,0,0,0,63.137,17.734Zm9,3.266H68.508V9.377h3.631ZM68.293,6.369a1.63,1.63,0,0,1,.559-1.275,2.364,2.364,0,0,1,2.9,0,1.63,1.63,0,0,1,.559,1.275,1.63,1.63,0,0,1-.559,1.275,2.364,2.364,0,0,1-2.9,0A1.63,1.63,0,0,1,68.293,6.369ZM73.911,15.1A7.1,7.1,0,0,1,75.1,10.752a3.925,3.925,0,0,1,3.33-1.59,3.338,3.338,0,0,1,2.621,1.225V4.5h3.631V21H81.431l-.183-1.246a3.428,3.428,0,0,1-2.836,1.461,3.918,3.918,0,0,1-3.287-1.59A7.325,7.325,0,0,1,73.911,15.1Zm3.62.226q0,3.094,1.8,3.094a1.782,1.782,0,0,0,1.719-1.01V12.986a1.734,1.734,0,0,0-1.7-1.031q-1.676,0-1.815,2.707Zm16.135,4.415a3.732,3.732,0,0,1-3.1,1.472,3.661,3.661,0,0,1-2.9-1.112,4.676,4.676,0,0,1-.983-3.2V9.377H90.3v7.552a1.3,1.3,0,0,0,1.45,1.493,1.892,1.892,0,0,0,1.772-.892V9.377h3.642V21H93.773Zm5.027-4.662a6.86,6.86,0,0,1,.677-3.1,4.84,4.84,0,0,1,1.944-2.089,5.856,5.856,0,0,1,2.976-.73,5.344,5.344,0,0,1,4.114,1.617,6.2,6.2,0,0,1,1.5,4.4v.129A6.019,6.019,0,0,1,108.4,19.62a5.359,5.359,0,0,1-4.087,1.6,5.42,5.42,0,0,1-3.985-1.488A5.819,5.819,0,0,1,98.7,15.693Zm3.62.226a4.325,4.325,0,0,0,.5,2.363,1.682,1.682,0,0,0,1.493.752q1.934,0,1.977-2.976v-.365q0-3.126-2-3.126-1.815,0-1.966,2.7Zm15.275,2.428a.836.836,0,0,0-.483-.741,7.353,7.353,0,0,0-1.837-.58,8.376,8.376,0,0,1-2.234-.79,3.743,3.743,0,0,1-1.343-1.187,2.834,2.834,0,0,1-.462-1.6,3.212,3.212,0,0,1,1.321-2.637,5.443,5.443,0,0,1,3.459-1.037,6.03,6.03,0,0,1,3.7,1.042,3.258,3.258,0,0,1,1.4,2.739h-3.631q0-1.4-1.472-1.4a1.459,1.459,0,0,0-.956.317.981.981,0,0,0-.387.79.9.9,0,0,0,.473.784,4.466,4.466,0,0,0,1.509.494,13.043,13.043,0,0,1,1.821.462q2.621.9,2.621,3.233a3.044,3.044,0,0,1-1.413,2.589,6.2,6.2,0,0,1-3.658,1,6.322,6.322,0,0,1-2.664-.537,4.455,4.455,0,0,1-1.826-1.461,3.308,3.308,0,0,1-.655-1.944h3.384a1.4,1.4,0,0,0,.537,1.176,2.209,2.209,0,0,0,1.321.371,1.738,1.738,0,0,0,1.112-.3A.962.962,0,0,0,117.589,17.734Zm16.285,3.48a5.975,5.975,0,0,1-4.329-1.6,5.509,5.509,0,0,1-1.654-4.152v-.3a7.138,7.138,0,0,1,.661-3.147,4.834,4.834,0,0,1,1.928-2.111,5.821,5.821,0,0,1,3.008-.747,5.031,5.031,0,0,1,3.867,1.52,5.973,5.973,0,0,1,1.418,4.238v1.407h-7.2a2.609,2.609,0,0,0,.849,1.536,2.525,2.525,0,0,0,1.7.559,3.254,3.254,0,0,0,2.686-1.2l1.654,1.955a4.624,4.624,0,0,1-1.917,1.488A6.48,6.48,0,0,1,133.874,21.215Zm-.408-9.26q-1.59,0-1.891,2.105h3.652v-.279a1.793,1.793,0,0,0-.44-1.348A1.753,1.753,0,0,0,133.466,11.955Zm12.848,5.779a.836.836,0,0,0-.483-.741,7.353,7.353,0,0,0-1.837-.58,8.376,8.376,0,0,1-2.234-.79,3.743,3.743,0,0,1-1.343-1.187,2.835,2.835,0,0,1-.462-1.6,3.212,3.212,0,0,1,1.321-2.637,5.443,5.443,0,0,1,3.459-1.037,6.03,6.03,0,0,1,3.7,1.042,3.258,3.258,0,0,1,1.4,2.739H146.2q0-1.4-1.472-1.4a1.459,1.459,0,0,0-.956.317.981.981,0,0,0-.387.79.9.9,0,0,0,.473.784,4.466,4.466,0,0,0,1.509.494,13.042,13.042,0,0,1,1.821.462q2.621.9,2.621,3.233a3.044,3.044,0,0,1-1.413,2.589,6.2,6.2,0,0,1-3.658,1,6.322,6.322,0,0,1-2.664-.537,4.455,4.455,0,0,1-1.826-1.461,3.308,3.308,0,0,1-.655-1.944h3.384a1.4,1.4,0,0,0,.537,1.176,2.209,2.209,0,0,0,1.321.371,1.738,1.738,0,0,0,1.112-.3A.962.962,0,0,0,146.313,17.734Zm15.974-2.46a7.009,7.009,0,0,1-1.219,4.324,3.909,3.909,0,0,1-3.292,1.617,3.351,3.351,0,0,1-2.632-1.171v5.425h-3.62V9.377h3.384l.107,1.074a3.351,3.351,0,0,1,2.739-1.289,3.941,3.941,0,0,1,3.341,1.584,7.1,7.1,0,0,1,1.192,4.356Zm-3.62-.226q0-3.094-1.8-3.094a1.7,1.7,0,0,0-1.719.924v4.576a1.759,1.759,0,0,0,1.74.967q1.729,0,1.783-2.986Zm10.839,6.166a5.975,5.975,0,0,1-4.329-1.6,5.509,5.509,0,0,1-1.654-4.152v-.3a7.138,7.138,0,0,1,.661-3.147,4.834,4.834,0,0,1,1.928-2.111,5.821,5.821,0,0,1,3.008-.747,5.031,5.031,0,0,1,3.867,1.52A5.973,5.973,0,0,1,174.4,14.92v1.407h-7.2a2.609,2.609,0,0,0,.849,1.536,2.525,2.525,0,0,0,1.7.559,3.254,3.254,0,0,0,2.686-1.2l1.654,1.955a4.624,4.624,0,0,1-1.917,1.488A6.48,6.48,0,0,1,169.506,21.215Zm-.408-9.26q-1.59,0-1.891,2.105h3.652v-.279a1.793,1.793,0,0,0-.44-1.348A1.753,1.753,0,0,0,169.1,11.955Zm11.677,6.467a1.61,1.61,0,0,0,1.182-.414,1.517,1.517,0,0,0,.408-1.155h3.395a4.018,4.018,0,0,1-1.37,3.137,5.1,5.1,0,0,1-3.529,1.225,5.158,5.158,0,0,1-4-1.59,6.264,6.264,0,0,1-1.461-4.4v-.15a7.08,7.08,0,0,1,.65-3.11,4.732,4.732,0,0,1,1.875-2.073,5.589,5.589,0,0,1,2.9-.725,5.03,5.03,0,0,1,3.6,1.257,4.458,4.458,0,0,1,1.332,3.405h-3.395a1.987,1.987,0,0,0-.44-1.386,1.52,1.52,0,0,0-1.182-.483q-1.407,0-1.644,1.794a12.659,12.659,0,0,0-.075,1.568,4.972,4.972,0,0,0,.419,2.428A1.45,1.45,0,0,0,180.774,18.422ZM191.108,21h-3.631V9.377h3.631ZM187.263,6.369a1.63,1.63,0,0,1,.559-1.275,2.364,2.364,0,0,1,2.9,0,1.63,1.63,0,0,1,.559,1.275,1.63,1.63,0,0,1-.559,1.275,2.364,2.364,0,0,1-2.9,0A1.63,1.63,0,0,1,187.263,6.369ZM199.885,21a4.088,4.088,0,0,1-.344-1.042,3.366,3.366,0,0,1-2.793,1.257,4.124,4.124,0,0,1-2.793-.994,3.163,3.163,0,0,1-1.149-2.5,3.251,3.251,0,0,1,1.4-2.857,7.114,7.114,0,0,1,4.061-.967h1.117v-.615q0-1.608-1.386-1.608a1.133,1.133,0,0,0-1.289,1.274h-3.62a3.245,3.245,0,0,1,1.434-2.736,6.027,6.027,0,0,1,3.658-1.051,5.284,5.284,0,0,1,3.513,1.085,3.772,3.772,0,0,1,1.321,2.976v5.146a5.269,5.269,0,0,0,.494,2.449V21Zm-2.267-2.363a2.019,2.019,0,0,0,1.123-.29,1.818,1.818,0,0,0,.639-.655V15.833h-1.053q-1.891,0-1.891,1.7a1.036,1.036,0,0,0,.333.8A1.205,1.205,0,0,0,197.618,18.637ZM208.833,21H205.2V4.5h3.631Zm7.853.215a5.975,5.975,0,0,1-4.329-1.6,5.509,5.509,0,0,1-1.654-4.152v-.3a7.138,7.138,0,0,1,.661-3.147,4.834,4.834,0,0,1,1.928-2.111,5.821,5.821,0,0,1,3.008-.747,5.031,5.031,0,0,1,3.867,1.52,5.973,5.973,0,0,1,1.418,4.238v1.407h-7.2a2.609,2.609,0,0,0,.849,1.536,2.525,2.525,0,0,0,1.7.559,3.254,3.254,0,0,0,2.686-1.2l1.654,1.955a4.624,4.624,0,0,1-1.917,1.488A6.48,6.48,0,0,1,216.686,21.215Zm-.408-9.26q-1.59,0-1.891,2.105h3.652v-.279a1.793,1.793,0,0,0-.44-1.348A1.753,1.753,0,0,0,216.277,11.955Zm12.848,5.779a.836.836,0,0,0-.483-.741,7.353,7.353,0,0,0-1.837-.58,8.376,8.376,0,0,1-2.234-.79,3.743,3.743,0,0,1-1.343-1.187,2.835,2.835,0,0,1-.462-1.6,3.212,3.212,0,0,1,1.321-2.637,5.443,5.443,0,0,1,3.459-1.037,6.03,6.03,0,0,1,3.7,1.042,3.258,3.258,0,0,1,1.4,2.739h-3.631q0-1.4-1.472-1.4a1.459,1.459,0,0,0-.956.317.981.981,0,0,0-.387.79.9.9,0,0,0,.473.784,4.466,4.466,0,0,0,1.509.494,13.042,13.042,0,0,1,1.821.462q2.621.9,2.621,3.233a3.044,3.044,0,0,1-1.413,2.589,6.2,6.2,0,0,1-3.658,1,6.322,6.322,0,0,1-2.664-.537,4.455,4.455,0,0,1-1.826-1.461,3.308,3.308,0,0,1-.655-1.944h3.384a1.4,1.4,0,0,0,.537,1.176,2.209,2.209,0,0,0,1.321.371,1.738,1.738,0,0,0,1.112-.3A.962.962,0,0,0,229.125,17.734Z" transform="translate(11291 -4645)" fill="#12263f"/>
    <g transform="matrix(1, 0, 0, 1, 11275, -4866)" filter="url(#Ellipse_5189)">
      <circle id="Ellipse_5189-2" data-name="Ellipse 5189" cx="62.5" cy="62.5" r="62.5" transform="translate(85 43)" fill="#fff"/>
    </g>
    <path id="Path_190320" data-name="Path 190320" d="M0,0H172V3H0Z" transform="translate(11337 -4673)" fill="#ffb500"/>
    <g id="Group_108225" data-name="Group 108225" transform="translate(-599 1724)">
      <g id="jeringuilla" transform="translate(11995.896 -6521.557)">
        <g id="_a1d4ffff" data-name="#a1d4ffff" transform="translate(29.585 0)">
          <path id="Path_188636" data-name="Path 188636" d="M391.758,2.362a1.348,1.348,0,0,1,1.315-.412c.5.117.812.561,1.169.894,3.28,3.267,6.536,6.564,9.837,9.812a2.13,2.13,0,0,1-.044,1.082,2.891,2.891,0,0,1-.723.918c-.875.847-1.719,1.724-2.585,2.578a2.178,2.178,0,0,1-1.468.394c-.4-.443-.841-.854-1.254-1.288-.773-.807-1.567-1.594-2.371-2.368-1.327-1.3-2.627-2.625-3.946-3.934-.97-.974-1.949-1.939-2.909-2.923a1.312,1.312,0,0,1,.038-1.8C389.789,4.324,390.779,3.349,391.758,2.362Z" transform="translate(-373.043 -1.91)" fill="#d2e1f1"/>
          <path id="Path_188637" data-name="Path 188637" d="M286.934,74.441a1.877,1.877,0,0,1,2.547.041c1.721,1.7,3.421,3.419,5.135,5.125q1.957,1.935,3.888,3.894c.764.84,1.576,1.638,2.407,2.413.955.915,1.855,1.887,2.827,2.786a2.256,2.256,0,0,1-.457,2.391c-.812.761-1.551,1.6-2.405,2.317a2.522,2.522,0,0,1-1.94.254c-.487-.524-.962-1.06-1.5-1.533-.475-.44-.927-.9-1.375-1.368q-1.16-1.213-2.374-2.373c-1.337-1.29-2.612-2.643-3.961-3.919-1.331-1.383-2.709-2.718-4.06-4.083a15.5,15.5,0,0,1-1.247-1.3,1.879,1.879,0,0,1,.223-2.357C285.4,75.959,286.156,75.189,286.934,74.441Z" transform="translate(-284.104 -63.331)" fill="#d2e1f1"/>
        </g>
        <g id="_e0dfe1ff" data-name="#e0dfe1ff" transform="translate(18.328 8.126)">
          <path id="Path_188638" data-name="Path 188638" d="M363.471,56.98c1.319,1.309,2.619,2.634,3.946,3.934-2.768,2.664-5.407,5.463-8.188,8.11q-1.928-1.963-3.888-3.894C358.036,62.4,360.766,59.7,363.471,56.98Z" transform="translate(-333.571 -56.98)" fill="#e0dfe1"/>
          <path id="Path_188639" data-name="Path 188639" d="M265.6,153.485c2.81-2.751,5.581-5.543,8.352-8.335,1.349,1.276,2.624,2.63,3.961,3.919-2.833,2.755-5.571,5.61-8.413,8.357C268.227,156.088,266.876,154.822,265.6,153.485Z" transform="translate(-257.074 -132.139)" fill="#e0dfe1"/>
          <path id="Path_188640" data-name="Path 188640" d="M242.167,315.713a1.147,1.147,0,0,1,1.6-.057c.871.913,1.8,1.766,2.658,2.7-.524.524-1.046,1.051-1.573,1.572-.891-.879-1.765-1.775-2.661-2.647A1.145,1.145,0,0,1,242.167,315.713Z" transform="translate(-236.848 -277.229)" fill="#e0dfe1"/>
          <path id="Path_188641" data-name="Path 188641" d="M208.186,349.7a1.146,1.146,0,0,1,1.529.006c.878.91,1.8,1.777,2.668,2.7-.525.525-1.049,1.054-1.58,1.576-.887-.881-1.763-1.772-2.656-2.646A1.143,1.143,0,0,1,208.186,349.7Z" transform="translate(-207.823 -306.255)" fill="#e0dfe1"/>
        </g>
        <g id="_86beecff" data-name="#86beecff" transform="translate(44.416 10.746)">
          <path id="Path_188643" data-name="Path 188643" d="M466.571,74.73c.646.626,1.273,1.271,1.915,1.9a2.518,2.518,0,0,1,.679.916v.689a2.443,2.443,0,0,1-.649.9c-.918.9-1.812,1.83-2.736,2.726a1.331,1.331,0,0,1-1.833.035c-.742-.722-1.467-1.462-2.2-2.2a2.178,2.178,0,0,0,1.468-.394c.866-.854,1.71-1.731,2.585-2.578a2.891,2.891,0,0,0,.723-.918A2.13,2.13,0,0,0,466.571,74.73Z" transform="translate(-450.367 -74.73)" fill="#b0c0d2"/>
          <path id="Path_188644" data-name="Path 188644" d="M389.413,173.83c.578.553,1.133,1.13,1.7,1.693.484.48,1.085.987,1.1,1.728a1.864,1.864,0,0,1-.542,1.549c-.756.761-1.5,1.532-2.281,2.27a1.947,1.947,0,0,1-1.768.418A5.213,5.213,0,0,1,385.795,180c-.376-.421-.788-.807-1.185-1.207a2.522,2.522,0,0,0,1.94-.254c.854-.716,1.594-1.555,2.405-2.317A2.256,2.256,0,0,0,389.413,173.83Z" transform="translate(-384.61 -159.206)" fill="#b0c0d2"/>
        </g>
        <g id="_d3cfd2ff" data-name="#d3cfd2ff" transform="translate(30.754 12.061)">
          <path id="Path_188645" data-name="Path 188645" d="M381.69,91.75c2.782-2.647,5.42-5.447,8.188-8.11.8.775,1.6,1.561,2.371,2.368q-4.073,4.079-8.153,8.155C383.266,93.388,382.454,92.59,381.69,91.75Z" transform="translate(-368.459 -83.64)" fill="#d3cfd2"/>
          <path id="Path_188646" data-name="Path 188646" d="M292.03,180.067c2.842-2.746,5.579-5.6,8.413-8.357q1.215,1.158,2.374,2.373-4.208,4.164-8.368,8.374C293.6,181.7,292.821,180.88,292.03,180.067Z" transform="translate(-292.03 -158.714)" fill="#d3cfd2"/>
        </g>
        <g id="_eff6ffff" data-name="#eff6ffff" transform="translate(0 17.054)">
          <path id="Path_188647" data-name="Path 188647" d="M246.323,117.48c1.35,1.365,2.728,2.7,4.06,4.083-2.771,2.792-5.543,5.584-8.352,8.335-1.378-1.333-2.714-2.711-4.08-4.057C240.743,123.057,243.524,120.259,246.323,117.48Z" transform="translate(-215.176 -117.48)" fill="#eff6ff"/>
          <path id="Path_188648" data-name="Path 188648" d="M308.42,196.164q4.153-4.217,8.369-8.374c.449.465.9.928,1.375,1.368a4.584,4.584,0,0,1-.927,1.057q-3.683,3.7-7.381,7.387C309.37,197.129,308.9,196.644,308.42,196.164Z" transform="translate(-275.247 -177.415)" fill="#eff6ff"/>
          <path id="Path_188649" data-name="Path 188649" d="M84.748,358.14q1.822-1.837,3.66-3.66c1.051,1.054,2.109,2.1,3.152,3.159-.924,1.02-1.941,1.948-2.894,2.938a5.624,5.624,0,0,1-1.977,1.567,4.19,4.19,0,0,1-1.78.3,5.879,5.879,0,0,0-1.057-.024A4.24,4.24,0,0,1,84.748,358.14Z" transform="translate(-83.62 -319.507)" fill="#eff6ff"/>
        </g>
        <g id="_7e707dff" data-name="#7e707dff" transform="translate(17.863 25.415)">
          <path id="Path_188650" data-name="Path 188650" d="M204.67,179.052q2.457-2.455,4.911-4.912c1.366,1.346,2.7,2.724,4.08,4.057,1.276,1.337,2.627,2.6,3.9,3.941.791.813,1.572,1.638,2.419,2.391.478.48.95.965,1.436,1.437l-.021.021c-1.65,1.614-3.238,3.292-4.917,4.876Q210.575,184.957,204.67,179.052Z" transform="translate(-204.67 -174.14)" fill="#b0c0d2"/>
        </g>
        <g id="_d9eeffff" data-name="#d9eeffff" transform="translate(0.232 28.798)">
          <path id="Path_188651" data-name="Path 188651" d="M326.339,197.06c.537.474,1.012,1.009,1.5,1.533.4.4.809.787,1.185,1.207-2.777,2.8-5.575,5.579-8.363,8.37-.881-.884-1.759-1.772-2.65-2.646l.021-.021q3.688-3.7,7.381-7.387A4.583,4.583,0,0,0,326.339,197.06Z" transform="translate(-283.654 -197.06)" fill="#d9eeff"/>
          <path id="Path_188652" data-name="Path 188652" d="M92.9,375.89l.124.127c.86.853,1.7,1.727,2.577,2.562q-1.817,1.839-3.658,3.655a4.192,4.192,0,0,1-4.915.618,4.69,4.69,0,0,1-1.564-1.578,5.435,5.435,0,0,1-.27-.6,5.879,5.879,0,0,1,1.057.024,4.189,4.189,0,0,0,1.78-.3A5.624,5.624,0,0,0,90,378.828C90.957,377.838,91.974,376.91,92.9,375.89Z" transform="translate(-85.19 -349.501)" fill="#d9eeff"/>
        </g>
        <g id="_fe8d94ff" data-name="#fe8d94ff" transform="translate(4.787 30.328)">
          <path id="Path_188653" data-name="Path 188653" d="M117.087,219.477q6.027-6.021,12.049-12.047,5.908,5.9,11.808,11.81l.035.035c-1.533,1.409-2.928,2.965-4.455,4.38a1.13,1.13,0,0,0-1.576,1.62c-1.169,1.119-2.253,2.321-3.456,3.4a1.13,1.13,0,0,0-1.569,1.626c-.568.491-1.023,1.111-1.629,1.554-2.848.177-5.7.279-8.551.465l-.407.094-.124-.127c-1.043-1.061-2.1-2.106-3.152-3.159q.215-4.394.449-8.786C116.5,219.958,116.852,219.73,117.087,219.477Z" transform="translate(-116.06 -207.43)" fill="#87cc34"/>
        </g>
        <g id="_6a5c69ff" data-name="#6a5c69ff" transform="translate(29.671 37.262)">
          <path id="Path_188654" data-name="Path 188654" d="M284.69,259.3c1.679-1.583,3.267-3.261,4.917-4.876.891.874,1.769,1.762,2.65,2.646q-2.45,2.459-4.908,4.913c-.86-.9-1.758-1.758-2.624-2.647Z" transform="translate(-284.69 -254.42)" fill="#727997"/>
        </g>
        <g id="_ff6d75ff" data-name="#ff6d75ff" transform="translate(8.063 42.173)">
          <path id="Path_188655" data-name="Path 188655" d="M254.74,292.08c1.527-1.415,2.922-2.971,4.455-4.38.866.89,1.763,1.75,2.624,2.647-1.471,1.477-2.95,2.948-4.421,4.428C256.543,293.846,255.611,292.993,254.74,292.08Z" transform="translate(-237.551 -287.7)" fill="#78b62e"/>
          <path id="Path_188656" data-name="Path 188656" d="M220.64,331.761c1.2-1.08,2.287-2.283,3.456-3.4.9.872,1.769,1.768,2.661,2.647q-1.727,1.724-3.449,3.45C222.44,333.538,221.518,332.672,220.64,331.761Z" transform="translate(-208.483 -322.36)" fill="#78b62e"/>
          <path id="Path_188657" data-name="Path 188657" d="M147.219,363.984c.606-.443,1.061-1.062,1.629-1.554.893.874,1.769,1.765,2.656,2.646a17.693,17.693,0,0,1-1.634,1.544c-1.462.193-2.942.134-4.409.28-1.544.022-3.08.2-4.625.205-.877-.835-1.716-1.709-2.577-2.562l.407-.094C141.514,364.263,144.371,364.161,147.219,363.984Z" transform="translate(-138.26 -351.402)" fill="#78b62e"/>
        </g>
      </g>
      <g id="_000000ff" data-name="#000000ff" transform="translate(11984 -6522)">
        <path id="Path_188635" data-name="Path 188635" d="M59,2.62a2.425,2.425,0,0,1,2.572-.6,3.458,3.458,0,0,1,1.262.943C63.9,4.055,65,5.122,66.064,6.215A1.1,1.1,0,1,1,64.5,7.77c-1.251-1.232-2.486-2.482-3.728-3.725-1.151.978-2.153,2.123-3.241,3.173a10.189,10.189,0,0,0,1,1.064c3.863,3.869,7.741,7.725,11.593,11.606a8.325,8.325,0,0,0,1.206-1.11c.674-.716,1.434-1.353,2.051-2.121-1.749-1.756-3.509-3.5-5.258-5.259a1.1,1.1,0,1,1,1.554-1.567c1.706,1.69,3.4,3.393,5.1,5.088a2.671,2.671,0,0,1,.773,1.487v.6a2.7,2.7,0,0,1-.733,1.418c-.989.987-1.969,1.979-2.962,2.96a2.425,2.425,0,0,1-2.566.508,4.051,4.051,0,0,1-1.328-1.049q-1.04-1.045-2.087-2.084-3.223,3.232-6.452,6.459c1.4,1.411,2.816,2.813,4.219,4.223a2.969,2.969,0,0,1,.646,3.254,4.055,4.055,0,0,1-1.023,1.337c-.626.609-1.226,1.244-1.859,1.846a2.972,2.972,0,0,1-3.134.58,3.8,3.8,0,0,1-1.2-.849Q45,47.684,32.925,59.763c-.388.369-.753.894-1.35.885-2.7.152-5.408.285-8.113.418a.64.64,0,0,0-.527.192c-1.088,1.082-2.157,2.183-3.263,3.246a5.232,5.232,0,0,1-6.249.519q-5.512,5.5-11.007,11.006c-.385.375-.776.906-1.384.844A1.228,1.228,0,0,1,0,76.029v-.45a1.619,1.619,0,0,1,.4-.668q5.724-5.729,11.448-11.457a5.236,5.236,0,0,1,.516-6.248c1.065-1.1,2.159-2.172,3.244-3.254a.684.684,0,0,0,.2-.552c.134-2.706.267-5.413.416-8.118a1.449,1.449,0,0,1,.587-1.039c1.464-1.44,2.9-2.911,4.364-4.353a1.1,1.1,0,0,1,1.668.133,1.127,1.127,0,0,1-.174,1.5q-2.025,2.039-4.065,4.064a.7.7,0,0,0-.217.59c-.121,2.547-.26,5.093-.385,7.64,1.675,1.685,3.369,3.354,5.035,5.048,2.517-.1,5.035-.251,7.552-.369.208-.031.463.016.623-.153.39-.362.747-.757,1.127-1.127-.6-.635-1.245-1.222-1.839-1.861A1.1,1.1,0,0,1,32.054,53.8c.652.587,1.217,1.265,1.886,1.836,1.1-1.15,2.246-2.247,3.359-3.382-.608-.627-1.248-1.222-1.846-1.858A1.1,1.1,0,0,1,37.01,48.85c.636.595,1.231,1.232,1.853,1.84,1.192-1.194,2.4-2.377,3.574-3.584q-6.348-6.324-12.676-12.67c-1.144,1.13-2.273,2.278-3.419,3.407a1.1,1.1,0,1,1-1.563-1.558q8.236-8.254,16.489-16.491a4.228,4.228,0,0,1-.757-.986A2.956,2.956,0,0,1,41,15.462c.76-.773,1.53-1.536,2.3-2.3a2.959,2.959,0,0,1,3.242-.558,5.069,5.069,0,0,1,1.473,1.2q1.822,1.826,3.646,3.648,3.234-3.223,6.459-6.455c-.714-.736-1.465-1.436-2.163-2.185a2.411,2.411,0,0,1,.1-3.241C57.031,4.582,58.017,3.6,59,2.62M53.232,19.012c1.529,1.558,3.084,3.092,4.626,4.637,2.152-2.157,4.325-4.294,6.455-6.474-1.56-1.524-3.081-3.087-4.637-4.616-2.141,2.157-4.3,4.3-6.444,6.453m-8.2-4.389c-.834.674-1.533,1.508-2.315,2.244a.774.774,0,0,0-.013,1.21q8.046,8.039,16.085,16.085a.765.765,0,0,0,1.142.072q1.08-1.062,2.143-2.143a.767.767,0,0,0-.062-1.161Q53.97,22.892,45.93,14.855a.771.771,0,0,0-.9-.232m-2.2,6.732c-2.215,2.233-4.448,4.446-6.666,6.674.82.816,1.634,1.639,2.457,2.454,2.224-2.221,4.437-4.452,6.674-6.66-.8-.841-1.634-1.656-2.466-2.469m4.009,4.02c-2.193,2.249-4.439,4.446-6.655,6.673q2.313,2.322,4.637,4.637C47.047,34.455,49.289,32.24,51.5,30c-1.566-1.524-3.074-3.111-4.656-4.62M34.566,29.61c-1.062,1.1-2.163,2.169-3.241,3.257q6.337,6.346,12.68,12.683c1.092-1.079,2.16-2.181,3.266-3.246a9.337,9.337,0,0,0-.809-.847q-5.788-5.795-11.581-11.584c-.1-.093-.207-.18-.316-.263m11.823,8.636c.813.825,1.635,1.641,2.454,2.46,1.955-1.935,3.891-3.887,5.839-5.829a7.519,7.519,0,0,0,.825-.882c-.829-.788-1.626-1.611-2.436-2.419-2.236,2.216-4.449,4.454-6.682,6.67M14.068,58.623a2.96,2.96,0,0,0,4.259,4.111Q19.7,61.373,21.059,60q-2.092-2.1-4.188-4.189C15.94,56.752,15,57.68,14.068,58.623Z" transform="translate(0 -1.878)"/>
      </g>
    </g>
  </g>
</svg>
