<svg xmlns="http://www.w3.org/2000/svg" width="231.667" height="149.255" viewBox="0 0 231.667 149.255">
  <g id="t2-c1" transform="translate(-946.667 -1055.872)">
    <g id="Group_107973" data-name="Group 107973" transform="translate(65.667 119.872)">
      <path id="Path_188960" data-name="Path 188960" d="M30,0H223.208a38.458,38.458,0,0,1,38.458,38.458v110.8H68.458A38.458,38.458,0,0,1,30,110.8Z" transform="translate(851 936)" fill="#3c6d9d"/>
      <path id="Path_145971" data-name="Path 145971" d="M7.49,0A7.49,7.49,0,1,1,0,7.49,7.49,7.49,0,0,1,7.49,0Z" transform="translate(912.424 1051.868)" fill="#64b5f6" opacity="0.444" style="mix-blend-mode: multiply;isolation: isolate"/>
      <g id="Group_78276" data-name="Group 78276" transform="translate(1043.933 1022.385)" opacity="0.32">
        <g id="Group_53306" data-name="Group 53306" transform="translate(0 0)">
          <path id="Path_99200" data-name="Path 99200" d="M415.388,50.785a.588.588,0,1,1-.587-.561A.575.575,0,0,1,415.388,50.785Z" transform="translate(-413.756 -49.766)" fill="#fff"/>
          <path id="Trazado_99200_-_Contorno" data-name="Trazado 99200 - Contorno" d="M414.759,49.724a1.02,1.02,0,1,1-1.045,1.019A1.034,1.034,0,0,1,414.759,49.724Z" transform="translate(-413.714 -49.724)" fill="#fff"/>
          <path id="Path_99201" data-name="Path 99201" d="M423.834,50.785a.588.588,0,1,1-.587-.561A.574.574,0,0,1,423.834,50.785Z" transform="translate(-416.919 -49.766)" fill="#fff"/>
          <path id="Trazado_99201_-_Contorno" data-name="Trazado 99201 - Contorno" d="M423.205,49.724a1.02,1.02,0,1,1-1.045,1.019A1.033,1.033,0,0,1,423.205,49.724Z" transform="translate(-416.877 -49.724)" fill="#fff"/>
          <path id="Path_99202" data-name="Path 99202" d="M432.28,50.785a.588.588,0,1,1-.587-.561A.575.575,0,0,1,432.28,50.785Z" transform="translate(-420.082 -49.766)" fill="#fff"/>
          <path id="Trazado_99202_-_Contorno" data-name="Trazado 99202 - Contorno" d="M431.651,49.724a1.02,1.02,0,1,1-1.045,1.019A1.033,1.033,0,0,1,431.651,49.724Z" transform="translate(-420.039 -49.724)" fill="#fff"/>
          <path id="Path_99203" data-name="Path 99203" d="M440.727,50.785a.588.588,0,1,1-.587-.561A.575.575,0,0,1,440.727,50.785Z" transform="translate(-423.245 -49.766)" fill="#fff"/>
          <path id="Trazado_99203_-_Contorno" data-name="Trazado 99203 - Contorno" d="M440.1,49.724a1.02,1.02,0,1,1-1.045,1.019A1.034,1.034,0,0,1,440.1,49.724Z" transform="translate(-423.203 -49.724)" fill="#fff"/>
          <path id="Path_99204" data-name="Path 99204" d="M449.173,50.785a.588.588,0,1,1-.587-.561A.575.575,0,0,1,449.173,50.785Z" transform="translate(-426.407 -49.766)" fill="#fff"/>
          <path id="Trazado_99204_-_Contorno" data-name="Trazado 99204 - Contorno" d="M448.544,49.724a1.02,1.02,0,1,1-1.045,1.019A1.033,1.033,0,0,1,448.544,49.724Z" transform="translate(-426.365 -49.724)" fill="#fff"/>
          <path id="Path_99205" data-name="Path 99205" d="M457.619,50.785a.588.588,0,1,1-.587-.561A.574.574,0,0,1,457.619,50.785Z" transform="translate(-429.57 -49.766)" fill="#fff"/>
          <path id="Trazado_99205_-_Contorno" data-name="Trazado 99205 - Contorno" d="M456.99,49.724a1.02,1.02,0,1,1-1.045,1.019A1.033,1.033,0,0,1,456.99,49.724Z" transform="translate(-429.528 -49.724)" fill="#fff"/>
          <path id="Path_99206" data-name="Path 99206" d="M466.066,50.785a.588.588,0,1,1-.587-.561A.575.575,0,0,1,466.066,50.785Z" transform="translate(-432.733 -49.766)" fill="#fff"/>
          <path id="Trazado_99206_-_Contorno" data-name="Trazado 99206 - Contorno" d="M465.437,49.724a1.02,1.02,0,1,1-1.045,1.019A1.034,1.034,0,0,1,465.437,49.724Z" transform="translate(-432.691 -49.724)" fill="#fff"/>
          <path id="Path_99207" data-name="Path 99207" d="M474.512,50.785a.588.588,0,1,1-.587-.561A.575.575,0,0,1,474.512,50.785Z" transform="translate(-435.896 -49.766)" fill="#fff"/>
          <path id="Trazado_99207_-_Contorno" data-name="Trazado 99207 - Contorno" d="M473.883,49.724a1.02,1.02,0,1,1-1.045,1.019A1.033,1.033,0,0,1,473.883,49.724Z" transform="translate(-435.854 -49.724)" fill="#fff"/>
          <path id="Path_99208" data-name="Path 99208" d="M482.958,50.785a.588.588,0,1,1-.587-.561A.575.575,0,0,1,482.958,50.785Z" transform="translate(-439.058 -49.766)" fill="#fff"/>
          <path id="Trazado_99208_-_Contorno" data-name="Trazado 99208 - Contorno" d="M482.329,49.724a1.02,1.02,0,1,1-1.045,1.019A1.033,1.033,0,0,1,482.329,49.724Z" transform="translate(-439.016 -49.724)" fill="#fff"/>
          <path id="Path_99209" data-name="Path 99209" d="M491.405,50.785a.588.588,0,1,1-.587-.561A.575.575,0,0,1,491.405,50.785Z" transform="translate(-442.222 -49.766)" fill="#fff"/>
          <path id="Trazado_99209_-_Contorno" data-name="Trazado 99209 - Contorno" d="M490.776,49.724a1.02,1.02,0,1,1-1.045,1.019A1.034,1.034,0,0,1,490.776,49.724Z" transform="translate(-442.179 -49.724)" fill="#fff"/>
          <path id="Path_99210" data-name="Path 99210" d="M499.851,50.785a.588.588,0,1,1-.587-.561A.575.575,0,0,1,499.851,50.785Z" transform="translate(-445.384 -49.766)" fill="#fff"/>
          <path id="Trazado_99210_-_Contorno" data-name="Trazado 99210 - Contorno" d="M499.222,49.724a1.02,1.02,0,1,1-1.045,1.019A1.034,1.034,0,0,1,499.222,49.724Z" transform="translate(-445.342 -49.724)" fill="#fff"/>
        </g>
        <g id="Group_53307" data-name="Group 53307" transform="translate(0 4.491)">
          <path id="Path_99211" data-name="Path 99211" d="M415.388,58.293a.588.588,0,1,1-.587-.561A.575.575,0,0,1,415.388,58.293Z" transform="translate(-413.756 -57.274)" fill="#fff"/>
          <path id="Trazado_99211_-_Contorno" data-name="Trazado 99211 - Contorno" d="M414.759,57.232a1.02,1.02,0,1,1-1.045,1.019A1.034,1.034,0,0,1,414.759,57.232Z" transform="translate(-413.714 -57.232)" fill="#fff"/>
          <path id="Path_99212" data-name="Path 99212" d="M423.834,58.293a.588.588,0,1,1-.587-.561A.574.574,0,0,1,423.834,58.293Z" transform="translate(-416.919 -57.274)" fill="#fff"/>
          <path id="Trazado_99212_-_Contorno" data-name="Trazado 99212 - Contorno" d="M423.205,57.232a1.02,1.02,0,1,1-1.045,1.019A1.033,1.033,0,0,1,423.205,57.232Z" transform="translate(-416.877 -57.232)" fill="#fff"/>
          <path id="Path_99213" data-name="Path 99213" d="M432.28,58.293a.588.588,0,1,1-.587-.561A.574.574,0,0,1,432.28,58.293Z" transform="translate(-420.082 -57.274)" fill="#fff"/>
          <path id="Trazado_99213_-_Contorno" data-name="Trazado 99213 - Contorno" d="M431.651,57.232a1.02,1.02,0,1,1-1.045,1.019A1.033,1.033,0,0,1,431.651,57.232Z" transform="translate(-420.039 -57.232)" fill="#fff"/>
          <path id="Path_99214" data-name="Path 99214" d="M440.727,58.293a.588.588,0,1,1-.587-.561A.575.575,0,0,1,440.727,58.293Z" transform="translate(-423.245 -57.274)" fill="#fff"/>
          <path id="Trazado_99214_-_Contorno" data-name="Trazado 99214 - Contorno" d="M440.1,57.232a1.02,1.02,0,1,1-1.045,1.019A1.034,1.034,0,0,1,440.1,57.232Z" transform="translate(-423.203 -57.232)" fill="#fff"/>
          <path id="Path_99215" data-name="Path 99215" d="M449.173,58.293a.588.588,0,1,1-.587-.561A.575.575,0,0,1,449.173,58.293Z" transform="translate(-426.407 -57.274)" fill="#fff"/>
          <path id="Trazado_99215_-_Contorno" data-name="Trazado 99215 - Contorno" d="M448.544,57.232a1.02,1.02,0,1,1-1.045,1.019A1.033,1.033,0,0,1,448.544,57.232Z" transform="translate(-426.365 -57.232)" fill="#fff"/>
          <path id="Path_99216" data-name="Path 99216" d="M457.619,58.293a.588.588,0,1,1-.587-.561A.574.574,0,0,1,457.619,58.293Z" transform="translate(-429.57 -57.274)" fill="#fff"/>
          <path id="Trazado_99216_-_Contorno" data-name="Trazado 99216 - Contorno" d="M456.99,57.232a1.02,1.02,0,1,1-1.045,1.019A1.033,1.033,0,0,1,456.99,57.232Z" transform="translate(-429.528 -57.232)" fill="#fff"/>
          <path id="Path_99217" data-name="Path 99217" d="M466.066,58.293a.588.588,0,1,1-.587-.561A.575.575,0,0,1,466.066,58.293Z" transform="translate(-432.733 -57.274)" fill="#fff"/>
          <path id="Trazado_99217_-_Contorno" data-name="Trazado 99217 - Contorno" d="M465.437,57.232a1.02,1.02,0,1,1-1.045,1.019A1.034,1.034,0,0,1,465.437,57.232Z" transform="translate(-432.691 -57.232)" fill="#fff"/>
          <path id="Path_99218" data-name="Path 99218" d="M474.512,58.293a.588.588,0,1,1-.587-.561A.575.575,0,0,1,474.512,58.293Z" transform="translate(-435.896 -57.274)" fill="#fff"/>
          <path id="Trazado_99218_-_Contorno" data-name="Trazado 99218 - Contorno" d="M473.883,57.232a1.02,1.02,0,1,1-1.045,1.019A1.033,1.033,0,0,1,473.883,57.232Z" transform="translate(-435.854 -57.232)" fill="#fff"/>
          <path id="Path_99219" data-name="Path 99219" d="M482.958,58.293a.588.588,0,1,1-.587-.561A.575.575,0,0,1,482.958,58.293Z" transform="translate(-439.058 -57.274)" fill="#fff"/>
          <path id="Trazado_99219_-_Contorno" data-name="Trazado 99219 - Contorno" d="M482.329,57.232a1.02,1.02,0,1,1-1.045,1.019A1.033,1.033,0,0,1,482.329,57.232Z" transform="translate(-439.016 -57.232)" fill="#fff"/>
          <path id="Path_99220" data-name="Path 99220" d="M491.405,58.293a.588.588,0,1,1-.587-.561A.575.575,0,0,1,491.405,58.293Z" transform="translate(-442.222 -57.274)" fill="#fff"/>
          <path id="Trazado_99220_-_Contorno" data-name="Trazado 99220 - Contorno" d="M490.776,57.232a1.02,1.02,0,1,1-1.045,1.019A1.034,1.034,0,0,1,490.776,57.232Z" transform="translate(-442.179 -57.232)" fill="#fff"/>
          <path id="Path_99221" data-name="Path 99221" d="M499.851,58.293a.588.588,0,1,1-.587-.561A.575.575,0,0,1,499.851,58.293Z" transform="translate(-445.384 -57.274)" fill="#fff"/>
          <path id="Trazado_99221_-_Contorno" data-name="Trazado 99221 - Contorno" d="M499.222,57.232a1.02,1.02,0,1,1-1.045,1.019A1.034,1.034,0,0,1,499.222,57.232Z" transform="translate(-445.342 -57.232)" fill="#fff"/>
        </g>
        <g id="Group_53308" data-name="Group 53308" transform="translate(0 8.983)">
          <ellipse id="Ellipse_3955" data-name="Ellipse 3955" cx="0.587" cy="0.561" rx="0.587" ry="0.561" transform="translate(0.458 0.458)" fill="#fff"/>
          <path id="Elipse_3955_-_Contorno" data-name="Elipse 3955 - Contorno" d="M.545-.5A1.033,1.033,0,0,1,1.59.519,1.033,1.033,0,0,1,.545,1.539,1.033,1.033,0,0,1-.5.519,1.033,1.033,0,0,1,.545-.5Z" transform="translate(0.5 0.5)" fill="#fff"/>
          <path id="Path_99222" data-name="Path 99222" d="M423.834,65.8a.588.588,0,1,1-.587-.561A.575.575,0,0,1,423.834,65.8Z" transform="translate(-416.919 -64.782)" fill="#fff"/>
          <path id="Trazado_99222_-_Contorno" data-name="Trazado 99222 - Contorno" d="M423.205,64.74a1.02,1.02,0,1,1-1.045,1.019A1.033,1.033,0,0,1,423.205,64.74Z" transform="translate(-416.877 -64.74)" fill="#fff"/>
          <ellipse id="Ellipse_3956" data-name="Ellipse 3956" cx="0.587" cy="0.561" rx="0.587" ry="0.561" transform="translate(11.025 0.458)" fill="#fff"/>
          <path id="Elipse_3956_-_Contorno" data-name="Elipse 3956 - Contorno" d="M.545-.5A1.033,1.033,0,0,1,1.59.519,1.033,1.033,0,0,1,.545,1.539,1.033,1.033,0,0,1-.5.519,1.033,1.033,0,0,1,.545-.5Z" transform="translate(11.067 0.5)" fill="#fff"/>
          <path id="Path_99223" data-name="Path 99223" d="M440.727,65.8a.588.588,0,1,1-.587-.561A.575.575,0,0,1,440.727,65.8Z" transform="translate(-423.245 -64.782)" fill="#fff"/>
          <path id="Trazado_99223_-_Contorno" data-name="Trazado 99223 - Contorno" d="M440.1,64.74a1.02,1.02,0,1,1-1.045,1.019A1.034,1.034,0,0,1,440.1,64.74Z" transform="translate(-423.202 -64.74)" fill="#fff"/>
          <path id="Path_99224" data-name="Path 99224" d="M449.173,65.8a.588.588,0,1,1-.587-.561A.575.575,0,0,1,449.173,65.8Z" transform="translate(-426.407 -64.782)" fill="#fff"/>
          <path id="Trazado_99224_-_Contorno" data-name="Trazado 99224 - Contorno" d="M448.544,64.74a1.02,1.02,0,1,1-1.045,1.019A1.033,1.033,0,0,1,448.544,64.74Z" transform="translate(-426.365 -64.74)" fill="#fff"/>
          <ellipse id="Ellipse_3957" data-name="Ellipse 3957" cx="0.587" cy="0.561" rx="0.587" ry="0.561" transform="translate(26.875 0.458)" fill="#fff"/>
          <path id="Elipse_3957_-_Contorno" data-name="Elipse 3957 - Contorno" d="M.545-.5A1.033,1.033,0,0,1,1.59.519,1.033,1.033,0,0,1,.545,1.539,1.033,1.033,0,0,1-.5.519,1.033,1.033,0,0,1,.545-.5Z" transform="translate(26.918 0.5)" fill="#fff"/>
          <path id="Path_99225" data-name="Path 99225" d="M466.066,65.8a.588.588,0,1,1-.587-.561A.575.575,0,0,1,466.066,65.8Z" transform="translate(-432.733 -64.782)" fill="#fff"/>
          <path id="Trazado_99225_-_Contorno" data-name="Trazado 99225 - Contorno" d="M465.437,64.74a1.02,1.02,0,1,1-1.045,1.019A1.033,1.033,0,0,1,465.437,64.74Z" transform="translate(-432.691 -64.74)" fill="#fff"/>
          <ellipse id="Ellipse_3958" data-name="Ellipse 3958" cx="0.587" cy="0.561" rx="0.587" ry="0.561" transform="translate(37.442 0.458)" fill="#fff"/>
          <path id="Elipse_3958_-_Contorno" data-name="Elipse 3958 - Contorno" d="M.545-.5A1.033,1.033,0,0,1,1.59.519,1.033,1.033,0,0,1,.545,1.539,1.033,1.033,0,0,1-.5.519,1.033,1.033,0,0,1,.545-.5Z" transform="translate(37.485 0.5)" fill="#fff"/>
          <ellipse id="Ellipse_3959" data-name="Ellipse 3959" cx="0.587" cy="0.561" rx="0.587" ry="0.561" transform="translate(42.726 0.458)" fill="#fff"/>
          <path id="Elipse_3959_-_Contorno" data-name="Elipse 3959 - Contorno" d="M.545-.5A1.033,1.033,0,0,1,1.59.519,1.033,1.033,0,0,1,.545,1.539,1.033,1.033,0,0,1-.5.519,1.033,1.033,0,0,1,.545-.5Z" transform="translate(42.768 0.5)" fill="#fff"/>
          <path id="Path_99226" data-name="Path 99226" d="M491.405,65.8a.588.588,0,1,1-.587-.561A.575.575,0,0,1,491.405,65.8Z" transform="translate(-442.222 -64.782)" fill="#fff"/>
          <path id="Trazado_99226_-_Contorno" data-name="Trazado 99226 - Contorno" d="M490.776,64.74a1.02,1.02,0,1,1-1.045,1.019A1.034,1.034,0,0,1,490.776,64.74Z" transform="translate(-442.179 -64.74)" fill="#fff"/>
          <path id="Path_99227" data-name="Path 99227" d="M499.851,65.8a.588.588,0,1,1-.587-.561A.575.575,0,0,1,499.851,65.8Z" transform="translate(-445.384 -64.782)" fill="#fff"/>
          <path id="Trazado_99227_-_Contorno" data-name="Trazado 99227 - Contorno" d="M499.222,64.74a1.02,1.02,0,1,1-1.045,1.019A1.034,1.034,0,0,1,499.222,64.74Z" transform="translate(-445.342 -64.74)" fill="#fff"/>
        </g>
        <g id="Group_53309" data-name="Group 53309" transform="translate(0 13.474)">
          <ellipse id="Ellipse_3960" data-name="Ellipse 3960" cx="0.587" cy="0.561" rx="0.587" ry="0.561" transform="translate(0.458 0.458)" fill="#fff"/>
          <path id="Elipse_3960_-_Contorno" data-name="Elipse 3960 - Contorno" d="M.545-.5A1.033,1.033,0,0,1,1.59.519,1.033,1.033,0,0,1,.545,1.539,1.033,1.033,0,0,1-.5.519,1.033,1.033,0,0,1,.545-.5Z" transform="translate(0.5 0.5)" fill="#fff"/>
          <path id="Path_99228" data-name="Path 99228" d="M423.834,73.309a.588.588,0,1,1-.587-.562A.574.574,0,0,1,423.834,73.309Z" transform="translate(-416.919 -72.289)" fill="#fff"/>
          <path id="Trazado_99228_-_Contorno" data-name="Trazado 99228 - Contorno" d="M423.205,74.286a1.02,1.02,0,1,1,1.045-1.019A1.034,1.034,0,0,1,423.205,74.286Z" transform="translate(-416.877 -72.247)" fill="#fff"/>
          <ellipse id="Ellipse_3961" data-name="Ellipse 3961" cx="0.587" cy="0.561" rx="0.587" ry="0.561" transform="translate(11.025 0.458)" fill="#fff"/>
          <path id="Elipse_3961_-_Contorno" data-name="Elipse 3961 - Contorno" d="M.545-.5A1.033,1.033,0,0,1,1.59.519,1.033,1.033,0,0,1,.545,1.539,1.033,1.033,0,0,1-.5.519,1.033,1.033,0,0,1,.545-.5Z" transform="translate(11.067 0.5)" fill="#fff"/>
          <path id="Path_99229" data-name="Path 99229" d="M440.727,73.309a.588.588,0,1,1-.587-.562A.575.575,0,0,1,440.727,73.309Z" transform="translate(-423.245 -72.289)" fill="#fff"/>
          <path id="Trazado_99229_-_Contorno" data-name="Trazado 99229 - Contorno" d="M440.1,74.286a1.02,1.02,0,1,1,1.045-1.019A1.033,1.033,0,0,1,440.1,74.286Z" transform="translate(-423.202 -72.247)" fill="#fff"/>
          <path id="Path_99230" data-name="Path 99230" d="M449.173,73.309a.588.588,0,1,1-.587-.562A.574.574,0,0,1,449.173,73.309Z" transform="translate(-426.407 -72.289)" fill="#fff"/>
          <path id="Trazado_99230_-_Contorno" data-name="Trazado 99230 - Contorno" d="M448.544,74.286a1.02,1.02,0,1,1,1.045-1.019A1.034,1.034,0,0,1,448.544,74.286Z" transform="translate(-426.365 -72.247)" fill="#fff"/>
          <ellipse id="Ellipse_3962" data-name="Ellipse 3962" cx="0.587" cy="0.561" rx="0.587" ry="0.561" transform="translate(26.875 0.458)" fill="#fff"/>
          <path id="Elipse_3962_-_Contorno" data-name="Elipse 3962 - Contorno" d="M.545-.5A1.033,1.033,0,0,1,1.59.519,1.033,1.033,0,0,1,.545,1.539,1.033,1.033,0,0,1-.5.519,1.033,1.033,0,0,1,.545-.5Z" transform="translate(26.918 0.5)" fill="#fff"/>
          <path id="Path_99231" data-name="Path 99231" d="M466.066,73.309a.588.588,0,1,1-.587-.562A.575.575,0,0,1,466.066,73.309Z" transform="translate(-432.733 -72.289)" fill="#fff"/>
          <path id="Trazado_99231_-_Contorno" data-name="Trazado 99231 - Contorno" d="M465.437,74.286a1.02,1.02,0,1,1,1.045-1.019A1.033,1.033,0,0,1,465.437,74.286Z" transform="translate(-432.691 -72.247)" fill="#fff"/>
          <ellipse id="Ellipse_3963" data-name="Ellipse 3963" cx="0.587" cy="0.561" rx="0.587" ry="0.561" transform="translate(37.442 0.458)" fill="#fff"/>
          <path id="Elipse_3963_-_Contorno" data-name="Elipse 3963 - Contorno" d="M.545-.5A1.033,1.033,0,0,1,1.59.519,1.033,1.033,0,0,1,.545,1.539,1.033,1.033,0,0,1-.5.519,1.033,1.033,0,0,1,.545-.5Z" transform="translate(37.485 0.5)" fill="#fff"/>
          <ellipse id="Ellipse_3964" data-name="Ellipse 3964" cx="0.587" cy="0.561" rx="0.587" ry="0.561" transform="translate(42.726 0.458)" fill="#fff"/>
          <path id="Elipse_3964_-_Contorno" data-name="Elipse 3964 - Contorno" d="M.545-.5A1.033,1.033,0,0,1,1.59.519,1.033,1.033,0,0,1,.545,1.539,1.033,1.033,0,0,1-.5.519,1.033,1.033,0,0,1,.545-.5Z" transform="translate(42.768 0.5)" fill="#fff"/>
          <path id="Path_99232" data-name="Path 99232" d="M491.405,73.309a.588.588,0,1,1-.587-.562A.575.575,0,0,1,491.405,73.309Z" transform="translate(-442.222 -72.289)" fill="#fff"/>
          <path id="Trazado_99232_-_Contorno" data-name="Trazado 99232 - Contorno" d="M490.776,74.286a1.02,1.02,0,1,1,1.045-1.019A1.033,1.033,0,0,1,490.776,74.286Z" transform="translate(-442.179 -72.247)" fill="#fff"/>
          <path id="Path_99233" data-name="Path 99233" d="M499.851,73.309a.588.588,0,1,1-.587-.562A.575.575,0,0,1,499.851,73.309Z" transform="translate(-445.384 -72.289)" fill="#fff"/>
          <path id="Trazado_99233_-_Contorno" data-name="Trazado 99233 - Contorno" d="M499.222,74.286a1.02,1.02,0,1,1,1.045-1.019A1.033,1.033,0,0,1,499.222,74.286Z" transform="translate(-445.342 -72.247)" fill="#fff"/>
        </g>
        <g id="Group_53310" data-name="Group 53310" transform="translate(0 17.965)">
          <path id="Path_99234" data-name="Path 99234" d="M415.388,80.817a.588.588,0,1,1-.587-.562A.575.575,0,0,1,415.388,80.817Z" transform="translate(-413.756 -79.797)" fill="#fff"/>
          <path id="Trazado_99234_-_Contorno" data-name="Trazado 99234 - Contorno" d="M414.759,81.794a1.02,1.02,0,1,1,1.045-1.019A1.033,1.033,0,0,1,414.759,81.794Z" transform="translate(-413.714 -79.755)" fill="#fff"/>
          <path id="Path_99235" data-name="Path 99235" d="M423.834,80.817a.588.588,0,1,1-.587-.562A.574.574,0,0,1,423.834,80.817Z" transform="translate(-416.919 -79.797)" fill="#fff"/>
          <path id="Trazado_99235_-_Contorno" data-name="Trazado 99235 - Contorno" d="M423.205,81.794a1.02,1.02,0,1,1,1.045-1.019A1.033,1.033,0,0,1,423.205,81.794Z" transform="translate(-416.877 -79.755)" fill="#fff"/>
          <path id="Path_99236" data-name="Path 99236" d="M432.28,80.817a.588.588,0,1,1-.587-.562A.574.574,0,0,1,432.28,80.817Z" transform="translate(-420.082 -79.797)" fill="#fff"/>
          <path id="Trazado_99236_-_Contorno" data-name="Trazado 99236 - Contorno" d="M431.651,81.794a1.02,1.02,0,1,1,1.045-1.019A1.034,1.034,0,0,1,431.651,81.794Z" transform="translate(-420.039 -79.755)" fill="#fff"/>
          <path id="Path_99237" data-name="Path 99237" d="M440.727,80.817a.588.588,0,1,1-.587-.562A.575.575,0,0,1,440.727,80.817Z" transform="translate(-423.245 -79.797)" fill="#fff"/>
          <path id="Trazado_99237_-_Contorno" data-name="Trazado 99237 - Contorno" d="M440.1,81.794a1.02,1.02,0,1,1,1.045-1.019A1.033,1.033,0,0,1,440.1,81.794Z" transform="translate(-423.203 -79.755)" fill="#fff"/>
          <path id="Path_99238" data-name="Path 99238" d="M449.173,80.817a.588.588,0,1,1-.587-.562A.574.574,0,0,1,449.173,80.817Z" transform="translate(-426.407 -79.797)" fill="#fff"/>
          <path id="Trazado_99238_-_Contorno" data-name="Trazado 99238 - Contorno" d="M448.544,81.794a1.02,1.02,0,1,1,1.045-1.019A1.034,1.034,0,0,1,448.544,81.794Z" transform="translate(-426.365 -79.755)" fill="#fff"/>
          <path id="Path_99239" data-name="Path 99239" d="M457.619,80.817a.588.588,0,1,1-.587-.562A.574.574,0,0,1,457.619,80.817Z" transform="translate(-429.57 -79.797)" fill="#fff"/>
          <path id="Trazado_99239_-_Contorno" data-name="Trazado 99239 - Contorno" d="M456.99,81.794a1.02,1.02,0,1,1,1.045-1.019A1.034,1.034,0,0,1,456.99,81.794Z" transform="translate(-429.528 -79.755)" fill="#fff"/>
          <path id="Path_99240" data-name="Path 99240" d="M466.066,80.817a.588.588,0,1,1-.587-.562A.575.575,0,0,1,466.066,80.817Z" transform="translate(-432.733 -79.797)" fill="#fff"/>
          <path id="Trazado_99240_-_Contorno" data-name="Trazado 99240 - Contorno" d="M465.437,81.794a1.02,1.02,0,1,1,1.045-1.019A1.033,1.033,0,0,1,465.437,81.794Z" transform="translate(-432.691 -79.755)" fill="#fff"/>
          <path id="Path_99241" data-name="Path 99241" d="M474.512,80.817a.588.588,0,1,1-.587-.562A.574.574,0,0,1,474.512,80.817Z" transform="translate(-435.896 -79.797)" fill="#fff"/>
          <path id="Trazado_99241_-_Contorno" data-name="Trazado 99241 - Contorno" d="M473.883,81.794a1.02,1.02,0,1,1,1.045-1.019A1.033,1.033,0,0,1,473.883,81.794Z" transform="translate(-435.854 -79.755)" fill="#fff"/>
          <path id="Path_99242" data-name="Path 99242" d="M482.958,80.817a.588.588,0,1,1-.587-.562A.574.574,0,0,1,482.958,80.817Z" transform="translate(-439.058 -79.797)" fill="#fff"/>
          <path id="Trazado_99242_-_Contorno" data-name="Trazado 99242 - Contorno" d="M482.329,81.794a1.02,1.02,0,1,1,1.045-1.019A1.034,1.034,0,0,1,482.329,81.794Z" transform="translate(-439.016 -79.755)" fill="#fff"/>
          <path id="Path_99243" data-name="Path 99243" d="M491.405,80.817a.588.588,0,1,1-.587-.562A.575.575,0,0,1,491.405,80.817Z" transform="translate(-442.222 -79.797)" fill="#fff"/>
          <path id="Trazado_99243_-_Contorno" data-name="Trazado 99243 - Contorno" d="M490.776,81.794a1.02,1.02,0,1,1,1.045-1.019A1.033,1.033,0,0,1,490.776,81.794Z" transform="translate(-442.179 -79.755)" fill="#fff"/>
          <path id="Path_99244" data-name="Path 99244" d="M499.851,80.817a.588.588,0,1,1-.587-.562A.575.575,0,0,1,499.851,80.817Z" transform="translate(-445.384 -79.797)" fill="#fff"/>
          <path id="Trazado_99244_-_Contorno" data-name="Trazado 99244 - Contorno" d="M499.222,81.794a1.02,1.02,0,1,1,1.045-1.019A1.033,1.033,0,0,1,499.222,81.794Z" transform="translate(-445.342 -79.755)" fill="#fff"/>
        </g>
        <g id="Group_53311" data-name="Group 53311" transform="translate(0 22.456)">
          <ellipse id="Ellipse_3965" data-name="Ellipse 3965" cx="0.587" cy="0.561" rx="0.587" ry="0.561" transform="translate(0.458 0.458)" fill="#fff"/>
          <path id="Elipse_3965_-_Contorno" data-name="Elipse 3965 - Contorno" d="M.545-.5A1.033,1.033,0,0,1,1.59.519,1.033,1.033,0,0,1,.545,1.539,1.033,1.033,0,0,1-.5.519,1.033,1.033,0,0,1,.545-.5Z" transform="translate(0.5 0.5)" fill="#fff"/>
          <path id="Path_99245" data-name="Path 99245" d="M423.834,88.325a.588.588,0,1,1-.587-.562A.574.574,0,0,1,423.834,88.325Z" transform="translate(-416.919 -87.305)" fill="#fff"/>
          <path id="Trazado_99245_-_Contorno" data-name="Trazado 99245 - Contorno" d="M423.205,89.3a1.02,1.02,0,1,1,1.045-1.019A1.033,1.033,0,0,1,423.205,89.3Z" transform="translate(-416.877 -87.263)" fill="#fff"/>
          <ellipse id="Ellipse_3966" data-name="Ellipse 3966" cx="0.587" cy="0.561" rx="0.587" ry="0.561" transform="translate(11.025 0.458)" fill="#fff"/>
          <path id="Elipse_3966_-_Contorno" data-name="Elipse 3966 - Contorno" d="M.545-.5A1.033,1.033,0,0,1,1.59.519,1.033,1.033,0,0,1,.545,1.539,1.033,1.033,0,0,1-.5.519,1.033,1.033,0,0,1,.545-.5Z" transform="translate(11.067 0.5)" fill="#fff"/>
          <path id="Path_99246" data-name="Path 99246" d="M440.727,88.325a.588.588,0,1,1-.587-.562A.575.575,0,0,1,440.727,88.325Z" transform="translate(-423.245 -87.305)" fill="#fff"/>
          <path id="Trazado_99246_-_Contorno" data-name="Trazado 99246 - Contorno" d="M440.1,89.3a1.02,1.02,0,1,1,1.045-1.019A1.033,1.033,0,0,1,440.1,89.3Z" transform="translate(-423.202 -87.263)" fill="#fff"/>
          <path id="Path_99247" data-name="Path 99247" d="M449.173,88.325a.588.588,0,1,1-.587-.562A.574.574,0,0,1,449.173,88.325Z" transform="translate(-426.407 -87.305)" fill="#fff"/>
          <path id="Trazado_99247_-_Contorno" data-name="Trazado 99247 - Contorno" d="M448.544,89.3a1.02,1.02,0,1,1,1.045-1.019A1.034,1.034,0,0,1,448.544,89.3Z" transform="translate(-426.365 -87.263)" fill="#fff"/>
          <ellipse id="Ellipse_3967" data-name="Ellipse 3967" cx="0.587" cy="0.561" rx="0.587" ry="0.561" transform="translate(26.875 0.458)" fill="#fff"/>
          <path id="Elipse_3967_-_Contorno" data-name="Elipse 3967 - Contorno" d="M.545-.5A1.033,1.033,0,0,1,1.59.519,1.033,1.033,0,0,1,.545,1.539,1.033,1.033,0,0,1-.5.519,1.033,1.033,0,0,1,.545-.5Z" transform="translate(26.918 0.5)" fill="#fff"/>
          <path id="Path_99248" data-name="Path 99248" d="M466.066,88.325a.588.588,0,1,1-.587-.562A.575.575,0,0,1,466.066,88.325Z" transform="translate(-432.733 -87.305)" fill="#fff"/>
          <path id="Trazado_99248_-_Contorno" data-name="Trazado 99248 - Contorno" d="M465.437,89.3a1.02,1.02,0,1,1,1.045-1.019A1.033,1.033,0,0,1,465.437,89.3Z" transform="translate(-432.691 -87.263)" fill="#fff"/>
          <ellipse id="Ellipse_3968" data-name="Ellipse 3968" cx="0.587" cy="0.561" rx="0.587" ry="0.561" transform="translate(37.442 0.458)" fill="#fff"/>
          <path id="Elipse_3968_-_Contorno" data-name="Elipse 3968 - Contorno" d="M.545-.5A1.033,1.033,0,0,1,1.59.519,1.033,1.033,0,0,1,.545,1.539,1.033,1.033,0,0,1-.5.519,1.033,1.033,0,0,1,.545-.5Z" transform="translate(37.485 0.5)" fill="#fff"/>
          <ellipse id="Ellipse_3969" data-name="Ellipse 3969" cx="0.587" cy="0.561" rx="0.587" ry="0.561" transform="translate(42.726 0.458)" fill="#fff"/>
          <path id="Elipse_3969_-_Contorno" data-name="Elipse 3969 - Contorno" d="M.545-.5A1.033,1.033,0,0,1,1.59.519,1.033,1.033,0,0,1,.545,1.539,1.033,1.033,0,0,1-.5.519,1.033,1.033,0,0,1,.545-.5Z" transform="translate(42.768 0.5)" fill="#fff"/>
          <path id="Path_99249" data-name="Path 99249" d="M491.405,88.325a.588.588,0,1,1-.587-.562A.575.575,0,0,1,491.405,88.325Z" transform="translate(-442.222 -87.305)" fill="#fff"/>
          <path id="Trazado_99249_-_Contorno" data-name="Trazado 99249 - Contorno" d="M490.776,89.3a1.02,1.02,0,1,1,1.045-1.019A1.033,1.033,0,0,1,490.776,89.3Z" transform="translate(-442.179 -87.263)" fill="#fff"/>
          <path id="Path_99250" data-name="Path 99250" d="M499.851,88.325a.588.588,0,1,1-.587-.562A.575.575,0,0,1,499.851,88.325Z" transform="translate(-445.384 -87.305)" fill="#fff"/>
          <path id="Trazado_99250_-_Contorno" data-name="Trazado 99250 - Contorno" d="M499.222,89.3a1.02,1.02,0,1,1,1.045-1.019A1.033,1.033,0,0,1,499.222,89.3Z" transform="translate(-445.342 -87.263)" fill="#fff"/>
        </g>
        <g id="Group_53312" data-name="Group 53312" transform="translate(0 26.948)">
          <ellipse id="Ellipse_3970" data-name="Ellipse 3970" cx="0.587" cy="0.561" rx="0.587" ry="0.561" transform="translate(0.458 0.458)" fill="#fff"/>
          <path id="Elipse_3970_-_Contorno" data-name="Elipse 3970 - Contorno" d="M.545-.5A1.033,1.033,0,0,1,1.59.519,1.033,1.033,0,0,1,.545,1.539,1.033,1.033,0,0,1-.5.519,1.033,1.033,0,0,1,.545-.5Z" transform="translate(0.5 0.5)" fill="#fff"/>
          <path id="Path_99251" data-name="Path 99251" d="M423.834,95.832a.588.588,0,1,1-.587-.561A.574.574,0,0,1,423.834,95.832Z" transform="translate(-416.919 -94.813)" fill="#fff"/>
          <path id="Trazado_99251_-_Contorno" data-name="Trazado 99251 - Contorno" d="M423.205,94.771a1.02,1.02,0,1,1-1.045,1.019A1.033,1.033,0,0,1,423.205,94.771Z" transform="translate(-416.877 -94.771)" fill="#fff"/>
          <ellipse id="Ellipse_3971" data-name="Ellipse 3971" cx="0.587" cy="0.561" rx="0.587" ry="0.561" transform="translate(11.025 0.458)" fill="#fff"/>
          <path id="Elipse_3971_-_Contorno" data-name="Elipse 3971 - Contorno" d="M.545-.5A1.033,1.033,0,0,1,1.59.519,1.033,1.033,0,0,1,.545,1.539,1.033,1.033,0,0,1-.5.519,1.033,1.033,0,0,1,.545-.5Z" transform="translate(11.067 0.5)" fill="#fff"/>
          <path id="Path_99252" data-name="Path 99252" d="M440.727,95.832a.588.588,0,1,1-.587-.561A.575.575,0,0,1,440.727,95.832Z" transform="translate(-423.245 -94.813)" fill="#fff"/>
          <path id="Trazado_99252_-_Contorno" data-name="Trazado 99252 - Contorno" d="M440.1,94.771a1.02,1.02,0,1,1-1.045,1.019A1.034,1.034,0,0,1,440.1,94.771Z" transform="translate(-423.202 -94.771)" fill="#fff"/>
          <path id="Path_99253" data-name="Path 99253" d="M449.173,95.832a.588.588,0,1,1-.587-.561A.575.575,0,0,1,449.173,95.832Z" transform="translate(-426.407 -94.813)" fill="#fff"/>
          <path id="Trazado_99253_-_Contorno" data-name="Trazado 99253 - Contorno" d="M448.544,94.771A1.02,1.02,0,1,1,447.5,95.79,1.033,1.033,0,0,1,448.544,94.771Z" transform="translate(-426.365 -94.771)" fill="#fff"/>
          <ellipse id="Ellipse_3972" data-name="Ellipse 3972" cx="0.587" cy="0.561" rx="0.587" ry="0.561" transform="translate(26.875 0.458)" fill="#fff"/>
          <path id="Elipse_3972_-_Contorno" data-name="Elipse 3972 - Contorno" d="M.545-.5A1.033,1.033,0,0,1,1.59.519,1.033,1.033,0,0,1,.545,1.539,1.033,1.033,0,0,1-.5.519,1.033,1.033,0,0,1,.545-.5Z" transform="translate(26.918 0.5)" fill="#fff"/>
          <path id="Path_99254" data-name="Path 99254" d="M466.066,95.832a.588.588,0,1,1-.587-.561A.575.575,0,0,1,466.066,95.832Z" transform="translate(-432.733 -94.813)" fill="#fff"/>
          <path id="Trazado_99254_-_Contorno" data-name="Trazado 99254 - Contorno" d="M465.437,94.771a1.02,1.02,0,1,1-1.045,1.019A1.033,1.033,0,0,1,465.437,94.771Z" transform="translate(-432.691 -94.771)" fill="#fff"/>
          <ellipse id="Ellipse_3973" data-name="Ellipse 3973" cx="0.587" cy="0.561" rx="0.587" ry="0.561" transform="translate(37.442 0.458)" fill="#fff"/>
          <path id="Elipse_3973_-_Contorno" data-name="Elipse 3973 - Contorno" d="M.545-.5A1.033,1.033,0,0,1,1.59.519,1.033,1.033,0,0,1,.545,1.539,1.033,1.033,0,0,1-.5.519,1.033,1.033,0,0,1,.545-.5Z" transform="translate(37.485 0.5)" fill="#fff"/>
          <ellipse id="Ellipse_3974" data-name="Ellipse 3974" cx="0.587" cy="0.561" rx="0.587" ry="0.561" transform="translate(42.726 0.458)" fill="#fff"/>
          <path id="Elipse_3974_-_Contorno" data-name="Elipse 3974 - Contorno" d="M.545-.5A1.033,1.033,0,0,1,1.59.519,1.033,1.033,0,0,1,.545,1.539,1.033,1.033,0,0,1-.5.519,1.033,1.033,0,0,1,.545-.5Z" transform="translate(42.768 0.5)" fill="#fff"/>
          <path id="Path_99255" data-name="Path 99255" d="M491.405,95.832a.588.588,0,1,1-.587-.561A.575.575,0,0,1,491.405,95.832Z" transform="translate(-442.222 -94.813)" fill="#fff"/>
          <path id="Trazado_99255_-_Contorno" data-name="Trazado 99255 - Contorno" d="M490.776,94.771a1.02,1.02,0,1,1-1.045,1.019A1.034,1.034,0,0,1,490.776,94.771Z" transform="translate(-442.179 -94.771)" fill="#fff"/>
          <path id="Path_99256" data-name="Path 99256" d="M499.851,95.832a.588.588,0,1,1-.587-.561A.575.575,0,0,1,499.851,95.832Z" transform="translate(-445.384 -94.813)" fill="#fff"/>
          <path id="Trazado_99256_-_Contorno" data-name="Trazado 99256 - Contorno" d="M499.222,94.771a1.02,1.02,0,1,1-1.045,1.019A1.034,1.034,0,0,1,499.222,94.771Z" transform="translate(-445.342 -94.771)" fill="#fff"/>
        </g>
        <g id="Group_53313" data-name="Group 53313" transform="translate(0 31.439)">
          <path id="Path_99257" data-name="Path 99257" d="M415.388,103.34a.588.588,0,1,1-.587-.561A.575.575,0,0,1,415.388,103.34Z" transform="translate(-413.756 -102.321)" fill="#fff"/>
          <path id="Trazado_99257_-_Contorno" data-name="Trazado 99257 - Contorno" d="M414.759,102.279a1.02,1.02,0,1,1-1.045,1.019A1.034,1.034,0,0,1,414.759,102.279Z" transform="translate(-413.714 -102.279)" fill="#fff"/>
          <path id="Path_99258" data-name="Path 99258" d="M423.834,103.34a.588.588,0,1,1-.587-.561A.574.574,0,0,1,423.834,103.34Z" transform="translate(-416.919 -102.321)" fill="#fff"/>
          <path id="Trazado_99258_-_Contorno" data-name="Trazado 99258 - Contorno" d="M423.205,102.279a1.02,1.02,0,1,1-1.045,1.019A1.033,1.033,0,0,1,423.205,102.279Z" transform="translate(-416.877 -102.279)" fill="#fff"/>
          <path id="Path_99259" data-name="Path 99259" d="M432.28,103.34a.588.588,0,1,1-.587-.561A.575.575,0,0,1,432.28,103.34Z" transform="translate(-420.082 -102.321)" fill="#fff"/>
          <path id="Trazado_99259_-_Contorno" data-name="Trazado 99259 - Contorno" d="M431.651,102.279a1.02,1.02,0,1,1-1.045,1.019A1.033,1.033,0,0,1,431.651,102.279Z" transform="translate(-420.039 -102.279)" fill="#fff"/>
          <path id="Path_99260" data-name="Path 99260" d="M440.727,103.34a.588.588,0,1,1-.587-.561A.575.575,0,0,1,440.727,103.34Z" transform="translate(-423.245 -102.321)" fill="#fff"/>
          <path id="Trazado_99260_-_Contorno" data-name="Trazado 99260 - Contorno" d="M440.1,102.279a1.02,1.02,0,1,1-1.045,1.019A1.034,1.034,0,0,1,440.1,102.279Z" transform="translate(-423.203 -102.279)" fill="#fff"/>
          <path id="Path_99261" data-name="Path 99261" d="M449.173,103.34a.588.588,0,1,1-.587-.561A.575.575,0,0,1,449.173,103.34Z" transform="translate(-426.407 -102.321)" fill="#fff"/>
          <path id="Trazado_99261_-_Contorno" data-name="Trazado 99261 - Contorno" d="M448.544,102.279A1.02,1.02,0,1,1,447.5,103.3,1.033,1.033,0,0,1,448.544,102.279Z" transform="translate(-426.365 -102.279)" fill="#fff"/>
          <path id="Path_99262" data-name="Path 99262" d="M457.619,103.34a.588.588,0,1,1-.587-.561A.574.574,0,0,1,457.619,103.34Z" transform="translate(-429.57 -102.321)" fill="#fff"/>
          <path id="Trazado_99262_-_Contorno" data-name="Trazado 99262 - Contorno" d="M456.99,102.279a1.02,1.02,0,1,1-1.045,1.019A1.033,1.033,0,0,1,456.99,102.279Z" transform="translate(-429.528 -102.279)" fill="#fff"/>
          <path id="Path_99263" data-name="Path 99263" d="M466.066,103.34a.588.588,0,1,1-.587-.561A.575.575,0,0,1,466.066,103.34Z" transform="translate(-432.733 -102.321)" fill="#fff"/>
          <path id="Trazado_99263_-_Contorno" data-name="Trazado 99263 - Contorno" d="M465.437,102.279a1.02,1.02,0,1,1-1.045,1.019A1.033,1.033,0,0,1,465.437,102.279Z" transform="translate(-432.691 -102.279)" fill="#fff"/>
          <path id="Path_99264" data-name="Path 99264" d="M474.512,103.34a.588.588,0,1,1-.587-.561A.575.575,0,0,1,474.512,103.34Z" transform="translate(-435.896 -102.321)" fill="#fff"/>
          <path id="Trazado_99264_-_Contorno" data-name="Trazado 99264 - Contorno" d="M473.883,102.279a1.02,1.02,0,1,1-1.045,1.019A1.033,1.033,0,0,1,473.883,102.279Z" transform="translate(-435.854 -102.279)" fill="#fff"/>
          <path id="Path_99265" data-name="Path 99265" d="M482.958,103.34a.588.588,0,1,1-.587-.561A.575.575,0,0,1,482.958,103.34Z" transform="translate(-439.058 -102.321)" fill="#fff"/>
          <path id="Trazado_99265_-_Contorno" data-name="Trazado 99265 - Contorno" d="M482.329,102.279a1.02,1.02,0,1,1-1.045,1.019A1.033,1.033,0,0,1,482.329,102.279Z" transform="translate(-439.016 -102.279)" fill="#fff"/>
          <path id="Path_99266" data-name="Path 99266" d="M491.405,103.34a.588.588,0,1,1-.587-.561A.575.575,0,0,1,491.405,103.34Z" transform="translate(-442.222 -102.321)" fill="#fff"/>
          <path id="Trazado_99266_-_Contorno" data-name="Trazado 99266 - Contorno" d="M490.776,102.279a1.02,1.02,0,1,1-1.045,1.019A1.034,1.034,0,0,1,490.776,102.279Z" transform="translate(-442.179 -102.279)" fill="#fff"/>
          <path id="Path_99267" data-name="Path 99267" d="M499.851,103.34a.588.588,0,1,1-.587-.561A.575.575,0,0,1,499.851,103.34Z" transform="translate(-445.384 -102.321)" fill="#fff"/>
          <path id="Trazado_99267_-_Contorno" data-name="Trazado 99267 - Contorno" d="M499.222,102.279a1.02,1.02,0,1,1-1.045,1.019A1.034,1.034,0,0,1,499.222,102.279Z" transform="translate(-445.342 -102.279)" fill="#fff"/>
        </g>
        <g id="Group_53314" data-name="Group 53314" transform="translate(0 35.931)">
          <ellipse id="Ellipse_3975" data-name="Ellipse 3975" cx="0.587" cy="0.561" rx="0.587" ry="0.561" transform="translate(0.458 0.458)" fill="#fff"/>
          <path id="Elipse_3975_-_Contorno" data-name="Elipse 3975 - Contorno" d="M.545-.5A1.033,1.033,0,0,1,1.59.519,1.033,1.033,0,0,1,.545,1.539,1.033,1.033,0,0,1-.5.519,1.033,1.033,0,0,1,.545-.5Z" transform="translate(0.5 0.5)" fill="#fff"/>
          <path id="Path_99268" data-name="Path 99268" d="M423.834,110.848a.588.588,0,1,1-.587-.561A.575.575,0,0,1,423.834,110.848Z" transform="translate(-416.919 -109.829)" fill="#fff"/>
          <path id="Trazado_99268_-_Contorno" data-name="Trazado 99268 - Contorno" d="M423.205,109.787a1.02,1.02,0,1,1-1.045,1.019A1.033,1.033,0,0,1,423.205,109.787Z" transform="translate(-416.877 -109.787)" fill="#fff"/>
          <ellipse id="Ellipse_3976" data-name="Ellipse 3976" cx="0.587" cy="0.561" rx="0.587" ry="0.561" transform="translate(11.025 0.458)" fill="#fff"/>
          <path id="Elipse_3976_-_Contorno" data-name="Elipse 3976 - Contorno" d="M.545-.5A1.033,1.033,0,0,1,1.59.519,1.033,1.033,0,0,1,.545,1.539,1.033,1.033,0,0,1-.5.519,1.033,1.033,0,0,1,.545-.5Z" transform="translate(11.067 0.5)" fill="#fff"/>
          <path id="Path_99269" data-name="Path 99269" d="M440.727,110.848a.588.588,0,1,1-.587-.561A.575.575,0,0,1,440.727,110.848Z" transform="translate(-423.245 -109.829)" fill="#fff"/>
          <path id="Trazado_99269_-_Contorno" data-name="Trazado 99269 - Contorno" d="M440.1,109.787a1.02,1.02,0,1,1-1.045,1.019A1.034,1.034,0,0,1,440.1,109.787Z" transform="translate(-423.202 -109.787)" fill="#fff"/>
          <path id="Path_99270" data-name="Path 99270" d="M449.173,110.848a.588.588,0,1,1-.587-.561A.575.575,0,0,1,449.173,110.848Z" transform="translate(-426.407 -109.829)" fill="#fff"/>
          <path id="Trazado_99270_-_Contorno" data-name="Trazado 99270 - Contorno" d="M448.544,109.787a1.02,1.02,0,1,1-1.045,1.019A1.033,1.033,0,0,1,448.544,109.787Z" transform="translate(-426.365 -109.787)" fill="#fff"/>
          <ellipse id="Ellipse_3977" data-name="Ellipse 3977" cx="0.587" cy="0.561" rx="0.587" ry="0.561" transform="translate(26.875 0.458)" fill="#fff"/>
          <path id="Elipse_3977_-_Contorno" data-name="Elipse 3977 - Contorno" d="M.545-.5A1.033,1.033,0,0,1,1.59.519,1.033,1.033,0,0,1,.545,1.539,1.033,1.033,0,0,1-.5.519,1.033,1.033,0,0,1,.545-.5Z" transform="translate(26.918 0.5)" fill="#fff"/>
          <path id="Path_99271" data-name="Path 99271" d="M466.066,110.848a.588.588,0,1,1-.587-.561A.575.575,0,0,1,466.066,110.848Z" transform="translate(-432.733 -109.829)" fill="#fff"/>
          <path id="Trazado_99271_-_Contorno" data-name="Trazado 99271 - Contorno" d="M465.437,109.787a1.02,1.02,0,1,1-1.045,1.019A1.033,1.033,0,0,1,465.437,109.787Z" transform="translate(-432.691 -109.787)" fill="#fff"/>
          <ellipse id="Ellipse_3978" data-name="Ellipse 3978" cx="0.587" cy="0.561" rx="0.587" ry="0.561" transform="translate(37.442 0.458)" fill="#fff"/>
          <path id="Elipse_3978_-_Contorno" data-name="Elipse 3978 - Contorno" d="M.545-.5A1.033,1.033,0,0,1,1.59.519,1.033,1.033,0,0,1,.545,1.539,1.033,1.033,0,0,1-.5.519,1.033,1.033,0,0,1,.545-.5Z" transform="translate(37.485 0.5)" fill="#fff"/>
          <ellipse id="Ellipse_3979" data-name="Ellipse 3979" cx="0.587" cy="0.561" rx="0.587" ry="0.561" transform="translate(42.726 0.458)" fill="#fff"/>
          <path id="Elipse_3979_-_Contorno" data-name="Elipse 3979 - Contorno" d="M.545-.5A1.033,1.033,0,0,1,1.59.519,1.033,1.033,0,0,1,.545,1.539,1.033,1.033,0,0,1-.5.519,1.033,1.033,0,0,1,.545-.5Z" transform="translate(42.768 0.5)" fill="#fff"/>
          <path id="Path_99272" data-name="Path 99272" d="M491.405,110.848a.588.588,0,1,1-.587-.561A.575.575,0,0,1,491.405,110.848Z" transform="translate(-442.222 -109.829)" fill="#fff"/>
          <path id="Trazado_99272_-_Contorno" data-name="Trazado 99272 - Contorno" d="M490.776,109.787a1.02,1.02,0,1,1-1.045,1.019A1.034,1.034,0,0,1,490.776,109.787Z" transform="translate(-442.179 -109.787)" fill="#fff"/>
          <path id="Path_99273" data-name="Path 99273" d="M499.851,110.848a.588.588,0,1,1-.587-.561A.575.575,0,0,1,499.851,110.848Z" transform="translate(-445.384 -109.829)" fill="#fff"/>
          <path id="Trazado_99273_-_Contorno" data-name="Trazado 99273 - Contorno" d="M499.222,109.787a1.02,1.02,0,1,1-1.045,1.019A1.034,1.034,0,0,1,499.222,109.787Z" transform="translate(-445.342 -109.787)" fill="#fff"/>
        </g>
        <g id="Group_53315" data-name="Group 53315" transform="translate(0 40.421)">
          <path id="Path_99274" data-name="Path 99274" d="M415.388,118.356a.588.588,0,1,1-.587-.562A.575.575,0,0,1,415.388,118.356Z" transform="translate(-413.756 -117.336)" fill="#fff"/>
          <path id="Trazado_99274_-_Contorno" data-name="Trazado 99274 - Contorno" d="M414.759,119.333a1.02,1.02,0,1,1,1.045-1.02A1.033,1.033,0,0,1,414.759,119.333Z" transform="translate(-413.714 -117.294)" fill="#fff"/>
          <path id="Path_99275" data-name="Path 99275" d="M423.834,118.356a.588.588,0,1,1-.587-.562A.575.575,0,0,1,423.834,118.356Z" transform="translate(-416.919 -117.336)" fill="#fff"/>
          <path id="Trazado_99275_-_Contorno" data-name="Trazado 99275 - Contorno" d="M423.205,119.333a1.02,1.02,0,1,1,1.045-1.02A1.034,1.034,0,0,1,423.205,119.333Z" transform="translate(-416.877 -117.294)" fill="#fff"/>
          <path id="Path_99276" data-name="Path 99276" d="M432.28,118.356a.588.588,0,1,1-.587-.562A.575.575,0,0,1,432.28,118.356Z" transform="translate(-420.082 -117.336)" fill="#fff"/>
          <path id="Trazado_99276_-_Contorno" data-name="Trazado 99276 - Contorno" d="M431.651,119.333a1.02,1.02,0,1,1,1.045-1.02A1.034,1.034,0,0,1,431.651,119.333Z" transform="translate(-420.039 -117.294)" fill="#fff"/>
          <path id="Path_99277" data-name="Path 99277" d="M440.727,118.356a.588.588,0,1,1-.587-.562A.575.575,0,0,1,440.727,118.356Z" transform="translate(-423.245 -117.336)" fill="#fff"/>
          <path id="Trazado_99277_-_Contorno" data-name="Trazado 99277 - Contorno" d="M440.1,119.333a1.02,1.02,0,1,1,1.045-1.02A1.033,1.033,0,0,1,440.1,119.333Z" transform="translate(-423.203 -117.294)" fill="#fff"/>
          <path id="Path_99278" data-name="Path 99278" d="M449.173,118.356a.588.588,0,1,1-.587-.562A.575.575,0,0,1,449.173,118.356Z" transform="translate(-426.407 -117.336)" fill="#fff"/>
          <path id="Trazado_99278_-_Contorno" data-name="Trazado 99278 - Contorno" d="M448.544,119.333a1.02,1.02,0,1,1,1.045-1.02A1.034,1.034,0,0,1,448.544,119.333Z" transform="translate(-426.365 -117.294)" fill="#fff"/>
          <path id="Path_99279" data-name="Path 99279" d="M457.619,118.356a.588.588,0,1,1-.587-.562A.575.575,0,0,1,457.619,118.356Z" transform="translate(-429.57 -117.336)" fill="#fff"/>
          <path id="Trazado_99279_-_Contorno" data-name="Trazado 99279 - Contorno" d="M456.99,119.333a1.02,1.02,0,1,1,1.045-1.02A1.034,1.034,0,0,1,456.99,119.333Z" transform="translate(-429.528 -117.294)" fill="#fff"/>
          <path id="Path_99280" data-name="Path 99280" d="M466.066,118.356a.588.588,0,1,1-.587-.562A.575.575,0,0,1,466.066,118.356Z" transform="translate(-432.733 -117.336)" fill="#fff"/>
          <path id="Trazado_99280_-_Contorno" data-name="Trazado 99280 - Contorno" d="M465.437,119.333a1.02,1.02,0,1,1,1.045-1.02A1.034,1.034,0,0,1,465.437,119.333Z" transform="translate(-432.691 -117.294)" fill="#fff"/>
          <path id="Path_99281" data-name="Path 99281" d="M474.512,118.356a.588.588,0,1,1-.587-.562A.575.575,0,0,1,474.512,118.356Z" transform="translate(-435.896 -117.336)" fill="#fff"/>
          <path id="Trazado_99281_-_Contorno" data-name="Trazado 99281 - Contorno" d="M473.883,119.333a1.02,1.02,0,1,1,1.045-1.02A1.034,1.034,0,0,1,473.883,119.333Z" transform="translate(-435.854 -117.294)" fill="#fff"/>
          <path id="Path_99282" data-name="Path 99282" d="M482.958,118.356a.588.588,0,1,1-.587-.562A.575.575,0,0,1,482.958,118.356Z" transform="translate(-439.058 -117.336)" fill="#fff"/>
          <path id="Trazado_99282_-_Contorno" data-name="Trazado 99282 - Contorno" d="M482.329,119.333a1.02,1.02,0,1,1,1.045-1.02A1.034,1.034,0,0,1,482.329,119.333Z" transform="translate(-439.016 -117.294)" fill="#fff"/>
          <path id="Path_99283" data-name="Path 99283" d="M491.405,118.356a.588.588,0,1,1-.587-.562A.575.575,0,0,1,491.405,118.356Z" transform="translate(-442.222 -117.336)" fill="#fff"/>
          <path id="Trazado_99283_-_Contorno" data-name="Trazado 99283 - Contorno" d="M490.776,119.333a1.02,1.02,0,1,1,1.045-1.02A1.033,1.033,0,0,1,490.776,119.333Z" transform="translate(-442.179 -117.294)" fill="#fff"/>
          <path id="Path_99284" data-name="Path 99284" d="M499.851,118.356a.588.588,0,1,1-.587-.562A.575.575,0,0,1,499.851,118.356Z" transform="translate(-445.384 -117.336)" fill="#fff"/>
          <path id="Trazado_99284_-_Contorno" data-name="Trazado 99284 - Contorno" d="M499.222,119.333a1.02,1.02,0,1,1,1.045-1.02A1.033,1.033,0,0,1,499.222,119.333Z" transform="translate(-445.342 -117.294)" fill="#fff"/>
        </g>
        <g id="Group_53316" data-name="Group 53316" transform="translate(0 44.913)">
          <ellipse id="Ellipse_3980" data-name="Ellipse 3980" cx="0.587" cy="0.561" rx="0.587" ry="0.561" transform="translate(0.458 0.458)" fill="#fff"/>
          <path id="Elipse_3980_-_Contorno" data-name="Elipse 3980 - Contorno" d="M.545-.5A1.033,1.033,0,0,1,1.59.519,1.033,1.033,0,0,1,.545,1.539,1.033,1.033,0,0,1-.5.519,1.033,1.033,0,0,1,.545-.5Z" transform="translate(0.5 0.5)" fill="#fff"/>
          <path id="Path_99285" data-name="Path 99285" d="M423.834,125.864a.588.588,0,1,1-.587-.562A.574.574,0,0,1,423.834,125.864Z" transform="translate(-416.919 -124.844)" fill="#fff"/>
          <path id="Trazado_99285_-_Contorno" data-name="Trazado 99285 - Contorno" d="M423.205,126.841a1.02,1.02,0,1,1,1.045-1.019A1.034,1.034,0,0,1,423.205,126.841Z" transform="translate(-416.877 -124.802)" fill="#fff"/>
          <ellipse id="Ellipse_3981" data-name="Ellipse 3981" cx="0.587" cy="0.561" rx="0.587" ry="0.561" transform="translate(11.025 0.458)" fill="#fff"/>
          <path id="Elipse_3981_-_Contorno" data-name="Elipse 3981 - Contorno" d="M.545-.5A1.033,1.033,0,0,1,1.59.519,1.033,1.033,0,0,1,.545,1.539,1.033,1.033,0,0,1-.5.519,1.033,1.033,0,0,1,.545-.5Z" transform="translate(11.067 0.5)" fill="#fff"/>
          <path id="Path_99286" data-name="Path 99286" d="M440.727,125.864a.588.588,0,1,1-.587-.562A.575.575,0,0,1,440.727,125.864Z" transform="translate(-423.245 -124.844)" fill="#fff"/>
          <path id="Trazado_99286_-_Contorno" data-name="Trazado 99286 - Contorno" d="M440.1,126.841a1.02,1.02,0,1,1,1.045-1.019A1.033,1.033,0,0,1,440.1,126.841Z" transform="translate(-423.202 -124.802)" fill="#fff"/>
          <path id="Path_99287" data-name="Path 99287" d="M449.173,125.864a.588.588,0,1,1-.587-.562A.574.574,0,0,1,449.173,125.864Z" transform="translate(-426.407 -124.844)" fill="#fff"/>
          <path id="Trazado_99287_-_Contorno" data-name="Trazado 99287 - Contorno" d="M448.544,126.841a1.02,1.02,0,1,1,1.045-1.019A1.034,1.034,0,0,1,448.544,126.841Z" transform="translate(-426.365 -124.802)" fill="#fff"/>
          <ellipse id="Ellipse_3982" data-name="Ellipse 3982" cx="0.587" cy="0.561" rx="0.587" ry="0.561" transform="translate(26.875 0.458)" fill="#fff"/>
          <path id="Elipse_3982_-_Contorno" data-name="Elipse 3982 - Contorno" d="M.545-.5A1.033,1.033,0,0,1,1.59.519,1.033,1.033,0,0,1,.545,1.539,1.033,1.033,0,0,1-.5.519,1.033,1.033,0,0,1,.545-.5Z" transform="translate(26.918 0.5)" fill="#fff"/>
          <path id="Path_99288" data-name="Path 99288" d="M466.066,125.864a.588.588,0,1,1-.587-.562A.575.575,0,0,1,466.066,125.864Z" transform="translate(-432.733 -124.844)" fill="#fff"/>
          <path id="Trazado_99288_-_Contorno" data-name="Trazado 99288 - Contorno" d="M465.437,126.841a1.02,1.02,0,1,1,1.045-1.019A1.033,1.033,0,0,1,465.437,126.841Z" transform="translate(-432.691 -124.802)" fill="#fff"/>
          <ellipse id="Ellipse_3983" data-name="Ellipse 3983" cx="0.587" cy="0.561" rx="0.587" ry="0.561" transform="translate(37.442 0.458)" fill="#fff"/>
          <path id="Elipse_3983_-_Contorno" data-name="Elipse 3983 - Contorno" d="M.545-.5A1.033,1.033,0,0,1,1.59.519,1.033,1.033,0,0,1,.545,1.539,1.033,1.033,0,0,1-.5.519,1.033,1.033,0,0,1,.545-.5Z" transform="translate(37.485 0.5)" fill="#fff"/>
          <ellipse id="Ellipse_3984" data-name="Ellipse 3984" cx="0.587" cy="0.561" rx="0.587" ry="0.561" transform="translate(42.726 0.458)" fill="#fff"/>
          <path id="Elipse_3984_-_Contorno" data-name="Elipse 3984 - Contorno" d="M.545-.5A1.033,1.033,0,0,1,1.59.519,1.033,1.033,0,0,1,.545,1.539,1.033,1.033,0,0,1-.5.519,1.033,1.033,0,0,1,.545-.5Z" transform="translate(42.768 0.5)" fill="#fff"/>
          <path id="Path_99289" data-name="Path 99289" d="M491.405,125.864a.588.588,0,1,1-.587-.562A.575.575,0,0,1,491.405,125.864Z" transform="translate(-442.222 -124.844)" fill="#fff"/>
          <path id="Trazado_99289_-_Contorno" data-name="Trazado 99289 - Contorno" d="M490.776,126.841a1.02,1.02,0,1,1,1.045-1.019A1.033,1.033,0,0,1,490.776,126.841Z" transform="translate(-442.179 -124.802)" fill="#fff"/>
          <path id="Path_99290" data-name="Path 99290" d="M499.851,125.864a.588.588,0,1,1-.587-.562A.575.575,0,0,1,499.851,125.864Z" transform="translate(-445.384 -124.844)" fill="#fff"/>
          <path id="Trazado_99290_-_Contorno" data-name="Trazado 99290 - Contorno" d="M499.222,126.841a1.02,1.02,0,1,1,1.045-1.019A1.033,1.033,0,0,1,499.222,126.841Z" transform="translate(-445.342 -124.802)" fill="#fff"/>
        </g>
        <g id="Group_53317" data-name="Group 53317" transform="translate(0 49.405)">
          <ellipse id="Ellipse_3985" data-name="Ellipse 3985" cx="0.587" cy="0.561" rx="0.587" ry="0.561" transform="translate(0.458 0.458)" fill="#fff"/>
          <path id="Elipse_3985_-_Contorno" data-name="Elipse 3985 - Contorno" d="M.545-.5A1.033,1.033,0,0,1,1.59.519,1.033,1.033,0,0,1,.545,1.539,1.033,1.033,0,0,1-.5.519,1.033,1.033,0,0,1,.545-.5Z" transform="translate(0.5 0.5)" fill="#fff"/>
          <path id="Path_99291" data-name="Path 99291" d="M423.834,133.372a.588.588,0,1,1-.587-.562A.574.574,0,0,1,423.834,133.372Z" transform="translate(-416.919 -132.352)" fill="#fff"/>
          <path id="Trazado_99291_-_Contorno" data-name="Trazado 99291 - Contorno" d="M423.205,134.349a1.02,1.02,0,1,1,1.045-1.019A1.034,1.034,0,0,1,423.205,134.349Z" transform="translate(-416.877 -132.31)" fill="#fff"/>
          <ellipse id="Ellipse_3986" data-name="Ellipse 3986" cx="0.587" cy="0.561" rx="0.587" ry="0.561" transform="translate(11.025 0.458)" fill="#fff"/>
          <path id="Elipse_3986_-_Contorno" data-name="Elipse 3986 - Contorno" d="M.545-.5A1.033,1.033,0,0,1,1.59.519,1.033,1.033,0,0,1,.545,1.539,1.033,1.033,0,0,1-.5.519,1.033,1.033,0,0,1,.545-.5Z" transform="translate(11.067 0.5)" fill="#fff"/>
          <path id="Path_99292" data-name="Path 99292" d="M440.727,133.372a.588.588,0,1,1-.587-.562A.575.575,0,0,1,440.727,133.372Z" transform="translate(-423.245 -132.352)" fill="#fff"/>
          <path id="Trazado_99292_-_Contorno" data-name="Trazado 99292 - Contorno" d="M440.1,134.349a1.02,1.02,0,1,1,1.045-1.019A1.033,1.033,0,0,1,440.1,134.349Z" transform="translate(-423.202 -132.31)" fill="#fff"/>
          <path id="Path_99293" data-name="Path 99293" d="M449.173,133.372a.588.588,0,1,1-.587-.562A.574.574,0,0,1,449.173,133.372Z" transform="translate(-426.407 -132.352)" fill="#fff"/>
          <path id="Trazado_99293_-_Contorno" data-name="Trazado 99293 - Contorno" d="M448.544,134.349a1.02,1.02,0,1,1,1.045-1.019A1.034,1.034,0,0,1,448.544,134.349Z" transform="translate(-426.365 -132.31)" fill="#fff"/>
          <ellipse id="Ellipse_3987" data-name="Ellipse 3987" cx="0.587" cy="0.561" rx="0.587" ry="0.561" transform="translate(26.875 0.458)" fill="#fff"/>
          <path id="Elipse_3987_-_Contorno" data-name="Elipse 3987 - Contorno" d="M.545-.5A1.033,1.033,0,0,1,1.59.519,1.033,1.033,0,0,1,.545,1.539,1.033,1.033,0,0,1-.5.519,1.033,1.033,0,0,1,.545-.5Z" transform="translate(26.918 0.5)" fill="#fff"/>
          <path id="Path_99294" data-name="Path 99294" d="M466.066,133.372a.588.588,0,1,1-.587-.562A.575.575,0,0,1,466.066,133.372Z" transform="translate(-432.733 -132.352)" fill="#fff"/>
          <path id="Trazado_99294_-_Contorno" data-name="Trazado 99294 - Contorno" d="M465.437,134.349a1.02,1.02,0,1,1,1.045-1.019A1.033,1.033,0,0,1,465.437,134.349Z" transform="translate(-432.691 -132.31)" fill="#fff"/>
          <ellipse id="Ellipse_3988" data-name="Ellipse 3988" cx="0.587" cy="0.561" rx="0.587" ry="0.561" transform="translate(37.442 0.458)" fill="#fff"/>
          <path id="Elipse_3988_-_Contorno" data-name="Elipse 3988 - Contorno" d="M.545-.5A1.033,1.033,0,0,1,1.59.519,1.033,1.033,0,0,1,.545,1.539,1.033,1.033,0,0,1-.5.519,1.033,1.033,0,0,1,.545-.5Z" transform="translate(37.485 0.5)" fill="#fff"/>
          <ellipse id="Ellipse_3989" data-name="Ellipse 3989" cx="0.587" cy="0.561" rx="0.587" ry="0.561" transform="translate(42.726 0.458)" fill="#fff"/>
          <path id="Elipse_3989_-_Contorno" data-name="Elipse 3989 - Contorno" d="M.545-.5A1.033,1.033,0,0,1,1.59.519,1.033,1.033,0,0,1,.545,1.539,1.033,1.033,0,0,1-.5.519,1.033,1.033,0,0,1,.545-.5Z" transform="translate(42.768 0.5)" fill="#fff"/>
          <path id="Path_99295" data-name="Path 99295" d="M491.405,133.372a.588.588,0,1,1-.587-.562A.575.575,0,0,1,491.405,133.372Z" transform="translate(-442.222 -132.352)" fill="#fff"/>
          <path id="Trazado_99295_-_Contorno" data-name="Trazado 99295 - Contorno" d="M490.776,134.349a1.02,1.02,0,1,1,1.045-1.019A1.033,1.033,0,0,1,490.776,134.349Z" transform="translate(-442.179 -132.31)" fill="#fff"/>
          <path id="Path_99296" data-name="Path 99296" d="M499.851,133.372a.588.588,0,1,1-.587-.562A.575.575,0,0,1,499.851,133.372Z" transform="translate(-445.384 -132.352)" fill="#fff"/>
          <path id="Trazado_99296_-_Contorno" data-name="Trazado 99296 - Contorno" d="M499.222,134.349a1.02,1.02,0,1,1,1.045-1.019A1.033,1.033,0,0,1,499.222,134.349Z" transform="translate(-445.342 -132.31)" fill="#fff"/>
        </g>
      </g>
      <path id="Lnea_138" data-name="Lnea 138" d="M-.456,92.878l0-4.972H.457l0,4.972Zm-.006-12.3,0-7.325H.45l0,7.325ZM-.469,65.929l0-7.325H.443l0,7.325ZM-.476,51.278l0-7.325H.436l0,7.325ZM-.483,36.627l0-7.325H.43l0,7.325ZM-.49,21.976l0-7.325H.423l0,7.325ZM-.5,7.326-.5,0H.416l0,7.325Z" transform="translate(890.657 946.53)" fill="#3c6d9d" style="mix-blend-mode: multiply;isolation: isolate"/>
    </g>
    <g id="_000000ff" data-name="#000000ff" transform="translate(1026.856 1088.729)">
      <path id="Path_188972" data-name="Path 188972" d="M45.815,0H105.96a4.179,4.179,0,0,1,3.469,2.353,7.126,7.126,0,0,1,.4,3.193q-.007,26.271-.007,52.543a1.243,1.243,0,0,1-1.3,1.336,1.293,1.293,0,0,1-1.144-1.5q0-26.355,0-52.713c-.015-.767.114-1.677-.489-2.271-.592-.62-1.516-.485-2.289-.5q-28.486.012-56.973,0c-.013,2.376.02,4.751-.015,7.127a1.22,1.22,0,0,1-1.42,1.2A1.239,1.239,0,0,1,45.19,9.457c-.024-2.314.011-4.629-.016-6.943a4.8,4.8,0,0,0-2.945,2,4.4,4.4,0,0,0-.667,2.346c-.148,2.55-.108,5.105-.129,7.657.065,18.953.038,37.907.039,56.86a7.51,7.51,0,0,1,3.709-1.64q.012-26.465,0-52.93a9.418,9.418,0,0,1,.082-1.919,1.212,1.212,0,0,1,1.715-.662,1.321,1.321,0,0,1,.649,1.263q.007,27.1,0,54.2c19.322,0,38.646.069,57.968-.072a1.778,1.778,0,0,0,1.757-1.72c.082-1.371-.042-2.748.054-4.117a1.2,1.2,0,0,1,1.6-.987,1.271,1.271,0,0,1,.813,1.315q.01,7.433,0,14.869a4.416,4.416,0,0,1-4.166,4.561H90.542a1.249,1.249,0,0,1-1.1-1.3A1.227,1.227,0,0,1,90.731,81.1c3.489-.021,6.979,0,10.469-.01q0-4.472,0-8.946-19.866,0-39.734,0c0,1.57,0,3.141,0,4.711a2.108,2.108,0,0,1-.364,1.361,1.732,1.732,0,0,1-2.23.459c-.964-.558-1.881-1.2-2.831-1.779-.871.55-1.736,1.111-2.609,1.659a1.876,1.876,0,0,1-1.462.328,1.727,1.727,0,0,1-1.341-1.71c-.02-1.676,0-3.353-.007-5.029-1.624.011-3.249-.021-4.871.021a4.446,4.446,0,0,0,.16,8.888c12.936.031,25.873.021,38.811.041a1.281,1.281,0,0,1,1.4.994,1.244,1.244,0,0,1-1.142,1.452H45.934a7.132,7.132,0,0,1-6.91-7.331q0-34.434,0-68.869A7.082,7.082,0,0,1,45.815,0m57.834,72.144q0,4.474,0,8.948a8.81,8.81,0,0,0,2.555-.166,2.009,2.009,0,0,0,1.175-1.945c.008-2.426,0-4.853,0-7.279a8.621,8.621,0,0,1-3.732.442m-50.577,0c0,1.245,0,2.49,0,3.735,1.116-.594,2.173-1.8,3.559-1.4a17.135,17.135,0,0,1,2.387,1.4V72.147C57.036,72.142,55.053,72.146,53.073,72.146Z" transform="translate(-39.023)" fill="#fff"/>
      <path id="Path_188973" data-name="Path 188973" d="M161.572,63.719a1.213,1.213,0,0,1,1.836.024c.379.434.264,1.049.323,1.578a3.848,3.848,0,0,1,2.332,2.317,6.6,6.6,0,0,1,2.526.543c1.328.69,2.387,1.814,3.774,2.408a13.735,13.735,0,0,0,2.518.826,1.839,1.839,0,0,1,.354-1.056,1.228,1.228,0,0,1,1.78-.018,1.9,1.9,0,0,1,.359,1.282,1.946,1.946,0,0,1,1.194.281,1.218,1.218,0,0,1,.055,1.855,1.955,1.955,0,0,1-1.281.348c1.141,2.73,2.312,5.447,3.418,8.191a1.8,1.8,0,0,1,1.829,1.331,4.587,4.587,0,0,1-1.775,4.244c-.573.346-1.131.713-1.7,1.064a4.146,4.146,0,0,1-2.178.335c-.919-.021-1.839.036-2.758-.028-.961-.042-1.658-.777-2.462-1.2a4.512,4.512,0,0,1-2.04-4.49,1.77,1.77,0,0,1,1.811-1.227c1.144-2.793,2.335-5.566,3.482-8.357-.645-.22-1.327-.305-1.969-.527a14.855,14.855,0,0,1-4.577-2.472,3.613,3.613,0,0,0-2.293-.87,4.232,4.232,0,0,1-2.438,2.454c.016,4.233,0,8.465.008,12.7a3.713,3.713,0,0,1,3.028,2.087,3.76,3.76,0,0,1,.126,2.839,3.753,3.753,0,0,1,2.323,1.868,3.64,3.64,0,0,1-.437,3.985,3.7,3.7,0,0,1-2.891,1.315c-2.185.01-4.37,0-6.554,0a3.756,3.756,0,0,1-2.7-1.023,3.63,3.63,0,0,1-.848-3.994,3.737,3.737,0,0,1,2.361-2.128,3.667,3.667,0,0,1,3.141-4.95q0-6.354,0-12.707a4.18,4.18,0,0,1-2.425-2.441,4.119,4.119,0,0,0-1.4.289c-.736.362-1.322.955-2.015,1.385a14.393,14.393,0,0,1-5.306,2.115,5.293,5.293,0,0,0,.2.648c1.1,2.593,2.175,5.194,3.273,7.786a1.725,1.725,0,0,1,1.795,1.318,4.664,4.664,0,0,1-1.692,4.175c-.566.367-1.144.713-1.708,1.079a4.886,4.886,0,0,1-2.616.374,16.007,16.007,0,0,1-2.921-.117,10.742,10.742,0,0,1-1.934-1.129,4.208,4.208,0,0,1-1.979-2.9,2.482,2.482,0,0,1,.331-2.265,1.9,1.9,0,0,1,1.4-.53c1.149-2.736,2.288-5.474,3.441-8.209a1.337,1.337,0,0,1-1.173-1.079,1.274,1.274,0,0,1,1.147-1.41,1.461,1.461,0,0,1,.883-1.614,1.294,1.294,0,0,1,1.612,1.375,12.038,12.038,0,0,0,3.7-1.526,14.375,14.375,0,0,1,2.844-1.823,6.232,6.232,0,0,1,2.157-.387,3.989,3.989,0,0,1,2.368-2.343c.042-.537-.06-1.168.339-1.6m.374,3.947a1.358,1.358,0,1,0,1.872,1.475,1.371,1.371,0,0,0-1.872-1.475m-13.032,9.893c-.677,1.594-1.341,3.195-2.013,4.792h4.027c-.672-1.6-1.335-3.2-2.013-4.792m25.206,4.792h4.027c-.669-1.589-1.328-3.18-2-4.766-.721,1.568-1.344,3.18-2.025,4.766m-29.2,2.459c.261,1.075,1.4,1.379,2.2,1.958a29.919,29.919,0,0,0,3.568.036c.791-.586,1.951-.933,2.216-2-2.66-.007-5.321-.011-7.98,0m27.226-.007c.189.9,1.095,1.234,1.762,1.718a1.355,1.355,0,0,0,.749.3c1.088.011,2.177,0,3.267,0,.762-.63,1.945-.938,2.2-2.017q-3.987-.017-7.974,0m-11.136,3.007a1.183,1.183,0,0,0-.659,1.3,1.267,1.267,0,0,0,1.408.956,6.215,6.215,0,0,0,2.315-.189,1.183,1.183,0,0,0-.354-2.142,8.923,8.923,0,0,0-2.71.072m-1.969,4.725a1.17,1.17,0,0,0-1.087,1.392,1.184,1.184,0,0,0,1.188.958c2.237.018,4.476.01,6.714,0a1.185,1.185,0,1,0,0-2.364C163.586,92.521,161.311,92.5,159.041,92.536Z" transform="translate(-125.539 -52.981)" fill="#fff"/>
      <path id="Path_188974" data-name="Path 188974" d="M188.05,303.93a2.226,2.226,0,0,1,.9-.14q11.178.01,22.354,0a1.575,1.575,0,0,1,1.157.339,1.221,1.221,0,0,1-.029,1.8,1.619,1.619,0,0,1-1.118.308q-11.268,0-22.535,0a1.306,1.306,0,0,1-1.261-.662A1.212,1.212,0,0,1,188.05,303.93Z" transform="translate(-163.168 -254.222)" fill="#fff"/>
      <path id="Path_188975" data-name="Path 188975" d="M188.5,335.31c7.651-.041,15.305-.01,22.958-.015a1.23,1.23,0,1,1-.011,2.443q-10.847.01-21.693,0a8.552,8.552,0,0,1-1.475-.055,1.207,1.207,0,0,1,.222-2.376Z" transform="translate(-163.154 -280.581)" fill="#fff"/>
      <path id="Path_188976" data-name="Path 188976" d="M188.047,366.93a2.21,2.21,0,0,1,.893-.14q11.173.007,22.346,0a1.587,1.587,0,0,1,1.176.346,1.219,1.219,0,0,1-.122,1.86,1.744,1.744,0,0,1-1.051.246q-11.254-.01-22.509,0a1.31,1.31,0,0,1-1.273-.666A1.216,1.216,0,0,1,188.047,366.93Z" transform="translate(-163.165 -306.942)" fill="#fff"/>
    </g>
  </g>
</svg>
