<svg xmlns="http://www.w3.org/2000/svg" xmlns:xlink="http://www.w3.org/1999/xlink" width="400" height="290" viewBox="0 0 400 290">
  <defs>
    <filter id="Ellipse_4972" x="129" y="37" width="143" height="143" filterUnits="userSpaceOnUse">
      <feOffset dy="3" input="SourceAlpha"/>
      <feGaussianBlur stdDeviation="3" result="blur"/>
      <feFlood flood-opacity="0.161"/>
      <feComposite operator="in" in2="blur"/>
      <feComposite in="SourceGraphic"/>
    </filter>
  </defs>
  <g id="t4-f2" transform="translate(-6490 8842)">
    <rect id="Rectangle_40142" data-name="Rectangle 40142" width="400" height="290" rx="20" transform="translate(6490 -8842)" fill="#faf4dc"/>
    <path id="Path_190272" data-name="Path 190272" d="M28.019,15.7a5.712,5.712,0,0,1-.881,2.884,5.316,5.316,0,0,1-2.261,1.939,7.7,7.7,0,0,1-3.325.688A6.142,6.142,0,0,1,16.7,19.206a8.294,8.294,0,0,1-1.772-5.672v-.773a9.467,9.467,0,0,1,.8-4.023,6.064,6.064,0,0,1,2.3-2.664,6.429,6.429,0,0,1,3.48-.94,6.741,6.741,0,0,1,4.576,1.5,5.921,5.921,0,0,1,1.966,4.13h-3.76a2.8,2.8,0,0,0-.72-2.052,2.96,2.96,0,0,0-2.062-.623,2.252,2.252,0,0,0-2.062,1.053,6.766,6.766,0,0,0-.687,3.362v1.106a7.487,7.487,0,0,0,.628,3.577,2.3,2.3,0,0,0,2.165,1.074,2.9,2.9,0,0,0,1.987-.612,2.6,2.6,0,0,0,.73-1.944Zm1.16-.623a6.86,6.86,0,0,1,.677-3.1A4.84,4.84,0,0,1,31.8,9.893a5.856,5.856,0,0,1,2.976-.73,5.344,5.344,0,0,1,4.114,1.617,6.2,6.2,0,0,1,1.5,4.4v.129a6.019,6.019,0,0,1-1.509,4.313,5.359,5.359,0,0,1-4.087,1.6,5.42,5.42,0,0,1-3.985-1.488,5.819,5.819,0,0,1-1.622-4.034Zm3.62.226a4.325,4.325,0,0,0,.5,2.363,1.682,1.682,0,0,0,1.493.752q1.934,0,1.977-2.976v-.365q0-3.126-2-3.126-1.815,0-1.966,2.7ZM45.41,9.377l.118,1.364a4,4,0,0,1,3.319-1.579,2.942,2.942,0,0,1,2.976,1.751,3.868,3.868,0,0,1,3.416-1.751q3.534,0,3.631,4.275V21H55.239V13.663a2.216,2.216,0,0,0-.3-1.3,1.28,1.28,0,0,0-1.1-.408,1.715,1.715,0,0,0-1.6.956l.011.15V21H48.622V13.685a2.329,2.329,0,0,0-.29-1.321,1.277,1.277,0,0,0-1.106-.408,1.736,1.736,0,0,0-1.59.956V21h-3.62V9.377Zm26.318,5.9A7.009,7.009,0,0,1,70.509,19.6a3.909,3.909,0,0,1-3.292,1.617,3.351,3.351,0,0,1-2.632-1.171v5.425h-3.62V9.377h3.384l.107,1.074A3.351,3.351,0,0,1,67.2,9.162a3.941,3.941,0,0,1,3.341,1.584A7.1,7.1,0,0,1,71.729,15.1Zm-3.62-.226q0-3.094-1.8-3.094a1.7,1.7,0,0,0-1.719.924v4.576a1.759,1.759,0,0,0,1.74.967q1.729,0,1.783-2.986Zm10.839,6.166a5.975,5.975,0,0,1-4.329-1.6,5.509,5.509,0,0,1-1.654-4.152v-.3a7.138,7.138,0,0,1,.661-3.147,4.834,4.834,0,0,1,1.928-2.111,5.821,5.821,0,0,1,3.008-.747,5.031,5.031,0,0,1,3.867,1.52,5.973,5.973,0,0,1,1.418,4.238v1.407h-7.2a2.609,2.609,0,0,0,.849,1.536,2.525,2.525,0,0,0,1.7.559,3.254,3.254,0,0,0,2.686-1.2l1.654,1.955a4.624,4.624,0,0,1-1.917,1.488A6.48,6.48,0,0,1,78.947,21.215Zm-.408-9.26q-1.59,0-1.891,2.105H80.3v-.279a1.793,1.793,0,0,0-.44-1.348A1.753,1.753,0,0,0,78.539,11.955ZM89.518,6.487v2.89H91.43v2.514H89.518v5.317a1.358,1.358,0,0,0,.236.913,1.268,1.268,0,0,0,.935.258,5.311,5.311,0,0,0,.9-.064V20.9a6.681,6.681,0,0,1-2.041.312,3.792,3.792,0,0,1-2.761-.881,3.61,3.61,0,0,1-.892-2.675V11.891H84.415V9.377H85.9V6.487Zm8.959,14.728a5.975,5.975,0,0,1-4.329-1.6,5.509,5.509,0,0,1-1.654-4.152v-.3a7.138,7.138,0,0,1,.661-3.147,4.834,4.834,0,0,1,1.928-2.111,5.821,5.821,0,0,1,3.008-.747,5.031,5.031,0,0,1,3.867,1.52,5.973,5.973,0,0,1,1.418,4.238v1.407h-7.2a2.609,2.609,0,0,0,.849,1.536,2.525,2.525,0,0,0,1.7.559,3.254,3.254,0,0,0,2.686-1.2l1.654,1.955a4.624,4.624,0,0,1-1.917,1.488A6.48,6.48,0,0,1,98.477,21.215Zm-.408-9.26q-1.59,0-1.891,2.105H99.83v-.279a1.793,1.793,0,0,0-.44-1.348A1.753,1.753,0,0,0,98.068,11.955Zm10.087-2.578.118,1.364a3.942,3.942,0,0,1,3.319-1.579,3.316,3.316,0,0,1,2.712,1.085,5.165,5.165,0,0,1,.929,3.266V21H111.6V13.663a1.961,1.961,0,0,0-.354-1.294,1.64,1.64,0,0,0-1.289-.414,1.726,1.726,0,0,0-1.579.838V21h-3.62V9.377Zm14,9.045a1.61,1.61,0,0,0,1.182-.414,1.517,1.517,0,0,0,.408-1.155h3.395a4.018,4.018,0,0,1-1.37,3.137,5.1,5.1,0,0,1-3.529,1.225,5.158,5.158,0,0,1-4-1.59,6.264,6.264,0,0,1-1.461-4.4v-.15a7.08,7.08,0,0,1,.65-3.11,4.732,4.732,0,0,1,1.875-2.073,5.589,5.589,0,0,1,2.9-.725,5.03,5.03,0,0,1,3.6,1.257,4.458,4.458,0,0,1,1.332,3.405h-3.395a1.987,1.987,0,0,0-.44-1.386,1.52,1.52,0,0,0-1.182-.483q-1.407,0-1.644,1.794a12.658,12.658,0,0,0-.075,1.568,4.972,4.972,0,0,0,.419,2.428A1.45,1.45,0,0,0,122.152,18.422ZM132.486,21h-3.631V9.377h3.631ZM128.641,6.369a1.63,1.63,0,0,1,.559-1.275,2.364,2.364,0,0,1,2.9,0,1.63,1.63,0,0,1,.559,1.275,1.63,1.63,0,0,1-.559,1.275,2.364,2.364,0,0,1-2.9,0A1.63,1.63,0,0,1,128.641,6.369ZM141.263,21a4.088,4.088,0,0,1-.344-1.042,3.366,3.366,0,0,1-2.793,1.257,4.124,4.124,0,0,1-2.793-.994,3.163,3.163,0,0,1-1.149-2.5,3.251,3.251,0,0,1,1.4-2.857,7.114,7.114,0,0,1,4.061-.967h1.117v-.615q0-1.608-1.386-1.608a1.133,1.133,0,0,0-1.289,1.274h-3.62a3.245,3.245,0,0,1,1.434-2.736,6.027,6.027,0,0,1,3.658-1.051,5.284,5.284,0,0,1,3.513,1.085,3.772,3.772,0,0,1,1.321,2.976v5.146a5.269,5.269,0,0,0,.494,2.449V21ZM139,18.637a2.019,2.019,0,0,0,1.123-.29,1.818,1.818,0,0,0,.639-.655V15.833h-1.053q-1.891,0-1.891,1.7a1.036,1.036,0,0,0,.333.8A1.205,1.205,0,0,0,139,18.637Zm13.481-.9a.836.836,0,0,0-.483-.741,7.353,7.353,0,0,0-1.837-.58,8.376,8.376,0,0,1-2.234-.79,3.743,3.743,0,0,1-1.343-1.187,2.835,2.835,0,0,1-.462-1.6,3.212,3.212,0,0,1,1.321-2.637A5.443,5.443,0,0,1,150.9,9.162a6.03,6.03,0,0,1,3.7,1.042,3.258,3.258,0,0,1,1.4,2.739h-3.631q0-1.4-1.472-1.4a1.459,1.459,0,0,0-.956.317.981.981,0,0,0-.387.79.9.9,0,0,0,.473.784,4.466,4.466,0,0,0,1.509.494,13.042,13.042,0,0,1,1.821.462q2.621.9,2.621,3.233a3.044,3.044,0,0,1-1.413,2.589,6.2,6.2,0,0,1-3.658,1,6.322,6.322,0,0,1-2.664-.537,4.455,4.455,0,0,1-1.826-1.461,3.308,3.308,0,0,1-.655-1.944h3.384a1.4,1.4,0,0,0,.537,1.176,2.209,2.209,0,0,0,1.321.371,1.738,1.738,0,0,0,1.112-.3A.962.962,0,0,0,152.478,17.734ZM163.939,21V11.891h-1.687V9.377h1.687V8.453A4.016,4.016,0,0,1,165.11,5.37a4.626,4.626,0,0,1,3.287-1.1,7.2,7.2,0,0,1,1.7.226l.011,2.664a3.307,3.307,0,0,0-.892-.1q-1.644,0-1.644,1.418v.892h2.267v2.514H167.57V21Zm14.094-1.257a3.732,3.732,0,0,1-3.1,1.472,3.661,3.661,0,0,1-2.9-1.112,4.676,4.676,0,0,1-.983-3.2V9.377h3.62v7.552a1.3,1.3,0,0,0,1.45,1.493,1.892,1.892,0,0,0,1.772-.892V9.377h3.642V21h-3.395Zm8.809-10.366.118,1.364a3.942,3.942,0,0,1,3.319-1.579,3.316,3.316,0,0,1,2.712,1.085,5.165,5.165,0,0,1,.929,3.266V21H190.29V13.663a1.961,1.961,0,0,0-.354-1.294,1.64,1.64,0,0,0-1.289-.414,1.726,1.726,0,0,0-1.579.838V21h-3.62V9.377Zm8.626,5.726a7.1,7.1,0,0,1,1.192-4.351,3.925,3.925,0,0,1,3.33-1.59,3.338,3.338,0,0,1,2.621,1.225V4.5h3.631V21h-3.255l-.183-1.246a3.428,3.428,0,0,1-2.836,1.461,3.918,3.918,0,0,1-3.287-1.59A7.325,7.325,0,0,1,195.468,15.1Zm3.62.226q0,3.094,1.8,3.094a1.782,1.782,0,0,0,1.719-1.01V12.986a1.734,1.734,0,0,0-1.7-1.031q-1.676,0-1.815,2.707ZM214.847,21a4.088,4.088,0,0,1-.344-1.042,3.366,3.366,0,0,1-2.793,1.257,4.124,4.124,0,0,1-2.793-.994,3.163,3.163,0,0,1-1.149-2.5,3.251,3.251,0,0,1,1.4-2.857,7.114,7.114,0,0,1,4.061-.967h1.117v-.615q0-1.608-1.386-1.608a1.133,1.133,0,0,0-1.289,1.274h-3.62a3.245,3.245,0,0,1,1.434-2.736,6.027,6.027,0,0,1,3.658-1.051,5.284,5.284,0,0,1,3.513,1.085,3.772,3.772,0,0,1,1.321,2.976v5.146a5.269,5.269,0,0,0,.494,2.449V21Zm-2.267-2.363a2.019,2.019,0,0,0,1.123-.29,1.818,1.818,0,0,0,.639-.655V15.833h-1.053q-1.891,0-1.891,1.7a1.036,1.036,0,0,0,.333.8A1.205,1.205,0,0,0,212.58,18.637ZM223.4,9.377l.118,1.364a4,4,0,0,1,3.319-1.579,2.942,2.942,0,0,1,2.976,1.751,3.868,3.868,0,0,1,3.416-1.751q3.534,0,3.631,4.275V21h-3.631V13.663a2.216,2.216,0,0,0-.3-1.3,1.28,1.28,0,0,0-1.1-.408,1.715,1.715,0,0,0-1.6.956l.011.15V21h-3.631V13.685a2.329,2.329,0,0,0-.29-1.321,1.277,1.277,0,0,0-1.106-.408,1.736,1.736,0,0,0-1.59.956V21H220V9.377Zm21.151,11.838a5.975,5.975,0,0,1-4.329-1.6,5.509,5.509,0,0,1-1.654-4.152v-.3a7.138,7.138,0,0,1,.661-3.147,4.834,4.834,0,0,1,1.928-2.111,5.821,5.821,0,0,1,3.008-.747,5.031,5.031,0,0,1,3.867,1.52,5.973,5.973,0,0,1,1.418,4.238v1.407h-7.2a2.609,2.609,0,0,0,.849,1.536,2.525,2.525,0,0,0,1.7.559,3.254,3.254,0,0,0,2.686-1.2l1.654,1.955a4.624,4.624,0,0,1-1.917,1.488A6.48,6.48,0,0,1,244.549,21.215Zm-.408-9.26q-1.59,0-1.891,2.105H245.9v-.279a1.793,1.793,0,0,0-.44-1.348A1.753,1.753,0,0,0,244.141,11.955Zm10.087-2.578.118,1.364a3.942,3.942,0,0,1,3.319-1.579,3.316,3.316,0,0,1,2.712,1.085,5.165,5.165,0,0,1,.929,3.266V21h-3.631V13.663a1.961,1.961,0,0,0-.354-1.294,1.64,1.64,0,0,0-1.289-.414,1.726,1.726,0,0,0-1.579.838V21h-3.62V9.377Zm13.3-2.89v2.89h1.912v2.514h-1.912v5.317a1.358,1.358,0,0,0,.236.913,1.268,1.268,0,0,0,.935.258,5.311,5.311,0,0,0,.9-.064V20.9a6.681,6.681,0,0,1-2.041.312,3.792,3.792,0,0,1-2.761-.881,3.61,3.61,0,0,1-.892-2.675V11.891h-1.482V9.377h1.482V6.487ZM277.409,21a4.087,4.087,0,0,1-.344-1.042,3.366,3.366,0,0,1-2.793,1.257,4.124,4.124,0,0,1-2.793-.994,3.163,3.163,0,0,1-1.149-2.5,3.251,3.251,0,0,1,1.4-2.857,7.114,7.114,0,0,1,4.061-.967H276.9v-.615q0-1.608-1.386-1.608a1.133,1.133,0,0,0-1.289,1.274h-3.62a3.245,3.245,0,0,1,1.434-2.736A6.027,6.027,0,0,1,275.7,9.162a5.284,5.284,0,0,1,3.513,1.085,3.772,3.772,0,0,1,1.321,2.976v5.146a5.269,5.269,0,0,0,.494,2.449V21Zm-2.267-2.363a2.019,2.019,0,0,0,1.123-.29,1.818,1.818,0,0,0,.639-.655V15.833h-1.053q-1.891,0-1.891,1.7a1.036,1.036,0,0,0,.333.8A1.205,1.205,0,0,0,275.143,18.637ZM286.357,21h-3.631V4.5h3.631Zm7.853.215a5.975,5.975,0,0,1-4.329-1.6,5.509,5.509,0,0,1-1.654-4.152v-.3a7.138,7.138,0,0,1,.661-3.147,4.834,4.834,0,0,1,1.928-2.111,5.821,5.821,0,0,1,3.008-.747,5.031,5.031,0,0,1,3.867,1.52,5.973,5.973,0,0,1,1.418,4.238v1.407h-7.2a2.609,2.609,0,0,0,.849,1.536,2.525,2.525,0,0,0,1.7.559,3.254,3.254,0,0,0,2.686-1.2l1.654,1.955a4.624,4.624,0,0,1-1.917,1.488A6.48,6.48,0,0,1,294.21,21.215Zm-.408-9.26q-1.59,0-1.891,2.105h3.652v-.279a1.793,1.793,0,0,0-.44-1.348A1.753,1.753,0,0,0,293.8,11.955Zm12.848,5.779a.836.836,0,0,0-.483-.741,7.353,7.353,0,0,0-1.837-.58,8.376,8.376,0,0,1-2.234-.79,3.743,3.743,0,0,1-1.343-1.187,2.834,2.834,0,0,1-.462-1.6,3.212,3.212,0,0,1,1.321-2.637,5.443,5.443,0,0,1,3.459-1.037,6.03,6.03,0,0,1,3.7,1.042,3.258,3.258,0,0,1,1.4,2.739h-3.631q0-1.4-1.472-1.4a1.459,1.459,0,0,0-.956.317.981.981,0,0,0-.387.79.9.9,0,0,0,.473.784,4.466,4.466,0,0,0,1.509.494,13.043,13.043,0,0,1,1.821.462q2.621.9,2.621,3.233a3.044,3.044,0,0,1-1.413,2.589,6.2,6.2,0,0,1-3.658,1,6.322,6.322,0,0,1-2.664-.537,4.455,4.455,0,0,1-1.826-1.461,3.308,3.308,0,0,1-.655-1.944h3.384a1.4,1.4,0,0,0,.537,1.176,2.209,2.209,0,0,0,1.321.371,1.738,1.738,0,0,0,1.112-.3A.962.962,0,0,0,306.649,17.734Z" transform="translate(6528 -8621)" fill="#12263f"/>
    <path id="Path_190269" data-name="Path 190269" d="M0,0H172V3H0Z" transform="translate(6604 -8649)" fill="#ffb500"/>
    <g id="t4-ic2" transform="translate(5890 -11320)">
      <g transform="matrix(1, 0, 0, 1, 600, 2478)" filter="url(#Ellipse_4972)">
        <circle id="Ellipse_4972-2" data-name="Ellipse 4972" cx="62.5" cy="62.5" r="62.5" transform="translate(138 43)" fill="#fff"/>
      </g>
      <g id="Group_107801" data-name="Group 107801" transform="translate(-3304 14810)">
        <g id="imaginacion" transform="translate(4067.882 -12264)">
          <g id="_62d2f5ff" data-name="#62d2f5ff" transform="translate(0)">
            <path id="Path_188217" data-name="Path 188217" d="M408,0h9.372c0,.781,0,1.562,0,2.342q-4.687,0-9.372,0C408,1.562,408,.781,408,0Z" transform="translate(-349.405)" fill="#97e63a"/>
            <path id="Path_188218" data-name="Path 188218" d="M488,0h2.341c0,.781,0,1.562,0,2.342q-1.171,0-2.341,0C488,1.562,488,.781,488,0Z" transform="translate(-417.686)" fill="#97e63a"/>
            <path id="Path_188219" data-name="Path 188219" d="M424,32h11.719v2.344H424C424,33.562,423.995,32.781,424,32Z" transform="translate(-363.058 -27.313)" fill="#97e63a"/>
            <path id="Path_188220" data-name="Path 188220" d="M168.376,71.978c1.56-.032,3.12-.028,4.68,0,.258,1.888.463,3.784.753,5.667.652.239,1.32.432,1.967.683.675.281,1.314.64,1.972.959q.646-.47,1.245-1c1.159-.918,2.282-1.879,3.444-2.793.533.466,1.008.992,1.507,1.494.667.665,1.37,1.295,1.991,2-1.23,1.6-2.58,3.094-3.8,4.7a22.675,22.675,0,0,1,1.122,2.4c.174.511.337,1.027.52,1.537,1.881.3,3.779.469,5.66.766q.064,2.329,0,4.661c-1.881.3-3.779.467-5.66.766-.253.687-.447,1.395-.725,2.071-.28.633-.62,1.236-.917,1.86,1.223,1.6,2.563,3.111,3.8,4.7-.658.675-1.34,1.326-2,2-.5.5-.974,1.025-1.506,1.493-1.16-.913-2.284-1.872-3.439-2.791a15.377,15.377,0,0,0-1.255-1.009c-.623.3-1.229.637-1.862.918-.677.277-1.384.473-2.071.725-.29,1.882-.5,3.779-.753,5.667q-2.34.042-4.68,0c-.277-1.89-.475-3.79-.757-5.678-.527-.185-1.066-.337-1.591-.532a23.862,23.862,0,0,1-2.344-1.1c-.958.724-1.863,1.513-2.8,2.268-.634.507-1.242,1.044-1.894,1.529-1.156-1.179-2.339-2.328-3.5-3.5,1.233-1.589,2.561-3.1,3.8-4.69a17.993,17.993,0,0,1-1.642-3.936c-1.885-.293-3.787-.483-5.675-.759q-.046-2.331,0-4.667c1.888-.277,3.788-.466,5.675-.757a17.868,17.868,0,0,1,1.644-3.936c-1.241-1.588-2.569-3.108-3.807-4.7q1.714-1.784,3.5-3.5c.65.485,1.26,1.021,1.894,1.526.933.759,1.841,1.55,2.8,2.275.725-.353,1.428-.753,2.181-1.047.574-.221,1.172-.378,1.752-.586.284-1.888.48-3.788.757-5.676m1.219,8.246a10.553,10.553,0,0,0-9.343,11.834,10.543,10.543,0,0,0,15.491,7.92,10.546,10.546,0,0,0-.1-18.587A10.478,10.478,0,0,0,169.595,80.223Z" transform="translate(-130.869 -61.415)" fill="#97e63a"/>
            <path id="Path_188221" data-name="Path 188221" d="M8,464H24.406v2.344H8Z" transform="translate(-8 -396.031)" fill="#97e63a"/>
            <path id="Path_188222" data-name="Path 188222" d="M8,496q1.171,0,2.344,0c0,.781,0,1.561,0,2.342H8C8,497.559,8,496.778,8,496Z" transform="translate(-7.997 -423.339)" fill="#97e63a"/>
            <path id="Path_188223" data-name="Path 188223" d="M40,496q5.858,0,11.716,0c0,.781,0,1.561,0,2.342H40C40,497.562,40,496.779,40,496Z" transform="translate(-35.311 -423.342)" fill="#97e63a"/>
          </g>
          <g id="_fbac42ff" data-name="#fbac42ff" transform="translate(0 1.172)">
            <path id="Path_188224" data-name="Path 188224" d="M8,10.33A2.345,2.345,0,0,1,10.33,8q8.213-.007,16.428,0a2.352,2.352,0,0,1,2.323,2.178c.038,1.642-.022,3.284.031,4.925-.048,1.541,0,3.082-.026,4.623A2.352,2.352,0,0,1,27.813,21.8a4.153,4.153,0,0,1-1.945.264c-.806-.025-1.611.009-2.417.015-.854-.031-1.708-.018-2.561-.019-.009,1.939.013,3.879-.012,5.818-1.874-1.818-3.7-3.684-5.549-5.528-.136-.1-.243-.309-.439-.286-1.57-.022-3.142.018-4.711-.015A2.356,2.356,0,0,1,8,19.727q-.007-4.7,0-9.4m3.536,1.207q0,1.149,0,2.3,1.149,0,2.3,0,0-1.149,0-2.3c-.766,0-1.531,0-2.3,0m4.688,0q0,1.149,0,2.3,4.665,0,9.328,0c0-.766,0-1.531,0-2.3q-4.665,0-9.328,0m-4.688,4.687q0,1.149,0,2.3,7.009,0,14.016,0v-2.3Q18.545,16.229,11.537,16.224Z" transform="translate(-7.997 -7.997)" fill="#ffb500"/>
            <path id="Path_188225" data-name="Path 188225" d="M452.1,63.994q1.171,0,2.344,0c-.006,1.176.01,2.351-.006,3.527a1.424,1.424,0,0,1-.555,1.037c-1.383,1.361-2.732,2.755-4.126,4.1q-.494-1.116-1.071-2.193c1.113-1.163,2.268-2.288,3.409-3.425C452.112,66.027,452.1,65.01,452.1,63.994Z" transform="translate(-384.135 -55.79)" fill="#ffb500"/>
            <path id="Path_188226" data-name="Path 188226" d="M368.169,368q2.925,2.936,5.858,5.859c1.61.009,3.22-.015,4.83.009a2.353,2.353,0,0,1,2.191,2.323q.007,4.7,0,9.4a2.357,2.357,0,0,1-2.329,2.329q-8.139.011-16.276,0a3.018,3.018,0,0,1-1.333-.3,3.261,3.261,0,0,1-.945-1.081,3.8,3.8,0,0,1-.215-1.554c.015-2.246,0-4.493.007-6.738a15.116,15.116,0,0,1,.149-3.078,5.307,5.307,0,0,1,1.021-1.021,2.724,2.724,0,0,1,1.314-.3q2.859,0,5.717,0c.009-1.954-.012-3.907.01-5.859m-4.673,9.4q0,1.149,0,2.3,7.007,0,14.016,0,0-1.149,0-2.3-7.007,0-14.014,0m0,4.688q0,1.149,0,2.3,4.663,0,9.327,0v-2.3q-4.665,0-9.328,0m11.719,0q0,1.149,0,2.3h2.3v-2.3Q376.363,382.084,375.215,382.086Z" transform="translate(-308.394 -315.265)" fill="#ffb500"/>
            <path id="Path_188227" data-name="Path 188227" d="M56.555,384.984c1.381-1.355,2.726-2.75,4.119-4.094,0,.54,0,1.08.013,1.62q.811.013,1.622.013c-1.3,1.346-2.64,2.656-3.965,3.977-.018,1.406,0,2.813-.009,4.22H55.993c0-1.567-.009-3.133.006-4.7A1.406,1.406,0,0,1,56.555,384.984Z" transform="translate(-48.961 -326.267)" fill="#ffb500"/>
          </g>
          <g id="_e3e8ecff" data-name="#e3e8ecff" transform="translate(3.538 1.16)">
            <path id="Path_188228" data-name="Path 188228" d="M65.021,9.819A28.132,28.132,0,0,1,99.875,22.611q.578,1.074,1.071,2.193a28.133,28.133,0,0,1-4.355,29.458,27.6,27.6,0,0,1-8.517,6.751c-.045,1.937-.006,3.873-.021,5.81a5.308,5.308,0,0,0-1.021,1.021,42.949,42.949,0,0,1-3.656,3.665,11.691,11.691,0,0,1-6.9,1.893c-1.991-.059-3.968-.3-5.949-.5A25.191,25.191,0,0,0,58.759,74.59q0-2.131,0-4.263c.781-.006,1.563.056,2.344,0,.34-.007.567-.293.8-.5,1.175-1.216,2.386-2.4,3.582-3.593.382-.327.306-.861.319-1.31-.041-1.77.026-3.541-.035-5.31-1.512,1.368-2.892,2.877-4.352,4.3-.3.331-.784.277-1.191.29-2.055-.022-4.11-.01-6.167,0q-2.694-.013-5.389,0-.811,0-1.622-.013c-.009-.541-.013-1.08-.013-1.62.013-3.754,0-7.509.006-11.263-2.344,0-4.687,0-7.03,0q3.465-7.515,6.935-15.026a2.45,2.45,0,0,0,.111-.94,28.276,28.276,0,0,1,3.718-13.31c.806-.006,1.611-.04,2.417-.015a4.153,4.153,0,0,0,1.945-.264,2.352,2.352,0,0,0,1.273-2.074c.028-1.541-.022-3.082.026-4.623a28.816,28.816,0,0,1,8.585-5.221m7.808,7.506c-.277,1.888-.473,3.788-.757,5.676-.58.208-1.178.365-1.752.586q-1.657-1.406-3.365-2.754c-.561.488-1.044,1.056-1.62,1.526-.634-.505-1.244-1.042-1.894-1.526q-1.78,1.716-3.5,3.5c1.238,1.591,2.566,3.111,3.807,4.7a17.867,17.867,0,0,0-1.644,3.936c-1.887.292-3.787.48-5.675.757q-.044,2.333,0,4.667c1.888.275,3.79.466,5.675.759a17.993,17.993,0,0,0,1.642,3.936c-1.238,1.586-2.565,3.1-3.8,4.69,1.157,1.175,2.341,2.323,3.5,3.5.652-.485,1.26-1.022,1.894-1.529a13.425,13.425,0,0,1,1.622,1.526c.669-.489,1.283-1.049,1.934-1.56a6.478,6.478,0,0,1,1.585-1.134c.524.195,1.063.347,1.591.532.283,1.888.48,3.788.757,5.678q2.34.046,4.68,0c1.167.025,2.336.035,3.5,0,.287-1.887.472-3.788.763-5.673a9.781,9.781,0,0,0,1.674-.624c1.156.918,2.279,1.878,3.439,2.791.532-.467,1.008-.992,1.506-1.493a13.267,13.267,0,0,1,2.01,1.494c1.219-1.115,2.317-2.353,3.508-3.5-1.252-1.582-2.578-3.105-3.812-4.7a20.634,20.634,0,0,0,1.17-2.5c.163-.439.24-.905.423-1.334.126-.164.365-.132.546-.185,1.724-.212,3.45-.423,5.168-.675q.055-2.331,0-4.664c-1.72-.25-3.445-.464-5.169-.675-.182-.053-.419-.023-.548-.182-.182-.432-.258-.9-.42-1.337a20.793,20.793,0,0,0-1.173-2.5c1.228-1.6,2.569-3.105,3.8-4.7q-1.705-1.793-3.5-3.5a13.446,13.446,0,0,1-2.008,1.5c-.5-.5-.974-1.028-1.507-1.494-1.162.914-2.285,1.875-3.444,2.793A9.118,9.118,0,0,0,81.777,23c-.294-1.885-.479-3.787-.765-5.673-1.167-.038-2.336-.029-3.5,0C75.948,17.3,74.388,17.292,72.828,17.325Z" transform="translate(-38.859 -7.922)" fill="#e3e8ec"/>
            <path id="Path_188229" data-name="Path 188229" d="M32.154,32.156c.766,0,1.531,0,2.3,0q0,1.149,0,2.3-1.149,0-2.3,0Q32.151,33.3,32.154,32.156Z" transform="translate(-32.153 -28.606)" fill="#e3e8ec"/>
            <path id="Path_188230" data-name="Path 188230" d="M64.154,32.16q4.665,0,9.328,0c0,.766,0,1.531,0,2.3q-4.665,0-9.328,0Q64.151,33.308,64.154,32.16Z" transform="translate(-59.465 -28.61)" fill="#e3e8ec"/>
            <path id="Path_188231" data-name="Path 188231" d="M32.154,64.16q7.007,0,14.016,0v2.3q-7.007,0-14.016,0Q32.151,65.308,32.154,64.16Z" transform="translate(-32.153 -55.922)" fill="#e3e8ec"/>
            <path id="Path_188232" data-name="Path 188232" d="M263.035,155.99a6.551,6.551,0,0,1,5.121,6.447,6.634,6.634,0,0,1-3.636,5.95,4.068,4.068,0,0,1-1.485.5,8.42,8.42,0,0,1-2.527-1.5,6.691,6.691,0,0,1,.155-10.028A8.706,8.706,0,0,1,263.035,155.99Z" transform="translate(-225.19 -134.3)" fill="#e3e8ec"/>
            <path id="Path_188233" data-name="Path 188233" d="M384.154,432.16q7.007,0,14.014,0,0,1.147,0,2.3-7.007,0-14.016,0Q384.151,433.308,384.154,432.16Z" transform="translate(-332.59 -370.016)" fill="#e3e8ec"/>
            <path id="Path_188234" data-name="Path 188234" d="M384.154,464.16q4.665,0,9.328,0v2.3q-4.665,0-9.327,0Q384.152,465.308,384.154,464.16Z" transform="translate(-332.591 -397.328)" fill="#e3e8ec"/>
            <path id="Path_188235" data-name="Path 188235" d="M464.154,464.154q1.147,0,2.3,0v2.3h-2.3Q464.151,465.3,464.154,464.154Z" transform="translate(-400.871 -397.322)" fill="#e3e8ec"/>
          </g>
          <g id="_a8bbc9ff" data-name="#a8bbc9ff" transform="translate(18.737 10.54)">
            <path id="Path_188236" data-name="Path 188236" d="M296,71.975c1.167-.025,2.336-.034,3.5,0,.286,1.887.47,3.788.765,5.673a9.118,9.118,0,0,1,1.668.627q-.6.534-1.245,1c-.658-.319-1.3-.678-1.972-.959-.647-.25-1.315-.444-1.967-.683C296.463,75.759,296.258,73.863,296,71.975Z" transform="translate(-272.549 -71.954)" fill="#a8bbc9"/>
            <path id="Path_188237" data-name="Path 188237" d="M212.89,97.586c.576-.47,1.059-1.039,1.62-1.526q1.707,1.345,3.365,2.754c-.753.294-1.456.694-2.181,1.047C214.731,99.136,213.823,98.345,212.89,97.586Z" transform="translate(-201.614 -92.529)" fill="#a8bbc9"/>
            <path id="Path_188238" data-name="Path 188238" d="M359.8,97.547a13.447,13.447,0,0,0,2.008-1.5q1.791,1.707,3.5,3.5c-1.235,1.591-2.577,3.1-3.8,4.7a20.791,20.791,0,0,1,1.173,2.5c.163.438.239.905.42,1.337.129.158.366.129.548.182,1.724.211,3.45.425,5.169.675q.051,2.331,0,4.664c-1.718.252-3.444.463-5.168.675-.182.053-.42.021-.546.185-.183.429-.261.9-.423,1.334a20.635,20.635,0,0,1-1.17,2.5c1.233,1.6,2.559,3.12,3.812,4.7-1.191,1.144-2.29,2.382-3.508,3.5a13.266,13.266,0,0,0-2.01-1.494c.656-.677,1.339-1.327,2-2-1.239-1.589-2.58-3.1-3.8-4.7.3-.624.637-1.228.917-1.86.278-.677.472-1.384.725-2.071,1.881-.3,3.779-.47,5.66-.766q.062-2.329,0-4.661c-1.881-.3-3.779-.469-5.66-.766-.183-.51-.346-1.025-.52-1.537a22.674,22.674,0,0,0-1.122-2.4c1.219-1.6,2.568-3.1,3.8-4.7C361.167,98.842,360.464,98.212,359.8,97.547Z" transform="translate(-325.459 -92.52)" fill="#a8bbc9"/>
            <path id="Path_188239" data-name="Path 188239" d="M235.352,157.805a6.566,6.566,0,0,1,7.336-3.138,8.705,8.705,0,0,0-2.372,1.364,6.692,6.692,0,0,0-.155,10.028,8.421,8.421,0,0,0,2.527,1.5,6.026,6.026,0,0,1-2.832.105,6.669,6.669,0,0,1-4.5-9.861Z" transform="translate(-220.041 -142.357)" fill="#a8bbc9"/>
            <path id="Path_188240" data-name="Path 188240" d="M212.93,280.258c.933-.754,1.838-1.544,2.8-2.268a23.859,23.859,0,0,0,2.344,1.1,6.479,6.479,0,0,0-1.585,1.134c-.65.511-1.264,1.071-1.934,1.56A13.424,13.424,0,0,0,212.93,280.258Z" transform="translate(-201.648 -247.809)" fill="#a8bbc9"/>
            <path id="Path_188241" data-name="Path 188241" d="M298.824,278.908c.633-.281,1.239-.618,1.862-.918A15.374,15.374,0,0,1,301.941,279a9.781,9.781,0,0,1-1.674.624c-.292,1.885-.476,3.787-.763,5.673-1.167.04-2.336.029-3.5,0,.258-1.888.463-3.785.753-5.667C297.44,279.382,298.147,279.185,298.824,278.908Z" transform="translate(-272.549 -247.809)" fill="#a8bbc9"/>
            <path id="Path_188242" data-name="Path 188242" d="M143.268,365.048c1.46-1.421,2.84-2.93,4.352-4.3.062,1.77-.006,3.541.035,5.31-.013.448.063.983-.319,1.31-1.2,1.2-2.407,2.377-3.582,3.593-.231.211-.458.5-.8.5-.781.06-1.563,0-2.344,0,0-.476,0-.954-.007-1.428-1.567-1.567-3.151-3.12-4.695-4.709,2.057-.006,4.112-.018,6.167,0C142.484,365.325,142.963,365.379,143.268,365.048Z" transform="translate(-135.91 -318.446)" fill="#a8bbc9"/>
            <path id="Path_188243" data-name="Path 188243" d="M192.618,420.655a42.947,42.947,0,0,0,3.656-3.665,15.115,15.115,0,0,0-.149,3.078c0,2.246.007,4.493-.007,6.738a3.8,3.8,0,0,0,.215,1.554,3.261,3.261,0,0,0,.945,1.081c.012.072.034.214.045.286-9.773.019-19.548,0-29.323.009v-6a25.191,25.191,0,0,1,11.774-1.683c1.98.192,3.958.437,5.949.5A11.691,11.691,0,0,0,192.618,420.655Z" transform="translate(-163.299 -366.448)" fill="#a8bbc9"/>
          </g>
          <g id="_00a7e8ff" data-name="#00a7e8ff" transform="translate(29.297 18.75)">
            <path id="Path_188244" data-name="Path 188244" d="M217.429,128.061a10.558,10.558,0,0,1,11.281,13.326,10.62,10.62,0,0,1-5.133,6.429,10.543,10.543,0,0,1-14.246-14.392,10.566,10.566,0,0,1,8.1-5.363m-4.679,7.179a6.669,6.669,0,0,0,4.5,9.861,6.026,6.026,0,0,0,2.832-.105,4.068,4.068,0,0,0,1.485-.5,6.634,6.634,0,0,0,3.636-5.95,6.681,6.681,0,0,0-12.457-3.309Z" transform="translate(-207.999 -128.002)" fill="#78b62e"/>
          </g>
        </g>
        <g id="_231f20ff" data-name="#231f20ff" transform="translate(4067 -12263.559)">
          <path id="Path_188199" data-name="Path 188199" d="M18.882,15.822a9.294,9.294,0,0,1,1.957-.108c5.01.006,10.017,0,15.027,0a3.516,3.516,0,0,1,3.111,1.717,3.6,3.6,0,0,1,.483,1.878c0,2.893,0,5.785,0,8.678a4.4,4.4,0,0,1-.3,1.908,3.467,3.467,0,0,1-2.99,2.066c-1.61.036-3.222-.012-4.833.02-.033,1.556.019,3.114-.019,4.669a1.145,1.145,0,0,1-1.189,1.124,1.631,1.631,0,0,1-1.095-.636c-1.561-1.587-3.15-3.147-4.712-4.732-.2-.181-.393-.443-.7-.424-1.432-.05-2.871.042-4.3-.037a3.477,3.477,0,0,1-3.083-3.339c-.022-2.89,0-5.781-.011-8.67a5.713,5.713,0,0,1,.172-1.807,3.491,3.491,0,0,1,2.481-2.309m.051,2.521a1.552,1.552,0,0,0-.382,1.274c.015,2.948-.008,5.9.011,8.844a1.135,1.135,0,0,0,1.048,1.175c1.547.051,3.1-.011,4.646.022a1.265,1.265,0,0,1,.926.345C26.47,31.246,27.7,32.551,29,33.782c.037-1-.022-2.008.025-3.01a1.124,1.124,0,0,1,1.1-1.1c1.959-.05,3.922.015,5.881-.025a1.145,1.145,0,0,0,1.124-1.182c.023-2.84,0-5.683.012-8.523a3.944,3.944,0,0,0-.1-1.185,1.186,1.186,0,0,0-1.174-.711c-5.271-.012-10.542,0-15.814-.008A1.523,1.523,0,0,0,18.933,18.343Z" transform="translate(-16.229 -15.713)" fill="#231f20"/>
          <path id="Path_188200" data-name="Path 188200" d="M175.16,20.609a29.043,29.043,0,0,1,41.363,9.98c.728-.675,1.409-1.4,2.125-2.092.159-.189.415-.356.418-.63.036-.934-.012-1.869.017-2.8q1.154-.028,2.31,0c0,1.143.019,2.286,0,3.428a1.279,1.279,0,0,1-.41.943c-1.1,1.135-2.264,2.213-3.339,3.376a29.047,29.047,0,0,1-5.8,32.4,30.647,30.647,0,0,1-6.708,5.087c.006.79,0,1.578,0,2.366q-1.154.03-2.309,0-.012-.627-.017-1.254a29.039,29.039,0,0,1-11.6,2.422c-.022-.77-.02-1.539,0-2.309A26.717,26.717,0,1,0,179.2,20.932c-.959.466-1.855,1.047-2.773,1.584C175.992,21.891,175.566,21.254,175.16,20.609Z" transform="translate(-150.549 -15.759)" fill="#231f20"/>
          <path id="Path_188201" data-name="Path 188201" d="M398.739,15.744q4.639-.021,9.277,0,.016,1.154,0,2.307-4.639.012-9.274,0Q398.712,16.9,398.739,15.744Z" transform="translate(-339.495 -15.729)" fill="#231f20"/>
          <path id="Path_188202" data-name="Path 188202" d="M473.736,15.742q1.154-.026,2.309,0c.011.768.009,1.536,0,2.306q-1.154.016-2.306,0Q473.706,16.9,473.736,15.742Z" transform="translate(-402.878 -15.727)" fill="#231f20"/>
          <path id="Path_188203" data-name="Path 188203" d="M46.236,45.745q1.154-.03,2.309,0,.026,1.154,0,2.309-1.152.016-2.306,0Q46.219,46.9,46.236,45.745Z" transform="translate(-41.582 -41.082)" fill="#231f20"/>
          <path id="Path_188204" data-name="Path 188204" d="M76.236,45.746q4.639-.03,9.277,0,.026,1.154,0,2.309-4.636.012-9.274,0Q76.219,46.9,76.236,45.746Z" transform="translate(-66.937 -41.084)" fill="#231f20"/>
          <path id="Path_188205" data-name="Path 188205" d="M413.736,45.744q5.8-.021,11.6,0,.016,1.154,0,2.307-5.8.012-11.6,0Q413.707,46.9,413.736,45.744Z" transform="translate(-352.169 -41.084)" fill="#231f20"/>
          <path id="Path_188206" data-name="Path 188206" d="M46.236,75.746q6.961-.03,13.923,0,.026,1.154,0,2.309-6.959.012-13.92,0Q46.219,76.9,46.236,75.746Z" transform="translate(-41.582 -66.438)" fill="#231f20"/>
          <path id="Path_188207" data-name="Path 188207" d="M167.5,76.708a1.143,1.143,0,0,1,1.174-.993c1.346-.033,2.691,0,4.037-.015a2,2,0,0,1,1.318.276,1.593,1.593,0,0,1,.463,1.115c.187,1.505.387,3.007.576,4.511a23.48,23.48,0,0,1,2.746,1.143c1.305-1.025,2.574-2.1,3.859-3.148a1.389,1.389,0,0,1,.931-.4c.519,0,.883.423,1.226.753.994,1.022,2.024,2.007,3.013,3.032a1.164,1.164,0,0,1,.113,1.586c-1.073,1.361-2.211,2.67-3.28,4.035a23.975,23.975,0,0,1,1.138,2.744c1.528.177,3.052.395,4.579.585a1.5,1.5,0,0,1,1.045.449,1.743,1.743,0,0,1,.274,1.164q-.009,1.865,0,3.729a1.816,1.816,0,0,1-.308,1.278,1.739,1.739,0,0,1-1.127.432c-1.491.194-2.984.373-4.474.579-.288.954-.779,1.833-1.089,2.772,1.024,1.35,2.157,2.617,3.2,3.95a1.226,1.226,0,0,1,.279,1,1.952,1.952,0,0,1-.619.907c-.99.974-1.965,1.96-2.944,2.945a1.515,1.515,0,0,1-1.016.561,1.467,1.467,0,0,1-1-.43c-1.268-1.038-2.523-2.1-3.811-3.113a18.587,18.587,0,0,1-2.722,1.118c-.249,1.617-.407,3.246-.65,4.862a1.143,1.143,0,0,1-1.12,1.042c-1.547.022-3.1.012-4.641,0a1.138,1.138,0,0,1-1.166-.943c-.266-1.654-.393-3.329-.684-4.979a21.727,21.727,0,0,1-2.73-1.11c-1.219,1.007-2.447,2-3.662,3.013a1.63,1.63,0,0,1-1.186.526,1.8,1.8,0,0,1-1.068-.669c-.948-.963-1.908-1.916-2.868-2.866a1.661,1.661,0,0,1-.595-.991,1.618,1.618,0,0,1,.528-1.191c1.011-1.213,2.005-2.44,3.009-3.661a21.382,21.382,0,0,1-1.1-2.725c-1.364-.252-2.747-.369-4.121-.564-.528-.085-1.171-.053-1.541-.513a2.1,2.1,0,0,1-.274-1.394c.02-1.341-.019-2.684.015-4.023a1.143,1.143,0,0,1,1.044-1.123c1.618-.243,3.25-.387,4.867-.644a18.4,18.4,0,0,1,1.118-2.727c-1.017-1.29-2.078-2.546-3.116-3.819a1.267,1.267,0,0,1,.13-2q1.519-1.5,3.023-3.023a1.57,1.57,0,0,1,.951-.564,1.588,1.588,0,0,1,1.144.5c1.1.912,2.217,1.816,3.318,2.733.172.111.345.361.576.226.839-.381,1.688-.743,2.561-1.039.24-1.632.407-3.275.652-4.906m2.157,1.338c-.215,1.564-.381,3.136-.621,4.7a1.224,1.224,0,0,1-1.036.982,12.5,12.5,0,0,0-3.291,1.375,1.2,1.2,0,0,1-1.446-.05c-1.293-1.022-2.543-2.1-3.834-3.123-.669.658-1.343,1.313-1.984,2,.98,1.222,1.987,2.425,2.978,3.639a1.324,1.324,0,0,1,.381,1.169c-.2.595-.585,1.1-.833,1.679a15.1,15.1,0,0,0-.807,2.3,1.175,1.175,0,0,1-1.007.833c-1.533.229-3.077.375-4.608.612-.011.864-.012,1.728,0,2.594,1.562.209,3.131.382,4.689.619a1.2,1.2,0,0,1,.982.991,12.382,12.382,0,0,0,1.36,3.286,1.226,1.226,0,0,1,0,1.471c-1.02,1.309-2.12,2.557-3.137,3.868q.973,1.006,1.981,1.979c1.279-1,2.509-2.06,3.775-3.074a1.155,1.155,0,0,1,1.1-.266c.554.2,1.036.561,1.575.8a17.975,17.975,0,0,0,2.4.847,1.147,1.147,0,0,1,.787,1.027c.208,1.519.387,3.043.6,4.562.869.014,1.739.022,2.608-.009.212-1.564.387-3.133.616-4.694a1.324,1.324,0,0,1,1.172-1.022,12.818,12.818,0,0,0,3.255-1.377,1.2,1.2,0,0,1,1.451.166c1.248,1.008,2.47,2.047,3.727,3.044.684-.64,1.336-1.313,1.995-1.979-.906-1.147-1.844-2.269-2.775-3.4-.3-.379-.708-.8-.609-1.333a8.125,8.125,0,0,1,.709-1.47,14.317,14.317,0,0,0,.954-2.611,1.156,1.156,0,0,1,1.03-.827c1.521-.2,3.046-.384,4.565-.593.04-.867.029-1.736.012-2.6-1.586-.257-3.19-.392-4.774-.652-.649-.094-.864-.779-1-1.326a13.09,13.09,0,0,0-1.355-3.131,1.157,1.157,0,0,1,.158-1.35c1.02-1.264,2.067-2.506,3.082-3.774-.636-.677-1.309-1.319-1.956-1.985-1.381,1-2.626,2.182-3.994,3.2a1.292,1.292,0,0,1-1.466-.124,12.939,12.939,0,0,0-3.306-1.346,1.135,1.135,0,0,1-.88-.974c-.238-1.549-.39-3.108-.622-4.656C171.4,78.02,170.529,78.015,169.661,78.046Z" transform="translate(-130.316 -66.411)" fill="#231f20"/>
          <path id="Path_188208" data-name="Path 188208" d="M234.934,153.038a7.793,7.793,0,1,1-5.46,3.8,7.787,7.787,0,0,1,5.46-3.8m.16,2.331a5.472,5.472,0,1,0,6.039,2.93A5.479,5.479,0,0,0,235.093,155.369Z" transform="translate(-195.576 -131.681)" fill="#231f20"/>
          <path id="Path_188209" data-name="Path 188209" d="M53.7,171.98c.756.127,1.516.243,2.266.406a28.555,28.555,0,0,0-.352,4.1,5.367,5.367,0,0,1-.757,2.219c-1.841,4.018-3.726,8.018-5.541,12.048,1.719.042,3.439-.014,5.158.023a1.141,1.141,0,0,1,1.123,1.182c.028,3.857,0,7.716.014,11.575,3.961.009,7.922,0,11.883.006.5.077.784-.413,1.113-.7,1.053-1.126,2.236-2.135,3.232-3.309.074-1.367,0-2.741.031-4.11q1.154-.016,2.306,0c.029,1.274,0,2.55.017,3.826a2.056,2.056,0,0,1-.609,1.908q-2.063,2.044-4.107,4.107a1.562,1.562,0,0,1-1.067.592c-1.38.04-2.761-.025-4.141.028.828.92,1.754,1.747,2.6,2.65a1.4,1.4,0,0,1,.35,1.081c0,3.394-.008,6.789,0,10.185,8.127.017,16.253-.014,24.379.015q.016,1.152,0,2.307-12.757.007-25.512,0a1.153,1.153,0,0,1-1.188-1.186q-.019-5.194,0-10.391c-.023-.307.053-.681-.208-.907-1.152-1.171-2.321-2.326-3.481-3.489-.277-.356-.756-.274-1.151-.288-1.6.019-3.209-.006-4.813.009-.427-.037-.669.381-.955.627-.694.762-1.514,1.412-2.148,2.225-.074,1.366,0,2.739-.031,4.108q-1.154.014-2.306,0c-.028-1.38,0-2.761-.017-4.141a1.7,1.7,0,0,1,.382-1.352c.935-.976,1.922-1.9,2.863-2.873.319-.251.232-.675.249-1.028-.022-3.445.014-6.891-.017-10.336-1.82-.012-3.638,0-5.457,0a1.409,1.409,0,0,1-1.262-.475,1.246,1.246,0,0,1-.046-1.363q3.1-6.72,6.2-13.441a4.4,4.4,0,0,0,.581-1.638A27.138,27.138,0,0,1,53.7,171.98Z" transform="translate(-41.67 -147.781)" fill="#231f20"/>
          <path id="Path_188210" data-name="Path 188210" d="M354.391,354.328a1.15,1.15,0,0,1,1.956-.706c1.742,1.714,3.459,3.458,5.192,5.184.136.118.274.279.474.268,1.439.046,2.882-.04,4.319.036a3.48,3.48,0,0,1,3.13,3.413c.017,3,0,5.993.009,8.991a3.913,3.913,0,0,1-.457,2.061,3.5,3.5,0,0,1-3.136,1.768c-5.423-.006-10.846.008-16.269-.008a3.482,3.482,0,0,1-3.362-3.359c-.015-3.151-.009-6.3,0-9.454a3.482,3.482,0,0,1,3.357-3.428c1.587-.036,3.174,0,4.763-.015.029-1.584-.034-3.17.026-4.751m2.321,2.965c-.057,1.019.02,2.041-.039,3.058A1.134,1.134,0,0,1,355.5,361.4c-1.912.026-3.826-.014-5.74.012a1.27,1.27,0,0,0-1.2,1.572c.015,2.948-.008,5.9.011,8.845a1.152,1.152,0,0,0,1.188,1.186c5.372.012,10.744,0,16.116,0a1.17,1.17,0,0,0,1.265-1.188c.016-3.051.008-6.1,0-9.153a1.162,1.162,0,0,0-1.113-1.257c-1.552-.046-3.1.012-4.656-.019a1.267,1.267,0,0,1-.931-.409C359.188,359.77,357.989,358.489,356.712,357.293Z" transform="translate(-295.134 -301.009)" fill="#231f20"/>
          <path id="Path_188211" data-name="Path 188211" d="M376.236,420.746q6.961-.03,13.923,0,.026,1.154,0,2.309-6.959.012-13.92,0Q376.219,421.9,376.236,420.746Z" transform="translate(-320.481 -358.014)" fill="#231f20"/>
          <path id="Path_188212" data-name="Path 188212" d="M23.742,450.744q8.123-.021,16.246,0,.016,1.154,0,2.307-8.123.012-16.243,0Q23.715,451.9,23.742,450.744Z" transform="translate(-22.568 -383.368)" fill="#231f20"/>
          <path id="Path_188213" data-name="Path 188213" d="M376.236,450.746q4.639-.03,9.277,0,.026,1.154,0,2.309-4.636.012-9.274,0Q376.219,451.9,376.236,450.746Z" transform="translate(-320.481 -383.368)" fill="#231f20"/>
          <path id="Path_188214" data-name="Path 188214" d="M451.236,450.739q1.154-.033,2.309,0,.026,1.154,0,2.309c-.768.011-1.538.009-2.306,0Q451.219,451.89,451.236,450.739Z" transform="translate(-383.867 -383.36)" fill="#231f20"/>
          <path id="Path_188215" data-name="Path 188215" d="M23.742,480.736q1.154-.028,2.309,0,.016,1.152,0,2.306c-.77.009-1.538.011-2.306,0Q23.715,481.89,23.742,480.736Z" transform="translate(-22.568 -408.714)" fill="#231f20"/>
          <path id="Path_188216" data-name="Path 188216" d="M53.742,480.744q5.8-.021,11.6,0,.016,1.154,0,2.307-5.8.012-11.6,0Q53.715,481.9,53.742,480.744Z" transform="translate(-47.923 -408.723)" fill="#231f20"/>
        </g>
      </g>
    </g>
  </g>
</svg>
