<svg xmlns="http://www.w3.org/2000/svg" width="1030" height="364" viewBox="0 0 1030 364">
  <g id="t4-info3" transform="translate(-285 -6471)">
    <rect id="Rectangle_36709" data-name="Rectangle 36709" width="1030" height="364" transform="translate(285 6471)" fill="none"/>
    <g id="Group_107771" data-name="Group 107771" transform="translate(-5691 11823)">
      <path id="Path_184726" data-name="Path 184726" d="M339.189,301.845a3.453,3.453,0,0,1-1.15-.2,140.74,140.74,0,0,1,0-265.408,3.46,3.46,0,0,1,2.3,6.527,133.819,133.819,0,0,0,0,252.355,3.461,3.461,0,0,1-1.15,6.724" transform="translate(6107 -5337)" fill="#ccc"/>
      <path id="Path_184727" data-name="Path 184727" d="M430.416,301.845a3.461,3.461,0,0,1-1.15-6.724,133.818,133.818,0,0,0,0-252.355,3.46,3.46,0,0,1,2.3-6.527,140.738,140.738,0,0,1,0,265.408,3.457,3.457,0,0,1-1.15.2" transform="translate(6107 -5337)" fill="#ccc"/>
      <path id="Path_184728" data-name="Path 184728" d="M214.436,271H2.513a31.51,31.51,0,1,0,0,63.021H214.436a31.51,31.51,0,1,0,0-63.021" transform="translate(6106.998 -5337)" fill="#ffb500"/>
      <path id="Path_184729" data-name="Path 184729" d="M213.434,0H1.511a31.51,31.51,0,1,0,0,63.021H213.434a31.51,31.51,0,1,0,0-63.021" transform="translate(6107 -5337)" fill="#87cc34"/>
      <path id="Path_184730" data-name="Path 184730" d="M247.693,270.57a.977.977,0,0,1-.578-1.765l27.307-20.016a.977.977,0,1,1,1.155,1.576L248.27,270.381a.969.969,0,0,1-.577.189" transform="translate(6107 -5337)" fill="#ffb500"/>
      <path id="Path_184731" data-name="Path 184731" d="M275.1,87.136a.975.975,0,0,1-.587-.2L247.1,66.3a.977.977,0,0,1,1.176-1.561l27.406,20.644a.977.977,0,0,1-.588,1.757" transform="translate(6107 -5337)" fill="#87cc34"/>
      <path id="Path_184732" data-name="Path 184732" d="M283.649,85.949a8.791,8.791,0,1,1-8.792-8.792,8.792,8.792,0,0,1,8.792,8.792" transform="translate(6107 -5337)" fill="#87cc34"/>
      <path id="Path_184733" data-name="Path 184733" d="M283,249.712a8.792,8.792,0,1,1-8.792-8.792A8.792,8.792,0,0,1,283,249.712" transform="translate(6107 -5337)" fill="#ffb500"/>
      <path id="Path_184734" data-name="Path 184734" d="M554.212,271H766.135a31.51,31.51,0,1,1,0,63.021H554.212a31.51,31.51,0,1,1,0-63.021" transform="translate(6107.299 -5337)" fill="#87cc34"/>
      <path id="Path_184735" data-name="Path 184735" d="M555.215,0H767.138a31.51,31.51,0,1,1,0,63.021H555.215a31.51,31.51,0,1,1,0-63.021" transform="translate(6107.296 -5337)" fill="#ffb500"/>
      <path id="Path_184736" data-name="Path 184736" d="M520.956,270.57a.977.977,0,0,0,.578-1.765l-27.307-20.016a.977.977,0,1,0-1.155,1.576l27.307,20.016a.969.969,0,0,0,.577.189" transform="translate(6107 -5337)" fill="#87cc34"/>
      <path id="Path_184737" data-name="Path 184737" d="M493.551,87.136a.975.975,0,0,0,.587-.2L521.545,66.3a.977.977,0,0,0-1.176-1.561L492.963,85.379a.977.977,0,0,0,.588,1.757" transform="translate(6107 -5337)" fill="#ffb500"/>
      <path id="Path_184738" data-name="Path 184738" d="M485,85.949a8.792,8.792,0,1,0,8.792-8.792A8.792,8.792,0,0,0,485,85.949" transform="translate(6107 -5337)" fill="#ffb500"/>
      <path id="Path_184739" data-name="Path 184739" d="M485.65,249.712a8.792,8.792,0,1,0,8.792-8.792,8.792,8.792,0,0,0-8.792,8.792" transform="translate(6107 -5337)" fill="#87cc34"/>
      <rect id="Rectangle_39225" data-name="Rectangle 39225" width="27.581" height="2.965" transform="translate(6436.964 -5086.343)" fill="#ffb500"/>
      <rect id="Rectangle_39226" data-name="Rectangle 39226" width="27.581" height="2.965" transform="translate(6464.33 -5086.343)" fill="#78b62e"/>
      <rect id="Rectangle_39227" data-name="Rectangle 39227" width="27.581" height="2.965" transform="translate(6491.695 -5086.343)" fill="#ffb500"/>
      <rect id="Rectangle_39228" data-name="Rectangle 39228" width="27.581" height="2.965" transform="translate(6519.061 -5086.343)" fill="#78b62e"/>
      <path id="Path_190274" data-name="Path 190274" d="M-45.6-15.641l3.491,10.882,3.48-10.882h4.963V0h-3.781V-3.652l.365-7.477L-40.863,0h-2.492l-3.792-11.14.365,7.487V0h-3.771V-15.641ZM-24.89,0a4.087,4.087,0,0,1-.344-1.042A3.366,3.366,0,0,1-28.026.215a4.124,4.124,0,0,1-2.793-.994,3.163,3.163,0,0,1-1.149-2.5,3.251,3.251,0,0,1,1.4-2.857A7.114,7.114,0,0,1-26.512-7.1h1.117v-.615q0-1.608-1.386-1.608A1.133,1.133,0,0,0-28.069-8.05h-3.62a3.245,3.245,0,0,1,1.434-2.736A6.027,6.027,0,0,1-26.6-11.838a5.284,5.284,0,0,1,3.513,1.085,3.772,3.772,0,0,1,1.321,2.976v5.146A5.269,5.269,0,0,0-21.27-.183V0Zm-2.267-2.363a2.019,2.019,0,0,0,1.123-.29,1.818,1.818,0,0,0,.639-.655V-5.167h-1.053q-1.891,0-1.891,1.7a1.036,1.036,0,0,0,.333.8A1.205,1.205,0,0,0-27.156-2.363Zm10.721-9.26.118,1.364A3.942,3.942,0,0,1-13-11.838a3.316,3.316,0,0,1,2.712,1.085,5.165,5.165,0,0,1,.929,3.266V0h-3.631V-7.337a1.961,1.961,0,0,0-.354-1.294,1.64,1.64,0,0,0-1.289-.414,1.726,1.726,0,0,0-1.579.838V0h-3.62V-11.623ZM-1.729.215a5.975,5.975,0,0,1-4.329-1.6A5.509,5.509,0,0,1-7.713-5.532v-.3A7.138,7.138,0,0,1-7.052-8.98a4.834,4.834,0,0,1,1.928-2.111,5.821,5.821,0,0,1,3.008-.747,5.031,5.031,0,0,1,3.867,1.52A5.973,5.973,0,0,1,3.169-6.08v1.407h-7.2A2.609,2.609,0,0,0-3.18-3.137a2.525,2.525,0,0,0,1.7.559A3.254,3.254,0,0,0,1.2-3.781L2.857-1.826A4.624,4.624,0,0,1,.94-.338,6.48,6.48,0,0,1-1.729.215Zm-.408-9.26q-1.59,0-1.891,2.105H-.376v-.279a1.793,1.793,0,0,0-.44-1.348A1.753,1.753,0,0,0-2.138-9.045ZM8.519-11.623V.4a4.219,4.219,0,0,1-1.182,3.18A4.539,4.539,0,0,1,4.071,4.694a7.71,7.71,0,0,1-1.708-.183V1.772a6.926,6.926,0,0,0,1.021.1A1.325,1.325,0,0,0,4.888.376v-12Zm-3.9-3.008a1.63,1.63,0,0,1,.559-1.275,2.1,2.1,0,0,1,1.45-.5,2.1,2.1,0,0,1,1.45.5,1.63,1.63,0,0,1,.559,1.275,1.63,1.63,0,0,1-.559,1.275,2.1,2.1,0,0,1-1.45.5,2.1,2.1,0,0,1-1.45-.5A1.63,1.63,0,0,1,4.619-14.631Zm5.489,8.712a6.86,6.86,0,0,1,.677-3.1,4.84,4.84,0,0,1,1.944-2.089,5.856,5.856,0,0,1,2.976-.73,5.344,5.344,0,0,1,4.114,1.617,6.2,6.2,0,0,1,1.5,4.4v.129A6.019,6.019,0,0,1,19.814-1.38a5.359,5.359,0,0,1-4.087,1.6,5.42,5.42,0,0,1-3.985-1.488,5.819,5.819,0,0,1-1.622-4.034Zm3.62.226a4.325,4.325,0,0,0,.5,2.363,1.682,1.682,0,0,0,1.493.752q1.934,0,1.977-2.976v-.365q0-3.126-2-3.126-1.815,0-1.966,2.7ZM27.94-5.9a7.1,7.1,0,0,1,1.192-4.351,3.925,3.925,0,0,1,3.33-1.59,3.338,3.338,0,0,1,2.621,1.225V-16.5h3.631V0H35.46l-.183-1.246A3.428,3.428,0,0,1,32.441.215a3.918,3.918,0,0,1-3.287-1.59A7.325,7.325,0,0,1,27.94-5.9Zm3.62.226q0,3.094,1.8,3.094a1.782,1.782,0,0,0,1.719-1.01V-8.014a1.734,1.734,0,0,0-1.7-1.031q-1.676,0-1.815,2.707ZM46.4.215a5.975,5.975,0,0,1-4.329-1.6,5.509,5.509,0,0,1-1.654-4.152v-.3a7.138,7.138,0,0,1,.661-3.147A4.834,4.834,0,0,1,43-11.091a5.821,5.821,0,0,1,3.008-.747,5.031,5.031,0,0,1,3.867,1.52A5.973,5.973,0,0,1,51.294-6.08v1.407H44.1a2.609,2.609,0,0,0,.849,1.536,2.525,2.525,0,0,0,1.7.559,3.254,3.254,0,0,0,2.686-1.2l1.654,1.955A4.624,4.624,0,0,1,49.065-.338,6.48,6.48,0,0,1,46.4.215Zm-.408-9.26q-1.59,0-1.891,2.105h3.652v-.279a1.793,1.793,0,0,0-.44-1.348A1.753,1.753,0,0,0,45.987-9.045ZM-82.231,24h-3.631V7.5h3.631Zm8.776,0a4.087,4.087,0,0,1-.344-1.042,3.366,3.366,0,0,1-2.793,1.257,4.124,4.124,0,0,1-2.793-.994,3.163,3.163,0,0,1-1.149-2.5,3.251,3.251,0,0,1,1.4-2.857,7.114,7.114,0,0,1,4.061-.967h1.117v-.615q0-1.608-1.386-1.608a1.133,1.133,0,0,0-1.289,1.274h-3.62a3.245,3.245,0,0,1,1.434-2.736,6.027,6.027,0,0,1,3.658-1.051,5.284,5.284,0,0,1,3.513,1.085,3.772,3.772,0,0,1,1.321,2.976v5.146a5.269,5.269,0,0,0,.494,2.449V24Zm-2.267-2.363a2.019,2.019,0,0,0,1.123-.29,1.818,1.818,0,0,0,.639-.655V18.833h-1.053q-1.891,0-1.891,1.7a1.036,1.036,0,0,0,.333.8A1.205,1.205,0,0,0-75.722,21.637Zm13.481-.9a.836.836,0,0,0-.483-.741,7.353,7.353,0,0,0-1.837-.58,8.376,8.376,0,0,1-2.234-.79,3.743,3.743,0,0,1-1.343-1.187,2.834,2.834,0,0,1-.462-1.6A3.212,3.212,0,0,1-67.278,13.2a5.443,5.443,0,0,1,3.459-1.037,6.03,6.03,0,0,1,3.7,1.042,3.258,3.258,0,0,1,1.4,2.739h-3.631q0-1.4-1.472-1.4a1.459,1.459,0,0,0-.956.317.981.981,0,0,0-.387.79.9.9,0,0,0,.473.784,4.466,4.466,0,0,0,1.509.494,13.042,13.042,0,0,1,1.821.462q2.621.9,2.621,3.233a3.044,3.044,0,0,1-1.413,2.589,6.2,6.2,0,0,1-3.658,1,6.322,6.322,0,0,1-2.664-.537,4.455,4.455,0,0,1-1.826-1.461,3.308,3.308,0,0,1-.655-1.944h3.384a1.4,1.4,0,0,0,.537,1.176,2.209,2.209,0,0,0,1.321.371,1.738,1.738,0,0,0,1.112-.3A.962.962,0,0,0-62.24,20.734Zm15.576.688a1.61,1.61,0,0,0,1.182-.414,1.517,1.517,0,0,0,.408-1.155h3.395a4.018,4.018,0,0,1-1.37,3.137,5.1,5.1,0,0,1-3.529,1.225,5.158,5.158,0,0,1-4-1.59,6.264,6.264,0,0,1-1.461-4.4v-.15a7.08,7.08,0,0,1,.65-3.11,4.732,4.732,0,0,1,1.875-2.073,5.589,5.589,0,0,1,2.9-.725,5.03,5.03,0,0,1,3.6,1.257,4.458,4.458,0,0,1,1.332,3.405h-3.395a1.987,1.987,0,0,0-.44-1.386,1.52,1.52,0,0,0-1.182-.483q-1.407,0-1.644,1.794a12.659,12.659,0,0,0-.075,1.568A4.972,4.972,0,0,0-48,20.745,1.45,1.45,0,0,0-46.664,21.422Zm6.059-3.341a6.86,6.86,0,0,1,.677-3.1,4.84,4.84,0,0,1,1.944-2.089,5.856,5.856,0,0,1,2.976-.73,5.344,5.344,0,0,1,4.114,1.617,6.2,6.2,0,0,1,1.5,4.4v.129A6.019,6.019,0,0,1-30.9,22.62a5.359,5.359,0,0,1-4.087,1.6,5.42,5.42,0,0,1-3.985-1.488,5.819,5.819,0,0,1-1.622-4.034Zm3.62.226a4.325,4.325,0,0,0,.5,2.363,1.682,1.682,0,0,0,1.493.752q1.934,0,1.977-2.976v-.365q0-3.126-2-3.126-1.815,0-1.966,2.7Zm12.515-5.93.118,1.364a3.942,3.942,0,0,1,3.319-1.579,3.316,3.316,0,0,1,2.712,1.085,5.165,5.165,0,0,1,.929,3.266V24h-3.631V16.663a1.961,1.961,0,0,0-.354-1.294,1.64,1.64,0,0,0-1.289-.414,1.726,1.726,0,0,0-1.579.838V24h-3.62V12.377Zm13.3-2.89v2.89H-9.26v2.514h-1.912v5.317a1.358,1.358,0,0,0,.236.913,1.268,1.268,0,0,0,.935.258,5.311,5.311,0,0,0,.9-.064V23.9a6.681,6.681,0,0,1-2.041.312,3.792,3.792,0,0,1-2.761-.881,3.61,3.61,0,0,1-.892-2.675V14.891h-1.482V12.377h1.482V9.487ZM-4.018,24H-7.648V12.377h3.631ZM-7.863,9.369A1.63,1.63,0,0,1-7.3,8.094a2.1,2.1,0,0,1,1.45-.5,2.1,2.1,0,0,1,1.45.5,1.63,1.63,0,0,1,.559,1.275A1.63,1.63,0,0,1-4.4,10.644a2.1,2.1,0,0,1-1.45.5,2.1,2.1,0,0,1-1.45-.5A1.63,1.63,0,0,1-7.863,9.369Zm9.4,3.008.118,1.364a3.942,3.942,0,0,1,3.319-1.579,3.316,3.316,0,0,1,2.712,1.085,5.165,5.165,0,0,1,.929,3.266V24H4.984V16.663a1.961,1.961,0,0,0-.354-1.294,1.64,1.64,0,0,0-1.289-.414,1.726,1.726,0,0,0-1.579.838V24h-3.62V12.377ZM10.194,18.1a7.848,7.848,0,0,1,.58-3.115A4.67,4.67,0,0,1,12.439,12.9a4.389,4.389,0,0,1,2.524-.736A3.49,3.49,0,0,1,17.8,13.387l.129-1.01h3.287V23.56a4.9,4.9,0,0,1-.714,2.669,4.584,4.584,0,0,1-2.068,1.74,7.6,7.6,0,0,1-3.137.607,6.557,6.557,0,0,1-2.476-.483,4.47,4.47,0,0,1-1.832-1.257L12.5,24.709A3.319,3.319,0,0,0,15.168,25.9a2.156,2.156,0,0,0,2.406-2.471v-.365a3.4,3.4,0,0,1-2.632,1.149A4.2,4.2,0,0,1,11.5,22.587a6.743,6.743,0,0,1-1.311-4.356Zm3.631.226a4.135,4.135,0,0,0,.537,2.261,1.7,1.7,0,0,0,1.5.833,1.923,1.923,0,0,0,1.708-.784V15.75a1.875,1.875,0,0,0-1.687-.795,1.706,1.706,0,0,0-1.515.865A4.715,4.715,0,0,0,13.825,18.328ZM28.9,24.215a5.975,5.975,0,0,1-4.329-1.6,5.509,5.509,0,0,1-1.654-4.152v-.3a7.138,7.138,0,0,1,.661-3.147A4.834,4.834,0,0,1,25.5,12.909a5.821,5.821,0,0,1,3.008-.747,5.031,5.031,0,0,1,3.867,1.52,5.973,5.973,0,0,1,1.418,4.238v1.407H26.6a2.609,2.609,0,0,0,.849,1.536,2.525,2.525,0,0,0,1.7.559,3.254,3.254,0,0,0,2.686-1.2l1.654,1.955a4.624,4.624,0,0,1-1.917,1.488A6.48,6.48,0,0,1,28.9,24.215Zm-.408-9.26q-1.59,0-1.891,2.105H30.25v-.279a1.793,1.793,0,0,0-.44-1.348A1.753,1.753,0,0,0,28.488,14.955Zm10.087-2.578.118,1.364a3.942,3.942,0,0,1,3.319-1.579,3.316,3.316,0,0,1,2.712,1.085,5.165,5.165,0,0,1,.929,3.266V24H42.023V16.663a1.961,1.961,0,0,0-.354-1.294,1.64,1.64,0,0,0-1.289-.414,1.726,1.726,0,0,0-1.579.838V24h-3.62V12.377Zm14,9.045a1.61,1.61,0,0,0,1.182-.414,1.517,1.517,0,0,0,.408-1.155h3.395a4.018,4.018,0,0,1-1.37,3.137,5.1,5.1,0,0,1-3.529,1.225,5.158,5.158,0,0,1-4-1.59,6.264,6.264,0,0,1-1.461-4.4v-.15a7.08,7.08,0,0,1,.65-3.11,4.732,4.732,0,0,1,1.875-2.073,5.589,5.589,0,0,1,2.9-.725,5.03,5.03,0,0,1,3.6,1.257,4.458,4.458,0,0,1,1.332,3.405H54.162a1.987,1.987,0,0,0-.44-1.386,1.52,1.52,0,0,0-1.182-.483q-1.407,0-1.644,1.794a12.659,12.659,0,0,0-.075,1.568,4.972,4.972,0,0,0,.419,2.428A1.45,1.45,0,0,0,52.572,21.422ZM62.906,24H59.275V12.377h3.631ZM59.061,9.369a1.63,1.63,0,0,1,.559-1.275,2.364,2.364,0,0,1,2.9,0,1.735,1.735,0,0,1,0,2.551,2.364,2.364,0,0,1-2.9,0A1.63,1.63,0,0,1,59.061,9.369ZM71.683,24a4.087,4.087,0,0,1-.344-1.042,3.366,3.366,0,0,1-2.793,1.257,4.124,4.124,0,0,1-2.793-.994,3.163,3.163,0,0,1-1.149-2.5A3.251,3.251,0,0,1,66,17.866a7.114,7.114,0,0,1,4.061-.967h1.117v-.615q0-1.608-1.386-1.608A1.133,1.133,0,0,0,68.5,15.95h-3.62a3.245,3.245,0,0,1,1.434-2.736,6.027,6.027,0,0,1,3.658-1.051,5.284,5.284,0,0,1,3.513,1.085,3.772,3.772,0,0,1,1.321,2.976v5.146a5.269,5.269,0,0,0,.494,2.449V24Zm-2.267-2.363a2.019,2.019,0,0,0,1.123-.29,1.818,1.818,0,0,0,.639-.655V18.833H70.125q-1.891,0-1.891,1.7a1.036,1.036,0,0,0,.333.8A1.205,1.205,0,0,0,69.416,21.637Zm13.481-.9a.836.836,0,0,0-.483-.741,7.353,7.353,0,0,0-1.837-.58,8.376,8.376,0,0,1-2.234-.79A3.743,3.743,0,0,1,77,17.437a2.834,2.834,0,0,1-.462-1.6A3.212,3.212,0,0,1,77.859,13.2a5.443,5.443,0,0,1,3.459-1.037,6.03,6.03,0,0,1,3.7,1.042,3.258,3.258,0,0,1,1.4,2.739H82.779q0-1.4-1.472-1.4a1.459,1.459,0,0,0-.956.317.981.981,0,0,0-.387.79.9.9,0,0,0,.473.784,4.466,4.466,0,0,0,1.509.494,13.043,13.043,0,0,1,1.821.462q2.621.9,2.621,3.233a3.044,3.044,0,0,1-1.413,2.589,6.2,6.2,0,0,1-3.658,1,6.322,6.322,0,0,1-2.664-.537,4.455,4.455,0,0,1-1.826-1.461,3.308,3.308,0,0,1-.655-1.944h3.384a1.4,1.4,0,0,0,.537,1.176,2.209,2.209,0,0,0,1.321.371,1.738,1.738,0,0,0,1.112-.3A.962.962,0,0,0,82.9,20.734Z" transform="translate(6491 -5143)" fill="#12263f"/>
      <path id="Path_190278" data-name="Path 190278" d="M-93.99-4.342V0h-3.085V-12.8h5.106a5.948,5.948,0,0,1,2.6.541,4.074,4.074,0,0,1,1.749,1.538A4.2,4.2,0,0,1-87-8.455a3.7,3.7,0,0,1-1.34,2.993,5.561,5.561,0,0,1-3.678,1.121Zm0-2.382h2.021A1.906,1.906,0,0,0-90.6-7.172a1.665,1.665,0,0,0,.47-1.266,2.059,2.059,0,0,0-.483-1.433,1.712,1.712,0,0,0-1.318-.545H-93.99Zm14.247-.105-.976-.07a1.752,1.752,0,0,0-1.793.879V0h-2.962V-9.51H-82.7l.1,1.222a2.294,2.294,0,0,1,2.083-1.4,2.888,2.888,0,0,1,.826.105Zm5.5,7a4.889,4.889,0,0,1-3.542-1.305,4.507,4.507,0,0,1-1.354-3.4v-.246A5.84,5.84,0,0,1-78.6-7.348a3.955,3.955,0,0,1,1.578-1.727,4.763,4.763,0,0,1,2.461-.611,4.117,4.117,0,0,1,3.164,1.244,4.887,4.887,0,0,1,1.16,3.467v1.151h-5.889a2.135,2.135,0,0,0,.694,1.257,2.066,2.066,0,0,0,1.389.457,2.662,2.662,0,0,0,2.2-.984l1.354,1.6A3.784,3.784,0,0,1-72.057-.277,5.3,5.3,0,0,1-74.241.176ZM-74.575-7.4q-1.3,0-1.547,1.723h2.988v-.229a1.467,1.467,0,0,0-.36-1.1A1.434,1.434,0,0,0-74.575-7.4Zm9.211,3.876,1.5-5.985h3.12L-63.844,0h-3.023l-3.1-9.51h3.129Zm9.993,3.7a4.889,4.889,0,0,1-3.542-1.305,4.507,4.507,0,0,1-1.354-3.4v-.246a5.84,5.84,0,0,1,.541-2.575,3.955,3.955,0,0,1,1.578-1.727,4.763,4.763,0,0,1,2.461-.611,4.117,4.117,0,0,1,3.164,1.244,4.887,4.887,0,0,1,1.16,3.467v1.151h-5.889a2.135,2.135,0,0,0,.694,1.257,2.066,2.066,0,0,0,1.389.457,2.662,2.662,0,0,0,2.2-.984l1.354,1.6A3.784,3.784,0,0,1-53.187-.277,5.3,5.3,0,0,1-55.371.176ZM-55.705-7.4q-1.3,0-1.547,1.723h2.988v-.229a1.467,1.467,0,0,0-.36-1.1A1.434,1.434,0,0,0-55.705-7.4Zm8.253-2.109.1,1.116A3.225,3.225,0,0,1-44.64-9.686,2.713,2.713,0,0,1-42.42-8.8a4.226,4.226,0,0,1,.76,2.672V0h-2.971V-6a1.6,1.6,0,0,0-.29-1.059A1.342,1.342,0,0,0-45.976-7.4a1.413,1.413,0,0,0-1.292.686V0h-2.962V-9.51ZM-36-2.109a1.317,1.317,0,0,0,.967-.338,1.241,1.241,0,0,0,.334-.945h2.777A3.288,3.288,0,0,1-33.042-.826a4.168,4.168,0,0,1-2.887,1,4.22,4.22,0,0,1-3.27-1.3,5.125,5.125,0,0,1-1.2-3.6v-.123A5.792,5.792,0,0,1-39.863-7.4a3.872,3.872,0,0,1,1.534-1.7,4.573,4.573,0,0,1,2.373-.593,4.116,4.116,0,0,1,2.944,1.028,3.647,3.647,0,0,1,1.09,2.786H-34.7A1.626,1.626,0,0,0-35.06-7a1.244,1.244,0,0,0-.967-.4q-1.151,0-1.345,1.468a10.357,10.357,0,0,0-.062,1.283,4.068,4.068,0,0,0,.343,1.986A1.187,1.187,0,0,0-36-2.109ZM-27.545,0h-2.971V-9.51h2.971Zm-3.146-11.971a1.334,1.334,0,0,1,.457-1.043,1.718,1.718,0,0,1,1.187-.407,1.718,1.718,0,0,1,1.187.407,1.334,1.334,0,0,1,.457,1.043,1.334,1.334,0,0,1-.457,1.043,1.718,1.718,0,0,1-1.187.407,1.718,1.718,0,0,1-1.187-.407A1.334,1.334,0,0,1-30.691-11.971Zm4.6,7.128a5.613,5.613,0,0,1,.554-2.536A3.96,3.96,0,0,1-23.95-9.088a4.791,4.791,0,0,1,2.435-.6,4.373,4.373,0,0,1,3.366,1.323,5.076,5.076,0,0,1,1.23,3.6v.105a4.925,4.925,0,0,1-1.235,3.529A4.384,4.384,0,0,1-21.5.176a4.434,4.434,0,0,1-3.261-1.217,4.761,4.761,0,0,1-1.327-3.3Zm2.962.185a3.538,3.538,0,0,0,.413,1.934,1.376,1.376,0,0,0,1.222.615q1.582,0,1.617-2.435v-.3q0-2.558-1.635-2.558Q-23-7.4-23.124-5.194Zm2.021-8.842h3.129l-2.443,2.76-2.417,0Zm8.218,3.99.1,1.116a3.225,3.225,0,0,1,2.716-1.292A2.713,2.713,0,0,1-7.862-8.8,4.226,4.226,0,0,1-7.1-6.126V0h-2.971V-6a1.6,1.6,0,0,0-.29-1.059A1.342,1.342,0,0,0-11.417-7.4a1.413,1.413,0,0,0-1.292.686V0h-2.962V-9.51ZM2.821-4.148,4.4-9.51H7.576L3.7,1.591,3.533,2A2.944,2.944,0,0,1,.615,3.841,4.642,4.642,0,0,1-.606,3.666V1.556H-.22a2.026,2.026,0,0,0,.954-.18A1.094,1.094,0,0,0,1.222.729L1.459.1l-3.3-9.605H1.318ZM15.627-9.51l.1,1.116a3.27,3.27,0,0,1,2.716-1.292,2.407,2.407,0,0,1,2.435,1.433,3.165,3.165,0,0,1,2.795-1.433q2.892,0,2.971,3.5V0H23.669V-6a1.813,1.813,0,0,0-.246-1.063,1.048,1.048,0,0,0-.9-.334,1.4,1.4,0,0,0-1.31.782l.009.123V0H18.255V-5.985a1.906,1.906,0,0,0-.237-1.081,1.045,1.045,0,0,0-.905-.334,1.42,1.42,0,0,0-1.3.782V0H12.85V-9.51ZM31.456,0H28.485V-9.51h2.971ZM28.31-11.971a1.334,1.334,0,0,1,.457-1.043,1.718,1.718,0,0,1,1.187-.407,1.718,1.718,0,0,1,1.187.407,1.334,1.334,0,0,1,.457,1.043,1.334,1.334,0,0,1-.457,1.043,1.718,1.718,0,0,1-1.187.407,1.718,1.718,0,0,1-1.187-.407A1.334,1.334,0,0,1,28.31-11.971Zm8.42.1V-9.51h1.564v2.057H36.729V-3.1a1.111,1.111,0,0,0,.193.747,1.037,1.037,0,0,0,.765.211,4.345,4.345,0,0,0,.738-.053V-.079a5.466,5.466,0,0,1-1.67.255A3.1,3.1,0,0,1,34.5-.545a2.954,2.954,0,0,1-.729-2.188v-4.72H32.555V-9.51h1.213v-2.364ZM42.583,0H39.612V-9.51h2.971ZM39.437-11.971a1.334,1.334,0,0,1,.457-1.043,1.718,1.718,0,0,1,1.187-.407,1.718,1.718,0,0,1,1.187.407,1.334,1.334,0,0,1,.457,1.043,1.334,1.334,0,0,1-.457,1.043,1.718,1.718,0,0,1-1.187.407,1.718,1.718,0,0,1-1.187-.407A1.334,1.334,0,0,1,39.437-11.971ZM44.06-4.825a6.421,6.421,0,0,1,.475-2.549A3.821,3.821,0,0,1,45.9-9.083a3.591,3.591,0,0,1,2.065-.6,2.855,2.855,0,0,1,2.32,1l.105-.826h2.689V-.36a4.009,4.009,0,0,1-.584,2.184A3.75,3.75,0,0,1,50.8,3.248a6.219,6.219,0,0,1-2.566.5,5.365,5.365,0,0,1-2.026-.4,3.657,3.657,0,0,1-1.5-1.028L45.949.58a2.716,2.716,0,0,0,2.18.976A1.764,1.764,0,0,0,50.1-.466v-.3a2.781,2.781,0,0,1-2.153.94,3.437,3.437,0,0,1-2.812-1.332A5.517,5.517,0,0,1,44.06-4.72Zm2.971.185a3.383,3.383,0,0,0,.439,1.85,1.386,1.386,0,0,0,1.23.681,1.573,1.573,0,0,0,1.4-.642v-4a1.534,1.534,0,0,0-1.38-.65,1.4,1.4,0,0,0-1.239.708A3.858,3.858,0,0,0,47.03-4.641ZM60.117,0a3.344,3.344,0,0,1-.281-.853A2.754,2.754,0,0,1,57.551.176a3.374,3.374,0,0,1-2.285-.813,2.588,2.588,0,0,1-.94-2.043,2.66,2.66,0,0,1,1.143-2.338A5.821,5.821,0,0,1,58.79-5.81H59.7v-.5q0-1.316-1.134-1.316a.927.927,0,0,0-1.055,1.042H54.554a2.655,2.655,0,0,1,1.173-2.239,4.931,4.931,0,0,1,2.993-.86,4.323,4.323,0,0,1,2.874.888,3.086,3.086,0,0,1,1.081,2.435v4.21a4.311,4.311,0,0,0,.4,2V0ZM58.263-1.934a1.652,1.652,0,0,0,.918-.237,1.487,1.487,0,0,0,.523-.536V-4.228h-.861q-1.547,0-1.547,1.389a.848.848,0,0,0,.272.655A.986.986,0,0,0,58.263-1.934Zm10.072-.176a1.317,1.317,0,0,0,.967-.338,1.241,1.241,0,0,0,.334-.945h2.777A3.288,3.288,0,0,1,71.292-.826a4.168,4.168,0,0,1-2.887,1,4.22,4.22,0,0,1-3.27-1.3,5.125,5.125,0,0,1-1.2-3.6v-.123A5.792,5.792,0,0,1,64.472-7.4a3.872,3.872,0,0,1,1.534-1.7,4.573,4.573,0,0,1,2.373-.593,4.116,4.116,0,0,1,2.944,1.028,3.647,3.647,0,0,1,1.09,2.786H69.636A1.626,1.626,0,0,0,69.275-7a1.244,1.244,0,0,0-.967-.4q-1.151,0-1.345,1.468A10.357,10.357,0,0,0,66.9-4.649a4.068,4.068,0,0,0,.343,1.986A1.187,1.187,0,0,0,68.335-2.109ZM76.79,0H73.819V-9.51H76.79ZM73.644-11.971a1.334,1.334,0,0,1,.457-1.043,1.718,1.718,0,0,1,1.187-.407,1.718,1.718,0,0,1,1.187.407,1.334,1.334,0,0,1,.457,1.043,1.334,1.334,0,0,1-.457,1.043,1.718,1.718,0,0,1-1.187.407,1.718,1.718,0,0,1-1.187-.407A1.334,1.334,0,0,1,73.644-11.971Zm4.6,7.128a5.613,5.613,0,0,1,.554-2.536,3.96,3.96,0,0,1,1.591-1.709,4.791,4.791,0,0,1,2.435-.6,4.373,4.373,0,0,1,3.366,1.323,5.076,5.076,0,0,1,1.23,3.6v.105a4.925,4.925,0,0,1-1.235,3.529A4.384,4.384,0,0,1,82.837.176a4.434,4.434,0,0,1-3.261-1.217,4.761,4.761,0,0,1-1.327-3.3Zm2.962.185a3.538,3.538,0,0,0,.413,1.934,1.376,1.376,0,0,0,1.222.615q1.582,0,1.617-2.435v-.3q0-2.558-1.635-2.558-1.485,0-1.608,2.206ZM83.224-13.5h3.129l-2.443,2.76-2.417,0Zm8.218,3.99.1,1.116a3.225,3.225,0,0,1,2.716-1.292,2.713,2.713,0,0,1,2.219.888,4.226,4.226,0,0,1,.76,2.672V0H94.263V-6a1.6,1.6,0,0,0-.29-1.059A1.342,1.342,0,0,0,92.918-7.4a1.413,1.413,0,0,0-1.292.686V0H88.664V-9.51Z" transform="translate(6214 -5299)" fill="#12263f"/>
      <path id="Path_190276" data-name="Path 190276" d="M-50.1-4.526h-1.67V0h-3.085V-12.8h5.036a5.621,5.621,0,0,1,3.56,1.01,3.421,3.421,0,0,1,1.283,2.853,4.155,4.155,0,0,1-.541,2.213A3.837,3.837,0,0,1-47.21-5.3l2.672,5.167V0h-3.3ZM-51.772-6.9h1.951A1.751,1.751,0,0,0-48.5-7.362a1.788,1.788,0,0,0,.444-1.291,1.809,1.809,0,0,0-.448-1.3,1.735,1.735,0,0,0-1.318-.471h-1.951ZM-38.65.176a4.889,4.889,0,0,1-3.542-1.305,4.507,4.507,0,0,1-1.354-3.4v-.246A5.84,5.84,0,0,1-43-7.348a3.955,3.955,0,0,1,1.578-1.727,4.763,4.763,0,0,1,2.461-.611A4.117,4.117,0,0,1-35.8-8.442a4.887,4.887,0,0,1,1.16,3.467v1.151h-5.889a2.135,2.135,0,0,0,.694,1.257,2.066,2.066,0,0,0,1.389.457,2.662,2.662,0,0,0,2.2-.984l1.354,1.6A3.784,3.784,0,0,1-36.466-.277,5.3,5.3,0,0,1-38.65.176ZM-38.984-7.4q-1.3,0-1.547,1.723h2.988v-.229a1.467,1.467,0,0,0-.36-1.1A1.434,1.434,0,0,0-38.984-7.4Zm9.554,5.291a1.317,1.317,0,0,0,.967-.338,1.241,1.241,0,0,0,.334-.945h2.777A3.288,3.288,0,0,1-26.473-.826a4.168,4.168,0,0,1-2.887,1,4.22,4.22,0,0,1-3.27-1.3,5.125,5.125,0,0,1-1.2-3.6v-.123A5.792,5.792,0,0,1-33.293-7.4a3.872,3.872,0,0,1,1.534-1.7,4.573,4.573,0,0,1,2.373-.593,4.116,4.116,0,0,1,2.944,1.028,3.647,3.647,0,0,1,1.09,2.786h-2.777A1.626,1.626,0,0,0-28.49-7a1.244,1.244,0,0,0-.967-.4q-1.151,0-1.345,1.468a10.357,10.357,0,0,0-.062,1.283,4.068,4.068,0,0,0,.343,1.986A1.187,1.187,0,0,0-29.43-2.109Zm11,1.081a3.054,3.054,0,0,1-2.54,1.2,3,3,0,0,1-2.369-.91,3.826,3.826,0,0,1-.8-2.615V-9.51h2.962v6.179A1.065,1.065,0,0,0-20-2.109a1.548,1.548,0,0,0,1.45-.729V-9.51h2.979V0h-2.777ZM-5.12-4.685a5.735,5.735,0,0,1-1,3.538A3.2,3.2,0,0,1-8.811.176a2.742,2.742,0,0,1-2.153-.958V3.656h-2.962V-9.51h2.769l.088.879A2.742,2.742,0,0,1-8.829-9.686,3.224,3.224,0,0,1-6.1-8.389,5.805,5.805,0,0,1-5.12-4.825Zm-2.962-.185q0-2.531-1.477-2.531a1.394,1.394,0,0,0-1.406.756V-2.9a1.439,1.439,0,0,0,1.424.791q1.415,0,1.459-2.443ZM.787.176A4.889,4.889,0,0,1-2.755-1.129a4.507,4.507,0,0,1-1.354-3.4v-.246a5.84,5.84,0,0,1,.541-2.575A3.955,3.955,0,0,1-1.991-9.075,4.763,4.763,0,0,1,.47-9.686,4.117,4.117,0,0,1,3.634-8.442a4.887,4.887,0,0,1,1.16,3.467v1.151H-1.094A2.135,2.135,0,0,0-.4-2.566a2.066,2.066,0,0,0,1.389.457,2.662,2.662,0,0,0,2.2-.984l1.354,1.6A3.784,3.784,0,0,1,2.971-.277,5.3,5.3,0,0,1,.787.176ZM.453-7.4q-1.3,0-1.547,1.723H1.894v-.229a1.467,1.467,0,0,0-.36-1.1A1.434,1.434,0,0,0,.453-7.4Zm11.285.571-.976-.07a1.752,1.752,0,0,0-1.793.879V0H6.007V-9.51H8.785l.1,1.222a2.294,2.294,0,0,1,2.083-1.4,2.888,2.888,0,0,1,.826.105ZM17.9,0a3.344,3.344,0,0,1-.281-.853A2.754,2.754,0,0,1,15.333.176a3.374,3.374,0,0,1-2.285-.813,2.588,2.588,0,0,1-.94-2.043A2.66,2.66,0,0,1,13.25-5.019a5.821,5.821,0,0,1,3.322-.791h.914v-.5q0-1.316-1.134-1.316A.927.927,0,0,0,15.3-6.587H12.335a2.655,2.655,0,0,1,1.173-2.239,4.931,4.931,0,0,1,2.993-.86,4.323,4.323,0,0,1,2.874.888,3.086,3.086,0,0,1,1.081,2.435v4.21a4.311,4.311,0,0,0,.4,2V0ZM16.044-1.934a1.652,1.652,0,0,0,.918-.237,1.487,1.487,0,0,0,.523-.536V-4.228h-.861q-1.547,0-1.547,1.389a.848.848,0,0,0,.272.655A.986.986,0,0,0,16.044-1.934Zm10.072-.176a1.317,1.317,0,0,0,.967-.338,1.241,1.241,0,0,0,.334-.945h2.777A3.288,3.288,0,0,1,29.074-.826a4.168,4.168,0,0,1-2.887,1,4.22,4.22,0,0,1-3.27-1.3,5.125,5.125,0,0,1-1.2-3.6v-.123A5.792,5.792,0,0,1,22.254-7.4a3.872,3.872,0,0,1,1.534-1.7,4.573,4.573,0,0,1,2.373-.593A4.116,4.116,0,0,1,29.1-8.657a3.647,3.647,0,0,1,1.09,2.786H27.417A1.626,1.626,0,0,0,27.057-7a1.244,1.244,0,0,0-.967-.4q-1.151,0-1.345,1.468a10.357,10.357,0,0,0-.062,1.283,4.068,4.068,0,0,0,.343,1.986A1.187,1.187,0,0,0,26.117-2.109ZM34.572,0H31.6V-9.51h2.971ZM31.425-11.971a1.334,1.334,0,0,1,.457-1.043,1.718,1.718,0,0,1,1.187-.407,1.718,1.718,0,0,1,1.187.407,1.334,1.334,0,0,1,.457,1.043,1.334,1.334,0,0,1-.457,1.043,1.718,1.718,0,0,1-1.187.407,1.718,1.718,0,0,1-1.187-.407A1.334,1.334,0,0,1,31.425-11.971Zm4.6,7.128a5.613,5.613,0,0,1,.554-2.536,3.96,3.96,0,0,1,1.591-1.709,4.791,4.791,0,0,1,2.435-.6,4.373,4.373,0,0,1,3.366,1.323,5.076,5.076,0,0,1,1.23,3.6v.105a4.925,4.925,0,0,1-1.235,3.529A4.384,4.384,0,0,1,40.619.176a4.434,4.434,0,0,1-3.261-1.217,4.761,4.761,0,0,1-1.327-3.3Zm2.962.185A3.538,3.538,0,0,0,39.4-2.725a1.376,1.376,0,0,0,1.222.615q1.582,0,1.617-2.435v-.3Q42.236-7.4,40.6-7.4q-1.485,0-1.608,2.206ZM41.005-13.5h3.129l-2.443,2.76-2.417,0Zm8.218,3.99.1,1.116a3.225,3.225,0,0,1,2.716-1.292,2.713,2.713,0,0,1,2.219.888,4.226,4.226,0,0,1,.76,2.672V0H52.044V-6a1.6,1.6,0,0,0-.29-1.059A1.342,1.342,0,0,0,50.7-7.4a1.413,1.413,0,0,0-1.292.686V0H46.446V-9.51Z" transform="translate(6767 -5028)" fill="#12263f"/>
      <path id="Path_190277" data-name="Path 190277" d="M-37.178-4.526h-1.67V0h-3.085V-12.8H-36.9a5.621,5.621,0,0,1,3.56,1.01,3.421,3.421,0,0,1,1.283,2.853,4.155,4.155,0,0,1-.541,2.213A3.837,3.837,0,0,1-34.286-5.3l2.672,5.167V0h-3.3ZM-38.848-6.9H-36.9a1.751,1.751,0,0,0,1.323-.463,1.788,1.788,0,0,0,.444-1.291,1.809,1.809,0,0,0-.448-1.3,1.735,1.735,0,0,0-1.318-.471h-1.951ZM-25.726.176a4.889,4.889,0,0,1-3.542-1.305,4.507,4.507,0,0,1-1.354-3.4v-.246a5.84,5.84,0,0,1,.541-2.575A3.955,3.955,0,0,1-28.5-9.075a4.763,4.763,0,0,1,2.461-.611,4.117,4.117,0,0,1,3.164,1.244,4.887,4.887,0,0,1,1.16,3.467v1.151h-5.889a2.135,2.135,0,0,0,.694,1.257,2.066,2.066,0,0,0,1.389.457,2.662,2.662,0,0,0,2.2-.984l1.354,1.6A3.784,3.784,0,0,1-23.542-.277,5.3,5.3,0,0,1-25.726.176ZM-26.06-7.4q-1.3,0-1.547,1.723h2.988v-.229a1.467,1.467,0,0,0-.36-1.1A1.434,1.434,0,0,0-26.06-7.4Zm10.512,4.729a.684.684,0,0,0-.4-.606,6.016,6.016,0,0,0-1.5-.475A6.853,6.853,0,0,1-19.274-4.4a3.062,3.062,0,0,1-1.1-.971,2.319,2.319,0,0,1-.378-1.31A2.628,2.628,0,0,1-19.67-8.837a4.453,4.453,0,0,1,2.83-.848,4.934,4.934,0,0,1,3.023.853,2.666,2.666,0,0,1,1.143,2.241h-2.971q0-1.143-1.2-1.143a1.194,1.194,0,0,0-.782.259.8.8,0,0,0-.316.646.737.737,0,0,0,.387.642,3.654,3.654,0,0,0,1.235.4,10.671,10.671,0,0,1,1.49.378A2.706,2.706,0,0,1-12.691-2.76,2.491,2.491,0,0,1-13.847-.642,5.068,5.068,0,0,1-16.84.176a5.172,5.172,0,0,1-2.18-.439,3.645,3.645,0,0,1-1.494-1.2A2.707,2.707,0,0,1-21.05-3.05h2.769a1.145,1.145,0,0,0,.439.962,1.808,1.808,0,0,0,1.081.3,1.422,1.422,0,0,0,.91-.246A.787.787,0,0,0-15.548-2.672ZM-2.479-4.685a5.735,5.735,0,0,1-1,3.538A3.2,3.2,0,0,1-6.17.176,2.742,2.742,0,0,1-8.323-.782V3.656h-2.962V-9.51h2.769l.088.879A2.742,2.742,0,0,1-6.187-9.686a3.224,3.224,0,0,1,2.733,1.3,5.805,5.805,0,0,1,.976,3.564ZM-5.44-4.869Q-5.44-7.4-6.917-7.4a1.394,1.394,0,0,0-1.406.756V-2.9A1.439,1.439,0,0,0-6.9-2.109q1.415,0,1.459-2.443ZM4.491-1.028a3.054,3.054,0,0,1-2.54,1.2A3,3,0,0,1-.417-.734a3.826,3.826,0,0,1-.8-2.615V-9.51H1.74v6.179A1.065,1.065,0,0,0,2.927-2.109a1.548,1.548,0,0,0,1.45-.729V-9.51H7.356V0H4.579Zm9.088,1.2a4.889,4.889,0,0,1-3.542-1.305,4.507,4.507,0,0,1-1.354-3.4v-.246a5.84,5.84,0,0,1,.541-2.575A3.955,3.955,0,0,1,10.8-9.075a4.763,4.763,0,0,1,2.461-.611,4.117,4.117,0,0,1,3.164,1.244,4.887,4.887,0,0,1,1.16,3.467v1.151H11.7a2.135,2.135,0,0,0,.694,1.257,2.066,2.066,0,0,0,1.389.457,2.662,2.662,0,0,0,2.2-.984l1.354,1.6A3.784,3.784,0,0,1,15.763-.277,5.3,5.3,0,0,1,13.579.176ZM13.245-7.4q-1.3,0-1.547,1.723h2.988v-.229a1.467,1.467,0,0,0-.36-1.1A1.434,1.434,0,0,0,13.245-7.4ZM23.757-2.672a.684.684,0,0,0-.4-.606,6.016,6.016,0,0,0-1.5-.475A6.853,6.853,0,0,1,20.03-4.4a3.062,3.062,0,0,1-1.1-.971,2.319,2.319,0,0,1-.378-1.31,2.628,2.628,0,0,1,1.081-2.158,4.453,4.453,0,0,1,2.83-.848,4.934,4.934,0,0,1,3.023.853,2.666,2.666,0,0,1,1.143,2.241H23.66q0-1.143-1.2-1.143a1.194,1.194,0,0,0-.782.259.8.8,0,0,0-.316.646.737.737,0,0,0,.387.642,3.654,3.654,0,0,0,1.235.4,10.671,10.671,0,0,1,1.49.378A2.706,2.706,0,0,1,26.613-2.76,2.491,2.491,0,0,1,25.458-.642a5.068,5.068,0,0,1-2.993.817,5.172,5.172,0,0,1-2.18-.439,3.645,3.645,0,0,1-1.494-1.2,2.707,2.707,0,0,1-.536-1.591h2.769a1.145,1.145,0,0,0,.439.962,1.808,1.808,0,0,0,1.081.3,1.422,1.422,0,0,0,.91-.246A.787.787,0,0,0,23.757-2.672Zm7.69-9.2V-9.51h1.564v2.057H31.447V-3.1a1.111,1.111,0,0,0,.193.747,1.037,1.037,0,0,0,.765.211,4.345,4.345,0,0,0,.738-.053V-.079a5.466,5.466,0,0,1-1.67.255,3.1,3.1,0,0,1-2.259-.721,2.954,2.954,0,0,1-.729-2.188v-4.72H27.272V-9.51h1.213v-2.364ZM39.533,0a3.344,3.344,0,0,1-.281-.853A2.754,2.754,0,0,1,36.967.176a3.374,3.374,0,0,1-2.285-.813,2.588,2.588,0,0,1-.94-2.043,2.66,2.66,0,0,1,1.143-2.338,5.821,5.821,0,0,1,3.322-.791h.914v-.5q0-1.316-1.134-1.316a.927.927,0,0,0-1.055,1.042H33.97a2.655,2.655,0,0,1,1.173-2.239,4.931,4.931,0,0,1,2.993-.86A4.323,4.323,0,0,1,41.01-8.8a3.086,3.086,0,0,1,1.081,2.435v4.21a4.311,4.311,0,0,0,.4,2V0ZM37.679-1.934a1.652,1.652,0,0,0,.918-.237,1.487,1.487,0,0,0,.523-.536V-4.228h-.861q-1.547,0-1.547,1.389a.848.848,0,0,0,.272.655A.986.986,0,0,0,37.679-1.934Z" transform="translate(6215 -5028)" fill="#12263f"/>
      <path id="Path_190275" data-name="Path 190275" d="M-45.211-4.342V0H-48.3V-12.8h5.106a5.948,5.948,0,0,1,2.6.541,4.074,4.074,0,0,1,1.749,1.538,4.2,4.2,0,0,1,.62,2.263,3.7,3.7,0,0,1-1.34,2.993,5.561,5.561,0,0,1-3.678,1.121Zm0-2.382h2.021a1.906,1.906,0,0,0,1.367-.448,1.665,1.665,0,0,0,.47-1.266,2.059,2.059,0,0,0-.483-1.433,1.712,1.712,0,0,0-1.318-.545h-2.057Zm14.247-.105-.976-.07a1.752,1.752,0,0,0-1.793.879V0h-2.962V-9.51h2.777l.1,1.222a2.294,2.294,0,0,1,2.083-1.4,2.888,2.888,0,0,1,.826.105Zm5.5,7A4.889,4.889,0,0,1-29-1.129a4.507,4.507,0,0,1-1.354-3.4v-.246a5.84,5.84,0,0,1,.541-2.575,3.955,3.955,0,0,1,1.578-1.727,4.763,4.763,0,0,1,2.461-.611,4.117,4.117,0,0,1,3.164,1.244,4.887,4.887,0,0,1,1.16,3.467v1.151h-5.889a2.135,2.135,0,0,0,.694,1.257,2.066,2.066,0,0,0,1.389.457,2.662,2.662,0,0,0,2.2-.984l1.354,1.6A3.784,3.784,0,0,1-23.278-.277,5.3,5.3,0,0,1-25.462.176ZM-25.8-7.4q-1.3,0-1.547,1.723h2.988v-.229a1.467,1.467,0,0,0-.36-1.1A1.434,1.434,0,0,0-25.8-7.4Zm14.361,2.716a5.735,5.735,0,0,1-1,3.538A3.2,3.2,0,0,1-15.126.176a2.742,2.742,0,0,1-2.153-.958V3.656h-2.962V-9.51h2.769l.088.879a2.742,2.742,0,0,1,2.241-1.055,3.224,3.224,0,0,1,2.733,1.3,5.805,5.805,0,0,1,.976,3.564ZM-14.4-4.869q0-2.531-1.477-2.531a1.394,1.394,0,0,0-1.406.756V-2.9a1.439,1.439,0,0,0,1.424.791q1.415,0,1.459-2.443ZM-4.772,0a3.344,3.344,0,0,1-.281-.853A2.754,2.754,0,0,1-7.339.176,3.374,3.374,0,0,1-9.624-.637a2.588,2.588,0,0,1-.94-2.043A2.66,2.66,0,0,1-9.422-5.019,5.821,5.821,0,0,1-6.1-5.81h.914v-.5q0-1.316-1.134-1.316A.927.927,0,0,0-7.374-6.587h-2.962A2.655,2.655,0,0,1-9.163-8.825a4.931,4.931,0,0,1,2.993-.86A4.323,4.323,0,0,1-3.3-8.8,3.086,3.086,0,0,1-2.215-6.363v4.21a4.311,4.311,0,0,0,.4,2V0ZM-6.627-1.934a1.652,1.652,0,0,0,.918-.237,1.487,1.487,0,0,0,.523-.536V-4.228h-.861q-1.547,0-1.547,1.389a.848.848,0,0,0,.272.655A.986.986,0,0,0-6.627-1.934Zm11.8-4.9L4.2-6.9a1.752,1.752,0,0,0-1.793.879V0H-.554V-9.51H2.224l.1,1.222A2.294,2.294,0,0,1,4.4-9.686a2.888,2.888,0,0,1,.826.105ZM11.338,0a3.344,3.344,0,0,1-.281-.853A2.754,2.754,0,0,1,8.771.176,3.374,3.374,0,0,1,6.486-.637a2.588,2.588,0,0,1-.94-2.043A2.66,2.66,0,0,1,6.688-5.019a5.821,5.821,0,0,1,3.322-.791h.914v-.5q0-1.316-1.134-1.316A.927.927,0,0,0,8.736-6.587H5.774A2.655,2.655,0,0,1,6.948-8.825a4.931,4.931,0,0,1,2.993-.86,4.323,4.323,0,0,1,2.874.888A3.086,3.086,0,0,1,13.9-6.363v4.21a4.311,4.311,0,0,0,.4,2V0ZM9.483-1.934a1.652,1.652,0,0,0,.918-.237,1.487,1.487,0,0,0,.523-.536V-4.228h-.861q-1.547,0-1.547,1.389a.848.848,0,0,0,.272.655A.986.986,0,0,0,9.483-1.934Zm10.072-.176a1.317,1.317,0,0,0,.967-.338,1.241,1.241,0,0,0,.334-.945h2.777A3.288,3.288,0,0,1,22.513-.826a4.168,4.168,0,0,1-2.887,1,4.22,4.22,0,0,1-3.27-1.3,5.125,5.125,0,0,1-1.2-3.6v-.123A5.792,5.792,0,0,1,15.693-7.4a3.872,3.872,0,0,1,1.534-1.7A4.573,4.573,0,0,1,19.6-9.686a4.116,4.116,0,0,1,2.944,1.028,3.647,3.647,0,0,1,1.09,2.786H20.856A1.626,1.626,0,0,0,20.5-7a1.244,1.244,0,0,0-.967-.4q-1.151,0-1.345,1.468a10.357,10.357,0,0,0-.062,1.283,4.068,4.068,0,0,0,.343,1.986A1.187,1.187,0,0,0,19.556-2.109ZM28.011,0H25.04V-9.51h2.971ZM24.864-11.971a1.334,1.334,0,0,1,.457-1.043,1.718,1.718,0,0,1,1.187-.407,1.718,1.718,0,0,1,1.187.407,1.334,1.334,0,0,1,.457,1.043,1.334,1.334,0,0,1-.457,1.043,1.718,1.718,0,0,1-1.187.407,1.718,1.718,0,0,1-1.187-.407A1.334,1.334,0,0,1,24.864-11.971Zm4.6,7.128a5.613,5.613,0,0,1,.554-2.536,3.96,3.96,0,0,1,1.591-1.709,4.791,4.791,0,0,1,2.435-.6,4.373,4.373,0,0,1,3.366,1.323,5.076,5.076,0,0,1,1.23,3.6v.105A4.925,4.925,0,0,1,37.4-1.129,4.384,4.384,0,0,1,34.058.176,4.434,4.434,0,0,1,30.8-1.042a4.761,4.761,0,0,1-1.327-3.3Zm2.962.185a3.538,3.538,0,0,0,.413,1.934,1.376,1.376,0,0,0,1.222.615q1.582,0,1.617-2.435v-.3q0-2.558-1.635-2.558-1.485,0-1.608,2.206ZM34.444-13.5h3.129L35.13-10.74l-2.417,0Zm8.218,3.99.1,1.116a3.225,3.225,0,0,1,2.716-1.292,2.713,2.713,0,0,1,2.219.888,4.226,4.226,0,0,1,.76,2.672V0H45.483V-6a1.6,1.6,0,0,0-.29-1.059A1.342,1.342,0,0,0,44.139-7.4a1.413,1.413,0,0,0-1.292.686V0H39.885V-9.51Z" transform="translate(6768 -5299)" fill="#12263f"/>
      <g id="Group_107765" data-name="Group 107765" transform="translate(-234.012 -35.916)">
        <g id="contingencia" transform="translate(6682.818 -5215.091)">
          <g id="_00e499ff" data-name="#00e499ff" transform="translate(70.206 0)">
            <path id="Path_188135" data-name="Path 188135" d="M413.99,61.48a14.06,14.06,0,0,1,5.549.743,14.866,14.866,0,0,1,8.488,7.435,14.47,14.47,0,0,1,1.523,6.917,14.777,14.777,0,0,1-8.485,13.081,15.416,15.416,0,0,1-4.69,1.307,12.274,12.274,0,0,1-2.107.078,15.583,15.583,0,0,0,7.71-3.018A14.8,14.8,0,0,0,413.99,61.48Z" transform="translate(-413.99 -61.438)" fill="#78b62e"/>
          </g>
          <g id="_8ac9feff" data-name="#8ac9feff" transform="translate(0.021 0.032)">
            <path id="Path_188136" data-name="Path 188136" d="M11.847,64.844a12.006,12.006,0,0,1,6.7-3.224,10.654,10.654,0,0,1,4.14.493,2.531,2.531,0,0,1,1.525,2.335c.009,2.66,0,5.319,0,7.98q0,15.2-.005,30.4a2.511,2.511,0,0,1-2.735,2.493,13.334,13.334,0,0,0-3.435-.263,10.83,10.83,0,0,0-8.078,4.579A12.016,12.016,0,0,0,8,114.65Q7.97,93.524,8,72.4A10.519,10.519,0,0,1,11.847,64.844Z" transform="translate(-7.992 -61.62)" fill="#e2e2e2"/>
          </g>
          <g id="_6cf5c2ff" data-name="#6cf5c2ff" transform="translate(56.179 0.042)">
            <path id="Path_188137" data-name="Path 188137" d="M339.349,64.207a14.325,14.325,0,0,1,15.513,24.015,15.583,15.583,0,0,1-7.71,3.018,22.559,22.559,0,0,1-3.262-.429,17.278,17.278,0,0,1-5.487-2.775A14.9,14.9,0,0,1,333.274,80a14.782,14.782,0,0,1,6.075-15.8m14.245,5.717.069.057a3.207,3.207,0,0,0-.956.7c-2.316,2.353-4.652,4.683-6.96,7.043-1.2-1.106-2.292-2.316-3.483-3.426a2.5,2.5,0,0,0-2.289-.4l.064.054a2.215,2.215,0,0,0-.883,3.432c1.38,1.45,2.828,2.837,4.234,4.263a5.9,5.9,0,0,0,1.5,1.26l-.055.041a2.4,2.4,0,0,0,2.479-.536q4.406-4.429,8.784-8.889a2.234,2.234,0,0,0-.4-3.331A2.723,2.723,0,0,0,353.594,69.924Z" transform="translate(-332.847 -61.68)" fill="#94e039"/>
          </g>
          <g id="_d1d1d6ff" data-name="#d1d1d6ff" transform="translate(63.307 8.203)">
            <path id="Path_188138" data-name="Path 188138" d="M410.925,108.971a2.723,2.723,0,0,1,2.1.268,2.234,2.234,0,0,1,.4,3.331q-4.377,4.458-8.784,8.889a2.4,2.4,0,0,1-2.479.536l.055-.041a10.4,10.4,0,0,0,1.452-1.305q3.916-3.954,7.824-7.911a2.259,2.259,0,0,0,.653-2.266,2.922,2.922,0,0,0-1.151-1.443Z" transform="translate(-397.306 -108.887)" fill="#d1d1d6"/>
            <path id="Path_188139" data-name="Path 188139" d="M374.08,131.888a2.5,2.5,0,0,1,2.289.4c1.191,1.11,2.287,2.32,3.483,3.426-.3.3-.605.589-.921.87-1.623-1.518-3.079-3.215-4.787-4.64Z" transform="translate(-374.08 -127.83)" fill="#d1d1d6"/>
          </g>
          <g id="_ffffffff" data-name="#ffffffff" transform="translate(61.992 8.343)">
            <path id="Path_188140" data-name="Path 188140" d="M380.519,110.4a3.207,3.207,0,0,1,.956-.7,2.923,2.923,0,0,1,1.151,1.443,2.259,2.259,0,0,1-.653,2.266q-3.9,3.965-7.824,7.911a10.4,10.4,0,0,1-1.452,1.305,5.9,5.9,0,0,1-1.5-1.26c-1.405-1.426-2.854-2.813-4.234-4.263a2.215,2.215,0,0,1,.883-3.432c1.708,1.424,3.164,3.122,4.787,4.64.316-.28.626-.567.921-.87C375.867,115.081,378.2,112.751,380.519,110.4Z" transform="translate(-366.472 -109.7)" fill="#fff"/>
          </g>
          <path id="Path_188141" data-name="Path 188141" d="M72.285,124.132q20.239-.005,40.478,0a14.906,14.906,0,0,0-.114,7.527,13.667,13.667,0,0,0,.984,2.769,15.53,15.53,0,0,0,4.145,5.266,21.6,21.6,0,0,0,5.487,2.775,22.559,22.559,0,0,0,3.262.429,12.274,12.274,0,0,0,2.107-.078c-.021,11.747,0,23.493-.01,35.24a2.719,2.719,0,0,1-2.208,2.5c-19.123-.036-38.246,0-57.367-.019a15.541,15.541,0,0,1-2.925-.32c-.022-7.819.01-15.64-.014-23.459a13.334,13.334,0,0,1,3.435.263,2.511,2.511,0,0,0,2.735-2.493q.023-15.2.005-30.4m14.037,20.542q-5.671,9.8-11.328,19.614a7.246,7.246,0,0,0-1.219,3.011,5.458,5.458,0,0,0,3.193,5.566,9.883,9.883,0,0,0,4.154.463c7.383.019,14.767-.036,22.148.031a5.6,5.6,0,0,0,3.5-1.646,5.474,5.474,0,0,0,1.307-5.423,9.054,9.054,0,0,0-.9-1.832q-5.694-9.859-11.387-19.719a5.413,5.413,0,0,0-9.47-.066" transform="translate(-56.042 -113.292)" fill="#ccc"/>
          <g id="_60b7ffff" data-name="#60b7ffff" transform="translate(0 28.218)">
            <path id="Path_188148" data-name="Path 188148" d="M417.178,225.977a15.415,15.415,0,0,0,4.69-1.307q-.008,18.268-.005,36.536a2.632,2.632,0,0,1-2.569,2.531c-1.444,0-2.89.036-4.334-.019a2.719,2.719,0,0,0,2.208-2.5C417.18,249.47,417.157,237.724,417.178,225.977Z" transform="translate(-344.586 -224.67)" fill="#d4d4d4"/>
            <path id="Path_188149" data-name="Path 188149" d="M9.86,317.469a10.83,10.83,0,0,1,8.078-4.579c.024,7.819-.009,15.64.014,23.459A13.026,13.026,0,0,1,9.2,329.4,13.422,13.422,0,0,1,7.9,322.483,12.017,12.017,0,0,1,9.86,317.469Z" transform="translate(-7.87 -297.639)" fill="#d4d4d4"/>
          </g>
          <g id="_fe646fff" data-name="#fe646fff" transform="translate(17.693 28.63)">
            <path id="Path_188150" data-name="Path 188150" d="M122.807,229.8a5.535,5.535,0,0,1,5.527-2.7c-.237.033-.472.069-.705.111a6.4,6.4,0,0,1,3.1,2.46c3.95,6.823,7.867,13.665,11.833,20.48a5.45,5.45,0,0,1-3.138,8.1l.334.23c-7.382-.067-14.765-.012-22.148-.031a9.882,9.882,0,0,1-4.154-.463,5.458,5.458,0,0,1-3.193-5.566,7.246,7.246,0,0,1,1.219-3.011q5.666-9.807,11.328-19.614m2.633,1.08a14.371,14.371,0,0,0-.781,1.29q-5.663,9.82-11.332,19.636a2.629,2.629,0,0,0,.821,3.4,3.3,3.3,0,0,0,2.132.467c1.48-.074,2.963-.021,4.445-.036h18.511a2.6,2.6,0,0,0,2.334-3.974q-5.881-10.186-11.764-20.375a2.718,2.718,0,0,0-1.744-1.343A2.53,2.53,0,0,0,125.44,230.883Z" transform="translate(-110.221 -227.05)" fill="#ff9500"/>
            <path id="Path_188151" data-name="Path 188151" d="M199.82,270.224a1.748,1.748,0,0,1,1.476-.624c.4.322.892.659.987,1.207a13.79,13.79,0,0,1-.031,2.137c-.08,2.768-.213,5.534-.28,8.3.045.693-.467,1.193-.788,1.748a1.679,1.679,0,0,1-1.283-1.471c-.135-3.319-.237-6.64-.368-9.959A1.875,1.875,0,0,1,199.82,270.224Z" transform="translate(-184.087 -262.244)" fill="#ff9500"/>
            <path id="Path_188152" data-name="Path 188152" d="M199.738,361.436A1.841,1.841,0,0,1,202,359.3l-.538.064a2.439,2.439,0,0,1,.987,1.711,2.581,2.581,0,0,1-1.2,1.843A2.039,2.039,0,0,1,199.738,361.436Z" transform="translate(-184.221 -336.368)" fill="#ff9500"/>
          </g>
          <g id="_fd4755ff" data-name="#fd4755ff" transform="translate(34.719 28.685)">
            <path id="Path_188153" data-name="Path 188153" d="M210.92,227.481c.233-.042.468-.078.705-.111a5.516,5.516,0,0,1,3.943,2.762q5.7,9.856,11.387,19.719a9.054,9.054,0,0,1,.9,1.832,5.474,5.474,0,0,1-1.307,5.423,5.6,5.6,0,0,1-3.5,1.646l-.334-.23a5.45,5.45,0,0,0,3.138-8.1c-3.966-6.815-7.883-13.657-11.833-20.48A6.4,6.4,0,0,0,210.92,227.481Z" transform="translate(-210.538 -227.37)" fill="#c77400"/>
            <path id="Path_188154" data-name="Path 188154" d="M209.232,269.545a1.69,1.69,0,0,1,1.9,1.1,30.371,30.371,0,0,1-.036,3.1c-.137,2.133-.109,4.272-.256,6.4-.076.738.15,1.6-.389,2.216a1.764,1.764,0,0,1-1.331.57c.322-.555.833-1.055.788-1.748.067-2.768.2-5.534.28-8.3a13.786,13.786,0,0,0,.031-2.137C210.124,270.2,209.637,269.867,209.232,269.545Z" transform="translate(-209.049 -262.245)" fill="#c77400"/>
            <path id="Path_188155" data-name="Path 188155" d="M208.926,359.764l.538-.064a1.835,1.835,0,0,1,1.193,2.469,1.948,1.948,0,0,1-1.947,1.15,2.581,2.581,0,0,0,1.2-1.843A2.439,2.439,0,0,0,208.926,359.764Z" transform="translate(-208.71 -336.824)" fill="#c77400"/>
          </g>
          <g id="_ffd064ff" data-name="#ffd064ff" transform="translate(20.483 31.442)">
            <path id="Path_188156" data-name="Path 188156" d="M138.788,244.339a2.53,2.53,0,0,1,2.621-.94,3.51,3.51,0,0,0-1.48,1.411q-5.819,10.079-11.643,20.155a2.737,2.737,0,0,0-.282,2.51,4.225,4.225,0,0,0,1.623,1.653,3.3,3.3,0,0,1-2.132-.467,2.629,2.629,0,0,1-.821-3.4q5.653-9.825,11.332-19.636A14.366,14.366,0,0,1,138.788,244.339Z" transform="translate(-126.359 -243.318)" fill="#f0dc8b"/>
          </g>
          <g id="_ffe177ff" data-name="#ffe177ff" transform="translate(21.94 31.522)">
            <path id="Path_188157" data-name="Path 188157" d="M148.38,243.78a2.718,2.718,0,0,1,1.744,1.343q5.884,10.188,11.764,20.375a2.6,2.6,0,0,1-2.334,3.974H141.044c-1.482.016-2.965-.038-4.445.036a4.224,4.224,0,0,1-1.623-1.653,2.737,2.737,0,0,1,.282-2.51q5.827-10.074,11.643-20.155a3.51,3.51,0,0,1,1.48-1.411m-2.107,5.088a1.875,1.875,0,0,0-.287,1.338c.131,3.319.233,6.64.368,9.959a1.679,1.679,0,0,0,1.283,1.471,1.764,1.764,0,0,0,1.331-.57c.539-.612.313-1.478.389-2.216.147-2.132.119-4.27.256-6.4a30.367,30.367,0,0,0,.036-3.1,1.69,1.69,0,0,0-1.9-1.1,1.748,1.748,0,0,0-1.476.624m-.216,17.088a2.039,2.039,0,0,0,1.509,1.482,1.948,1.948,0,0,0,1.947-1.15,1.821,1.821,0,1,0-3.456-.332Z" transform="translate(-134.787 -243.78)" fill="#faf4dc"/>
          </g>
        </g>
        <g id="_000000ff" data-name="#000000ff" transform="translate(6681 -5216)">
          <path id="Path_188126" data-name="Path 188126" d="M5.534,55.554a12.194,12.194,0,0,1,12.789-.323,1.448,1.448,0,0,1,.664,1.35c0,2.6,0,5.2,0,7.8q19.044.005,38.085,0a16.349,16.349,0,0,1,7.006-8.536,16.134,16.134,0,0,1,21.239,4.263,16.376,16.376,0,0,1,3.191,8.92V70.1a16.274,16.274,0,0,1-2.747,8.633,16.587,16.587,0,0,1-5.776,5.257q0,19.062,0,38.123a1.382,1.382,0,0,1-1.155,1.414,14.77,14.77,0,0,1-1.564.033q-31.285,0-62.574,0A14.446,14.446,0,0,1,0,109.832V65.226a12.287,12.287,0,0,1,5.534-9.672m2.59,1.711a9.473,9.473,0,0,0-5.1,6.348,16.244,16.244,0,0,0-.254,3.864V101.45a12.189,12.189,0,0,1,13.453-3.782q.008-20.216,0-40.433a9.47,9.47,0,0,0-8.1.031m62.611-.835a13.416,13.416,0,1,0,8.17,1.627,13.47,13.47,0,0,0-8.17-1.627M18.988,67.152q-.005,16.238,0,32.476a1.43,1.43,0,0,1-1.02,1.516,1.749,1.749,0,0,1-1.38-.3A9.426,9.426,0,0,0,3.4,105.8a10.459,10.459,0,0,0-.073,6.941A11.648,11.648,0,0,0,14.511,120.8q31.355.01,62.711,0,.005-17.82,0-35.641A16.158,16.158,0,0,1,65.529,84.4a1.852,1.852,0,0,0-.864-.285q-6.4,0-12.81,0a1.379,1.379,0,1,1,0-2.757c3.077-.014,6.154,0,9.231-.007a16.6,16.6,0,0,1-3.637-5.288q-14.456,0-28.909,0c-.576-.012-1.238.1-1.706-.32a1.389,1.389,0,0,1-.057-2.074c.46-.462,1.153-.366,1.744-.373q14.018,0,28.038,0a16.6,16.6,0,0,1-.187-6.14Q37.677,67.149,18.988,67.152Z" transform="translate(0 -53.569)"/>
          <path id="Path_188127" data-name="Path 188127" d="M373.052,101.973a3.571,3.571,0,1,1,5.051,5.048q-4.154,4.224-8.332,8.427a4.375,4.375,0,0,1-1.606,1.184,3.582,3.582,0,0,1-3.822-.783q-2.427-2.414-4.84-4.837a3.574,3.574,0,0,1,4.889-5.214c.832.8,1.632,1.63,2.453,2.439q3.109-3.13,6.208-6.265m2.261,1.748a1.593,1.593,0,0,0-.477.375q-3.482,3.527-6.975,7.045a1.387,1.387,0,0,1-1.969.05c-1.11-1.087-2.194-2.2-3.3-3.291a.808.808,0,1,0-1.134,1.148c1.58,1.59,3.17,3.172,4.754,4.759a.826.826,0,0,0,1.255.035q4.346-4.377,8.676-8.771A.81.81,0,0,0,375.314,103.721Z" transform="translate(-296.457 -92.723)"/>
          <path id="Path_188128" data-name="Path 188128" d="M119.7,219.251a6.8,6.8,0,0,1,6.984,3.183q5.959,10.289,11.894,20.592a6.811,6.811,0,0,1,.932,4.106,6.794,6.794,0,0,1-6.918,6.172q-11.762,0-23.523,0a6.762,6.762,0,0,1-3.936-1.2,6.879,6.879,0,0,1-2.937-5.668,6.787,6.787,0,0,1,.93-3.347q5.378-9.322,10.763-18.642a17.05,17.05,0,0,1,2.119-3.25,6.679,6.679,0,0,1,3.693-1.941m.344,2.754a4.063,4.063,0,0,0-2.743,2.057q-5.91,10.248-11.826,20.494a4.028,4.028,0,0,0,3.584,5.978q11.332.008,22.663,0a6.843,6.843,0,0,0,2.327-.223,4.061,4.061,0,0,0,2.707-3.525,4.161,4.161,0,0,0-.645-2.5Q130.223,234.1,124.338,223.9A4.034,4.034,0,0,0,120.045,222.005Z" transform="translate(-84.529 -190.522)"/>
          <path id="Path_188129" data-name="Path 188129" d="M292.628,260.983a2.352,2.352,0,0,1,.949-.133c5.765.007,11.531,0,17.3.005a1.423,1.423,0,0,1,1.4.851,1.385,1.385,0,0,1-.577,1.725,2.57,2.57,0,0,1-1.343.19q-8.3-.005-16.6,0a1.822,1.822,0,0,1-1.587-.465A1.392,1.392,0,0,1,292.628,260.983Z" transform="translate(-241.375 -225.017)"/>
          <path id="Path_188130" data-name="Path 188130" d="M194.257,264.385a4.5,4.5,0,0,1,2.482.273,2.81,2.81,0,0,1,1.507,2.565q-.174,5-.363,10a2.8,2.8,0,0,1-5.584.029q-.2-5.02-.366-10.04a2.807,2.807,0,0,1,2.323-2.828m.441,2.73c.137,3.357.2,6.718.391,10.07.2-3.352.256-6.713.4-10.07Z" transform="translate(-158.751 -227.902)"/>
          <path id="Path_188131" data-name="Path 188131" d="M335.172,307.632a2.089,2.089,0,0,1,.84-.112c3.4.01,6.8-.009,10.2.009a1.366,1.366,0,0,1,1.309,1.127,1.386,1.386,0,0,1-1.317,1.623c-3.461.021-6.925.007-10.386.007a1.408,1.408,0,0,1-1.461-1.139A1.383,1.383,0,0,1,335.172,307.632Z" transform="translate(-276.538 -263.619)"/>
          <path id="Path_188132" data-name="Path 188132" d="M335.513,354.136c3.563-.042,7.129-.017,10.694-.012a1.378,1.378,0,0,1,1.3,1.675,1.418,1.418,0,0,1-1.483,1.082q-5.1,0-10.2,0a1.4,1.4,0,0,1-1.457-1.056A1.375,1.375,0,0,1,335.513,354.136Z" transform="translate(-276.529 -302.157)"/>
          <path id="Path_188133" data-name="Path 188133" d="M194.076,357.1a3.2,3.2,0,1,1-2.344,2.654,3.2,3.2,0,0,1,2.344-2.654m.657,2.688a.439.439,0,0,0-.109.736.431.431,0,1,0,.109-.736Z" transform="translate(-158.559 -304.539)"/>
          <path id="Path_188134" data-name="Path 188134" d="M335.183,400.822a2.071,2.071,0,0,1,.823-.114c3.343.005,6.685,0,10.028,0a1.405,1.405,0,0,1,1.511,1.25,1.384,1.384,0,0,1-1.326,1.507c-3.464.017-6.93,0-10.4.005a1.4,1.4,0,0,1-1.462-1.16A1.378,1.378,0,0,1,335.183,400.822Z" transform="translate(-276.541 -340.696)"/>
        </g>
      </g>
    </g>
  </g>
</svg>
