<svg xmlns="http://www.w3.org/2000/svg" width="1030" height="385" viewBox="0 0 1030 385">
  <g id="t4-info1" transform="translate(-285 -3573)">
    <rect id="Rectangle_36706" data-name="Rectangle 36706" width="1030" height="385" transform="translate(285 3573)" fill="none"/>
    <g id="Group_107777" data-name="Group 107777" transform="translate(-5810.896 11712.409)">
      <path id="Path_188158" data-name="Path 188158" d="M141.314,294.9C63.392,294.9,0,231.509,0,153.588S63.392,12.27,141.314,12.27a2.108,2.108,0,1,1,0,4.217c-75.6,0-137.1,61.5-137.1,137.1s61.5,137.1,137.1,137.1,137.1-61.5,137.1-137.1a2.1,2.1,0,0,1,2.108-2.108h46.419a2.108,2.108,0,0,1,0,4.217H282.6C281.481,232.647,218.534,294.9,141.314,294.9Z" transform="translate(6106.896 -8104.675)" fill="#3c6d9d"/>
      <circle id="Ellipse_4978" data-name="Ellipse 4978" cx="115.321" cy="115.321" r="115.321" transform="translate(6132.889 -8066.409)" fill="#3c6d9d"/>
      <path id="Path_188159" data-name="Path 188159" d="M761.65,349.494a2.108,2.108,0,0,1-1.493-3.6l16.72-16.7L759.583,311.9a2.108,2.108,0,1,1,2.981-2.981l18.783,18.783a2.1,2.1,0,0,1,0,2.981l-18.208,18.192A2.1,2.1,0,0,1,761.65,349.494Z" transform="translate(5657.434 -8279.988)" fill="#3c6d9d"/>
      <circle id="Ellipse_4979" data-name="Ellipse 4979" cx="7.112" cy="7.112" r="7.112" transform="translate(6242.565 -8097.409)" fill="#3c6d9d"/>
      <g id="Group_107773" data-name="Group 107773" transform="translate(6112.54 -8086.618)" opacity="0.5" style="mix-blend-mode: multiply;isolation: isolate">
        <circle id="Ellipse_4980" data-name="Ellipse 4980" cx="96.35" cy="96.35" r="96.35" transform="translate(14.691 154.496) rotate(-45)" fill="#fff" opacity="0"/>
        <circle id="Ellipse_4981" data-name="Ellipse 4981" cx="96.35" cy="96.35" r="96.35" transform="translate(14.107 153.773) rotate(-45)" fill="#f5f6f6" opacity="0.04"/>
        <circle id="Ellipse_4982" data-name="Ellipse 4982" cx="96.35" cy="96.35" r="96.35" transform="translate(13.518 153.04) rotate(-45)" fill="#ebeeed" opacity="0.08"/>
        <circle id="Ellipse_4983" data-name="Ellipse 4983" cx="96.35" cy="96.35" r="96.35" transform="translate(12.929 152.311) rotate(-45)" fill="#e2e5e4" opacity="0.12"/>
        <circle id="Ellipse_4984" data-name="Ellipse 4984" cx="96.35" cy="96.35" r="96.35" transform="translate(52.251 55.231)" fill="#d8dcdb" opacity="0.15"/>
        <circle id="Ellipse_4985" data-name="Ellipse 4985" cx="96.35" cy="96.35" r="96.35" transform="translate(51.664 54.501)" fill="#ced3d2" opacity="0.19"/>
        <circle id="Ellipse_4986" data-name="Ellipse 4986" cx="96.35" cy="96.35" r="96.35" transform="translate(51.077 53.771)" fill="#c4cbc9" opacity="0.23"/>
        <circle id="Ellipse_4987" data-name="Ellipse 4987" cx="96.35" cy="96.35" r="96.35" transform="translate(10.582 149.391) rotate(-45)" fill="#bac2c0" opacity="0.27"/>
        <circle id="Ellipse_4988" data-name="Ellipse 4988" cx="96.35" cy="96.35" r="96.35" transform="translate(9.993 148.658) rotate(-45)" fill="#b1b9b7" opacity="0.31"/>
        <circle id="Ellipse_4989" data-name="Ellipse 4989" cx="96.35" cy="96.35" r="96.35" transform="translate(9.401 147.932) rotate(-45)" fill="#a7b0ae" opacity="0.35"/>
        <circle id="Ellipse_4990" data-name="Ellipse 4990" cx="96.35" cy="96.35" r="96.35" transform="translate(48.724 50.851)" fill="#9da8a5" opacity="0.38"/>
        <circle id="Ellipse_4991" data-name="Ellipse 4991" cx="96.35" cy="96.35" r="96.35" transform="translate(48.137 50.121)" fill="#939f9c" opacity="0.42"/>
        <circle id="Ellipse_4992" data-name="Ellipse 4992" cx="96.35" cy="96.35" r="96.35" transform="translate(47.549 49.395)" fill="#899693" opacity="0.46"/>
        <circle id="Ellipse_4993" data-name="Ellipse 4993" cx="96.35" cy="96.35" r="96.35" transform="translate(46.962 48.665)" fill="#808e8b" opacity="0.5"/>
        <circle id="Ellipse_4994" data-name="Ellipse 4994" cx="96.35" cy="96.35" r="96.35" transform="translate(46.375 47.935)" fill="#768582" opacity="0.54"/>
        <circle id="Ellipse_4995" data-name="Ellipse 4995" cx="96.35" cy="96.35" r="96.35" transform="translate(5.879 143.553) rotate(-45)" fill="#6c7c79" opacity="0.58"/>
        <circle id="Ellipse_4996" data-name="Ellipse 4996" cx="96.35" cy="96.35" r="96.35" transform="translate(5.29 142.824) rotate(-45)" fill="#627370" opacity="0.62"/>
        <circle id="Ellipse_4997" data-name="Ellipse 4997" cx="96.35" cy="96.35" r="96.35" transform="translate(4.699 142.098) rotate(-45)" fill="#586b67" opacity="0.65"/>
        <circle id="Ellipse_4998" data-name="Ellipse 4998" cx="96.35" cy="96.35" r="96.35" transform="translate(44.022 45.015)" fill="#4e625e" opacity="0.69"/>
        <circle id="Ellipse_4999" data-name="Ellipse 4999" cx="96.35" cy="96.35" r="96.35" transform="translate(43.435 44.285)" fill="#455955" opacity="0.73"/>
        <circle id="Ellipse_5000" data-name="Ellipse 5000" cx="96.35" cy="96.35" r="96.35" transform="translate(42.847 43.555)" fill="#3b504c" opacity="0.77"/>
        <circle id="Ellipse_5001" data-name="Ellipse 5001" cx="96.35" cy="96.35" r="96.35" transform="translate(42.26 42.825)" fill="#314843" opacity="0.81"/>
        <circle id="Ellipse_5002" data-name="Ellipse 5002" cx="96.35" cy="96.35" r="96.35" transform="translate(1.762 138.445) rotate(-45)" fill="#273f3a" opacity="0.85"/>
        <circle id="Ellipse_5003" data-name="Ellipse 5003" cx="96.35" cy="96.35" r="96.35" transform="translate(1.176 137.719) rotate(-45)" fill="#1d3631" opacity="0.88"/>
        <circle id="Ellipse_5004" data-name="Ellipse 5004" cx="96.35" cy="96.35" r="96.35" transform="translate(0.592 136.99) rotate(-45)" fill="#142d28" opacity="0.92"/>
        <circle id="Ellipse_5005" data-name="Ellipse 5005" cx="96.35" cy="96.35" r="96.35" transform="translate(0 136.26) rotate(-45)" fill="#0a251f" opacity="0.96"/>
        <circle id="Ellipse_5006" data-name="Ellipse 5006" cx="96.35" cy="96.35" r="96.35" transform="translate(39.32 39.18)" fill="#001c16"/>
      </g>
      <circle id="Ellipse_5007" data-name="Ellipse 5007" cx="96.35" cy="96.35" r="96.35" transform="translate(6152 -8047.438)" fill="#fff"/>
      <path id="Path_188160" data-name="Path 188160" d="M1017.873,294.9c-77.922,0-141.313-63.392-141.313-141.313S939.948,12.27,1017.873,12.27a2.108,2.108,0,1,1,0,4.217c-75.6,0-137.1,61.5-137.1,137.1s61.5,137.1,137.1,137.1,137.1-61.5,137.1-137.1a2.1,2.1,0,0,1,2.108-2.108H1203.5a2.108,2.108,0,0,1,0,4.217h-44.328C1158.045,232.647,1095.094,294.9,1017.873,294.9Z" transform="translate(5587.793 -8104.675)" fill="#ffb500"/>
      <circle id="Ellipse_5008" data-name="Ellipse 5008" cx="115.321" cy="115.321" r="115.321" transform="translate(6490.347 -8066.409)" fill="#ffb500"/>
      <path id="Path_188161" data-name="Path 188161" d="M1638.187,349.494a2.108,2.108,0,0,1-1.492-3.6l16.719-16.7L1636.1,311.9a2.108,2.108,0,1,1,2.981-2.981l18.783,18.783a2.1,2.1,0,0,1,0,2.981l-18.192,18.192a2.1,2.1,0,0,1-1.488.616Z" transform="translate(5138.355 -8279.988)" fill="#ffb500"/>
      <circle id="Ellipse_5009" data-name="Ellipse 5009" cx="7.112" cy="7.112" r="7.112" transform="translate(6598.555 -8097.409)" fill="#ffb500"/>
      <g id="Group_107774" data-name="Group 107774" transform="translate(6469.999 -8086.62)" opacity="0.5" style="mix-blend-mode: multiply;isolation: isolate">
        <circle id="Ellipse_5010" data-name="Ellipse 5010" cx="96.35" cy="96.35" r="96.35" transform="translate(14.688 154.499) rotate(-45)" fill="#fff" opacity="0"/>
        <circle id="Ellipse_5011" data-name="Ellipse 5011" cx="96.35" cy="96.35" r="96.35" transform="translate(14.107 153.773) rotate(-45)" fill="#f5f6f6" opacity="0.04"/>
        <circle id="Ellipse_5012" data-name="Ellipse 5012" cx="96.35" cy="96.35" r="96.35" transform="translate(13.518 153.04) rotate(-45)" fill="#ebeeed" opacity="0.08"/>
        <circle id="Ellipse_5013" data-name="Ellipse 5013" cx="96.35" cy="96.35" r="96.35" transform="translate(12.929 152.311) rotate(-45)" fill="#e2e5e4" opacity="0.12"/>
        <circle id="Ellipse_5014" data-name="Ellipse 5014" cx="96.35" cy="96.35" r="96.35" transform="translate(52.249 55.232)" fill="#d8dcdb" opacity="0.15"/>
        <circle id="Ellipse_5015" data-name="Ellipse 5015" cx="96.35" cy="96.35" r="96.35" transform="translate(51.662 54.502)" fill="#ced3d2" opacity="0.19"/>
        <circle id="Ellipse_5016" data-name="Ellipse 5016" cx="96.35" cy="96.35" r="96.35" transform="translate(51.075 53.772)" fill="#c4cbc9" opacity="0.23"/>
        <circle id="Ellipse_5017" data-name="Ellipse 5017" cx="96.35" cy="96.35" r="96.35" transform="translate(10.578 149.391) rotate(-45)" fill="#bac2c0" opacity="0.27"/>
        <circle id="Ellipse_5018" data-name="Ellipse 5018" cx="96.35" cy="96.35" r="96.35" transform="translate(9.993 148.662) rotate(-45)" fill="#b1b9b7" opacity="0.31"/>
        <circle id="Ellipse_5019" data-name="Ellipse 5019" cx="96.35" cy="96.35" r="96.35" transform="translate(9.401 147.932) rotate(-45)" fill="#a7b0ae" opacity="0.35"/>
        <circle id="Ellipse_5020" data-name="Ellipse 5020" cx="96.35" cy="96.35" r="96.35" transform="translate(48.722 50.853)" fill="#9da8a5" opacity="0.38"/>
        <circle id="Ellipse_5021" data-name="Ellipse 5021" cx="96.35" cy="96.35" r="96.35" transform="translate(48.135 50.123)" fill="#939f9c" opacity="0.42"/>
        <circle id="Ellipse_5022" data-name="Ellipse 5022" cx="96.35" cy="96.35" r="96.35" transform="translate(47.548 49.397)" fill="#899693" opacity="0.46"/>
        <circle id="Ellipse_5023" data-name="Ellipse 5023" cx="96.35" cy="96.35" r="96.35" transform="translate(46.96 48.667)" fill="#808e8b" opacity="0.5"/>
        <circle id="Ellipse_5024" data-name="Ellipse 5024" cx="96.35" cy="96.35" r="96.35" transform="translate(46.373 47.937)" fill="#768582" opacity="0.54"/>
        <circle id="Ellipse_5025" data-name="Ellipse 5025" cx="96.35" cy="96.35" r="96.35" transform="translate(5.879 143.553) rotate(-45)" fill="#6c7c79" opacity="0.58"/>
        <circle id="Ellipse_5026" data-name="Ellipse 5026" cx="96.35" cy="96.35" r="96.35" transform="translate(5.29 142.824) rotate(-45)" fill="#627370" opacity="0.62"/>
        <circle id="Ellipse_5027" data-name="Ellipse 5027" cx="96.35" cy="96.35" r="96.35" transform="translate(4.699 142.098) rotate(-45)" fill="#586b67" opacity="0.65"/>
        <circle id="Ellipse_5028" data-name="Ellipse 5028" cx="96.35" cy="96.35" r="96.35" transform="translate(44.02 45.017)" fill="#4e625e" opacity="0.69"/>
        <circle id="Ellipse_5029" data-name="Ellipse 5029" cx="96.35" cy="96.35" r="96.35" transform="translate(43.433 44.287)" fill="#455955" opacity="0.73"/>
        <circle id="Ellipse_5030" data-name="Ellipse 5030" cx="96.35" cy="96.35" r="96.35" transform="translate(42.846 43.557)" fill="#3b504c" opacity="0.77"/>
        <circle id="Ellipse_5031" data-name="Ellipse 5031" cx="96.35" cy="96.35" r="96.35" transform="translate(42.258 42.827)" fill="#314843" opacity="0.81"/>
        <circle id="Ellipse_5032" data-name="Ellipse 5032" cx="96.35" cy="96.35" r="96.35" transform="translate(1.762 138.445) rotate(-45)" fill="#273f3a" opacity="0.85"/>
        <circle id="Ellipse_5033" data-name="Ellipse 5033" cx="96.35" cy="96.35" r="96.35" transform="translate(1.176 137.719) rotate(-45)" fill="#1d3631" opacity="0.88"/>
        <circle id="Ellipse_5034" data-name="Ellipse 5034" cx="96.35" cy="96.35" r="96.35" transform="translate(0.588 136.99) rotate(-45)" fill="#142d28" opacity="0.92"/>
        <circle id="Ellipse_5035" data-name="Ellipse 5035" cx="96.35" cy="96.35" r="96.35" transform="translate(0 136.26) rotate(-45)" fill="#0a251f" opacity="0.96"/>
        <circle id="Ellipse_5036" data-name="Ellipse 5036" cx="96.35" cy="96.35" r="96.35" transform="translate(39.318 39.182)" fill="#001c16"/>
      </g>
      <circle id="Ellipse_5037" data-name="Ellipse 5037" cx="96.35" cy="96.35" r="96.35" transform="translate(6509 -8047.438)" fill="#fff"/>
      <path id="Path_188162" data-name="Path 188162" d="M1894.434,294.9c-77.918,0-141.314-63.392-141.314-141.313s63.4-141.318,141.314-141.318,141.318,63.4,141.318,141.318S1972.355,294.9,1894.434,294.9Zm0-278.414c-75.6,0-137.1,61.5-137.1,137.1s61.5,137.1,137.1,137.1,137.1-61.5,137.1-137.1-61.516-137.1-137.1-137.1Z" transform="translate(5068.691 -8104.675)" fill="#78b62e"/>
      <circle id="Ellipse_5038" data-name="Ellipse 5038" cx="115.321" cy="115.321" r="115.321" transform="translate(6847.804 -8066.409)" fill="#78b62e"/>
      <g id="Group_107775" data-name="Group 107775" transform="translate(6827.458 -8086.621)" opacity="0.5" style="mix-blend-mode: multiply;isolation: isolate">
        <circle id="Ellipse_5039" data-name="Ellipse 5039" cx="96.35" cy="96.35" r="96.35" transform="translate(14.688 154.499) rotate(-45)" fill="#fff" opacity="0"/>
        <circle id="Ellipse_5040" data-name="Ellipse 5040" cx="96.35" cy="96.35" r="96.35" transform="translate(14.103 153.772) rotate(-45)" fill="#f5f6f6" opacity="0.04"/>
        <circle id="Ellipse_5041" data-name="Ellipse 5041" cx="96.35" cy="96.35" r="96.35" transform="translate(13.518 153.044) rotate(-45)" fill="#ebeeed" opacity="0.08"/>
        <circle id="Ellipse_5042" data-name="Ellipse 5042" cx="96.35" cy="96.35" r="96.35" transform="translate(12.929 152.311) rotate(-45)" fill="#e2e5e4" opacity="0.12"/>
        <circle id="Ellipse_5043" data-name="Ellipse 5043" cx="96.35" cy="96.35" r="96.35" transform="translate(52.248 55.234)" fill="#d8dcdb" opacity="0.15"/>
        <circle id="Ellipse_5044" data-name="Ellipse 5044" cx="96.35" cy="96.35" r="96.35" transform="translate(51.66 54.504)" fill="#ced3d2" opacity="0.19"/>
        <circle id="Ellipse_5045" data-name="Ellipse 5045" cx="96.35" cy="96.35" r="96.35" transform="translate(51.073 53.774)" fill="#c4cbc9" opacity="0.23"/>
        <circle id="Ellipse_5046" data-name="Ellipse 5046" cx="96.35" cy="96.35" r="96.35" transform="translate(10.578 149.391) rotate(-45)" fill="#bac2c0" opacity="0.27"/>
        <circle id="Ellipse_5047" data-name="Ellipse 5047" cx="96.35" cy="96.35" r="96.35" transform="translate(9.993 148.662) rotate(-45)" fill="#b1b9b7" opacity="0.31"/>
        <circle id="Ellipse_5048" data-name="Ellipse 5048" cx="96.35" cy="96.35" r="96.35" transform="translate(9.401 147.932) rotate(-45)" fill="#a7b0ae" opacity="0.35"/>
        <circle id="Ellipse_5049" data-name="Ellipse 5049" cx="96.35" cy="96.35" r="96.35" transform="translate(48.72 50.854)" fill="#9da8a5" opacity="0.38"/>
        <circle id="Ellipse_5050" data-name="Ellipse 5050" cx="96.35" cy="96.35" r="96.35" transform="translate(48.133 50.124)" fill="#939f9c" opacity="0.42"/>
        <circle id="Ellipse_5051" data-name="Ellipse 5051" cx="96.35" cy="96.35" r="96.35" transform="translate(47.546 49.399)" fill="#899693" opacity="0.46"/>
        <circle id="Ellipse_5052" data-name="Ellipse 5052" cx="96.35" cy="96.35" r="96.35" transform="translate(46.959 48.669)" fill="#808e8b" opacity="0.5"/>
        <circle id="Ellipse_5053" data-name="Ellipse 5053" cx="96.35" cy="96.35" r="96.35" transform="translate(46.371 47.939)" fill="#768582" opacity="0.54"/>
        <circle id="Ellipse_5054" data-name="Ellipse 5054" cx="96.35" cy="96.35" r="96.35" transform="translate(5.879 143.557) rotate(-45)" fill="#6c7c79" opacity="0.58"/>
        <circle id="Ellipse_5055" data-name="Ellipse 5055" cx="96.35" cy="96.35" r="96.35" transform="translate(5.29 142.824) rotate(-45)" fill="#627370" opacity="0.62"/>
        <circle id="Ellipse_5056" data-name="Ellipse 5056" cx="96.35" cy="96.35" r="96.35" transform="translate(4.699 142.098) rotate(-45)" fill="#586b67" opacity="0.65"/>
        <circle id="Ellipse_5057" data-name="Ellipse 5057" cx="96.35" cy="96.35" r="96.35" transform="translate(44.018 45.019)" fill="#4e625e" opacity="0.69"/>
        <circle id="Ellipse_5058" data-name="Ellipse 5058" cx="96.35" cy="96.35" r="96.35" transform="translate(43.431 44.289)" fill="#455955" opacity="0.73"/>
        <circle id="Ellipse_5059" data-name="Ellipse 5059" cx="96.35" cy="96.35" r="96.35" transform="translate(42.844 43.559)" fill="#3b504c" opacity="0.77"/>
        <circle id="Ellipse_5060" data-name="Ellipse 5060" cx="96.35" cy="96.35" r="96.35" transform="translate(42.257 42.829)" fill="#314843" opacity="0.81"/>
        <circle id="Ellipse_5061" data-name="Ellipse 5061" cx="96.35" cy="96.35" r="96.35" transform="translate(1.763 138.445) rotate(-45)" fill="#273f3a" opacity="0.85"/>
        <circle id="Ellipse_5062" data-name="Ellipse 5062" cx="96.35" cy="96.35" r="96.35" transform="translate(1.176 137.719) rotate(-45)" fill="#1d3631" opacity="0.88"/>
        <circle id="Ellipse_5063" data-name="Ellipse 5063" cx="96.35" cy="96.35" r="96.35" transform="translate(0.588 136.99) rotate(-45)" fill="#142d28" opacity="0.92"/>
        <circle id="Ellipse_5064" data-name="Ellipse 5064" cx="96.35" cy="96.35" r="96.35" transform="translate(0 136.26) rotate(-45)" fill="#0a251f" opacity="0.96"/>
        <circle id="Ellipse_5065" data-name="Ellipse 5065" cx="96.35" cy="96.35" r="96.35" transform="translate(39.317 39.183)" fill="#001c16"/>
      </g>
      <circle id="Ellipse_5066" data-name="Ellipse 5066" cx="96.35" cy="96.35" r="96.35" transform="translate(6867 -8047.438)" fill="#fff"/>
      <path id="Path_190397" data-name="Path 190397" d="M-43.379-4.814a5.193,5.193,0,0,1-.8,2.622A4.833,4.833,0,0,1-46.235-.43,7,7,0,0,1-49.258.2a5.584,5.584,0,0,1-4.414-1.826,7.54,7.54,0,0,1-1.611-5.156v-.7a8.607,8.607,0,0,1,.728-3.657,5.513,5.513,0,0,1,2.095-2.422,5.844,5.844,0,0,1,3.164-.854,6.129,6.129,0,0,1,4.16,1.362A5.383,5.383,0,0,1-43.35-9.307h-3.418a2.547,2.547,0,0,0-.654-1.865,2.691,2.691,0,0,0-1.875-.566,2.048,2.048,0,0,0-1.875.957A6.151,6.151,0,0,0-51.8-7.725v1.006a6.806,6.806,0,0,0,.571,3.252,2.091,2.091,0,0,0,1.968.977,2.632,2.632,0,0,0,1.807-.557,2.363,2.363,0,0,0,.664-1.768Zm1.055-.566A6.236,6.236,0,0,1-41.709-8.2a4.4,4.4,0,0,1,1.768-1.9,5.323,5.323,0,0,1,2.705-.664,4.858,4.858,0,0,1,3.74,1.47,5.64,5.64,0,0,1,1.367,4v.117A5.472,5.472,0,0,1-33.5-1.255,4.871,4.871,0,0,1-37.217.2,4.927,4.927,0,0,1-40.84-1.157a5.29,5.29,0,0,1-1.475-3.667Zm3.291.205a3.932,3.932,0,0,0,.459,2.148,1.529,1.529,0,0,0,1.357.684q1.758,0,1.8-2.705v-.332q0-2.842-1.816-2.842-1.65,0-1.787,2.451Zm11.377-5.391.107,1.24a3.583,3.583,0,0,1,3.018-1.436,3.015,3.015,0,0,1,2.466.986,4.7,4.7,0,0,1,.845,2.969V0h-3.3V-6.67a1.783,1.783,0,0,0-.322-1.177,1.491,1.491,0,0,0-1.172-.376,1.569,1.569,0,0,0-1.436.762V0h-3.291V-10.566Zm7.842,5.205A6.455,6.455,0,0,1-18.73-9.316,3.568,3.568,0,0,1-15.7-10.762,3.035,3.035,0,0,1-13.32-9.648V-15h3.3V0h-2.959l-.166-1.133A3.116,3.116,0,0,1-15.723.2,3.562,3.562,0,0,1-18.711-1.25,6.659,6.659,0,0,1-19.814-5.361Zm3.291.205q0,2.813,1.641,2.813a1.62,1.62,0,0,0,1.563-.918V-7.285a1.576,1.576,0,0,0-1.543-.937q-1.523,0-1.65,2.461ZM-4.678,0h-3.3V-10.566h3.3Zm-3.5-13.3a1.482,1.482,0,0,1,.508-1.159,1.909,1.909,0,0,1,1.318-.452,1.909,1.909,0,0,1,1.318.452A1.482,1.482,0,0,1-4.521-13.3a1.482,1.482,0,0,1-.508,1.159,1.909,1.909,0,0,1-1.318.452,1.909,1.909,0,0,1-1.318-.452A1.482,1.482,0,0,1-8.174-13.3ZM1.816-2.344A1.464,1.464,0,0,0,2.891-2.72a1.379,1.379,0,0,0,.371-1.05H6.348A3.653,3.653,0,0,1,5.1-.918,4.631,4.631,0,0,1,1.895.2,4.689,4.689,0,0,1-1.738-1.25a5.7,5.7,0,0,1-1.328-4v-.137a6.436,6.436,0,0,1,.591-2.827A4.3,4.3,0,0,1-.771-10.1a5.081,5.081,0,0,1,2.637-.659A4.573,4.573,0,0,1,5.137-9.619a4.053,4.053,0,0,1,1.211,3.1H3.262a1.807,1.807,0,0,0-.4-1.26,1.382,1.382,0,0,0-1.074-.439Q.508-8.223.293-6.592A11.508,11.508,0,0,0,.225-5.166,4.52,4.52,0,0,0,.605-2.959,1.319,1.319,0,0,0,1.816-2.344ZM11.211,0H7.91V-10.566h3.3Zm-3.5-13.3a1.482,1.482,0,0,1,.508-1.159,1.909,1.909,0,0,1,1.318-.452,1.909,1.909,0,0,1,1.318.452,1.482,1.482,0,0,1,.508,1.159,1.482,1.482,0,0,1-.508,1.159,1.909,1.909,0,0,1-1.318.452,1.909,1.909,0,0,1-1.318-.452A1.482,1.482,0,0,1,7.715-13.3Zm5.107,7.92A6.236,6.236,0,0,1,13.438-8.2a4.4,4.4,0,0,1,1.768-1.9,5.323,5.323,0,0,1,2.705-.664,4.858,4.858,0,0,1,3.74,1.47,5.64,5.64,0,0,1,1.367,4v.117a5.472,5.472,0,0,1-1.372,3.921A4.871,4.871,0,0,1,17.93.2a4.927,4.927,0,0,1-3.623-1.353,5.29,5.29,0,0,1-1.475-3.667Zm3.291.205a3.932,3.932,0,0,0,.459,2.148,1.529,1.529,0,0,0,1.357.684q1.758,0,1.8-2.705v-.332q0-2.842-1.816-2.842-1.65,0-1.787,2.451ZM27.49-10.566l.107,1.24a3.583,3.583,0,0,1,3.018-1.436,3.015,3.015,0,0,1,2.466.986,4.7,4.7,0,0,1,.845,2.969V0h-3.3V-6.67A1.783,1.783,0,0,0,30.3-7.847a1.491,1.491,0,0,0-1.172-.376,1.569,1.569,0,0,0-1.436.762V0H24.4V-10.566ZM40.859.2a5.432,5.432,0,0,1-3.936-1.45,5.008,5.008,0,0,1-1.5-3.774V-5.3a6.489,6.489,0,0,1,.6-2.861,4.395,4.395,0,0,1,1.753-1.919,5.292,5.292,0,0,1,2.734-.679A4.574,4.574,0,0,1,44.023-9.38a5.43,5.43,0,0,1,1.289,3.853v1.279H38.77a2.372,2.372,0,0,0,.771,1.4,2.3,2.3,0,0,0,1.543.508,2.958,2.958,0,0,0,2.441-1.094l1.5,1.777A4.2,4.2,0,0,1,43.286-.308,5.891,5.891,0,0,1,40.859.2Zm-.371-8.418q-1.445,0-1.719,1.914h3.32v-.254a1.63,1.63,0,0,0-.4-1.226A1.593,1.593,0,0,0,40.488-8.223Zm11.68,5.254a.76.76,0,0,0-.439-.674,6.685,6.685,0,0,0-1.67-.527,7.615,7.615,0,0,1-2.031-.718,3.4,3.4,0,0,1-1.221-1.079,2.577,2.577,0,0,1-.42-1.455,2.92,2.92,0,0,1,1.2-2.4,4.948,4.948,0,0,1,3.145-.942,5.482,5.482,0,0,1,3.359.947,2.962,2.962,0,0,1,1.27,2.49h-3.3q0-1.27-1.338-1.27a1.326,1.326,0,0,0-.869.288.892.892,0,0,0-.352.718.819.819,0,0,0,.43.713,4.06,4.06,0,0,0,1.372.449,11.857,11.857,0,0,1,1.655.42,3.007,3.007,0,0,1,2.383,2.939A2.767,2.767,0,0,1,54.058-.713,5.632,5.632,0,0,1,50.732.2a5.747,5.747,0,0,1-2.422-.488,4.05,4.05,0,0,1-1.66-1.328,3.007,3.007,0,0,1-.6-1.768h3.076a1.272,1.272,0,0,0,.488,1.069,2.009,2.009,0,0,0,1.2.337,1.58,1.58,0,0,0,1.011-.273A.875.875,0,0,0,52.168-2.969Zm-93.2,24.625a1.464,1.464,0,0,0,1.074-.376,1.379,1.379,0,0,0,.371-1.05H-36.5a3.653,3.653,0,0,1-1.245,2.852A4.631,4.631,0,0,1-40.952,24.2a4.689,4.689,0,0,1-3.633-1.445,5.7,5.7,0,0,1-1.328-4v-.137a6.436,6.436,0,0,1,.591-2.827,4.3,4.3,0,0,1,1.7-1.885,5.081,5.081,0,0,1,2.637-.659,4.573,4.573,0,0,1,3.271,1.143,4.053,4.053,0,0,1,1.211,3.1h-3.086a1.807,1.807,0,0,0-.4-1.26,1.382,1.382,0,0,0-1.074-.439q-1.279,0-1.494,1.631a11.507,11.507,0,0,0-.068,1.426,4.52,4.52,0,0,0,.381,2.207A1.319,1.319,0,0,0-41.03,21.656ZM-31.636,24h-3.3V9h3.3Zm5.5,0h-3.3V13.434h3.3Zm-3.5-13.3a1.482,1.482,0,0,1,.508-1.159,1.909,1.909,0,0,1,1.318-.452,1.909,1.909,0,0,1,1.318.452,1.482,1.482,0,0,1,.508,1.159,1.482,1.482,0,0,1-.508,1.159,1.909,1.909,0,0,1-1.318.452,1.909,1.909,0,0,1-1.318-.452A1.482,1.482,0,0,1-29.634,10.7ZM-21,13.434l.107,1.24a3.633,3.633,0,0,1,3.018-1.436,2.675,2.675,0,0,1,2.705,1.592,3.517,3.517,0,0,1,3.105-1.592q3.213,0,3.3,3.887V24h-3.3V17.33a2.014,2.014,0,0,0-.273-1.182,1.164,1.164,0,0,0-1-.371,1.559,1.559,0,0,0-1.455.869l.01.137V24h-3.3V17.35a2.117,2.117,0,0,0-.264-1.2,1.161,1.161,0,0,0-1.006-.371,1.578,1.578,0,0,0-1.445.869V24h-3.291V13.434ZM-.933,24a3.716,3.716,0,0,1-.312-.947A3.06,3.06,0,0,1-3.784,24.2a3.749,3.749,0,0,1-2.539-.9,2.875,2.875,0,0,1-1.045-2.271,2.955,2.955,0,0,1,1.27-2.6,6.468,6.468,0,0,1,3.691-.879h1.016v-.559q0-1.462-1.26-1.462a1.03,1.03,0,0,0-1.172,1.158H-7.114a2.95,2.95,0,0,1,1.3-2.487,5.479,5.479,0,0,1,3.325-.956,4.8,4.8,0,0,1,3.193.986,3.429,3.429,0,0,1,1.2,2.705v4.678a4.79,4.79,0,0,0,.449,2.227V24Zm-2.061-2.148a1.836,1.836,0,0,0,1.021-.264,1.653,1.653,0,0,0,.581-.6V19.3h-.957q-1.719,0-1.719,1.543a.942.942,0,0,0,.3.728A1.1,1.1,0,0,0-2.993,21.852ZM-2.173,9H1.3l-2.715,3.066-2.686,0Zm9.736,1.807v2.627H9.3v2.285H7.563v4.834a1.234,1.234,0,0,0,.215.83,1.152,1.152,0,0,0,.85.234,4.828,4.828,0,0,0,.82-.059v2.354a6.074,6.074,0,0,1-1.855.283,3.448,3.448,0,0,1-2.51-.8,3.282,3.282,0,0,1-.811-2.432V15.719H2.925V13.434H4.272V10.807ZM14.067,24h-3.3V13.434h3.3Zm-3.5-13.3a1.482,1.482,0,0,1,.508-1.159A1.909,1.909,0,0,1,12.4,9.088a1.909,1.909,0,0,1,1.318.452,1.577,1.577,0,0,1,0,2.319,1.909,1.909,0,0,1-1.318.452,1.909,1.909,0,0,1-1.318-.452A1.482,1.482,0,0,1,10.571,10.7Zm9.99,10.957a1.464,1.464,0,0,0,1.074-.376,1.379,1.379,0,0,0,.371-1.05h3.086a3.653,3.653,0,0,1-1.245,2.852A4.631,4.631,0,0,1,20.64,24.2a4.689,4.689,0,0,1-3.633-1.445,5.7,5.7,0,0,1-1.328-4v-.137a6.436,6.436,0,0,1,.591-2.827,4.3,4.3,0,0,1,1.7-1.885,5.081,5.081,0,0,1,2.637-.659,4.573,4.573,0,0,1,3.271,1.143,4.053,4.053,0,0,1,1.211,3.1H22.007a1.807,1.807,0,0,0-.4-1.26,1.382,1.382,0,0,0-1.074-.439q-1.279,0-1.494,1.631a11.508,11.508,0,0,0-.068,1.426,4.52,4.52,0,0,0,.381,2.207A1.319,1.319,0,0,0,20.562,21.656ZM32.437,24a3.716,3.716,0,0,1-.312-.947A3.06,3.06,0,0,1,29.585,24.2a3.749,3.749,0,0,1-2.539-.9A2.875,2.875,0,0,1,26,21.021a2.955,2.955,0,0,1,1.27-2.6,6.468,6.468,0,0,1,3.691-.879h1.016v-.559q0-1.462-1.26-1.462a1.03,1.03,0,0,0-1.172,1.158H26.255a2.95,2.95,0,0,1,1.3-2.487,5.479,5.479,0,0,1,3.325-.956,4.8,4.8,0,0,1,3.193.986,3.429,3.429,0,0,1,1.2,2.705v4.678a4.79,4.79,0,0,0,.449,2.227V24Zm-2.061-2.148a1.836,1.836,0,0,0,1.021-.264,1.653,1.653,0,0,0,.581-.6V19.3h-.957q-1.719,0-1.719,1.543a.942.942,0,0,0,.3.728A1.1,1.1,0,0,0,30.376,21.852Zm12.256-.82a.76.76,0,0,0-.439-.674,6.684,6.684,0,0,0-1.67-.527,7.615,7.615,0,0,1-2.031-.718,3.4,3.4,0,0,1-1.221-1.079,2.577,2.577,0,0,1-.42-1.455,2.92,2.92,0,0,1,1.2-2.4,4.948,4.948,0,0,1,3.145-.942,5.482,5.482,0,0,1,3.359.947,2.962,2.962,0,0,1,1.27,2.49h-3.3q0-1.27-1.338-1.27a1.326,1.326,0,0,0-.869.288.892.892,0,0,0-.352.718.819.819,0,0,0,.43.713,4.06,4.06,0,0,0,1.372.449,11.857,11.857,0,0,1,1.655.42,3.007,3.007,0,0,1,2.383,2.939,2.767,2.767,0,0,1-1.284,2.354A5.632,5.632,0,0,1,41.2,24.2a5.747,5.747,0,0,1-2.422-.488,4.05,4.05,0,0,1-1.66-1.328,3.007,3.007,0,0,1-.6-1.768h3.076a1.272,1.272,0,0,0,.488,1.069,2.009,2.009,0,0,0,1.2.337,1.58,1.58,0,0,0,1.011-.273A.875.875,0,0,0,42.632,21.031Z" transform="translate(6248 -7916)" fill="#12263f"/>
      <path id="Path_190398" data-name="Path 190398" d="M-43.379-4.814a5.193,5.193,0,0,1-.8,2.622A4.833,4.833,0,0,1-46.235-.43,7,7,0,0,1-49.258.2a5.584,5.584,0,0,1-4.414-1.826,7.54,7.54,0,0,1-1.611-5.156v-.7a8.607,8.607,0,0,1,.728-3.657,5.513,5.513,0,0,1,2.095-2.422,5.844,5.844,0,0,1,3.164-.854,6.129,6.129,0,0,1,4.16,1.362A5.383,5.383,0,0,1-43.35-9.307h-3.418a2.547,2.547,0,0,0-.654-1.865,2.691,2.691,0,0,0-1.875-.566,2.048,2.048,0,0,0-1.875.957A6.151,6.151,0,0,0-51.8-7.725v1.006a6.806,6.806,0,0,0,.571,3.252,2.091,2.091,0,0,0,1.968.977,2.632,2.632,0,0,0,1.807-.557,2.363,2.363,0,0,0,.664-1.768Zm1.055-.566A6.236,6.236,0,0,1-41.709-8.2a4.4,4.4,0,0,1,1.768-1.9,5.323,5.323,0,0,1,2.705-.664,4.858,4.858,0,0,1,3.74,1.47,5.64,5.64,0,0,1,1.367,4v.117A5.472,5.472,0,0,1-33.5-1.255,4.871,4.871,0,0,1-37.217.2,4.927,4.927,0,0,1-40.84-1.157a5.29,5.29,0,0,1-1.475-3.667Zm3.291.205a3.932,3.932,0,0,0,.459,2.148,1.529,1.529,0,0,0,1.357.684q1.758,0,1.8-2.705v-.332q0-2.842-1.816-2.842-1.65,0-1.787,2.451Zm11.377-5.391.107,1.24a3.583,3.583,0,0,1,3.018-1.436,3.015,3.015,0,0,1,2.466.986,4.7,4.7,0,0,1,.845,2.969V0h-3.3V-6.67a1.783,1.783,0,0,0-.322-1.177,1.491,1.491,0,0,0-1.172-.376,1.569,1.569,0,0,0-1.436.762V0h-3.291V-10.566Zm7.842,5.205A6.455,6.455,0,0,1-18.73-9.316,3.568,3.568,0,0,1-15.7-10.762,3.035,3.035,0,0,1-13.32-9.648V-15h3.3V0h-2.959l-.166-1.133A3.116,3.116,0,0,1-15.723.2,3.562,3.562,0,0,1-18.711-1.25,6.659,6.659,0,0,1-19.814-5.361Zm3.291.205q0,2.813,1.641,2.813a1.62,1.62,0,0,0,1.563-.918V-7.285a1.576,1.576,0,0,0-1.543-.937q-1.523,0-1.65,2.461ZM-4.678,0h-3.3V-10.566h3.3Zm-3.5-13.3a1.482,1.482,0,0,1,.508-1.159,1.909,1.909,0,0,1,1.318-.452,1.909,1.909,0,0,1,1.318.452A1.482,1.482,0,0,1-4.521-13.3a1.482,1.482,0,0,1-.508,1.159,1.909,1.909,0,0,1-1.318.452,1.909,1.909,0,0,1-1.318-.452A1.482,1.482,0,0,1-8.174-13.3ZM1.816-2.344A1.464,1.464,0,0,0,2.891-2.72a1.379,1.379,0,0,0,.371-1.05H6.348A3.653,3.653,0,0,1,5.1-.918,4.631,4.631,0,0,1,1.895.2,4.689,4.689,0,0,1-1.738-1.25a5.7,5.7,0,0,1-1.328-4v-.137a6.436,6.436,0,0,1,.591-2.827A4.3,4.3,0,0,1-.771-10.1a5.081,5.081,0,0,1,2.637-.659A4.573,4.573,0,0,1,5.137-9.619a4.053,4.053,0,0,1,1.211,3.1H3.262a1.807,1.807,0,0,0-.4-1.26,1.382,1.382,0,0,0-1.074-.439Q.508-8.223.293-6.592A11.508,11.508,0,0,0,.225-5.166,4.52,4.52,0,0,0,.605-2.959,1.319,1.319,0,0,0,1.816-2.344ZM11.211,0H7.91V-10.566h3.3Zm-3.5-13.3a1.482,1.482,0,0,1,.508-1.159,1.909,1.909,0,0,1,1.318-.452,1.909,1.909,0,0,1,1.318.452,1.482,1.482,0,0,1,.508,1.159,1.482,1.482,0,0,1-.508,1.159,1.909,1.909,0,0,1-1.318.452,1.909,1.909,0,0,1-1.318-.452A1.482,1.482,0,0,1,7.715-13.3Zm5.107,7.92A6.236,6.236,0,0,1,13.438-8.2a4.4,4.4,0,0,1,1.768-1.9,5.323,5.323,0,0,1,2.705-.664,4.858,4.858,0,0,1,3.74,1.47,5.64,5.64,0,0,1,1.367,4v.117a5.472,5.472,0,0,1-1.372,3.921A4.871,4.871,0,0,1,17.93.2a4.927,4.927,0,0,1-3.623-1.353,5.29,5.29,0,0,1-1.475-3.667Zm3.291.205a3.932,3.932,0,0,0,.459,2.148,1.529,1.529,0,0,0,1.357.684q1.758,0,1.8-2.705v-.332q0-2.842-1.816-2.842-1.65,0-1.787,2.451ZM27.49-10.566l.107,1.24a3.583,3.583,0,0,1,3.018-1.436,3.015,3.015,0,0,1,2.466.986,4.7,4.7,0,0,1,.845,2.969V0h-3.3V-6.67A1.783,1.783,0,0,0,30.3-7.847a1.491,1.491,0,0,0-1.172-.376,1.569,1.569,0,0,0-1.436.762V0H24.4V-10.566ZM40.859.2a5.432,5.432,0,0,1-3.936-1.45,5.008,5.008,0,0,1-1.5-3.774V-5.3a6.489,6.489,0,0,1,.6-2.861,4.395,4.395,0,0,1,1.753-1.919,5.292,5.292,0,0,1,2.734-.679A4.574,4.574,0,0,1,44.023-9.38a5.43,5.43,0,0,1,1.289,3.853v1.279H38.77a2.372,2.372,0,0,0,.771,1.4,2.3,2.3,0,0,0,1.543.508,2.958,2.958,0,0,0,2.441-1.094l1.5,1.777A4.2,4.2,0,0,1,43.286-.308,5.891,5.891,0,0,1,40.859.2Zm-.371-8.418q-1.445,0-1.719,1.914h3.32v-.254a1.63,1.63,0,0,0-.4-1.226A1.593,1.593,0,0,0,40.488-8.223Zm11.68,5.254a.76.76,0,0,0-.439-.674,6.685,6.685,0,0,0-1.67-.527,7.615,7.615,0,0,1-2.031-.718,3.4,3.4,0,0,1-1.221-1.079,2.577,2.577,0,0,1-.42-1.455,2.92,2.92,0,0,1,1.2-2.4,4.948,4.948,0,0,1,3.145-.942,5.482,5.482,0,0,1,3.359.947,2.962,2.962,0,0,1,1.27,2.49h-3.3q0-1.27-1.338-1.27a1.326,1.326,0,0,0-.869.288.892.892,0,0,0-.352.718.819.819,0,0,0,.43.713,4.06,4.06,0,0,0,1.372.449,11.857,11.857,0,0,1,1.655.42,3.007,3.007,0,0,1,2.383,2.939A2.767,2.767,0,0,1,54.058-.713,5.632,5.632,0,0,1,50.732.2a5.747,5.747,0,0,1-2.422-.488,4.05,4.05,0,0,1-1.66-1.328,3.007,3.007,0,0,1-.6-1.768h3.076a1.272,1.272,0,0,0,.488,1.069,2.009,2.009,0,0,0,1.2.337,1.58,1.58,0,0,0,1.011-.273A.875.875,0,0,0,52.168-2.969ZM-32.324,24.2a5.432,5.432,0,0,1-3.936-1.45,5.008,5.008,0,0,1-1.5-3.774V18.7a6.489,6.489,0,0,1,.6-2.861,4.395,4.395,0,0,1,1.753-1.919,5.292,5.292,0,0,1,2.734-.679A4.574,4.574,0,0,1-29.16,14.62a5.43,5.43,0,0,1,1.289,3.853v1.279h-6.543a2.372,2.372,0,0,0,.771,1.4,2.3,2.3,0,0,0,1.543.508,2.958,2.958,0,0,0,2.441-1.094l1.5,1.777A4.2,4.2,0,0,1-29.9,23.692,5.891,5.891,0,0,1-32.324,24.2Zm-.371-8.418q-1.445,0-1.719,1.914h3.32v-.254a1.63,1.63,0,0,0-.4-1.226A1.593,1.593,0,0,0-32.7,15.777Zm5.732,2.861a6.455,6.455,0,0,1,1.084-3.955,3.568,3.568,0,0,1,3.027-1.445,3.035,3.035,0,0,1,2.383,1.113V9h3.3V24h-2.959l-.166-1.133A3.116,3.116,0,0,1-22.871,24.2a3.562,3.562,0,0,1-2.988-1.445A6.659,6.659,0,0,1-26.963,18.639Zm3.291.205q0,2.813,1.641,2.813a1.62,1.62,0,0,0,1.563-.918V16.715a1.576,1.576,0,0,0-1.543-.937q-1.523,0-1.65,2.461ZM-9.346,24a3.716,3.716,0,0,1-.312-.947A3.06,3.06,0,0,1-12.2,24.2a3.749,3.749,0,0,1-2.539-.9,2.875,2.875,0,0,1-1.045-2.271,2.955,2.955,0,0,1,1.27-2.6,6.468,6.468,0,0,1,3.691-.879H-9.8v-.559q0-1.462-1.26-1.462a1.03,1.03,0,0,0-1.172,1.158h-3.291a2.95,2.95,0,0,1,1.3-2.487,5.479,5.479,0,0,1,3.325-.956,4.8,4.8,0,0,1,3.193.986A3.429,3.429,0,0,1-6.5,16.93v4.678a4.79,4.79,0,0,0,.449,2.227V24Zm-2.061-2.148a1.836,1.836,0,0,0,1.021-.264,1.653,1.653,0,0,0,.581-.6V19.3h-.957q-1.719,0-1.719,1.543a.942.942,0,0,0,.3.728A1.1,1.1,0,0,0-11.406,21.852ZM-10.586,9h3.477l-2.715,3.066-2.686,0Zm6.67,15V15.719H-5.449V13.434h1.533v-.352A4.034,4.034,0,0,1-2.529,9.85a5.541,5.541,0,0,1,3.6-1.055,12.787,12.787,0,0,1,3.438.566l-.449,2.6-.547-.146a8.7,8.7,0,0,0-2.246-.283q-1.885,0-1.885,1.719v.186h2.07v2.285H-.615V24Zm9.941,0H2.715V13.434H6.025ZM12.5,21.656a1.464,1.464,0,0,0,1.074-.376,1.379,1.379,0,0,0,.371-1.05h3.086a3.653,3.653,0,0,1-1.245,2.852A4.631,4.631,0,0,1,12.578,24.2,4.689,4.689,0,0,1,8.945,22.75a5.7,5.7,0,0,1-1.328-4v-.137a6.436,6.436,0,0,1,.591-2.827,4.3,4.3,0,0,1,1.7-1.885,5.081,5.081,0,0,1,2.637-.659,4.573,4.573,0,0,1,3.271,1.143,4.053,4.053,0,0,1,1.211,3.1H13.945a1.807,1.807,0,0,0-.4-1.26,1.382,1.382,0,0,0-1.074-.439q-1.279,0-1.494,1.631a11.508,11.508,0,0,0-.068,1.426,4.52,4.52,0,0,0,.381,2.207A1.319,1.319,0,0,0,12.5,21.656ZM24.375,24a3.716,3.716,0,0,1-.312-.947A3.06,3.06,0,0,1,21.523,24.2a3.749,3.749,0,0,1-2.539-.9,2.875,2.875,0,0,1-1.045-2.271,2.955,2.955,0,0,1,1.27-2.6,6.468,6.468,0,0,1,3.691-.879h1.016v-.559q0-1.462-1.26-1.462a1.03,1.03,0,0,0-1.172,1.158H18.193a2.95,2.95,0,0,1,1.3-2.487,5.479,5.479,0,0,1,3.325-.956,4.8,4.8,0,0,1,3.193.986,3.429,3.429,0,0,1,1.2,2.705v4.678a4.79,4.79,0,0,0,.449,2.227V24Zm-2.061-2.148a1.836,1.836,0,0,0,1.021-.264,1.653,1.653,0,0,0,.581-.6V19.3h-.957q-1.719,0-1.719,1.543a.942.942,0,0,0,.3.728A1.1,1.1,0,0,0,22.314,21.852Zm12.256-.82a.76.76,0,0,0-.439-.674,6.684,6.684,0,0,0-1.67-.527,7.615,7.615,0,0,1-2.031-.718,3.4,3.4,0,0,1-1.221-1.079,2.577,2.577,0,0,1-.42-1.455,2.92,2.92,0,0,1,1.2-2.4,4.948,4.948,0,0,1,3.145-.942,5.482,5.482,0,0,1,3.359.947,2.962,2.962,0,0,1,1.27,2.49h-3.3q0-1.27-1.338-1.27a1.326,1.326,0,0,0-.869.288.892.892,0,0,0-.352.718.819.819,0,0,0,.43.713,4.06,4.06,0,0,0,1.372.449,11.857,11.857,0,0,1,1.655.42,3.007,3.007,0,0,1,2.383,2.939,2.767,2.767,0,0,1-1.284,2.354,5.632,5.632,0,0,1-3.325.908,5.747,5.747,0,0,1-2.422-.488,4.05,4.05,0,0,1-1.66-1.328,3.007,3.007,0,0,1-.6-1.768h3.076a1.272,1.272,0,0,0,.488,1.069,2.009,2.009,0,0,0,1.2.337,1.58,1.58,0,0,0,1.011-.273A.875.875,0,0,0,34.57,21.031Z" transform="translate(6606 -7916)" fill="#12263f"/>
      <path id="Path_190399" data-name="Path 190399" d="M-60.879,0V-14.219h5.107A7.232,7.232,0,0,1-51.6-13.213a3.347,3.347,0,0,1,1.431,2.92,3.383,3.383,0,0,1-.508,1.885,2.959,2.959,0,0,1-1.494,1.152,3,3,0,0,1,1.709,1.094,3.18,3.18,0,0,1,.6,1.953,3.765,3.765,0,0,1-1.323,3.14A6.3,6.3,0,0,1-55.107,0Zm3.428-6.045v3.408h2.246a2.136,2.136,0,0,0,1.426-.425,1.487,1.487,0,0,0,.5-1.2,1.576,1.576,0,0,0-1.768-1.787Zm0-2.246h1.787a2.539,2.539,0,0,0,1.6-.411,1.46,1.46,0,0,0,.479-1.185,1.533,1.533,0,0,0-.518-1.3,2.77,2.77,0,0,0-1.67-.4h-1.68ZM-44.658,0h-3.3V-10.566h3.3Zm-3.5-13.3a1.482,1.482,0,0,1,.508-1.159,1.909,1.909,0,0,1,1.318-.452,1.909,1.909,0,0,1,1.318.452A1.482,1.482,0,0,1-44.5-13.3a1.482,1.482,0,0,1-.508,1.159,1.909,1.909,0,0,1-1.318.452,1.909,1.909,0,0,1-1.318-.452A1.482,1.482,0,0,1-48.154-13.3Zm5.107,7.92A6.236,6.236,0,0,1-42.432-8.2a4.4,4.4,0,0,1,1.768-1.9,5.323,5.323,0,0,1,2.705-.664,4.858,4.858,0,0,1,3.74,1.47,5.64,5.64,0,0,1,1.367,4v.117a5.472,5.472,0,0,1-1.372,3.921A4.871,4.871,0,0,1-37.939.2a4.927,4.927,0,0,1-3.623-1.353,5.29,5.29,0,0,1-1.475-3.667Zm3.291.205A3.932,3.932,0,0,0-39.3-3.027a1.529,1.529,0,0,0,1.357.684q1.758,0,1.8-2.705v-.332q0-2.842-1.816-2.842-1.65,0-1.787,2.451Zm7.939-.186a6.455,6.455,0,0,1,1.084-3.955,3.568,3.568,0,0,1,3.027-1.445,3.035,3.035,0,0,1,2.383,1.113V-15h3.3V0H-24.98l-.166-1.133A3.116,3.116,0,0,1-27.725.2,3.562,3.562,0,0,1-30.713-1.25,6.659,6.659,0,0,1-31.816-5.361Zm3.291.205q0,2.813,1.641,2.813a1.62,1.62,0,0,0,1.563-.918V-7.285a1.576,1.576,0,0,0-1.543-.937q-1.523,0-1.65,2.461ZM-16.68,0h-3.3V-10.566h3.3Zm-3.5-13.3a1.482,1.482,0,0,1,.508-1.159,1.909,1.909,0,0,1,1.318-.452,1.909,1.909,0,0,1,1.318.452,1.482,1.482,0,0,1,.508,1.159,1.482,1.482,0,0,1-.508,1.159,1.909,1.909,0,0,1-1.318.452,1.909,1.909,0,0,1-1.318-.452A1.482,1.482,0,0,1-20.176-13.3Zm9.736,9.385,1.67-6.65H-5.3L-8.75,0h-3.359l-3.447-10.566h3.477ZM.664.2a5.432,5.432,0,0,1-3.936-1.45,5.008,5.008,0,0,1-1.5-3.774V-5.3a6.489,6.489,0,0,1,.6-2.861,4.395,4.395,0,0,1,1.753-1.919,5.292,5.292,0,0,1,2.734-.679A4.574,4.574,0,0,1,3.828-9.38,5.43,5.43,0,0,1,5.117-5.527v1.279H-1.426a2.372,2.372,0,0,0,.771,1.4,2.3,2.3,0,0,0,1.543.508A2.958,2.958,0,0,0,3.33-3.437l1.5,1.777A4.2,4.2,0,0,1,3.091-.308,5.891,5.891,0,0,1,.664.2ZM.293-8.223q-1.445,0-1.719,1.914h3.32v-.254a1.63,1.63,0,0,0-.4-1.226A1.593,1.593,0,0,0,.293-8.223Zm12.539.635-1.084-.078a1.947,1.947,0,0,0-1.992.977V0H6.465V-10.566H9.551l.107,1.357a2.548,2.548,0,0,1,2.314-1.553,3.209,3.209,0,0,1,.918.117Zm6.719,4.619a.76.76,0,0,0-.439-.674,6.685,6.685,0,0,0-1.67-.527,7.615,7.615,0,0,1-2.031-.718,3.4,3.4,0,0,1-1.221-1.079,2.577,2.577,0,0,1-.42-1.455,2.92,2.92,0,0,1,1.2-2.4,4.948,4.948,0,0,1,3.145-.942,5.482,5.482,0,0,1,3.359.947,2.962,2.962,0,0,1,1.27,2.49h-3.3q0-1.27-1.338-1.27a1.326,1.326,0,0,0-.869.288.892.892,0,0,0-.352.718.819.819,0,0,0,.43.713,4.06,4.06,0,0,0,1.372.449,11.857,11.857,0,0,1,1.655.42,3.007,3.007,0,0,1,2.383,2.939A2.767,2.767,0,0,1,21.44-.713,5.631,5.631,0,0,1,18.115.2a5.747,5.747,0,0,1-2.422-.488,4.05,4.05,0,0,1-1.66-1.328,3.007,3.007,0,0,1-.6-1.768h3.076A1.272,1.272,0,0,0,17-2.319a2.009,2.009,0,0,0,1.2.337,1.58,1.58,0,0,0,1.011-.273A.875.875,0,0,0,19.551-2.969ZM27.734,0h-3.3V-10.566h3.3Zm-3.5-13.3a1.482,1.482,0,0,1,.508-1.159,1.909,1.909,0,0,1,1.318-.452,1.909,1.909,0,0,1,1.318.452,1.482,1.482,0,0,1,.508,1.159,1.482,1.482,0,0,1-.508,1.159,1.909,1.909,0,0,1-1.318.452,1.909,1.909,0,0,1-1.318-.452A1.482,1.482,0,0,1,24.238-13.3Zm5.107,7.939A6.455,6.455,0,0,1,30.43-9.316a3.568,3.568,0,0,1,3.027-1.445A3.035,3.035,0,0,1,35.84-9.648V-15h3.3V0H36.182l-.166-1.133A3.116,3.116,0,0,1,33.438.2,3.562,3.562,0,0,1,30.449-1.25,6.659,6.659,0,0,1,29.346-5.361Zm3.291.205q0,2.813,1.641,2.813a1.62,1.62,0,0,0,1.563-.918V-7.285A1.576,1.576,0,0,0,34.3-8.223q-1.523,0-1.65,2.461ZM46.963,0a3.716,3.716,0,0,1-.312-.947A3.06,3.06,0,0,1,44.111.2a3.749,3.749,0,0,1-2.539-.9,2.875,2.875,0,0,1-1.045-2.271,2.955,2.955,0,0,1,1.27-2.6,6.468,6.468,0,0,1,3.691-.879H46.5v-.559q0-1.462-1.26-1.462a1.03,1.03,0,0,0-1.172,1.158H40.781a2.95,2.95,0,0,1,1.3-2.487,5.479,5.479,0,0,1,3.325-.956,4.8,4.8,0,0,1,3.193.986A3.429,3.429,0,0,1,49.8-7.07v4.678a4.79,4.79,0,0,0,.449,2.227V0ZM44.9-2.148a1.836,1.836,0,0,0,1.021-.264,1.653,1.653,0,0,0,.581-.6V-4.7h-.957q-1.719,0-1.719,1.543a.942.942,0,0,0,.3.728A1.1,1.1,0,0,0,44.9-2.148Zm6.309-3.213a6.455,6.455,0,0,1,1.084-3.955,3.568,3.568,0,0,1,3.027-1.445,3.035,3.035,0,0,1,2.383,1.113V-15h3.3V0H58.047l-.166-1.133A3.116,3.116,0,0,1,55.3.2,3.562,3.562,0,0,1,52.314-1.25,6.659,6.659,0,0,1,51.211-5.361Zm3.291.205q0,2.813,1.641,2.813a1.62,1.62,0,0,0,1.563-.918V-7.285a1.576,1.576,0,0,0-1.543-.937q-1.523,0-1.65,2.461Z" transform="translate(6963 -7916)" fill="#12263f"/>
      <g id="_000000ff" data-name="#000000ff" transform="translate(6216 -8015)">
        <path id="Path_188163" data-name="Path 188163" d="M383,16.027a1.23,1.23,0,0,1,1.465,1.081c.059.8.006,1.6.028,2.4a1.549,1.549,0,0,1-.549,1.456,1.244,1.244,0,0,1-1.878-.634,8.249,8.249,0,0,1-.076-1.7,15.187,15.187,0,0,1,.031-1.565A1.227,1.227,0,0,1,383,16.027Z" transform="translate(-334.234 -15.998)" fill="#12263f"/>
        <path id="Path_188164" data-name="Path 188164" d="M20.662,40.21a19.991,19.991,0,0,1,13.682-1.374,20.226,20.226,0,0,1,9.214,5.244,10.782,10.782,0,0,1,4.556-1.465A10.359,10.359,0,0,1,54.7,44.25a10.5,10.5,0,0,1,4.119,12.555,12.558,12.558,0,0,1,2.56,2.376A11.844,11.844,0,0,1,64,66.37v.579a11.9,11.9,0,0,1-2.408,6.706,11.756,11.756,0,0,1-7.98,4.559c-1.241.133-2.491.073-3.735.086-3.333,0-6.664,0-10,0a2.486,2.486,0,0,1-1.5-.26,1.4,1.4,0,0,1-.518-.993A1.315,1.315,0,0,1,39.253,75.8c3.834-.01,7.668,0,11.5,0a17.34,17.34,0,0,0,3.14-.153A9.242,9.242,0,1,0,48.98,57.909a2.91,2.91,0,0,1-.858.231,1.234,1.234,0,0,1-1.21-.966c-.155-.821-.165-1.666-.373-2.479a17.547,17.547,0,0,0-34.6,5.651,9.468,9.468,0,0,1,4.033,2.61,9.112,9.112,0,0,1,2.373,5.728,1.51,1.51,0,0,1-.319,1.275,1.247,1.247,0,0,1-1.8,0,2.183,2.183,0,0,1-.4-1.411A6.644,6.644,0,0,0,4.006,64.93a6.573,6.573,0,0,0-1.33,5.689A6.747,6.747,0,0,0,9,75.792c6.211.021,12.425-.006,18.637.014a1.3,1.3,0,0,1,1.343,1.244,1.441,1.441,0,0,1-.435.929,1.655,1.655,0,0,1-1.159.324q-8.875-.007-17.75,0a10.112,10.112,0,0,1-2.879-.335A9.219,9.219,0,0,1,0,69.375v-.5a9.235,9.235,0,0,1,9.381-8.955,20.823,20.823,0,0,1,.209-4.846A20.048,20.048,0,0,1,20.662,40.21M45.246,46a20.156,20.156,0,0,1,3.934,9.2c.4-.059.788-.147,1.181-.228a11.851,11.851,0,0,1,6.219.659A8,8,0,0,0,45.246,46Z" transform="translate(0 -35.435)" fill="#12263f"/>
        <path id="Path_188165" data-name="Path 188165" d="M465.4,37.753a1.244,1.244,0,0,1,1.7.809,1.333,1.333,0,0,1-.423,1.32q-1.787,1.791-3.578,3.576a1.414,1.414,0,0,1-1.131.5,1.249,1.249,0,0,1-1.13-1.4,1.645,1.645,0,0,1,.564-.944q1.534-1.526,3.061-3.061A3.958,3.958,0,0,1,465.4,37.753Z" transform="translate(-403.215 -34.939)" fill="#12263f"/>
        <path id="Path_188166" data-name="Path 188166" d="M225.883,83.632a1.244,1.244,0,1,1-.309,2.11A1.251,1.251,0,0,1,225.883,83.632Z" transform="translate(-196.98 -75.088)" fill="#12263f"/>
        <path id="Path_188167" data-name="Path 188167" d="M266.236,92.086a1.714,1.714,0,0,1,1.469.23A13.9,13.9,0,0,1,274.3,99a13.584,13.584,0,0,1,1.245,4.871,1.245,1.245,0,0,1-1.711,1.226,1.58,1.58,0,0,1-.831-1.49,11.333,11.333,0,0,0-4.974-8.216c-.658-.509-1.476-.753-2.144-1.244A1.246,1.246,0,0,1,266.236,92.086Z" transform="translate(-232.294 -82.496)" fill="#12263f"/>
        <path id="Path_188168" data-name="Path 188168" d="M487.658,147.324a2.005,2.005,0,0,1,1.742-.331,1.282,1.282,0,0,1,.99,1.153v.1a1.278,1.278,0,0,1-1.1,1.181,1.925,1.925,0,0,1-1.643-.359A1.254,1.254,0,0,1,487.658,147.324Z" transform="translate(-426.389 -130.572)" fill="#12263f"/>
        <path id="Path_188169" data-name="Path 188169" d="M258.3,340.26a1.274,1.274,0,0,1,1.351-1.229,1.233,1.233,0,0,1-.136,2.463A1.28,1.28,0,0,1,258.3,340.26Z" transform="translate(-226.012 -298.645)" fill="#12263f"/>
        <path id="Path_188170" data-name="Path 188170" d="M41.177,368.156a1.238,1.238,0,0,1,1.405.969,1.341,1.341,0,0,1-.443,1.253c-1.141,1.145-2.29,2.284-3.429,3.433a1.7,1.7,0,0,1-1.075.621,1.245,1.245,0,0,1-1.318-1.294,1.483,1.483,0,0,1,.5-.976c1.144-1.145,2.293-2.288,3.433-3.436A1.74,1.74,0,0,1,41.177,368.156Z" transform="translate(-31.776 -324.119)" fill="#12263f"/>
        <path id="Path_188171" data-name="Path 188171" d="M171.051,368.143a1.25,1.25,0,0,1,1.379,1.109,1.416,1.416,0,0,1-.5,1.155q-1.719,1.719-3.436,3.439a1.608,1.608,0,0,1-.979.555,1.252,1.252,0,0,1-1.35-1.164,1.43,1.43,0,0,1,.495-1.1c1.1-1.105,2.21-2.205,3.309-3.313A1.911,1.911,0,0,1,171.051,368.143Z" transform="translate(-145.391 -324.115)" fill="#12263f"/>
        <path id="Path_188172" data-name="Path 188172" d="M300.812,368.179a1.243,1.243,0,0,1,1.571,1.05,1.357,1.357,0,0,1-.476,1.15c-1.08,1.084-2.166,2.161-3.244,3.248a1.927,1.927,0,0,1-1.129.723,1.242,1.242,0,0,1-1.364-1.1,1.385,1.385,0,0,1,.479-1.144q1.714-1.717,3.43-3.431A1.817,1.817,0,0,1,300.812,368.179Z" transform="translate(-259.139 -324.109)" fill="#12263f"/>
        <path id="Path_188173" data-name="Path 188173" d="M430.909,368.156a1.238,1.238,0,0,1,1.406.97,1.332,1.332,0,0,1-.439,1.246c-1.119,1.125-2.245,2.243-3.361,3.37a1.726,1.726,0,0,1-.895.56,1.24,1.24,0,0,1-1.433-.939,1.336,1.336,0,0,1,.429-1.264q1.434-1.442,2.875-2.876C429.922,368.825,430.292,368.267,430.909,368.156Z" transform="translate(-372.882 -324.119)" fill="#12263f"/>
        <path id="Path_188174" data-name="Path 188174" d="M66.18,431.2a1.245,1.245,0,0,1,1.613.926,1.391,1.391,0,0,1-.489,1.292c-1.818,1.805-3.616,3.63-5.44,5.428a1.244,1.244,0,1,1-1.76-1.758c1.756-1.785,3.544-3.54,5.308-5.319A2.266,2.266,0,0,1,66.18,431.2Z" transform="translate(-52.255 -379.235)" fill="#12263f"/>
        <path id="Path_188175" data-name="Path 188175" d="M195.84,431.173a1.246,1.246,0,0,1,1.588,1.054,1.379,1.379,0,0,1-.479,1.145c-1.749,1.754-3.505,3.5-5.251,5.256a1.659,1.659,0,0,1-1.02.588,1.242,1.242,0,0,1-1.34-1.349,1.886,1.886,0,0,1,.705-1.13q2.381-2.37,4.753-4.746A2.924,2.924,0,0,1,195.84,431.173Z" transform="translate(-165.662 -379.225)" fill="#12263f"/>
        <path id="Path_188176" data-name="Path 188176" d="M325.438,431.2a1.243,1.243,0,0,1,1.636.885,1.335,1.335,0,0,1-.436,1.274q-2.659,2.663-5.319,5.321a1.607,1.607,0,0,1-.928.535,1.242,1.242,0,0,1-1.38-1.105,1.371,1.371,0,0,1,.477-1.138q2.5-2.5,5-5A3.2,3.2,0,0,1,325.438,431.2Z" transform="translate(-279.126 -379.228)" fill="#12263f"/>
      </g>
      <g id="_000000ff-2" data-name="#000000ff" transform="translate(6931 -8015)">
        <path id="Path_188177" data-name="Path 188177" d="M8.545,18.088a1.894,1.894,0,0,1,2.365-1.057c.676.246,1.043.907,1.513,1.405a43.11,43.11,0,0,0,4.393,4.4.943.943,0,0,1,.038,1.423.96.96,0,0,1-1.3-.03,46.642,46.642,0,0,1-5.23-5.343A27.483,27.483,0,0,0,11.4,22.951a21.138,21.138,0,0,0,6.964,9.919q.905-1.143,1.811-2.281A10.088,10.088,0,0,1,22.91,27.93a20.8,20.8,0,0,1-3.334-1.212.936.936,0,0,1,.806-1.69A18.571,18.571,0,0,0,27.227,26.7q4.832.009,9.665,0a18.034,18.034,0,0,0,11.793-4.975c1.173-1.139,2.3-2.324,3.374-3.56A3.42,3.42,0,0,1,53.3,17.044a1.893,1.893,0,0,1,2.4,1.04,3.471,3.471,0,0,1-.1,2.009,24.832,24.832,0,0,1-7.046,12.983,33.73,33.73,0,0,0,4.886-1.5,8.817,8.817,0,0,1,2.413-.644,3.875,3.875,0,0,1,3.122,1.434q2.276,2.87,4.544,5.751a3.479,3.479,0,0,1,.73,1.744V40.4a3.239,3.239,0,0,1-1.792,2.592c-1.284.582-2.491,1.33-3.816,1.822a12.421,12.421,0,0,1-9.074-.117,32.418,32.418,0,0,1-1.671,6.447c-.369,1.147-.715,2.3-1.1,3.446a.937.937,0,1,1-1.763-.632c.486-1.566.988-3.13,1.479-4.694a28.65,28.65,0,0,0,1.033-3.722,14.066,14.066,0,0,0-1.564-9.207,32.284,32.284,0,0,0-2.971-4.052,15.1,15.1,0,0,0-2-2.278,6.335,6.335,0,0,0-4-1.42q-4.9-.008-9.8,0a6.324,6.324,0,0,0-4.809,2.224c-.57.693-1.117,1.4-1.678,2.1a25.5,25.5,0,0,0-2.428,3.342,14.073,14.073,0,0,0-1.2,11.025c1.453,4.637,2.926,9.267,4.383,13.9a5.29,5.29,0,0,1,6.04-1.776,12.37,12.37,0,0,0,7.765.466,17.4,17.4,0,0,1,2.719-.769,5.3,5.3,0,0,1,4.738,2.081c.286-.916.577-1.83.862-2.746a1.1,1.1,0,0,1,.525-.745.944.944,0,0,1,1.274.4,1.188,1.188,0,0,1-.015.967c-.487,1.52-.962,3.043-1.446,4.563-.124.291.044.586.113.868.394,1.34.809,2.674,1.181,4.022a3.809,3.809,0,0,1-2.127,4.34,4.327,4.327,0,0,1-2.914.154,7.854,7.854,0,0,1-4.234,3.263,11.7,11.7,0,0,1-8-.113,7.705,7.705,0,0,1-3.936-3.15,4.83,4.83,0,0,1-2.283.072,3.838,3.838,0,0,1-2.851-3.324,6.257,6.257,0,0,1,.443-2.468c.324-1.146.7-2.278,1-3.432-1.606-5.234-3.291-10.449-4.928-15.677a16.921,16.921,0,0,1-.735-3.481,12.447,12.447,0,0,1-8.232.4,21.7,21.7,0,0,1-3.723-1.659A6.682,6.682,0,0,1,.984,42.436,3.311,3.311,0,0,1,0,40.43v-.551A3.35,3.35,0,0,1,.673,38.2q2.268-2.887,4.55-5.767a3.864,3.864,0,0,1,2.559-1.466,5.593,5.593,0,0,1,2.758.521,38,38,0,0,0,5.156,1.59A24.841,24.841,0,0,1,8.641,20.059a3.412,3.412,0,0,1-.1-1.97m41.224,5.2a19.8,19.8,0,0,1-8.429,4.634,8.806,8.806,0,0,1,2.113,1.892q1.218,1.521,2.424,3.051a19.382,19.382,0,0,0,2.985-2.85,23.861,23.861,0,0,0,5.061-11.135,58.66,58.66,0,0,1-4.155,4.408M6.725,33.571q-1.152,1.446-2.291,2.9a8.536,8.536,0,0,1,2.3-1.645,6.905,6.905,0,0,1,4.241-.033c1.763.429,3.495,1,5.284,1.31q.26-.512.543-1.01c-2.808-.138-5.357-1.418-8.01-2.209a1.969,1.969,0,0,0-2.064.683M47.449,35.1c.188.333.37.668.543,1.009,1.814-.319,3.569-.9,5.357-1.328a6.616,6.616,0,0,1,4.344.129A9.332,9.332,0,0,1,59.8,36.46c-.635-.827-1.292-1.636-1.932-2.458a3.386,3.386,0,0,0-.881-.9,1.978,1.978,0,0,0-1.643-.182c-2.608.806-5.13,2.037-7.9,2.18m-40.841,2q-2.232,1.929-4.436,3.891a6.528,6.528,0,0,0,1.3.727A15.5,15.5,0,0,0,8.385,43.6a10.176,10.176,0,0,0,6.215-.922,17.007,17.007,0,0,1,.906-4.8c-1.942-.349-3.8-1.034-5.736-1.419a3.652,3.652,0,0,0-3.162.634m47.7-.6c-1.871.408-3.688,1.033-5.568,1.4a16.6,16.6,0,0,1,.9,4.781,11.323,11.323,0,0,0,2.665.9,10.76,10.76,0,0,0,6.386-.822c1.013-.413,1.939-1,2.933-1.452a2.679,2.679,0,0,0,.452-.311c-1.175-1.06-2.377-2.091-3.561-3.14a6.328,6.328,0,0,0-1.743-1.269,4.371,4.371,0,0,0-2.462-.089M24.9,61.053a3.375,3.375,0,0,0-2.422,2.3q-.823,2.758-1.634,5.519a1.921,1.921,0,0,0,.936,2.211,2.05,2.05,0,0,0,1.5.154,43.788,43.788,0,0,1,17.875.034,1.933,1.933,0,0,0,2.252-1.385,3.723,3.723,0,0,0-.3-2c-.463-1.548-.909-3.1-1.383-4.645a3.369,3.369,0,0,0-3.079-2.281,8.93,8.93,0,0,0-2.644.67,14.172,14.172,0,0,1-8.909-.381,3.5,3.5,0,0,0-2.193-.2m1.176,11.608a8.082,8.082,0,0,0,6.053,2.378,8.058,8.058,0,0,0,6.037-2.378A41.705,41.705,0,0,0,26.078,72.661Z" transform="translate(0 -16.922)" fill="#12263f"/>
        <path id="Path_188178" data-name="Path 188178" d="M149.03,228.324a3.919,3.919,0,0,1,4.2,3.056c.119.556.245,1.314-.325,1.67a.942.942,0,0,1-1.449-.788,2.14,2.14,0,0,0-1.374-1.974c-.466-.208-1.083-.013-1.441-.45A.945.945,0,0,1,149.03,228.324Z" transform="translate(-129.779 -201.767)" fill="#12263f"/>
        <path id="Path_188179" data-name="Path 188179" d="M327.6,228.207c.484-.084,1.1-.158,1.436.289a.937.937,0,0,1-.621,1.512,2.188,2.188,0,0,0-2.063,1.329c-.237.459-.031,1.067-.427,1.452a.943.943,0,0,1-1.382-.038,1.6,1.6,0,0,1-.158-1.363A4.008,4.008,0,0,1,327.6,228.207Z" transform="translate(-283.618 -201.639)" fill="#12263f"/>
        <path id="Path_188180" data-name="Path 188180" d="M209.421,395.3a1,1,0,1,1-.488,1.6A1,1,0,0,1,209.421,395.3Z" transform="translate(-182.509 -347.781)" fill="#12263f"/>
        <path id="Path_188181" data-name="Path 188181" d="M288.242,395.274a1,1,0,1,1-.484,1.631A1,1,0,0,1,288.242,395.274Z" transform="translate(-251.425 -347.761)" fill="#12263f"/>
      </g>
      <g id="_000000ff-3" data-name="#000000ff" transform="translate(6571 -8015)">
        <path id="Path_188182" data-name="Path 188182" d="M58.444,33.719a5.273,5.273,0,0,1,3.505-1.42,10.392,10.392,0,0,1,3.095.649,5.346,5.346,0,0,1,3.61,4.626V54.417a1.168,1.168,0,0,1-1.007.884,1.077,1.077,0,0,1-1-1.042c-.025-1.749.007-3.5-.011-5.244a3.267,3.267,0,0,0-2.372-3.1,6.962,6.962,0,0,0-2.6-.476,3.22,3.22,0,0,0-1.94.948c-.66.687-1.214,1.47-1.9,2.132A5.2,5.2,0,0,1,52.7,49.673a5.741,5.741,0,0,1-2.36-1.517,3.188,3.188,0,0,0-3.966-.239c-.707.468-1.019,1.3-1.644,1.853a4.731,4.731,0,0,1-5.266.806c-.754-.326-1.282-1.034-2.082-1.267a2.736,2.736,0,0,0-2.679.621,7.577,7.577,0,0,1-1.991,1.631,4.3,4.3,0,0,1-5.011-1.01c-.841-1.019-1.368-2.258-2.2-3.281A4.238,4.238,0,0,0,20.647,46.2c-2.432,1.1-4.857,2.208-7.286,3.309a5.364,5.364,0,0,1-1.964.483A4.924,4.924,0,0,1,7.541,48.3c-.571-.628-.991-1.443-1.782-1.829a2.593,2.593,0,0,0-3.741,2.412c0,5.234.008,10.467-.005,15.7a4.667,4.667,0,0,1,5.423.184c1.055.78,1.535,2.238,2.865,2.656a3.774,3.774,0,0,0,3.063-.516c2.17-.978,4.33-1.975,6.5-2.947a6.26,6.26,0,0,1,6.625,1.071c1.148,1.015,1.74,2.467,2.627,3.686a2.259,2.259,0,0,0,2.656.676c.743-.333,1.187-1.057,1.814-1.543a4.752,4.752,0,0,1,5.035-.6c.813.347,1.376,1.146,2.27,1.322a2.7,2.7,0,0,0,2.865-1.13,5.36,5.36,0,0,1,2.273-2.027,5.221,5.221,0,0,1,5.05.382,18.835,18.835,0,0,0,1.8,1.4,3.191,3.191,0,0,0,3.543-.5c.956-.923,1.639-2.135,2.784-2.853a5.271,5.271,0,0,1,3.958-.7,9.167,9.167,0,0,1,3.48,1.377c.005-1.865-.02-3.73.009-5.594a1.081,1.081,0,0,1,.994-.995,1.162,1.162,0,0,1,1.007.9V79.08a14.086,14.086,0,0,1-2.55,7.348,13.889,13.889,0,0,1-11.124,5.858c-6.615.019-13.232,0-19.848.011a1.49,1.49,0,0,1-.952-.221,1.385,1.385,0,0,1-.425-.792,1.084,1.084,0,0,1,1.1-1q8.717-.01,17.434,0a20.639,20.639,0,0,0,5.506-.394,11.911,11.911,0,0,0,8.251-7.762,12.051,12.051,0,0,0,.594-3.878q0-4.757,0-9.512a3.28,3.28,0,0,0-1.263-2.644,6.633,6.633,0,0,0-2.336-.909,3.3,3.3,0,0,0-2.87.44A13.625,13.625,0,0,0,58.428,67.5a5.43,5.43,0,0,1-2.511,1.773,5.2,5.2,0,0,1-4.66-.709,14.318,14.318,0,0,0-1.561-1.25,3.21,3.21,0,0,0-3.379.26c-.662.468-.971,1.262-1.568,1.8a4.726,4.726,0,0,1-5.212.854c-.83-.335-1.4-1.141-2.292-1.338a2.789,2.789,0,0,0-2.727.837A5.39,5.39,0,0,1,32.141,71.4a4.281,4.281,0,0,1-4.58-1.4c-.7-.932-1.216-1.987-1.908-2.926A4.239,4.239,0,0,0,20.666,65.8c-2.255,1.014-4.5,2.045-6.754,3.067a5.456,5.456,0,0,1-3.46.661A4.882,4.882,0,0,1,7.539,67.9c-.425-.475-.764-1.026-1.236-1.458a2.593,2.593,0,0,0-4.291,2.007q0,4.968,0,9.935A11.858,11.858,0,0,0,9.5,89.444a12,12,0,0,0,4.575.839q5.968,0,11.935,0c1.389.009,2.78-.024,4.167.012a1.078,1.078,0,0,1,.947.987,1.1,1.1,0,0,1-1.087,1c-5.278.013-10.556,0-15.833.005A14.4,14.4,0,0,1,9.9,91.71a13.946,13.946,0,0,1-8.362-6.946A14.256,14.256,0,0,1,0,79.1V37.282A4.776,4.776,0,0,1,1.568,34.23a4.617,4.617,0,0,1,5.807-.224c.944.661,1.391,1.828,2.373,2.439a2.927,2.927,0,0,0,2.765.13c2.426-1.1,4.847-2.208,7.276-3.3a6.267,6.267,0,0,1,7.175,1.511c.854.979,1.4,2.176,2.159,3.224a2.257,2.257,0,0,0,2.646.668c.742-.33,1.187-1.053,1.813-1.538a4.749,4.749,0,0,1,5.134-.556c.723.335,1.24,1.022,2.026,1.236a2.7,2.7,0,0,0,2.892-.928,7.04,7.04,0,0,1,1.228-1.451,5.235,5.235,0,0,1,4.865-1,5.64,5.64,0,0,1,2.372,1.5,3.186,3.186,0,0,0,4.252.109c.762-.715,1.342-1.6,2.093-2.322m1.36,1.487c-.979.976-1.7,2.245-2.947,2.926A5.209,5.209,0,0,1,51.486,38c-.689-.4-1.148-1.112-1.88-1.451a3.206,3.206,0,0,0-3.291.307c-.693.487-.995,1.33-1.643,1.864a4.727,4.727,0,0,1-5.211.751c-.78-.337-1.321-1.093-2.17-1.291a2.764,2.764,0,0,0-2.717.766,5.616,5.616,0,0,1-2.4,1.72A4.293,4.293,0,0,1,27.754,39.5c-.858-1.01-1.388-2.254-2.211-3.291a4.241,4.241,0,0,0-4.886-1.122c-2.557,1.148-5.1,2.325-7.659,3.472A4.937,4.937,0,0,1,8,37.649a23.567,23.567,0,0,1-1.547-1.782,2.591,2.591,0,0,0-4.441,1.749c-.008,2.457,0,4.912,0,7.368a4.64,4.64,0,0,1,5.447.192c.947.7,1.391,1.934,2.467,2.477a3.24,3.24,0,0,0,1.547.326,4.293,4.293,0,0,0,1-.278q3.606-1.637,7.211-3.277a6.244,6.244,0,0,1,7.71,2c.591.851,1.09,1.762,1.673,2.619a2.259,2.259,0,0,0,2.674.751c.755-.315,1.2-1.05,1.826-1.539a4.753,4.753,0,0,1,5.176-.552c.683.314,1.167.955,1.892,1.188a2.708,2.708,0,0,0,3.111-1.041,5.313,5.313,0,0,1,2.345-2.074,5.21,5.21,0,0,1,4.993.414c.638.388,1.069,1.043,1.743,1.376a3.2,3.2,0,0,0,3.576-.459,28.083,28.083,0,0,1,2.541-2.694,5.281,5.281,0,0,1,4.319-.861,8.859,8.859,0,0,1,3.38,1.358c-.005-2.339,0-4.678,0-7.018a3.258,3.258,0,0,0-2.191-3.021c-.559-.176-1.124-.338-1.692-.475A3.238,3.238,0,0,0,59.8,35.206Z" transform="translate(0 -32.297)" fill="#12263f"/>
        <path id="Path_188183" data-name="Path 188183" d="M430.037,186.044a20.728,20.728,0,0,1,2.4-.007,1.006,1.006,0,0,1,.6,1.637c-.449.528-1.209.306-1.812.351-.591-.034-1.352.164-1.765-.388A1.007,1.007,0,0,1,430.037,186.044Z" transform="translate(-371.687 -165.395)" fill="#12263f"/>
        <path id="Path_188184" data-name="Path 188184" d="M98.482,193.662a2.926,2.926,0,0,1,1.037-.1c.849.019,1.7-.028,2.545.021a1,1,0,0,1-.119,1.987c-.99.012-1.981.005-2.97,0a1.005,1.005,0,0,1-.492-1.916Z" transform="translate(-84.767 -171.94)" fill="#12263f"/>
        <path id="Path_188185" data-name="Path 188185" d="M309.477,216.185c2.038-.089,4.086-.012,6.127-.039a1.056,1.056,0,0,1,1.167.78,1.009,1.009,0,0,1-1.035,1.23c-1.963.007-3.926,0-5.891,0a1.03,1.03,0,0,1-1.069-.7A1.007,1.007,0,0,1,309.477,216.185Z" transform="translate(-267.33 -191.488)" fill="#12263f"/>
        <path id="Path_188186" data-name="Path 188186" d="M45.248,232.635a1,1,0,0,1,.826-1.428c1.612-.036,3.225,0,4.838-.017a1.149,1.149,0,0,1,1.212.6,1.021,1.021,0,0,1-.89,1.42q-2.45,0-4.9,0A1.077,1.077,0,0,1,45.248,232.635Z" transform="translate(-39.094 -204.516)" fill="#12263f"/>
        <path id="Path_188187" data-name="Path 188187" d="M204.123,231.255c.7-.056,1.408-.015,2.111-.024a1.032,1.032,0,0,1,1.047.65,1,1,0,0,1-.787,1.341c-.624.048-1.25.008-1.875.023a1.164,1.164,0,0,1-1.156-.489A1.006,1.006,0,0,1,204.123,231.255Z" transform="translate(-176.054 -204.551)" fill="#12263f"/>
        <path id="Path_188188" data-name="Path 188188" d="M399.837,231.17c.677-.03,1.553-.253,2.073.315a1,1,0,0,1-.66,1.636c-.636-.011-1.464.2-1.915-.381A1.008,1.008,0,0,1,399.837,231.17Z" transform="translate(-345.608 -204.445)" fill="#12263f"/>
        <path id="Path_188189" data-name="Path 188189" d="M128.683,321.655a6.225,6.225,0,0,1,1.7-.1c.55,0,1.264-.086,1.593.469a1,1,0,0,1-.774,1.534,23.18,23.18,0,0,1-2.365-.028A1.011,1.011,0,0,1,128.683,321.655Z" transform="translate(-110.945 -282.759)" fill="#12263f"/>
        <path id="Path_188190" data-name="Path 188190" d="M260.357,336.834a2.688,2.688,0,0,1,3.052,1.083,5.013,5.013,0,0,1,.571,2.166c.087.72.244,1.433.276,2.16a2.691,2.691,0,0,1-2.36,2.651c-.8.046-1.6.016-2.4.019a2.684,2.684,0,0,1-2.387-1.472c-.314-.634-.658-1.256-.932-1.909a2.683,2.683,0,0,1,1.318-3.3c.956-.463,1.883-.994,2.864-1.4m-.92,2.671a6.462,6.462,0,0,0-1.278.723c-.306.406.031.873.213,1.251a6.15,6.15,0,0,0,.736,1.294c.389.224.873.091,1.3.13.41,0,.822.019,1.232-.009a.659.659,0,0,0,.591-.771q-.185-1.412-.4-2.82a.66.66,0,0,0-.865-.546C260.439,338.968,259.951,339.264,259.437,339.505Z" transform="translate(-221.683 -295.888)" fill="#12263f"/>
        <path id="Path_188191" data-name="Path 188191" d="M369.563,336.751a2.336,2.336,0,0,1,.894-.1c1.521.012,3.041-.011,4.562.009a1,1,0,1,1,0,2c-1.656.007-3.313,0-4.969,0a1,1,0,0,1-.484-1.912Z" transform="translate(-319.505 -295.84)" fill="#12263f"/>
        <path id="Path_188192" data-name="Path 188192" d="M62.093,351.914a2.914,2.914,0,0,1,1.884.119c.759.279,1.553.463,2.289.8a2.652,2.652,0,0,1,1.45,2.347,5.078,5.078,0,0,1-.548,1.912,4.389,4.389,0,0,1-1.015,1.813,2.693,2.693,0,0,1-3.1.361c-.866-.483-1.94-.775-2.47-1.687-.583-.919-.35-2.048-.393-3.072a2.682,2.682,0,0,1,1.905-2.595m.492,1.962a.6.6,0,0,0-.371.515c-.027.579-.013,1.161-.008,1.742-.04.578.614.791,1.049.956l.083-.024.019.09a3.617,3.617,0,0,0,.823.406.625.625,0,0,0,.782-.382q.364-.857.692-1.73a.631.631,0,0,0-.342-.839c-.577-.224-1.175-.39-1.758-.6C63.24,353.936,62.906,353.721,62.585,353.875Z" transform="translate(-52.107 -308.964)" fill="#12263f"/>
        <path id="Path_188193" data-name="Path 188193" d="M452.583,359.257a20.493,20.493,0,0,1,2.367-.028,1,1,0,0,1,.711,1.606c-.417.559-1.188.357-1.786.392-.6-.042-1.37.176-1.808-.369A1.009,1.009,0,0,1,452.583,359.257Z" transform="translate(-391.256 -315.373)" fill="#12263f"/>
        <path id="Path_188194" data-name="Path 188194" d="M150.867,373.112a3.367,3.367,0,0,1,3.614-1.924c1.356.274,2.7.6,4.052.886a3.393,3.393,0,0,1,2.722,4.068,8.782,8.782,0,0,1-.725,2.882,3.351,3.351,0,0,1-2.8,1.616c-1.322.012-2.643.008-3.964,0a3.4,3.4,0,0,1-2.934-2.065,6.467,6.467,0,0,1-.263-2.552,7.105,7.105,0,0,1,.3-2.912m2.225.337c-.758.6-.448,1.667-.51,2.5.054.764-.213,1.708.42,2.3.489.5,1.236.365,1.865.384.957-.012,1.916.019,2.872-.012a1.328,1.328,0,0,0,1.234-1.082c.125-.66.239-1.325.329-1.99a1.346,1.346,0,0,0-1.045-1.472c-.969-.228-1.946-.43-2.918-.648C154.609,373.3,153.745,372.9,153.091,373.448Z" transform="translate(-130.372 -325.7)" fill="#12263f"/>
        <path id="Path_188195" data-name="Path 188195" d="M381.875,374.5a2.654,2.654,0,0,1,2.734.641,5.779,5.779,0,0,1,1,1.946,4.048,4.048,0,0,1,.516,2.584,4.782,4.782,0,0,1-1.6,2.166,3.572,3.572,0,0,1-1.759,1.207,2.633,2.633,0,0,1-3.04-1.535c-.319-.864-.589-1.743-.882-2.615a2.646,2.646,0,0,1,.245-2.223,4.644,4.644,0,0,1,1.33-1.235,5.867,5.867,0,0,1,1.455-.935m-.65,2.847c-.229.178-.539.377-.506.712.173.742.475,1.448.692,2.179.107.266.149.607.412.774.2.145.456.052.681.036l-.015-.042c.4-.362.768-.751,1.152-1.126.253-.267.67-.573.507-.995-.248-.736-.59-1.436-.839-2.172-.189-.233-.495-.456-.8-.291C382.049,376.686,381.657,377.048,381.224,377.35Z" transform="translate(-327.925 -328.494)" fill="#12263f"/>
        <path id="Path_188196" data-name="Path 188196" d="M271.74,419.617a2.639,2.639,0,0,1,1.046-.107c.843.016,1.688-.021,2.532.015a.994.994,0,0,1,.9,1.11,1.009,1.009,0,0,1-1.014.884c-1.081-.009-2.167.046-3.244-.029A1.009,1.009,0,0,1,271.74,419.617Z" transform="translate(-234.834 -367.587)" fill="#12263f"/>
        <path id="Path_188197" data-name="Path 188197" d="M83.465,427.067a5.039,5.039,0,0,1,1.555-.054,1,1,0,0,1,.646,1.57c-.393.562-1.153.4-1.74.414a1.005,1.005,0,0,1-.461-1.931Z" transform="translate(-71.734 -374.057)" fill="#12263f"/>
      </g>
    </g>
  </g>
</svg>
