<svg xmlns="http://www.w3.org/2000/svg" width="1032.5" height="355.5" viewBox="0 0 1032.5 355.5">
  <g id="t4-t1" transform="translate(-6211.5 2932.453)">
    <rect id="Rectangle_39463" data-name="Rectangle 39463" width="69" height="42" transform="translate(6625.5 -2872.453)" fill="#78b62e" opacity="0.5"/>
    <rect id="Rectangle_39464" data-name="Rectangle 39464" width="69" height="42" transform="translate(6694.5 -2830.453)" fill="#78b62e" opacity="0.5"/>
    <rect id="Rectangle_39465" data-name="Rectangle 39465" width="69" height="42" transform="translate(6763.5 -2788.453)" fill="#78b62e" opacity="0.5"/>
    <rect id="Rectangle_39466" data-name="Rectangle 39466" width="69" height="42" transform="translate(6831.5 -2746.453)" fill="#78b62e" opacity="0.5"/>
    <rect id="Rectangle_39468" data-name="Rectangle 39468" width="205" height="42" transform="translate(7037.5 -2620.453)" fill="#78b62e" opacity="0.3"/>
    <rect id="Rectangle_39467" data-name="Rectangle 39467" width="136" height="42" transform="translate(6831.5 -2704.453)" fill="#ffb500" opacity="0.6"/>
    <rect id="Rectangle_39469" data-name="Rectangle 39469" width="69" height="42" transform="translate(6968.5 -2662.453)" fill="#3c6d9d" opacity="0.75"/>
    <path id="Line_352" data-name="Line 352" d="M1,295H-1V-1H1Z" transform="translate(6625.5 -2872.453)" fill="#e8e8e8"/>
    <path id="Line_353" data-name="Line 353" d="M1,295H-1V-1H1Z" transform="translate(6694.056 -2872.453)" fill="#e8e8e8"/>
    <path id="Line_354" data-name="Line 354" d="M1,295.5H-1V-1H1Z" transform="translate(6763 -2872.453)" fill="#e8e8e8"/>
    <path id="Line_355" data-name="Line 355" d="M1,295.5H-1V-1H1Z" transform="translate(6831 -2872.453)" fill="#e8e8e8"/>
    <path id="Line_356" data-name="Line 356" d="M1,295.5H-1V-1H1Z" transform="translate(6900 -2872.453)" fill="#e8e8e8"/>
    <path id="Line_364" data-name="Line 364" d="M1,295.5H-1V-1H1Z" transform="translate(6968 -2872.453)" fill="#e8e8e8"/>
    <path id="Line_365" data-name="Line 365" d="M1,295.5H-1V-1H1Z" transform="translate(7037 -2872.453)" fill="#e8e8e8"/>
    <path id="Line_367" data-name="Line 367" d="M1,295.5H-1V-1H1Z" transform="translate(7105 -2872.453)" fill="#e8e8e8"/>
    <path id="Line_368" data-name="Line 368" d="M1,295.5H-1V-1H1Z" transform="translate(7174 -2872.453)" fill="#e8e8e8"/>
    <path id="Line_369" data-name="Line 369" d="M1,295.5H-1V-1H1Z" transform="translate(7243 -2872.453)" fill="#e8e8e8"/>
    <path id="Line_357" data-name="Line 357" d="M1,295.5H-1V-1H1Z" transform="translate(6212.5 -2872.453)" fill="#e8e8e8"/>
    <path id="Path_190252" data-name="Path 190252" d="M3-4.731V0H1.4V-12.086H5.86a4.478,4.478,0,0,1,3.109,1.013,3.433,3.433,0,0,1,1.125,2.681,3.388,3.388,0,0,1-1.1,2.71,4.678,4.678,0,0,1-3.15.95Zm0-1.3H5.86a2.863,2.863,0,0,0,1.959-.6A2.2,2.2,0,0,0,8.5-8.38a2.277,2.277,0,0,0-.681-1.73,2.682,2.682,0,0,0-1.868-.674H3ZM16.228-7.6a4.6,4.6,0,0,0-.755-.058,2.024,2.024,0,0,0-2.05,1.287V0H11.887V-8.981h1.494l.025,1.038a2.391,2.391,0,0,1,2.142-1.2,1.569,1.569,0,0,1,.681.116Zm4.98,7.77a3.924,3.924,0,0,1-2.972-1.2,4.452,4.452,0,0,1-1.146-3.208v-.282A5.39,5.39,0,0,1,17.6-6.91,3.982,3.982,0,0,1,19.03-8.554a3.59,3.59,0,0,1,1.988-.594A3.364,3.364,0,0,1,23.74-7.994a5,5,0,0,1,.971,3.3v.639H18.627A3.193,3.193,0,0,0,19.4-1.905a2.44,2.44,0,0,0,1.888.818,2.675,2.675,0,0,0,1.378-.332,3.462,3.462,0,0,0,.988-.88l.938.73A3.772,3.772,0,0,1,21.208.166Zm-.191-8.052a2.048,2.048,0,0,0-1.561.677,3.288,3.288,0,0,0-.78,1.9h4.5v-.116a2.925,2.925,0,0,0-.631-1.814A1.928,1.928,0,0,0,21.018-7.886ZM34.075-4.391a5.378,5.378,0,0,1-.938,3.3A3.006,3.006,0,0,1,30.6.166,3.294,3.294,0,0,1,28.023-.872V3.453H26.488V-8.981h1.4l.075,1a3.163,3.163,0,0,1,2.606-1.162,3.063,3.063,0,0,1,2.561,1.22,5.437,5.437,0,0,1,.942,3.4Zm-1.536-.174a3.968,3.968,0,0,0-.647-2.4,2.086,2.086,0,0,0-1.776-.88,2.257,2.257,0,0,0-2.092,1.237v4.292a2.262,2.262,0,0,0,2.108,1.229,2.076,2.076,0,0,0,1.756-.876A4.332,4.332,0,0,0,32.539-4.565ZM41.57,0a3.226,3.226,0,0,1-.216-.946A3.426,3.426,0,0,1,38.8.166a3.17,3.17,0,0,1-2.179-.751,2.43,2.43,0,0,1-.851-1.905,2.539,2.539,0,0,1,1.067-2.179,5.029,5.029,0,0,1,3-.776H41.33v-.706a1.725,1.725,0,0,0-.481-1.282,1.935,1.935,0,0,0-1.419-.477,2.239,2.239,0,0,0-1.378.415,1.223,1.223,0,0,0-.556,1H35.951a2.119,2.119,0,0,1,.477-1.3,3.258,3.258,0,0,1,1.295-.992,4.356,4.356,0,0,1,1.8-.365,3.551,3.551,0,0,1,2.432.776,2.8,2.8,0,0,1,.913,2.137V-2.1a5.054,5.054,0,0,0,.315,1.967V0ZM39.022-1.17a2.7,2.7,0,0,0,1.37-.374,2.259,2.259,0,0,0,.938-.971V-4.358h-1.2q-2.822,0-2.822,1.652a1.4,1.4,0,0,0,.481,1.129A1.85,1.85,0,0,0,39.022-1.17ZM49.614-7.6a4.6,4.6,0,0,0-.755-.058,2.024,2.024,0,0,0-2.05,1.287V0H45.272V-8.981h1.494l.025,1.038a2.391,2.391,0,0,1,2.142-1.2,1.569,1.569,0,0,1,.681.116ZM56.238,0a3.226,3.226,0,0,1-.216-.946A3.426,3.426,0,0,1,53.465.166a3.17,3.17,0,0,1-2.179-.751,2.43,2.43,0,0,1-.851-1.905A2.539,2.539,0,0,1,51.5-4.669a5.029,5.029,0,0,1,3-.776H56v-.706a1.725,1.725,0,0,0-.481-1.282A1.935,1.935,0,0,0,54.1-7.911a2.239,2.239,0,0,0-1.378.415,1.223,1.223,0,0,0-.556,1H50.618a2.119,2.119,0,0,1,.477-1.3,3.258,3.258,0,0,1,1.295-.992,4.356,4.356,0,0,1,1.8-.365,3.551,3.551,0,0,1,2.432.776,2.8,2.8,0,0,1,.913,2.137V-2.1a5.054,5.054,0,0,0,.315,1.967V0ZM53.689-1.17a2.7,2.7,0,0,0,1.37-.374A2.259,2.259,0,0,0,56-2.515V-4.358h-1.2q-2.822,0-2.822,1.652a1.4,1.4,0,0,0,.481,1.129A1.85,1.85,0,0,0,53.689-1.17Zm9.853.083a2.212,2.212,0,0,0,1.436-.5,1.752,1.752,0,0,0,.681-1.245h1.453a2.785,2.785,0,0,1-.531,1.469A3.5,3.5,0,0,1,65.273-.249a3.772,3.772,0,0,1-1.731.415,3.7,3.7,0,0,1-2.918-1.224,4.877,4.877,0,0,1-1.083-3.349v-.257A5.407,5.407,0,0,1,60.023-7a3.667,3.667,0,0,1,1.382-1.585,3.926,3.926,0,0,1,2.129-.564,3.6,3.6,0,0,1,2.511.9,3.234,3.234,0,0,1,1.067,2.349H65.659A2.116,2.116,0,0,0,65-7.325a2.053,2.053,0,0,0-1.465-.56,2.149,2.149,0,0,0-1.814.843,3.957,3.957,0,0,0-.643,2.436v.291a3.878,3.878,0,0,0,.639,2.391A2.16,2.16,0,0,0,63.542-1.087ZM70.507,0H68.971V-8.981h1.536Zm-1.66-11.364a.917.917,0,0,1,.228-.631.857.857,0,0,1,.677-.257.87.87,0,0,1,.681.257.907.907,0,0,1,.232.631.877.877,0,0,1-.232.623.886.886,0,0,1-.681.249.872.872,0,0,1-.677-.249A.886.886,0,0,1,68.847-11.364Zm3.71,6.79a5.3,5.3,0,0,1,.519-2.374A3.87,3.87,0,0,1,74.52-8.575a3.932,3.932,0,0,1,2.113-.573A3.788,3.788,0,0,1,79.6-7.877,4.886,4.886,0,0,1,80.733-4.5v.108a5.351,5.351,0,0,1-.5,2.353A3.813,3.813,0,0,1,78.8-.415a3.977,3.977,0,0,1-2.146.581A3.778,3.778,0,0,1,73.69-1.1a4.861,4.861,0,0,1-1.133-3.362Zm1.544.183a3.842,3.842,0,0,0,.693,2.4,2.218,2.218,0,0,0,1.855.9A2.2,2.2,0,0,0,78.509-2,4.2,4.2,0,0,0,79.2-4.574a3.836,3.836,0,0,0-.7-2.395,2.23,2.23,0,0,0-1.864-.917,2.205,2.205,0,0,0-1.834.9A4.17,4.17,0,0,0,74.1-4.391Zm3.229-8.342h1.859l-2.225,2.44-1.237,0Zm6.782,3.752.05,1.129a3.273,3.273,0,0,1,2.689-1.295q2.847,0,2.872,3.212V0H88.188V-5.943a2.068,2.068,0,0,0-.444-1.436,1.78,1.78,0,0,0-1.357-.465,2.216,2.216,0,0,0-1.312.4,2.706,2.706,0,0,0-.88,1.046V0H82.659V-8.981ZM95.874-4.565a5.261,5.261,0,0,1,.979-3.324,3.1,3.1,0,0,1,2.565-1.258,3.115,3.115,0,0,1,2.5,1.079V-12.75h1.536V0h-1.411l-.075-.963A3.127,3.127,0,0,1,99.4.166a3.068,3.068,0,0,1-2.544-1.278,5.321,5.321,0,0,1-.984-3.337Zm1.536.174A3.984,3.984,0,0,0,98.041-2a2.039,2.039,0,0,0,1.743.863,2.24,2.24,0,0,0,2.133-1.312V-6.574A2.257,2.257,0,0,0,99.8-7.844a2.049,2.049,0,0,0-1.76.872A4.386,4.386,0,0,0,97.41-4.391ZM109.562.166a3.924,3.924,0,0,1-2.972-1.2,4.452,4.452,0,0,1-1.146-3.208v-.282a5.39,5.39,0,0,1,.51-2.386,3.982,3.982,0,0,1,1.428-1.644,3.59,3.59,0,0,1,1.988-.594,3.364,3.364,0,0,1,2.723,1.154,5,5,0,0,1,.971,3.3v.639H106.98a3.193,3.193,0,0,0,.776,2.146,2.44,2.44,0,0,0,1.888.818,2.675,2.675,0,0,0,1.378-.332,3.462,3.462,0,0,0,.988-.88l.938.73A3.772,3.772,0,0,1,109.562.166Zm-.191-8.052a2.048,2.048,0,0,0-1.561.677,3.288,3.288,0,0,0-.78,1.9h4.5v-.116a2.925,2.925,0,0,0-.631-1.814A1.928,1.928,0,0,0,109.371-7.886ZM116.51,0h-1.536V-12.75h1.536Zm8.749-11.156v2.175h1.677v1.187h-1.677v5.577a1.247,1.247,0,0,0,.224.81.943.943,0,0,0,.764.27,3.718,3.718,0,0,0,.73-.1V0A4.478,4.478,0,0,1,125.8.166a1.912,1.912,0,0,1-1.552-.623,2.675,2.675,0,0,1-.523-1.768v-5.57h-1.635V-8.981h1.635v-2.175Zm7.2,11.322a3.924,3.924,0,0,1-2.972-1.2,4.452,4.452,0,0,1-1.146-3.208v-.282a5.39,5.39,0,0,1,.51-2.386,3.982,3.982,0,0,1,1.428-1.644,3.59,3.59,0,0,1,1.988-.594,3.364,3.364,0,0,1,2.723,1.154,5,5,0,0,1,.971,3.3v.639h-6.084a3.193,3.193,0,0,0,.776,2.146,2.44,2.44,0,0,0,1.888.818,2.675,2.675,0,0,0,1.378-.332,3.462,3.462,0,0,0,.988-.88l.938.73A3.772,3.772,0,0,1,132.456.166Zm-.191-8.052a2.048,2.048,0,0,0-1.561.677,3.288,3.288,0,0,0-.78,1.9h4.5v-.116a2.925,2.925,0,0,0-.631-1.814A1.928,1.928,0,0,0,132.265-7.886Zm9.812.282a4.6,4.6,0,0,0-.755-.058,2.024,2.024,0,0,0-2.05,1.287V0h-1.536V-8.981h1.494l.025,1.038a2.391,2.391,0,0,1,2.142-1.2,1.569,1.569,0,0,1,.681.116Zm5.752,0a4.6,4.6,0,0,0-.755-.058,2.024,2.024,0,0,0-2.05,1.287V0h-1.536V-8.981h1.494l.025,1.038a2.391,2.391,0,0,1,2.142-1.2,1.569,1.569,0,0,1,.681.116Zm4.98,7.77a3.924,3.924,0,0,1-2.972-1.2,4.452,4.452,0,0,1-1.146-3.208v-.282a5.39,5.39,0,0,1,.51-2.386,3.982,3.982,0,0,1,1.428-1.644,3.59,3.59,0,0,1,1.988-.594,3.364,3.364,0,0,1,2.723,1.154,5,5,0,0,1,.971,3.3v.639h-6.084A3.193,3.193,0,0,0,151-1.905a2.44,2.44,0,0,0,1.888.818,2.675,2.675,0,0,0,1.378-.332,3.462,3.462,0,0,0,.988-.88l.938.73A3.772,3.772,0,0,1,152.809.166Zm-.191-8.052a2.048,2.048,0,0,0-1.561.677,3.288,3.288,0,0,0-.78,1.9h4.5v-.116a2.925,2.925,0,0,0-.631-1.814A1.928,1.928,0,0,0,152.618-7.886Zm6.923-1.1.05,1.129a3.273,3.273,0,0,1,2.689-1.295q2.847,0,2.872,3.212V0h-1.536V-5.943a2.068,2.068,0,0,0-.444-1.436,1.78,1.78,0,0,0-1.357-.465,2.216,2.216,0,0,0-1.312.4,2.706,2.706,0,0,0-.88,1.046V0h-1.536V-8.981Zm7.521,4.408a5.3,5.3,0,0,1,.519-2.374,3.87,3.87,0,0,1,1.444-1.627,3.932,3.932,0,0,1,2.113-.573,3.788,3.788,0,0,1,2.968,1.27A4.886,4.886,0,0,1,175.238-4.5v.108a5.351,5.351,0,0,1-.5,2.353A3.813,3.813,0,0,1,173.3-.415a3.977,3.977,0,0,1-2.146.581,3.778,3.778,0,0,1-2.959-1.27,4.861,4.861,0,0,1-1.133-3.362Zm1.544.183a3.842,3.842,0,0,0,.693,2.4,2.218,2.218,0,0,0,1.855.9A2.2,2.2,0,0,0,173.013-2a4.2,4.2,0,0,0,.689-2.569,3.836,3.836,0,0,0-.7-2.395,2.23,2.23,0,0,0-1.864-.917,2.205,2.205,0,0,0-1.834.9A4.17,4.17,0,0,0,168.605-4.391Z" transform="translate(6242.5 -2845.453)" fill="#12263f"/>
    <path id="Path_190253" data-name="Path 190253" d="M4.964-5.387A7.494,7.494,0,0,1,1.98-6.836a2.768,2.768,0,0,1-.934-2.121,2.923,2.923,0,0,1,1.141-2.362,4.536,4.536,0,0,1,2.968-.934,4.951,4.951,0,0,1,2.22.481,3.651,3.651,0,0,1,1.511,1.328,3.4,3.4,0,0,1,.535,1.851h-1.6a2.21,2.21,0,0,0-.7-1.729,2.835,2.835,0,0,0-1.967-.629,2.9,2.9,0,0,0-1.839.52,1.734,1.734,0,0,0-.66,1.443,1.56,1.56,0,0,0,.627,1.252A6.147,6.147,0,0,0,5.416-6.8a9.9,9.9,0,0,1,2.357.935A3.577,3.577,0,0,1,9.035-4.673a3.04,3.04,0,0,1,.411,1.6A2.824,2.824,0,0,1,8.3-.718,4.884,4.884,0,0,1,5.238.166,5.681,5.681,0,0,1,2.914-.311,3.911,3.911,0,0,1,1.249-1.619,3.191,3.191,0,0,1,.664-3.5h1.6a2.082,2.082,0,0,0,.809,1.731,3.408,3.408,0,0,0,2.162.635,3.133,3.133,0,0,0,1.934-.515,1.672,1.672,0,0,0,.672-1.4,1.641,1.641,0,0,0-.623-1.374A7.178,7.178,0,0,0,4.964-5.387ZM12.916,0H11.38V-8.981h1.536Zm-1.66-11.364a.917.917,0,0,1,.228-.631.857.857,0,0,1,.677-.257.87.87,0,0,1,.681.257.907.907,0,0,1,.232.631.877.877,0,0,1-.232.623.886.886,0,0,1-.681.249.872.872,0,0,1-.677-.249A.886.886,0,0,1,11.256-11.364ZM19.1.166a3.924,3.924,0,0,1-2.972-1.2,4.452,4.452,0,0,1-1.146-3.208v-.282a5.39,5.39,0,0,1,.51-2.386,3.982,3.982,0,0,1,1.428-1.644,3.59,3.59,0,0,1,1.988-.594,3.364,3.364,0,0,1,2.723,1.154,5,5,0,0,1,.971,3.3v.639H16.519a3.193,3.193,0,0,0,.776,2.146,2.44,2.44,0,0,0,1.888.818,2.675,2.675,0,0,0,1.378-.332,3.462,3.462,0,0,0,.988-.88l.938.73A3.772,3.772,0,0,1,19.1.166Zm-.191-8.052a2.048,2.048,0,0,0-1.561.677,3.288,3.288,0,0,0-.78,1.9h4.5v-.116a2.925,2.925,0,0,0-.631-1.814A1.928,1.928,0,0,0,18.909-7.886Zm6.915-1.1.042,1A3.317,3.317,0,0,1,28.53-9.147,2.568,2.568,0,0,1,31.095-7.7a3.4,3.4,0,0,1,1.166-1.046,3.445,3.445,0,0,1,1.7-.4q2.955,0,3,3.129V0H35.428V-5.927a2.062,2.062,0,0,0-.44-1.44,1.937,1.937,0,0,0-1.478-.477,2.036,2.036,0,0,0-1.419.51,2.071,2.071,0,0,0-.656,1.374V0H29.891V-5.885a1.713,1.713,0,0,0-1.917-1.959,2.055,2.055,0,0,0-2.067,1.287V0H24.371V-8.981Zm21.059,4.59a5.34,5.34,0,0,1-.946,3.308A3.024,3.024,0,0,1,43.4.166a3.131,3.131,0,0,1-2.631-1.2L40.69,0H39.279V-12.75h1.536v4.756A3.113,3.113,0,0,1,43.38-9.147a3.042,3.042,0,0,1,2.569,1.237,5.5,5.5,0,0,1,.934,3.387Zm-1.536-.174a4.15,4.15,0,0,0-.606-2.424A2.006,2.006,0,0,0,43-7.844a2.255,2.255,0,0,0-2.183,1.411v3.885a2.318,2.318,0,0,0,2.2,1.411,2,2,0,0,0,1.718-.855A4.413,4.413,0,0,0,45.347-4.565ZM53.158-7.6a4.6,4.6,0,0,0-.755-.058,2.024,2.024,0,0,0-2.05,1.287V0H48.817V-8.981h1.494l.025,1.038a2.391,2.391,0,0,1,2.142-1.2,1.569,1.569,0,0,1,.681.116ZM59.782,0a3.226,3.226,0,0,1-.216-.946A3.426,3.426,0,0,1,57.01.166a3.17,3.17,0,0,1-2.179-.751A2.43,2.43,0,0,1,53.98-2.49a2.539,2.539,0,0,1,1.067-2.179,5.029,5.029,0,0,1,3-.776h1.494v-.706a1.725,1.725,0,0,0-.481-1.282,1.935,1.935,0,0,0-1.419-.477,2.239,2.239,0,0,0-1.378.415,1.223,1.223,0,0,0-.556,1H54.163a2.119,2.119,0,0,1,.477-1.3,3.258,3.258,0,0,1,1.295-.992,4.356,4.356,0,0,1,1.8-.365,3.551,3.551,0,0,1,2.432.776,2.8,2.8,0,0,1,.913,2.137V-2.1a5.054,5.054,0,0,0,.315,1.967V0ZM57.234-1.17a2.7,2.7,0,0,0,1.37-.374,2.259,2.259,0,0,0,.938-.971V-4.358h-1.2q-2.822,0-2.822,1.652A1.4,1.4,0,0,0,56-1.577,1.85,1.85,0,0,0,57.234-1.17Zm10.085-3.4A5.261,5.261,0,0,1,68.3-7.89a3.1,3.1,0,0,1,2.565-1.258,3.115,3.115,0,0,1,2.5,1.079V-12.75H74.9V0H73.487l-.075-.963A3.127,3.127,0,0,1,70.847.166,3.068,3.068,0,0,1,68.3-1.112a5.321,5.321,0,0,1-.984-3.337Zm1.536.174A3.984,3.984,0,0,0,69.486-2a2.039,2.039,0,0,0,1.743.863,2.24,2.24,0,0,0,2.133-1.312V-6.574a2.257,2.257,0,0,0-2.117-1.27,2.049,2.049,0,0,0-1.76.872A4.386,4.386,0,0,0,68.855-4.391ZM81.007.166a3.924,3.924,0,0,1-2.972-1.2A4.452,4.452,0,0,1,76.89-4.242v-.282A5.39,5.39,0,0,1,77.4-6.91a3.982,3.982,0,0,1,1.428-1.644,3.59,3.59,0,0,1,1.988-.594,3.364,3.364,0,0,1,2.723,1.154,5,5,0,0,1,.971,3.3v.639H78.426A3.193,3.193,0,0,0,79.2-1.905a2.44,2.44,0,0,0,1.888.818,2.675,2.675,0,0,0,1.378-.332,3.462,3.462,0,0,0,.988-.88l.938.73A3.772,3.772,0,0,1,81.007.166Zm-.191-8.052a2.048,2.048,0,0,0-1.561.677,3.288,3.288,0,0,0-.78,1.9h4.5v-.116a2.925,2.925,0,0,0-.631-1.814A1.928,1.928,0,0,0,80.816-7.886Zm14.908,5.5a1.131,1.131,0,0,0-.469-.967,4.514,4.514,0,0,0-1.635-.594,7.731,7.731,0,0,1-1.851-.6,2.633,2.633,0,0,1-1.013-.83,1.986,1.986,0,0,1-.328-1.146,2.33,2.33,0,0,1,.934-1.868,3.647,3.647,0,0,1,2.386-.764,3.753,3.753,0,0,1,2.478.789,2.5,2.5,0,0,1,.95,2.017H95.633A1.386,1.386,0,0,0,95.1-7.429a2.006,2.006,0,0,0-1.349-.457,2.1,2.1,0,0,0-1.312.365,1.15,1.15,0,0,0-.473.955.932.932,0,0,0,.44.838,5.413,5.413,0,0,0,1.59.54,8.283,8.283,0,0,1,1.864.614,2.718,2.718,0,0,1,1.058.859A2.112,2.112,0,0,1,97.26-2.49,2.3,2.3,0,0,1,96.3-.56a4.039,4.039,0,0,1-2.5.726A4.523,4.523,0,0,1,91.89-.216a3.105,3.105,0,0,1-1.3-1.067,2.571,2.571,0,0,1-.469-1.482h1.536a1.59,1.59,0,0,0,.618,1.224,2.4,2.4,0,0,0,1.523.452,2.476,2.476,0,0,0,1.4-.353A1.084,1.084,0,0,0,95.725-2.382ZM102.988.166a3.924,3.924,0,0,1-2.972-1.2,4.452,4.452,0,0,1-1.146-3.208v-.282a5.39,5.39,0,0,1,.51-2.386,3.982,3.982,0,0,1,1.428-1.644,3.59,3.59,0,0,1,1.988-.594,3.364,3.364,0,0,1,2.723,1.154,5,5,0,0,1,.971,3.3v.639h-6.084a3.193,3.193,0,0,0,.776,2.146,2.44,2.44,0,0,0,1.888.818,2.675,2.675,0,0,0,1.378-.332,3.462,3.462,0,0,0,.988-.88l.938.73A3.772,3.772,0,0,1,102.988.166ZM102.8-7.886a2.048,2.048,0,0,0-1.561.677,3.288,3.288,0,0,0-.78,1.9h4.5v-.116a2.925,2.925,0,0,0-.631-1.814A1.928,1.928,0,0,0,102.8-7.886Zm6.915-1.1.042,1a3.317,3.317,0,0,1,2.665-1.162A2.568,2.568,0,0,1,114.982-7.7a3.4,3.4,0,0,1,1.166-1.046,3.445,3.445,0,0,1,1.7-.4q2.955,0,3,3.129V0h-1.536V-5.927a2.062,2.062,0,0,0-.44-1.44,1.937,1.937,0,0,0-1.478-.477,2.036,2.036,0,0,0-1.419.51,2.071,2.071,0,0,0-.656,1.374V0h-1.544V-5.885a1.713,1.713,0,0,0-1.917-1.959,2.055,2.055,0,0,0-2.067,1.287V0h-1.536V-8.981ZM124.835,0H123.3V-8.981h1.536Zm-1.66-11.364a.917.917,0,0,1,.228-.631.857.857,0,0,1,.677-.257.87.87,0,0,1,.681.257.907.907,0,0,1,.232.631.877.877,0,0,1-.232.623.886.886,0,0,1-.681.249.872.872,0,0,1-.677-.249A.886.886,0,0,1,123.175-11.364ZM128.961,0h-1.536V-12.75h1.536Zm4.125,0h-1.536V-12.75h1.536Zm8,0a3.226,3.226,0,0,1-.216-.946A3.426,3.426,0,0,1,138.316.166a3.17,3.17,0,0,1-2.179-.751,2.43,2.43,0,0,1-.851-1.905,2.539,2.539,0,0,1,1.067-2.179,5.029,5.029,0,0,1,3-.776h1.494v-.706a1.725,1.725,0,0,0-.481-1.282,1.935,1.935,0,0,0-1.419-.477,2.239,2.239,0,0,0-1.378.415,1.223,1.223,0,0,0-.556,1h-1.544a2.119,2.119,0,0,1,.477-1.3,3.258,3.258,0,0,1,1.295-.992,4.356,4.356,0,0,1,1.8-.365,3.551,3.551,0,0,1,2.432.776,2.8,2.8,0,0,1,.913,2.137V-2.1A5.054,5.054,0,0,0,142.7-.133V0ZM138.54-1.17a2.7,2.7,0,0,0,1.37-.374,2.259,2.259,0,0,0,.938-.971V-4.358h-1.2q-2.822,0-2.822,1.652a1.4,1.4,0,0,0,.481,1.129A1.85,1.85,0,0,0,138.54-1.17Zm10.085-3.4A5.261,5.261,0,0,1,149.6-7.89a3.1,3.1,0,0,1,2.565-1.258,3.115,3.115,0,0,1,2.5,1.079V-12.75H156.2V0h-1.411l-.075-.963A3.127,3.127,0,0,1,152.153.166a3.068,3.068,0,0,1-2.544-1.278,5.321,5.321,0,0,1-.984-3.337Zm1.536.174A3.984,3.984,0,0,0,150.792-2a2.039,2.039,0,0,0,1.743.863,2.24,2.24,0,0,0,2.133-1.312V-6.574a2.257,2.257,0,0,0-2.117-1.27,2.049,2.049,0,0,0-1.76.872A4.386,4.386,0,0,0,150.161-4.391ZM162.313.166a3.924,3.924,0,0,1-2.972-1.2A4.452,4.452,0,0,1,158.2-4.242v-.282a5.39,5.39,0,0,1,.51-2.386,3.982,3.982,0,0,1,1.428-1.644,3.59,3.59,0,0,1,1.988-.594,3.364,3.364,0,0,1,2.723,1.154,5,5,0,0,1,.971,3.3v.639h-6.084a3.193,3.193,0,0,0,.776,2.146,2.44,2.44,0,0,0,1.888.818,2.675,2.675,0,0,0,1.378-.332,3.462,3.462,0,0,0,.988-.88l.938.73A3.772,3.772,0,0,1,162.313.166Zm-.191-8.052a2.048,2.048,0,0,0-1.561.677,3.288,3.288,0,0,0-.78,1.9h4.5v-.116a2.925,2.925,0,0,0-.631-1.814A1.928,1.928,0,0,0,162.123-7.886ZM179.4-4.391a5.34,5.34,0,0,1-.946,3.308,3.024,3.024,0,0,1-2.54,1.249,3.131,3.131,0,0,1-2.631-1.2L173.212,0H171.8V-12.75h1.536v4.756A3.113,3.113,0,0,1,175.9-9.147a3.042,3.042,0,0,1,2.569,1.237,5.5,5.5,0,0,1,.934,3.387Zm-1.536-.174a4.15,4.15,0,0,0-.606-2.424,2.006,2.006,0,0,0-1.743-.855,2.255,2.255,0,0,0-2.183,1.411v3.885a2.318,2.318,0,0,0,2.2,1.411,2,2,0,0,0,1.718-.855A4.413,4.413,0,0,0,177.869-4.565ZM185.68-7.6a4.6,4.6,0,0,0-.755-.058,2.024,2.024,0,0,0-2.05,1.287V0h-1.536V-8.981h1.494l.025,1.038A2.391,2.391,0,0,1,185-9.147a1.569,1.569,0,0,1,.681.116ZM192.3,0a3.226,3.226,0,0,1-.216-.946A3.426,3.426,0,0,1,189.532.166a3.17,3.17,0,0,1-2.179-.751A2.43,2.43,0,0,1,186.5-2.49a2.539,2.539,0,0,1,1.067-2.179,5.029,5.029,0,0,1,3-.776h1.494v-.706a1.725,1.725,0,0,0-.481-1.282,1.935,1.935,0,0,0-1.419-.477,2.239,2.239,0,0,0-1.378.415,1.223,1.223,0,0,0-.556,1h-1.544a2.119,2.119,0,0,1,.477-1.3,3.258,3.258,0,0,1,1.295-.992,4.356,4.356,0,0,1,1.8-.365,3.551,3.551,0,0,1,2.432.776,2.8,2.8,0,0,1,.913,2.137V-2.1a5.054,5.054,0,0,0,.315,1.967V0Zm-2.548-1.17a2.7,2.7,0,0,0,1.37-.374,2.259,2.259,0,0,0,.938-.971V-4.358h-1.2q-2.822,0-2.822,1.652a1.4,1.4,0,0,0,.481,1.129A1.85,1.85,0,0,0,189.756-1.17Zm9.853.083a2.212,2.212,0,0,0,1.436-.5,1.752,1.752,0,0,0,.681-1.245h1.453a2.785,2.785,0,0,1-.531,1.469A3.5,3.5,0,0,1,201.34-.249a3.772,3.772,0,0,1-1.731.415,3.7,3.7,0,0,1-2.918-1.224,4.877,4.877,0,0,1-1.083-3.349v-.257A5.407,5.407,0,0,1,196.089-7a3.667,3.667,0,0,1,1.382-1.585,3.926,3.926,0,0,1,2.129-.564,3.6,3.6,0,0,1,2.511.9,3.234,3.234,0,0,1,1.067,2.349h-1.453a2.116,2.116,0,0,0-.66-1.432,2.053,2.053,0,0,0-1.465-.56,2.149,2.149,0,0,0-1.814.843,3.957,3.957,0,0,0-.643,2.436v.291a3.878,3.878,0,0,0,.639,2.391A2.16,2.16,0,0,0,199.609-1.087Zm6.832-6.807A3.265,3.265,0,0,1,209.1-9.147q2.847,0,2.872,3.212V0h-1.536V-5.943a2.068,2.068,0,0,0-.444-1.436,1.78,1.78,0,0,0-1.357-.465,2.216,2.216,0,0,0-1.312.4,2.706,2.706,0,0,0-.88,1.046V0H204.9V-12.75h1.536ZM215.937,0H214.4V-8.981h1.536Zm-1.66-11.364a.917.917,0,0,1,.228-.631.857.857,0,0,1,.677-.257.87.87,0,0,1,.681.257.907.907,0,0,1,.232.631.877.877,0,0,1-.232.623.886.886,0,0,1-.681.249.872.872,0,0,1-.677-.249A.886.886,0,0,1,214.276-11.364ZM223.938,0a3.226,3.226,0,0,1-.216-.946A3.426,3.426,0,0,1,221.166.166a3.17,3.17,0,0,1-2.179-.751,2.43,2.43,0,0,1-.851-1.905A2.539,2.539,0,0,1,219.2-4.669a5.029,5.029,0,0,1,3-.776H223.7v-.706a1.725,1.725,0,0,0-.481-1.282,1.935,1.935,0,0,0-1.419-.477,2.239,2.239,0,0,0-1.378.415,1.223,1.223,0,0,0-.556,1h-1.544a2.119,2.119,0,0,1,.477-1.3,3.258,3.258,0,0,1,1.295-.992,4.356,4.356,0,0,1,1.8-.365,3.551,3.551,0,0,1,2.432.776,2.8,2.8,0,0,1,.913,2.137V-2.1a5.054,5.054,0,0,0,.315,1.967V0ZM221.39-1.17a2.7,2.7,0,0,0,1.37-.374,2.259,2.259,0,0,0,.938-.971V-4.358h-1.2q-2.822,0-2.822,1.652a1.4,1.4,0,0,0,.481,1.129A1.85,1.85,0,0,0,221.39-1.17ZM231.982-7.6a4.6,4.6,0,0,0-.755-.058,2.024,2.024,0,0,0-2.05,1.287V0h-1.536V-8.981h1.494l.025,1.038a2.391,2.391,0,0,1,2.142-1.2,1.569,1.569,0,0,1,.681.116Zm3.08,7.6h-1.536V-8.981h1.536ZM233.4-11.364a.917.917,0,0,1,.228-.631.857.857,0,0,1,.677-.257.87.87,0,0,1,.681.257.907.907,0,0,1,.232.631.877.877,0,0,1-.232.623.886.886,0,0,1-.681.249.872.872,0,0,1-.677-.249A.886.886,0,0,1,233.4-11.364ZM243.063,0a3.226,3.226,0,0,1-.216-.946A3.426,3.426,0,0,1,240.291.166a3.17,3.17,0,0,1-2.179-.751,2.43,2.43,0,0,1-.851-1.905,2.539,2.539,0,0,1,1.067-2.179,5.029,5.029,0,0,1,3-.776h1.494v-.706a1.725,1.725,0,0,0-.481-1.282,1.935,1.935,0,0,0-1.419-.477,2.239,2.239,0,0,0-1.378.415,1.223,1.223,0,0,0-.556,1h-1.544a2.119,2.119,0,0,1,.477-1.3,3.258,3.258,0,0,1,1.295-.992,4.356,4.356,0,0,1,1.8-.365,3.551,3.551,0,0,1,2.432.776,2.8,2.8,0,0,1,.913,2.137V-2.1a5.054,5.054,0,0,0,.315,1.967V0Zm-2.548-1.17a2.7,2.7,0,0,0,1.37-.374,2.259,2.259,0,0,0,.938-.971V-4.358h-1.2q-2.822,0-2.822,1.652a1.4,1.4,0,0,0,.481,1.129A1.85,1.85,0,0,0,240.515-1.17Z" transform="translate(6242.5 -2803.453)" fill="#12263f"/>
    <path id="Path_190254" data-name="Path 190254" d="M8.068-5.337H3V0H1.4V-12.086H8.89v1.3H3v4.142H8.068Zm6.043,5.5a3.924,3.924,0,0,1-2.972-1.2A4.452,4.452,0,0,1,9.994-4.242v-.282A5.39,5.39,0,0,1,10.5-6.91a3.982,3.982,0,0,1,1.428-1.644,3.59,3.59,0,0,1,1.988-.594,3.364,3.364,0,0,1,2.723,1.154,5,5,0,0,1,.971,3.3v.639H11.53a3.193,3.193,0,0,0,.776,2.146,2.44,2.44,0,0,0,1.888.818,2.675,2.675,0,0,0,1.378-.332,3.462,3.462,0,0,0,.988-.88l.938.73A3.772,3.772,0,0,1,14.111.166ZM13.92-7.886a2.048,2.048,0,0,0-1.561.677,3.288,3.288,0,0,0-.78,1.9h4.5v-.116a2.925,2.925,0,0,0-.631-1.814A1.928,1.928,0,0,0,13.92-7.886Zm9.812.282a4.6,4.6,0,0,0-.755-.058,2.024,2.024,0,0,0-2.05,1.287V0H19.391V-8.981h1.494l.025,1.038a2.391,2.391,0,0,1,2.142-1.2,1.569,1.569,0,0,1,.681.116Zm3.91-3.553v2.175h1.677v1.187H27.642v5.577a1.247,1.247,0,0,0,.224.81.943.943,0,0,0,.764.27,3.718,3.718,0,0,0,.73-.1V0a4.478,4.478,0,0,1-1.179.165,1.912,1.912,0,0,1-1.552-.623,2.675,2.675,0,0,1-.523-1.768v-5.57H24.471V-8.981h1.635v-2.175ZM32.78,0H31.244V-8.981H32.78ZM31.12-11.364a.917.917,0,0,1,.228-.631.857.857,0,0,1,.677-.257.87.87,0,0,1,.681.257.907.907,0,0,1,.232.631.877.877,0,0,1-.232.623.886.886,0,0,1-.681.249.872.872,0,0,1-.677-.249A.886.886,0,0,1,31.12-11.364ZM36.905,0H35.37V-12.75h1.536Zm4.125,0H39.5V-8.981h1.536Zm-1.66-11.364a.917.917,0,0,1,.228-.631.857.857,0,0,1,.677-.257.87.87,0,0,1,.681.257.907.907,0,0,1,.232.631.877.877,0,0,1-.232.623.886.886,0,0,1-.681.249.872.872,0,0,1-.677-.249A.886.886,0,0,1,39.371-11.364Zm5.562,10.11h5.254V0h-7.13V-1.129l4.956-6.583H43.131v-1.27h6.807v1.087ZM57.458,0a3.226,3.226,0,0,1-.216-.946A3.426,3.426,0,0,1,54.686.166a3.17,3.17,0,0,1-2.179-.751,2.43,2.43,0,0,1-.851-1.905,2.539,2.539,0,0,1,1.067-2.179,5.029,5.029,0,0,1,3-.776h1.494v-.706a1.725,1.725,0,0,0-.481-1.282,1.935,1.935,0,0,0-1.419-.477,2.239,2.239,0,0,0-1.378.415,1.223,1.223,0,0,0-.556,1H51.838a2.119,2.119,0,0,1,.477-1.3,3.258,3.258,0,0,1,1.295-.992,4.356,4.356,0,0,1,1.8-.365,3.551,3.551,0,0,1,2.432.776,2.8,2.8,0,0,1,.913,2.137V-2.1a5.054,5.054,0,0,0,.315,1.967V0ZM54.91-1.17a2.7,2.7,0,0,0,1.37-.374,2.259,2.259,0,0,0,.938-.971V-4.358h-1.2q-2.822,0-2.822,1.652a1.4,1.4,0,0,0,.481,1.129A1.85,1.85,0,0,0,54.91-1.17Zm9.853.083a2.212,2.212,0,0,0,1.436-.5,1.752,1.752,0,0,0,.681-1.245h1.453A2.785,2.785,0,0,1,67.8-1.361,3.5,3.5,0,0,1,66.493-.249a3.772,3.772,0,0,1-1.731.415,3.7,3.7,0,0,1-2.918-1.224,4.877,4.877,0,0,1-1.083-3.349v-.257A5.407,5.407,0,0,1,61.243-7a3.667,3.667,0,0,1,1.382-1.585,3.926,3.926,0,0,1,2.129-.564,3.6,3.6,0,0,1,2.511.9,3.234,3.234,0,0,1,1.067,2.349H66.879a2.116,2.116,0,0,0-.66-1.432,2.053,2.053,0,0,0-1.465-.56,2.149,2.149,0,0,0-1.814.843A3.957,3.957,0,0,0,62.3-4.607v.291a3.878,3.878,0,0,0,.639,2.391A2.16,2.16,0,0,0,64.763-1.087ZM71.727,0H70.191V-8.981h1.536Zm-1.66-11.364a.917.917,0,0,1,.228-.631.857.857,0,0,1,.677-.257.87.87,0,0,1,.681.257.907.907,0,0,1,.232.631.877.877,0,0,1-.232.623.886.886,0,0,1-.681.249.872.872,0,0,1-.677-.249A.886.886,0,0,1,70.067-11.364Zm3.71,6.79A5.3,5.3,0,0,1,74.3-6.948,3.87,3.87,0,0,1,75.74-8.575a3.932,3.932,0,0,1,2.113-.573,3.788,3.788,0,0,1,2.968,1.27A4.886,4.886,0,0,1,81.954-4.5v.108a5.351,5.351,0,0,1-.5,2.353A3.813,3.813,0,0,1,80.015-.415,3.977,3.977,0,0,1,77.87.166,3.778,3.778,0,0,1,74.91-1.1a4.861,4.861,0,0,1-1.133-3.362Zm1.544.183a3.842,3.842,0,0,0,.693,2.4,2.218,2.218,0,0,0,1.855.9A2.2,2.2,0,0,0,79.729-2a4.2,4.2,0,0,0,.689-2.569,3.836,3.836,0,0,0-.7-2.395,2.23,2.23,0,0,0-1.864-.917,2.205,2.205,0,0,0-1.834.9A4.17,4.17,0,0,0,75.321-4.391Zm3.229-8.342H80.41l-2.225,2.44-1.237,0Zm6.782,3.752.05,1.129a3.273,3.273,0,0,1,2.689-1.295q2.847,0,2.872,3.212V0H89.408V-5.943a2.068,2.068,0,0,0-.444-1.436,1.78,1.78,0,0,0-1.357-.465,2.216,2.216,0,0,0-1.312.4,2.706,2.706,0,0,0-.88,1.046V0H83.879V-8.981ZM97.094-4.565a5.261,5.261,0,0,1,.979-3.324,3.1,3.1,0,0,1,2.565-1.258,3.115,3.115,0,0,1,2.5,1.079V-12.75h1.536V0h-1.411l-.075-.963A3.127,3.127,0,0,1,100.622.166a3.068,3.068,0,0,1-2.544-1.278,5.321,5.321,0,0,1-.984-3.337Zm1.536.174A3.984,3.984,0,0,0,99.261-2,2.039,2.039,0,0,0,101-1.137a2.24,2.24,0,0,0,2.133-1.312V-6.574a2.257,2.257,0,0,0-2.117-1.27,2.049,2.049,0,0,0-1.76.872A4.386,4.386,0,0,0,98.63-4.391ZM110.782.166a3.924,3.924,0,0,1-2.972-1.2,4.452,4.452,0,0,1-1.146-3.208v-.282a5.39,5.39,0,0,1,.51-2.386A3.982,3.982,0,0,1,108.6-8.554a3.59,3.59,0,0,1,1.988-.594,3.364,3.364,0,0,1,2.723,1.154,5,5,0,0,1,.971,3.3v.639H108.2a3.193,3.193,0,0,0,.776,2.146,2.44,2.44,0,0,0,1.888.818,2.675,2.675,0,0,0,1.378-.332,3.462,3.462,0,0,0,.988-.88l.938.73A3.772,3.772,0,0,1,110.782.166Zm-.191-8.052a2.048,2.048,0,0,0-1.561.677,3.288,3.288,0,0,0-.78,1.9h4.5v-.116a2.925,2.925,0,0,0-.631-1.814A1.928,1.928,0,0,0,110.591-7.886ZM121.938,0H120.4V-12.75h1.536Zm8,0a3.226,3.226,0,0,1-.216-.946A3.426,3.426,0,0,1,127.168.166a3.17,3.17,0,0,1-2.179-.751,2.43,2.43,0,0,1-.851-1.905A2.539,2.539,0,0,1,125.2-4.669a5.029,5.029,0,0,1,3-.776H129.7v-.706a1.725,1.725,0,0,0-.481-1.282,1.935,1.935,0,0,0-1.419-.477,2.239,2.239,0,0,0-1.378.415,1.223,1.223,0,0,0-.556,1h-1.544a2.119,2.119,0,0,1,.477-1.3,3.258,3.258,0,0,1,1.295-.992,4.356,4.356,0,0,1,1.8-.365,3.551,3.551,0,0,1,2.432.776,2.8,2.8,0,0,1,.913,2.137V-2.1a5.054,5.054,0,0,0,.315,1.967V0Zm-2.548-1.17a2.7,2.7,0,0,0,1.37-.374,2.259,2.259,0,0,0,.938-.971V-4.358h-1.2q-2.822,0-2.822,1.652a1.4,1.4,0,0,0,.481,1.129A1.85,1.85,0,0,0,127.392-1.17Zm18.046-3.221a5.378,5.378,0,0,1-.938,3.3A3.006,3.006,0,0,1,141.96.166a3.294,3.294,0,0,1-2.573-1.038V3.453h-1.536V-8.981h1.4l.075,1a3.163,3.163,0,0,1,2.606-1.162,3.063,3.063,0,0,1,2.561,1.22,5.437,5.437,0,0,1,.942,3.4ZM143.9-4.565a3.968,3.968,0,0,0-.647-2.4,2.086,2.086,0,0,0-1.776-.88,2.257,2.257,0,0,0-2.092,1.237v4.292A2.262,2.262,0,0,0,141.5-1.087a2.076,2.076,0,0,0,1.756-.876A4.332,4.332,0,0,0,143.9-4.565ZM151.73-7.6a4.6,4.6,0,0,0-.755-.058,2.024,2.024,0,0,0-2.05,1.287V0h-1.536V-8.981h1.494l.025,1.038a2.391,2.391,0,0,1,2.142-1.2,1.569,1.569,0,0,1,.681.116ZM158.354,0a3.226,3.226,0,0,1-.216-.946A3.426,3.426,0,0,1,155.582.166,3.17,3.17,0,0,1,153.4-.585a2.43,2.43,0,0,1-.851-1.905,2.539,2.539,0,0,1,1.067-2.179,5.029,5.029,0,0,1,3-.776h1.494v-.706a1.725,1.725,0,0,0-.481-1.282,1.935,1.935,0,0,0-1.419-.477,2.239,2.239,0,0,0-1.378.415,1.223,1.223,0,0,0-.556,1h-1.544a2.119,2.119,0,0,1,.477-1.3,3.258,3.258,0,0,1,1.295-.992,4.356,4.356,0,0,1,1.8-.365,3.551,3.551,0,0,1,2.432.776,2.8,2.8,0,0,1,.913,2.137V-2.1a5.054,5.054,0,0,0,.315,1.967V0Zm-2.548-1.17a2.7,2.7,0,0,0,1.37-.374,2.259,2.259,0,0,0,.938-.971V-4.358h-1.2q-2.822,0-2.822,1.652a1.4,1.4,0,0,0,.481,1.129A1.85,1.85,0,0,0,155.806-1.17Zm5.877-3.4a5.261,5.261,0,0,1,.979-3.324,3.1,3.1,0,0,1,2.565-1.258,3.115,3.115,0,0,1,2.5,1.079V-12.75h1.536V0H167.85l-.075-.963A3.127,3.127,0,0,1,165.21.166a3.068,3.068,0,0,1-2.544-1.278,5.321,5.321,0,0,1-.984-3.337Zm1.536.174A3.984,3.984,0,0,0,163.849-2a2.039,2.039,0,0,0,1.743.863,2.24,2.24,0,0,0,2.133-1.312V-6.574a2.257,2.257,0,0,0-2.117-1.27,2.049,2.049,0,0,0-1.76.872A4.386,4.386,0,0,0,163.218-4.391ZM175.371.166a3.924,3.924,0,0,1-2.972-1.2,4.452,4.452,0,0,1-1.146-3.208v-.282a5.39,5.39,0,0,1,.51-2.386,3.982,3.982,0,0,1,1.428-1.644,3.59,3.59,0,0,1,1.988-.594A3.364,3.364,0,0,1,177.9-7.994a5,5,0,0,1,.971,3.3v.639h-6.084a3.193,3.193,0,0,0,.776,2.146,2.44,2.44,0,0,0,1.888.818,2.675,2.675,0,0,0,1.378-.332,3.462,3.462,0,0,0,.988-.88l.938.73A3.772,3.772,0,0,1,175.371.166Zm-.191-8.052a2.048,2.048,0,0,0-1.561.677,3.288,3.288,0,0,0-.78,1.9h4.5v-.116a2.925,2.925,0,0,0-.631-1.814A1.928,1.928,0,0,0,175.18-7.886Zm9.812.282a4.6,4.6,0,0,0-.755-.058,2.024,2.024,0,0,0-2.05,1.287V0H180.65V-8.981h1.494l.025,1.038a2.391,2.391,0,0,1,2.142-1.2,1.569,1.569,0,0,1,.681.116ZM191.615,0a3.226,3.226,0,0,1-.216-.946A3.426,3.426,0,0,1,188.843.166a3.17,3.17,0,0,1-2.179-.751,2.43,2.43,0,0,1-.851-1.905,2.539,2.539,0,0,1,1.067-2.179,5.029,5.029,0,0,1,3-.776h1.494v-.706a1.725,1.725,0,0,0-.481-1.282,1.935,1.935,0,0,0-1.419-.477A2.239,2.239,0,0,0,188.1-7.5a1.223,1.223,0,0,0-.556,1H186a2.119,2.119,0,0,1,.477-1.3,3.258,3.258,0,0,1,1.295-.992,4.356,4.356,0,0,1,1.8-.365A3.551,3.551,0,0,1,192-8.371a2.8,2.8,0,0,1,.913,2.137V-2.1a5.054,5.054,0,0,0,.315,1.967V0Zm-2.548-1.17a2.7,2.7,0,0,0,1.37-.374,2.259,2.259,0,0,0,.938-.971V-4.358h-1.2q-2.822,0-2.822,1.652a1.4,1.4,0,0,0,.481,1.129A1.85,1.85,0,0,0,189.067-1.17Z" transform="translate(6242.5 -2761.453)" fill="#12263f"/>
    <path id="Path_190255" data-name="Path 190255" d="M8.077-3.163H3.013L1.876,0H.232L4.848-12.086H6.242L10.866,0H9.23Zm-4.582-1.3H7.6L5.545-10.119Zm8.384-.1a5.261,5.261,0,0,1,.979-3.324,3.1,3.1,0,0,1,2.565-1.258,3.115,3.115,0,0,1,2.5,1.079V-12.75h1.536V0H18.046l-.075-.963A3.127,3.127,0,0,1,15.406.166a3.068,3.068,0,0,1-2.544-1.278,5.321,5.321,0,0,1-.984-3.337Zm1.536.174A3.984,3.984,0,0,0,14.045-2a2.039,2.039,0,0,0,1.743.863,2.24,2.24,0,0,0,2.133-1.312V-6.574A2.257,2.257,0,0,0,15.8-7.844a2.049,2.049,0,0,0-1.76.872A4.386,4.386,0,0,0,13.414-4.391ZM25.566.166a3.924,3.924,0,0,1-2.972-1.2,4.452,4.452,0,0,1-1.146-3.208v-.282a5.39,5.39,0,0,1,.51-2.386,3.982,3.982,0,0,1,1.428-1.644,3.59,3.59,0,0,1,1.988-.594A3.364,3.364,0,0,1,28.1-7.994a5,5,0,0,1,.971,3.3v.639H22.985a3.193,3.193,0,0,0,.776,2.146,2.44,2.44,0,0,0,1.888.818,2.675,2.675,0,0,0,1.378-.332,3.462,3.462,0,0,0,.988-.88l.938.73A3.772,3.772,0,0,1,25.566.166Zm-.191-8.052a2.048,2.048,0,0,0-1.561.677,3.288,3.288,0,0,0-.78,1.9h4.5v-.116A2.925,2.925,0,0,0,26.9-7.242,1.928,1.928,0,0,0,25.375-7.886Zm9.073,6.8a2.212,2.212,0,0,0,1.436-.5,1.752,1.752,0,0,0,.681-1.245h1.453a2.785,2.785,0,0,1-.531,1.469A3.5,3.5,0,0,1,36.179-.249a3.772,3.772,0,0,1-1.731.415,3.7,3.7,0,0,1-2.918-1.224,4.877,4.877,0,0,1-1.083-3.349v-.257A5.407,5.407,0,0,1,30.929-7a3.667,3.667,0,0,1,1.382-1.585,3.926,3.926,0,0,1,2.129-.564,3.6,3.6,0,0,1,2.511.9,3.234,3.234,0,0,1,1.067,2.349H36.565a2.116,2.116,0,0,0-.66-1.432,2.053,2.053,0,0,0-1.465-.56,2.149,2.149,0,0,0-1.814.843,3.957,3.957,0,0,0-.643,2.436v.291a3.878,3.878,0,0,0,.639,2.391A2.16,2.16,0,0,0,34.448-1.087Zm10.841.2A3.262,3.262,0,0,1,42.658.166,2.792,2.792,0,0,1,40.47-.668a3.611,3.611,0,0,1-.76-2.469V-8.981h1.536v5.8q0,2.042,1.66,2.042a2.3,2.3,0,0,0,2.341-1.312V-8.981h1.536V0H45.322ZM54.661,0a3.226,3.226,0,0,1-.216-.946A3.426,3.426,0,0,1,51.888.166a3.17,3.17,0,0,1-2.179-.751,2.43,2.43,0,0,1-.851-1.905,2.539,2.539,0,0,1,1.067-2.179,5.029,5.029,0,0,1,3-.776H54.42v-.706a1.725,1.725,0,0,0-.481-1.282,1.935,1.935,0,0,0-1.419-.477,2.239,2.239,0,0,0-1.378.415,1.223,1.223,0,0,0-.556,1H49.041a2.119,2.119,0,0,1,.477-1.3,3.258,3.258,0,0,1,1.295-.992,4.356,4.356,0,0,1,1.8-.365,3.551,3.551,0,0,1,2.432.776,2.8,2.8,0,0,1,.913,2.137V-2.1a5.054,5.054,0,0,0,.315,1.967V0ZM52.112-1.17a2.7,2.7,0,0,0,1.37-.374,2.259,2.259,0,0,0,.938-.971V-4.358h-1.2q-2.822,0-2.822,1.652a1.4,1.4,0,0,0,.481,1.129A1.85,1.85,0,0,0,52.112-1.17Zm9.853.083a2.212,2.212,0,0,0,1.436-.5,1.752,1.752,0,0,0,.681-1.245h1.453A2.785,2.785,0,0,1,65-1.361,3.5,3.5,0,0,1,63.7-.249a3.772,3.772,0,0,1-1.731.415,3.7,3.7,0,0,1-2.918-1.224,4.877,4.877,0,0,1-1.083-3.349v-.257A5.407,5.407,0,0,1,58.446-7a3.667,3.667,0,0,1,1.382-1.585,3.926,3.926,0,0,1,2.129-.564,3.6,3.6,0,0,1,2.511.9,3.234,3.234,0,0,1,1.067,2.349H64.082a2.116,2.116,0,0,0-.66-1.432,2.053,2.053,0,0,0-1.465-.56,2.149,2.149,0,0,0-1.814.843A3.957,3.957,0,0,0,59.5-4.607v.291a3.878,3.878,0,0,0,.639,2.391A2.16,2.16,0,0,0,61.965-1.087ZM68.93,0H67.394V-8.981H68.93ZM67.27-11.364a.917.917,0,0,1,.228-.631.857.857,0,0,1,.677-.257.87.87,0,0,1,.681.257.907.907,0,0,1,.232.631.877.877,0,0,1-.232.623.886.886,0,0,1-.681.249.872.872,0,0,1-.677-.249A.886.886,0,0,1,67.27-11.364Zm3.71,6.79A5.3,5.3,0,0,1,71.5-6.948a3.87,3.87,0,0,1,1.444-1.627,3.932,3.932,0,0,1,2.113-.573,3.788,3.788,0,0,1,2.968,1.27A4.886,4.886,0,0,1,79.156-4.5v.108a5.351,5.351,0,0,1-.5,2.353A3.813,3.813,0,0,1,77.218-.415a3.977,3.977,0,0,1-2.146.581A3.778,3.778,0,0,1,72.113-1.1,4.861,4.861,0,0,1,70.98-4.466Zm1.544.183a3.842,3.842,0,0,0,.693,2.4,2.218,2.218,0,0,0,1.855.9A2.2,2.2,0,0,0,76.932-2a4.2,4.2,0,0,0,.689-2.569,3.836,3.836,0,0,0-.7-2.395,2.23,2.23,0,0,0-1.864-.917,2.205,2.205,0,0,0-1.834.9A4.17,4.17,0,0,0,72.524-4.391Zm3.229-8.342h1.859l-2.225,2.44-1.237,0Zm6.782,3.752.05,1.129a3.273,3.273,0,0,1,2.689-1.295q2.847,0,2.872,3.212V0H86.61V-5.943a2.068,2.068,0,0,0-.444-1.436,1.78,1.78,0,0,0-1.357-.465,2.216,2.216,0,0,0-1.312.4,2.706,2.706,0,0,0-.88,1.046V0H81.082V-8.981ZM94.3-4.565a5.261,5.261,0,0,1,.979-3.324,3.1,3.1,0,0,1,2.565-1.258,3.115,3.115,0,0,1,2.5,1.079V-12.75h1.536V0h-1.411l-.075-.963A3.127,3.127,0,0,1,97.825.166a3.068,3.068,0,0,1-2.544-1.278A5.321,5.321,0,0,1,94.3-4.449Zm1.536.174A3.984,3.984,0,0,0,96.463-2a2.039,2.039,0,0,0,1.743.863,2.24,2.24,0,0,0,2.133-1.312V-6.574a2.257,2.257,0,0,0-2.117-1.27,2.049,2.049,0,0,0-1.76.872A4.386,4.386,0,0,0,95.833-4.391ZM107.985.166a3.924,3.924,0,0,1-2.972-1.2,4.452,4.452,0,0,1-1.146-3.208v-.282a5.39,5.39,0,0,1,.51-2.386,3.982,3.982,0,0,1,1.428-1.644,3.59,3.59,0,0,1,1.988-.594,3.364,3.364,0,0,1,2.723,1.154,5,5,0,0,1,.971,3.3v.639H105.4a3.193,3.193,0,0,0,.776,2.146,2.44,2.44,0,0,0,1.888.818,2.675,2.675,0,0,0,1.378-.332,3.462,3.462,0,0,0,.988-.88l.938.73A3.772,3.772,0,0,1,107.985.166Zm-.191-8.052a2.048,2.048,0,0,0-1.561.677,3.288,3.288,0,0,0-.78,1.9h4.5v-.116a2.925,2.925,0,0,0-.631-1.814A1.928,1.928,0,0,0,107.794-7.886Zm13.281,6.8a2.212,2.212,0,0,0,1.436-.5,1.752,1.752,0,0,0,.681-1.245h1.453a2.785,2.785,0,0,1-.531,1.469,3.5,3.5,0,0,1-1.307,1.112,3.772,3.772,0,0,1-1.731.415,3.7,3.7,0,0,1-2.918-1.224,4.877,4.877,0,0,1-1.083-3.349v-.257A5.407,5.407,0,0,1,117.556-7a3.667,3.667,0,0,1,1.382-1.585,3.926,3.926,0,0,1,2.129-.564,3.6,3.6,0,0,1,2.511.9,3.234,3.234,0,0,1,1.067,2.349h-1.453a2.116,2.116,0,0,0-.66-1.432,2.053,2.053,0,0,0-1.465-.56,2.149,2.149,0,0,0-1.814.843,3.957,3.957,0,0,0-.643,2.436v.291a3.878,3.878,0,0,0,.639,2.391A2.16,2.16,0,0,0,121.075-1.087ZM130.1.166a3.924,3.924,0,0,1-2.972-1.2,4.452,4.452,0,0,1-1.146-3.208v-.282a5.39,5.39,0,0,1,.51-2.386,3.982,3.982,0,0,1,1.428-1.644,3.59,3.59,0,0,1,1.988-.594,3.364,3.364,0,0,1,2.723,1.154,5,5,0,0,1,.971,3.3v.639h-6.084a3.193,3.193,0,0,0,.776,2.146,2.44,2.44,0,0,0,1.888.818,2.675,2.675,0,0,0,1.378-.332,3.462,3.462,0,0,0,.988-.88l.938.73A3.772,3.772,0,0,1,130.1.166Zm-.191-8.052a2.048,2.048,0,0,0-1.561.677,3.288,3.288,0,0,0-.78,1.9h4.5v-.116a2.925,2.925,0,0,0-.631-1.814A1.928,1.928,0,0,0,129.907-7.886Zm9.812.282a4.6,4.6,0,0,0-.755-.058,2.024,2.024,0,0,0-2.05,1.287V0h-1.536V-8.981h1.494l.025,1.038a2.391,2.391,0,0,1,2.142-1.2,1.569,1.569,0,0,1,.681.116Zm4.856,6.516a2.212,2.212,0,0,0,1.436-.5,1.752,1.752,0,0,0,.681-1.245h1.453a2.785,2.785,0,0,1-.531,1.469,3.5,3.5,0,0,1-1.307,1.112,3.772,3.772,0,0,1-1.731.415,3.7,3.7,0,0,1-2.918-1.224,4.877,4.877,0,0,1-1.083-3.349v-.257A5.407,5.407,0,0,1,141.055-7a3.667,3.667,0,0,1,1.382-1.585,3.926,3.926,0,0,1,2.129-.564,3.6,3.6,0,0,1,2.511.9,3.234,3.234,0,0,1,1.067,2.349h-1.453a2.116,2.116,0,0,0-.66-1.432,2.053,2.053,0,0,0-1.465-.56,2.149,2.149,0,0,0-1.814.843,3.957,3.957,0,0,0-.643,2.436v.291a3.878,3.878,0,0,0,.639,2.391A2.16,2.16,0,0,0,144.575-1.087ZM155.416,0a3.226,3.226,0,0,1-.216-.946A3.426,3.426,0,0,1,152.643.166a3.17,3.17,0,0,1-2.179-.751,2.43,2.43,0,0,1-.851-1.905,2.539,2.539,0,0,1,1.067-2.179,5.029,5.029,0,0,1,3-.776h1.494v-.706a1.725,1.725,0,0,0-.481-1.282,1.935,1.935,0,0,0-1.419-.477A2.239,2.239,0,0,0,151.9-7.5a1.223,1.223,0,0,0-.556,1H149.8a2.119,2.119,0,0,1,.477-1.3,3.258,3.258,0,0,1,1.295-.992,4.356,4.356,0,0,1,1.8-.365,3.551,3.551,0,0,1,2.432.776,2.8,2.8,0,0,1,.913,2.137V-2.1a5.054,5.054,0,0,0,.315,1.967V0Zm-2.548-1.17a2.7,2.7,0,0,0,1.37-.374,2.259,2.259,0,0,0,.938-.971V-4.358h-1.2q-2.822,0-2.822,1.652a1.4,1.4,0,0,0,.481,1.129A1.85,1.85,0,0,0,152.867-1.17Zm11.48-1.212a1.13,1.13,0,0,0-.469-.967,4.514,4.514,0,0,0-1.635-.594,7.731,7.731,0,0,1-1.851-.6,2.633,2.633,0,0,1-1.013-.83,1.986,1.986,0,0,1-.328-1.146,2.33,2.33,0,0,1,.934-1.868,3.647,3.647,0,0,1,2.386-.764,3.753,3.753,0,0,1,2.478.789,2.5,2.5,0,0,1,.95,2.017h-1.544a1.386,1.386,0,0,0-.535-1.087,2.006,2.006,0,0,0-1.349-.457,2.1,2.1,0,0,0-1.312.365,1.15,1.15,0,0,0-.473.955.932.932,0,0,0,.44.838,5.413,5.413,0,0,0,1.59.54,8.283,8.283,0,0,1,1.864.614,2.718,2.718,0,0,1,1.058.859,2.112,2.112,0,0,1,.344,1.224,2.3,2.3,0,0,1-.963,1.93,4.039,4.039,0,0,1-2.5.726,4.523,4.523,0,0,1-1.909-.382,3.105,3.105,0,0,1-1.3-1.067,2.571,2.571,0,0,1-.469-1.482h1.536A1.59,1.59,0,0,0,160.9-1.54a2.4,2.4,0,0,0,1.523.452,2.476,2.476,0,0,0,1.4-.353A1.084,1.084,0,0,0,164.347-2.382Z" transform="translate(6242.5 -2719.453)" fill="#12263f"/>
    <path id="Path_190256" data-name="Path 190256" d="M4.964-5.387A7.494,7.494,0,0,1,1.98-6.836a2.768,2.768,0,0,1-.934-2.121,2.923,2.923,0,0,1,1.141-2.362,4.536,4.536,0,0,1,2.968-.934,4.951,4.951,0,0,1,2.22.481,3.651,3.651,0,0,1,1.511,1.328,3.4,3.4,0,0,1,.535,1.851h-1.6a2.21,2.21,0,0,0-.7-1.729,2.835,2.835,0,0,0-1.967-.629,2.9,2.9,0,0,0-1.839.52,1.734,1.734,0,0,0-.66,1.443,1.56,1.56,0,0,0,.627,1.252A6.147,6.147,0,0,0,5.416-6.8a9.9,9.9,0,0,1,2.357.935A3.577,3.577,0,0,1,9.035-4.673a3.04,3.04,0,0,1,.411,1.6A2.824,2.824,0,0,1,8.3-.718,4.884,4.884,0,0,1,5.238.166,5.681,5.681,0,0,1,2.914-.311,3.911,3.911,0,0,1,1.249-1.619,3.191,3.191,0,0,1,.664-3.5h1.6a2.082,2.082,0,0,0,.809,1.731,3.408,3.408,0,0,0,2.162.635,3.133,3.133,0,0,0,1.934-.515,1.672,1.672,0,0,0,.672-1.4,1.641,1.641,0,0,0-.623-1.374A7.178,7.178,0,0,0,4.964-5.387ZM12.916,0H11.38V-8.981h1.536Zm-1.66-11.364a.917.917,0,0,1,.228-.631.857.857,0,0,1,.677-.257.87.87,0,0,1,.681.257.907.907,0,0,1,.232.631.877.877,0,0,1-.232.623.886.886,0,0,1-.681.249.872.872,0,0,1-.677-.249A.886.886,0,0,1,11.256-11.364ZM19.1.166a3.924,3.924,0,0,1-2.972-1.2,4.452,4.452,0,0,1-1.146-3.208v-.282a5.39,5.39,0,0,1,.51-2.386,3.982,3.982,0,0,1,1.428-1.644,3.59,3.59,0,0,1,1.988-.594,3.364,3.364,0,0,1,2.723,1.154,5,5,0,0,1,.971,3.3v.639H16.519a3.193,3.193,0,0,0,.776,2.146,2.44,2.44,0,0,0,1.888.818,2.675,2.675,0,0,0,1.378-.332,3.462,3.462,0,0,0,.988-.88l.938.73A3.772,3.772,0,0,1,19.1.166Zm-.191-8.052a2.048,2.048,0,0,0-1.561.677,3.288,3.288,0,0,0-.78,1.9h4.5v-.116a2.925,2.925,0,0,0-.631-1.814A1.928,1.928,0,0,0,18.909-7.886Zm6.915-1.1.042,1A3.317,3.317,0,0,1,28.53-9.147,2.568,2.568,0,0,1,31.095-7.7a3.4,3.4,0,0,1,1.166-1.046,3.445,3.445,0,0,1,1.7-.4q2.955,0,3,3.129V0H35.428V-5.927a2.062,2.062,0,0,0-.44-1.44,1.937,1.937,0,0,0-1.478-.477,2.036,2.036,0,0,0-1.419.51,2.071,2.071,0,0,0-.656,1.374V0H29.891V-5.885a1.713,1.713,0,0,0-1.917-1.959,2.055,2.055,0,0,0-2.067,1.287V0H24.371V-8.981Zm21.059,4.59a5.34,5.34,0,0,1-.946,3.308A3.024,3.024,0,0,1,43.4.166a3.131,3.131,0,0,1-2.631-1.2L40.69,0H39.279V-12.75h1.536v4.756A3.113,3.113,0,0,1,43.38-9.147a3.042,3.042,0,0,1,2.569,1.237,5.5,5.5,0,0,1,.934,3.387Zm-1.536-.174a4.15,4.15,0,0,0-.606-2.424A2.006,2.006,0,0,0,43-7.844a2.255,2.255,0,0,0-2.183,1.411v3.885a2.318,2.318,0,0,0,2.2,1.411,2,2,0,0,0,1.718-.855A4.413,4.413,0,0,0,45.347-4.565ZM53.158-7.6a4.6,4.6,0,0,0-.755-.058,2.024,2.024,0,0,0-2.05,1.287V0H48.817V-8.981h1.494l.025,1.038a2.391,2.391,0,0,1,2.142-1.2,1.569,1.569,0,0,1,.681.116ZM59.782,0a3.226,3.226,0,0,1-.216-.946A3.426,3.426,0,0,1,57.01.166a3.17,3.17,0,0,1-2.179-.751A2.43,2.43,0,0,1,53.98-2.49a2.539,2.539,0,0,1,1.067-2.179,5.029,5.029,0,0,1,3-.776h1.494v-.706a1.725,1.725,0,0,0-.481-1.282,1.935,1.935,0,0,0-1.419-.477,2.239,2.239,0,0,0-1.378.415,1.223,1.223,0,0,0-.556,1H54.163a2.119,2.119,0,0,1,.477-1.3,3.258,3.258,0,0,1,1.295-.992,4.356,4.356,0,0,1,1.8-.365,3.551,3.551,0,0,1,2.432.776,2.8,2.8,0,0,1,.913,2.137V-2.1a5.054,5.054,0,0,0,.315,1.967V0ZM57.234-1.17a2.7,2.7,0,0,0,1.37-.374,2.259,2.259,0,0,0,.938-.971V-4.358h-1.2q-2.822,0-2.822,1.652A1.4,1.4,0,0,0,56-1.577,1.85,1.85,0,0,0,57.234-1.17Zm10.085-3.4A5.261,5.261,0,0,1,68.3-7.89a3.1,3.1,0,0,1,2.565-1.258,3.115,3.115,0,0,1,2.5,1.079V-12.75H74.9V0H73.487l-.075-.963A3.127,3.127,0,0,1,70.847.166,3.068,3.068,0,0,1,68.3-1.112a5.321,5.321,0,0,1-.984-3.337Zm1.536.174A3.984,3.984,0,0,0,69.486-2a2.039,2.039,0,0,0,1.743.863,2.24,2.24,0,0,0,2.133-1.312V-6.574a2.257,2.257,0,0,0-2.117-1.27,2.049,2.049,0,0,0-1.76.872A4.386,4.386,0,0,0,68.855-4.391ZM81.007.166a3.924,3.924,0,0,1-2.972-1.2A4.452,4.452,0,0,1,76.89-4.242v-.282A5.39,5.39,0,0,1,77.4-6.91a3.982,3.982,0,0,1,1.428-1.644,3.59,3.59,0,0,1,1.988-.594,3.364,3.364,0,0,1,2.723,1.154,5,5,0,0,1,.971,3.3v.639H78.426A3.193,3.193,0,0,0,79.2-1.905a2.44,2.44,0,0,0,1.888.818,2.675,2.675,0,0,0,1.378-.332,3.462,3.462,0,0,0,.988-.88l.938.73A3.772,3.772,0,0,1,81.007.166Zm-.191-8.052a2.048,2.048,0,0,0-1.561.677,3.288,3.288,0,0,0-.78,1.9h4.5v-.116a2.925,2.925,0,0,0-.631-1.814A1.928,1.928,0,0,0,80.816-7.886ZM98.1-4.391a5.34,5.34,0,0,1-.946,3.308A3.024,3.024,0,0,1,94.612.166a3.131,3.131,0,0,1-2.631-1.2L91.906,0H90.5V-12.75h1.536v4.756A3.113,3.113,0,0,1,94.6-9.147a3.042,3.042,0,0,1,2.569,1.237A5.5,5.5,0,0,1,98.1-4.524Zm-1.536-.174a4.15,4.15,0,0,0-.606-2.424,2.006,2.006,0,0,0-1.743-.855,2.255,2.255,0,0,0-2.183,1.411v3.885a2.318,2.318,0,0,0,2.2,1.411,2,2,0,0,0,1.718-.855A4.413,4.413,0,0,0,96.563-4.565ZM105.578,0a3.226,3.226,0,0,1-.216-.946A3.426,3.426,0,0,1,102.805.166a3.17,3.17,0,0,1-2.179-.751,2.43,2.43,0,0,1-.851-1.905,2.539,2.539,0,0,1,1.067-2.179,5.029,5.029,0,0,1,3-.776h1.494v-.706a1.725,1.725,0,0,0-.481-1.282,1.935,1.935,0,0,0-1.419-.477,2.239,2.239,0,0,0-1.378.415,1.223,1.223,0,0,0-.556,1H99.958a2.119,2.119,0,0,1,.477-1.3,3.258,3.258,0,0,1,1.295-.992,4.356,4.356,0,0,1,1.8-.365,3.551,3.551,0,0,1,2.432.776,2.8,2.8,0,0,1,.913,2.137V-2.1a5.054,5.054,0,0,0,.315,1.967V0Zm-2.548-1.17a2.7,2.7,0,0,0,1.37-.374,2.259,2.259,0,0,0,.938-.971V-4.358h-1.2q-2.822,0-2.822,1.652a1.4,1.4,0,0,0,.481,1.129A1.85,1.85,0,0,0,103.029-1.17ZM113.621-7.6a4.6,4.6,0,0,0-.755-.058,2.024,2.024,0,0,0-2.05,1.287V0H109.28V-8.981h1.494l.025,1.038a2.391,2.391,0,0,1,2.142-1.2,1.569,1.569,0,0,1,.681.116Zm5.752,0a4.6,4.6,0,0,0-.755-.058,2.024,2.024,0,0,0-2.05,1.287V0h-1.536V-8.981h1.494l.025,1.038a2.391,2.391,0,0,1,2.142-1.2,1.569,1.569,0,0,1,.681.116Zm4.98,7.77a3.924,3.924,0,0,1-2.972-1.2,4.452,4.452,0,0,1-1.146-3.208v-.282a5.39,5.39,0,0,1,.51-2.386,3.982,3.982,0,0,1,1.428-1.644,3.59,3.59,0,0,1,1.988-.594,3.364,3.364,0,0,1,2.723,1.154,5,5,0,0,1,.971,3.3v.639h-6.084a3.193,3.193,0,0,0,.776,2.146,2.44,2.44,0,0,0,1.888.818,2.675,2.675,0,0,0,1.378-.332,3.462,3.462,0,0,0,.988-.88l.938.73A3.772,3.772,0,0,1,124.354.166Zm-.191-8.052a2.048,2.048,0,0,0-1.561.677,3.288,3.288,0,0,0-.78,1.9h4.5v-.116a2.925,2.925,0,0,0-.631-1.814A1.928,1.928,0,0,0,124.163-7.886Zm9.812.282a4.6,4.6,0,0,0-.755-.058,2.024,2.024,0,0,0-2.05,1.287V0h-1.536V-8.981h1.494l.025,1.038a2.391,2.391,0,0,1,2.142-1.2,1.569,1.569,0,0,1,.681.116ZM140.6,0a3.226,3.226,0,0,1-.216-.946A3.426,3.426,0,0,1,137.826.166a3.17,3.17,0,0,1-2.179-.751A2.43,2.43,0,0,1,134.8-2.49a2.539,2.539,0,0,1,1.067-2.179,5.029,5.029,0,0,1,3-.776h1.494v-.706a1.725,1.725,0,0,0-.481-1.282,1.935,1.935,0,0,0-1.419-.477,2.239,2.239,0,0,0-1.378.415,1.223,1.223,0,0,0-.556,1h-1.544a2.119,2.119,0,0,1,.477-1.3,3.258,3.258,0,0,1,1.295-.992,4.356,4.356,0,0,1,1.8-.365,3.551,3.551,0,0,1,2.432.776,2.8,2.8,0,0,1,.913,2.137V-2.1a5.054,5.054,0,0,0,.315,1.967V0ZM138.05-1.17a2.7,2.7,0,0,0,1.37-.374,2.259,2.259,0,0,0,.938-.971V-4.358h-1.2q-2.822,0-2.822,1.652a1.4,1.4,0,0,0,.481,1.129A1.85,1.85,0,0,0,138.05-1.17Zm11.48-1.212a1.13,1.13,0,0,0-.469-.967,4.514,4.514,0,0,0-1.635-.594,7.731,7.731,0,0,1-1.851-.6,2.633,2.633,0,0,1-1.013-.83,1.986,1.986,0,0,1-.328-1.146,2.33,2.33,0,0,1,.934-1.868,3.647,3.647,0,0,1,2.386-.764,3.753,3.753,0,0,1,2.478.789,2.5,2.5,0,0,1,.95,2.017h-1.544a1.386,1.386,0,0,0-.535-1.087,2.006,2.006,0,0,0-1.349-.457,2.1,2.1,0,0,0-1.312.365,1.15,1.15,0,0,0-.473.955.932.932,0,0,0,.44.838,5.413,5.413,0,0,0,1.59.54,8.283,8.283,0,0,1,1.864.614,2.718,2.718,0,0,1,1.058.859,2.112,2.112,0,0,1,.344,1.224A2.3,2.3,0,0,1,150.1-.56a4.039,4.039,0,0,1-2.5.726A4.523,4.523,0,0,1,145.7-.216a3.105,3.105,0,0,1-1.3-1.067,2.571,2.571,0,0,1-.469-1.482h1.536a1.59,1.59,0,0,0,.618,1.224,2.4,2.4,0,0,0,1.523.452A2.476,2.476,0,0,0,149-1.44,1.084,1.084,0,0,0,149.53-2.382Zm10.708.3,2.225-6.9h1.569L160.811,0h-1.17l-3.254-8.981h1.569ZM167.178,0h-1.536V-8.981h1.536Zm-1.66-11.364a.917.917,0,0,1,.228-.631.857.857,0,0,1,.677-.257.87.87,0,0,1,.681.257.907.907,0,0,1,.232.631.877.877,0,0,1-.232.623.886.886,0,0,1-.681.249.872.872,0,0,1-.677-.249A.886.886,0,0,1,165.518-11.364Zm7.081,9.28,2.225-6.9h1.569L173.171,0H172l-3.254-8.981h1.569ZM183.29,0a3.226,3.226,0,0,1-.216-.946A3.426,3.426,0,0,1,180.517.166a3.17,3.17,0,0,1-2.179-.751,2.43,2.43,0,0,1-.851-1.905,2.539,2.539,0,0,1,1.067-2.179,5.029,5.029,0,0,1,3-.776h1.494v-.706a1.725,1.725,0,0,0-.481-1.282,1.935,1.935,0,0,0-1.419-.477,2.239,2.239,0,0,0-1.378.415,1.223,1.223,0,0,0-.556,1H177.67a2.119,2.119,0,0,1,.477-1.3,3.258,3.258,0,0,1,1.295-.992,4.356,4.356,0,0,1,1.8-.365,3.551,3.551,0,0,1,2.432.776,2.8,2.8,0,0,1,.913,2.137V-2.1A5.054,5.054,0,0,0,184.9-.133V0Zm-2.548-1.17a2.7,2.7,0,0,0,1.37-.374,2.259,2.259,0,0,0,.938-.971V-4.358h-1.2q-2.822,0-2.822,1.652a1.4,1.4,0,0,0,.481,1.129A1.85,1.85,0,0,0,180.741-1.17Zm11.48-1.212a1.13,1.13,0,0,0-.469-.967,4.514,4.514,0,0,0-1.635-.594,7.731,7.731,0,0,1-1.851-.6,2.633,2.633,0,0,1-1.013-.83,1.986,1.986,0,0,1-.328-1.146,2.33,2.33,0,0,1,.934-1.868,3.647,3.647,0,0,1,2.386-.764,3.753,3.753,0,0,1,2.478.789,2.5,2.5,0,0,1,.95,2.017H192.13a1.386,1.386,0,0,0-.535-1.087,2.006,2.006,0,0,0-1.349-.457,2.1,2.1,0,0,0-1.312.365,1.15,1.15,0,0,0-.473.955.932.932,0,0,0,.44.838,5.413,5.413,0,0,0,1.59.54,8.283,8.283,0,0,1,1.864.614,2.718,2.718,0,0,1,1.058.859,2.112,2.112,0,0,1,.344,1.224,2.3,2.3,0,0,1-.963,1.93,4.039,4.039,0,0,1-2.5.726,4.523,4.523,0,0,1-1.909-.382,3.105,3.105,0,0,1-1.3-1.067,2.571,2.571,0,0,1-.469-1.482h1.536a1.59,1.59,0,0,0,.618,1.224,2.4,2.4,0,0,0,1.523.452,2.476,2.476,0,0,0,1.4-.353A1.084,1.084,0,0,0,192.221-2.382Z" transform="translate(6242.5 -2677.453)" fill="#12263f"/>
    <path id="Path_190257" data-name="Path 190257" d="M10.293-3.835A4.447,4.447,0,0,1,8.878-.876,4.638,4.638,0,0,1,5.711.166,4.259,4.259,0,0,1,2.279-1.37,6.178,6.178,0,0,1,.988-5.479V-6.641A6.886,6.886,0,0,1,1.59-9.6,4.5,4.5,0,0,1,3.3-11.567a4.75,4.75,0,0,1,2.557-.685A4.367,4.367,0,0,1,8.94-11.177,4.5,4.5,0,0,1,10.293-8.2h-1.6a3.472,3.472,0,0,0-.9-2.1,2.725,2.725,0,0,0-1.938-.649,2.851,2.851,0,0,0-2.395,1.13A5.187,5.187,0,0,0,2.59-6.6v1.171A5.332,5.332,0,0,0,3.412-2.3a2.655,2.655,0,0,0,2.3,1.163,3.067,3.067,0,0,0,2.038-.6,3.34,3.34,0,0,0,.942-2.1Zm1.527-.739a5.3,5.3,0,0,1,.519-2.374,3.87,3.87,0,0,1,1.444-1.627A3.932,3.932,0,0,1,15.9-9.147a3.788,3.788,0,0,1,2.968,1.27A4.886,4.886,0,0,1,20-4.5v.108a5.351,5.351,0,0,1-.5,2.353A3.813,3.813,0,0,1,18.058-.415a3.977,3.977,0,0,1-2.146.581A3.778,3.778,0,0,1,12.953-1.1,4.861,4.861,0,0,1,11.82-4.466Zm1.544.183a3.842,3.842,0,0,0,.693,2.4,2.218,2.218,0,0,0,1.855.9A2.2,2.2,0,0,0,17.772-2a4.2,4.2,0,0,0,.689-2.569,3.836,3.836,0,0,0-.7-2.395A2.23,2.23,0,0,0,15.9-7.886a2.205,2.205,0,0,0-1.834.9A4.17,4.17,0,0,0,13.364-4.391Zm10-4.59.042,1a3.317,3.317,0,0,1,2.665-1.162A2.568,2.568,0,0,1,28.638-7.7,3.4,3.4,0,0,1,29.8-8.749a3.445,3.445,0,0,1,1.7-.4q2.955,0,3,3.129V0H32.971V-5.927a2.062,2.062,0,0,0-.44-1.44,1.937,1.937,0,0,0-1.478-.477,2.036,2.036,0,0,0-1.419.51,2.071,2.071,0,0,0-.656,1.374V0H27.434V-5.885a1.713,1.713,0,0,0-1.917-1.959A2.055,2.055,0,0,0,23.45-6.558V0H21.914V-8.981Zm21.042,4.59a5.378,5.378,0,0,1-.938,3.3A3.006,3.006,0,0,1,40.931.166,3.294,3.294,0,0,1,38.358-.872V3.453H36.822V-8.981h1.4l.075,1a3.163,3.163,0,0,1,2.606-1.162,3.063,3.063,0,0,1,2.561,1.22,5.437,5.437,0,0,1,.942,3.4Zm-1.536-.174a3.968,3.968,0,0,0-.647-2.4,2.086,2.086,0,0,0-1.776-.88,2.257,2.257,0,0,0-2.092,1.237v4.292a2.262,2.262,0,0,0,2.108,1.229,2.076,2.076,0,0,0,1.756-.876A4.332,4.332,0,0,0,42.874-4.565ZM50.7-7.6a4.6,4.6,0,0,0-.755-.058A2.024,2.024,0,0,0,47.9-6.375V0H46.36V-8.981h1.494l.025,1.038a2.391,2.391,0,0,1,2.142-1.2,1.569,1.569,0,0,1,.681.116ZM57.325,0a3.226,3.226,0,0,1-.216-.946A3.426,3.426,0,0,1,54.553.166a3.17,3.17,0,0,1-2.179-.751,2.43,2.43,0,0,1-.851-1.905A2.539,2.539,0,0,1,52.59-4.669a5.029,5.029,0,0,1,3-.776h1.494v-.706A1.725,1.725,0,0,0,56.6-7.433a1.935,1.935,0,0,0-1.419-.477,2.239,2.239,0,0,0-1.378.415,1.223,1.223,0,0,0-.556,1H51.706a2.119,2.119,0,0,1,.477-1.3,3.258,3.258,0,0,1,1.295-.992,4.356,4.356,0,0,1,1.8-.365,3.551,3.551,0,0,1,2.432.776,2.8,2.8,0,0,1,.913,2.137V-2.1a5.054,5.054,0,0,0,.315,1.967V0ZM54.777-1.17a2.7,2.7,0,0,0,1.37-.374,2.259,2.259,0,0,0,.938-.971V-4.358h-1.2q-2.822,0-2.822,1.652a1.4,1.4,0,0,0,.481,1.129A1.85,1.85,0,0,0,54.777-1.17Zm10.085-3.4a5.261,5.261,0,0,1,.979-3.324,3.1,3.1,0,0,1,2.565-1.258,3.115,3.115,0,0,1,2.5,1.079V-12.75h1.536V0H71.03l-.075-.963A3.127,3.127,0,0,1,68.39.166a3.068,3.068,0,0,1-2.544-1.278,5.321,5.321,0,0,1-.984-3.337Zm1.536.174A3.984,3.984,0,0,0,67.029-2a2.039,2.039,0,0,0,1.743.863,2.24,2.24,0,0,0,2.133-1.312V-6.574a2.257,2.257,0,0,0-2.117-1.27,2.049,2.049,0,0,0-1.76.872A4.386,4.386,0,0,0,66.4-4.391ZM78.55.166a3.924,3.924,0,0,1-2.972-1.2,4.452,4.452,0,0,1-1.146-3.208v-.282a5.39,5.39,0,0,1,.51-2.386,3.982,3.982,0,0,1,1.428-1.644,3.59,3.59,0,0,1,1.988-.594,3.364,3.364,0,0,1,2.723,1.154,5,5,0,0,1,.971,3.3v.639H75.969a3.193,3.193,0,0,0,.776,2.146,2.44,2.44,0,0,0,1.888.818,2.675,2.675,0,0,0,1.378-.332A3.462,3.462,0,0,0,81-2.3l.938.73A3.772,3.772,0,0,1,78.55.166Zm-.191-8.052a2.048,2.048,0,0,0-1.561.677,3.288,3.288,0,0,0-.78,1.9h4.5v-.116a2.925,2.925,0,0,0-.631-1.814A1.928,1.928,0,0,0,78.359-7.886Zm11.131-1.1.05,1.129A3.273,3.273,0,0,1,92.23-9.147q2.847,0,2.872,3.212V0H93.566V-5.943a2.068,2.068,0,0,0-.444-1.436,1.78,1.78,0,0,0-1.357-.465,2.216,2.216,0,0,0-1.312.4,2.706,2.706,0,0,0-.88,1.046V0H88.038V-8.981Zm7.521,4.408a5.3,5.3,0,0,1,.519-2.374,3.87,3.87,0,0,1,1.444-1.627,3.932,3.932,0,0,1,2.113-.573,3.788,3.788,0,0,1,2.968,1.27A4.886,4.886,0,0,1,105.188-4.5v.108a5.351,5.351,0,0,1-.5,2.353,3.813,3.813,0,0,1-1.436,1.623A3.977,3.977,0,0,1,101.1.166,3.778,3.778,0,0,1,98.144-1.1a4.861,4.861,0,0,1-1.133-3.362Zm1.544.183a3.842,3.842,0,0,0,.693,2.4,2.218,2.218,0,0,0,1.855.9A2.2,2.2,0,0,0,102.963-2a4.2,4.2,0,0,0,.689-2.569,3.836,3.836,0,0,0-.7-2.395,2.23,2.23,0,0,0-1.864-.917,2.205,2.205,0,0,0-1.834.9A4.17,4.17,0,0,0,98.555-4.391Zm11.4,2.308,2.225-6.9h1.569L110.525,0h-1.17L106.1-8.981h1.569ZM116.892,0h-1.536V-8.981h1.536Zm-1.66-11.364a.917.917,0,0,1,.228-.631.857.857,0,0,1,.677-.257.87.87,0,0,1,.681.257.907.907,0,0,1,.232.631.877.877,0,0,1-.232.623.886.886,0,0,1-.681.249.872.872,0,0,1-.677-.249A.886.886,0,0,1,115.231-11.364ZM121.017,0h-1.536V-12.75h1.536Zm4.125,0h-1.536V-12.75h1.536Zm8,0a3.226,3.226,0,0,1-.216-.946A3.426,3.426,0,0,1,130.372.166a3.17,3.17,0,0,1-2.179-.751,2.43,2.43,0,0,1-.851-1.905,2.539,2.539,0,0,1,1.067-2.179,5.029,5.029,0,0,1,3-.776H132.9v-.706a1.725,1.725,0,0,0-.481-1.282A1.935,1.935,0,0,0,131-7.911a2.239,2.239,0,0,0-1.378.415,1.223,1.223,0,0,0-.556,1h-1.544A2.119,2.119,0,0,1,128-7.79a3.258,3.258,0,0,1,1.295-.992,4.356,4.356,0,0,1,1.8-.365,3.551,3.551,0,0,1,2.432.776,2.8,2.8,0,0,1,.913,2.137V-2.1a5.054,5.054,0,0,0,.315,1.967V0ZM130.6-1.17a2.7,2.7,0,0,0,1.37-.374,2.259,2.259,0,0,0,.938-.971V-4.358h-1.2q-2.822,0-2.822,1.652a1.4,1.4,0,0,0,.481,1.129A1.85,1.85,0,0,0,130.6-1.17Zm11.48-1.212a1.13,1.13,0,0,0-.469-.967,4.514,4.514,0,0,0-1.635-.594,7.731,7.731,0,0,1-1.851-.6,2.633,2.633,0,0,1-1.013-.83,1.986,1.986,0,0,1-.328-1.146,2.33,2.33,0,0,1,.934-1.868,3.647,3.647,0,0,1,2.386-.764,3.753,3.753,0,0,1,2.478.789,2.5,2.5,0,0,1,.95,2.017h-1.544a1.386,1.386,0,0,0-.535-1.087,2.006,2.006,0,0,0-1.349-.457,2.1,2.1,0,0,0-1.312.365,1.15,1.15,0,0,0-.473.955.932.932,0,0,0,.44.838,5.413,5.413,0,0,0,1.59.54,8.283,8.283,0,0,1,1.864.614,2.718,2.718,0,0,1,1.058.859,2.112,2.112,0,0,1,.344,1.224,2.3,2.3,0,0,1-.963,1.93,4.039,4.039,0,0,1-2.5.726,4.523,4.523,0,0,1-1.909-.382,3.105,3.105,0,0,1-1.3-1.067,2.571,2.571,0,0,1-.469-1.482h1.536a1.59,1.59,0,0,0,.618,1.224,2.4,2.4,0,0,0,1.523.452,2.476,2.476,0,0,0,1.4-.353A1.084,1.084,0,0,0,142.076-2.382Z" transform="translate(6242.5 -2635.453)" fill="#12263f"/>
    <path id="Path_190258" data-name="Path 190258" d="M5.835-4.889H3V0h-1.6V-12.086h4a4.736,4.736,0,0,1,3.142.93,3.345,3.345,0,0,1,1.1,2.706,3.254,3.254,0,0,1-.61,1.967,3.642,3.642,0,0,1-1.7,1.253L10.168-.1V0H8.458ZM3-6.192H5.445a2.762,2.762,0,0,0,1.888-.615,2.081,2.081,0,0,0,.7-1.647,2.191,2.191,0,0,0-.668-1.721,2.829,2.829,0,0,0-1.93-.607H3Zm8.226,1.619a5.3,5.3,0,0,1,.519-2.374,3.87,3.87,0,0,1,1.444-1.627A3.932,3.932,0,0,1,15.3-9.147a3.788,3.788,0,0,1,2.968,1.27A4.886,4.886,0,0,1,19.4-4.5v.108a5.351,5.351,0,0,1-.5,2.353A3.813,3.813,0,0,1,17.461-.415a3.977,3.977,0,0,1-2.146.581A3.778,3.778,0,0,1,12.356-1.1a4.861,4.861,0,0,1-1.133-3.362Zm1.544.183a3.842,3.842,0,0,0,.693,2.4,2.218,2.218,0,0,0,1.855.9A2.2,2.2,0,0,0,17.174-2a4.2,4.2,0,0,0,.689-2.569,3.836,3.836,0,0,0-.7-2.395A2.23,2.23,0,0,0,15.3-7.886a2.205,2.205,0,0,0-1.834.9A4.17,4.17,0,0,0,12.767-4.391Zm10.642-6.765v2.175h1.677v1.187H23.408v5.577a1.247,1.247,0,0,0,.224.81.943.943,0,0,0,.764.27,3.718,3.718,0,0,0,.73-.1V0a4.478,4.478,0,0,1-1.179.165A1.912,1.912,0,0,1,22.4-.457a2.675,2.675,0,0,1-.523-1.768v-5.57H20.237V-8.981h1.635v-2.175ZM32.423,0a3.226,3.226,0,0,1-.216-.946A3.426,3.426,0,0,1,29.65.166a3.17,3.17,0,0,1-2.179-.751,2.43,2.43,0,0,1-.851-1.905,2.539,2.539,0,0,1,1.067-2.179,5.029,5.029,0,0,1,3-.776h1.494v-.706A1.725,1.725,0,0,0,31.7-7.433a1.935,1.935,0,0,0-1.419-.477A2.239,2.239,0,0,0,28.9-7.5a1.223,1.223,0,0,0-.556,1H26.8a2.119,2.119,0,0,1,.477-1.3,3.258,3.258,0,0,1,1.295-.992,4.356,4.356,0,0,1,1.8-.365,3.551,3.551,0,0,1,2.432.776,2.8,2.8,0,0,1,.913,2.137V-2.1a5.054,5.054,0,0,0,.315,1.967V0ZM29.875-1.17a2.7,2.7,0,0,0,1.37-.374,2.259,2.259,0,0,0,.938-.971V-4.358h-1.2q-2.822,0-2.822,1.652a1.4,1.4,0,0,0,.481,1.129A1.85,1.85,0,0,0,29.875-1.17Zm9.853.083a2.212,2.212,0,0,0,1.436-.5,1.752,1.752,0,0,0,.681-1.245H43.3a2.785,2.785,0,0,1-.531,1.469A3.5,3.5,0,0,1,41.458-.249a3.772,3.772,0,0,1-1.731.415A3.7,3.7,0,0,1,36.81-1.058a4.877,4.877,0,0,1-1.083-3.349v-.257A5.407,5.407,0,0,1,36.208-7,3.667,3.667,0,0,1,37.59-8.583a3.926,3.926,0,0,1,2.129-.564,3.6,3.6,0,0,1,2.511.9A3.234,3.234,0,0,1,43.3-5.894H41.844a2.116,2.116,0,0,0-.66-1.432,2.053,2.053,0,0,0-1.465-.56,2.149,2.149,0,0,0-1.814.843,3.957,3.957,0,0,0-.643,2.436v.291A3.878,3.878,0,0,0,37.9-1.926,2.16,2.16,0,0,0,39.728-1.087ZM46.692,0H45.156V-8.981h1.536Zm-1.66-11.364a.917.917,0,0,1,.228-.631.857.857,0,0,1,.677-.257.87.87,0,0,1,.681.257.907.907,0,0,1,.232.631.877.877,0,0,1-.232.623.886.886,0,0,1-.681.249.872.872,0,0,1-.677-.249A.886.886,0,0,1,45.032-11.364Zm3.71,6.79a5.3,5.3,0,0,1,.519-2.374,3.87,3.87,0,0,1,1.444-1.627,3.932,3.932,0,0,1,2.113-.573,3.788,3.788,0,0,1,2.968,1.27A4.886,4.886,0,0,1,56.918-4.5v.108a5.351,5.351,0,0,1-.5,2.353A3.813,3.813,0,0,1,54.98-.415a3.977,3.977,0,0,1-2.146.581A3.778,3.778,0,0,1,49.875-1.1a4.861,4.861,0,0,1-1.133-3.362Zm1.544.183a3.842,3.842,0,0,0,.693,2.4,2.218,2.218,0,0,0,1.855.9A2.2,2.2,0,0,0,54.694-2a4.2,4.2,0,0,0,.689-2.569,3.836,3.836,0,0,0-.7-2.395,2.23,2.23,0,0,0-1.864-.917,2.205,2.205,0,0,0-1.834.9A4.17,4.17,0,0,0,50.286-4.391Zm3.229-8.342h1.859l-2.225,2.44-1.237,0ZM60.3-8.981l.05,1.129a3.273,3.273,0,0,1,2.689-1.295q2.847,0,2.872,3.212V0H64.373V-5.943a2.068,2.068,0,0,0-.444-1.436,1.78,1.78,0,0,0-1.357-.465,2.216,2.216,0,0,0-1.312.4A2.706,2.706,0,0,0,60.38-6.4V0H58.844V-8.981ZM72.059-4.565a5.261,5.261,0,0,1,.979-3.324A3.1,3.1,0,0,1,75.6-9.147a3.115,3.115,0,0,1,2.5,1.079V-12.75h1.536V0H78.227l-.075-.963A3.127,3.127,0,0,1,75.587.166a3.068,3.068,0,0,1-2.544-1.278,5.321,5.321,0,0,1-.984-3.337Zm1.536.174A3.984,3.984,0,0,0,74.226-2a2.039,2.039,0,0,0,1.743.863A2.24,2.24,0,0,0,78.1-2.449V-6.574a2.257,2.257,0,0,0-2.117-1.27,2.049,2.049,0,0,0-1.76.872A4.386,4.386,0,0,0,73.595-4.391ZM85.747.166a3.924,3.924,0,0,1-2.972-1.2A4.452,4.452,0,0,1,81.63-4.242v-.282a5.39,5.39,0,0,1,.51-2.386,3.982,3.982,0,0,1,1.428-1.644,3.59,3.59,0,0,1,1.988-.594,3.364,3.364,0,0,1,2.723,1.154,5,5,0,0,1,.971,3.3v.639H83.166a3.193,3.193,0,0,0,.776,2.146,2.44,2.44,0,0,0,1.888.818,2.675,2.675,0,0,0,1.378-.332A3.462,3.462,0,0,0,88.2-2.3l.938.73A3.772,3.772,0,0,1,85.747.166Zm-.191-8.052A2.048,2.048,0,0,0,84-7.209a3.288,3.288,0,0,0-.78,1.9h4.5v-.116a2.925,2.925,0,0,0-.631-1.814A1.928,1.928,0,0,0,85.556-7.886Zm17.266,3.495a5.378,5.378,0,0,1-.938,3.3A3.006,3.006,0,0,1,99.344.166,3.294,3.294,0,0,1,96.771-.872V3.453H95.235V-8.981h1.4l.075,1a3.163,3.163,0,0,1,2.606-1.162,3.063,3.063,0,0,1,2.561,1.22,5.437,5.437,0,0,1,.942,3.4Zm-1.536-.174a3.968,3.968,0,0,0-.647-2.4,2.086,2.086,0,0,0-1.776-.88,2.257,2.257,0,0,0-2.092,1.237v4.292a2.262,2.262,0,0,0,2.108,1.229,2.076,2.076,0,0,0,1.756-.876A4.332,4.332,0,0,0,101.286-4.565Zm3.08-.008a5.3,5.3,0,0,1,.519-2.374,3.87,3.87,0,0,1,1.444-1.627,3.932,3.932,0,0,1,2.113-.573,3.788,3.788,0,0,1,2.968,1.27A4.886,4.886,0,0,1,112.542-4.5v.108a5.351,5.351,0,0,1-.5,2.353A3.813,3.813,0,0,1,110.6-.415a3.977,3.977,0,0,1-2.146.581A3.778,3.778,0,0,1,105.5-1.1a4.861,4.861,0,0,1-1.133-3.362Zm1.544.183a3.842,3.842,0,0,0,.693,2.4,2.218,2.218,0,0,0,1.855.9A2.2,2.2,0,0,0,110.317-2a4.2,4.2,0,0,0,.689-2.569,3.836,3.836,0,0,0-.7-2.395,2.23,2.23,0,0,0-1.864-.917,2.205,2.205,0,0,0-1.834.9A4.17,4.17,0,0,0,105.91-4.391Zm10.642-6.765v2.175h1.677v1.187h-1.677v5.577a1.247,1.247,0,0,0,.224.81.943.943,0,0,0,.764.27,3.718,3.718,0,0,0,.73-.1V0a4.478,4.478,0,0,1-1.179.165,1.912,1.912,0,0,1-1.552-.623,2.675,2.675,0,0,1-.523-1.768v-5.57H113.38V-8.981h1.635v-2.175ZM124.362-7.6a4.6,4.6,0,0,0-.755-.058,2.024,2.024,0,0,0-2.05,1.287V0h-1.536V-8.981h1.494l.025,1.038a2.391,2.391,0,0,1,2.142-1.2,1.569,1.569,0,0,1,.681.116Zm4.98,7.77a3.924,3.924,0,0,1-2.972-1.2,4.452,4.452,0,0,1-1.146-3.208v-.282a5.39,5.39,0,0,1,.51-2.386,3.982,3.982,0,0,1,1.428-1.644,3.59,3.59,0,0,1,1.988-.594,3.364,3.364,0,0,1,2.723,1.154,5,5,0,0,1,.971,3.3v.639h-6.084a3.193,3.193,0,0,0,.776,2.146,2.44,2.44,0,0,0,1.888.818,2.675,2.675,0,0,0,1.378-.332,3.462,3.462,0,0,0,.988-.88l.938.73A3.772,3.772,0,0,1,129.343.166Zm-.191-8.052a2.048,2.048,0,0,0-1.561.677,3.288,3.288,0,0,0-.78,1.9h4.5v-.116a2.925,2.925,0,0,0-.631-1.814A1.928,1.928,0,0,0,129.152-7.886Zm9.812.282a4.6,4.6,0,0,0-.755-.058,2.024,2.024,0,0,0-2.05,1.287V0h-1.536V-8.981h1.494l.025,1.038a2.391,2.391,0,0,1,2.142-1.2,1.569,1.569,0,0,1,.681.116Zm.838,3.03a5.3,5.3,0,0,1,.519-2.374,3.87,3.87,0,0,1,1.444-1.627,3.932,3.932,0,0,1,2.113-.573,3.788,3.788,0,0,1,2.968,1.27A4.886,4.886,0,0,1,147.978-4.5v.108a5.351,5.351,0,0,1-.5,2.353A3.813,3.813,0,0,1,146.04-.415a3.977,3.977,0,0,1-2.146.581,3.778,3.778,0,0,1-2.959-1.27A4.861,4.861,0,0,1,139.8-4.466Zm1.544.183a3.842,3.842,0,0,0,.693,2.4,2.218,2.218,0,0,0,1.855.9A2.2,2.2,0,0,0,145.753-2a4.2,4.2,0,0,0,.689-2.569,3.836,3.836,0,0,0-.7-2.395,2.23,2.23,0,0,0-1.864-.917,2.205,2.205,0,0,0-1.834.9A4.17,4.17,0,0,0,141.346-4.391Zm13.788,2.009a1.13,1.13,0,0,0-.469-.967,4.514,4.514,0,0,0-1.635-.594,7.731,7.731,0,0,1-1.851-.6,2.633,2.633,0,0,1-1.013-.83,1.986,1.986,0,0,1-.328-1.146,2.33,2.33,0,0,1,.934-1.868,3.647,3.647,0,0,1,2.386-.764,3.753,3.753,0,0,1,2.478.789,2.5,2.5,0,0,1,.95,2.017h-1.544a1.386,1.386,0,0,0-.535-1.087,2.006,2.006,0,0,0-1.349-.457,2.1,2.1,0,0,0-1.312.365,1.15,1.15,0,0,0-.473.955.932.932,0,0,0,.44.838,5.413,5.413,0,0,0,1.59.54,8.283,8.283,0,0,1,1.864.614,2.718,2.718,0,0,1,1.058.859,2.112,2.112,0,0,1,.344,1.224,2.3,2.3,0,0,1-.963,1.93,4.039,4.039,0,0,1-2.5.726A4.523,4.523,0,0,1,151.3-.216,3.105,3.105,0,0,1,150-1.282a2.571,2.571,0,0,1-.469-1.482h1.536a1.59,1.59,0,0,0,.618,1.224,2.4,2.4,0,0,0,1.523.452,2.476,2.476,0,0,0,1.4-.353A1.084,1.084,0,0,0,155.133-2.382Z" transform="translate(6242.5 -2593.453)" fill="#12263f"/>
    <rect id="Rectangle_39461" data-name="Rectangle 39461" width="1030" height="5" transform="translate(6212.5 -2932.453)" fill="#78b62e"/>
    <rect id="Rectangle_39462" data-name="Rectangle 39462" width="1030" height="55" transform="translate(6212.5 -2927.453)" fill="#e8e8e8"/>
    <path id="Path_190251" data-name="Path 190251" d="M11.615-13.508v8.841a5.081,5.081,0,0,1-.64,2.6A4.147,4.147,0,0,1,9.138-.39a6.471,6.471,0,0,1-2.83.575,5.59,5.59,0,0,1-3.887-1.28A4.566,4.566,0,0,1,.974-4.6v-8.906H4.249v8.971Q4.3-2.319,6.309-2.319a1.993,1.993,0,0,0,1.531-.557,2.6,2.6,0,0,0,.52-1.809v-8.823Zm4.759,3.47.1,1.178a3.4,3.4,0,0,1,2.867-1.364,2.864,2.864,0,0,1,2.343.937,4.461,4.461,0,0,1,.8,2.82V0H19.353V-6.336a1.694,1.694,0,0,0-.306-1.118,1.416,1.416,0,0,0-1.113-.357,1.491,1.491,0,0,0-1.364.724V0H13.443V-10.038ZM27.517,0H24.381V-10.038h3.136ZM24.2-12.636a1.408,1.408,0,0,1,.482-1.1,1.813,1.813,0,0,1,1.252-.429,1.813,1.813,0,0,1,1.252.429,1.408,1.408,0,0,1,.482,1.1,1.408,1.408,0,0,1-.482,1.1,1.813,1.813,0,0,1-1.252.429,1.813,1.813,0,0,1-1.252-.429A1.408,1.408,0,0,1,24.2-12.636Zm4.852,7.542a6.132,6.132,0,0,1,1.03-3.757,3.39,3.39,0,0,1,2.876-1.373,2.883,2.883,0,0,1,2.264,1.058V-14.25h3.136V0H35.542l-.158-1.076A2.96,2.96,0,0,1,32.935.186,3.383,3.383,0,0,1,30.1-1.187,6.326,6.326,0,0,1,29.047-5.093Zm3.126.195q0,2.672,1.559,2.672A1.539,1.539,0,0,0,35.217-3.1V-6.921a1.5,1.5,0,0,0-1.466-.891q-1.447,0-1.568,2.338ZM45.784,0a3.53,3.53,0,0,1-.3-.9A2.907,2.907,0,0,1,43.075.186a3.562,3.562,0,0,1-2.412-.858A2.731,2.731,0,0,1,39.67-2.83,2.807,2.807,0,0,1,40.876-5.3a6.144,6.144,0,0,1,3.507-.835h.965v-.531q0-1.389-1.2-1.389a.978.978,0,0,0-1.113,1.1H39.911A2.8,2.8,0,0,1,41.15-9.316a5.2,5.2,0,0,1,3.159-.908,4.563,4.563,0,0,1,3.034.937,3.258,3.258,0,0,1,1.141,2.57v4.444A4.551,4.551,0,0,0,48.91-.158V0ZM43.826-2.041a1.744,1.744,0,0,0,.969-.25,1.57,1.57,0,0,0,.552-.566v-1.6h-.909q-1.633,0-1.633,1.466a.9.9,0,0,0,.288.691A1.041,1.041,0,0,0,43.826-2.041Zm5.993-3.052a6.132,6.132,0,0,1,1.03-3.757,3.39,3.39,0,0,1,2.876-1.373,2.883,2.883,0,0,1,2.264,1.058V-14.25h3.136V0H56.313l-.158-1.076A2.96,2.96,0,0,1,53.707.186a3.383,3.383,0,0,1-2.839-1.373A6.326,6.326,0,0,1,49.819-5.093Zm3.126.195q0,2.672,1.559,2.672A1.539,1.539,0,0,0,55.989-3.1V-6.921a1.5,1.5,0,0,0-1.466-.891q-1.447,0-1.568,2.338Z" transform="translate(6242.5 -2893.453)" fill="#12263f"/>
    <path id="Path_190259" data-name="Path 190259" d="M-20.934-13.508l3.015,9.4,3.006-9.4h4.286V0h-3.266V-3.154l.315-6.457L-16.843,0H-19L-22.27-9.621l.315,6.466V0h-3.256V-13.508ZM-3.845.186A5.16,5.16,0,0,1-7.584-1.192,4.757,4.757,0,0,1-9.013-4.778v-.26a6.165,6.165,0,0,1,.571-2.718A4.175,4.175,0,0,1-6.777-9.579a5.027,5.027,0,0,1,2.6-.645A4.345,4.345,0,0,1-.84-8.911,5.159,5.159,0,0,1,.385-5.251v1.215H-5.831A2.253,2.253,0,0,0-5.1-2.709a2.181,2.181,0,0,0,1.466.482A2.81,2.81,0,0,0-1.313-3.266L.116-1.577A3.994,3.994,0,0,1-1.54-.292,5.6,5.6,0,0,1-3.845.186Zm-.353-8q-1.373,0-1.633,1.818h3.154v-.241A1.549,1.549,0,0,0-3.057-7.4,1.514,1.514,0,0,0-4.2-7.812ZM6.9-2.82a.722.722,0,0,0-.417-.64,6.35,6.35,0,0,0-1.586-.5,7.234,7.234,0,0,1-1.93-.682A3.232,3.232,0,0,1,1.8-5.668a2.448,2.448,0,0,1-.4-1.382A2.774,2.774,0,0,1,2.547-9.328a4.7,4.7,0,0,1,2.987-.9,5.208,5.208,0,0,1,3.191.9A2.814,2.814,0,0,1,9.931-6.958H6.8q0-1.206-1.271-1.206A1.26,1.26,0,0,0,4.7-7.89a.847.847,0,0,0-.334.682.778.778,0,0,0,.408.677,3.857,3.857,0,0,0,1.3.427,11.264,11.264,0,0,1,1.573.4A2.857,2.857,0,0,1,9.913-2.913,2.629,2.629,0,0,1,8.693-.677,5.35,5.35,0,0,1,5.534.186a5.46,5.46,0,0,1-2.3-.464A3.847,3.847,0,0,1,1.656-1.54,2.857,2.857,0,0,1,1.09-3.219H4.012A1.208,1.208,0,0,0,4.476-2.2a1.908,1.908,0,0,0,1.141.32,1.5,1.5,0,0,0,.96-.26A.831.831,0,0,0,6.9-2.82ZM22.985,0H19.849V-9.982l-3.08.9v-2.375l5.928-2.05h.288Z" transform="translate(6659.5 -2893.453)" fill="#12263f"/>
    <path id="Path_190260" data-name="Path 190260" d="M-20.934-13.508l3.015,9.4,3.006-9.4h4.286V0h-3.266V-3.154l.315-6.457L-16.843,0H-19L-22.27-9.621l.315,6.466V0h-3.256V-13.508ZM-3.845.186A5.16,5.16,0,0,1-7.584-1.192,4.757,4.757,0,0,1-9.013-4.778v-.26a6.165,6.165,0,0,1,.571-2.718A4.175,4.175,0,0,1-6.777-9.579a5.027,5.027,0,0,1,2.6-.645A4.345,4.345,0,0,1-.84-8.911,5.159,5.159,0,0,1,.385-5.251v1.215H-5.831A2.253,2.253,0,0,0-5.1-2.709a2.181,2.181,0,0,0,1.466.482A2.81,2.81,0,0,0-1.313-3.266L.116-1.577A3.994,3.994,0,0,1-1.54-.292,5.6,5.6,0,0,1-3.845.186Zm-.353-8q-1.373,0-1.633,1.818h3.154v-.241A1.549,1.549,0,0,0-3.057-7.4,1.514,1.514,0,0,0-4.2-7.812ZM6.9-2.82a.722.722,0,0,0-.417-.64,6.35,6.35,0,0,0-1.586-.5,7.234,7.234,0,0,1-1.93-.682A3.232,3.232,0,0,1,1.8-5.668a2.448,2.448,0,0,1-.4-1.382A2.774,2.774,0,0,1,2.547-9.328a4.7,4.7,0,0,1,2.987-.9,5.208,5.208,0,0,1,3.191.9A2.814,2.814,0,0,1,9.931-6.958H6.8q0-1.206-1.271-1.206A1.26,1.26,0,0,0,4.7-7.89a.847.847,0,0,0-.334.682.778.778,0,0,0,.408.677,3.857,3.857,0,0,0,1.3.427,11.264,11.264,0,0,1,1.573.4A2.857,2.857,0,0,1,9.913-2.913,2.629,2.629,0,0,1,8.693-.677,5.35,5.35,0,0,1,5.534.186a5.46,5.46,0,0,1-2.3-.464A3.847,3.847,0,0,1,1.656-1.54,2.857,2.857,0,0,1,1.09-3.219H4.012A1.208,1.208,0,0,0,4.476-2.2a1.908,1.908,0,0,0,1.141.32,1.5,1.5,0,0,0,.96-.26A.831.831,0,0,0,6.9-2.82ZM25.48,0H16.054V-2.041L20.4-6.605a5.182,5.182,0,0,0,1.6-2.9,2.02,2.02,0,0,0-.38-1.327,1.358,1.358,0,0,0-1.1-.455,1.375,1.375,0,0,0-1.16.608,2.5,2.5,0,0,0-.445,1.517H15.776a4.436,4.436,0,0,1,.622-2.3,4.359,4.359,0,0,1,1.726-1.647,5.126,5.126,0,0,1,2.468-.594,5.042,5.042,0,0,1,3.372,1.011,3.61,3.61,0,0,1,1.183,2.9,4.217,4.217,0,0,1-.3,1.554,6.815,6.815,0,0,1-.923,1.586,23.253,23.253,0,0,1-2.018,2.222L20.164-2.412H25.48Z" transform="translate(6728.5 -2893.453)" fill="#12263f"/>
    <path id="Path_190261" data-name="Path 190261" d="M-20.934-13.508l3.015,9.4,3.006-9.4h4.286V0h-3.266V-3.154l.315-6.457L-16.843,0H-19L-22.27-9.621l.315,6.466V0h-3.256V-13.508ZM-3.845.186A5.16,5.16,0,0,1-7.584-1.192,4.757,4.757,0,0,1-9.013-4.778v-.26a6.165,6.165,0,0,1,.571-2.718A4.175,4.175,0,0,1-6.777-9.579a5.027,5.027,0,0,1,2.6-.645A4.345,4.345,0,0,1-.84-8.911,5.159,5.159,0,0,1,.385-5.251v1.215H-5.831A2.253,2.253,0,0,0-5.1-2.709a2.181,2.181,0,0,0,1.466.482A2.81,2.81,0,0,0-1.313-3.266L.116-1.577A3.994,3.994,0,0,1-1.54-.292,5.6,5.6,0,0,1-3.845.186Zm-.353-8q-1.373,0-1.633,1.818h3.154v-.241A1.549,1.549,0,0,0-3.057-7.4,1.514,1.514,0,0,0-4.2-7.812ZM6.9-2.82a.722.722,0,0,0-.417-.64,6.35,6.35,0,0,0-1.586-.5,7.234,7.234,0,0,1-1.93-.682A3.232,3.232,0,0,1,1.8-5.668a2.448,2.448,0,0,1-.4-1.382A2.774,2.774,0,0,1,2.547-9.328a4.7,4.7,0,0,1,2.987-.9,5.208,5.208,0,0,1,3.191.9A2.814,2.814,0,0,1,9.931-6.958H6.8q0-1.206-1.271-1.206A1.26,1.26,0,0,0,4.7-7.89a.847.847,0,0,0-.334.682.778.778,0,0,0,.408.677,3.857,3.857,0,0,0,1.3.427,11.264,11.264,0,0,1,1.573.4A2.857,2.857,0,0,1,9.913-2.913,2.629,2.629,0,0,1,8.693-.677,5.35,5.35,0,0,1,5.534.186a5.46,5.46,0,0,1-2.3-.464A3.847,3.847,0,0,1,1.656-1.54,2.857,2.857,0,0,1,1.09-3.219H4.012A1.208,1.208,0,0,0,4.476-2.2a1.908,1.908,0,0,0,1.141.32,1.5,1.5,0,0,0,.96-.26A.831.831,0,0,0,6.9-2.82ZM18.912-8.062h1.475A1.534,1.534,0,0,0,22.14-9.778a1.484,1.484,0,0,0-.417-1.09,1.583,1.583,0,0,0-1.178-.422,1.7,1.7,0,0,0-1.081.362,1.1,1.1,0,0,0-.459.9H15.878a3.2,3.2,0,0,1,.594-1.9,3.921,3.921,0,0,1,1.647-1.3,5.63,5.63,0,0,1,2.315-.469,5.532,5.532,0,0,1,3.544,1.03,3.423,3.423,0,0,1,1.29,2.83A2.853,2.853,0,0,1,24.733-8.2a3.8,3.8,0,0,1-1.554,1.257,3.632,3.632,0,0,1,1.688,1.183,3.115,3.115,0,0,1,.612,1.962A3.486,3.486,0,0,1,24.089-.9,5.776,5.776,0,0,1,20.433.186,5.99,5.99,0,0,1,17.97-.32a3.859,3.859,0,0,1-1.721-1.4,3.642,3.642,0,0,1-.584-2.036H18.81a1.408,1.408,0,0,0,.5,1.076,1.769,1.769,0,0,0,1.234.455,1.853,1.853,0,0,0,1.317-.459,1.535,1.535,0,0,0,.492-1.174,1.794,1.794,0,0,0-.51-1.447,2.133,2.133,0,0,0-1.41-.427H18.912Z" transform="translate(6796.5 -2893.453)" fill="#12263f"/>
    <path id="Path_190262" data-name="Path 190262" d="M-20.934-13.508l3.015,9.4,3.006-9.4h4.286V0h-3.266V-3.154l.315-6.457L-16.843,0H-19L-22.27-9.621l.315,6.466V0h-3.256V-13.508ZM-3.845.186A5.16,5.16,0,0,1-7.584-1.192,4.757,4.757,0,0,1-9.013-4.778v-.26a6.165,6.165,0,0,1,.571-2.718A4.175,4.175,0,0,1-6.777-9.579a5.027,5.027,0,0,1,2.6-.645A4.345,4.345,0,0,1-.84-8.911,5.159,5.159,0,0,1,.385-5.251v1.215H-5.831A2.253,2.253,0,0,0-5.1-2.709a2.181,2.181,0,0,0,1.466.482A2.81,2.81,0,0,0-1.313-3.266L.116-1.577A3.994,3.994,0,0,1-1.54-.292,5.6,5.6,0,0,1-3.845.186Zm-.353-8q-1.373,0-1.633,1.818h3.154v-.241A1.549,1.549,0,0,0-3.057-7.4,1.514,1.514,0,0,0-4.2-7.812ZM6.9-2.82a.722.722,0,0,0-.417-.64,6.35,6.35,0,0,0-1.586-.5,7.234,7.234,0,0,1-1.93-.682A3.232,3.232,0,0,1,1.8-5.668a2.448,2.448,0,0,1-.4-1.382A2.774,2.774,0,0,1,2.547-9.328a4.7,4.7,0,0,1,2.987-.9,5.208,5.208,0,0,1,3.191.9A2.814,2.814,0,0,1,9.931-6.958H6.8q0-1.206-1.271-1.206A1.26,1.26,0,0,0,4.7-7.89a.847.847,0,0,0-.334.682.778.778,0,0,0,.408.677,3.857,3.857,0,0,0,1.3.427,11.264,11.264,0,0,1,1.573.4A2.857,2.857,0,0,1,9.913-2.913,2.629,2.629,0,0,1,8.693-.677,5.35,5.35,0,0,1,5.534.186a5.46,5.46,0,0,1-2.3-.464A3.847,3.847,0,0,1,1.656-1.54,2.857,2.857,0,0,1,1.09-3.219H4.012A1.208,1.208,0,0,0,4.476-2.2a1.908,1.908,0,0,0,1.141.32,1.5,1.5,0,0,0,.96-.26A.831.831,0,0,0,6.9-2.82ZM24.311-5.279h1.373v2.412H24.311V0H21.185V-2.867H15.962l-.186-1.911,5.409-8.7v-.028h3.126Zm-5.557,0h2.431V-9.435l-.195.315Z" transform="translate(6865.5 -2893.453)" fill="#12263f"/>
    <path id="Path_190263" data-name="Path 190263" d="M-20.934-13.508l3.015,9.4,3.006-9.4h4.286V0h-3.266V-3.154l.315-6.457L-16.843,0H-19L-22.27-9.621l.315,6.466V0h-3.256V-13.508ZM-3.845.186A5.16,5.16,0,0,1-7.584-1.192,4.757,4.757,0,0,1-9.013-4.778v-.26a6.165,6.165,0,0,1,.571-2.718A4.175,4.175,0,0,1-6.777-9.579a5.027,5.027,0,0,1,2.6-.645A4.345,4.345,0,0,1-.84-8.911,5.159,5.159,0,0,1,.385-5.251v1.215H-5.831A2.253,2.253,0,0,0-5.1-2.709a2.181,2.181,0,0,0,1.466.482A2.81,2.81,0,0,0-1.313-3.266L.116-1.577A3.994,3.994,0,0,1-1.54-.292,5.6,5.6,0,0,1-3.845.186Zm-.353-8q-1.373,0-1.633,1.818h3.154v-.241A1.549,1.549,0,0,0-3.057-7.4,1.514,1.514,0,0,0-4.2-7.812ZM6.9-2.82a.722.722,0,0,0-.417-.64,6.35,6.35,0,0,0-1.586-.5,7.234,7.234,0,0,1-1.93-.682A3.232,3.232,0,0,1,1.8-5.668a2.448,2.448,0,0,1-.4-1.382A2.774,2.774,0,0,1,2.547-9.328a4.7,4.7,0,0,1,2.987-.9,5.208,5.208,0,0,1,3.191.9A2.814,2.814,0,0,1,9.931-6.958H6.8q0-1.206-1.271-1.206A1.26,1.26,0,0,0,4.7-7.89a.847.847,0,0,0-.334.682.778.778,0,0,0,.408.677,3.857,3.857,0,0,0,1.3.427,11.264,11.264,0,0,1,1.573.4A2.857,2.857,0,0,1,9.913-2.913,2.629,2.629,0,0,1,8.693-.677,5.35,5.35,0,0,1,5.534.186a5.46,5.46,0,0,1-2.3-.464A3.847,3.847,0,0,1,1.656-1.54,2.857,2.857,0,0,1,1.09-3.219H4.012A1.208,1.208,0,0,0,4.476-2.2a1.908,1.908,0,0,0,1.141.32,1.5,1.5,0,0,0,.96-.26A.831.831,0,0,0,6.9-2.82ZM16.24-6.6l.826-6.91h7.9V-11.1H19.608l-.306,2.7a3.688,3.688,0,0,1,.877-.345,4,4,0,0,1,1.062-.149A3.963,3.963,0,0,1,24.334-7.7a4.8,4.8,0,0,1,1.081,3.344A4.793,4.793,0,0,1,24.835-2,3.985,3.985,0,0,1,23.207-.38,5.14,5.14,0,0,1,20.73.186a5.531,5.531,0,0,1-2.384-.524A4.277,4.277,0,0,1,16.6-1.775a3.491,3.491,0,0,1-.622-2.062h3.136a1.774,1.774,0,0,0,.473,1.176,1.5,1.5,0,0,0,1.123.435q1.577,0,1.577-2.333,0-2.157-1.93-2.157a1.926,1.926,0,0,0-1.633.7Z" transform="translate(6934.5 -2893.453)" fill="#12263f"/>
    <path id="Path_190264" data-name="Path 190264" d="M-20.934-13.508l3.015,9.4,3.006-9.4h4.286V0h-3.266V-3.154l.315-6.457L-16.843,0H-19L-22.27-9.621l.315,6.466V0h-3.256V-13.508ZM-3.845.186A5.16,5.16,0,0,1-7.584-1.192,4.757,4.757,0,0,1-9.013-4.778v-.26a6.165,6.165,0,0,1,.571-2.718A4.175,4.175,0,0,1-6.777-9.579a5.027,5.027,0,0,1,2.6-.645A4.345,4.345,0,0,1-.84-8.911,5.159,5.159,0,0,1,.385-5.251v1.215H-5.831A2.253,2.253,0,0,0-5.1-2.709a2.181,2.181,0,0,0,1.466.482A2.81,2.81,0,0,0-1.313-3.266L.116-1.577A3.994,3.994,0,0,1-1.54-.292,5.6,5.6,0,0,1-3.845.186Zm-.353-8q-1.373,0-1.633,1.818h3.154v-.241A1.549,1.549,0,0,0-3.057-7.4,1.514,1.514,0,0,0-4.2-7.812ZM6.9-2.82a.722.722,0,0,0-.417-.64,6.35,6.35,0,0,0-1.586-.5,7.234,7.234,0,0,1-1.93-.682A3.232,3.232,0,0,1,1.8-5.668a2.448,2.448,0,0,1-.4-1.382A2.774,2.774,0,0,1,2.547-9.328a4.7,4.7,0,0,1,2.987-.9,5.208,5.208,0,0,1,3.191.9A2.814,2.814,0,0,1,9.931-6.958H6.8q0-1.206-1.271-1.206A1.26,1.26,0,0,0,4.7-7.89a.847.847,0,0,0-.334.682.778.778,0,0,0,.408.677,3.857,3.857,0,0,0,1.3.427,11.264,11.264,0,0,1,1.573.4A2.857,2.857,0,0,1,9.913-2.913,2.629,2.629,0,0,1,8.693-.677,5.35,5.35,0,0,1,5.534.186a5.46,5.46,0,0,1-2.3-.464A3.847,3.847,0,0,1,1.656-1.54,2.857,2.857,0,0,1,1.09-3.219H4.012A1.208,1.208,0,0,0,4.476-2.2a1.908,1.908,0,0,0,1.141.32,1.5,1.5,0,0,0,.96-.26A.831.831,0,0,0,6.9-2.82ZM23.606-13.7v2.458h-.139a4.694,4.694,0,0,0-2.881.84A3.545,3.545,0,0,0,19.2-8.071,3.656,3.656,0,0,1,21.871-9.11a3.41,3.41,0,0,1,2.792,1.28A5.164,5.164,0,0,1,25.7-4.472,4.729,4.729,0,0,1,25.1-2.106,4.336,4.336,0,0,1,23.4-.422a4.879,4.879,0,0,1-2.417.608,5.042,5.042,0,0,1-2.57-.654,4.5,4.5,0,0,1-1.763-1.869A6.156,6.156,0,0,1,16-5.14V-6.392a7.8,7.8,0,0,1,.9-3.753,6.49,6.49,0,0,1,2.556-2.612,7.307,7.307,0,0,1,3.683-.946Zm-2.82,7a1.794,1.794,0,0,0-1.039.286,1.821,1.821,0,0,0-.622.7v.933q0,2.55,1.772,2.55a1.439,1.439,0,0,0,1.192-.638,2.591,2.591,0,0,0,.478-1.6,2.543,2.543,0,0,0-.487-1.612A1.56,1.56,0,0,0,20.786-6.7Z" transform="translate(7002.5 -2893.453)" fill="#12263f"/>
    <path id="Path_190265" data-name="Path 190265" d="M-20.934-13.508l3.015,9.4,3.006-9.4h4.286V0h-3.266V-3.154l.315-6.457L-16.843,0H-19L-22.27-9.621l.315,6.466V0h-3.256V-13.508ZM-3.845.186A5.16,5.16,0,0,1-7.584-1.192,4.757,4.757,0,0,1-9.013-4.778v-.26a6.165,6.165,0,0,1,.571-2.718A4.175,4.175,0,0,1-6.777-9.579a5.027,5.027,0,0,1,2.6-.645A4.345,4.345,0,0,1-.84-8.911,5.159,5.159,0,0,1,.385-5.251v1.215H-5.831A2.253,2.253,0,0,0-5.1-2.709a2.181,2.181,0,0,0,1.466.482A2.81,2.81,0,0,0-1.313-3.266L.116-1.577A3.994,3.994,0,0,1-1.54-.292,5.6,5.6,0,0,1-3.845.186Zm-.353-8q-1.373,0-1.633,1.818h3.154v-.241A1.549,1.549,0,0,0-3.057-7.4,1.514,1.514,0,0,0-4.2-7.812ZM6.9-2.82a.722.722,0,0,0-.417-.64,6.35,6.35,0,0,0-1.586-.5,7.234,7.234,0,0,1-1.93-.682A3.232,3.232,0,0,1,1.8-5.668a2.448,2.448,0,0,1-.4-1.382A2.774,2.774,0,0,1,2.547-9.328a4.7,4.7,0,0,1,2.987-.9,5.208,5.208,0,0,1,3.191.9A2.814,2.814,0,0,1,9.931-6.958H6.8q0-1.206-1.271-1.206A1.26,1.26,0,0,0,4.7-7.89a.847.847,0,0,0-.334.682.778.778,0,0,0,.408.677,3.857,3.857,0,0,0,1.3.427,11.264,11.264,0,0,1,1.573.4A2.857,2.857,0,0,1,9.913-2.913,2.629,2.629,0,0,1,8.693-.677,5.35,5.35,0,0,1,5.534.186a5.46,5.46,0,0,1-2.3-.464A3.847,3.847,0,0,1,1.656-1.54,2.857,2.857,0,0,1,1.09-3.219H4.012A1.208,1.208,0,0,0,4.476-2.2a1.908,1.908,0,0,0,1.141.32,1.5,1.5,0,0,0,.96-.26A.831.831,0,0,0,6.9-2.82Zm18.545-9.018L20.4,0h-3.3L22.15-11.1H15.711v-2.412h9.732Z" transform="translate(7070.5 -2893.453)" fill="#12263f"/>
    <path id="Path_190266" data-name="Path 190266" d="M-20.934-13.508l3.015,9.4,3.006-9.4h4.286V0h-3.266V-3.154l.315-6.457L-16.843,0H-19L-22.27-9.621l.315,6.466V0h-3.256V-13.508ZM-3.845.186A5.16,5.16,0,0,1-7.584-1.192,4.757,4.757,0,0,1-9.013-4.778v-.26a6.165,6.165,0,0,1,.571-2.718A4.175,4.175,0,0,1-6.777-9.579a5.027,5.027,0,0,1,2.6-.645A4.345,4.345,0,0,1-.84-8.911,5.159,5.159,0,0,1,.385-5.251v1.215H-5.831A2.253,2.253,0,0,0-5.1-2.709a2.181,2.181,0,0,0,1.466.482A2.81,2.81,0,0,0-1.313-3.266L.116-1.577A3.994,3.994,0,0,1-1.54-.292,5.6,5.6,0,0,1-3.845.186Zm-.353-8q-1.373,0-1.633,1.818h3.154v-.241A1.549,1.549,0,0,0-3.057-7.4,1.514,1.514,0,0,0-4.2-7.812ZM6.9-2.82a.722.722,0,0,0-.417-.64,6.35,6.35,0,0,0-1.586-.5,7.234,7.234,0,0,1-1.93-.682A3.232,3.232,0,0,1,1.8-5.668a2.448,2.448,0,0,1-.4-1.382A2.774,2.774,0,0,1,2.547-9.328a4.7,4.7,0,0,1,2.987-.9,5.208,5.208,0,0,1,3.191.9A2.814,2.814,0,0,1,9.931-6.958H6.8q0-1.206-1.271-1.206A1.26,1.26,0,0,0,4.7-7.89a.847.847,0,0,0-.334.682.778.778,0,0,0,.408.677,3.857,3.857,0,0,0,1.3.427,11.264,11.264,0,0,1,1.573.4A2.857,2.857,0,0,1,9.913-2.913,2.629,2.629,0,0,1,8.693-.677,5.35,5.35,0,0,1,5.534.186a5.46,5.46,0,0,1-2.3-.464A3.847,3.847,0,0,1,1.656-1.54,2.857,2.857,0,0,1,1.09-3.219H4.012A1.208,1.208,0,0,0,4.476-2.2a1.908,1.908,0,0,0,1.141.32,1.5,1.5,0,0,0,.96-.26A.831.831,0,0,0,6.9-2.82ZM25.165-9.9a3.118,3.118,0,0,1-.487,1.735,3.547,3.547,0,0,1-1.341,1.206,3.9,3.9,0,0,1,1.531,1.294,3.34,3.34,0,0,1,.566,1.944A3.535,3.535,0,0,1,24.186-.863,5.182,5.182,0,0,1,20.749.186a5.276,5.276,0,0,1-3.47-1.053A3.51,3.51,0,0,1,16.008-3.72a3.382,3.382,0,0,1,.557-1.92,3.785,3.785,0,0,1,1.577-1.317,3.567,3.567,0,0,1-1.354-1.206A3.1,3.1,0,0,1,16.3-9.9a3.466,3.466,0,0,1,1.2-2.783A4.811,4.811,0,0,1,20.721-13.7a4.84,4.84,0,0,1,3.247,1.021A3.466,3.466,0,0,1,25.165-9.9ZM22.3-3.971a1.783,1.783,0,0,0-.431-1.285,1.5,1.5,0,0,0-1.136-.45,1.517,1.517,0,0,0-1.141.45,1.772,1.772,0,0,0-.436,1.285A1.787,1.787,0,0,0,19.594-2.7a1.512,1.512,0,0,0,1.155.469,1.453,1.453,0,0,0,1.123-.464A1.819,1.819,0,0,0,22.3-3.971Zm-1.577-7.32a1.155,1.155,0,0,0-.96.413,1.792,1.792,0,0,0-.329,1.146,1.9,1.9,0,0,0,.334,1.169,1.152,1.152,0,0,0,.983.445,1.105,1.105,0,0,0,.96-.445,1.959,1.959,0,0,0,.32-1.169,1.8,1.8,0,0,0-.329-1.141A1.171,1.171,0,0,0,20.721-11.291Z" transform="translate(7139.5 -2893.453)" fill="#12263f"/>
    <path id="Path_190267" data-name="Path 190267" d="M-20.934-13.508l3.015,9.4,3.006-9.4h4.286V0h-3.266V-3.154l.315-6.457L-16.843,0H-19L-22.27-9.621l.315,6.466V0h-3.256V-13.508ZM-3.845.186A5.16,5.16,0,0,1-7.584-1.192,4.757,4.757,0,0,1-9.013-4.778v-.26a6.165,6.165,0,0,1,.571-2.718A4.175,4.175,0,0,1-6.777-9.579a5.027,5.027,0,0,1,2.6-.645A4.345,4.345,0,0,1-.84-8.911,5.159,5.159,0,0,1,.385-5.251v1.215H-5.831A2.253,2.253,0,0,0-5.1-2.709a2.181,2.181,0,0,0,1.466.482A2.81,2.81,0,0,0-1.313-3.266L.116-1.577A3.994,3.994,0,0,1-1.54-.292,5.6,5.6,0,0,1-3.845.186Zm-.353-8q-1.373,0-1.633,1.818h3.154v-.241A1.549,1.549,0,0,0-3.057-7.4,1.514,1.514,0,0,0-4.2-7.812ZM6.9-2.82a.722.722,0,0,0-.417-.64,6.35,6.35,0,0,0-1.586-.5,7.234,7.234,0,0,1-1.93-.682A3.232,3.232,0,0,1,1.8-5.668a2.448,2.448,0,0,1-.4-1.382A2.774,2.774,0,0,1,2.547-9.328a4.7,4.7,0,0,1,2.987-.9,5.208,5.208,0,0,1,3.191.9A2.814,2.814,0,0,1,9.931-6.958H6.8q0-1.206-1.271-1.206A1.26,1.26,0,0,0,4.7-7.89a.847.847,0,0,0-.334.682.778.778,0,0,0,.408.677,3.857,3.857,0,0,0,1.3.427,11.264,11.264,0,0,1,1.573.4A2.857,2.857,0,0,1,9.913-2.913,2.629,2.629,0,0,1,8.693-.677,5.35,5.35,0,0,1,5.534.186a5.46,5.46,0,0,1-2.3-.464A3.847,3.847,0,0,1,1.656-1.54,2.857,2.857,0,0,1,1.09-3.219H4.012A1.208,1.208,0,0,0,4.476-2.2a1.908,1.908,0,0,0,1.141.32,1.5,1.5,0,0,0,.96-.26A.831.831,0,0,0,6.9-2.82Zm15.317-2.4a3.3,3.3,0,0,1-2.264.909,3.655,3.655,0,0,1-2.913-1.243,4.9,4.9,0,0,1-1.076-3.321,4.985,4.985,0,0,1,.6-2.412,4.525,4.525,0,0,1,1.693-1.763,4.616,4.616,0,0,1,2.407-.649,4.481,4.481,0,0,1,2.417.673,4.529,4.529,0,0,1,1.684,1.9,6.533,6.533,0,0,1,.622,2.834v1.2a8.12,8.12,0,0,1-.877,3.878A6.052,6.052,0,0,1,22.01-.7a7.813,7.813,0,0,1-3.785.881h-.195v-2.5l.594-.009Q21.853-2.486,22.215-5.223ZM20.8-6.568a1.522,1.522,0,0,0,1.466-.881v-1.3a3.377,3.377,0,0,0-.436-1.92,1.368,1.368,0,0,0-1.178-.622,1.293,1.293,0,0,0-1.1.705A3.132,3.132,0,0,0,19.1-8.878a2.809,2.809,0,0,0,.455,1.684A1.454,1.454,0,0,0,20.8-6.568Z" transform="translate(7208.5 -2893.453)" fill="#12263f"/>
    <path id="Line_358" data-name="Line 358" d="M1,1030.556H-1V-1H1Z" transform="translate(6212.5 -2830.453) rotate(-90)" fill="#e8e8e8"/>
    <path id="Line_359" data-name="Line 359" d="M1,1030.556H-1V-1H1Z" transform="translate(6212.5 -2788.453) rotate(-90)" fill="#e8e8e8"/>
    <path id="Line_360" data-name="Line 360" d="M1,1030.556H-1V-1H1Z" transform="translate(6212.5 -2746.453) rotate(-90)" fill="#e8e8e8"/>
    <path id="Line_361" data-name="Line 361" d="M1,1030.556H-1V-1H1Z" transform="translate(6212.5 -2704.453) rotate(-90)" fill="#e8e8e8"/>
    <path id="Line_362" data-name="Line 362" d="M1,1030.556H-1V-1H1Z" transform="translate(6212.5 -2662.453) rotate(-90)" fill="#e8e8e8"/>
    <path id="Line_363" data-name="Line 363" d="M1,1030.556H-1V-1H1Z" transform="translate(6212.5 -2620.453) rotate(-90)" fill="#e8e8e8"/>
    <path id="Line_366" data-name="Line 366" d="M1,1030.556H-1V-1H1Z" transform="translate(6212.5 -2578.453) rotate(-90)" fill="#e8e8e8"/>
  </g>
</svg>
