<svg xmlns="http://www.w3.org/2000/svg" width="52" height="52" viewBox="0 0 52 52">
  <g id="t5-c4" transform="translate(-11089 6329)">
    <circle id="Ellipse_5142" data-name="Ellipse 5142" cx="26" cy="26" r="26" transform="translate(11089 -6329)" fill="#3c6d9d"/>
    <path id="Path_190315" data-name="Path 190315" d="M15.322,14.888h1.59v2.793h-1.59V21H11.7V17.681H5.654l-.215-2.213L11.7,5.392V5.359h3.62Zm-6.435,0H11.7V10.075l-.226.365Zm11.913,2.6a2.061,2.061,0,0,1,1.429.51,1.781,1.781,0,0,1,0,2.61,2.254,2.254,0,0,1-2.863-.005,1.78,1.78,0,0,1,0-2.6A2.043,2.043,0,0,1,20.8,17.487Z" transform="translate(11102 -6317)" fill="#fff"/>
    <rect id="Rectangle_40158" data-name="Rectangle 40158" width="7" height="7" transform="translate(11120 -6302)" fill="#3c6d9d"/>
  </g>
</svg>
