<svg xmlns="http://www.w3.org/2000/svg" xmlns:xlink="http://www.w3.org/1999/xlink" width="400" height="290" viewBox="0 0 400 290">
  <defs>
    <clipPath id="clip-path">
      <circle id="Ellipse_5185" data-name="Ellipse 5185" cx="73.5" cy="73.5" r="73.5" transform="translate(1125 3885)" fill="#fff" stroke="#707070" stroke-width="1"/>
    </clipPath>
  </defs>
  <g id="t5-f3" transform="translate(-13017 8669)">
    <rect id="Rectangle_40145" data-name="Rectangle 40145" width="400" height="290" rx="20" transform="translate(13017 -8669)" fill="#e5f2d5"/>
    <path id="Path_190309" data-name="Path 190309" d="M66.472,18.078H61.3L60.4,21H56.374L62.11,5.359h3.545L71.435,21h-4.05Zm-4.265-2.911h3.362L63.883,9.742Zm20.475.107A7.009,7.009,0,0,1,81.462,19.6a3.909,3.909,0,0,1-3.292,1.617,3.351,3.351,0,0,1-2.632-1.171v5.425h-3.62V9.377H75.3l.107,1.074a3.351,3.351,0,0,1,2.739-1.289,3.941,3.941,0,0,1,3.341,1.584A7.1,7.1,0,0,1,82.682,15.1Zm-3.62-.226q0-3.094-1.8-3.094a1.7,1.7,0,0,0-1.719.924v4.576a1.759,1.759,0,0,0,1.74.967q1.729,0,1.783-2.986ZM88.1,21H84.465V4.5H88.1Zm6.048,0H90.513V9.377h3.631ZM90.3,6.369a1.63,1.63,0,0,1,.559-1.275,2.364,2.364,0,0,1,2.9,0,1.63,1.63,0,0,1,.559,1.275,1.63,1.63,0,0,1-.559,1.275,2.364,2.364,0,0,1-2.9,0A1.63,1.63,0,0,1,90.3,6.369Zm10.989,12.053a1.61,1.61,0,0,0,1.182-.414,1.517,1.517,0,0,0,.408-1.155h3.395a4.018,4.018,0,0,1-1.37,3.137,5.1,5.1,0,0,1-3.529,1.225,5.158,5.158,0,0,1-4-1.59,6.264,6.264,0,0,1-1.461-4.4v-.15a7.08,7.08,0,0,1,.65-3.11A4.732,4.732,0,0,1,98.44,9.887a5.589,5.589,0,0,1,2.9-.725,5.03,5.03,0,0,1,3.6,1.257,4.458,4.458,0,0,1,1.332,3.405h-3.395a1.987,1.987,0,0,0-.44-1.386,1.52,1.52,0,0,0-1.182-.483q-1.407,0-1.644,1.794a12.658,12.658,0,0,0-.075,1.568,4.972,4.972,0,0,0,.419,2.428A1.45,1.45,0,0,0,101.287,18.422ZM114.35,21a4.087,4.087,0,0,1-.344-1.042,3.366,3.366,0,0,1-2.793,1.257,4.124,4.124,0,0,1-2.793-.994,3.163,3.163,0,0,1-1.149-2.5,3.251,3.251,0,0,1,1.4-2.857,7.114,7.114,0,0,1,4.061-.967h1.117v-.615q0-1.608-1.386-1.608a1.133,1.133,0,0,0-1.289,1.274h-3.62a3.245,3.245,0,0,1,1.434-2.736,6.027,6.027,0,0,1,3.658-1.051,5.284,5.284,0,0,1,3.513,1.085,3.772,3.772,0,0,1,1.321,2.976v5.146a5.269,5.269,0,0,0,.494,2.449V21Zm-2.267-2.363a2.019,2.019,0,0,0,1.123-.29,1.818,1.818,0,0,0,.639-.655V15.833h-1.053q-1.891,0-1.891,1.7a1.036,1.036,0,0,0,.333.8A1.205,1.205,0,0,0,112.083,18.637Zm12.311-.215a1.61,1.61,0,0,0,1.182-.414,1.517,1.517,0,0,0,.408-1.155h3.395a4.018,4.018,0,0,1-1.37,3.137,5.1,5.1,0,0,1-3.529,1.225,5.158,5.158,0,0,1-4-1.59,6.264,6.264,0,0,1-1.461-4.4v-.15a7.08,7.08,0,0,1,.65-3.11,4.732,4.732,0,0,1,1.875-2.073,5.589,5.589,0,0,1,2.9-.725,5.03,5.03,0,0,1,3.6,1.257,4.458,4.458,0,0,1,1.332,3.405h-3.395a1.987,1.987,0,0,0-.44-1.386,1.52,1.52,0,0,0-1.182-.483q-1.407,0-1.644,1.794a12.658,12.658,0,0,0-.075,1.568,4.972,4.972,0,0,0,.419,2.428A1.45,1.45,0,0,0,124.394,18.422ZM134.728,21H131.1V9.377h3.631ZM130.882,6.369a1.63,1.63,0,0,1,.559-1.275,2.364,2.364,0,0,1,2.9,0,1.63,1.63,0,0,1,.559,1.275,1.63,1.63,0,0,1-.559,1.275,2.364,2.364,0,0,1-2.9,0A1.63,1.63,0,0,1,130.882,6.369Zm5.618,8.712a6.86,6.86,0,0,1,.677-3.1,4.84,4.84,0,0,1,1.944-2.089,5.856,5.856,0,0,1,2.976-.73,5.344,5.344,0,0,1,4.114,1.617,6.2,6.2,0,0,1,1.5,4.4v.129a6.019,6.019,0,0,1-1.509,4.313,5.359,5.359,0,0,1-4.087,1.6,5.42,5.42,0,0,1-3.985-1.488,5.819,5.819,0,0,1-1.622-4.034Zm3.62.226a4.325,4.325,0,0,0,.5,2.363,1.682,1.682,0,0,0,1.493.752q1.934,0,1.977-2.976v-.365q0-3.126-2-3.126-1.815,0-1.966,2.7ZM142.591,4.5h3.824l-2.986,3.373-2.954-.005Zm10.044,4.877.118,1.364a3.942,3.942,0,0,1,3.319-1.579,3.316,3.316,0,0,1,2.712,1.085,5.165,5.165,0,0,1,.929,3.266V21h-3.631V13.663a1.961,1.961,0,0,0-.354-1.294,1.64,1.64,0,0,0-1.289-.414,1.726,1.726,0,0,0-1.579.838V21h-3.62V9.377Zm14.1,5.726a7.1,7.1,0,0,1,1.192-4.351,3.925,3.925,0,0,1,3.33-1.59,3.338,3.338,0,0,1,2.621,1.225V4.5h3.631V21h-3.255l-.183-1.246a3.428,3.428,0,0,1-2.836,1.461,3.918,3.918,0,0,1-3.287-1.59A7.325,7.325,0,0,1,166.739,15.1Zm3.62.226q0,3.094,1.8,3.094a1.782,1.782,0,0,0,1.719-1.01V12.986a1.734,1.734,0,0,0-1.7-1.031q-1.676,0-1.815,2.707Zm14.835,5.887a5.975,5.975,0,0,1-4.329-1.6,5.509,5.509,0,0,1-1.654-4.152v-.3a7.138,7.138,0,0,1,.661-3.147A4.834,4.834,0,0,1,181.8,9.909a5.821,5.821,0,0,1,3.008-.747,5.031,5.031,0,0,1,3.867,1.52,5.973,5.973,0,0,1,1.418,4.238v1.407h-7.2a2.609,2.609,0,0,0,.849,1.536,2.525,2.525,0,0,0,1.7.559,3.254,3.254,0,0,0,2.686-1.2l1.654,1.955a4.624,4.624,0,0,1-1.917,1.488A6.48,6.48,0,0,1,185.194,21.215Zm-.408-9.26q-1.59,0-1.891,2.105h3.652v-.279a1.793,1.793,0,0,0-.44-1.348A1.753,1.753,0,0,0,184.786,11.955ZM196.57,15.1a7.1,7.1,0,0,1,1.192-4.351,3.925,3.925,0,0,1,3.33-1.59,3.338,3.338,0,0,1,2.621,1.225V4.5h3.631V21H204.09l-.183-1.246a3.428,3.428,0,0,1-2.836,1.461,3.918,3.918,0,0,1-3.287-1.59A7.325,7.325,0,0,1,196.57,15.1Zm3.62.226q0,3.094,1.8,3.094a1.782,1.782,0,0,0,1.719-1.01V12.986a1.734,1.734,0,0,0-1.7-1.031q-1.676,0-1.815,2.707Zm14.835,5.887a5.975,5.975,0,0,1-4.329-1.6,5.509,5.509,0,0,1-1.654-4.152v-.3a7.138,7.138,0,0,1,.661-3.147,4.834,4.834,0,0,1,1.928-2.111,5.821,5.821,0,0,1,3.008-.747,5.031,5.031,0,0,1,3.867,1.52,5.973,5.973,0,0,1,1.418,4.238v1.407h-7.2a2.609,2.609,0,0,0,.849,1.536,2.525,2.525,0,0,0,1.7.559,3.254,3.254,0,0,0,2.686-1.2l1.654,1.955a4.624,4.624,0,0,1-1.917,1.488A6.48,6.48,0,0,1,215.025,21.215Zm-.408-9.26q-1.59,0-1.891,2.105h3.652v-.279a1.793,1.793,0,0,0-.44-1.348A1.753,1.753,0,0,0,214.617,11.955ZM225.6,6.487v2.89h1.912v2.514H225.6v5.317a1.358,1.358,0,0,0,.236.913,1.268,1.268,0,0,0,.935.258,5.311,5.311,0,0,0,.9-.064V20.9a6.681,6.681,0,0,1-2.041.312,3.792,3.792,0,0,1-2.761-.881,3.61,3.61,0,0,1-.892-2.675V11.891h-1.482V9.377h1.482V6.487Zm8.959,14.728a5.975,5.975,0,0,1-4.329-1.6,5.509,5.509,0,0,1-1.654-4.152v-.3a7.138,7.138,0,0,1,.661-3.147,4.834,4.834,0,0,1,1.928-2.111,5.821,5.821,0,0,1,3.008-.747,5.031,5.031,0,0,1,3.867,1.52,5.973,5.973,0,0,1,1.418,4.238v1.407h-7.2a2.609,2.609,0,0,0,.849,1.536,2.525,2.525,0,0,0,1.7.559,3.254,3.254,0,0,0,2.686-1.2l1.654,1.955a4.624,4.624,0,0,1-1.917,1.488A6.48,6.48,0,0,1,234.555,21.215Zm-.408-9.26q-1.59,0-1.891,2.105h3.652v-.279a1.793,1.793,0,0,0-.44-1.348A1.753,1.753,0,0,0,234.146,11.955Zm13.793.7-1.192-.086a2.142,2.142,0,0,0-2.191,1.074V21h-3.62V9.377h3.395l.118,1.493a2.8,2.8,0,0,1,2.546-1.708,3.53,3.53,0,0,1,1.01.129Zm.677,2.449a7.848,7.848,0,0,1,.58-3.115A4.67,4.67,0,0,1,250.861,9.9a4.389,4.389,0,0,1,2.524-.736,3.49,3.49,0,0,1,2.836,1.225l.129-1.01h3.287V20.56a4.9,4.9,0,0,1-.714,2.669,4.584,4.584,0,0,1-2.068,1.74,7.6,7.6,0,0,1-3.137.607,6.557,6.557,0,0,1-2.476-.483,4.47,4.47,0,0,1-1.832-1.257l1.515-2.127A3.319,3.319,0,0,0,253.59,22.9,2.156,2.156,0,0,0,256,20.431v-.365a3.4,3.4,0,0,1-2.632,1.149,4.2,4.2,0,0,1-3.437-1.627,6.743,6.743,0,0,1-1.311-4.356Zm3.631.226a4.135,4.135,0,0,0,.537,2.261,1.7,1.7,0,0,0,1.5.833A1.923,1.923,0,0,0,256,17.638V12.75a1.875,1.875,0,0,0-1.687-.795,1.706,1.706,0,0,0-1.515.865A4.715,4.715,0,0,0,252.247,15.328Zm15.071,5.887a5.975,5.975,0,0,1-4.329-1.6,5.509,5.509,0,0,1-1.654-4.152v-.3A7.138,7.138,0,0,1,262,12.02a4.834,4.834,0,0,1,1.928-2.111,5.821,5.821,0,0,1,3.008-.747,5.031,5.031,0,0,1,3.867,1.52,5.973,5.973,0,0,1,1.418,4.238v1.407h-7.2a2.609,2.609,0,0,0,.849,1.536,2.525,2.525,0,0,0,1.7.559,3.254,3.254,0,0,0,2.686-1.2l1.654,1.955a4.624,4.624,0,0,1-1.917,1.488A6.48,6.48,0,0,1,267.318,21.215Zm-.408-9.26q-1.59,0-1.891,2.105h3.652v-.279a1.793,1.793,0,0,0-.44-1.348A1.753,1.753,0,0,0,266.91,11.955ZM277,9.377l.118,1.364a3.942,3.942,0,0,1,3.319-1.579,3.316,3.316,0,0,1,2.712,1.085,5.165,5.165,0,0,1,.929,3.266V21h-3.631V13.663a1.961,1.961,0,0,0-.354-1.294,1.64,1.64,0,0,0-1.289-.414,1.726,1.726,0,0,0-1.579.838V21H273.6V9.377Zm13.3-2.89v2.89h1.912v2.514H290.3v5.317a1.358,1.358,0,0,0,.236.913,1.268,1.268,0,0,0,.935.258,5.311,5.311,0,0,0,.9-.064V20.9a6.681,6.681,0,0,1-2.041.312,3.792,3.792,0,0,1-2.761-.881,3.61,3.61,0,0,1-.892-2.675V11.891h-1.482V9.377h1.482V6.487Zm8.959,14.728a5.975,5.975,0,0,1-4.329-1.6,5.509,5.509,0,0,1-1.654-4.152v-.3a7.138,7.138,0,0,1,.661-3.147,4.834,4.834,0,0,1,1.928-2.111,5.821,5.821,0,0,1,3.008-.747,5.031,5.031,0,0,1,3.867,1.52,5.973,5.973,0,0,1,1.418,4.238v1.407h-7.2a2.609,2.609,0,0,0,.849,1.536,2.525,2.525,0,0,0,1.7.559,3.254,3.254,0,0,0,2.686-1.2l1.654,1.955a4.624,4.624,0,0,1-1.917,1.488A6.48,6.48,0,0,1,299.255,21.215Zm-.408-9.26q-1.59,0-1.891,2.105h3.652v-.279a1.793,1.793,0,0,0-.44-1.348A1.753,1.753,0,0,0,298.847,11.955Z" transform="translate(13037 -8443)" fill="#12263f"/>
    <path id="Path_190283" data-name="Path 190283" d="M0,0H172V3H0Z" transform="translate(13131 -8471)" fill="#78b62e"/>
    <g id="Mask_Group_204" data-name="Mask Group 204" transform="translate(12019 -12528)" clip-path="url(#clip-path)">
      <g id="Recurso_1" data-name="Recurso 1" transform="translate(1125.908 3883.611)">
        <g id="Capa_2" data-name="Capa 2" transform="translate(0 0)">
          <g id="Capa_1" data-name="Capa 1">
            <path id="Path_190284" data-name="Path 190284" d="M0,0H146.359V139.664H0Z" fill="#faf4dc"/>
            <path id="Path_190285" data-name="Path 190285" d="M28.735,360.119H153.9a13.436,13.436,0,0,0,1.01-25.018,11.268,11.268,0,0,0-20.162-5.857,9.667,9.667,0,0,0-14.69-5.225,11.868,11.868,0,0,0-23,4.086,8.727,8.727,0,0,0-12.708-.7,11.4,11.4,0,0,0-22.773.718,13.177,13.177,0,0,0,.144,1.722,7.669,7.669,0,0,0-9.719.715A11.127,11.127,0,1,0,32.76,341.712a10.152,10.152,0,0,0-4.025,18.407Z" transform="translate(-16.498 -211.539)" fill="#fff"/>
            <path id="Path_190286" data-name="Path 190286" d="M114.383,263.451a8.881,8.881,0,1,1-8.882-8.881,8.881,8.881,0,0,1,8.882,8.881Z" transform="translate(-65.63 -170.931)" fill="#fff"/>
            <path id="Path_190287" data-name="Path 190287" d="M230.593,261.27a6.707,6.707,0,1,1-6.7-6.7A6.707,6.707,0,0,1,230.593,261.27Z" transform="translate(-147.521 -170.993)" fill="#fff"/>
            <path id="Path_190288" data-name="Path 190288" d="M268.677,211.637a4.834,4.834,0,1,1-4.837-4.827A4.834,4.834,0,0,1,268.677,211.637Z" transform="translate(-175.934 -138.954)" fill="#fff"/>
            <circle id="Ellipse_5184" data-name="Ellipse 5184" cx="4.83" cy="4.83" r="4.83" transform="translate(53.988 55.66)" fill="#fff"/>
            <path id="Path_190289" data-name="Path 190289" d="M333.871,244.4a11.916,11.916,0,1,1-11.915-11.912A11.916,11.916,0,0,1,333.871,244.4Z" transform="translate(-210.597 -156.02)" fill="#fff"/>
            <path id="Path_190290" data-name="Path 190290" d="M212.035,145.53a5.1,5.1,0,0,0-5.1-5.1h-9.1c-7.874,0-15.572,13.314-15.572,33.287V196.9a7.005,7.005,0,0,0,7,7.005h15.761a7,7,0,0,0,7-7.005Z" transform="translate(-123.808 -93.73)" fill="#fff"/>
            <path id="Trazado_190037_-_Contorno" data-name="Trazado 190037 - Contorno" d="M196.677,138.555h9.1a5.81,5.81,0,0,1,5.807,5.81v51.374a7.706,7.706,0,0,1-7.712,7.715H188.107a7.71,7.71,0,0,1-7.712-7.715V172.552a67.812,67.812,0,0,1,1.341-13.772A44.086,44.086,0,0,1,185.3,148.1a27.158,27.158,0,0,1,2.416-3.992,17.911,17.911,0,0,1,2.743-2.992,11.543,11.543,0,0,1,3.012-1.9A8.283,8.283,0,0,1,196.677,138.555Zm7.191,63.478a6.291,6.291,0,0,0,6.291-6.294V144.365a4.395,4.395,0,0,0-4.387-4.389h-9.1c-3.641,0-7.323,3.193-10.1,8.761-3.068,6.145-4.758,14.6-4.758,23.816v23.187a6.3,6.3,0,0,0,6.292,6.295Z" transform="translate(-122.643 -92.565)" fill="#411051"/>
            <path id="Path_190291" data-name="Path 190291" d="M217.944,171.164a3.284,3.284,0,0,0-3.284-3.284H208.8c-5.077,0-10.039,15.957-10.039,28.828v14.943a4.516,4.516,0,0,0,4.516,4.516h10.158a4.51,4.51,0,0,0,4.51-4.516Z" transform="translate(-135.009 -112.34)" fill="#82cac9"/>
            <path id="Trazado_190038_-_Contorno" data-name="Trazado 190038 - Contorno" d="M207.635,166h5.86A4,4,0,0,1,217.489,170v40.487a5.22,5.22,0,0,1-5.22,5.226H202.111a5.226,5.226,0,0,1-5.226-5.226V195.544a64.773,64.773,0,0,1,3.152-19.467,28.826,28.826,0,0,1,3.3-7.073C204.724,167.014,206.168,166,207.635,166Zm4.635,48.288a3.8,3.8,0,0,0,3.8-3.8V170a2.577,2.577,0,0,0-2.574-2.574h-5.86c-.96,0-2.041.826-3.127,2.389a27.438,27.438,0,0,0-3.123,6.713,63.271,63.271,0,0,0-3.079,19.015v14.943a3.81,3.81,0,0,0,3.806,3.806Z" transform="translate(-133.844 -111.175)" fill="#411051"/>
            <path id="Path_190292" data-name="Path 190292" d="M0,0H12.166V5.2H0Z" transform="translate(72.578 40.727)" fill="#f3a3c7"/>
            <path id="Trazado_190054_-_Contorno" data-name="Trazado 190054 - Contorno" d="M-1.875-1.875H11.712V4.748H-1.875ZM10.291-.454H-.454V3.327H10.291Z" transform="translate(73.742 41.891)" fill="#411051"/>
            <path id="Path_190293" data-name="Path 190293" d="M193.876,84.175s-1.341-5.132,4.247-5.132c3.426,0,4.1-2.848,2.527-4.763-1.677-2.043-3.275-4.211-4.811-6.008-1.248-1.469-2.544-3-5.773-3H162.35v6.89H172.5c5.549,0,11.579,2.3,11.579,12.015Z" transform="translate(-110.277 -44.335)" fill="#f3a3c7"/>
            <path id="Trazado_190039_-_Contorno" data-name="Trazado 190039 - Contorno" d="M192.711,83.72h-9.8a.71.71,0,0,1-.71-.71c0-7.5-3.657-11.3-10.868-11.3H161.185a.71.71,0,0,1-.71-.71v-6.89a.71.71,0,0,1,.71-.71H188.9a7.215,7.215,0,0,1,4.008,1.059,10.337,10.337,0,0,1,2.3,2.185l.006.008c.876,1.024,1.752,2.143,2.68,3.328.7.888,1.414,1.805,2.14,2.69a4.229,4.229,0,0,1,.909,1.935,3.337,3.337,0,0,1-.251,2.016,3.209,3.209,0,0,1-1.389,1.442,4.87,4.87,0,0,1-2.346.531,3.7,3.7,0,0,0-3.082,1.129,4.1,4.1,0,0,0-.477,3.114.708.708,0,0,1-.688.889Zm-9.1-1.421h8.269a4.454,4.454,0,0,1,5.074-5.132,2.5,2.5,0,0,0,2.451-1.16,2.361,2.361,0,0,0-.473-2.442c-.736-.9-1.46-1.821-2.16-2.715-.918-1.172-1.785-2.28-2.641-3.281l0,0-.007-.009c-1.2-1.411-2.33-2.743-5.225-2.743H161.9v5.469h9.441a16.532,16.532,0,0,1,4.337.536,10.729,10.729,0,0,1,3.981,1.986C182.153,74.837,183.484,78.029,183.615,82.3Z" transform="translate(-109.113 -43.17)" fill="#411051"/>
            <path id="Path_190294" data-name="Path 190294" d="M168.8,65.28H162.39v6.886H168.8Z" transform="translate(-110.304 -44.342)" fill="#7ccef4"/>
            <path id="Trazado_190041_-_Contorno" data-name="Trazado 190041 - Contorno" d="M161.225,63.4h6.415a.71.71,0,0,1,.71.71V71a.71.71,0,0,1-.71.71h-6.415a.71.71,0,0,1-.71-.71V64.115A.71.71,0,0,1,161.225,63.4Zm5.7,1.421h-4.994v5.466h4.994Z" transform="translate(-109.14 -43.177)" fill="#411051"/>
            <path id="Trazado_190055" data-name="Trazado 190055" d="M11.7,6.3a.707.707,0,0,1-.33-.082L-1.5-.536a.71.71,0,0,1-.3-.959.71.71,0,0,1,.959-.3L12.03,4.961A.71.71,0,0,1,11.7,6.3Z" transform="translate(38.336 17.144)" fill="#411051"/>
            <path id="Trazado_190057" data-name="Trazado 190057" d="M-1.164,6.3a.71.71,0,0,1-.63-.38.71.71,0,0,1,.3-.959L11.373-1.794a.71.71,0,0,1,.959.3.71.71,0,0,1-.3.959L-.835,6.222A.707.707,0,0,1-1.164,6.3Z" transform="translate(38.333 28.763)" fill="#411051"/>
            <path id="Trazado_190056" data-name="Trazado 190056" d="M11.376-.454H-1.165a.71.71,0,0,1-.71-.71.71.71,0,0,1,.71-.71H11.376a.71.71,0,0,1,.71.71A.71.71,0,0,1,11.376-.454Z" transform="translate(38.66 26.244)" fill="#411051"/>
            <path id="Path_190295" data-name="Path 190295" d="M165.278,254.181a2.938,2.938,0,0,0-4.144-.353l-7.7,6.447.019-.048s-1.148,1.206-1.944.548c-.6-.5,0-1.4.321-1.812L165.4,243.686a3.163,3.163,0,0,0-4.728-4.2l-14.231,16.037c-.449.449-1.238,1.087-1.783.683-.763-.568-.321-1.533-.035-2l14.344-19.751a3.162,3.162,0,1,0-5.116-3.718l-14.9,20.528c-.276.353-.725.8-1.1.532l-.208-.148c-.372-.263-.029-1.014.122-1.315L149.5,230.513a3.168,3.168,0,0,0-5.453-3.227l-13.343,22.131c-.754.908-3.025,3.207-4.612-.391a.522.522,0,0,0-.048-.087c-.488-1.636-.962-3.272-1.261-4.308-1.8-6.463-5.388-5.661-7.845-4.882,0,0,.908,4.561,1.354,6.736.228,1.1.641,2.81,1.116,4.7.183,1.283.407,3.05.735,5.376.388,6.861-4.49,9.943-.622,14.475L104.93,291.811l17.663,12.384L136.988,283.7c2.6,1.235,4.949-1.116,6.094-2.438,5.042-5.8,12.268-14.478,13.49-15.951l8.339-6.983A2.951,2.951,0,0,0,165.278,254.181Z" transform="translate(-71.274 -150.046)" fill="#ffb500"/>
            <path id="Trazado_190043_-_Contorno" data-name="Trazado 190043 - Contorno" d="M145.541,223.737a3.925,3.925,0,0,1,3.374,5.923l-11.732,19.8,0,.005L152,229.054a3.914,3.914,0,0,1,3.173-1.615,3.918,3.918,0,0,1,3.167,6.222l-14.324,19.725a1.844,1.844,0,0,0-.257.648c-.025.179.018.25.083.3a2.025,2.025,0,0,0,.813-.572l14.216-16.02.013-.015a3.918,3.918,0,0,1,5.858,5.2l-.013.015-13.55,15.257a1.7,1.7,0,0,0-.4.761.081.081,0,0,0,.045.01,1.74,1.74,0,0,0,.851-.51.754.754,0,0,1,.225-.162l7.516-6.294a3.7,3.7,0,0,1,2.382-.871h0c.1,0,.21,0,.313.013a3.694,3.694,0,0,1,2.513,1.3l0,0a3.707,3.707,0,0,1-.459,5.214l-8.288,6.94c-2.242,2.7-8.9,10.66-13.458,15.911a11.91,11.91,0,0,1-2.029,1.909,5.4,5.4,0,0,1-3.134,1.137,4.143,4.143,0,0,1-1.223-.185L121.973,303.39a.756.756,0,0,1-1.052.184L103.257,291.19a.756.756,0,0,1-.185-1.053l14.268-20.31a6.839,6.839,0,0,1-.942-1.673,5.6,5.6,0,0,1-.37-2.1,13.244,13.244,0,0,1,.927-4.012,16.77,16.77,0,0,0,1.2-6.644c-.176-1.253-.321-2.33-.448-3.282-.1-.776-.194-1.448-.276-2.022-.545-2.171-.91-3.706-1.114-4.691-.441-2.153-1.346-6.7-1.355-6.741a.756.756,0,0,1,.513-.868,9.674,9.674,0,0,1,2.928-.552,4.853,4.853,0,0,1,3.354,1.271,7.008,7.008,0,0,1,1.416,1.851,13.431,13.431,0,0,1,1.1,2.827c.244.846.723,2.5,1.231,4.209q.023.043.042.087c.3.686.8,1.5,1.442,1.5a2.971,2.971,0,0,0,1.861-1.248l13.311-22.078a3.922,3.922,0,0,1,3.379-1.924Zm-8.69,27.658a1.179,1.179,0,0,1-.68-.217l0,0-.208-.148a1.266,1.266,0,0,1-.436-1.426,3.748,3.748,0,0,1,.318-.844q.012-.024.026-.047l11.746-19.822a2.412,2.412,0,1,0-4.152-2.456l0,.005-13.343,22.131a.757.757,0,0,1-.066.093,4.378,4.378,0,0,1-3.059,1.836,2.411,2.411,0,0,1-1.584-.6,4.832,4.832,0,0,1-1.235-1.784.756.756,0,0,1-.088-.192c-.52-1.745-1.014-3.452-1.263-4.314l0-.007a8.3,8.3,0,0,0-2.078-3.965,3.34,3.34,0,0,0-2.34-.881,6.92,6.92,0,0,0-1.823.288c.27,1.353.88,4.409,1.218,6.057.2.969.563,2.5,1.109,4.667a.757.757,0,0,1,.015.078c.084.589.176,1.277.283,2.073.128.957.274,2.042.452,3.3q0,.031.006.063a14.848,14.848,0,0,1-.329,4.03,28.8,28.8,0,0,1-.945,3.216c-.911,2.683-1.512,4.456.472,6.781a.756.756,0,0,1,.044.925l-14.159,20.156L121.17,301.9l13.961-19.874a.756.756,0,0,1,.943-.248,2.7,2.7,0,0,0,1.178.275c1.217,0,2.569-.849,4.021-2.524,4.584-5.275,11.285-13.294,13.48-15.938a.757.757,0,0,1,.1-.1l8.339-6.983a2.2,2.2,0,0,0,.272-3.085,2.168,2.168,0,0,0-1.484-.769c-.061-.005-.124-.008-.185-.008a2.184,2.184,0,0,0-1.408.515l0,0-7.7,6.447a.758.758,0,0,1-.113.079,4.217,4.217,0,0,1-.357.284,2.443,2.443,0,0,1-1.394.511,1.593,1.593,0,0,1-1.027-.369,1.53,1.53,0,0,1-.42-1.764,3.879,3.879,0,0,1,.625-1.094l.032-.039,13.56-15.269a2.407,2.407,0,0,0-3.6-3.195l-14.224,16.029-.031.033a2.9,2.9,0,0,1-1.923,1.033,1.409,1.409,0,0,1-.845-.277,1.785,1.785,0,0,1-.71-1.748,3.4,3.4,0,0,1,.479-1.254q.016-.026.034-.051l14.344-19.751a2.407,2.407,0,0,0-1.944-3.822,2.416,2.416,0,0,0-1.95.992l-14.9,20.528-.016.021A1.932,1.932,0,0,1,136.851,251.394Z" transform="translate(-70.035 -148.807)" fill="#411051"/>
            <path id="Path_190296" data-name="Path 190296" d="M0,0H4.6V24.584H0Z" transform="matrix(0.571, -0.821, 0.821, 0.571, 31.115, 141.935)" fill="#f3a1c6"/>
            <path id="Path_190296_-_Outline" data-name="Path 190296 - Outline" d="M-1.992-1.992H6.6V26.576H-1.992Zm4.6,3.985H1.992v20.6h.618Z" transform="matrix(0.571, -0.821, 0.821, 0.571, 31.115, 141.935)" fill="#411051"/>
            <rect id="Rectangle_40147" data-name="Rectangle 40147" width="100.011" height="139.664" transform="translate(23.174)" fill="none"/>
            <path id="Path_190297" data-name="Path 190297" d="M313.839,182.542l-2.944-.882v-.029l-.872-3.041-.914,3.041h-.055l-3.044.872,3.037.911.837,2.922.885-2.951h.026v.029Z" transform="translate(-207.859 -120.011)" fill="#fff"/>
            <path id="Path_190298" data-name="Path 190298" d="M152.374,255.641l-1.363-.411v-.013l-.4-1.408-.423,1.408h-.026l-1.408.4,1.4.423.388,1.354.411-1.366h.013v.013Z" transform="translate(-101.039 -170.609)" fill="#fff"/>
            <path id="Path_190299" data-name="Path 190299" d="M264.633,257.843l-2.595-.779v-.022l-.767-2.681-.805,2.681h-.048l-2.678.767,2.672.8.738,2.576.779-2.6h.026v.026Z" transform="translate(-175.072 -170.939)" fill="#fff"/>
            <path id="Path_190300" data-name="Path 190300" d="M210.026,249.9l-1.382-.417v-.013l-.407-1.427-.43,1.427h-.026l-1.431.411,1.427.427.395,1.373.414-1.386h.013v.013Z" transform="translate(-140.165 -166.73)" fill="#fff"/>
            <path id="Path_190301" data-name="Path 190301" d="M151.875,170.021l-3.4-1.023v-.032l-1.007-3.515-1.055,3.515h-.064l-3.515,1.007,3.509,1.052.969,3.377,1.02-3.406h.035v.032Z" transform="translate(-97.018 -111.171)" fill="#fff"/>
            <path id="Path_190302" data-name="Path 190302" d="M114.659,211.437l-1.386-.417v-.013l-.407-1.427-.43,1.427h-.026l-1.431.411,1.427.427.395,1.373.414-1.386h.013v.016Z" transform="translate(-75.384 -140.878)" fill="#fff"/>
          </g>
        </g>
      </g>
    </g>
  </g>
</svg>
