<svg xmlns="http://www.w3.org/2000/svg" width="400" height="290" viewBox="0 0 400 290">
  <g id="t5-f1" transform="translate(-12177 8669)">
    <rect id="Rectangle_40148" data-name="Rectangle 40148" width="400" height="290" rx="20" transform="translate(12177 -8669)" fill="#e5f2d5"/>
    <path id="Path_190307" data-name="Path 190307" d="M99.1,18.1h6.563V21H95.331V5.359H99.1ZM110.907,21h-3.631V9.377h3.631ZM107.061,6.369a1.63,1.63,0,0,1,.559-1.275,2.364,2.364,0,0,1,2.9,0,1.63,1.63,0,0,1,.559,1.275,1.63,1.63,0,0,1-.559,1.275,2.364,2.364,0,0,1-2.9,0A1.63,1.63,0,0,1,107.061,6.369Zm9.5,3.008.118,1.364a4,4,0,0,1,3.319-1.579,2.942,2.942,0,0,1,2.976,1.751,3.868,3.868,0,0,1,3.416-1.751q3.534,0,3.631,4.275V21h-3.631V13.663a2.216,2.216,0,0,0-.3-1.3,1.28,1.28,0,0,0-1.1-.408,1.715,1.715,0,0,0-1.6.956l.011.15V21h-3.631V13.685a2.329,2.329,0,0,0-.29-1.321,1.277,1.277,0,0,0-1.106-.408,1.736,1.736,0,0,0-1.59.956V21h-3.62V9.377Zm26.318,5.9a7.009,7.009,0,0,1-1.219,4.324,3.909,3.909,0,0,1-3.292,1.617,3.351,3.351,0,0,1-2.632-1.171v5.425h-3.62V9.377H135.5l.107,1.074a3.351,3.351,0,0,1,2.739-1.289,3.941,3.941,0,0,1,3.341,1.584,7.1,7.1,0,0,1,1.192,4.356Zm-3.62-.226q0-3.094-1.8-3.094a1.7,1.7,0,0,0-1.719.924v4.576a1.759,1.759,0,0,0,1.74.967q1.729,0,1.783-2.986ZM148.29,21h-3.631V9.377h3.631ZM144.444,6.369A1.63,1.63,0,0,1,145,5.094a2.364,2.364,0,0,1,2.9,0,1.63,1.63,0,0,1,.559,1.275,1.63,1.63,0,0,1-.559,1.275,2.364,2.364,0,0,1-2.9,0A1.63,1.63,0,0,1,144.444,6.369Zm11.7,14.846a5.975,5.975,0,0,1-4.329-1.6,5.509,5.509,0,0,1-1.654-4.152v-.3a7.138,7.138,0,0,1,.661-3.147,4.834,4.834,0,0,1,1.928-2.111,5.821,5.821,0,0,1,3.008-.747,5.031,5.031,0,0,1,3.867,1.52,5.973,5.973,0,0,1,1.418,4.238v1.407h-7.2a2.609,2.609,0,0,0,.849,1.536,2.525,2.525,0,0,0,1.7.559,3.254,3.254,0,0,0,2.686-1.2l1.654,1.955a4.624,4.624,0,0,1-1.917,1.488A6.48,6.48,0,0,1,156.142,21.215Zm-.408-9.26q-1.59,0-1.891,2.105H157.5v-.279a1.793,1.793,0,0,0-.44-1.348A1.753,1.753,0,0,0,155.734,11.955Zm11.032,6.252h5.3V21H162.19V18.98l5.156-6.811h-4.931V9.377h9.528v1.955ZM180.366,21a4.088,4.088,0,0,1-.344-1.042,3.366,3.366,0,0,1-2.793,1.257,4.124,4.124,0,0,1-2.793-.994,3.163,3.163,0,0,1-1.149-2.5,3.251,3.251,0,0,1,1.4-2.857,7.114,7.114,0,0,1,4.061-.967h1.117v-.615q0-1.608-1.386-1.608a1.133,1.133,0,0,0-1.289,1.274h-3.62A3.245,3.245,0,0,1,175,10.214a6.027,6.027,0,0,1,3.658-1.051,5.284,5.284,0,0,1,3.513,1.085,3.772,3.772,0,0,1,1.321,2.976v5.146a5.269,5.269,0,0,0,.494,2.449V21ZM178.1,18.637a2.019,2.019,0,0,0,1.123-.29,1.818,1.818,0,0,0,.639-.655V15.833h-1.053q-1.891,0-1.891,1.7a1.036,1.036,0,0,0,.333.8A1.205,1.205,0,0,0,178.1,18.637Zm18.5,2.578a5.975,5.975,0,0,1-4.329-1.6,5.509,5.509,0,0,1-1.654-4.152v-.3a7.138,7.138,0,0,1,.661-3.147A4.834,4.834,0,0,1,193.2,9.909a5.821,5.821,0,0,1,3.008-.747,5.031,5.031,0,0,1,3.867,1.52A5.973,5.973,0,0,1,201.5,14.92v1.407h-7.2a2.609,2.609,0,0,0,.849,1.536,2.525,2.525,0,0,0,1.7.559,3.254,3.254,0,0,0,2.686-1.2l1.654,1.955a4.624,4.624,0,0,1-1.917,1.488A6.48,6.48,0,0,1,196.6,21.215Zm-.408-9.26q-1.59,0-1.891,2.105h3.652v-.279a1.793,1.793,0,0,0-.44-1.348A1.753,1.753,0,0,0,196.189,11.955Zm10.087-2.578.118,1.364a3.942,3.942,0,0,1,3.319-1.579,3.316,3.316,0,0,1,2.712,1.085,5.165,5.165,0,0,1,.929,3.266V21h-3.631V13.663a1.961,1.961,0,0,0-.354-1.294,1.64,1.64,0,0,0-1.289-.414,1.726,1.726,0,0,0-1.579.838V21h-3.62V9.377Zm20.646,8.357a.836.836,0,0,0-.483-.741,7.353,7.353,0,0,0-1.837-.58,8.376,8.376,0,0,1-2.234-.79,3.743,3.743,0,0,1-1.343-1.187,2.835,2.835,0,0,1-.462-1.6,3.212,3.212,0,0,1,1.321-2.637,5.443,5.443,0,0,1,3.459-1.037,6.03,6.03,0,0,1,3.7,1.042,3.258,3.258,0,0,1,1.4,2.739H226.8q0-1.4-1.472-1.4a1.459,1.459,0,0,0-.956.317.981.981,0,0,0-.387.79.9.9,0,0,0,.473.784,4.466,4.466,0,0,0,1.509.494,13.042,13.042,0,0,1,1.821.462q2.621.9,2.621,3.233A3.044,3.044,0,0,1,229,20.216a6.2,6.2,0,0,1-3.658,1,6.322,6.322,0,0,1-2.664-.537,4.455,4.455,0,0,1-1.826-1.461,3.308,3.308,0,0,1-.655-1.944h3.384a1.4,1.4,0,0,0,.537,1.176,2.209,2.209,0,0,0,1.321.371,1.738,1.738,0,0,0,1.112-.3A.962.962,0,0,0,226.922,17.734Zm10.807,3.48a5.975,5.975,0,0,1-4.329-1.6,5.509,5.509,0,0,1-1.654-4.152v-.3a7.138,7.138,0,0,1,.661-3.147,4.834,4.834,0,0,1,1.928-2.111,5.821,5.821,0,0,1,3.008-.747,5.031,5.031,0,0,1,3.867,1.52,5.973,5.973,0,0,1,1.418,4.238v1.407h-7.2a2.609,2.609,0,0,0,.849,1.536,2.525,2.525,0,0,0,1.7.559,3.254,3.254,0,0,0,2.686-1.2l1.654,1.955a4.624,4.624,0,0,1-1.917,1.488A6.48,6.48,0,0,1,237.729,21.215Zm-.408-9.26q-1.59,0-1.891,2.105h3.652v-.279a1.793,1.793,0,0,0-.44-1.348A1.753,1.753,0,0,0,237.321,11.955ZM249,18.422a1.61,1.61,0,0,0,1.182-.414,1.517,1.517,0,0,0,.408-1.155h3.395a4.018,4.018,0,0,1-1.37,3.137,5.1,5.1,0,0,1-3.529,1.225,5.158,5.158,0,0,1-4-1.59,6.264,6.264,0,0,1-1.461-4.4v-.15a7.08,7.08,0,0,1,.65-3.11,4.732,4.732,0,0,1,1.875-2.073,5.589,5.589,0,0,1,2.9-.725,5.03,5.03,0,0,1,3.6,1.257,4.458,4.458,0,0,1,1.332,3.405h-3.395a1.987,1.987,0,0,0-.44-1.386,1.52,1.52,0,0,0-1.182-.483q-1.407,0-1.644,1.794a12.659,12.659,0,0,0-.075,1.568,4.972,4.972,0,0,0,.419,2.428A1.45,1.45,0,0,0,249,18.422Zm6.059-3.341a6.86,6.86,0,0,1,.677-3.1,4.84,4.84,0,0,1,1.944-2.089,5.856,5.856,0,0,1,2.976-.73,5.344,5.344,0,0,1,4.114,1.617,6.2,6.2,0,0,1,1.5,4.4v.129a6.019,6.019,0,0,1-1.509,4.313,5.359,5.359,0,0,1-4.087,1.6,5.42,5.42,0,0,1-3.985-1.488,5.819,5.819,0,0,1-1.622-4.034Zm3.62.226a4.325,4.325,0,0,0,.5,2.363,1.682,1.682,0,0,0,1.493.752q1.934,0,1.977-2.976v-.365q0-3.126-2-3.126-1.815,0-1.966,2.7Z" transform="translate(12197 -8443)" fill="#12263f"/>
    <path id="Path_190304" data-name="Path 190304" d="M0,0H172V3H0Z" transform="translate(12291 -8471)" fill="#78b62e"/>
    <g id="Capa_2" data-name="Capa 2" transform="translate(12289.999 -8643.971)">
      <g id="Layer_2" data-name="Layer 2" transform="translate(0.001 -0.029)">
        <path id="Path_189992" data-name="Path 189992" d="M505.035,298.873a34.715,34.715,0,0,1,15.7,2.021c7.94,3.107,15.6,6.766,15.6,6.766l-21.063-19.045L500.51,287.37Z" transform="translate(-371.015 -213.012)" fill="#e0af24"/>
        <path id="Path_189993" data-name="Path 189993" d="M33.89,268.244s9.273,7.692,11.293,12.678S50.875,295.2,50.875,295.2l6.442-15.524L42.852,267.54Z" transform="translate(-25.122 -198.313)" fill="#e0af24"/>
        <path id="Path_189994" data-name="Path 189994" d="M280.949,370.1s-1.053-13.081,4.153-20.388A128.479,128.479,0,0,1,297.779,335.1l-14.768-3.265-7.151,19.133,5.1,19.146Z" transform="translate(-204.488 -245.969)" fill="#e0af24"/>
        <path id="Path_189995" data-name="Path 189995" d="M152.979,402.887s.626,1.612,10.108,0,14.923-5.34,14.923-5.34L174.5,386.51l-22.45,5.433.929,10.936Z" transform="translate(-112.711 -286.502)" fill="#e0af24"/>
        <path id="Path_189996" data-name="Path 189996" d="M76.958,130.087s-7.224,1.449-16.041-6.631c-1.9-1.741-1.765-4.856-2.463-7.371s-2.07-5.154-4.466-5.876c-5.312-1.6-9.493,7.226-14.9,6.044a8.131,8.131,0,0,1-3.736-2.385A35.769,35.769,0,0,1,25.322,94.835c-.776-4.233-.831-8.714-2.67-12.566-2.629-5.5-8.243-8.5-13.148-11.852S-.31,62.073.016,55.923c1.664,2.437,4.975,2.21,7.762,1.552a28.434,28.434,0,0,0,13.751-7.909c7.676-7.651,10.222-10.745,20.494-13.379,13.632-3.493,28.607-2.134,40.961-9.13,6.181-3.5,11.2-8.841,16.846-13.231A65.609,65.609,0,0,1,140.809-.022c3.71,3.692,8.854,5.335,12.91,8.6,5.4,4.339,8.463,11.26,9.718,18.276s.89,14.23.577,21.355a17.279,17.279,0,0,0,.29,5.118,20.525,20.525,0,0,0,2.893,5.542,48.594,48.594,0,0,1,4.01,42.377,63.177,63.177,0,0,0-34.928-22.639c-13.177-3.3-26.24-1.946-39.422.448-10.442,1.907-14.872,12.24-19.05,21.591C74.573,107.883,76.958,130.087,76.958,130.087Z" transform="translate(-0.001 0.029)" fill="#f7d926"/>
        <path id="Path_189997" data-name="Path 189997" d="M425.3,406.189a6.775,6.775,0,0,0,.82,2.328,5.678,5.678,0,0,0,1.664,1.294,27.206,27.206,0,0,0,4.173,2.171c4.072,1.552,8.74,1.175,13.138.448,5.663-.939,11.449-2.507,15.829-6.021a2.535,2.535,0,0,0,.828-.947,2.463,2.463,0,0,0,0-1.4c-2.96-14.1-6.01-28.46-13.4-41a15,15,0,0,0-2.8-3.718,12.62,12.62,0,0,0-7.731-2.846,18.07,18.07,0,0,0-13.094,4.776c-4.75,4.512-14.445,11.681-10.608,16.517C418.349,383.183,422.654,397.3,425.3,406.189Z" transform="translate(-306.321 -264.242)" fill="#f9c9a1"/>
        <path id="Path_189998" data-name="Path 189998" d="M243.688,136.074c6.688,11.146,14.941,21.56,19.146,33.857a66.3,66.3,0,0,0,3.146,8.647,12.6,12.6,0,0,0,6.375,6.354,4.9,4.9,0,0,0,3.935.034,4.483,4.483,0,0,0,2.16-3.863,11.927,11.927,0,0,0-.975-4.5c-5.208-14.23-14.044-26.84-23.852-38.377-2.028-2.385-4.256-5-7.094-6.442C242.858,129.9,241.888,133.07,243.688,136.074Z" transform="translate(-179.988 -97.257)" fill="#e0af24"/>
        <path id="Path_189999" data-name="Path 189999" d="M288.929,104.559a10.4,10.4,0,0,0,2.026,5.162l7.8,12.618c2.683,4.341,5.723,8.978,10.535,10.683a20.559,20.559,0,0,0,7.723.755q3.622-.155,7.211-.556c3.726-.414,7.762-1.216,10.165-4.1s2.419-7.185,1.035-10.672-3.956-6.349-6.468-9.13l-9.7-10.722c-.947-1.035-2.173-2.194-3.557-1.915A9.384,9.384,0,0,0,313.373,98c-1.552.833-3.493.448-5.1-.285a44.976,44.976,0,0,0-4.745-2.329,2.83,2.83,0,0,0-1.607-.142,5.262,5.262,0,0,0-1.824,1.384C297.128,99.211,288.867,99.361,288.929,104.559Z" transform="translate(-214.175 -70.555)" fill="#e0af24"/>
        <path id="Path_190000" data-name="Path 190000" d="M335.919,219.406a12.48,12.48,0,0,0-.647,7.977c.872,4.383,2.975,8.468,5.079,12.481,4.818,9.185,9.832,18.4,16.872,26.271,4.16,4.657,9.7,9.055,16.238,9.055a21.379,21.379,0,0,0,5.6-.885,16.7,16.7,0,0,0,6.621-3.151c2.587-2.253,3.7-5.583,4.318-8.812,2.367-12.326-.911-24.959-5.061-36.876-2.155-6.189-5.146-12.936-11.57-15.624-5.433-2.285-11.793-.97-17.518.613C350.027,212.055,338.775,213.628,335.919,219.406Z" transform="translate(-248.268 -154.631)" fill="#f9c9a1"/>
        <path id="Path_190001" data-name="Path 190001" d="M272.234,141.351c-3.927-3.516-6.947-9.172-9.619-12.517-6.109-7.627-12.861-14.7-19.6-21.769-1.6-1.677-3.6-3.5-5.889-3.149A2.214,2.214,0,0,0,235.43,105a2.91,2.91,0,0,0,.137,2.235c1.327,3.661,3.736,6.812,6.026,9.958q4.2,5.77,8.021,11.8c4.189,6.6,8.817,13.612,11.625,20.934.856,2.233,1.273,3.925,3.508,5.146,2.476,1.353,7.216,2.021,9.224-.554a4.866,4.866,0,0,0,.776-3.125C274.679,147.917,273.191,144.667,272.234,141.351Z" transform="translate(-174.389 -76.99)" fill="#f9c9a1"/>
        <path id="Path_190002" data-name="Path 190002" d="M377.65,246.81c.044.166.091.331.137.5.274.243.551.479.836.7C378.294,247.612,377.971,247.211,377.65,246.81Z" transform="translate(-279.942 -182.946)" fill="#f9c9a1"/>
        <path id="Path_190003" data-name="Path 190003" d="M288.692,79.326Q282.641,73.02,276.4,66.912c-1.193-1.169-2.517-2.4-4.176-2.587a2.45,2.45,0,0,0-2.269.8,2.951,2.951,0,0,0-.417,1.984c.259,3.775,2.748,6.965,5.076,9.945a256.49,256.49,0,0,1,15.707,22.509c2.16,3.467,4.773,7.043,5.974,10.97.083.259.171.538.259.8.349.38.7.755,1.056,1.128a9.442,9.442,0,0,0,8.137,1.684,4.968,4.968,0,0,0,2.771-1.723c1.221-1.7.613-4.062-.166-6C304.175,96.011,296.475,87.431,288.692,79.326Z" transform="translate(-199.792 -47.658)" fill="#f9c9a1"/>
        <path id="Path_190004" data-name="Path 190004" d="M331.307,73.626c.411,1.894,1.811,3.389,3.149,4.792,6.411,6.727,12.773,13.85,16.1,22.525,1.089,2.846,1.858,5.87,3.537,8.416s4.595,4.59,7.612,4.14a3.783,3.783,0,0,0,1.188-.36c1.718-.9,2.026-3.224,1.78-5.143-.5-3.881-2.349-7.444-4.37-10.789a95.789,95.789,0,0,0-20.747-24.093C337.369,71.3,329.8,66.7,331.307,73.626Z" transform="translate(-245.443 -51.832)" fill="#f9c9a1"/>
        <path id="Path_190005" data-name="Path 190005" d="M393.283,92.632A106.548,106.548,0,0,1,408.9,117.117c1.912,4.16,3.881,8.8,8,10.794a3.822,3.822,0,0,0,3.436.233,3.187,3.187,0,0,0,1.42-2.924,8.889,8.889,0,0,0-.97-3.257c-5.6-12.411-13.622-23.917-24.359-32.284C392.813,86.859,390.093,88.877,393.283,92.632Z" transform="translate(-290.484 -65.489)" fill="#f9c9a1"/>
        <path id="Path_190006" data-name="Path 190006" d="M264.937,325.884a9.623,9.623,0,0,0-1.8-3.881,17.406,17.406,0,0,0-17.751-6.569l-4.4-1.754c-.753,1.723-1.182,3.85-.106,5.392,1.172,1.677,3.508,1.884,5.508,2.329a16.631,16.631,0,0,1,12.039,10.866c.181.551.442,1.213,1.019,1.294a1.336,1.336,0,0,0,.474-.047A6.926,6.926,0,0,0,264.937,325.884Z" transform="translate(-178.083 -232.515)" fill="#e0af24"/>
        <path id="Path_190007" data-name="Path 190007" d="M278.909,331.2c-7.446-3.5-13.656-9.143-19.311-15.117-4.877-5.156-9.852-10.89-16.714-12.7-1.62-.427-3.622-.921-4.013-2.551-.409-1.762,1.514-3.151,3.231-3.718,7.037-2.31,14.7-.036,21.588,2.691,10.866,4.3,21.7,10.114,28.33,19.728,2.642,3.829,4.2,9.808-.577,12.846C288.07,334.518,282.114,332.7,278.909,331.2Z" transform="translate(-177.028 -219.522)" fill="#f9c9a1"/>
        <path id="Path_190008" data-name="Path 190008" d="M105.338,289.093a35.33,35.33,0,0,1,.929-13.128,69.554,69.554,0,0,1,18.37-33.176c.8-.807,1.7-1.811,1.439-2.924-.194-.828-17.573,7.438-22.726,13.454-2.4,2.807-4.815,5.741-5.951,9.255a25.438,25.438,0,0,0-.957,5.356c.228,1.661.422,3.335.719,4.97a35.981,35.981,0,0,0,8.388,17.311C105.464,289.846,105.395,289.47,105.338,289.093Z" transform="translate(-71.489 -177.755)" fill="#f4cc22"/>
        <path id="Path_190009" data-name="Path 190009" d="M224.769,374.295a1.8,1.8,0,0,0-1.389.455c-2.435,1.762-3.881,4.577-6.018,6.678-2.429,2.372-5.811,3.9-8.062,6.305,2.028.949,3.229,3.35,3.865,5.645.7,2.515.564,5.632,2.466,7.374.422.385.841.753,1.255,1.1,0-.318.023-.631.036-.944a44.943,44.943,0,0,1,7.868-23.342,4.177,4.177,0,0,0,.846-1.726A1.362,1.362,0,0,0,224.769,374.295Z" transform="translate(-155.149 -277.428)" fill="#f4cc22"/>
        <path id="Path_190010" data-name="Path 190010" d="M550.174,192.143a17.28,17.28,0,0,1-.29-5.118l.031-.686a4.9,4.9,0,0,1-2.005.517,191.627,191.627,0,0,0-27.36,5.216c5.658.052,11.33-.367,16.972.08a34.868,34.868,0,0,1,12.577,3.125,17.444,17.444,0,0,1,2.458,1.6A16.71,16.71,0,0,1,550.174,192.143Z" transform="translate(-385.87 -138.121)" fill="#f4cc22"/>
        <path id="Path_190011" data-name="Path 190011" d="M587.351,152.833a6.588,6.588,0,0,1,3.26,1.552c.075-2.028.127-4.059.114-6.085l-.341.07-15.143,3.1A63.823,63.823,0,0,1,587.351,152.833Z" transform="translate(-426.411 -109.923)" fill="#f4cc22"/>
        <path id="Path_190012" data-name="Path 190012" d="M239.24,107.161a2.114,2.114,0,0,0,.631,1.107,12.863,12.863,0,0,0,4.031,3.426c.282.129.66.217.864-.016a.631.631,0,0,0,.127-.424,3.622,3.622,0,0,0-.411-1.467,8.429,8.429,0,0,0-1.653-2.706C242.208,106.483,239.067,105.283,239.24,107.161Z" transform="translate(-177.338 -78.678)" fill="#f7e2c6"/>
        <path id="Path_190013" data-name="Path 190013" d="M273.611,67.427a2.749,2.749,0,0,0,1.012,1.257,29.376,29.376,0,0,0,4.028,2.949.962.962,0,0,0,.629.176.8.8,0,0,0,.549-.75,3.371,3.371,0,0,0-.776-2.305,6.91,6.91,0,0,0-1.987-1.928C276.289,66.356,273.044,65.385,273.611,67.427Z" transform="translate(-202.772 -49.05)" fill="#f7e2c6"/>
        <path id="Path_190014" data-name="Path 190014" d="M334.944,72.685a1.978,1.978,0,0,0,.776,1.089,19.515,19.515,0,0,0,3.622,2.5,2.489,2.489,0,0,0,1.343.4.854.854,0,0,0,.3-.075.81.81,0,0,0,.336-.354,1.671,1.671,0,0,0-.1-1.589,4.473,4.473,0,0,0-1.136-1.2,9.205,9.205,0,0,0-1.966-1.294C337.436,71.867,334.668,71.1,334.944,72.685Z" transform="translate(-248.271 -53.154)" fill="#f7e2c6"/>
        <path id="Path_190015" data-name="Path 190015" d="M394.876,89.955c-.178.489.23.986.624,1.327a14.372,14.372,0,0,0,3.084,2.049c.37.181.877.321,1.138,0a.857.857,0,0,0-.07-.944,6.575,6.575,0,0,0-1.232-1.42,7.584,7.584,0,0,0-1.294-1.066C396.6,89.585,395.2,89.068,394.876,89.955Z" transform="translate(-292.68 -66.308)" fill="#f7e2c6"/>
        <path id="Path_190016" data-name="Path 190016" d="M241.588,308.778a1.622,1.622,0,0,0,.683,1.19,4.37,4.37,0,0,0,1.276.6,25.88,25.88,0,0,0,3.26.867,2.8,2.8,0,0,0,1.133.052,1.035,1.035,0,0,0,.807-.719,1.341,1.341,0,0,0-.45-1.125C247.422,308.69,241.513,305.956,241.588,308.778Z" transform="translate(-179.082 -227.96)" fill="#f7e2c6"/>
      </g>
    </g>
  </g>
</svg>
