<svg xmlns="http://www.w3.org/2000/svg" width="400" height="290" viewBox="0 0 400 290">
  <g id="t5-f5" transform="translate(-12837 8341)">
    <rect id="Rectangle_40150" data-name="Rectangle 40150" width="400" height="290" rx="20" transform="translate(12837 -8341)" fill="#e5f2d5"/>
    <path id="Path_190310" data-name="Path 190310" d="M52.582,18.078H47.415L46.513,21H42.484L48.221,5.359h3.545L57.545,21H53.5Zm-4.265-2.911H51.68L49.993,9.742Zm20.475.107A7.009,7.009,0,0,1,67.573,19.6a3.909,3.909,0,0,1-3.292,1.617,3.351,3.351,0,0,1-2.632-1.171v5.425h-3.62V9.377h3.384l.107,1.074a3.351,3.351,0,0,1,2.739-1.289A3.941,3.941,0,0,1,67.6,10.747,7.1,7.1,0,0,1,68.792,15.1Zm-3.62-.226q0-3.094-1.8-3.094a1.7,1.7,0,0,0-1.719.924v4.576a1.759,1.759,0,0,0,1.74.967q1.729,0,1.783-2.986ZM74.206,21H70.575V4.5h3.631Zm6.048,0H76.623V9.377h3.631ZM76.408,6.369a1.63,1.63,0,0,1,.559-1.275,2.364,2.364,0,0,1,2.9,0,1.63,1.63,0,0,1,.559,1.275,1.63,1.63,0,0,1-.559,1.275,2.364,2.364,0,0,1-2.9,0A1.63,1.63,0,0,1,76.408,6.369ZM87.4,18.422a1.61,1.61,0,0,0,1.182-.414,1.517,1.517,0,0,0,.408-1.155h3.395a4.018,4.018,0,0,1-1.37,3.137,5.1,5.1,0,0,1-3.529,1.225,5.158,5.158,0,0,1-4-1.59,6.264,6.264,0,0,1-1.461-4.4v-.15a7.08,7.08,0,0,1,.65-3.11,4.732,4.732,0,0,1,1.875-2.073,5.589,5.589,0,0,1,2.9-.725,5.03,5.03,0,0,1,3.6,1.257,4.458,4.458,0,0,1,1.332,3.405H88.987a1.987,1.987,0,0,0-.44-1.386,1.52,1.52,0,0,0-1.182-.483q-1.407,0-1.644,1.794a12.658,12.658,0,0,0-.075,1.568,4.972,4.972,0,0,0,.419,2.428A1.45,1.45,0,0,0,87.4,18.422ZM100.46,21a4.087,4.087,0,0,1-.344-1.042,3.366,3.366,0,0,1-2.793,1.257,4.124,4.124,0,0,1-2.793-.994,3.163,3.163,0,0,1-1.149-2.5,3.251,3.251,0,0,1,1.4-2.857,7.114,7.114,0,0,1,4.061-.967h1.117v-.615q0-1.608-1.386-1.608A1.133,1.133,0,0,0,97.28,12.95H93.66a3.245,3.245,0,0,1,1.434-2.736,6.027,6.027,0,0,1,3.658-1.051,5.284,5.284,0,0,1,3.513,1.085,3.772,3.772,0,0,1,1.321,2.976v5.146a5.269,5.269,0,0,0,.494,2.449V21Zm-2.267-2.363a2.019,2.019,0,0,0,1.123-.29,1.818,1.818,0,0,0,.639-.655V15.833H98.9q-1.891,0-1.891,1.7a1.036,1.036,0,0,0,.333.8A1.205,1.205,0,0,0,98.193,18.637Zm12.311-.215a1.61,1.61,0,0,0,1.182-.414,1.517,1.517,0,0,0,.408-1.155h3.395a4.018,4.018,0,0,1-1.37,3.137,5.1,5.1,0,0,1-3.529,1.225,5.158,5.158,0,0,1-4-1.59,6.264,6.264,0,0,1-1.461-4.4v-.15a7.08,7.08,0,0,1,.65-3.11,4.732,4.732,0,0,1,1.875-2.073,5.589,5.589,0,0,1,2.9-.725,5.03,5.03,0,0,1,3.6,1.257,4.458,4.458,0,0,1,1.332,3.405h-3.395a1.987,1.987,0,0,0-.44-1.386,1.52,1.52,0,0,0-1.182-.483q-1.407,0-1.644,1.794a12.658,12.658,0,0,0-.075,1.568,4.972,4.972,0,0,0,.419,2.428A1.45,1.45,0,0,0,110.5,18.422ZM120.838,21h-3.631V9.377h3.631ZM116.992,6.369a1.63,1.63,0,0,1,.559-1.275,2.364,2.364,0,0,1,2.9,0,1.63,1.63,0,0,1,.559,1.275,1.63,1.63,0,0,1-.559,1.275,2.364,2.364,0,0,1-2.9,0A1.63,1.63,0,0,1,116.992,6.369Zm5.618,8.712a6.86,6.86,0,0,1,.677-3.1,4.84,4.84,0,0,1,1.944-2.089,5.856,5.856,0,0,1,2.976-.73,5.344,5.344,0,0,1,4.114,1.617,6.2,6.2,0,0,1,1.5,4.4v.129a6.019,6.019,0,0,1-1.509,4.313,5.359,5.359,0,0,1-4.087,1.6,5.42,5.42,0,0,1-3.985-1.488,5.819,5.819,0,0,1-1.622-4.034Zm3.62.226a4.325,4.325,0,0,0,.5,2.363,1.682,1.682,0,0,0,1.493.752q1.934,0,1.977-2.976v-.365q0-3.126-2-3.126-1.815,0-1.966,2.7ZM128.7,4.5h3.824l-2.986,3.373-2.954-.005Zm10.044,4.877.118,1.364a3.942,3.942,0,0,1,3.319-1.579,3.316,3.316,0,0,1,2.712,1.085,5.165,5.165,0,0,1,.929,3.266V21h-3.631V13.663a1.961,1.961,0,0,0-.354-1.294,1.64,1.64,0,0,0-1.289-.414,1.726,1.726,0,0,0-1.579.838V21h-3.62V9.377Zm14.1,5.726a7.1,7.1,0,0,1,1.192-4.351,3.925,3.925,0,0,1,3.33-1.59,3.338,3.338,0,0,1,2.621,1.225V4.5h3.631V21h-3.255l-.183-1.246a3.428,3.428,0,0,1-2.836,1.461,3.918,3.918,0,0,1-3.287-1.59A7.325,7.325,0,0,1,152.85,15.1Zm3.62.226q0,3.094,1.8,3.094a1.782,1.782,0,0,0,1.719-1.01V12.986a1.734,1.734,0,0,0-1.7-1.031q-1.676,0-1.815,2.707ZM171.3,21.215a5.975,5.975,0,0,1-4.329-1.6,5.509,5.509,0,0,1-1.654-4.152v-.3a7.138,7.138,0,0,1,.661-3.147,4.834,4.834,0,0,1,1.928-2.111,5.821,5.821,0,0,1,3.008-.747,5.031,5.031,0,0,1,3.867,1.52A5.973,5.973,0,0,1,176.2,14.92v1.407h-7.2a2.609,2.609,0,0,0,.849,1.536,2.525,2.525,0,0,0,1.7.559,3.254,3.254,0,0,0,2.686-1.2l1.654,1.955a4.624,4.624,0,0,1-1.917,1.488A6.48,6.48,0,0,1,171.3,21.215Zm-.408-9.26q-1.59,0-1.891,2.105h3.652v-.279a1.793,1.793,0,0,0-.44-1.348A1.753,1.753,0,0,0,170.9,11.955ZM182.681,15.1a7.1,7.1,0,0,1,1.192-4.351,3.925,3.925,0,0,1,3.33-1.59,3.338,3.338,0,0,1,2.621,1.225V4.5h3.631V21H190.2l-.183-1.246a3.428,3.428,0,0,1-2.836,1.461,3.918,3.918,0,0,1-3.287-1.59A7.325,7.325,0,0,1,182.681,15.1Zm3.62.226q0,3.094,1.8,3.094a1.782,1.782,0,0,0,1.719-1.01V12.986a1.734,1.734,0,0,0-1.7-1.031q-1.676,0-1.815,2.707Zm14.835,5.887a5.975,5.975,0,0,1-4.329-1.6,5.509,5.509,0,0,1-1.654-4.152v-.3a7.138,7.138,0,0,1,.661-3.147,4.834,4.834,0,0,1,1.928-2.111,5.821,5.821,0,0,1,3.008-.747,5.031,5.031,0,0,1,3.867,1.52,5.973,5.973,0,0,1,1.418,4.238v1.407h-7.2a2.609,2.609,0,0,0,.849,1.536,2.525,2.525,0,0,0,1.7.559,3.254,3.254,0,0,0,2.686-1.2l1.654,1.955a4.624,4.624,0,0,1-1.917,1.488A6.48,6.48,0,0,1,201.136,21.215Zm-.408-9.26q-1.59,0-1.891,2.105h3.652v-.279a1.793,1.793,0,0,0-.44-1.348A1.753,1.753,0,0,0,200.728,11.955Zm12.848,5.779a.836.836,0,0,0-.483-.741,7.353,7.353,0,0,0-1.837-.58,8.376,8.376,0,0,1-2.234-.79,3.743,3.743,0,0,1-1.343-1.187,2.835,2.835,0,0,1-.462-1.6,3.212,3.212,0,0,1,1.321-2.637A5.443,5.443,0,0,1,212,9.162a6.03,6.03,0,0,1,3.7,1.042,3.258,3.258,0,0,1,1.4,2.739h-3.631q0-1.4-1.472-1.4a1.459,1.459,0,0,0-.956.317.981.981,0,0,0-.387.79.9.9,0,0,0,.473.784,4.466,4.466,0,0,0,1.509.494,13.042,13.042,0,0,1,1.821.462q2.621.9,2.621,3.233a3.044,3.044,0,0,1-1.413,2.589,6.2,6.2,0,0,1-3.658,1,6.322,6.322,0,0,1-2.664-.537,4.455,4.455,0,0,1-1.826-1.461,3.308,3.308,0,0,1-.655-1.944h3.384a1.4,1.4,0,0,0,.537,1.176,2.209,2.209,0,0,0,1.321.371,1.738,1.738,0,0,0,1.112-.3A.962.962,0,0,0,213.575,17.734Zm9,3.266h-3.631V9.377h3.631ZM218.731,6.369a1.63,1.63,0,0,1,.559-1.275,2.364,2.364,0,0,1,2.9,0,1.63,1.63,0,0,1,.559,1.275,1.63,1.63,0,0,1-.559,1.275,2.364,2.364,0,0,1-2.9,0A1.63,1.63,0,0,1,218.731,6.369Zm9.4,3.008.118,1.364a3.942,3.942,0,0,1,3.319-1.579,3.316,3.316,0,0,1,2.712,1.085,5.165,5.165,0,0,1,.929,3.266V21h-3.631V13.663a1.961,1.961,0,0,0-.354-1.294,1.64,1.64,0,0,0-1.289-.414,1.726,1.726,0,0,0-1.579.838V21h-3.62V9.377ZM238.014,21V11.891h-1.687V9.377h1.687V8.453a4.016,4.016,0,0,1,1.171-3.083,4.626,4.626,0,0,1,3.287-1.1,7.2,7.2,0,0,1,1.7.226l.011,2.664a3.307,3.307,0,0,0-.892-.1q-1.644,0-1.644,1.418v.892h2.267v2.514h-2.267V21Zm12.536.215a5.975,5.975,0,0,1-4.329-1.6,5.509,5.509,0,0,1-1.654-4.152v-.3a7.138,7.138,0,0,1,.661-3.147,4.834,4.834,0,0,1,1.928-2.111,5.821,5.821,0,0,1,3.008-.747,5.031,5.031,0,0,1,3.867,1.52,5.973,5.973,0,0,1,1.418,4.238v1.407h-7.2a2.609,2.609,0,0,0,.849,1.536,2.525,2.525,0,0,0,1.7.559,3.254,3.254,0,0,0,2.686-1.2l1.654,1.955a4.624,4.624,0,0,1-1.917,1.488A6.48,6.48,0,0,1,250.55,21.215Zm-.408-9.26q-1.59,0-1.891,2.105H251.9v-.279a1.793,1.793,0,0,0-.44-1.348A1.753,1.753,0,0,0,250.142,11.955Zm11.677,6.467A1.61,1.61,0,0,0,263,18.008a1.517,1.517,0,0,0,.408-1.155H266.8a4.018,4.018,0,0,1-1.37,3.137,5.1,5.1,0,0,1-3.529,1.225,5.158,5.158,0,0,1-4-1.59,6.264,6.264,0,0,1-1.461-4.4v-.15a7.08,7.08,0,0,1,.65-3.11,4.732,4.732,0,0,1,1.875-2.073,5.589,5.589,0,0,1,2.9-.725,5.03,5.03,0,0,1,3.6,1.257,4.458,4.458,0,0,1,1.332,3.405h-3.395a1.987,1.987,0,0,0-.44-1.386,1.52,1.52,0,0,0-1.182-.483q-1.407,0-1.644,1.794a12.656,12.656,0,0,0-.075,1.568,4.972,4.972,0,0,0,.419,2.428A1.45,1.45,0,0,0,261.818,18.422ZM272.55,6.487v2.89h1.912v2.514H272.55v5.317a1.358,1.358,0,0,0,.236.913,1.268,1.268,0,0,0,.935.258,5.311,5.311,0,0,0,.9-.064V20.9a6.681,6.681,0,0,1-2.041.312,3.792,3.792,0,0,1-2.761-.881,3.61,3.61,0,0,1-.892-2.675V11.891h-1.482V9.377h1.482V6.487ZM282.433,21a4.087,4.087,0,0,1-.344-1.042,3.366,3.366,0,0,1-2.793,1.257,4.124,4.124,0,0,1-2.793-.994,3.163,3.163,0,0,1-1.149-2.5,3.251,3.251,0,0,1,1.4-2.857,7.114,7.114,0,0,1,4.061-.967h1.117v-.615q0-1.608-1.386-1.608a1.133,1.133,0,0,0-1.289,1.274h-3.62a3.245,3.245,0,0,1,1.434-2.736,6.027,6.027,0,0,1,3.658-1.051,5.284,5.284,0,0,1,3.513,1.085,3.772,3.772,0,0,1,1.321,2.976v5.146a5.269,5.269,0,0,0,.494,2.449V21Zm-2.267-2.363a2.019,2.019,0,0,0,1.123-.29,1.818,1.818,0,0,0,.639-.655V15.833h-1.053q-1.891,0-1.891,1.7a1.036,1.036,0,0,0,.333.8A1.205,1.205,0,0,0,280.166,18.637Zm10.721-9.26L291,10.741a3.942,3.942,0,0,1,3.319-1.579,3.316,3.316,0,0,1,2.712,1.085,5.165,5.165,0,0,1,.929,3.266V21h-3.631V13.663a1.961,1.961,0,0,0-.354-1.294,1.64,1.64,0,0,0-1.289-.414,1.726,1.726,0,0,0-1.579.838V21h-3.62V9.377Zm13.3-2.89v2.89H306.1v2.514h-1.912v5.317a1.358,1.358,0,0,0,.236.913,1.268,1.268,0,0,0,.935.258,5.311,5.311,0,0,0,.9-.064V20.9a6.681,6.681,0,0,1-2.041.312,3.792,3.792,0,0,1-2.761-.881,3.61,3.61,0,0,1-.892-2.675V11.891h-1.482V9.377h1.482V6.487Zm8.959,14.728a5.975,5.975,0,0,1-4.329-1.6,5.509,5.509,0,0,1-1.654-4.152v-.3a7.138,7.138,0,0,1,.661-3.147,4.834,4.834,0,0,1,1.928-2.111,5.821,5.821,0,0,1,3.008-.747,5.031,5.031,0,0,1,3.867,1.52,5.973,5.973,0,0,1,1.418,4.238v1.407h-7.2a2.609,2.609,0,0,0,.849,1.536,2.525,2.525,0,0,0,1.7.559,3.254,3.254,0,0,0,2.686-1.2l1.654,1.955a4.624,4.624,0,0,1-1.917,1.488A6.48,6.48,0,0,1,313.145,21.215Zm-.408-9.26q-1.59,0-1.891,2.105H314.5v-.279a1.793,1.793,0,0,0-.44-1.348A1.753,1.753,0,0,0,312.736,11.955Z" transform="translate(12857 -8115)" fill="#12263f"/>
    <path id="Path_190306" data-name="Path 190306" d="M0,0H172V3H0Z" transform="translate(12951 -8143)" fill="#78b62e"/>
    <g id="Capa_2" data-name="Capa 2" transform="translate(12923.997 -8310.969)">
      <g id="Ñëîé_1" data-name="Ñëîé 1" transform="translate(0.003 -3.865)">
        <path id="Path_190141" data-name="Path 190141" d="M18.676,270.12s3.251,15,1.265,20.821c-1.256,3.685-5.6,9.161-7.775,13.209C7.1,313.525-1.616,344.85.264,349.518c1.489,3.7,3.913,5.4,8.942,6.1H39.252a5.31,5.31,0,0,0,4.328-2.062,10.666,10.666,0,0,0,1.813-6.642c.06-1.227-1.89-20.912-2.257-24-.945-7.988-6.286-24.2-6.407-26.144-.177-2.828,1.451-4.782,1.263-7.742-.235-3.712-2.465-5.951-2.617-7.966-.21-2.787.992-3.195.542-5.821-.343-1.995-1.084-5.06-1.084-5.06Z" transform="translate(-0.003 -208.781)" fill="#78bcff"/>
        <path id="Path_190142" data-name="Path 190142" d="M85.954,283.409h7.323l-1.263-2.346L85.54,281C85.668,281.692,85.809,282.509,85.954,283.409Z" transform="translate(-66.39 -217.225)" fill="#3c6d9d"/>
        <path id="Path_190143" data-name="Path 190143" d="M89.962,310.411h9.072l-1.375-2.346L89.7,308C89.8,308.781,89.886,309.594,89.962,310.411Z" transform="translate(-69.619 -238.181)" fill="#3c6d9d"/>
        <path id="Path_190144" data-name="Path 190144" d="M91.82,337.259v.155h9.936l-.291-2.346L91.829,335C91.86,335.77,91.86,336.531,91.82,337.259Z" transform="translate(-71.264 -259.136)" fill="#3c6d9d"/>
        <path id="Path_190145" data-name="Path 190145" d="M96.178,362.069,85.99,362c-.027.09-.054.175-.081.257a14.351,14.351,0,0,1-.71,1.67l-.2.49H95.876Z" transform="translate(-65.971 -280.091)" fill="#3c6d9d"/>
        <path id="Path_190146" data-name="Path 190146" d="M147.412,182.45c.611.857,1.766,2.6,1.679,3.358-.121,1.021.481,6.018.672,7.943s2.646,7.28,2.646,7.28l-.542.6s-4.813-6.076-5.295-7.7-1.567-3.911-2.046-4.09a12.243,12.243,0,0,0-2.407-.121l-5.639-.054V188.1Z" transform="translate(-105.926 -140.738)" fill="#3c6d9d"/>
        <path id="Path_190147" data-name="Path 190147" d="M63.279,164.147l-9.029-6.468.029-4.753L61.5,147.69H88.7l4.9.994v5.243l-4.957,1.164-3.79-.3-11.675,6.318-.6,1.8,2.38,1.234Z" transform="translate(-42.105 -113.76)" fill="#78bcff"/>
        <path id="Path_190148" data-name="Path 190148" d="M206.4,155.076l.224.016,4.961-1.164v-5.243l-4.9-.994h-.372l-.058,7.372Z" transform="translate(-160.084 -113.76)" fill="#3c6d9d"/>
        <path id="Path_190149" data-name="Path 190149" d="M86.84,231.884V220.71h14.668v11.23Z" transform="translate(-67.399 -170.433)" fill="#78bcff"/>
        <rect id="Rectangle_40100" data-name="Rectangle 40100" width="0.741" height="7.13" transform="translate(21.801 52.328)" fill="#4e5fa4"/>
        <rect id="Rectangle_40101" data-name="Rectangle 40101" width="0.741" height="7.13" transform="translate(24.87 52.328)" fill="#4e5fa4"/>
        <rect id="Rectangle_40102" data-name="Rectangle 40102" width="0.741" height="7.13" transform="translate(27.939 52.328)" fill="#4e5fa4"/>
        <rect id="Rectangle_40103" data-name="Rectangle 40103" width="0.741" height="7.13" transform="translate(31.009 52.328)" fill="#4e5fa4"/>
        <path id="Path_190150" data-name="Path 190150" d="M52.589,509.443a15.435,15.435,0,0,1-10.026-3.7l-.293-.259,21.806-21.808.26.3A15.434,15.434,0,0,1,52.6,509.443Zm-9.237-4.005a14.7,14.7,0,0,0,20.666-20.666Zm-2.369-1.245-.26-.311a15.436,15.436,0,0,1,21.738-21.739l.311.26Zm11.606-24.877a14.693,14.693,0,0,0-11.552,23.776l20.635-20.635a14.715,14.715,0,0,0-9.083-3.143Z" transform="translate(-28.838 -370.568)" fill="#3c6d9d"/>
        <path id="Path_190151" data-name="Path 190151" d="M111.181,493.912c-.925,0-1.881-1.684-2.156-2.214-.866-1.657-1.171-3.866.054-5.078a.732.732,0,0,1,.1-.105,1.4,1.4,0,0,1,.13-.1l.025-.018.045-.031.034-.022.166-.119a1.862,1.862,0,0,1,1.737-.206.847.847,0,0,1,.307.965,2.283,2.283,0,0,1-.956,1.249,2.093,2.093,0,0,0-.622.672c-.291.721.161,1.175.922,1.856.649.582,1.388,1.242,1.119,2.216-.154.578-.432.9-.826.938Zm-1.343-6.96c-1.319.925-.815,3.134-.154,4.4.535,1.021,1.243,1.816,1.491,1.816h0c.016,0,.11-.076.193-.392.132-.5-.253-.9-.9-1.473-.719-.645-1.614-1.446-1.119-2.687a2.581,2.581,0,0,1,.842-.958,1.756,1.756,0,0,0,.7-.828.345.345,0,0,0,0-.2,1.487,1.487,0,0,0-1.068.313Z" transform="translate(-84.028 -376.232)" fill="#4e5fa4"/>
        <path id="Path_190152" data-name="Path 190152" d="M52.544,526.768a1.371,1.371,0,0,1-.343-.043,1.343,1.343,0,0,1-.947-.9,2.841,2.841,0,0,1,0-1.323,3.358,3.358,0,0,0,.067-.768,4.927,4.927,0,0,0-.387-1.052c-.414-.943-.9-2.015-.508-2.769a1.251,1.251,0,0,1,.808-.636,1.1,1.1,0,0,1,.116-.031l.09-.022h.025l.107-.025a.759.759,0,0,1,.2.011,1.44,1.44,0,0,1,.981.472,1.634,1.634,0,0,1,.381,1.567,1.669,1.669,0,0,1-.385.62c-.161.181-.224.255-.195.49a2.619,2.619,0,0,0,.7,1.034c.636.71,1.594,1.791.336,2.957A1.549,1.549,0,0,1,52.544,526.768Zm-1.016-6.795c-.334.076-.41.224-.434.278-.224.448.208,1.424.524,2.14a4.872,4.872,0,0,1,.448,1.283,3.929,3.929,0,0,1-.076.951,2.328,2.328,0,0,0-.031.969.589.589,0,0,0,.425.412.761.761,0,0,0,.7-.195c.672-.62.407-1.039-.381-1.921a3,3,0,0,1-.88-1.426,1.229,1.229,0,0,1,.374-1.086.929.929,0,0,0,.224-.352.9.9,0,0,0-.224-.84.694.694,0,0,0-.667-.219Z" transform="translate(-39.027 -402.098)" fill="#4e5fa4"/>
        <path id="Path_190153" data-name="Path 190153" d="M78.4,501.3c-.835,0-1.265-.775-1.567-1.323l-.123-.244a8.088,8.088,0,0,0-.925-1.567l-.018-.016a6,6,0,0,0-1.119-.656c-.257-.132-.526-.271-.75-.4-.593-.349-1.148-.763-.969-1.661v-.076a.237.237,0,0,1,.018-.072.2.2,0,0,0,0-.034.053.053,0,0,1,.016-.045c.123-.622.4-1,.817-1.119.9-.269,2.015.8,3.007,1.825.105.107.2.2.262.266a5.289,5.289,0,0,1,2.624,1.764,2.362,2.362,0,0,1,.448,1.968,1.84,1.84,0,0,1-1.084,1.243,1.791,1.791,0,0,1-.636.146Zm-2.1-3.66a7.258,7.258,0,0,1,1.07,1.76l.116.224c.479.864.71,1.084,1.292.846a1.119,1.119,0,0,0,.658-.745,1.652,1.652,0,0,0-.338-1.343v-.016a4.653,4.653,0,0,0-2.337-1.516l-.065-.025-.054-.045c-.083-.074-.2-.193-.354-.356-.428-.448-1.726-1.791-2.263-1.628-.143.043-.224.26-.275.448v.072a.224.224,0,0,1-.02.074v.036c-.152.49-.054.672.578,1.037.2.119.463.251.714.381A6.5,6.5,0,0,1,76.3,497.635Z" transform="translate(-56.578 -382.572)" fill="#4e5fa4"/>
        <path id="Path_190154" data-name="Path 190154" d="M95.261,580.56A5.914,5.914,0,0,1,93.277,580a6.048,6.048,0,0,0-.862-.307c-.134-.025-.376-.052-.658-.083-1.437-.161-3.54-.394-3.942-1.393a1.187,1.187,0,0,1,.36-1.3c.707-.488,2.015.027,3.076.448a5.6,5.6,0,0,0,.853.293c.128-.013.289-.034.463-.058,1.039-.139,2.463-.329,3.269.374a1.737,1.737,0,0,1,.562,1.37,1.181,1.181,0,0,1-.448,1.041,1.2,1.2,0,0,1-.69.179Zm-6.775-2.7c0,.423,1.133.763,3.358,1.012.307.034.551.06.712.09a6.311,6.311,0,0,1,1.005.351c.616.249,1.648.672,1.972.448.107-.074.13-.271.128-.423a1.017,1.017,0,0,0-.307-.815c-.557-.484-1.836-.313-2.687-.2-.184.025-.354.047-.5.063a3.166,3.166,0,0,1-1.184-.343c-.7-.275-2.015-.786-2.384-.522-.029.02-.112.076-.11.336Z" transform="translate(-68.087 -446.736)" fill="#4e5fa4"/>
        <path id="Path_190155" data-name="Path 190155" d="M144.415,558.2a.618.618,0,0,1-.6-.264c-.172-.3.049-.587.282-.9.1-.128,1.01-1.988,1.01-1.988a8.957,8.957,0,0,0-.846-1.735c-.078-.134-.152-.253-.224-.363-.3-.488-.643-1.036-.17-1.343s1.415.242,1.863.768a3.94,3.94,0,0,1,.884,1.892,4.046,4.046,0,0,1,.123,2.221A2.284,2.284,0,0,1,145,558.146h-.031c-.047,0-.1.016-.143.02l-.105.013A2.574,2.574,0,0,1,144.415,558.2Zm.613-1.169a2.194,2.194,0,0,0-.175.385c.535-.1,1.171-1.14,1.171-1.14a4.8,4.8,0,0,0-.141-1.86,3.152,3.152,0,0,0-.7-1.534l-.016-.018a2.055,2.055,0,0,0-.609-.481l.114.188c.074.116.15.24.224.372a9.59,9.59,0,0,1,.913,1.878C146.018,555.337,145.429,556.507,145.028,557.034Z" transform="translate(-111.481 -427.186)" fill="#4e5fa4"/>
        <path id="Path_190156" data-name="Path 190156" d="M123.063,563.872a.464.464,0,0,1-.17-.031c-.325-.128-.331-.488-.338-.869a3.356,3.356,0,0,0-.029-.528v-.034a3.582,3.582,0,0,0-.414-1.6l-.02-.013a8.955,8.955,0,0,0-1.751-.817c-.146-.056-.278-.1-.4-.143-.54-.188-1.151-.4-.981-.94s1.236-.7,1.923-.571a3.894,3.894,0,0,1,1.876.913,4.019,4.019,0,0,1,1.493,1.648,2.286,2.286,0,0,1-.311,2.378.2.2,0,0,1-.02.025c-.031.036-.065.069-.1.1l-.074.076A1.1,1.1,0,0,1,123.063,563.872Zm.2-1.5c.02.175.027.345.029.49l.016-.013.022-.025.04-.042a1.545,1.545,0,0,0,.2-1.6v-.022a3.3,3.3,0,0,0-1.227-1.319l-.051-.04a3.205,3.205,0,0,0-1.511-.75h-.022a2.033,2.033,0,0,0-.777,0l.208.072.41.148a9.733,9.733,0,0,1,1.892.9C122.976,560.434,123.244,561.714,123.262,562.377Z" transform="translate(-92.305 -432.429)" fill="#4e5fa4"/>
        <path id="Path_190157" data-name="Path 190157" d="M63.514,566.991a3.885,3.885,0,0,1,.99-3.1,1.97,1.97,0,0,1,1.943-.508.873.873,0,0,1,.432.976l-.734-.1c0-.058.02-.193-.034-.224a1.388,1.388,0,0,0-1.1.387,3.2,3.2,0,0,0-.766,2.463Z" transform="translate(-49.271 -436.304)" fill="#4e5fa4"/>
        <path id="Path_190158" data-name="Path 190158" d="M69.885,589.869a.808.808,0,0,1-.517-.163A1.343,1.343,0,0,1,69,588.694a2.364,2.364,0,0,0-.159-.777c-.121-.258-.4-.862-.448-.954l.625-.4c.063.1.181.343.506,1.041a3.009,3.009,0,0,1,.224,1.021,1.529,1.529,0,0,0,.094.5h.054a.522.522,0,0,0,.09,0c.085-.011.105-.04.112-.049.1-.139.027-.569,0-.8-.056-.329-.1-.591.092-.779.242-.235.656-.206,1.133-.175a4.715,4.715,0,0,0,.582.016,1.526,1.526,0,0,0-.9-.123l-.224.038-.132-.2a3.817,3.817,0,0,0-.824-.784l-.345-.253.472-.571c.1.083.2.159.293.237a5.3,5.3,0,0,1,.846.781,1.81,1.81,0,0,1,1.343.383.8.8,0,0,1,.175.759c-.134.54-.788.495-1.363.448-.132,0-.325-.022-.461-.018a.236.236,0,0,0,.018.11,1.814,1.814,0,0,1-.119,1.357.9.9,0,0,1-.6.349A1.475,1.475,0,0,1,69.885,589.869Z" transform="translate(-53.08 -453.516)" fill="#4e5fa4"/>
        <path id="Path_190159" data-name="Path 190159" d="M131.074,523.371a1.069,1.069,0,0,1-.195-.018.783.783,0,0,1-.573-.461c-.327-.84.978-2.015,2.857-3.564.2-.161.414-.343.6-.5a1.351,1.351,0,0,1-.931-.555.71.71,0,0,1,0-.654.777.777,0,0,1,.557-.448,1.657,1.657,0,0,1,1.039.244,1.43,1.43,0,0,1-.4-.627.672.672,0,0,1,.092-.526.629.629,0,0,1,.448-.273,2.475,2.475,0,0,1,1.368.432,1.507,1.507,0,0,1,1.829,1.892,3.346,3.346,0,0,1,.743,1.722.651.651,0,0,1-.329.584.58.58,0,0,1-.468.045c-.381-.119-.638-.607-.864-1.061l-.011.018a3.057,3.057,0,0,1,.331,1.728.654.654,0,0,1-.448.475c-.645.177-.981-.526-1.166-1.048C134.6,521.562,132.274,523.371,131.074,523.371Zm-.081-.761.036.016c.8.163,3.752-2.107,4.433-2.751l.188-.177.224.114c.161.081.2.208.287.466a3.024,3.024,0,0,0,.309.745,3.539,3.539,0,0,0-.369-1.222l-.224-.249,1.137-1.368a.672.672,0,0,0-.141-.849.658.658,0,0,0-.766-.181l-.224.137-.193-.159a3.318,3.318,0,0,0-.884-.407,2.686,2.686,0,0,0,.672.589l.448.264s-1.547,1.7-2.3,2.322-2.689,2.243-2.631,2.716Zm2.505-4.672a1.752,1.752,0,0,0,.748.224,1.374,1.374,0,0,0-.712-.273c-.011,0-.018,0-.031.034Z" transform="translate(-101.095 -399.597)" fill="#4e5fa4"/>
        <path id="Path_190160" data-name="Path 190160" d="M94.237,553.18a2.75,2.75,0,0,1-1.567-.506l.421-.609a1.986,1.986,0,0,0,1.142.374c.976-.022,2.3-1.766,2.49-2.548l.161-.672-.043-.031v-.2c0-.078,0-.687-.027-.88l.734-.087c.02.166.031.557.034.808a2.715,2.715,0,0,1,.835,1.043,1.463,1.463,0,0,1-.372,1.408c-.318.372-.582.378-.748.327a.53.53,0,0,1-.363-.479c-.622.976-1.7,2.035-2.7,2.057Zm3.081-3.611.107.269a3.833,3.833,0,0,1,.208.752.634.634,0,0,0,.116-.419v-.022A1.723,1.723,0,0,0,97.318,549.569Z" transform="translate(-71.924 -424.465)" fill="#4e5fa4"/>
        <path id="Path_190161" data-name="Path 190161" d="M79.3,535.151a3.667,3.667,0,0,1-.7-.092l-.28-.051a1.159,1.159,0,0,1-1.075-.913,1.048,1.048,0,0,1,.41-1.086.636.636,0,0,1,.748.047l.027.022a2.812,2.812,0,0,0,.448.336q0-.094,0-.188a4.224,4.224,0,0,1,.022-.533,2.8,2.8,0,0,1-.9-1.119,1.475,1.475,0,0,1,.224-1.567.781.781,0,0,1,.79-.28.672.672,0,0,1,.463.589l.047.26a4.229,4.229,0,0,1,.535-.768,3.7,3.7,0,0,1,.11-.593.786.786,0,0,1,.036-.152,1.209,1.209,0,0,1,.99-.969,1,1,0,0,1,1.014.383.6.6,0,0,1,.083.278,2.632,2.632,0,0,1,.956.2,2.032,2.032,0,0,1,.356-.188,1.841,1.841,0,0,1,1.59.027l-.331.672a1.119,1.119,0,0,0-.954-.016h-.022a1.3,1.3,0,0,0-.36.224l-.188.152-.224-.11a1.883,1.883,0,0,0-1.384-.154l-.947.26a16.475,16.475,0,0,0-.99,2.015l-.152.743a5.382,5.382,0,0,0-.043.658,5.327,5.327,0,0,0,.054.75l.083.58-.39-.121.045.712Zm-1.292-1.457a.43.43,0,0,0-.031.266c.105.495,1.146.448,1.305.448A6.312,6.312,0,0,1,78.006,533.693Zm.748-3.177a.5.5,0,0,0-.074.116.8.8,0,0,0,0,.672,1.84,1.84,0,0,0,.468.622A11.113,11.113,0,0,1,78.754,530.516Zm2.49-1.686a.488.488,0,0,0-.325.4c0,.054-.081.347-.1.434l.531-.692c.043-.056.083-.107.123-.154a.97.97,0,0,0-.231.025Z" transform="translate(-59.933 -408.981)" fill="#4e5fa4"/>
        <path id="Path_190162" data-name="Path 190162" d="M114.854,543.8a.694.694,0,0,1-.423-.157l-.027-.022-.159-.157a1.957,1.957,0,0,0-.365-.316l.363-.647a2.561,2.561,0,0,1,.528.448l.034.031a.624.624,0,0,0,0-.2.448.448,0,0,0-.224-.322l.356-.651a1.222,1.222,0,0,1,.611,1.119.907.907,0,0,1-.448.824A.584.584,0,0,1,114.854,543.8Z" transform="translate(-88.385 -419.638)" fill="#4e5fa4"/>
        <path id="Path_190163" data-name="Path 190163" d="M44.171,503.442a17.861,17.861,0,1,1,17.861-17.86A17.861,17.861,0,0,1,44.171,503.442Zm0-34.979a17.124,17.124,0,1,0,0-.009Z" transform="translate(-20.42 -362.143)" fill="#3c6d9d"/>
        <ellipse id="Ellipse_5160" data-name="Ellipse 5160" cx="16.623" cy="16.287" rx="16.623" ry="16.287" transform="matrix(0.998, -0.058, 0.058, 0.998, 106.263, 36.173)" fill="#78bcff"/>
        <path id="Path_190164" data-name="Path 190164" d="M296.487,146.806l-41.507-4.551v-3.931l41.357-6.143Z" transform="translate(-197.896 -101.723)" fill="#3c6d9d"/>
        <ellipse id="Ellipse_5161" data-name="Ellipse 5161" cx="16.623" cy="16.287" rx="16.623" ry="16.287" transform="matrix(0.998, -0.058, 0.058, 0.998, 191.929, 28.526)" fill="#78bcff"/>
        <ellipse id="Ellipse_5162" data-name="Ellipse 5162" cx="9.067" cy="8.883" rx="9.067" ry="8.883" transform="matrix(0.998, -0.058, 0.058, 0.998, 80.882, 27.736)" fill="#3c6d9d"/>
        <ellipse id="Ellipse_5163" data-name="Ellipse 5163" cx="26.218" cy="25.688" rx="26.218" ry="25.688" transform="matrix(0.998, -0.058, 0.058, 0.998, 115.252, 3.028)" fill="#78bcff"/>
        <ellipse id="Ellipse_5164" data-name="Ellipse 5164" cx="31.732" cy="26.872" rx="31.732" ry="26.872" transform="matrix(0.998, -0.058, 0.058, 0.998, 129.916, 14.783)" fill="#78bcff"/>
        <ellipse id="Ellipse_5165" data-name="Ellipse 5165" cx="22.665" cy="23.001" rx="22.665" ry="23.001" transform="matrix(0.998, -0.058, 0.058, 0.998, 158.677, 35.162)" fill="#78bcff"/>
        <ellipse id="Ellipse_5166" data-name="Ellipse 5166" cx="20.736" cy="20.317" rx="20.736" ry="20.317" transform="matrix(0.998, -0.058, 0.058, 0.998, 122.208, 39.96)" fill="#78bcff"/>
        <ellipse id="Ellipse_5167" data-name="Ellipse 5167" cx="11.48" cy="11.25" rx="11.48" ry="11.25" transform="matrix(0.998, -0.058, 0.058, 0.998, 156.008, 7.561)" fill="#78bcff"/>
        <ellipse id="Ellipse_5168" data-name="Ellipse 5168" cx="18.671" cy="18.292" rx="18.671" ry="18.292" transform="matrix(0.998, -0.06, 0.06, 0.998, 171.315, 9.555)" fill="#78bcff"/>
        <ellipse id="Ellipse_5169" data-name="Ellipse 5169" cx="16.623" cy="16.287" rx="16.623" ry="16.287" transform="matrix(0.998, -0.058, 0.058, 0.998, 94.21, 19.712)" fill="#78bcff"/>
        <ellipse id="Ellipse_5170" data-name="Ellipse 5170" cx="8.91" cy="8.731" rx="8.91" ry="8.731" transform="matrix(0.998, -0.058, 0.058, 0.998, 90.798, 39.42)" fill="#78bcff"/>
        <path id="Path_190165" data-name="Path 190165" d="M373.447,157.159a8.566,8.566,0,0,1,.448-3.273c-.26.038-.522.067-.788.083a9.026,9.026,0,0,1-9.289-6.609,8.763,8.763,0,0,0-.278,2.742,8.979,8.979,0,0,0,9.566,8.344q.255-.016.5-.047A8.658,8.658,0,0,1,373.447,157.159Z" transform="translate(-282.142 -113.504)" fill="#4e5fa4"/>
        <path id="Path_190166" data-name="Path 190166" d="M542.414,181.75a16.541,16.541,0,0,1-15.519,14.042,16.907,16.907,0,0,1-5.259-.522,22.579,22.579,0,0,1-42.393,8.277,20.923,20.923,0,0,1-37.461-.152c-.184.016-.367.034-.553.045a16.464,16.464,0,0,1-17.492-14.776,8.955,8.955,0,0,1-6.544,3.394,8.866,8.866,0,0,1-9.116-6.445,8.551,8.551,0,0,0-.284,2.727,8.816,8.816,0,0,0,9.4,8.2,8.955,8.955,0,0,0,6.544-3.394,16.449,16.449,0,0,0,17.492,14.776c.186-.011.369-.029.553-.045a20.921,20.921,0,0,0,37.461.148,22.579,22.579,0,0,0,42.393-8.277,16.908,16.908,0,0,0,5.259.522,16.458,16.458,0,0,0,15.654-17.221C542.521,182.61,542.474,182.178,542.414,181.75Z" transform="translate(-316.486 -140.195)" fill="#3c6d9d"/>
        <path id="Path_190167" data-name="Path 190167" d="M296.487,140.806l-41.507-4.551v-3.931l41.357-6.143Z" transform="translate(-197.896 -97.066)" fill="#78bcff"/>
        <path id="Path_190168" data-name="Path 190168" d="M394.484,401.91l3.17,10.683,10.683,3.17-10.683,3.17-3.17,10.686-3.17-10.686-10.683-3.17,10.683-3.17Z" transform="translate(-295.416 -311.066)" fill="#3c6d9d"/>
        <path id="Path_190169" data-name="Path 190169" d="M526.9,359.91l2.351,7.921,7.923,2.351-7.923,2.351-2.351,7.923-2.351-7.923-7.921-2.351,7.921-2.351Z" transform="translate(-400.969 -278.469)" fill="#78bcff"/>
        <path id="Path_190170" data-name="Path 190170" d="M308.215,295.91l1.737,5.85,5.85,1.735-5.85,1.737-1.737,5.85-1.735-5.85-5.85-1.737,5.85-1.735Z" transform="translate(-233.326 -228.797)" fill="#78bcff"/>
        <path id="Path_190171" data-name="Path 190171" d="M834.668,336.75l.434,1.464,1.464.434-1.464.434-.434,1.464-.434-1.464-1.464-.434,1.464-.434Z" transform="translate(-646.332 -260.494)" fill="#78bcff"/>
        <path id="Path_190172" data-name="Path 190172" d="M869.666,314.31l1.229,4.139,4.137,1.229-4.137,1.227-1.229,4.139-1.227-4.139-4.139-1.227,4.139-1.229Z" transform="translate(-670.803 -243.078)" fill="#78bcff"/>
        <path id="Path_190173" data-name="Path 190173" d="M636.793,285.38l1.883,6.347L645.1,293l-6.427,2.5-1.883,6.345-1.883-6.345-6.38-2.44,6.38-1.325Z" transform="translate(-487.817 -220.625)" fill="#7cd4ef"/>
        <path id="Path_190174" data-name="Path 190174" d="M637.135,282.76l1.883,6.347,6.342,1.883-6.342,1.883-1.883,6.345-1.883-6.345-6.342-1.883,6.342-1.883Z" transform="translate(-488.112 -218.591)" fill="#3c6d9d"/>
        <path id="Path_190175" data-name="Path 190175" d="M740.624,3.79l1.652,5.575,5.55.8-5.55,2.51-1.652,5.572-1.654-5.572-5.51-2.492,5.51-.817Z" transform="translate(-569.256 -2.076)" fill="#4e5fa4"/>
        <path id="Path_190176" data-name="Path 190176" d="M740.407,0l1.652,5.575,5.572,1.654-5.572,1.654-1.67,6.342-1.636-6.342L733.18,7.229l5.572-1.654Z" transform="translate(-569.038 0.865)" fill="#78bcff"/>
        <path id="Path_190177" data-name="Path 190177" d="M934.811,100.68l2.04,6.878,6.848.987-6.848,3.1-2.04,6.878-2.042-6.878-6.8-3.074,6.8-1.01Z" transform="translate(-718.667 -77.275)" fill="#4e5fa4"/>
        <path id="Path_190178" data-name="Path 190178" d="M934.547,96l2.039,6.88,6.878,2.04-6.878,2.042-2.062,7.829-2.019-7.829-6.875-2.042,6.875-2.04Z" transform="translate(-718.403 -73.643)" fill="#78bcff"/>
        <path id="Path_190179" data-name="Path 190179" d="M489.208,99.49l1.222,4.124,4.124,1.225-4.124,1.222-1.222,4.124-1.225-4.124-4.124-1.222,4.124-1.225Z" transform="translate(-375.535 -76.351)" fill="#3c6d9d"/>
        <path id="Path_190180" data-name="Path 190180" d="M542.417,84.49l.813,2.743,2.742.815-2.742.813-.813,2.742L541.6,88.86l-2.742-.813,2.742-.815Z" transform="translate(-418.222 -64.709)" fill="#3c6d9d"/>
        <path id="Path_190181" data-name="Path 190181" d="M793.97,237.49l.71,2.4,2.4.712-2.4.712-.71,2.4-.712-2.4-2.4-.712,2.4-.712Z" transform="translate(-613.805 -183.456)" fill="#4e5fa4"/>
        <path id="Path_190182" data-name="Path 190182" d="M824.586,220.14l.557,1.878,1.88.557-1.88.557-.557,1.881-.557-1.881-1.878-.557,1.878-.557Z" transform="translate(-638.09 -169.99)" fill="#4e5fa4"/>
      </g>
    </g>
  </g>
</svg>
