<svg xmlns="http://www.w3.org/2000/svg" xmlns:xlink="http://www.w3.org/1999/xlink" width="295" height="290" viewBox="0 0 295 290">
  <defs>
    <filter id="Ellipse_5188" x="76" y="37" width="143" height="143" filterUnits="userSpaceOnUse">
      <feOffset dy="3" input="SourceAlpha"/>
      <feGaussianBlur stdDeviation="3" result="blur"/>
      <feFlood flood-opacity="0.161"/>
      <feComposite operator="in" in2="blur"/>
      <feComposite in="SourceGraphic"/>
    </filter>
  </defs>
  <g id="t5-g3" transform="translate(-10940 4867)">
    <rect id="Rectangle_40153" data-name="Rectangle 40153" width="295" height="290" rx="20" transform="translate(10940 -4867)" fill="#faf4dc"/>
    <path id="Path_190323" data-name="Path 190323" d="M40.567,15.468H38.526V21H34.756V5.359h6.155a6.87,6.87,0,0,1,4.351,1.234,4.181,4.181,0,0,1,1.568,3.488,5.078,5.078,0,0,1-.661,2.7A4.689,4.689,0,0,1,44.1,14.523l3.266,6.315V21H43.328Zm-2.041-2.9h2.385A2.141,2.141,0,0,0,42.528,12a2.186,2.186,0,0,0,.542-1.578,2.211,2.211,0,0,0-.548-1.588,2.121,2.121,0,0,0-1.611-.576H38.526Zm16.038,8.647a5.975,5.975,0,0,1-4.329-1.6,5.509,5.509,0,0,1-1.654-4.152v-.3a7.138,7.138,0,0,1,.661-3.147A4.834,4.834,0,0,1,51.17,9.909a5.821,5.821,0,0,1,3.008-.747,5.031,5.031,0,0,1,3.867,1.52,5.973,5.973,0,0,1,1.418,4.238v1.407h-7.2a2.609,2.609,0,0,0,.849,1.536,2.525,2.525,0,0,0,1.7.559,3.254,3.254,0,0,0,2.686-1.2l1.654,1.955a4.624,4.624,0,0,1-1.917,1.488A6.48,6.48,0,0,1,54.564,21.215Zm-.408-9.26q-1.59,0-1.891,2.105h3.652v-.279a1.793,1.793,0,0,0-.44-1.348A1.753,1.753,0,0,0,54.156,11.955ZM67,17.734a.836.836,0,0,0-.483-.741,7.353,7.353,0,0,0-1.837-.58,8.376,8.376,0,0,1-2.234-.79,3.743,3.743,0,0,1-1.343-1.187,2.835,2.835,0,0,1-.462-1.6A3.212,3.212,0,0,1,61.966,10.2a5.443,5.443,0,0,1,3.459-1.037,6.03,6.03,0,0,1,3.7,1.042,3.258,3.258,0,0,1,1.4,2.739H66.886q0-1.4-1.472-1.4a1.459,1.459,0,0,0-.956.317.981.981,0,0,0-.387.79.9.9,0,0,0,.473.784,4.466,4.466,0,0,0,1.509.494,13.043,13.043,0,0,1,1.821.462q2.621.9,2.621,3.233a3.044,3.044,0,0,1-1.413,2.589,6.2,6.2,0,0,1-3.658,1,6.322,6.322,0,0,1-2.664-.537,4.455,4.455,0,0,1-1.826-1.461,3.308,3.308,0,0,1-.655-1.944h3.384a1.4,1.4,0,0,0,.537,1.176,2.209,2.209,0,0,0,1.321.371,1.738,1.738,0,0,0,1.112-.3A.962.962,0,0,0,67,17.734Zm9,3.266H72.375V9.377h3.631ZM72.16,6.369a1.63,1.63,0,0,1,.559-1.275,2.364,2.364,0,0,1,2.9,0,1.63,1.63,0,0,1,.559,1.275,1.63,1.63,0,0,1-.559,1.275,2.364,2.364,0,0,1-2.9,0A1.63,1.63,0,0,1,72.16,6.369ZM77.778,15.1a7.1,7.1,0,0,1,1.192-4.351,3.925,3.925,0,0,1,3.33-1.59,3.338,3.338,0,0,1,2.621,1.225V4.5h3.631V21H85.3l-.183-1.246a3.428,3.428,0,0,1-2.836,1.461,3.918,3.918,0,0,1-3.287-1.59A7.325,7.325,0,0,1,77.778,15.1Zm3.62.226q0,3.094,1.8,3.094a1.782,1.782,0,0,0,1.719-1.01V12.986a1.734,1.734,0,0,0-1.7-1.031q-1.676,0-1.815,2.707Zm16.135,4.415a3.732,3.732,0,0,1-3.1,1.472,3.661,3.661,0,0,1-2.9-1.112,4.676,4.676,0,0,1-.983-3.2V9.377h3.62v7.552a1.3,1.3,0,0,0,1.45,1.493,1.892,1.892,0,0,0,1.772-.892V9.377h3.642V21H97.641Zm5.027-4.662a6.86,6.86,0,0,1,.677-3.1,4.84,4.84,0,0,1,1.944-2.089,5.856,5.856,0,0,1,2.976-.73,5.344,5.344,0,0,1,4.114,1.617,6.2,6.2,0,0,1,1.5,4.4v.129a6.019,6.019,0,0,1-1.509,4.313,5.359,5.359,0,0,1-4.087,1.6,5.42,5.42,0,0,1-3.985-1.488,5.819,5.819,0,0,1-1.622-4.034Zm3.62.226a4.325,4.325,0,0,0,.5,2.363,1.682,1.682,0,0,0,1.493.752q1.934,0,1.977-2.976v-.365q0-3.126-2-3.126-1.815,0-1.966,2.7Zm15.275,2.428a.836.836,0,0,0-.483-.741,7.353,7.353,0,0,0-1.837-.58,8.376,8.376,0,0,1-2.234-.79,3.743,3.743,0,0,1-1.343-1.187,2.834,2.834,0,0,1-.462-1.6,3.212,3.212,0,0,1,1.321-2.637,5.443,5.443,0,0,1,3.459-1.037,6.03,6.03,0,0,1,3.7,1.042,3.258,3.258,0,0,1,1.4,2.739h-3.631q0-1.4-1.472-1.4a1.459,1.459,0,0,0-.956.317.981.981,0,0,0-.387.79.9.9,0,0,0,.473.784,4.466,4.466,0,0,0,1.509.494,13.043,13.043,0,0,1,1.821.462q2.621.9,2.621,3.233a3.044,3.044,0,0,1-1.413,2.589,6.2,6.2,0,0,1-3.658,1,6.322,6.322,0,0,1-2.664-.537,4.455,4.455,0,0,1-1.826-1.461,3.308,3.308,0,0,1-.655-1.944h3.384a1.4,1.4,0,0,0,.537,1.176,2.209,2.209,0,0,0,1.321.371,1.738,1.738,0,0,0,1.112-.3A.962.962,0,0,0,121.456,17.734Zm10.205-2.653a6.86,6.86,0,0,1,.677-3.1,4.84,4.84,0,0,1,1.944-2.089,5.856,5.856,0,0,1,2.976-.73,5.344,5.344,0,0,1,4.114,1.617,6.2,6.2,0,0,1,1.5,4.4v.129a6.019,6.019,0,0,1-1.509,4.313,5.359,5.359,0,0,1-4.087,1.6,5.42,5.42,0,0,1-3.985-1.488,5.819,5.819,0,0,1-1.622-4.034Zm3.62.226a4.325,4.325,0,0,0,.5,2.363,1.682,1.682,0,0,0,1.493.752q1.934,0,1.977-2.976v-.365q0-3.126-2-3.126-1.815,0-1.966,2.7ZM151.5,12.653l-1.192-.086a2.142,2.142,0,0,0-2.191,1.074V21H144.5V9.377h3.395l.118,1.493a2.8,2.8,0,0,1,2.546-1.708,3.53,3.53,0,0,1,1.01.129Zm.677,2.449a7.848,7.848,0,0,1,.58-3.115A4.67,4.67,0,0,1,154.424,9.9a4.389,4.389,0,0,1,2.524-.736,3.49,3.49,0,0,1,2.836,1.225l.129-1.01H163.2V20.56a4.9,4.9,0,0,1-.714,2.669,4.584,4.584,0,0,1-2.068,1.74,7.6,7.6,0,0,1-3.137.607,6.557,6.557,0,0,1-2.476-.483,4.47,4.47,0,0,1-1.832-1.257l1.515-2.127a3.319,3.319,0,0,0,2.664,1.192,2.156,2.156,0,0,0,2.406-2.471v-.365a3.4,3.4,0,0,1-2.632,1.149,4.2,4.2,0,0,1-3.437-1.627,6.743,6.743,0,0,1-1.311-4.356Zm3.631.226a4.135,4.135,0,0,0,.537,2.261,1.7,1.7,0,0,0,1.5.833,1.923,1.923,0,0,0,1.708-.784V12.75a1.875,1.875,0,0,0-1.687-.795,1.706,1.706,0,0,0-1.515.865A4.715,4.715,0,0,0,155.81,15.328ZM171.8,21a4.088,4.088,0,0,1-.344-1.042,3.366,3.366,0,0,1-2.793,1.257,4.124,4.124,0,0,1-2.793-.994,3.163,3.163,0,0,1-1.149-2.5,3.251,3.251,0,0,1,1.4-2.857,7.114,7.114,0,0,1,4.061-.967H171.3v-.615q0-1.608-1.386-1.608a1.133,1.133,0,0,0-1.289,1.274H165a3.245,3.245,0,0,1,1.434-2.736A6.027,6.027,0,0,1,170.1,9.162a5.284,5.284,0,0,1,3.513,1.085,3.772,3.772,0,0,1,1.321,2.976v5.146a5.269,5.269,0,0,0,.494,2.449V21Zm-2.267-2.363a2.019,2.019,0,0,0,1.123-.29,1.818,1.818,0,0,0,.639-.655V15.833h-1.053q-1.891,0-1.891,1.7a1.036,1.036,0,0,0,.333.8A1.205,1.205,0,0,0,169.538,18.637Zm.9-14.137h3.824l-2.986,3.373-2.954-.005Zm9.818,4.877.118,1.364A3.942,3.942,0,0,1,183.7,9.162a3.316,3.316,0,0,1,2.712,1.085,5.165,5.165,0,0,1,.929,3.266V21h-3.631V13.663a1.961,1.961,0,0,0-.354-1.294,1.64,1.64,0,0,0-1.289-.414,1.726,1.726,0,0,0-1.579.838V21h-3.62V9.377ZM193.16,21h-3.631V9.377h3.631ZM189.314,6.369a1.63,1.63,0,0,1,.559-1.275,2.364,2.364,0,0,1,2.9,0,1.63,1.63,0,0,1,.559,1.275,1.63,1.63,0,0,1-.559,1.275,2.364,2.364,0,0,1-2.9,0A1.63,1.63,0,0,1,189.314,6.369ZM200.3,18.422a1.61,1.61,0,0,0,1.182-.414,1.517,1.517,0,0,0,.408-1.155h3.395a4.018,4.018,0,0,1-1.37,3.137,5.1,5.1,0,0,1-3.529,1.225,5.158,5.158,0,0,1-4-1.59,6.264,6.264,0,0,1-1.461-4.4v-.15a7.08,7.08,0,0,1,.65-3.11,4.732,4.732,0,0,1,1.875-2.073,5.589,5.589,0,0,1,2.9-.725,5.03,5.03,0,0,1,3.6,1.257,4.458,4.458,0,0,1,1.332,3.405h-3.395a1.987,1.987,0,0,0-.44-1.386,1.52,1.52,0,0,0-1.182-.483q-1.407,0-1.644,1.794a12.659,12.659,0,0,0-.075,1.568,4.972,4.972,0,0,0,.419,2.428A1.45,1.45,0,0,0,200.3,18.422Zm6.059-3.341a6.86,6.86,0,0,1,.677-3.1,4.84,4.84,0,0,1,1.944-2.089,5.856,5.856,0,0,1,2.976-.73,5.344,5.344,0,0,1,4.114,1.617,6.2,6.2,0,0,1,1.5,4.4v.129a6.019,6.019,0,0,1-1.509,4.313,5.359,5.359,0,0,1-4.087,1.6A5.42,5.42,0,0,1,208,19.727a5.819,5.819,0,0,1-1.622-4.034Zm3.62.226a4.325,4.325,0,0,0,.5,2.363,1.682,1.682,0,0,0,1.493.752q1.934,0,1.977-2.976v-.365q0-3.126-2-3.126-1.815,0-1.966,2.7Zm15.275,2.428a.836.836,0,0,0-.483-.741,7.353,7.353,0,0,0-1.837-.58,8.376,8.376,0,0,1-2.234-.79,3.743,3.743,0,0,1-1.343-1.187,2.835,2.835,0,0,1-.462-1.6A3.212,3.212,0,0,1,220.22,10.2a5.443,5.443,0,0,1,3.459-1.037,6.03,6.03,0,0,1,3.7,1.042,3.258,3.258,0,0,1,1.4,2.739H225.14q0-1.4-1.472-1.4a1.459,1.459,0,0,0-.956.317.981.981,0,0,0-.387.79.9.9,0,0,0,.473.784,4.466,4.466,0,0,0,1.509.494,13.042,13.042,0,0,1,1.821.462q2.621.9,2.621,3.233a3.044,3.044,0,0,1-1.413,2.589,6.2,6.2,0,0,1-3.658,1,6.322,6.322,0,0,1-2.664-.537,4.455,4.455,0,0,1-1.826-1.461,3.308,3.308,0,0,1-.655-1.944h3.384a1.4,1.4,0,0,0,.537,1.176,2.209,2.209,0,0,0,1.321.371,1.738,1.738,0,0,0,1.112-.3A.962.962,0,0,0,225.258,17.734Z" transform="translate(10956 -4646)" fill="#12263f"/>
    <g transform="matrix(1, 0, 0, 1, 10940, -4867)" filter="url(#Ellipse_5188)">
      <circle id="Ellipse_5188-2" data-name="Ellipse 5188" cx="62.5" cy="62.5" r="62.5" transform="translate(85 43)" fill="#fff"/>
    </g>
    <path id="Path_190319" data-name="Path 190319" d="M0,0H172V3H0Z" transform="translate(11002 -4674)" fill="#ffb500"/>
    <g id="Group_108224" data-name="Group 108224" transform="translate(-908 1999)">
      <g id="apple" transform="translate(11975.307 -6798.694)">
        <g id="_707c43ff" data-name="#707c43ff" transform="translate(9.329 0)">
          <path id="Path_188624" data-name="Path 188624" d="M201.01,20.834c.131-.294.122-1,.611-.768a18.451,18.451,0,0,1,7.832,4.4,12.571,12.571,0,0,1,3.66,6.994,25.032,25.032,0,0,0-2.089,7.487,5.486,5.486,0,0,1-2.654-.016l.015-.015a7.418,7.418,0,0,0,2.125-4.538,12.307,12.307,0,0,0-2.265-8.064A16.344,16.344,0,0,0,201.01,20.834Z" transform="translate(-201.01 -20.019)" fill="#78b62e"/>
        </g>
        <g id="_9dad5cff" data-name="#9dad5cff" transform="translate(8.387 0.815)">
          <path id="Path_188625" data-name="Path 188625" d="M196.182,25.01a16.343,16.343,0,0,1,7.234,5.485,12.307,12.307,0,0,1,2.265,8.064,7.418,7.418,0,0,1-2.125,4.538,10.223,10.223,0,0,1-6.207-4.688,13.967,13.967,0,0,1-2.071-8.647A20.775,20.775,0,0,1,196.182,25.01Z" transform="translate(-195.24 -25.01)" fill="#87cc34"/>
        </g>
        <g id="_b28544ff" data-name="#b28544ff" transform="translate(0 4.066)">
          <path id="Path_188626" data-name="Path 188626" d="M269.206,46.336a11.752,11.752,0,0,1,3.7-1.416c.173.852.349,1.706.5,2.562a9.3,9.3,0,0,0-5.934,4.143,20.362,20.362,0,0,0-2.952,9.014c-.01.122-.033.369-.044.492a21.1,21.1,0,0,1-2.57-.059c0-.1,0-.3,0-.4a7.256,7.256,0,0,1,.067-.883,25.03,25.03,0,0,1,2.089-7.487A13.538,13.538,0,0,1,269.206,46.336Z" transform="translate(-242.636 -44.92)" fill="#b28544"/>
          <path id="Path_188627" data-name="Path 188627" d="M144.4,200.84a10.147,10.147,0,0,1,7.5-2.267,10.045,10.045,0,0,1,5.214,2.606,12.749,12.749,0,0,1,4.915-2.5,10.821,10.821,0,0,1,7.353.962c.869.416,1.592,1.061,2.42,1.545a8.982,8.982,0,0,1,3.228-2.09,8.368,8.368,0,0,1,5.9-.1c-.7.4-1.444.687-2.147,1.068a20.319,20.319,0,0,0-8.926,8.735,19.015,19.015,0,0,0-1.383,12.2,19.234,19.234,0,0,0,6.7,10.91,30.325,30.325,0,0,0,6.261,3.94c-.283.124-.562.256-.843.384a8.381,8.381,0,0,1-5.531-.168,9.771,9.771,0,0,1-3.294-2.113A22.276,22.276,0,0,1,169.2,235.6a10.734,10.734,0,0,1-8.472.48,13.366,13.366,0,0,1-3.622-2.123,9.626,9.626,0,0,1-5.706,2.668,9.855,9.855,0,0,1-6.413-1.907l-.051-.039-.318-.269c-.122-.3-.465-.242-.723-.269l.1-.255a20.759,20.759,0,0,0,10.2-7.592,16.519,16.519,0,0,0,2.755-9.968A14.865,14.865,0,0,0,154.194,208a18.418,18.418,0,0,0-8.737-6.279,10.889,10.889,0,0,1-1.577-.573l.416-.1.1-.211m18.791,13.743a5.617,5.617,0,0,0-.082,1.249c.036,2.067-.031,4.135.031,6.2.867.01,1.736.033,2.6-.021-.026-2.474,0-4.95-.021-7.424C164.872,214.6,164.03,214.6,163.187,214.584Z" transform="translate(-143.88 -173.365)" fill="#b28544"/>
        </g>
        <g id="_d8574aff" data-name="#d8574aff" transform="translate(0.072 19.161)">
          <path id="Path_188628" data-name="Path 188628" d="M151.242,140.28a13,13,0,0,1,7.781-2.918,14.78,14.78,0,0,1,4.567.647c0,.1,0,.3,0,.4a21.1,21.1,0,0,0,2.57.059c.011-.122.034-.369.044-.492a15,15,0,0,1,5.092-.6c-.093.02-.279.059-.372.077.467.735,1.008,1.419,1.462,2.162a20.788,20.788,0,0,1,2.691,6.808,6.718,6.718,0,0,0,.382,1.569,8.982,8.982,0,0,0-3.228,2.09c-.828-.483-1.551-1.128-2.42-1.545a10.821,10.821,0,0,0-7.353-.962,12.749,12.749,0,0,0-4.915,2.5,10.045,10.045,0,0,0-5.214-2.606,10.147,10.147,0,0,0-7.5,2.267.435.435,0,0,1-.431.041A24.229,24.229,0,0,1,151.242,140.28Z" transform="translate(-144.387 -137.353)" fill="#ffb500"/>
          <path id="Path_188629" data-name="Path 188629" d="M151.768,418.608a9.626,9.626,0,0,0,5.706-2.668,13.365,13.365,0,0,0,3.622,2.123,10.734,10.734,0,0,0,8.472-.48,22.272,22.272,0,0,0,2.565-1.635,9.771,9.771,0,0,0,3.294,2.113,37.524,37.524,0,0,1-2.956,9.1,14.961,14.961,0,0,0-.647,1.427,15.448,15.448,0,0,1-7.006-.97,17.687,17.687,0,0,1-5.359,1.045,12.982,12.982,0,0,1-8.407-3.018,24.058,24.058,0,0,1-6.733-9.47c.222.065.444.139.666.214l.318.269.051.039A9.855,9.855,0,0,0,151.768,418.608Z" transform="translate(-144.32 -370.447)" fill="#ffb500"/>
        </g>
        <g id="_b73a34ff" data-name="#b73a34ff" transform="translate(26.608 19.186)">
          <path id="Path_188630" data-name="Path 188630" d="M306.82,137.587c.093-.018.279-.057.372-.077a13.012,13.012,0,0,1,7.237,2.938,23.108,23.108,0,0,1,6.088,7.971,10.586,10.586,0,0,1,.75,1.814,15.019,15.019,0,0,0-4.007-2.2,8.368,8.368,0,0,0-5.9.1,6.718,6.718,0,0,1-.382-1.569,20.789,20.789,0,0,0-2.691-6.808C307.828,139.006,307.287,138.322,306.82,137.587Z" transform="translate(-306.82 -137.51)" fill="#eba700"/>
          <path id="Path_188631" data-name="Path 188631" d="M325.445,416.29c.269-.18.531-.372.8-.56a24.548,24.548,0,0,1-4.035,7.009c-2.355,2.9-5.658,5.265-9.455,5.676a14.964,14.964,0,0,1,.647-1.427,37.523,37.523,0,0,0,2.956-9.1,8.381,8.381,0,0,0,5.531.168A11.37,11.37,0,0,0,325.445,416.29Z" transform="translate(-311.782 -370.297)" fill="#eba700"/>
        </g>
        <g id="_896029ff" data-name="#896029ff" transform="translate(1.057 29.706)">
          <path id="Path_188632" data-name="Path 188632" d="M304.755,201.93a15.019,15.019,0,0,1,4.007,2.2l.059.039a18.773,18.773,0,0,0-10.51,6.983,15.306,15.306,0,0,0-2.556,10.049,15.993,15.993,0,0,0,3.382,8.919,21.075,21.075,0,0,0,9.671,6.7l-.034.024c-.265.188-.526.38-.8.56-.916.441-1.78.985-2.719,1.38a30.325,30.325,0,0,1-6.261-3.94,19.235,19.235,0,0,1-6.7-10.91,19.015,19.015,0,0,1,1.383-12.2A20.319,20.319,0,0,1,302.607,203C303.311,202.617,304.059,202.327,304.755,201.93Z" transform="translate(-268.764 -201.93)" fill="#896029"/>
          <path id="Path_188633" data-name="Path 188633" d="M261.665,297.33c.843.013,1.685.011,2.53.007.026,2.474,0,4.95.021,7.424-.866.054-1.734.031-2.6.021-.062-2.067,0-4.135-.031-6.2A5.618,5.618,0,0,1,261.665,297.33Z" transform="translate(-243.415 -281.751)" fill="#896029"/>
          <path id="Path_188634" data-name="Path 188634" d="M150.35,420.36l.051.039Z" transform="translate(-150.35 -384.69)" fill="#896029"/>
        </g>
      </g>
      <g id="_000000ff" data-name="#000000ff" transform="translate(11974 -6800)">
        <path id="Path_188622" data-name="Path 188622" d="M145.417,13.026A1.353,1.353,0,0,1,147.1,12.1a18.362,18.362,0,0,1,10.273,6.721,13.821,13.821,0,0,1,2.035,4.22,11.92,11.92,0,0,1,7.9-5.668c.173.854.341,1.71.511,2.564a9.16,9.16,0,0,0-5.557,3.611,18.938,18.938,0,0,0-3.165,8.183,14.245,14.245,0,0,1,10.206.959,20.307,20.307,0,0,1,7.9,7.793,25.984,25.984,0,0,1,2.149,4.393,1.268,1.268,0,0,1-.815,1.623,18.184,18.184,0,0,0-8.681,5.031,13.245,13.245,0,0,0-3.33,6.852,15.735,15.735,0,0,0,1.986,10.709,19.059,19.059,0,0,0,10.131,7.687,1.3,1.3,0,0,1,.67,1.7,27.237,27.237,0,0,1-3.06,5.743,20.146,20.146,0,0,1-5.866,5.727,14.478,14.478,0,0,1-12.79,1.094,15.135,15.135,0,0,1-9.9.287,18.044,18.044,0,0,1-8.758-7.027,27.261,27.261,0,0,1-3.132-5.846,1.3,1.3,0,0,1,.785-1.72A18.778,18.778,0,0,0,146.8,68.8a15.72,15.72,0,0,0,1.808-10.417,13.276,13.276,0,0,0-3.526-7.006,18.445,18.445,0,0,0-8.385-4.843,1.3,1.3,0,0,1-.864-1.793,26.864,26.864,0,0,1,4.416-7.491,16.149,16.149,0,0,1,9.057-5.756,14.377,14.377,0,0,1-4.93-8.55,19.374,19.374,0,0,1,1.04-9.92m2.107,1.924a16.406,16.406,0,0,0-.433,8.168,11.557,11.557,0,0,0,3.8,6.287,6.724,6.724,0,0,0,4.922,1.661,6.268,6.268,0,0,0,1.517-3.676,10.823,10.823,0,0,0-1.968-6.867,15.632,15.632,0,0,0-7.835-5.573m-.069,19.874a17.69,17.69,0,0,0-7.332,7.126,10.224,10.224,0,0,1,10.187,1.633,12.181,12.181,0,0,1,14.547,0,10.219,10.219,0,0,1,10.18-1.633,17.871,17.871,0,0,0-5.213-5.838,11.53,11.53,0,0,0-3.2-1.7,12.248,12.248,0,0,0-8.444.345,1.449,1.449,0,0,1-1.228,0,12.174,12.174,0,0,0-9.5.07m-7.477,10.084a21.621,21.621,0,0,1,5.942,3.668,15.781,15.781,0,0,1,5.124,8.619,18.451,18.451,0,0,1-1.264,11.495,20.866,20.866,0,0,1-9.983,9.55,7.709,7.709,0,0,0,7.768.144,9.286,9.286,0,0,0,1.832-1.408,1.294,1.294,0,0,1,1.633-.041,12.185,12.185,0,0,0,3.289,1.948,9.486,9.486,0,0,0,8.737-1.176c.634-.366,1.143-1.091,1.943-1.048.736.046,1.127.759,1.69,1.135a7.7,7.7,0,0,0,8.66.443,23.371,23.371,0,0,1-6.806-4.922,17.77,17.77,0,0,1-2.721-20.62,19.154,19.154,0,0,1,9.346-7.786,7.672,7.672,0,0,0-8.541.588c-.532.376-.924,1.048-1.636,1.083-.686.052-1.156-.523-1.679-.865a9.485,9.485,0,0,0-11.4-.057c-.562.356-1.05.99-1.782.921-.663-.034-1.035-.652-1.522-1.011a7.664,7.664,0,0,0-8.63-.658m.136,36.382a17.729,17.729,0,0,0,7.3,7.108,12.193,12.193,0,0,0,9.48.118,1.474,1.474,0,0,1,1.225-.057,11.809,11.809,0,0,0,11.238-1.012,17.854,17.854,0,0,0,5.673-6.155,10.236,10.236,0,0,1-10.187-1.633,12.181,12.181,0,0,1-14.542,0A10.227,10.227,0,0,1,140.113,81.289Z" transform="translate(-135.718 -12.04)"/>
        <path id="Path_188623" data-name="Path 188623" d="M261.553,297.25c.867.013,1.734,0,2.6.008q0,3.718,0,7.433c-.87,0-1.741,0-2.611,0C261.546,302.213,261.528,299.732,261.553,297.25Z" transform="translate(-240.993 -250.675)"/>
      </g>
    </g>
  </g>
</svg>
