<svg xmlns="http://www.w3.org/2000/svg" xmlns:xlink="http://www.w3.org/1999/xlink" width="295" height="290" viewBox="0 0 295 290">
  <defs>
    <filter id="Ellipse_5187" x="76" y="37" width="143" height="143" filterUnits="userSpaceOnUse">
      <feOffset dy="3" input="SourceAlpha"/>
      <feGaussianBlur stdDeviation="3" result="blur"/>
      <feFlood flood-opacity="0.161"/>
      <feComposite operator="in" in2="blur"/>
      <feComposite in="SourceGraphic"/>
    </filter>
  </defs>
  <g id="t5-g2" transform="translate(-10625 4867)">
    <rect id="Rectangle_40152" data-name="Rectangle 40152" width="295" height="290" rx="20" transform="translate(10625 -4867)" fill="#faf4dc"/>
    <path id="Path_190322" data-name="Path 190322" d="M20.4,15.468H18.358V21H14.587V5.359h6.155a6.87,6.87,0,0,1,4.351,1.234,4.181,4.181,0,0,1,1.568,3.488,5.078,5.078,0,0,1-.661,2.7,4.689,4.689,0,0,1-2.068,1.738L27.2,20.839V21H23.16Zm-2.041-2.9h2.385A2.141,2.141,0,0,0,22.359,12a2.186,2.186,0,0,0,.542-1.578,2.211,2.211,0,0,0-.548-1.588,2.121,2.121,0,0,0-1.611-.576H18.358ZM34.4,21.215a5.975,5.975,0,0,1-4.329-1.6,5.509,5.509,0,0,1-1.654-4.152v-.3a7.138,7.138,0,0,1,.661-3.147A4.834,4.834,0,0,1,31,9.909a5.821,5.821,0,0,1,3.008-.747,5.031,5.031,0,0,1,3.867,1.52,5.973,5.973,0,0,1,1.418,4.238v1.407H32.1a2.609,2.609,0,0,0,.849,1.536,2.525,2.525,0,0,0,1.7.559,3.254,3.254,0,0,0,2.686-1.2l1.654,1.955a4.624,4.624,0,0,1-1.917,1.488A6.48,6.48,0,0,1,34.4,21.215Zm-.408-9.26q-1.59,0-1.891,2.105H35.75v-.279a1.793,1.793,0,0,0-.44-1.348A1.753,1.753,0,0,0,33.988,11.955Zm12.848,5.779a.836.836,0,0,0-.483-.741,7.353,7.353,0,0,0-1.837-.58,8.376,8.376,0,0,1-2.234-.79,3.743,3.743,0,0,1-1.343-1.187,2.835,2.835,0,0,1-.462-1.6A3.212,3.212,0,0,1,41.8,10.2a5.443,5.443,0,0,1,3.459-1.037,6.03,6.03,0,0,1,3.7,1.042,3.258,3.258,0,0,1,1.4,2.739H46.717q0-1.4-1.472-1.4a1.459,1.459,0,0,0-.956.317.981.981,0,0,0-.387.79.9.9,0,0,0,.473.784,4.466,4.466,0,0,0,1.509.494,13.042,13.042,0,0,1,1.821.462q2.621.9,2.621,3.233a3.044,3.044,0,0,1-1.413,2.589,6.2,6.2,0,0,1-3.658,1,6.322,6.322,0,0,1-2.664-.537,4.455,4.455,0,0,1-1.826-1.461,3.308,3.308,0,0,1-.655-1.944h3.384a1.4,1.4,0,0,0,.537,1.176,2.209,2.209,0,0,0,1.321.371,1.738,1.738,0,0,0,1.112-.3A.962.962,0,0,0,46.835,17.734Zm9,3.266H52.207V9.377h3.631ZM51.992,6.369a1.63,1.63,0,0,1,.559-1.275,2.364,2.364,0,0,1,2.9,0,1.63,1.63,0,0,1,.559,1.275,1.63,1.63,0,0,1-.559,1.275,2.364,2.364,0,0,1-2.9,0A1.63,1.63,0,0,1,51.992,6.369ZM57.61,15.1A7.1,7.1,0,0,1,58.8,10.752a3.925,3.925,0,0,1,3.33-1.59,3.338,3.338,0,0,1,2.621,1.225V4.5h3.631V21H65.129l-.183-1.246a3.428,3.428,0,0,1-2.836,1.461,3.918,3.918,0,0,1-3.287-1.59A7.325,7.325,0,0,1,57.61,15.1Zm3.62.226q0,3.094,1.8,3.094a1.782,1.782,0,0,0,1.719-1.01V12.986a1.734,1.734,0,0,0-1.7-1.031q-1.676,0-1.815,2.707Zm16.135,4.415a3.732,3.732,0,0,1-3.1,1.472,3.661,3.661,0,0,1-2.9-1.112,4.676,4.676,0,0,1-.983-3.2V9.377H74v7.552a1.3,1.3,0,0,0,1.45,1.493,1.892,1.892,0,0,0,1.772-.892V9.377h3.642V21H77.472Zm5.027-4.662a6.86,6.86,0,0,1,.677-3.1,4.84,4.84,0,0,1,1.944-2.089,5.856,5.856,0,0,1,2.976-.73A5.344,5.344,0,0,1,92.1,10.779a6.2,6.2,0,0,1,1.5,4.4v.129A6.019,6.019,0,0,1,92.1,19.62a5.359,5.359,0,0,1-4.087,1.6,5.42,5.42,0,0,1-3.985-1.488A5.819,5.819,0,0,1,82.4,15.693Zm3.62.226a4.325,4.325,0,0,0,.5,2.363,1.682,1.682,0,0,0,1.493.752q1.934,0,1.977-2.976v-.365q0-3.126-2-3.126-1.815,0-1.966,2.7Zm15.275,2.428a.836.836,0,0,0-.483-.741,7.353,7.353,0,0,0-1.837-.58,8.376,8.376,0,0,1-2.234-.79,3.743,3.743,0,0,1-1.343-1.187,2.834,2.834,0,0,1-.462-1.6A3.212,3.212,0,0,1,96.25,10.2a5.443,5.443,0,0,1,3.459-1.037,6.03,6.03,0,0,1,3.7,1.042,3.258,3.258,0,0,1,1.4,2.739h-3.631q0-1.4-1.472-1.4a1.459,1.459,0,0,0-.956.317.981.981,0,0,0-.387.79.9.9,0,0,0,.473.784,4.466,4.466,0,0,0,1.509.494,13.043,13.043,0,0,1,1.821.462q2.621.9,2.621,3.233a3.044,3.044,0,0,1-1.413,2.589,6.2,6.2,0,0,1-3.658,1,6.322,6.322,0,0,1-2.664-.537,4.455,4.455,0,0,1-1.826-1.461,3.308,3.308,0,0,1-.655-1.944h3.384a1.4,1.4,0,0,0,.537,1.176,2.209,2.209,0,0,0,1.321.371,1.738,1.738,0,0,0,1.112-.3A.962.962,0,0,0,101.288,17.734Zm13.986-8.357.118,1.364a3.942,3.942,0,0,1,3.319-1.579,3.316,3.316,0,0,1,2.712,1.085,5.165,5.165,0,0,1,.929,3.266V21h-3.631V13.663a1.961,1.961,0,0,0-.354-1.294,1.64,1.64,0,0,0-1.289-.414,1.726,1.726,0,0,0-1.579.838V21h-3.62V9.377Zm8.626,5.7a6.86,6.86,0,0,1,.677-3.1,4.84,4.84,0,0,1,1.944-2.089,5.856,5.856,0,0,1,2.976-.73,5.344,5.344,0,0,1,4.114,1.617,6.2,6.2,0,0,1,1.5,4.4v.129a6.019,6.019,0,0,1-1.509,4.313,5.359,5.359,0,0,1-4.087,1.6,5.42,5.42,0,0,1-3.985-1.488,5.819,5.819,0,0,1-1.622-4.034Zm3.62.226a4.325,4.325,0,0,0,.5,2.363,1.682,1.682,0,0,0,1.493.752q1.934,0,1.977-2.976v-.365q0-3.126-2-3.126-1.815,0-1.966,2.7Zm21.7-2.653-1.192-.086a2.142,2.142,0,0,0-2.191,1.074V21h-3.62V9.377h3.395l.118,1.493a2.8,2.8,0,0,1,2.546-1.708,3.53,3.53,0,0,1,1.01.129Zm6.725,8.562a5.975,5.975,0,0,1-4.329-1.6,5.509,5.509,0,0,1-1.654-4.152v-.3a7.138,7.138,0,0,1,.661-3.147,4.834,4.834,0,0,1,1.928-2.111,5.821,5.821,0,0,1,3.008-.747,5.031,5.031,0,0,1,3.867,1.52,5.973,5.973,0,0,1,1.418,4.238v1.407h-7.2a2.609,2.609,0,0,0,.849,1.536,2.525,2.525,0,0,0,1.7.559,3.254,3.254,0,0,0,2.686-1.2l1.654,1.955a4.624,4.624,0,0,1-1.917,1.488A6.48,6.48,0,0,1,155.944,21.215Zm-.408-9.26q-1.59,0-1.891,2.105H157.3v-.279a1.793,1.793,0,0,0-.44-1.348A1.753,1.753,0,0,0,155.536,11.955Zm11.677,6.467a1.61,1.61,0,0,0,1.182-.414,1.517,1.517,0,0,0,.408-1.155H172.2a4.018,4.018,0,0,1-1.37,3.137,5.1,5.1,0,0,1-3.529,1.225,5.158,5.158,0,0,1-4-1.59,6.264,6.264,0,0,1-1.461-4.4v-.15a7.08,7.08,0,0,1,.65-3.11,4.732,4.732,0,0,1,1.875-2.073,5.589,5.589,0,0,1,2.9-.725,5.03,5.03,0,0,1,3.6,1.257,4.458,4.458,0,0,1,1.332,3.405H168.8a1.987,1.987,0,0,0-.44-1.386,1.52,1.52,0,0,0-1.182-.483q-1.407,0-1.644,1.794a12.659,12.659,0,0,0-.075,1.568,4.972,4.972,0,0,0,.419,2.428A1.45,1.45,0,0,0,167.212,18.422ZM177.546,21h-3.631V9.377h3.631ZM173.7,6.369a1.63,1.63,0,0,1,.559-1.275,2.364,2.364,0,0,1,2.9,0,1.63,1.63,0,0,1,.559,1.275,1.63,1.63,0,0,1-.559,1.275,2.364,2.364,0,0,1-2.9,0A1.63,1.63,0,0,1,173.7,6.369ZM184.69,18.422a1.61,1.61,0,0,0,1.182-.414,1.517,1.517,0,0,0,.408-1.155h3.395a4.018,4.018,0,0,1-1.37,3.137,5.1,5.1,0,0,1-3.529,1.225,5.158,5.158,0,0,1-4-1.59,6.264,6.264,0,0,1-1.461-4.4v-.15a7.08,7.08,0,0,1,.65-3.11,4.732,4.732,0,0,1,1.875-2.073,5.589,5.589,0,0,1,2.9-.725,5.03,5.03,0,0,1,3.6,1.257,4.458,4.458,0,0,1,1.332,3.405H186.28a1.987,1.987,0,0,0-.44-1.386,1.52,1.52,0,0,0-1.182-.483q-1.407,0-1.644,1.794a12.659,12.659,0,0,0-.075,1.568,4.972,4.972,0,0,0,.419,2.428A1.45,1.45,0,0,0,184.69,18.422ZM195.024,21h-3.631V4.5h3.631Zm8.776,0a4.088,4.088,0,0,1-.344-1.042,3.366,3.366,0,0,1-2.793,1.257,4.124,4.124,0,0,1-2.793-.994,3.163,3.163,0,0,1-1.149-2.5,3.251,3.251,0,0,1,1.4-2.857,7.114,7.114,0,0,1,4.061-.967H203.3v-.615q0-1.608-1.386-1.608a1.133,1.133,0,0,0-1.289,1.274H197a3.245,3.245,0,0,1,1.434-2.736,6.027,6.027,0,0,1,3.658-1.051,5.284,5.284,0,0,1,3.513,1.085,3.772,3.772,0,0,1,1.321,2.976v5.146a5.269,5.269,0,0,0,.494,2.449V21Zm-2.267-2.363a2.019,2.019,0,0,0,1.123-.29,1.818,1.818,0,0,0,.639-.655V15.833h-1.053q-1.891,0-1.891,1.7a1.036,1.036,0,0,0,.333.8A1.205,1.205,0,0,0,201.534,18.637Zm18.187-3.352a7.084,7.084,0,0,1-1.182,4.394,3.958,3.958,0,0,1-3.33,1.536,3.435,3.435,0,0,1-2.857-1.407L212.2,21h-3.244V4.5h3.62v5.812a3.314,3.314,0,0,1,2.61-1.149,3.959,3.959,0,0,1,3.352,1.558A7.121,7.121,0,0,1,219.72,15.1Zm-3.631-.231a4.725,4.725,0,0,0-.446-2.386,1.5,1.5,0,0,0-1.37-.713,1.733,1.733,0,0,0-1.7.933V17.5a1.743,1.743,0,0,0,1.719.922,1.537,1.537,0,0,0,1.622-1.244A8.934,8.934,0,0,0,216.089,15.054ZM225.134,21H221.5V4.5h3.631Zm7.853.215a5.975,5.975,0,0,1-4.329-1.6A5.509,5.509,0,0,1,227,15.468v-.3a7.138,7.138,0,0,1,.661-3.147,4.834,4.834,0,0,1,1.928-2.111,5.821,5.821,0,0,1,3.008-.747,5.031,5.031,0,0,1,3.867,1.52,5.973,5.973,0,0,1,1.418,4.238v1.407h-7.2a2.609,2.609,0,0,0,.849,1.536,2.525,2.525,0,0,0,1.7.559,3.254,3.254,0,0,0,2.686-1.2l1.654,1.955a4.624,4.624,0,0,1-1.917,1.488A6.48,6.48,0,0,1,232.987,21.215Zm-.408-9.26q-1.59,0-1.891,2.105h3.652v-.279a1.793,1.793,0,0,0-.44-1.348A1.753,1.753,0,0,0,232.579,11.955Zm12.848,5.779a.836.836,0,0,0-.483-.741,7.353,7.353,0,0,0-1.837-.58,8.376,8.376,0,0,1-2.234-.79,3.743,3.743,0,0,1-1.343-1.187,2.835,2.835,0,0,1-.462-1.6,3.212,3.212,0,0,1,1.321-2.637,5.443,5.443,0,0,1,3.459-1.037,6.03,6.03,0,0,1,3.7,1.042,3.258,3.258,0,0,1,1.4,2.739h-3.631q0-1.4-1.472-1.4a1.459,1.459,0,0,0-.956.317.981.981,0,0,0-.387.79.9.9,0,0,0,.473.784,4.466,4.466,0,0,0,1.509.494,13.042,13.042,0,0,1,1.821.462q2.621.9,2.621,3.233a3.044,3.044,0,0,1-1.413,2.589,6.2,6.2,0,0,1-3.658,1,6.322,6.322,0,0,1-2.664-.537,4.455,4.455,0,0,1-1.826-1.461,3.308,3.308,0,0,1-.655-1.944h3.384a1.4,1.4,0,0,0,.537,1.176,2.209,2.209,0,0,0,1.321.371,1.738,1.738,0,0,0,1.112-.3A.962.962,0,0,0,245.426,17.734Z" transform="translate(10641 -4646)" fill="#12263f"/>
    <g transform="matrix(1, 0, 0, 1, 10625, -4867)" filter="url(#Ellipse_5187)">
      <circle id="Ellipse_5187-2" data-name="Ellipse 5187" cx="62.5" cy="62.5" r="62.5" transform="translate(85 43)" fill="#fff"/>
    </g>
    <path id="Path_190318" data-name="Path 190318" d="M0,0H172V3H0Z" transform="translate(10687 -4674)" fill="#ffb500"/>
    <g id="Group_108222" data-name="Group 108222" transform="translate(-454 1000.5)">
      <g id="tirar-basura_1_" data-name="tirar-basura (1)" transform="translate(11193 -5797)">
        <g id="_f6dccdff" data-name="#f6dccdff" transform="translate(8.941)">
          <path id="Path_188568" data-name="Path 188568" d="M93.406,0h.249q-.015,8.62,0,17.24a6.334,6.334,0,0,1-3.983-1.589A10.383,10.383,0,0,1,86.4,8.629a8.648,8.648,0,0,1,1.626-6.313A7.161,7.161,0,0,1,93.406,0Z" transform="translate(-86.357)" fill="#f6dccd"/>
        </g>
        <g id="_f1cbbcff" data-name="#f1cbbcff" transform="translate(16.232)">
          <path id="Path_188569" data-name="Path 188569" d="M136.136,0h.791a7,7,0,0,1,4.843,2.256,7.881,7.881,0,0,1,1.69,5.219,10.906,10.906,0,0,1-2.687,7.6,6.317,6.317,0,0,1-4.641,2.169Q136.124,8.62,136.136,0Z" transform="translate(-136.129)" fill="#f1cbbc"/>
        </g>
        <g id="_f0f0f0ff" data-name="#f0f0f0ff" transform="translate(45.94 17.554)">
          <path id="Path_188570" data-name="Path 188570" d="M340.556,120.159a1.876,1.876,0,0,1,2.53.4q2.674,3.276,5.332,6.565c1.056,1.292,2.12,2.58,3.152,3.892a22.273,22.273,0,0,1-2.937,2.379c-3.217-3.993-6.464-7.964-9.693-11.949C339.483,121.026,340,120.567,340.556,120.159Z" transform="translate(-338.94 -119.836)" fill="#f0f0f0"/>
        </g>
        <g id="_baeb6cff" data-name="#baeb6cff" transform="translate(0 18.754)">
          <path id="Path_188571" data-name="Path 188571" d="M27.6,130.054a12.762,12.762,0,0,1,7.044-2.013c2.309-.019,4.616,0,6.924-.012q0,15.308,0,30.614c-2.713.013-5.424.006-8.137,0-.021-6.548.009-13.1-.015-19.642a1.212,1.212,0,0,0-1.547-1.185,1.253,1.253,0,0,0-.876,1.326C31,145.62,30.972,152.1,31,158.569A7.47,7.47,0,0,1,27.66,157a6.457,6.457,0,0,1-2.338-4.942q0-8.8,0-17.6A5.445,5.445,0,0,1,27.6,130.054Z" transform="translate(-25.32 -128.03)" fill="#87cc34"/>
        </g>
        <g id="_96d629ff" data-name="#96d629ff" transform="translate(5.665 18.749)">
          <path id="Path_188572" data-name="Path 188572" d="M136.213,128c2.087-.012,4.176,0,6.265,0a13.658,13.658,0,0,1,9.078,3.193q6.765,5.851,13.535,11.7a4.024,4.024,0,1,1-5.158,6.177q-6.253-5.39-12.5-10.79a3.2,3.2,0,0,0-.858-.5c-.3.148-.665.237-.842.546a2.68,2.68,0,0,0-.141,1.094c.019,6.4-.015,12.8.018,19.2q-4.7,0-9.4,0Q136.221,143.3,136.213,128Z" transform="translate(-125.631 -127.991)" fill="#78b62e"/>
          <path id="Path_188573" data-name="Path 188573" d="M64,195.874a1.253,1.253,0,0,1,.876-1.326,1.212,1.212,0,0,1,1.547,1.185c.023,6.546-.006,13.094.015,19.642-.417,0-.834,0-1.25,0a6.45,6.45,0,0,1-1.176-.083C63.982,208.823,64.005,202.347,64,195.874Z" transform="translate(-63.994 -184.751)" fill="#78b62e"/>
        </g>
        <g id="_e8e8e8ff" data-name="#e8e8e8ff" transform="translate(41.512 23.58)">
          <path id="Path_188574" data-name="Path 188574" d="M404.953,161.215a1.865,1.865,0,0,1,2.336.415c.7.816,1.345,1.679,2.049,2.492-.8.678-1.638,1.32-2.424,2.019.973,1.374,2.123,2.615,3.144,3.955,1.772,2.191,3.56,4.373,5.328,6.568a1.888,1.888,0,0,1-.082,2.514c-.526.5-1.113.93-1.679,1.384-3.256-4.017-6.538-8.014-9.769-12.051a22.277,22.277,0,0,0,2.937-2.379c-1.033-1.312-2.1-2.6-3.152-3.892C404.082,161.9,404.482,161.511,404.953,161.215Z" transform="translate(-389.734 -160.972)" fill="#e8e8e8"/>
          <path id="Path_188575" data-name="Path 188575" d="M308.715,324.454a1.514,1.514,0,0,1,1.5-1.627c3.62-.025,7.241.009,10.86-.016.018,7.481,0,14.96.009,22.441-.015,1.758.026,3.516-.022,5.272h-9.192a1.745,1.745,0,0,1-1.668-1.7Q309.454,336.641,308.715,324.454Z" transform="translate(-308.707 -299.103)" fill="#e8e8e8"/>
        </g>
        <g id="_d9d9d9ff" data-name="#d9d9d9ff" transform="translate(6.856 26.729)">
          <path id="Path_188576" data-name="Path 188576" d="M425.99,184.489c.787-.7,1.62-1.34,2.424-2.019.7.819,1.37,1.658,2.039,2.5a1.988,1.988,0,0,1,.308,1.775c-.274.776-1.042,1.182-1.627,1.7C428.113,187.1,426.963,185.863,425.99,184.489Z" transform="translate(-374.155 -182.47)" fill="#d2e1f1"/>
          <path id="Path_188577" data-name="Path 188577" d="M393.043,322.741c3.51-.022,7.02,0,10.529-.01a1.772,1.772,0,0,1,1.465.472c.671.665.381,1.677.347,2.511q-.7,11.573-1.408,23.147a1.837,1.837,0,0,1-1.355,1.594H393.03c.048-1.756.007-3.514.022-5.272C393.046,337.7,393.061,330.222,393.043,322.741Z" transform="translate(-346.023 -302.183)" fill="#d2e1f1"/>
          <path id="Path_188578" data-name="Path 188578" d="M72.127,337.029c.416,0,.832-.007,1.25,0,2.713,0,5.424.009,8.137,0-.012,6.834,0,13.666,0,20.5-.01,1.711.032,3.422-.023,5.133H73.372a1.607,1.607,0,0,1-1.244-1.594Q72.122,349.043,72.127,337.029Z" transform="translate(-72.126 -314.381)" fill="#d2e1f1"/>
        </g>
        <g id="_c9c9c9ff" data-name="#c9c9c9ff" transform="translate(16.216 37.36)">
          <path id="Path_188579" data-name="Path 188579" d="M371.19,255.115a.762.762,0,0,1,.984.357c.478.738.961,1.474,1.427,2.219a.753.753,0,0,1-.209,1.055c-.766.508-1.537,1.012-2.319,1.494a.755.755,0,0,1-1.066-.264q-.723-1.1-1.43-2.215a.763.763,0,0,1,.224-1.124C369.6,256.132,370.376,255.594,371.19,255.115Z" transform="translate(-334.377 -255.044)" fill="#b0c0d2"/>
          <path id="Path_188580" data-name="Path 188580" d="M136.048,337q4.7-.011,9.4,0c.025,7.961.007,15.924.009,23.886a1.71,1.71,0,0,1-1.1,1.748H136.02c.056-1.711.013-3.422.023-5.133C136.046,350.662,136.036,343.83,136.048,337Z" transform="translate(-136.02 -324.988)" fill="#b0c0d2"/>
        </g>
      </g>
      <g id="_000000ff" data-name="#000000ff" transform="translate(11193.146 -5797)">
        <path id="Path_188581" data-name="Path 188581" d="M42.182,0h.724a8.04,8.04,0,0,1,5.651,2.347A9.02,9.02,0,0,1,50.7,8.941a11.735,11.735,0,0,1-2.716,7.311,8.364,8.364,0,0,1-3.012,2.208,37.067,37.067,0,0,1,6.375.27,13.392,13.392,0,0,1,6.541,2.99Q64.582,27.5,71.271,33.283a5.021,5.021,0,0,1-5.089,8.432,7.47,7.47,0,0,1-2.449-1.67q-5.52-4.766-11.041-9.529,0,21,0,42a7.886,7.886,0,0,1-.079,1.714,1.3,1.3,0,0,1-.891.772h-.4a1.249,1.249,0,0,1-.97-1.308q-.007-21.316,0-42.631a3.484,3.484,0,0,1,.441-2.312,2.143,2.143,0,0,1,3.053-.337Q59.431,33.218,65,38.043A15.42,15.42,0,0,0,66.532,39.3,2.675,2.675,0,0,0,69.668,35Q63,29.216,56.31,23.454a12.311,12.311,0,0,0-8.051-2.648q-6-.011-12.006,0a11.968,11.968,0,0,0-6.321,1.585,4.175,4.175,0,0,0-1.919,3.539q-.009,8.787,0,17.575a5.071,5.071,0,0,0,2.1,4.094,6.134,6.134,0,0,0,2.19,1c.01-6.192,0-12.385.007-18.579a1.171,1.171,0,1,1,2.336.006q.011,21.834,0,43.667A1.263,1.263,0,0,1,33.691,75h-.407a1.243,1.243,0,0,1-.981-1.314q-.007-11.358,0-22.715a7.866,7.866,0,0,1-6.105-4.733,9.294,9.294,0,0,1-.527-3.905V27.252a11.849,11.849,0,0,1,.215-3.045,6.273,6.273,0,0,1,1.948-3.158,10.676,10.676,0,0,1,5.092-2.275,39.623,39.623,0,0,1,7.087-.319c-3.063-1.3-4.963-4.437-5.52-7.619C34.014,8.092,34.282,5,36.076,2.758A7.956,7.956,0,0,1,42.182,0M41.165,2.449a5.4,5.4,0,0,0-2.874,1.345,5.509,5.509,0,0,0-1.581,3.372,10.476,10.476,0,0,0,1,6.019,6.227,6.227,0,0,0,3.409,3.171,4.434,4.434,0,0,0,3.9-.558A7.621,7.621,0,0,0,47.9,11.67a10.559,10.559,0,0,0,.272-5.153,5.056,5.056,0,0,0-2.146-3.258A7.151,7.151,0,0,0,41.165,2.449Z" transform="translate(-25.66)"/>
        <path id="Path_188582" data-name="Path 188582" d="M329.991,118.62a2.973,2.973,0,0,1,3.951.5q2.246,2.747,4.474,5.508a3.1,3.1,0,0,1,2.827-.615,3.209,3.209,0,0,1,1.679,1.229c1.26,1.575,2.559,3.119,3.8,4.707a3.035,3.035,0,0,1-.655,4.093c1.469,1.822,2.953,3.631,4.422,5.454a2.984,2.984,0,0,1,.292,3.294,6.467,6.467,0,0,1-1.708,1.679,1.931,1.931,0,0,1-1.2.621,1.243,1.243,0,0,1-.987-.536Q337.6,133.112,328.3,121.669a1.191,1.191,0,0,1-.016-1.661c.543-.491,1.122-.942,1.7-1.389m.779,2.363,17.288,21.287c.341-.289.939-.627.688-1.163-.4-.612-.913-1.137-1.352-1.717q-7.356-9.059-14.713-18.119c-.249-.278-.441-.639-.782-.813-.463-.164-.8.293-1.129.524m9.111,5.424c1.578,1.95,3.136,3.916,4.752,5.833.239-.3.413-.741.091-1.055-1.267-1.566-2.531-3.133-3.81-4.689C340.668,126.13,340.214,126.241,339.881,126.407Z" transform="translate(-283.677 -100.786)"/>
        <path id="Path_188583" data-name="Path 188583" d="M358.507,246.644a1.153,1.153,0,0,1,1.523.417c.7,1.055,1.371,2.133,2.068,3.19a1.41,1.41,0,0,1,.3,1.156,1.431,1.431,0,0,1-.725.861c-1.02.647-2.03,1.308-3.045,1.961a1.333,1.333,0,0,1-1.058.272c-.492-.075-.769-.524-1.012-.908-.655-1.049-1.355-2.068-2-3.125a1.169,1.169,0,0,1,.456-1.6c1.165-.737,2.306-1.513,3.483-2.228m-1.3,3.611q.477.743.957,1.485.745-.477,1.487-.957-.477-.745-.957-1.487Q357.945,249.774,357.2,250.255Z" transform="translate(-306.254 -210.396)"/>
        <path id="Path_188584" data-name="Path 188584" d="M298.524,314.081a1.59,1.59,0,0,1,1.274-.381c7.863.018,15.727-.01,23.59.013a1.183,1.183,0,0,1,1.2,1.336q-.721,12.019-1.46,24.037a4.742,4.742,0,0,1-.442,2.25,2.934,2.934,0,0,1-2.171,1.412H302.341a2.864,2.864,0,0,1-2.6-2.629q-.773-12.45-1.523-24.9a1.387,1.387,0,0,1,.3-1.135m2.1,1.969q.723,11.874,1.449,23.747a.549.549,0,0,0,.64.606c5.817,0,11.634.009,17.449,0a.516.516,0,0,0,.57-.571q.736-11.887,1.453-23.779Z" transform="translate(-258.288 -267.748)"/>
        <path id="Path_188585" data-name="Path 188585" d="M134.273,369.567a1.181,1.181,0,0,1,1.494-1.21,1.254,1.254,0,0,1,.85,1.367q-.009,9.158,0,18.314a1.254,1.254,0,0,1-.977,1.317h-.349a1.232,1.232,0,0,1-1.017-1.307Q134.272,378.808,134.273,369.567Z" transform="translate(-118.358 -314.354)"/>
      </g>
    </g>
  </g>
</svg>
